<svg width="24" height="24" viewBox="0 0 24 24" fill="none" xmlns="http://www.w3.org/2000/svg">
<g clip-path="url(#clip0_403_3287)">
<path d="M13.0001 2.051V1C13.0001 0.734784 12.8947 0.48043 12.7072 0.292893C12.5196 0.105357 12.2653 0 12.0001 0C11.7348 0 11.4805 0.105357 11.2929 0.292893C11.1054 0.48043 11.0001 0.734784 11.0001 1V2.051C8.98682 2.23149 7.06248 2.9642 5.43904 4.16842C3.8156 5.37264 2.55608 7.00161 1.79924 8.87588C1.0424 10.7501 0.817611 12.797 1.14965 14.7908C1.48169 16.7847 2.35766 18.6482 3.68105 20.176C3.15842 20.4345 2.72168 20.8387 2.42344 21.3397C2.12519 21.8407 1.97816 22.4173 2.00005 23C2.00005 23.2652 2.10541 23.5196 2.29295 23.7071C2.48048 23.8946 2.73484 24 3.00005 24C3.26527 24 3.51962 23.8946 3.70716 23.7071C3.8947 23.5196 4.00005 23.2652 4.00005 23C3.99174 22.6918 4.1024 22.3922 4.30907 22.1633C4.51574 21.9345 4.80257 21.794 5.11005 21.771C5.17884 21.7579 5.24593 21.7371 5.31005 21.709C7.22559 23.1947 9.58089 24.001 12.0051 24.001C14.4292 24.001 16.7845 23.1947 18.7001 21.709C18.7586 21.736 18.8195 21.7574 18.8821 21.773C19.1906 21.794 19.4791 21.9334 19.6874 22.162C19.8957 22.3906 20.0077 22.6908 20.0001 23C20.0001 23.2652 20.1054 23.5196 20.2929 23.7071C20.4805 23.8946 20.7348 24 21.0001 24C21.2653 24 21.5196 23.8946 21.7072 23.7071C21.8947 23.5196 22.0001 23.2652 22.0001 23C22.0219 22.4173 21.8749 21.8407 21.5767 21.3397C21.2784 20.8387 20.8417 20.4345 20.3191 20.176C21.6425 18.6482 22.5184 16.7847 22.8505 14.7908C23.1825 12.797 22.9577 10.7501 22.2009 8.87588C21.444 7.00161 20.1845 5.37264 18.5611 4.16842C16.9376 2.9642 15.0133 2.23149 13.0001 2.051ZM3.00005 13C3.00005 11.22 3.52789 9.47991 4.51683 7.99987C5.50576 6.51983 6.91137 5.36627 8.5559 4.68508C10.2004 4.0039 12.01 3.82567 13.7559 4.17293C15.5017 4.5202 17.1053 5.37737 18.364 6.63604C19.6227 7.89471 20.4799 9.49836 20.8271 11.2442C21.1744 12.99 20.9962 14.7996 20.315 16.4442C19.6338 18.0887 18.4802 19.4943 17.0002 20.4832C15.5201 21.4722 13.7801 22 12.0001 22C9.614 21.9971 7.3265 21.0479 5.63931 19.3607C3.95211 17.6736 3.00296 15.3861 3.00005 13Z" fill="currentColor"/>
<path d="M19.2147 -2.17429e-05C18.9495 -2.17429e-05 18.6952 0.105335 18.5076 0.292871C18.3201 0.480408 18.2147 0.734762 18.2147 0.999978C18.2147 1.26519 18.3201 1.51955 18.5076 1.70709C18.6952 1.89462 18.9495 1.99998 19.2147 1.99998C19.5634 1.97347 19.9139 2.01786 20.245 2.13046C20.5761 2.24306 20.8809 2.42155 21.1412 2.65516C21.4014 2.88877 21.6116 3.17266 21.7592 3.48972C21.9068 3.80678 21.9886 4.15044 21.9997 4.49998C21.9997 4.76519 22.1051 5.01955 22.2926 5.20708C22.4802 5.39462 22.7345 5.49998 22.9997 5.49998C23.2649 5.49998 23.5193 5.39462 23.7068 5.20708C23.8944 5.01955 23.9997 4.76519 23.9997 4.49998C23.9869 3.88847 23.8523 3.28566 23.6037 2.72681C23.3552 2.16795 22.9977 1.66428 22.5521 1.24526C22.1065 0.826242 21.5819 0.500285 21.0088 0.286462C20.4358 0.0726399 19.8259 -0.0247541 19.2147 -2.17429e-05Z" fill="currentColor"/>
<path d="M2 4.49998C2.01115 4.15044 2.09296 3.80678 2.24052 3.48972C2.38807 3.17266 2.59831 2.88877 2.85855 2.65516C3.11879 2.42155 3.42365 2.24306 3.75474 2.13046C4.08583 2.01786 4.43629 1.97347 4.785 1.99998C5.05022 1.99998 5.30457 1.89462 5.49211 1.70709C5.67964 1.51955 5.785 1.26519 5.785 0.999978C5.785 0.734762 5.67964 0.480408 5.49211 0.292871C5.30457 0.105335 5.05022 -2.17429e-05 4.785 -2.17429e-05C4.17386 -0.0247541 3.56393 0.0726399 2.99088 0.286462C2.41784 0.500285 1.89319 0.826242 1.44763 1.24526C1.00207 1.66428 0.644547 2.16795 0.395981 2.72681C0.147415 3.28566 0.0127962 3.88847 0 4.49998C0 4.76519 0.105357 5.01955 0.292893 5.20708C0.48043 5.39462 0.734784 5.49998 1 5.49998C1.26522 5.49998 1.51957 5.39462 1.70711 5.20708C1.89464 5.01955 2 4.76519 2 4.49998Z" fill="currentColor"/>
<path d="M13.0001 11.586V7C13.0001 6.73478 12.8948 6.48043 12.7072 6.29289C12.5197 6.10536 12.2653 6 12.0001 6C11.7349 6 11.4806 6.10536 11.293 6.29289C11.1055 6.48043 11.0001 6.73478 11.0001 7V12C11.0002 12.2652 11.1056 12.5195 11.2931 12.707L14.2931 15.707C14.4817 15.8892 14.7343 15.99 14.9965 15.9877C15.2587 15.9854 15.5095 15.8802 15.6949 15.6948C15.8803 15.5094 15.9855 15.2586 15.9878 14.9964C15.9901 14.7342 15.8893 14.4816 15.7071 14.293L13.0001 11.586Z" fill="currentColor"/>
</g>
<defs>
<clipPath id="clip0_403_3287">
<rect width="24" height="24" fill="white"/>
</clipPath>
</defs>
</svg>
