<svg width="24" height="24" viewBox="0 0 24 24" fill="none" xmlns="http://www.w3.org/2000/svg">
<g clip-path="url(#clip0_406_2267)">
<path d="M16 4.01801C17.1157 4.06341 18.1967 4.41928 19.1212 5.04556C20.0456 5.67184 20.777 6.54369 21.233 7.56301L22.761 11H17C16.7348 11 16.4804 10.8946 16.2929 10.7071C16.1054 10.5196 16 10.2652 16 10V4.01801ZM8.942 21C8.97863 21.1642 8.99807 21.3318 9 21.5C9 22.163 8.73661 22.7989 8.26777 23.2678C7.79893 23.7366 7.16304 24 6.5 24C5.83696 24 5.20107 23.7366 4.73223 23.2678C4.26339 22.7989 4 22.163 4 21.5C4.00193 21.3318 4.02137 21.1642 4.058 21H8.942ZM19.942 21C19.9786 21.1642 19.9981 21.3318 20 21.5C20 22.163 19.7366 22.7989 19.2678 23.2678C18.7989 23.7366 18.163 24 17.5 24C16.837 24 16.2011 23.7366 15.7322 23.2678C15.2634 22.7989 15 22.163 15 21.5C15.0019 21.3318 15.0214 21.1642 15.058 21H19.942ZM24 16.122C24.0041 16.5115 23.9283 16.8977 23.7774 17.2568C23.6265 17.6159 23.4036 17.9403 23.1225 18.2099C22.8415 18.4796 22.5081 18.6888 22.1431 18.8247C21.778 18.9606 21.389 19.0202 21 19H3C2.20435 19 1.44129 18.6839 0.87868 18.1213C0.31607 17.5587 0 16.7957 0 16L0 9.00001C0.00158786 7.67441 0.528882 6.40356 1.46622 5.46623C2.40356 4.52889 3.67441 4.00159 5 4.00001H9.2L9.86 1.35801C9.95735 0.970258 10.1814 0.626136 10.4967 0.380263C10.8119 0.134389 11.2002 0.000854492 11.6 0.000854492C11.9998 0.000854492 12.3881 0.134389 12.7033 0.380263C13.0186 0.626136 13.2427 0.970258 13.34 1.35801L14 4.00001V10C14 10.7957 14.3161 11.5587 14.8787 12.1213C15.4413 12.6839 16.2044 13 17 13H23.537C23.7931 14.023 23.9482 15.0687 24 16.122ZM10 12C10 11.7348 9.89464 11.4804 9.70711 11.2929C9.51957 11.1054 9.26522 11 9 11H8V10C8 9.73479 7.89464 9.48044 7.70711 9.2929C7.51957 9.10536 7.26522 9.00001 7 9.00001C6.73478 9.00001 6.48043 9.10536 6.29289 9.2929C6.10536 9.48044 6 9.73479 6 10V11H5C4.73478 11 4.48043 11.1054 4.29289 11.2929C4.10536 11.4804 4 11.7348 4 12C4 12.2652 4.10536 12.5196 4.29289 12.7071C4.48043 12.8946 4.73478 13 5 13H6V14C6 14.2652 6.10536 14.5196 6.29289 14.7071C6.48043 14.8946 6.73478 15 7 15C7.26522 15 7.51957 14.8946 7.70711 14.7071C7.89464 14.5196 8 14.2652 8 14V13H9C9.26522 13 9.51957 12.8946 9.70711 12.7071C9.89464 12.5196 10 12.2652 10 12Z" fill="currentColor"/>
</g>
<defs>
<clipPath id="clip0_406_2267">
<rect width="24" height="24" fill="white"/>
</clipPath>
</defs>
</svg>
