<svg width="24" height="24" viewBox="0 0 24 24" fill="none" xmlns="http://www.w3.org/2000/svg">
<g clip-path="url(#clip0_403_3208)">
<path d="M23.052 11.654L21.233 7.56301C20.7616 6.50244 19.9927 5.60135 19.0195 4.96895C18.0463 4.33654 16.9106 3.99997 15.75 4.00001H14.4L13.74 1.35801C13.6427 0.970258 13.4186 0.626136 13.1033 0.380263C12.7881 0.134389 12.3998 0.000854492 12 0.000854492C11.6002 0.000854492 11.2119 0.134389 10.8967 0.380263C10.5814 0.626136 10.3573 0.970258 10.26 1.35801L9.6 4.00001H5C3.67441 4.00159 2.40356 4.52889 1.46622 5.46623C0.528882 6.40356 0.00158786 7.67441 0 9.00001L0 17C0.0021456 17.6309 0.203551 18.2451 0.575468 18.7547C0.947384 19.2644 1.4708 19.6435 2.071 19.838C2.02573 20.0558 2.00195 20.2775 2 20.5C2 21.4283 2.36875 22.3185 3.02513 22.9749C3.6815 23.6313 4.57174 24 5.5 24C6.42826 24 7.3185 23.6313 7.97487 22.9749C8.63125 22.3185 9 21.4283 9 20.5C8.99843 20.3326 8.98473 20.1655 8.959 20H15.041C15.0153 20.1655 15.0016 20.3326 15 20.5C15 21.4283 15.3687 22.3185 16.0251 22.9749C16.6815 23.6313 17.5717 24 18.5 24C19.4283 24 20.3185 23.6313 20.9749 22.9749C21.6313 22.3185 22 21.4283 22 20.5C21.998 20.2775 21.9743 20.0558 21.929 19.838C22.5292 19.6435 23.0526 19.2644 23.4245 18.7547C23.7964 18.2451 23.9979 17.6309 24 17V16.122C24.0022 14.5825 23.6791 13.06 23.052 11.654ZM19.406 8.37601L20.573 11H17C16.7348 11 16.4804 10.8946 16.2929 10.7071C16.1054 10.5196 16 10.2652 16 10V6.01801C16.7289 6.0627 17.4316 6.30607 18.032 6.72174C18.6324 7.13741 19.1076 7.7095 19.406 8.37601ZM7 20.5C7 20.8978 6.84196 21.2794 6.56066 21.5607C6.27936 21.842 5.89782 22 5.5 22C5.10218 22 4.72064 21.842 4.43934 21.5607C4.15804 21.2794 4 20.8978 4 20.5C4.00061 20.3291 4.03212 20.1597 4.093 20H6.907C6.96788 20.1597 6.99939 20.3291 7 20.5ZM18.5 22C18.1022 22 17.7206 21.842 17.4393 21.5607C17.158 21.2794 17 20.8978 17 20.5C17.0006 20.3291 17.0321 20.1597 17.093 20H19.907C19.9679 20.1597 19.9994 20.3291 20 20.5C20 20.8978 19.842 21.2794 19.5607 21.5607C19.2794 21.842 18.8978 22 18.5 22ZM22 17C22 17.2652 21.8946 17.5196 21.7071 17.7071C21.5196 17.8947 21.2652 18 21 18H3C2.73478 18 2.48043 17.8947 2.29289 17.7071C2.10536 17.5196 2 17.2652 2 17V9.00001C2 8.20436 2.31607 7.4413 2.87868 6.87869C3.44129 6.31608 4.20435 6.00001 5 6.00001H14V10C14 10.7957 14.3161 11.5587 14.8787 12.1213C15.4413 12.6839 16.2044 13 17 13H21.429C21.8045 13.9981 21.9979 15.0556 22 16.122V17ZM11 12C11 12.2652 10.8946 12.5196 10.7071 12.7071C10.5196 12.8946 10.2652 13 10 13H9V14C9 14.2652 8.89464 14.5196 8.70711 14.7071C8.51957 14.8946 8.26522 15 8 15C7.73478 15 7.48043 14.8946 7.29289 14.7071C7.10536 14.5196 7 14.2652 7 14V13H6C5.73478 13 5.48043 12.8946 5.29289 12.7071C5.10536 12.5196 5 12.2652 5 12C5 11.7348 5.10536 11.4804 5.29289 11.2929C5.48043 11.1054 5.73478 11 6 11H7V10C7 9.73479 7.10536 9.48044 7.29289 9.2929C7.48043 9.10536 7.73478 9.00001 8 9.00001C8.26522 9.00001 8.51957 9.10536 8.70711 9.2929C8.89464 9.48044 9 9.73479 9 10V11H10C10.2652 11 10.5196 11.1054 10.7071 11.2929C10.8946 11.4804 11 11.7348 11 12Z" fill="currentColor"/>
</g>
<defs>
<clipPath id="clip0_403_3208">
<rect width="24" height="24" fill="white"/>
</clipPath>
</defs>
</svg>
