<svg width="24" height="24" viewBox="0 0 24 24" fill="none" xmlns="http://www.w3.org/2000/svg">
<path d="M13.1001 19.0001C12.9023 18.9992 12.7092 18.9398 12.5452 18.8292C12.3812 18.7187 12.2537 18.5619 12.1788 18.3789C12.1039 18.1959 12.0849 17.9947 12.1243 17.8009C12.1637 17.6071 12.2596 17.4293 12.4001 17.2901L17.0001 12.7101C17.0938 12.6171 17.1682 12.5065 17.219 12.3846C17.2697 12.2628 17.2959 12.1321 17.2959 12.0001C17.2959 11.868 17.2697 11.7373 17.219 11.6155C17.1682 11.4936 17.0938 11.383 17.0001 11.2901L12.4001 6.71006C12.3063 6.6171 12.2319 6.5065 12.1812 6.38464C12.1304 6.26278 12.1043 6.13207 12.1043 6.00006C12.1043 5.86805 12.1304 5.73734 12.1812 5.61548C12.2319 5.49362 12.3063 5.38302 12.4001 5.29006C12.5874 5.10381 12.8409 4.99927 13.1051 4.99927C13.3692 4.99927 13.6227 5.10381 13.8101 5.29006L18.4001 9.88006C18.9619 10.4426 19.2774 11.2051 19.2774 12.0001C19.2774 12.7951 18.9619 13.5576 18.4001 14.1201L13.8101 18.7101C13.7166 18.8027 13.6058 18.8761 13.484 18.9258C13.3621 18.9756 13.2317 19.0008 13.1001 19.0001Z" fill="currentColor"/>
<path d="M6.09999 19.0001C5.90222 18.9992 5.70914 18.9398 5.54515 18.8292C5.38117 18.7187 5.25365 18.5619 5.17873 18.3789C5.1038 18.1959 5.08483 17.9947 5.12422 17.8009C5.1636 17.6071 5.25957 17.4293 5.39999 17.2901L10.69 12.0001L5.39999 6.71006C5.30627 6.6171 5.23187 6.5065 5.1811 6.38464C5.13033 6.26278 5.1042 6.13207 5.1042 6.00006C5.1042 5.86805 5.13033 5.73734 5.1811 5.61548C5.23187 5.49362 5.30627 5.38302 5.39999 5.29006C5.58736 5.10381 5.84081 4.99927 6.10499 4.99927C6.36918 4.99927 6.62263 5.10381 6.80999 5.29006L12.81 11.2901C12.9037 11.383 12.9781 11.4936 13.0289 11.6155C13.0797 11.7373 13.1058 11.868 13.1058 12.0001C13.1058 12.1321 13.0797 12.2628 13.0289 12.3846C12.9781 12.5065 12.9037 12.6171 12.81 12.7101L6.80999 18.7101C6.71655 18.8027 6.60574 18.8761 6.4839 18.9258C6.36206 18.9756 6.2316 19.0008 6.09999 19.0001Z" fill="currentColor"/>
</svg>
