<svg width="24" height="24" viewBox="0 0 24 24" fill="none" xmlns="http://www.w3.org/2000/svg">
<path d="M17.9998 15.4999C17.8682 15.5007 17.7377 15.4755 17.6159 15.4257C17.494 15.3759 17.3832 15.3026 17.2898 15.2099L12.7098 10.6199C12.6168 10.5262 12.5062 10.4518 12.3844 10.401C12.2625 10.3503 12.1318 10.3241 11.9998 10.3241C11.8678 10.3241 11.7371 10.3503 11.6152 10.401C11.4934 10.4518 11.3828 10.5262 11.2898 10.6199L6.70979 15.2099C6.52149 15.3982 6.26609 15.504 5.99979 15.504C5.73349 15.504 5.47809 15.3982 5.28979 15.2099C5.10149 15.0216 4.9957 14.7662 4.9957 14.4999C4.9957 14.3681 5.02167 14.2375 5.07213 14.1157C5.12259 13.9939 5.19655 13.8832 5.28979 13.7899L9.87979 9.20994C10.4497 8.66237 11.2094 8.35657 11.9998 8.35657C12.7901 8.35657 13.5498 8.66237 14.1198 9.20994L18.7098 13.7899C18.8035 13.8829 18.8779 13.9935 18.9287 14.1154C18.9794 14.2372 19.0056 14.3679 19.0056 14.4999C19.0056 14.6319 18.9794 14.7626 18.9287 14.8845C18.8779 15.0064 18.8035 15.117 18.7098 15.2099C18.6163 15.3026 18.5055 15.3759 18.3837 15.4257C18.2619 15.4755 18.1314 15.5007 17.9998 15.4999Z" fill="currentColor"/>
</svg>
