<svg width="24" height="24" viewBox="0 0 24 24" fill="none" xmlns="http://www.w3.org/2000/svg">
<g clip-path="url(#clip0_406_2009)">
<path d="M19.923 7.28401C19.6301 7.08149 19.2765 6.98603 18.9215 7.01372C18.5665 7.0414 18.2319 7.19053 17.974 7.43601C16.8034 8.30288 15.4224 8.84112 13.974 8.99501C13.7142 8.98826 13.4672 8.88061 13.2854 8.69488C13.1035 8.50914 13.0012 8.25992 13 8.00001V6.96501C14.5321 6.97068 16.008 6.38784 17.1228 5.33682C18.2377 4.2858 18.9064 2.84684 18.991 1.317C19.0128 1.14 18.9941 0.960342 18.9361 0.791687C18.8781 0.623032 18.7824 0.469824 18.6563 0.343712C18.5302 0.2176 18.377 0.121906 18.2083 0.0639068C18.0396 0.00590734 17.86 -0.0128701 17.683 0.00900221C15.828 0.0860023 13.1 1.529 12.532 3.70901C12.1918 2.44042 11.5693 1.26513 10.711 0.271003C10.5244 0.0860312 10.2725 -0.0180701 10.0097 -0.018795C9.74699 -0.0195199 9.49452 0.0831899 9.30691 0.267129C9.11929 0.451068 9.0116 0.701456 9.00712 0.964161C9.00265 1.22687 9.10174 1.48078 9.28298 1.671C10.2793 2.90317 10.8622 4.41783 10.949 6.00001H8.49998C6.18088 6.07088 3.98434 7.05774 2.39125 8.74455C0.798158 10.4313 -0.0616804 12.6807 -2.07468e-05 15C-0.161021 20.6 5.64398 25.773 10.75 23.385C11.1399 23.1371 11.5932 23.007 12.0553 23.0103C12.5174 23.0137 12.9687 23.1504 13.355 23.404C14.0078 23.7815 14.746 23.9866 15.5 24C24.213 23.922 27.064 11.874 19.923 7.28401Z" fill="currentColor"/>
</g>
<defs>
<clipPath id="clip0_406_2009">
<rect width="24" height="24" fill="white"/>
</clipPath>
</defs>
</svg>
