<svg width="24" height="24" viewBox="0 0 24 24" fill="none" xmlns="http://www.w3.org/2000/svg">
<g clip-path="url(#clip0_406_2272)">
<path d="M7 0H4C1.79086 0 0 1.79086 0 4V7C0 9.20914 1.79086 11 4 11H7C9.20914 11 11 9.20914 11 7V4C11 1.79086 9.20914 0 7 0Z" fill="currentColor"/>
<path d="M19.9999 0H16.9999C14.7907 0 12.9999 1.79086 12.9999 4V7C12.9999 9.20915 14.7907 11 16.9999 11H19.9999C22.209 11 23.9999 9.20915 23.9999 7V4C23.9999 1.79086 22.209 0 19.9999 0Z" fill="currentColor"/>
<path d="M7 13H4C1.79086 13 0 14.7909 0 17V20C0 22.2092 1.79086 24 4 24H7C9.20914 24 11 22.2092 11 20V17C11 14.7909 9.20914 13 7 13Z" fill="currentColor"/>
<path d="M19.9999 13H16.9999C14.7907 13 12.9999 14.7909 12.9999 17V20C12.9999 22.2092 14.7907 24 16.9999 24H19.9999C22.209 24 23.9999 22.2092 23.9999 20V17C23.9999 14.7909 22.209 13 19.9999 13Z" fill="currentColor"/>
</g>
<defs>
<clipPath id="clip0_406_2272">
<rect width="24" height="24" fill="white"/>
</clipPath>
</defs>
</svg>
