<svg width="24" height="24" viewBox="0 0 24 24" fill="none" xmlns="http://www.w3.org/2000/svg">
<g clip-path="url(#clip0_403_3258)">
<path d="M9 11C9 10.7348 9.10536 10.4804 9.29289 10.2929C9.48043 10.1054 9.73478 10 10 10H14C14.2652 10 14.5196 10.1054 14.7071 10.2929C14.8946 10.4804 15 10.7348 15 11C15 11.2652 14.8946 11.5196 14.7071 11.7071C14.5196 11.8946 14.2652 12 14 12H10C9.73478 12 9.48043 11.8946 9.29289 11.7071C9.10536 11.5196 9 11.2652 9 11ZM24 18V19C23.9984 20.3256 23.4711 21.5964 22.5338 22.5338C21.5964 23.4711 20.3256 23.9984 19 24H5C3.67441 23.9984 2.40356 23.4711 1.46622 22.5338C0.528882 21.5964 0.00158786 20.3256 0 19L0 18C0.00145452 16.8478 0.40009 15.7313 1.12872 14.8387C1.85735 13.9462 2.87141 13.3321 4 13.1V12C4.00173 10.5944 4.37375 9.21415 5.07859 7.99809C5.78344 6.78203 6.79623 5.77314 8.015 5.073C8.013 5.048 8 5.026 8 5V4C8 2.93913 8.42143 1.92172 9.17157 1.17157C9.92172 0.421427 10.9391 0 12 0C13.0609 0 14.0783 0.421427 14.8284 1.17157C15.5786 1.92172 16 2.93913 16 4V5C16 5.026 15.987 5.048 15.985 5.073C17.2038 5.77314 18.2166 6.78203 18.9214 7.99809C19.6263 9.21415 19.9983 10.5944 20 12V13.1C21.1286 13.3321 22.1427 13.9462 22.8713 14.8387C23.5999 15.7313 23.9985 16.8478 24 18ZM10 4.263C11.3103 3.91233 12.6897 3.91233 14 4.263V4C14 3.46957 13.7893 2.96086 13.4142 2.58579C13.0391 2.21071 12.5304 2 12 2C11.4696 2 10.9609 2.21071 10.5858 2.58579C10.2107 2.96086 10 3.46957 10 4V4.263ZM6 16.535C6.77985 15.7328 7.71265 15.0952 8.74322 14.6597C9.77379 14.2243 10.8812 14 12 14C13.1188 14 14.2262 14.2243 15.2568 14.6597C16.2874 15.0952 17.2201 15.7328 18 16.535V12C18 10.4087 17.3679 8.88258 16.2426 7.75736C15.1174 6.63214 13.5913 6 12 6C10.4087 6 8.88258 6.63214 7.75736 7.75736C6.63214 8.88258 6 10.4087 6 12V16.535ZM5 22H5.026C4.36419 21.1396 4.00368 20.0855 4 19V15.184C3.41709 15.3901 2.91209 15.7712 2.55409 16.2753C2.19608 16.7794 2.00256 17.3817 2 18V19C2 19.7956 2.31607 20.5587 2.87868 21.1213C3.44129 21.6839 4.20435 22 5 22ZM15 22C15.6517 21.997 16.2847 21.7818 16.8032 21.387C17.3217 20.9923 17.6976 20.4394 17.874 19.812C17.3677 18.6771 16.5436 17.7132 15.5011 17.0368C14.4587 16.3604 13.2427 16.0004 12 16.0004C10.7573 16.0004 9.54129 16.3604 8.49886 17.0368C7.45644 17.7132 6.63227 18.6771 6.126 19.812C6.30239 20.4394 6.67827 20.9923 7.1968 21.387C7.71533 21.7818 8.34831 21.997 9 22H15ZM22 18C21.9974 17.3817 21.8039 16.7794 21.4459 16.2753C21.0879 15.7712 20.5829 15.3901 20 15.184V19C19.9963 20.0855 19.6358 21.1396 18.974 22H19C19.7956 22 20.5587 21.6839 21.1213 21.1213C21.6839 20.5587 22 19.7956 22 19V18Z" fill="currentColor"/>
</g>
<defs>
<clipPath id="clip0_403_3258">
<rect width="24" height="24" fill="white"/>
</clipPath>
</defs>
</svg>
