<svg width="24" height="24" viewBox="0 0 24 24" fill="none" xmlns="http://www.w3.org/2000/svg">
<g clip-path="url(#clip0_406_2262)">
<path d="M5 19C3.67441 18.9984 2.40356 18.4711 1.46622 17.5338C0.528882 16.5964 0.00158786 15.3256 0 14L0 10C0.00158786 8.67441 0.528882 7.40356 1.46622 6.46622C2.40356 5.52888 3.67441 5.00159 5 5V19ZM7 5H17V19H7V5ZM11 14C11 13.8022 10.9414 13.6089 10.8315 13.4444C10.7216 13.28 10.5654 13.1518 10.3827 13.0761C10.2 13.0004 9.99889 12.9806 9.80491 13.0192C9.61093 13.0578 9.43275 13.153 9.29289 13.2929C9.15304 13.4327 9.0578 13.6109 9.01921 13.8049C8.98063 13.9989 9.00043 14.2 9.07612 14.3827C9.15181 14.5654 9.27998 14.7216 9.44443 14.8315C9.60888 14.9414 9.80222 15 10 15C10.2652 15 10.5196 14.8946 10.7071 14.7071C10.8946 14.5196 11 14.2652 11 14ZM13 10C13 10.1978 13.0586 10.3911 13.1685 10.5556C13.2784 10.72 13.4346 10.8482 13.6173 10.9239C13.8 10.9996 14.0011 11.0194 14.1951 10.9808C14.3891 10.9422 14.5673 10.847 14.7071 10.7071C14.847 10.5673 14.9422 10.3891 14.9808 10.1951C15.0194 10.0011 14.9996 9.80004 14.9239 9.61732C14.8482 9.43459 14.72 9.27841 14.5556 9.16853C14.3911 9.05865 14.1978 9 14 9C13.7348 9 13.4804 9.10536 13.2929 9.29289C13.1054 9.48043 13 9.73478 13 10ZM13 14C13 14.1978 13.0586 14.3911 13.1685 14.5556C13.2784 14.72 13.4346 14.8482 13.6173 14.9239C13.8 14.9996 14.0011 15.0194 14.1951 14.9808C14.3891 14.9422 14.5673 14.847 14.7071 14.7071C14.847 14.5673 14.9422 14.3891 14.9808 14.1951C15.0194 14.0011 14.9996 13.8 14.9239 13.6173C14.8482 13.4346 14.72 13.2784 14.5556 13.1685C14.3911 13.0587 14.1978 13 14 13C13.7348 13 13.4804 13.1054 13.2929 13.2929C13.1054 13.4804 13 13.7348 13 14ZM9 10C9 10.1978 9.05865 10.3911 9.16853 10.5556C9.27841 10.72 9.43459 10.8482 9.61732 10.9239C9.80004 10.9996 10.0011 11.0194 10.1951 10.9808C10.3891 10.9422 10.5673 10.847 10.7071 10.7071C10.847 10.5673 10.9422 10.3891 10.9808 10.1951C11.0194 10.0011 10.9996 9.80004 10.9239 9.61732C10.8482 9.43459 10.72 9.27841 10.5556 9.16853C10.3911 9.05865 10.1978 9 10 9C9.73478 9 9.48043 9.10536 9.29289 9.29289C9.10536 9.48043 9 9.73478 9 10ZM19 5V19C20.3256 18.9984 21.5964 18.4711 22.5338 17.5338C23.4711 16.5964 23.9984 15.3256 24 14V10C23.9984 8.67441 23.4711 7.40356 22.5338 6.46622C21.5964 5.52888 20.3256 5.00159 19 5Z" fill="currentColor"/>
</g>
<defs>
<clipPath id="clip0_406_2262">
<rect width="24" height="24" fill="white"/>
</clipPath>
</defs>
</svg>
