<svg width="24" height="24" viewBox="0 0 24 24" fill="none" xmlns="http://www.w3.org/2000/svg">
<g clip-path="url(#clip0_403_3262)">
<path d="M9 10C9 9.80222 9.05865 9.60888 9.16853 9.44443C9.27841 9.27998 9.43459 9.15181 9.61732 9.07612C9.80004 9.00043 10.0011 8.98063 10.1951 9.01922C10.3891 9.0578 10.5673 9.15304 10.7071 9.29289C10.847 9.43275 10.9422 9.61093 10.9808 9.80491C11.0194 9.99889 10.9996 10.2 10.9239 10.3827C10.8482 10.5654 10.72 10.7216 10.5556 10.8315C10.3911 10.9414 10.1978 11 10 11C9.73478 11 9.48043 10.8946 9.29289 10.7071C9.10536 10.5196 9 10.2652 9 10ZM14 11C14.1978 11 14.3911 10.9414 14.5556 10.8315C14.72 10.7216 14.8482 10.5654 14.9239 10.3827C14.9996 10.2 15.0194 9.99889 14.9808 9.80491C14.9422 9.61093 14.847 9.43275 14.7071 9.29289C14.5673 9.15304 14.3891 9.0578 14.1951 9.01922C14.0011 8.98063 13.8 9.00043 13.6173 9.07612C13.4346 9.15181 13.2784 9.27998 13.1685 9.44443C13.0586 9.60888 13 9.80222 13 10C13 10.2652 13.1054 10.5196 13.2929 10.7071C13.4804 10.8946 13.7348 11 14 11ZM10 13C9.80222 13 9.60888 13.0587 9.44443 13.1685C9.27998 13.2784 9.15181 13.4346 9.07612 13.6173C9.00043 13.8 8.98063 14.0011 9.01921 14.1951C9.0578 14.3891 9.15304 14.5673 9.29289 14.7071C9.43275 14.847 9.61093 14.9422 9.80491 14.9808C9.99889 15.0194 10.2 14.9996 10.3827 14.9239C10.5654 14.8482 10.7216 14.72 10.8315 14.5556C10.9414 14.3911 11 14.1978 11 14C11 13.7348 10.8946 13.4804 10.7071 13.2929C10.5196 13.1054 10.2652 13 10 13ZM14 15C14.1978 15 14.3911 14.9414 14.5556 14.8315C14.72 14.7216 14.8482 14.5654 14.9239 14.3827C14.9996 14.2 15.0194 13.9989 14.9808 13.8049C14.9422 13.6109 14.847 13.4327 14.7071 13.2929C14.5673 13.153 14.3891 13.0578 14.1951 13.0192C14.0011 12.9806 13.8 13.0004 13.6173 13.0761C13.4346 13.1518 13.2784 13.28 13.1685 13.4444C13.0586 13.6089 13 13.8022 13 14C13 14.2652 13.1054 14.5196 13.2929 14.7071C13.4804 14.8946 13.7348 15 14 15ZM24 10V14C23.9984 15.3256 23.4711 16.5964 22.5338 17.5338C21.5964 18.4711 20.3256 18.9984 19 19H5C3.67441 18.9984 2.40356 18.4711 1.46622 17.5338C0.528882 16.5964 0.00158786 15.3256 0 14L0 10C0.00158786 8.67441 0.528882 7.40356 1.46622 6.46622C2.40356 5.52888 3.67441 5.00159 5 5H19C20.3256 5.00159 21.5964 5.52888 22.5338 6.46622C23.4711 7.40356 23.9984 8.67441 24 10ZM7 7V17H17V7H7ZM5 17V7C4.20435 7 3.44129 7.31607 2.87868 7.87868C2.31607 8.44129 2 9.20435 2 10V14C2 14.7957 2.31607 15.5587 2.87868 16.1213C3.44129 16.6839 4.20435 17 5 17ZM22 10C22 9.20435 21.6839 8.44129 21.1213 7.87868C20.5587 7.31607 19.7956 7 19 7V17C19.7956 17 20.5587 16.6839 21.1213 16.1213C21.6839 15.5587 22 14.7957 22 14V10Z" fill="currentColor"/>
</g>
<defs>
<clipPath id="clip0_403_3262">
<rect width="24" height="24" fill="white"/>
</clipPath>
</defs>
</svg>
