<svg width="24" height="24" viewBox="0 0 24 24" fill="none" xmlns="http://www.w3.org/2000/svg">
<g clip-path="url(#clip0_406_2153)">
<path d="M0.291025 8.55193C0.0755469 8.15226 -0.0242807 7.70044 0.00274505 7.24718C0.0297708 6.79393 0.18258 6.35717 0.444025 5.98593C0.871283 5.35905 1.44347 4.84449 2.11202 4.48593L9.61303 0.581933C10.3503 0.198564 11.169 -0.00158691 12 -0.00158691C12.831 -0.00158691 13.6498 0.198564 14.387 0.581933L21.887 4.48893C22.5556 4.84749 23.1278 5.36205 23.555 5.98893C23.8165 6.36017 23.9693 6.79693 23.9963 7.25018C24.0233 7.70344 23.9235 8.15526 23.708 8.55493C23.476 8.99376 23.1281 9.36054 22.7021 9.61532C22.2761 9.87011 21.7884 10.0031 21.292 9.99993H2.70802C2.21118 10.003 1.72303 9.86964 1.29681 9.6143C0.870596 9.35896 0.522683 8.99147 0.291025 8.55193ZM23 21.9999C23 21.4695 22.7893 20.9608 22.4142 20.5857C22.0392 20.2106 21.5305 19.9999 21 19.9999V11.9999H19V19.9999H16V11.9999H14V19.9999H10V11.9999H8.00003V19.9999H5.00003V11.9999H3.00003V19.9999C2.46959 19.9999 1.96088 20.2106 1.58581 20.5857C1.21074 20.9608 1.00002 21.4695 1.00002 21.9999C0.734808 21.9999 0.480454 22.1053 0.292918 22.2928C0.105381 22.4804 2.46239e-05 22.7347 2.46239e-05 22.9999C2.46239e-05 23.2652 0.105381 23.5195 0.292918 23.707C0.480454 23.8946 0.734808 23.9999 1.00002 23.9999H23C23.2652 23.9999 23.5196 23.8946 23.7071 23.707C23.8947 23.5195 24 23.2652 24 22.9999C24 22.7347 23.8947 22.4804 23.7071 22.2928C23.5196 22.1053 23.2652 21.9999 23 21.9999Z" fill="currentColor"/>
</g>
<defs>
<clipPath id="clip0_406_2153">
<rect width="24" height="24" fill="white"/>
</clipPath>
</defs>
</svg>
