<svg width="24" height="24" viewBox="0 0 24 24" fill="none" xmlns="http://www.w3.org/2000/svg">
<g clip-path="url(#clip0_403_3184)">
<path d="M19 6H13C12.0868 6.00335 11.1921 6.25737 10.4134 6.73437C9.63465 7.21136 9.00186 7.89302 8.584 8.705C7.9844 8.24979 7.25282 8.0023 6.5 8C5.57174 8 4.6815 8.36875 4.02513 9.02513C3.36875 9.6815 3 10.5717 3 11.5C3.00293 12.02 3.12289 12.5327 3.351 13H2V3C2 2.73478 1.89464 2.48043 1.70711 2.29289C1.51957 2.10536 1.26522 2 1 2C0.734784 2 0.48043 2.10536 0.292893 2.29289C0.105357 2.48043 0 2.73478 0 3L0 21C0 21.2652 0.105357 21.5196 0.292893 21.7071C0.48043 21.8946 0.734784 22 1 22C1.26522 22 1.51957 21.8946 1.70711 21.7071C1.89464 21.5196 2 21.2652 2 21V19H22V21C22 21.2652 22.1054 21.5196 22.2929 21.7071C22.4804 21.8946 22.7348 22 23 22C23.2652 22 23.5196 21.8946 23.7071 21.7071C23.8946 21.5196 24 21.2652 24 21V11C23.9984 9.67441 23.4711 8.40356 22.5338 7.46622C21.5964 6.52888 20.3256 6.00159 19 6ZM10 11C10 10.2044 10.3161 9.44129 10.8787 8.87868C11.4413 8.31607 12.2044 8 13 8H19C19.7956 8 20.5587 8.31607 21.1213 8.87868C21.6839 9.44129 22 10.2044 22 11V13H10V11ZM5 11.5C5 11.2033 5.08797 10.9133 5.2528 10.6666C5.41762 10.42 5.65189 10.2277 5.92597 10.1142C6.20006 10.0007 6.50166 9.97094 6.79264 10.0288C7.08361 10.0867 7.35088 10.2296 7.56066 10.4393C7.77044 10.6491 7.9133 10.9164 7.97118 11.2074C8.02906 11.4983 7.99935 11.7999 7.88582 12.074C7.77229 12.3481 7.58003 12.5824 7.33336 12.7472C7.08668 12.912 6.79667 13 6.5 13C6.10218 13 5.72064 12.842 5.43934 12.5607C5.15804 12.2794 5 11.8978 5 11.5ZM2 17V15H22V17H2Z" fill="currentColor"/>
</g>
<defs>
<clipPath id="clip0_403_3184">
<rect width="24" height="24" fill="white"/>
</clipPath>
</defs>
</svg>
