<svg width="24" height="24" viewBox="0 0 24 24" fill="none" xmlns="http://www.w3.org/2000/svg">
<g clip-path="url(#clip0_406_1906)">
<path d="M12 6C10.8133 6 9.65328 6.35189 8.66658 7.01118C7.67989 7.67047 6.91085 8.60754 6.45673 9.7039C6.0026 10.8003 5.88378 12.0067 6.11529 13.1705C6.3468 14.3344 6.91825 15.4035 7.75736 16.2426C8.59648 17.0818 9.66558 17.6532 10.8295 17.8847C11.9934 18.1162 13.1997 17.9974 14.2961 17.5433C15.3925 17.0892 16.3295 16.3201 16.9888 15.3334C17.6481 14.3467 18 13.1867 18 12C17.9984 10.4092 17.3658 8.88399 16.2409 7.75911C15.116 6.63424 13.5908 6.00159 12 6ZM14.857 10.515L11.857 15.515C11.7906 15.6301 11.702 15.7308 11.5963 15.8112C11.4906 15.8917 11.3699 15.9503 11.2413 15.9836C11.1127 16.0169 10.9788 16.0242 10.8473 16.0051C10.7158 15.9861 10.5895 15.941 10.4756 15.8726C10.3618 15.8042 10.2627 15.7138 10.1841 15.6066C10.1056 15.4995 10.0492 15.3778 10.0183 15.2486C9.98729 15.1194 9.98237 14.9853 10.0038 14.8542C10.0252 14.7231 10.0725 14.5976 10.143 14.485L12.234 11H10C9.73479 11 9.48044 10.8946 9.2929 10.7071C9.10536 10.5196 9.00001 10.2652 9.00001 10C9.00001 9.73479 9.10536 9.48043 9.2929 9.29289C9.48044 9.10536 9.73479 9 10 9H14C14.177 9.00003 14.3508 9.04704 14.5037 9.13623C14.6566 9.22542 14.7831 9.35358 14.8702 9.50764C14.9574 9.6617 15.002 9.83612 14.9997 10.0131C14.9974 10.1901 14.9482 10.3633 14.857 10.515ZM12 0C9.62663 0 7.30655 0.703788 5.33316 2.02236C3.35977 3.34094 1.8217 5.21509 0.913451 7.4078C0.00519943 9.60051 -0.232441 12.0133 0.230582 14.3411C0.693605 16.6689 1.83649 18.8071 3.51472 20.4853C5.19295 22.1635 7.33115 23.3064 9.65892 23.7694C11.9867 24.2324 14.3995 23.9948 16.5922 23.0866C18.7849 22.1783 20.6591 20.6402 21.9776 18.6668C23.2962 16.6935 24 14.3734 24 12C23.9966 8.81846 22.7312 5.76821 20.4815 3.51852C18.2318 1.26883 15.1815 0.00344108 12 0V0ZM12 20C10.4178 20 8.87104 19.5308 7.55544 18.6518C6.23985 17.7727 5.21447 16.5233 4.60897 15.0615C4.00347 13.5997 3.84504 11.9911 4.15372 10.4393C4.46241 8.88743 5.22433 7.46197 6.34315 6.34315C7.46197 5.22433 8.88743 4.4624 10.4393 4.15372C11.9911 3.84504 13.5997 4.00346 15.0615 4.60896C16.5233 5.21447 17.7727 6.23985 18.6518 7.55544C19.5308 8.87103 20 10.4178 20 12C19.9976 14.121 19.154 16.1544 17.6542 17.6542C16.1545 19.154 14.121 19.9976 12 20Z" fill="currentColor"/>
</g>
<defs>
<clipPath id="clip0_406_1906">
<rect width="24" height="24" fill="white"/>
</clipPath>
</defs>
</svg>
