<svg width="24" height="24" viewBox="0 0 24 24" fill="none" xmlns="http://www.w3.org/2000/svg">
<g clip-path="url(#clip0_406_2288)">
<path d="M22.2 2.16303C21.6299 1.68739 20.9611 1.34468 20.242 1.15977C19.523 0.974866 18.7718 0.952409 18.043 1.09403L16.279 1.52603C15.3584 1.69473 14.5262 2.18087 13.9271 2.89986C13.3279 3.61884 12.9999 4.52514 13 5.46103V20.928C12.3369 21.025 11.6631 21.025 11 20.928V5.46103C11.0033 4.53377 10.6828 3.63444 10.0939 2.91824C9.50493 2.20203 8.68444 1.71388 7.774 1.53803L5.9 1.08203C5.17916 0.950127 4.43813 0.978283 3.72938 1.16451C3.02062 1.35073 2.36147 1.69048 1.79857 2.15969C1.23567 2.6289 0.782786 3.2161 0.471982 3.87974C0.161178 4.54338 4.88125e-05 5.26722 0 6.00003L0 16.793C5.74559e-05 17.9638 0.410977 19.0975 1.16113 19.9964C1.91129 20.8953 2.95311 21.5025 4.105 21.712L10.391 22.855C11.455 23.0484 12.545 23.0484 13.609 22.855L19.9 21.712C21.051 21.5014 22.0916 20.8938 22.8408 19.995C23.5899 19.0962 24.0002 17.9631 24 16.793V6.00003C24.0005 5.26748 23.8394 4.54383 23.5283 3.88063C23.2171 3.21742 22.7636 2.63097 22.2 2.16303Z" fill="currentColor"/>
</g>
<defs>
<clipPath id="clip0_406_2288">
<rect width="24" height="24" fill="white"/>
</clipPath>
</defs>
</svg>
