<svg width="24" height="24" viewBox="0 0 24 24" fill="none" xmlns="http://www.w3.org/2000/svg">
<g clip-path="url(#clip0_403_2870)">
<path d="M16.0001 16C16.0001 16.1978 15.9414 16.3911 15.8315 16.5556C15.7216 16.72 15.5655 16.8482 15.3827 16.9239C15.2 16.9996 14.9989 17.0194 14.805 16.9808C14.611 16.9422 14.4328 16.847 14.2929 16.7071C14.1531 16.5673 14.0579 16.3891 14.0193 16.1951C13.9807 16.0011 14.0005 15.8 14.0762 15.6173C14.1519 15.4346 14.28 15.2784 14.4445 15.1685C14.6089 15.0586 14.8023 15 15.0001 15C15.2653 15 15.5196 15.1054 15.7072 15.2929C15.8947 15.4804 16.0001 15.7348 16.0001 16ZM19.0001 15C18.8023 15 18.6089 15.0586 18.4445 15.1685C18.28 15.2784 18.1519 15.4346 18.0762 15.6173C18.0005 15.8 17.9807 16.0011 18.0193 16.1951C18.0579 16.3891 18.1531 16.5673 18.2929 16.7071C18.4328 16.847 18.611 16.9422 18.805 16.9808C18.9989 17.0194 19.2 16.9996 19.3827 16.9239C19.5655 16.8482 19.7216 16.72 19.8315 16.5556C19.9414 16.3911 20.0001 16.1978 20.0001 16C20.0001 15.7348 19.8947 15.4804 19.7072 15.2929C19.5196 15.1054 19.2653 15 19.0001 15ZM17.0001 12C16.8023 12 16.6089 12.0586 16.4445 12.1685C16.28 12.2784 16.1519 12.4346 16.0762 12.6173C16.0005 12.8 15.9807 13.0011 16.0193 13.1951C16.0579 13.3891 16.1531 13.5673 16.2929 13.7071C16.4328 13.847 16.611 13.9422 16.805 13.9808C16.9989 14.0194 17.2 13.9996 17.3827 13.9239C17.5655 13.8482 17.7216 13.72 17.8315 13.5556C17.9414 13.3911 18.0001 13.1978 18.0001 13C18.0001 12.7348 17.8947 12.4804 17.7072 12.2929C17.5196 12.1054 17.2653 12 17.0001 12ZM24.0001 16C24.002 17.5294 23.5649 19.0272 22.7408 20.3156C21.9167 21.6039 20.7401 22.6287 19.3508 23.2682C17.9615 23.9077 16.4179 24.135 14.9032 23.9231C13.3886 23.7112 11.9666 23.0691 10.8061 22.073C10.4497 22.6602 9.9483 23.1458 9.35007 23.4833C8.75185 23.8207 8.07689 23.9987 7.39005 24H4.61005C3.84987 24.0006 3.10526 23.7846 2.46342 23.3773C1.82159 22.9699 1.30913 22.3881 0.986051 21.7C0.31774 20.2243 -0.018831 18.6199 5.07951e-05 17C0.12012 15.0638 0.716438 13.1873 1.73605 11.537C2.41768 10.4679 2.84971 9.25897 3.00005 8C2.88601 7.25882 2.70048 6.53042 2.44605 5.825C2.21796 5.23887 2.06801 4.62527 2.00005 4C2.00005 2.93913 2.42148 1.92172 3.17162 1.17157C3.92177 0.421427 4.93919 0 6.00005 0C7.06092 0 8.07833 0.421427 8.82848 1.17157C9.57862 1.92172 10.0001 2.93913 10.0001 4C9.93209 4.62527 9.78214 5.23887 9.55405 5.825C9.29962 6.53042 9.11409 7.25882 9.00005 8C9.0854 9.00243 9.3954 9.97276 9.90705 10.839C10.9633 9.58638 12.3792 8.68891 13.9628 8.26831C15.5464 7.8477 17.221 7.92432 18.7596 8.48776C20.2982 9.0512 21.6262 10.0742 22.5637 11.418C23.5011 12.7619 24.0026 14.3615 24.0001 16ZM4.00005 4C4.01605 4.15 4.21105 4.772 4.35405 5.226C4.69195 6.11777 4.9092 7.05069 5.00005 8H7.00005C7.0909 7.05069 7.30815 6.11777 7.64605 5.226C7.78664 4.81505 7.90481 4.39677 8.00005 3.973C7.99647 3.44257 7.78232 2.93528 7.40472 2.56274C7.02711 2.1902 6.51698 1.98292 5.98655 1.9865C5.45612 1.99008 4.94883 2.20423 4.57629 2.58183C4.20375 2.95944 3.99647 3.46957 4.00005 4ZM9.20005 20.856C9.74547 19.6446 10.0186 18.3284 10.0001 17C9.86731 15.3867 9.34874 13.829 8.48805 12.458C8.05498 11.6672 7.68064 10.8457 7.36805 10H4.63205C4.31947 10.8457 3.94512 11.6672 3.51205 12.458C2.65136 13.829 2.13279 15.3867 2.00005 17C1.98166 18.3287 2.25474 19.6452 2.80005 20.857C2.96245 21.1994 3.21881 21.4887 3.53925 21.691C3.8597 21.8934 4.23106 22.0006 4.61005 22H7.39005C7.76915 22.0005 8.14058 21.8932 8.46104 21.6906C8.7815 21.4881 9.03779 21.1986 9.20005 20.856ZM22.0001 16C22.0018 14.6964 21.5783 13.4278 20.7938 12.3866C20.0093 11.3455 18.9066 10.5886 17.6531 10.2309C16.3995 9.87315 15.0634 9.93407 13.8476 10.4044C12.6318 10.8747 11.6025 11.7288 10.9161 12.837C11.5858 14.1255 11.9564 15.5485 12.0001 17C12.0003 18.0332 11.8631 19.0619 11.5921 20.059C12.4087 20.9487 13.4751 21.5709 14.6515 21.8441C15.8279 22.1172 17.0594 22.0286 18.1845 21.5898C19.3097 21.151 20.276 20.3825 20.9569 19.385C21.6377 18.3876 22.0013 17.2077 22.0001 16Z" fill="currentColor"/>
</g>
<defs>
<clipPath id="clip0_403_2870">
<rect width="24" height="24" fill="white"/>
</clipPath>
</defs>
</svg>
