<svg width="24" height="24" viewBox="0 0 24 24" fill="none" xmlns="http://www.w3.org/2000/svg">
<g clip-path="url(#clip0_406_2237)">
<path d="M10 6V0H14V6C14 6.53043 13.7893 7.03914 13.4142 7.41421C13.0391 7.78929 12.5304 8 12 8C11.4696 8 10.9609 7.78929 10.5858 7.41421C10.2107 7.03914 10 6.53043 10 6ZM16 5H24C23.9984 3.67441 23.4711 2.40356 22.5338 1.46622C21.5964 0.528882 20.3256 0.00158786 19 0L16 0V5ZM8 0H5C3.67441 0.00158786 2.40356 0.528882 1.46622 1.46622C0.528882 2.40356 0.00158786 3.67441 0 5H8V0ZM24 7V19C23.9984 20.3256 23.4711 21.5964 22.5338 22.5338C21.5964 23.4711 20.3256 23.9984 19 24H5C3.67441 23.9984 2.40356 23.4711 1.46622 22.5338C0.528882 21.5964 0.00158786 20.3256 0 19L0 7H8.142C8.36027 7.85758 8.85806 8.618 9.55672 9.16111C10.2554 9.70422 11.1151 9.99906 12 9.99906C12.8849 9.99906 13.7446 9.70422 14.4433 9.16111C15.1419 8.618 15.6397 7.85758 15.858 7H24ZM20 19C20 18.7348 19.8946 18.4804 19.7071 18.2929C19.5196 18.1054 19.2652 18 19 18H16C15.7348 18 15.4804 18.1054 15.2929 18.2929C15.1054 18.4804 15 18.7348 15 19C15 19.2652 15.1054 19.5196 15.2929 19.7071C15.4804 19.8946 15.7348 20 16 20H19C19.2652 20 19.5196 19.8946 19.7071 19.7071C19.8946 19.5196 20 19.2652 20 19Z" fill="currentColor"/>
</g>
<defs>
<clipPath id="clip0_406_2237">
<rect width="24" height="24" fill="white"/>
</clipPath>
</defs>
</svg>
