<svg width="24" height="24" viewBox="0 0 24 24" fill="none" xmlns="http://www.w3.org/2000/svg">
<path d="M23.934 5.17902C23.7125 3.99585 23.0813 2.92851 22.1512 2.16432C21.2212 1.40013 20.0517 0.98791 18.848 1.00002H6.24201C2.85001 1.00002 0.482006 2.60002 0.0660064 5.17902C-0.0674502 5.99436 0.00367296 6.83009 0.27299 7.61116C0.542306 8.39223 1.00139 9.09419 1.60901 9.65402C1.72451 9.75259 1.81874 9.87365 1.88596 10.0098C1.95318 10.146 1.99198 10.2944 2.00001 10.446V18C2.00159 19.3256 2.52889 20.5965 3.46623 21.5338C4.40356 22.4711 5.67441 22.9984 7.00001 23H17C18.3256 22.9984 19.5964 22.4711 20.5338 21.5338C21.4711 20.5965 21.9984 19.3256 22 18V10.446C22.0078 10.2951 22.0463 10.1473 22.113 10.0117C22.1797 9.87602 22.2732 9.75536 22.388 9.65701C22.9966 9.09715 23.4564 8.39482 23.7263 7.61318C23.9961 6.83153 24.0675 5.99508 23.934 5.17902ZM8.00001 18C7.73479 18 7.48044 17.8947 7.2929 17.7071C7.10536 17.5196 7.00001 17.2652 7.00001 17C7.00001 16.7348 7.10536 16.4804 7.2929 16.2929C7.48044 16.1054 7.73479 16 8.00001 16C8.26522 16 8.51958 16.1054 8.70711 16.2929C8.89465 16.4804 9.00001 16.7348 9.00001 17C9.00001 17.2652 8.89465 17.5196 8.70711 17.7071C8.51958 17.8947 8.26522 18 8.00001 18ZM8.00001 14C7.73479 14 7.48044 13.8947 7.2929 13.7071C7.10536 13.5196 7.00001 13.2652 7.00001 13C7.00001 12.7348 7.10536 12.4804 7.2929 12.2929C7.48044 12.1054 7.73479 12 8.00001 12C8.26522 12 8.51958 12.1054 8.70711 12.2929C8.89465 12.4804 9.00001 12.7348 9.00001 13C9.00001 13.2652 8.89465 13.5196 8.70711 13.7071C8.51958 13.8947 8.26522 14 8.00001 14ZM12 18C11.7348 18 11.4804 17.8947 11.2929 17.7071C11.1054 17.5196 11 17.2652 11 17C11 16.7348 11.1054 16.4804 11.2929 16.2929C11.4804 16.1054 11.7348 16 12 16C12.2652 16 12.5196 16.1054 12.7071 16.2929C12.8946 16.4804 13 16.7348 13 17C13 17.2652 12.8946 17.5196 12.7071 17.7071C12.5196 17.8947 12.2652 18 12 18Z" fill="currentColor"/>
</svg>
