<svg width="24" height="24" viewBox="0 0 24 24" fill="none" xmlns="http://www.w3.org/2000/svg">
<g clip-path="url(#clip0_406_2132)">
<path d="M0 19V23C0 23.2652 0.105357 23.5196 0.292893 23.7071C0.48043 23.8946 0.734784 24 1 24C1.26522 24 1.51957 23.8946 1.70711 23.7071C1.89464 23.5196 2 23.2652 2 23V19H4.93C5.66311 20.2202 6.69952 21.2298 7.93842 21.9308C9.17732 22.6317 10.5765 23.0001 12 23.0001C13.4235 23.0001 14.8227 22.6317 16.0616 21.9308C17.3005 21.2298 18.3369 20.2202 19.07 19H22V23C22 23.2652 22.1054 23.5196 22.2929 23.7071C22.4804 23.8946 22.7348 24 23 24C23.2652 24 23.5196 23.8946 23.7071 23.7071C23.8946 23.5196 24 23.2652 24 23V19C24 18.4696 23.7893 17.9609 23.4142 17.5858C23.0391 17.2107 22.5304 17 22 17H19.947C20.1614 16.2613 20.2708 15.4962 20.272 14.727C20.2691 14.3835 20.2451 14.0405 20.2 13.7L20.025 13H23C23.2652 13 23.5196 12.8946 23.7071 12.7071C23.8946 12.5196 24 12.2652 24 12C24 11.7348 23.8946 11.4804 23.7071 11.2929C23.5196 11.1054 23.2652 11 23 11H19.522L18.513 7H22C22.5304 7 23.0391 6.78929 23.4142 6.41421C23.7893 6.03914 24 5.53043 24 5V1C24 0.734784 23.8946 0.48043 23.7071 0.292893C23.5196 0.105357 23.2652 0 23 0C22.7348 0 22.4804 0.105357 22.2929 0.292893C22.1054 0.48043 22 0.734784 22 1V5H18C17.982 5 17.968 5.009 17.95 5.01C17.4717 3.825 16.6502 2.80998 15.5909 2.09522C14.5316 1.38045 13.2829 0.998562 12.005 0.998562C10.7271 0.998562 9.47839 1.38045 8.4191 2.09522C7.35981 2.80998 6.5383 3.825 6.06 5.01C6.039 5.011 6.021 5 6 5H2V1C2 0.734784 1.89464 0.48043 1.70711 0.292893C1.51957 0.105357 1.26522 0 1 0C0.734784 0 0.48043 0.105357 0.292893 0.292893C0.105357 0.48043 0 0.734784 0 1L0 5C0 5.53043 0.210714 6.03914 0.585786 6.41421C0.960859 6.78929 1.46957 7 2 7H5.485L4.472 11H1C0.734784 11 0.48043 11.1054 0.292893 11.2929C0.105357 11.4804 0 11.7348 0 12C0 12.2652 0.105357 12.5196 0.292893 12.7071C0.48043 12.8946 0.734784 13 1 13H3.965L3.82 13.573L3.8 13.7C3.75541 14.0422 3.73203 14.3869 3.73 14.732C3.73101 15.4994 3.83974 16.2628 4.053 17H2C1.46957 17 0.960859 17.2107 0.585786 17.5858C0.210714 17.9609 0 18.4696 0 19H0Z" fill="currentColor"/>
</g>
<defs>
<clipPath id="clip0_406_2132">
<rect width="24" height="24" fill="white"/>
</clipPath>
</defs>
</svg>
