<svg width="24" height="24" viewBox="0 0 24 24" fill="none" xmlns="http://www.w3.org/2000/svg">
<g clip-path="url(#clip0_406_2129)">
<path d="M9 0H5C3.67392 0 2.40215 0.526784 1.46447 1.46447C0.526784 2.40215 0 3.67392 0 5L0 19C0 19.6566 0.129329 20.3068 0.380602 20.9134C0.631876 21.52 1.00017 22.0712 1.46447 22.5355C2.40215 23.4732 3.67392 24 5 24H14V5C14 4.34339 13.8707 3.69321 13.6194 3.08658C13.3681 2.47995 12.9998 1.92876 12.5355 1.46447C12.0712 1.00017 11.52 0.631876 10.9134 0.380602C10.3068 0.129329 9.65661 0 9 0V0ZM5 19H4C3.73478 19 3.48043 18.8946 3.29289 18.7071C3.10536 18.5196 3 18.2652 3 18C3 17.7348 3.10536 17.4804 3.29289 17.2929C3.48043 17.1054 3.73478 17 4 17H5C5.26522 17 5.51957 17.1054 5.70711 17.2929C5.89464 17.4804 6 17.7348 6 18C6 18.2652 5.89464 18.5196 5.70711 18.7071C5.51957 18.8946 5.26522 19 5 19ZM5 15H4C3.73478 15 3.48043 14.8946 3.29289 14.7071C3.10536 14.5196 3 14.2652 3 14C3 13.7348 3.10536 13.4804 3.29289 13.2929C3.48043 13.1054 3.73478 13 4 13H5C5.26522 13 5.51957 13.1054 5.70711 13.2929C5.89464 13.4804 6 13.7348 6 14C6 14.2652 5.89464 14.5196 5.70711 14.7071C5.51957 14.8946 5.26522 15 5 15ZM5 11H4C3.73478 11 3.48043 10.8946 3.29289 10.7071C3.10536 10.5196 3 10.2652 3 10C3 9.73478 3.10536 9.48043 3.29289 9.29289C3.48043 9.10536 3.73478 9 4 9H5C5.26522 9 5.51957 9.10536 5.70711 9.29289C5.89464 9.48043 6 9.73478 6 10C6 10.2652 5.89464 10.5196 5.70711 10.7071C5.51957 10.8946 5.26522 11 5 11ZM5 7H4C3.73478 7 3.48043 6.89464 3.29289 6.70711C3.10536 6.51957 3 6.26522 3 6C3 5.73478 3.10536 5.48043 3.29289 5.29289C3.48043 5.10536 3.73478 5 4 5H5C5.26522 5 5.51957 5.10536 5.70711 5.29289C5.89464 5.48043 6 5.73478 6 6C6 6.26522 5.89464 6.51957 5.70711 6.70711C5.51957 6.89464 5.26522 7 5 7ZM10 19H9C8.73478 19 8.48043 18.8946 8.29289 18.7071C8.10536 18.5196 8 18.2652 8 18C8 17.7348 8.10536 17.4804 8.29289 17.2929C8.48043 17.1054 8.73478 17 9 17H10C10.2652 17 10.5196 17.1054 10.7071 17.2929C10.8946 17.4804 11 17.7348 11 18C11 18.2652 10.8946 18.5196 10.7071 18.7071C10.5196 18.8946 10.2652 19 10 19ZM10 15H9C8.73478 15 8.48043 14.8946 8.29289 14.7071C8.10536 14.5196 8 14.2652 8 14C8 13.7348 8.10536 13.4804 8.29289 13.2929C8.48043 13.1054 8.73478 13 9 13H10C10.2652 13 10.5196 13.1054 10.7071 13.2929C10.8946 13.4804 11 13.7348 11 14C11 14.2652 10.8946 14.5196 10.7071 14.7071C10.5196 14.8946 10.2652 15 10 15ZM10 11H9C8.73478 11 8.48043 10.8946 8.29289 10.7071C8.10536 10.5196 8 10.2652 8 10C8 9.73478 8.10536 9.48043 8.29289 9.29289C8.48043 9.10536 8.73478 9 9 9H10C10.2652 9 10.5196 9.10536 10.7071 9.29289C10.8946 9.48043 11 9.73478 11 10C11 10.2652 10.8946 10.5196 10.7071 10.7071C10.5196 10.8946 10.2652 11 10 11ZM10 7H9C8.73478 7 8.48043 6.89464 8.29289 6.70711C8.10536 6.51957 8 6.26522 8 6C8 5.73478 8.10536 5.48043 8.29289 5.29289C8.48043 5.10536 8.73478 5 9 5H10C10.2652 5 10.5196 5.10536 10.7071 5.29289C10.8946 5.48043 11 5.73478 11 6C11 6.26522 10.8946 6.51957 10.7071 6.70711C10.5196 6.89464 10.2652 7 10 7ZM19 5H16V24H19C20.3256 23.9984 21.5964 23.4711 22.5338 22.5338C23.4711 21.5964 23.9984 20.3256 24 19V10C23.9984 8.67441 23.4711 7.40356 22.5338 6.46622C21.5964 5.52888 20.3256 5.00159 19 5ZM20 19C19.8022 19 19.6089 18.9414 19.4444 18.8315C19.28 18.7216 19.1518 18.5654 19.0761 18.3827C19.0004 18.2 18.9806 17.9989 19.0192 17.8049C19.0578 17.6109 19.153 17.4327 19.2929 17.2929C19.4327 17.153 19.6109 17.0578 19.8049 17.0192C19.9989 16.9806 20.2 17.0004 20.3827 17.0761C20.5654 17.1518 20.7216 17.28 20.8315 17.4444C20.9414 17.6089 21 17.8022 21 18C21 18.2652 20.8946 18.5196 20.7071 18.7071C20.5196 18.8946 20.2652 19 20 19ZM20 15C19.8022 15 19.6089 14.9414 19.4444 14.8315C19.28 14.7216 19.1518 14.5654 19.0761 14.3827C19.0004 14.2 18.9806 13.9989 19.0192 13.8049C19.0578 13.6109 19.153 13.4327 19.2929 13.2929C19.4327 13.153 19.6109 13.0578 19.8049 13.0192C19.9989 12.9806 20.2 13.0004 20.3827 13.0761C20.5654 13.1518 20.7216 13.28 20.8315 13.4444C20.9414 13.6089 21 13.8022 21 14C21 14.2652 20.8946 14.5196 20.7071 14.7071C20.5196 14.8946 20.2652 15 20 15ZM20 11C19.8022 11 19.6089 10.9414 19.4444 10.8315C19.28 10.7216 19.1518 10.5654 19.0761 10.3827C19.0004 10.2 18.9806 9.99889 19.0192 9.80491C19.0578 9.61093 19.153 9.43275 19.2929 9.29289C19.4327 9.15304 19.6109 9.0578 19.8049 9.01921C19.9989 8.98063 20.2 9.00043 20.3827 9.07612C20.5654 9.15181 20.7216 9.27998 20.8315 9.44443C20.9414 9.60888 21 9.80222 21 10C21 10.2652 20.8946 10.5196 20.7071 10.7071C20.5196 10.8946 20.2652 11 20 11Z" fill="currentColor"/>
</g>
<defs>
<clipPath id="clip0_406_2129">
<rect width="24" height="24" fill="white"/>
</clipPath>
</defs>
</svg>
