<svg width="24" height="24" viewBox="0 0 24 24" fill="none" xmlns="http://www.w3.org/2000/svg">
<g clip-path="url(#clip0_406_2207)">
<path d="M24 23.01C23.9998 23.1408 23.9738 23.2703 23.9234 23.391C23.873 23.5117 23.7991 23.6213 23.7062 23.7133C23.6132 23.8053 23.5029 23.878 23.3817 23.9273C23.2605 23.9765 23.1308 24.0012 23 24H0.999961C0.860914 24.014 0.720487 23.9986 0.587734 23.955C0.454981 23.9113 0.33285 23.8403 0.229218 23.7466C0.125587 23.6528 0.042755 23.5384 -0.0139351 23.4107C-0.0706251 23.2829 -0.0999146 23.1447 -0.0999146 23.005C-0.0999146 22.8653 -0.0706251 22.7271 -0.0139351 22.5993C0.042755 22.4716 0.125587 22.3572 0.229218 22.2634C0.33285 22.1697 0.454981 22.0987 0.587734 22.055C0.720487 22.0114 0.860914 21.996 0.999961 22.01H1.99996V22V19.625C2.55108 19.8697 3.14697 19.9974 3.74996 20C4.75696 20.0076 5.73308 19.6527 6.49996 19C7.27133 19.643 8.24304 19.9964 9.24726 19.9991C10.2515 20.0019 11.2251 19.6538 12 19.015C12.7748 19.6538 13.7485 20.0019 14.7527 19.9991C15.7569 19.9964 16.7286 19.643 17.5 19C18.2668 19.6527 19.243 20.0076 20.25 20C20.853 19.9974 21.4488 19.8697 22 19.625V22V22.01H23C23.2652 22.01 23.5195 22.1154 23.7071 22.3029C23.8946 22.4904 24 22.7448 24 23.01ZM8.99996 2C9.19774 2 9.39108 1.94135 9.55553 1.83147C9.71998 1.72159 9.84815 1.56541 9.92384 1.38268C9.99953 1.19996 10.0193 0.998891 9.98075 0.80491C9.94216 0.610929 9.84692 0.432746 9.70707 0.292894C9.56721 0.153041 9.38903 0.0578004 9.19505 0.0192152C9.00107 -0.0193701 8.8 0.000433281 8.61728 0.0761209C8.43455 0.151809 8.27837 0.279981 8.16849 0.44443C8.05861 0.608879 7.99996 0.802219 7.99996 1C7.99996 1.26522 8.10532 1.51957 8.29285 1.70711C8.48039 1.89464 8.73474 2 8.99996 2ZM15 2C15.1977 2 15.3911 1.94135 15.5555 1.83147C15.72 1.72159 15.8482 1.56541 15.9238 1.38268C15.9995 1.19996 16.0193 0.998891 15.9807 0.80491C15.9422 0.610929 15.8469 0.432746 15.7071 0.292894C15.5672 0.153041 15.389 0.0578004 15.1951 0.0192152C15.0011 -0.0193701 14.8 0.000433281 14.6173 0.0761209C14.4346 0.151809 14.2784 0.279981 14.1685 0.44443C14.0586 0.608879 14 0.802219 14 1C14 1.26522 14.1053 1.51957 14.2929 1.70711C14.4804 1.89464 14.7347 2 15 2ZM3.74996 18C4.81796 18 5.49996 17.343 5.49996 17C5.49996 16.7348 5.60532 16.4804 5.79285 16.2929C5.98039 16.1054 6.23474 16 6.49996 16C6.76518 16 7.01953 16.1054 7.20707 16.2929C7.3946 16.4804 7.49996 16.7348 7.49996 17C7.49996 17.306 8.16096 18 9.24996 18C10.318 18 11 17.343 11 17C11 16.7348 11.1053 16.4804 11.2929 16.2929C11.4804 16.1054 11.7347 16 12 16C12.2652 16 12.5195 16.1054 12.7071 16.2929C12.8946 16.4804 13 16.7348 13 17C13 17.306 13.661 18 14.75 18C15.818 18 16.5 17.343 16.5 17C16.5 16.7348 16.6053 16.4804 16.7929 16.2929C16.9804 16.1054 17.2347 16 17.5 16C17.7652 16 18.0195 16.1054 18.2071 16.2929C18.3946 16.4804 18.5 16.7348 18.5 17C18.5 17.306 19.161 18 20.25 18C21.339 18 22 17.306 22 17C21.9984 15.6744 21.4711 14.4036 20.5337 13.4662C19.5964 12.5289 18.3256 12.0016 17 12H6.99996C5.67437 12.0016 4.40352 12.5289 3.46618 13.4662C2.52884 14.4036 2.00155 15.6744 1.99996 17C1.99996 17.306 2.66096 18 3.74996 18ZM17 10C17.6774 10.0004 18.3512 10.0998 19 10.295V10C18.9985 9.34944 18.785 8.7171 18.3918 8.19882C17.9986 7.68055 17.4471 7.30461 16.821 7.128L16.161 3.8C16.1148 3.57396 15.9919 3.37082 15.8132 3.22502C15.6344 3.07922 15.4107 2.99972 15.18 3H14.82C14.5893 2.99972 14.3656 3.07922 14.1868 3.22502C14.008 3.37082 13.8851 3.57396 13.839 3.8L13.2 7H10.25L11 4C11 3.73478 10.8946 3.48043 10.7071 3.29289C10.5195 3.10536 10.2652 3 9.99996 3H7.99996C7.73474 3 7.48039 3.10536 7.29285 3.29289C7.10532 3.48043 6.99996 3.73478 6.99996 4L7.75596 7.025C7.00678 7.08381 6.30722 7.42257 5.79651 7.97386C5.28581 8.52514 5.00143 9.24852 4.99996 10V10.3C5.64845 10.1031 6.32224 10.002 6.99996 10H17Z" fill="currentColor"/>
</g>
<defs>
<clipPath id="clip0_406_2207">
<rect width="24" height="24" fill="white"/>
</clipPath>
</defs>
</svg>
