<svg width="24" height="24" viewBox="0 0 24 24" fill="none" xmlns="http://www.w3.org/2000/svg">
<g clip-path="url(#clip0_406_1925)">
<path d="M12.8871 16.573L16.451 24H7.18805L11.1211 16.562C11.1995 16.3933 11.3247 16.2507 11.4819 16.1512C11.6391 16.0516 11.8215 15.9993 12.0076 16.0004C12.1936 16.0016 12.3754 16.0562 12.5313 16.1577C12.6873 16.2592 12.8107 16.4034 12.8871 16.573ZM23.522 16.868L16.535 2.90004C16.1346 2.03796 15.4966 1.3079 14.6961 0.79544C13.8955 0.282975 12.9654 0.00934118 12.0148 0.00661241C11.0643 0.00388363 10.1326 0.272173 9.3291 0.780033C8.52558 1.28789 7.88347 2.01428 7.47805 2.87404L0.470051 16.9C0.118758 17.6558 -0.0378604 18.4874 0.0144638 19.3192C0.066788 20.1509 0.326391 20.9563 0.769625 21.6621C1.21286 22.3678 1.82563 22.9515 2.55213 23.3598C3.27862 23.7682 4.09574 23.9883 4.92905 24L9.32905 15.678C9.57443 15.1725 9.95818 14.747 10.4357 14.4509C10.9133 14.1548 11.465 14.0002 12.0269 14.0051C12.5888 14.0101 13.1378 14.1743 13.61 14.4787C14.0823 14.7832 14.4586 15.2153 14.6951 15.725L18.6691 24H19C19.8425 23.9999 20.6712 23.787 21.4093 23.3809C22.1475 22.9749 22.771 22.3889 23.2221 21.6774C23.6732 20.966 23.9372 20.1521 23.9897 19.3113C24.0421 18.4705 23.8813 17.6301 23.522 16.868Z" fill="currentColor"/>
</g>
<defs>
<clipPath id="clip0_406_1925">
<rect width="24" height="24" fill="white"/>
</clipPath>
</defs>
</svg>
