<svg width="24" height="24" viewBox="0 0 24 24" fill="none" xmlns="http://www.w3.org/2000/svg">
<g clip-path="url(#clip0_406_2269)">
<path d="M0.327 12.0001C0.356 11.9071 0.369 11.8101 0.402 11.7181L3.1 4.29112C3.45233 3.32742 4.09196 2.49508 4.93248 1.90654C5.773 1.31799 6.77391 1.00161 7.8 1.00012H16.2C17.2262 1.00154 18.2273 1.31802 19.0679 1.90677C19.9084 2.49552 20.548 3.32815 20.9 4.29212L23.6 11.7181C23.633 11.8101 23.646 11.9071 23.675 12.0001H0.327ZM20 14.0001V16.0001C20 16.2653 19.8946 16.5197 19.7071 16.7072C19.5196 16.8948 19.2652 17.0001 19 17.0001C18.7348 17.0001 18.4804 16.8948 18.2929 16.7072C18.1054 16.5197 18 16.2653 18 16.0001V14.0001H6V16.0001C6 16.2653 5.89464 16.5197 5.70711 16.7072C5.51957 16.8948 5.26522 17.0001 5 17.0001C4.73478 17.0001 4.48043 16.8948 4.29289 16.7072C4.10536 16.5197 4 16.2653 4 16.0001V14.0001H0V16.0001C0.00127838 16.9719 0.285705 17.9222 0.818499 18.7349C1.35129 19.5476 2.10936 20.1874 3 20.5761V22.0001C3 22.5306 3.21071 23.0393 3.58579 23.4143C3.96086 23.7894 4.46957 24.0001 5 24.0001C5.53043 24.0001 6.03914 23.7894 6.41421 23.4143C6.78929 23.0393 7 22.5306 7 22.0001V21.0001H17V22.0001C17 22.5306 17.2107 23.0393 17.5858 23.4143C17.9609 23.7894 18.4696 24.0001 19 24.0001C19.5304 24.0001 20.0391 23.7894 20.4142 23.4143C20.7893 23.0393 21 22.5306 21 22.0001V20.5761C21.8906 20.1874 22.6487 19.5476 23.1815 18.7349C23.7143 17.9222 23.9987 16.9719 24 16.0001V14.0001H20Z" fill="currentColor"/>
</g>
<defs>
<clipPath id="clip0_406_2269">
<rect width="24" height="24" fill="white"/>
</clipPath>
</defs>
</svg>
