<svg width="24" height="24" viewBox="0 0 24 24" fill="none" xmlns="http://www.w3.org/2000/svg">
<path d="M6.40987 16.0001H17.5899C17.7876 15.9993 17.9807 15.9398 18.1447 15.8292C18.3087 15.7187 18.4362 15.562 18.5111 15.3789C18.5861 15.1959 18.605 14.9948 18.5656 14.801C18.5263 14.6071 18.4303 14.4294 18.2899 14.2901L12.7099 8.7101C12.6169 8.61638 12.5063 8.54198 12.3844 8.49121C12.2626 8.44045 12.1319 8.41431 11.9999 8.41431C11.8679 8.41431 11.7372 8.44045 11.6153 8.49121C11.4934 8.54198 11.3828 8.61638 11.2899 8.7101L5.70987 14.2901C5.56945 14.4294 5.47348 14.6071 5.43409 14.801C5.39471 14.9948 5.41368 15.1959 5.4886 15.3789C5.56353 15.562 5.69104 15.7187 5.85503 15.8292C6.01901 15.9398 6.2121 15.9993 6.40987 16.0001Z" fill="currentColor"/>
</svg>
