<svg width="24" height="24" viewBox="0 0 24 24" fill="none" xmlns="http://www.w3.org/2000/svg">
<g clip-path="url(#clip0_403_3234)">
<path d="M23 22H5C4.20435 22 3.44129 21.6839 2.87868 21.1213C2.31607 20.5587 2 19.7956 2 19V1C2 0.734784 1.89464 0.48043 1.70711 0.292893C1.51957 0.105357 1.26522 0 1 0C0.734784 0 0.48043 0.105357 0.292893 0.292893C0.105357 0.48043 0 0.734784 0 1L0 19C0.00158786 20.3256 0.528882 21.5964 1.46622 22.5338C2.40356 23.4711 3.67441 23.9984 5 24H23C23.2652 24 23.5196 23.8946 23.7071 23.7071C23.8946 23.5196 24 23.2652 24 23C24 22.7348 23.8946 22.4804 23.7071 22.2929C23.5196 22.1054 23.2652 22 23 22Z" fill="currentColor"/>
<path d="M6.00012 19.9999C6.26534 19.9999 6.51969 19.8945 6.70723 19.707C6.89476 19.5194 7.00012 19.2651 7.00012 18.9999V11.9999C7.00012 11.7347 6.89476 11.4803 6.70723 11.2928C6.51969 11.1052 6.26534 10.9999 6.00012 10.9999C5.7349 10.9999 5.48055 11.1052 5.29301 11.2928C5.10548 11.4803 5.00012 11.7347 5.00012 11.9999V18.9999C5.00012 19.2651 5.10548 19.5194 5.29301 19.707C5.48055 19.8945 5.7349 19.9999 6.00012 19.9999Z" fill="currentColor"/>
<path d="M9.99982 10V19C9.99982 19.2652 10.1052 19.5196 10.2927 19.7071C10.4802 19.8946 10.7346 20 10.9998 20C11.265 20 11.5194 19.8946 11.7069 19.7071C11.8945 19.5196 11.9998 19.2652 11.9998 19V10C11.9998 9.73478 11.8945 9.48043 11.7069 9.29289C11.5194 9.10536 11.265 9 10.9998 9C10.7346 9 10.4802 9.10536 10.2927 9.29289C10.1052 9.48043 9.99982 9.73478 9.99982 10Z" fill="currentColor"/>
<path d="M15 13V19C15 19.2652 15.1054 19.5196 15.2929 19.7071C15.4804 19.8946 15.7348 20 16 20C16.2652 20 16.5196 19.8946 16.7071 19.7071C16.8947 19.5196 17 19.2652 17 19V13C17 12.7348 16.8947 12.4804 16.7071 12.2929C16.5196 12.1054 16.2652 12 16 12C15.7348 12 15.4804 12.1054 15.2929 12.2929C15.1054 12.4804 15 12.7348 15 13Z" fill="currentColor"/>
<path d="M20.0002 8.99988V18.9999C20.0002 19.2651 20.1055 19.5194 20.2931 19.707C20.4806 19.8945 20.735 19.9999 21.0002 19.9999C21.2654 19.9999 21.5198 19.8945 21.7073 19.707C21.8948 19.5194 22.0002 19.2651 22.0002 18.9999V8.99988C22.0002 8.73466 21.8948 8.48031 21.7073 8.29277C21.5198 8.10523 21.2654 7.99988 21.0002 7.99988C20.735 7.99988 20.4806 8.10523 20.2931 8.29277C20.1055 8.48031 20.0002 8.73466 20.0002 8.99988Z" fill="currentColor"/>
<path d="M5.99985 8.99992C6.26504 8.99986 6.51936 8.89447 6.70685 8.70692L10.2928 5.12092C10.4834 4.93934 10.7366 4.83806 10.9998 4.83806C11.2631 4.83806 11.5162 4.93934 11.7068 5.12092L13.8788 7.29292C14.4414 7.85533 15.2044 8.17128 15.9998 8.17128C16.7953 8.17128 17.5583 7.85533 18.1208 7.29292L23.7068 1.70692C23.889 1.51832 23.9898 1.26571 23.9875 1.00352C23.9852 0.741321 23.8801 0.490508 23.6947 0.3051C23.5093 0.119692 23.2584 0.0145233 22.9962 0.0122448C22.7341 0.00996641 22.4814 0.110761 22.2928 0.292919L16.7068 5.87792C16.5193 6.06539 16.265 6.17071 15.9998 6.17071C15.7347 6.17071 15.4804 6.06539 15.2928 5.87792L13.1208 3.70692C12.5583 3.14451 11.7953 2.82856 10.9998 2.82856C10.2044 2.82856 9.44143 3.14451 8.87885 3.70692L5.29285 7.29292C5.15304 7.43277 5.05783 7.61093 5.01926 7.80489C4.9807 7.99884 5.0005 8.19987 5.07617 8.38257C5.15184 8.56527 5.27998 8.72144 5.44439 8.83132C5.6088 8.94121 5.8021 8.99988 5.99985 8.99992Z" fill="currentColor"/>
</g>
<defs>
<clipPath id="clip0_403_3234">
<rect width="24" height="24" fill="white"/>
</clipPath>
</defs>
</svg>
