<svg width="24" height="24" viewBox="0 0 24 24" fill="none" xmlns="http://www.w3.org/2000/svg">
<g clip-path="url(#clip0_403_3122)">
<path d="M12 0C9.62663 0 7.30655 0.703788 5.33316 2.02236C3.35977 3.34094 1.8217 5.21509 0.913451 7.4078C0.00519943 9.60051 -0.232441 12.0133 0.230582 14.3411C0.693605 16.6689 1.83649 18.8071 3.51472 20.4853C5.19295 22.1635 7.33115 23.3064 9.65892 23.7694C11.9867 24.2324 14.3995 23.9948 16.5922 23.0866C18.7849 22.1783 20.6591 20.6402 21.9776 18.6668C23.2962 16.6935 24 14.3734 24 12C23.9966 8.81846 22.7312 5.76821 20.4815 3.51852C18.2318 1.26883 15.1815 0.00344108 12 0V0ZM21.573 9.12L12.665 10.852C12.5248 10.6356 12.4018 10.4086 12.297 10.173L8.95701 2.473C10.2214 2.06772 11.554 1.91865 12.8767 2.03451C14.1995 2.15037 15.4858 2.52883 16.6605 3.14776C17.8353 3.76669 18.8748 4.61366 19.7183 5.63912C20.5618 6.66458 21.1923 7.84795 21.573 9.12ZM12 22C9.78712 22.0008 7.63653 21.2672 5.88543 19.9143C4.13432 18.5614 2.8817 16.6655 2.32398 14.5241C1.76626 12.3826 1.93496 10.1167 2.80364 8.08141C3.67232 6.04616 5.19186 4.35673 7.12401 3.278L10.462 10.969C10.937 12.0622 11.6828 13.0162 12.629 13.741L19.282 18.833C18.3501 19.8318 17.2228 20.6283 15.9701 21.1731C14.7174 21.7179 13.366 21.9994 12 22ZM20.5 17.245L14.375 12.557L21.956 11.084C21.983 11.384 22.002 11.691 22.002 12C22.0011 13.8543 21.4808 15.6713 20.5 17.245Z" fill="currentColor"/>
</g>
<defs>
<clipPath id="clip0_403_3122">
<rect width="24" height="24" fill="white"/>
</clipPath>
</defs>
</svg>
