<svg width="24" height="24" viewBox="0 0 24 24" fill="none" xmlns="http://www.w3.org/2000/svg">
<g clip-path="url(#clip0_406_2232)">
<path d="M22.293 12.7001L21.207 13.7861L17.622 10.2001C17.0504 9.65488 16.2908 9.35072 15.501 9.35072C14.7111 9.35072 13.9515 9.65488 13.38 10.2001L13.207 10.3731C13.0166 10.5551 12.7634 10.6567 12.5 10.6567C12.2366 10.6567 11.9833 10.5551 11.793 10.3731L6.71996 5.29406C6.62771 5.19855 6.51737 5.12237 6.39536 5.06996C6.27336 5.01755 6.14214 4.98996 6.00936 4.98881C5.87658 4.98765 5.7449 5.01296 5.62201 5.06324C5.49911 5.11352 5.38746 5.18777 5.29356 5.28166C5.19967 5.37556 5.12542 5.48721 5.07514 5.6101C5.02486 5.733 4.99956 5.86468 5.00071 5.99746C5.00186 6.13024 5.02945 6.26146 5.08186 6.38346C5.13427 6.50547 5.21045 6.61581 5.30596 6.70806L10.378 11.7811C10.9494 12.3265 11.709 12.6308 12.499 12.6308C13.2889 12.6308 14.0485 12.3265 14.62 11.7811L14.793 11.6081C14.9833 11.426 15.2366 11.3244 15.5 11.3244C15.7634 11.3244 16.0166 11.426 16.207 11.6081L19.793 15.2001L18.707 16.2861C18.5672 16.4259 18.4719 16.6041 18.4334 16.798C18.3948 16.992 18.4146 17.193 18.4903 17.3757C18.566 17.5584 18.6941 17.7146 18.8585 17.8245C19.0229 17.9343 19.2162 17.993 19.414 17.9931H22.5C22.8978 17.9931 23.2793 17.835 23.5606 17.5537C23.8419 17.2724 24 16.8909 24 16.4931V13.4001C23.9985 13.2029 23.9389 13.0106 23.8285 12.8472C23.7181 12.6839 23.5618 12.5568 23.3794 12.482C23.197 12.4072 22.9965 12.388 22.8032 12.4268C22.6099 12.4656 22.4324 12.5607 22.293 12.7001Z" fill="currentColor"/>
<path d="M23 21.976H5C4.20435 21.976 3.44129 21.6599 2.87868 21.0973C2.31607 20.5347 2 19.7716 2 18.976V1C2 0.734784 1.89464 0.48043 1.70711 0.292893C1.51957 0.105357 1.26522 0 1 0C0.734784 0 0.48043 0.105357 0.292893 0.292893C0.105357 0.48043 0 0.734784 0 1L0 18.976C0.00158786 20.3016 0.528882 21.5724 1.46622 22.5098C2.40356 23.4471 3.67441 23.9744 5 23.976H23C23.2652 23.976 23.5196 23.8706 23.7071 23.6831C23.8946 23.4956 24 23.2412 24 22.976C24 22.7108 23.8946 22.4564 23.7071 22.2689C23.5196 22.0814 23.2652 21.976 23 21.976Z" fill="currentColor"/>
</g>
<defs>
<clipPath id="clip0_406_2232">
<rect width="24" height="24" fill="white"/>
</clipPath>
</defs>
</svg>
