<svg width="24" height="24" viewBox="0 0 24 24" fill="none" xmlns="http://www.w3.org/2000/svg">
<g clip-path="url(#clip0_403_3163)">
<path d="M20.025 22.026H19.025V20.371C19.0229 19.8349 18.9134 19.3046 18.703 18.8115C18.4926 18.3184 18.1855 17.8725 17.8 17.5C15.876 15.641 15.091 13.511 15.034 10.024H16.022C16.2872 10.024 16.5415 9.91861 16.7291 9.73107C16.9166 9.54354 17.022 9.28918 17.022 9.02397C17.022 8.75875 16.9166 8.5044 16.7291 8.31686C16.5415 8.12932 16.2872 8.02397 16.022 8.02397H15.466C15.8263 7.41881 16.0183 6.72829 16.022 6.02397C16.022 4.64897 14.86 2.30697 14.129 1.15397C13.9029 0.800513 13.5915 0.509649 13.2234 0.308175C12.8554 0.106701 12.4425 0.00109863 12.023 0.00109863C11.6034 0.00109863 11.1906 0.106701 10.8225 0.308175C10.4545 0.509649 10.1431 0.800513 9.91697 1.15397C9.18497 2.30797 8.02297 4.65397 8.02297 6.02497C8.02711 6.72922 8.21905 7.41962 8.57897 8.02497H8.02597C7.76075 8.02497 7.5064 8.13032 7.31886 8.31786C7.13133 8.5054 7.02597 8.75975 7.02597 9.02497C7.02597 9.29018 7.13133 9.54454 7.31886 9.73207C7.5064 9.91961 7.76075 10.025 8.02597 10.025H9.01497C8.95697 13.512 8.17097 15.641 6.24897 17.5C5.86411 17.8727 5.55766 18.3186 5.34763 18.8115C5.13761 19.3043 5.02824 19.8342 5.02597 20.37V22.025H4.02597C3.76075 22.025 3.5064 22.1303 3.31886 22.3179C3.13133 22.5054 3.02597 22.7598 3.02597 23.025C3.02597 23.2902 3.13133 23.5445 3.31886 23.7321C3.5064 23.9196 3.76075 24.025 4.02597 24.025H20.026C20.2912 24.025 20.5455 23.9196 20.7331 23.7321C20.9206 23.5445 21.026 23.2902 21.026 23.025C21.026 22.7598 20.9206 22.5054 20.7331 22.3179C20.5455 22.1303 20.2912 22.025 20.026 22.025L20.025 22.026ZM11.608 2.22597C11.6535 2.15686 11.7155 2.10013 11.7884 2.06089C11.8612 2.02164 11.9427 2.00109 12.0255 2.00109C12.1082 2.00109 12.1897 2.02164 12.2626 2.06089C12.3354 2.10013 12.3974 2.15686 12.443 2.22597C13.2101 3.37893 13.7473 4.66924 14.025 6.02597C14.025 6.5564 13.8143 7.06511 13.4392 7.44018C13.0641 7.81525 12.5554 8.02597 12.025 8.02597C11.4945 8.02597 10.9858 7.81525 10.6108 7.44018C10.2357 7.06511 10.025 6.5564 10.025 6.02597C10.3034 4.6696 10.8408 3.37969 11.608 2.22697V2.22597ZM13.038 10.026C13.092 13.542 13.838 15.977 15.56 18.026H8.49097C10.211 15.977 10.959 13.541 11.014 10.026H13.038ZM7.02597 20.371C7.02745 20.2551 7.0395 20.1396 7.06197 20.026H16.99C17.0116 20.1397 17.0233 20.2552 17.025 20.371V22.026H7.02497L7.02597 20.371Z" fill="currentColor"/>
</g>
<defs>
<clipPath id="clip0_403_3163">
<rect width="24" height="24" fill="white"/>
</clipPath>
</defs>
</svg>
