<svg width="24" height="24" viewBox="0 0 24 24" fill="none" xmlns="http://www.w3.org/2000/svg">
<g clip-path="url(#clip0_406_2286)">
<path d="M22.95 9.60006C22.7625 9.41259 22.5082 9.30728 22.243 9.30728C21.9779 9.30728 21.7236 9.41259 21.536 9.60006L10.644 20.5391C10.1797 21.0034 9.62853 21.3718 9.02188 21.6231C8.41524 21.8744 7.76503 22.0038 7.10838 22.0039C5.78221 22.004 4.51033 21.4772 3.57252 20.5396C2.63472 19.6019 2.10781 18.3301 2.10772 17.0039C2.10762 15.6778 2.63435 14.4059 3.57202 13.4681L14.121 2.87606C14.6851 2.32096 15.4457 2.01123 16.2371 2.01436C17.0285 2.01749 17.7866 2.33322 18.3463 2.89277C18.906 3.45232 19.2219 4.21036 19.2252 5.00177C19.2285 5.79318 18.919 6.55384 18.364 7.11806L7.81502 17.7101C7.62477 17.8923 7.37149 17.9941 7.10802 17.9941C6.84456 17.9941 6.59127 17.8923 6.40102 17.7101C6.21355 17.5225 6.10824 17.2682 6.10824 17.0031C6.10824 16.7379 6.21355 16.4836 6.40102 16.2961L15.793 6.86106C15.9752 6.67246 16.076 6.41986 16.0737 6.15766C16.0714 5.89547 15.9662 5.64465 15.7808 5.45924C15.5954 5.27384 15.3446 5.16867 15.0824 5.16639C14.8202 5.16411 14.5676 5.26491 14.379 5.44706L4.98702 14.8821C4.70839 15.1606 4.48737 15.4914 4.33657 15.8554C4.18578 16.2194 4.10816 16.6096 4.10816 17.0036C4.10816 17.3976 4.18578 17.7877 4.33657 18.1517C4.48737 18.5157 4.70839 18.8465 4.98702 19.1251C5.55864 19.6705 6.3184 19.9749 7.10852 19.9749C7.89864 19.9749 8.6584 19.6705 9.23002 19.1251L19.778 8.53206C20.696 7.59037 21.206 6.32492 21.1976 5.00984C21.1892 3.69475 20.663 2.43594 19.733 1.50609C18.803 0.576231 17.5441 0.0502084 16.229 0.0419684C14.914 0.0337284 13.6486 0.543934 12.707 1.46206L2.15802 12.0541C0.845201 13.3669 0.107666 15.1475 0.107666 17.0041C0.107666 18.8607 0.845201 20.6412 2.15802 21.9541C3.47084 23.2669 5.25141 24.0044 7.10802 24.0044C8.96463 24.0044 10.7452 23.2669 12.058 21.9541L22.95 11.0181C23.0435 10.9251 23.1176 10.8147 23.1682 10.693C23.2188 10.5713 23.2448 10.4408 23.2448 10.3091C23.2448 10.1773 23.2188 10.0468 23.1682 9.92514C23.1176 9.80347 23.0435 9.69299 22.95 9.60006Z" fill="currentColor"/>
</g>
<defs>
<clipPath id="clip0_406_2286">
<rect width="24" height="24" fill="white"/>
</clipPath>
</defs>
</svg>
