<svg width="24" height="24" viewBox="0 0 24 24" fill="none" xmlns="http://www.w3.org/2000/svg">
<g clip-path="url(#clip0_406_2214)">
<path d="M18.3852 7.37301C18.2083 7.3194 18.0473 7.22315 17.9164 7.09272C17.7854 6.96229 17.6885 6.80167 17.6342 6.62501C17.328 5.58706 16.8143 4.62202 16.1244 3.78831C15.4344 2.95459 14.5825 2.26953 13.6201 1.77457C12.6577 1.27961 11.605 0.985056 10.5255 0.908721C9.44598 0.832387 8.36222 0.975863 7.33978 1.33047C6.31734 1.68507 5.37748 2.24343 4.57706 2.97176C3.77664 3.70008 3.13232 4.58323 2.68307 5.56777C2.23382 6.5523 1.989 7.61774 1.96341 8.69963C1.93782 9.78151 2.132 10.8573 2.5342 11.862C2.62626 12.0738 2.64568 12.31 2.58943 12.5339C2.53317 12.7579 2.4044 12.9569 2.2232 13.1C1.42692 13.691 0.805241 14.4863 0.423947 15.4017C0.0426523 16.3171 -0.0840687 17.3185 0.0571956 18.3C0.277649 19.6269 0.96652 20.8308 1.99878 21.6931C3.03103 22.5555 4.33826 23.0192 5.6832 23H14.0002V15.414L12.7072 16.707C12.5186 16.8892 12.266 16.99 12.0038 16.9877C11.7416 16.9854 11.4908 16.8802 11.3054 16.6948C11.12 16.5094 11.0148 16.2586 11.0125 15.9964C11.0102 15.7342 11.111 15.4816 11.2932 15.293L12.8792 13.707C13.4418 13.1446 14.2047 12.8287 15.0002 12.8287C15.7957 12.8287 16.5586 13.1446 17.1212 13.707L18.7072 15.293C18.8027 15.3853 18.8789 15.4956 18.9313 15.6176C18.9837 15.7396 19.0113 15.8708 19.0124 16.0036C19.0136 16.1364 18.9883 16.2681 18.938 16.391C18.8877 16.5139 18.8135 16.6255 18.7196 16.7194C18.6257 16.8133 18.514 16.8876 18.3911 16.9378C18.2683 16.9881 18.1366 17.0134 18.0038 17.0123C17.871 17.0111 17.7398 16.9835 17.6178 16.9311C17.4958 16.8787 17.3854 16.8025 17.2932 16.707L16.0002 15.414V22.987C17.9907 22.9472 19.8983 22.183 21.3657 20.8375C22.833 19.492 23.7594 17.6576 23.9712 15.678C24.1301 13.8636 23.6623 12.0496 22.6458 10.5384C21.6294 9.02709 20.1256 7.9099 18.3852 7.37301Z" fill="currentColor"/>
</g>
<defs>
<clipPath id="clip0_406_2214">
<rect width="24" height="24" fill="white"/>
</clipPath>
</defs>
</svg>
