<svg width="24" height="24" viewBox="0 0 24 24" fill="none" xmlns="http://www.w3.org/2000/svg">
<g clip-path="url(#clip0_406_2130)">
<path d="M23.7069 22.2929C23.8024 22.3852 23.8785 22.4955 23.931 22.6175C23.9834 22.7395 24.011 22.8707 24.0121 23.0035C24.0133 23.1363 23.988 23.268 23.9377 23.3909C23.8874 23.5138 23.8131 23.6254 23.7192 23.7193C23.6254 23.8132 23.5137 23.8875 23.3908 23.9377C23.2679 23.988 23.1362 24.0133 23.0035 24.0122C22.8707 24.011 22.7395 23.9834 22.6175 23.931C22.4954 23.8786 22.3851 23.8024 22.2929 23.7069L0.292853 1.70692C0.110695 1.51832 0.00990043 1.26571 0.0121788 1.00352C0.0144573 0.741321 0.119626 0.490508 0.305034 0.3051C0.490442 0.119692 0.741255 0.0145233 1.00345 0.0122448C1.26565 0.00996641 1.51825 0.110761 1.70685 0.292919L4.57685 3.16292C5.74341 2.0532 7.22223 1.32793 8.81385 1.08492C10.7038 0.800048 12.6333 1.20255 14.2517 2.2193C15.8702 3.23605 17.0702 4.79961 17.6339 6.62592C17.6841 6.79855 17.7763 6.95604 17.9023 7.0843C18.0283 7.21256 18.1842 7.3076 18.3559 7.36092C20.0979 7.88984 21.606 8.99995 22.6287 10.5062C23.6514 12.0123 24.1269 13.8236 23.9759 15.6379C23.8426 17.4295 23.0604 19.111 21.7759 20.3669L23.7069 22.2929ZM3.44085 7.66292C3.33411 7.55553 3.19943 7.48017 3.05207 7.44537C2.90471 7.41056 2.75054 7.41771 2.60703 7.466C2.46352 7.51429 2.3364 7.60179 2.24004 7.71859C2.14369 7.8354 2.08197 7.97684 2.06185 8.12692C2.02212 8.42932 2.00141 8.73392 1.99985 9.03892C2.00122 10.3024 2.32511 11.5446 2.94085 12.6479C1.92954 13.1702 1.10739 13.9963 0.590063 15.0102C0.0727346 16.024 -0.113746 17.1746 0.0568529 18.2999C0.317504 19.6077 1.01767 20.787 2.04107 21.642C3.06447 22.4969 4.34953 22.9761 5.68285 22.9999H14.7829C15.4368 23.0011 16.0897 22.9483 16.7349 22.8419C16.8873 22.8175 17.03 22.7514 17.1473 22.6511C17.2647 22.5507 17.352 22.4199 17.3998 22.2731C17.4475 22.1263 17.4539 21.9691 17.4181 21.819C17.3823 21.6688 17.3057 21.5314 17.1969 21.4219L3.44085 7.66292Z" fill="currentColor"/>
</g>
<defs>
<clipPath id="clip0_406_2130">
<rect width="24" height="24" fill="white"/>
</clipPath>
</defs>
</svg>
