<svg width="24" height="24" viewBox="0 0 24 24" fill="none" xmlns="http://www.w3.org/2000/svg">
<g clip-path="url(#clip0_403_3075)">
<path d="M2.99991 21.1232C2.79735 21.123 2.59962 21.0613 2.43291 20.9462C1.64054 20.4316 0.997955 19.717 0.570048 18.8747C0.14214 18.0323 -0.0559453 17.092 -0.00421048 16.1486C0.0475243 15.2052 0.347248 14.2921 0.864701 13.5016C1.38215 12.7111 2.09902 12.0711 2.94291 11.6462C2.07467 10.0679 1.79136 8.23387 2.14291 6.4672C2.48477 4.71952 3.39997 3.13587 4.74354 1.96709C6.08711 0.798319 7.78224 0.111242 9.56042 0.0146998C11.3386 -0.0818428 13.0981 0.417668 14.5604 1.43411C16.0226 2.45055 17.1039 3.92581 17.6329 5.62619C17.6832 5.79858 17.7755 5.95579 17.9015 6.08372C18.0275 6.21165 18.1833 6.3063 18.3549 6.3592C19.613 6.74463 20.7564 7.43513 21.6832 8.36923C22.6099 9.30333 23.2914 10.4521 23.6669 11.7132C23.7365 11.9654 23.7044 12.2347 23.5777 12.4636C23.451 12.6924 23.2396 12.8625 22.989 12.9373C22.7383 13.0121 22.4683 12.9858 22.2369 12.8639C22.0054 12.742 21.831 12.5342 21.7509 12.2852C21.469 11.3398 20.958 10.4787 20.2631 9.77842C19.5682 9.07814 18.7111 8.56039 17.7679 8.2712C17.286 8.1215 16.8479 7.85644 16.4917 7.49901C16.1355 7.14158 15.872 6.70261 15.7239 6.22019C15.4835 5.41914 15.0784 4.67719 14.5344 4.04195C13.9904 3.40671 13.3196 2.89222 12.565 2.53148C11.8105 2.17074 10.9889 1.97173 10.1529 1.94723C9.31692 1.92272 8.48505 2.07325 7.71067 2.38916C6.93629 2.70507 6.23651 3.17939 5.65623 3.78167C5.07596 4.38395 4.628 5.10089 4.34111 5.88648C4.05423 6.67208 3.93474 7.50897 3.99033 8.34346C4.04592 9.17795 4.27536 9.9916 4.66391 10.7322C4.91166 11.1943 4.96746 11.7353 4.81923 12.2382C4.671 12.7411 4.33067 13.1654 3.87191 13.4192C3.33312 13.6842 2.87491 14.0883 2.54469 14.5898C2.21447 15.0913 2.02422 15.6719 1.99363 16.2715C1.96304 16.8712 2.09322 17.4681 2.3707 18.0006C2.64818 18.5331 3.06288 18.9817 3.57191 19.3002C3.7477 19.4215 3.88002 19.5959 3.9495 19.7979C4.01897 19.9999 4.02196 20.2188 3.95802 20.4226C3.89408 20.6264 3.76656 20.8043 3.59415 20.9304C3.42174 21.0565 3.2135 21.124 2.99991 21.1232ZM19.0999 24.0002C19.4583 23.9835 19.8141 23.9305 20.1619 23.8422C21.0629 23.6331 21.8872 23.1756 22.5413 22.5216C23.1953 21.8675 23.6528 21.0432 23.8619 20.1422C24.1644 18.876 23.9622 17.5418 23.2984 16.4219C22.6345 15.3021 21.5609 14.4845 20.3049 14.1422C20.3049 14.1422 19.6759 13.9972 19.5389 13.6712C19.0552 12.5041 18.2154 11.5195 17.1392 10.8577C16.063 10.1959 14.8054 9.89071 13.5456 9.98558C12.2858 10.0805 11.0881 10.5706 10.1232 11.3861C9.1583 12.2016 8.47543 13.3008 8.17191 14.5272C7.95583 15.4231 7.93638 16.3551 8.11491 17.2592C7.44889 17.5456 6.88824 18.0318 6.51043 18.6506C6.13262 19.2694 5.95629 19.9902 6.0058 20.7135C6.05531 21.4368 6.32821 22.1269 6.78681 22.6884C7.24541 23.2499 7.86707 23.6552 8.56591 23.8482C8.83737 23.9298 9.11712 23.9808 9.39991 24.0002H19.0999ZM17.6999 14.4442C17.8737 14.8759 18.1582 15.2542 18.5248 15.5409C18.8914 15.8276 19.327 16.0126 19.7879 16.0772C20.5437 16.2858 21.1887 16.7802 21.5865 17.4557C21.9844 18.1313 22.1039 18.9351 21.9199 19.6972C21.7907 20.23 21.5169 20.7167 21.1287 21.1038C20.7405 21.491 20.253 21.7634 19.7199 21.8912C19.5049 21.9406 19.2855 21.968 19.0649 21.9732C17.3999 22.0062 10.7939 22.0112 9.46491 21.9732C9.33692 21.9691 9.20979 21.9507 9.08591 21.9182C8.84119 21.8516 8.61784 21.7229 8.43754 21.5445C8.25724 21.3661 8.12612 21.1442 8.05691 20.9002C7.95381 20.5488 7.98344 20.1718 8.14016 19.8409C8.29688 19.5099 8.56976 19.2481 8.90691 19.1052C9.34283 18.9206 9.69992 18.5885 9.91565 18.1671C10.1314 17.7457 10.192 17.2618 10.0869 16.8002C9.96126 16.2082 9.97186 15.5955 10.1179 15.0082C10.3216 14.1914 10.7778 13.4597 11.4215 12.9173C12.0652 12.3748 12.8637 12.0493 13.7032 11.987C14.5427 11.9248 15.3804 12.1289 16.0971 12.5705C16.8138 13.012 17.3729 13.6684 17.6949 14.4462L17.6999 14.4442Z" fill="currentColor"/>
</g>
<defs>
<clipPath id="clip0_403_3075">
<rect width="24" height="24" fill="white"/>
</clipPath>
</defs>
</svg>
