<svg width="24" height="24" viewBox="0 0 24 24" fill="none" xmlns="http://www.w3.org/2000/svg">
<g clip-path="url(#clip0_406_2196)">
<path d="M23.0001 4C23.0001 4.53043 22.7893 5.03914 22.4143 5.41421C22.0392 5.78929 21.5305 6 21.0001 6H3.00006C2.46963 6 1.96092 5.78929 1.58585 5.41421C1.21077 5.03914 1.00006 4.53043 1.00006 4C1.00006 3.46957 1.21077 2.96086 1.58585 2.58579C1.96092 2.21071 2.46963 2 3.00006 2H4.18406C4.39014 1.41709 4.77129 0.912091 5.27536 0.554088C5.77943 0.196084 6.3818 0.00256297 7.00006 0L17.0001 0C17.6183 0.00256297 18.2207 0.196084 18.7248 0.554088C19.2288 0.912091 19.61 1.41709 19.8161 2H21.0001C21.5305 2 22.0392 2.21071 22.4143 2.58579C22.7893 2.96086 23.0001 3.46957 23.0001 4ZM10.0001 16C10.1051 19.954 13.8951 19.953 14.0001 16C13.9001 12.046 10.1051 12.047 10.0001 16ZM8.08106 15C8.97306 9.713 15.0291 9.716 15.9191 15H21.0071L21.7421 9.124C21.7596 8.98333 21.7471 8.84052 21.7053 8.70506C21.6635 8.5696 21.5933 8.44458 21.4995 8.33829C21.4057 8.232 21.2904 8.14687 21.1612 8.08855C21.032 8.03022 20.8918 8.00004 20.7501 8H3.25006C3.10829 8.00004 2.96816 8.03022 2.83894 8.08855C2.70973 8.14687 2.59439 8.232 2.50058 8.33829C2.40677 8.44458 2.33664 8.5696 2.29483 8.70506C2.25301 8.84052 2.24048 8.98333 2.25806 9.124L2.99206 15H8.08106ZM15.9191 17C15.0271 22.287 8.97206 22.284 8.08106 17H3.24206L3.57006 19.62C3.72282 20.8285 4.31083 21.94 5.224 22.7462C6.13718 23.5524 7.31291 23.9982 8.53106 24H15.4691C16.6872 23.9982 17.8629 23.5524 18.7761 22.7462C19.6893 21.94 20.2773 20.8285 20.4301 19.62L20.7571 17H15.9191Z" fill="currentColor"/>
</g>
<defs>
<clipPath id="clip0_406_2196">
<rect width="24" height="24" fill="white"/>
</clipPath>
</defs>
</svg>
