<svg width="24" height="24" viewBox="0 0 24 24" fill="none" xmlns="http://www.w3.org/2000/svg">
<g clip-path="url(#clip0_406_2216)">
<path d="M19.6752 2.75814C18.4081 1.7038 16.9365 0.923305 15.3529 0.465842C13.7694 0.00837976 12.1082 -0.116135 10.4742 0.100143C7.45121 0.492861 4.69104 2.02131 2.75407 4.37515C0.817109 6.72899 -0.151444 9.73176 0.0450764 12.7738C0.241597 15.8158 1.58846 18.669 3.81219 20.754C6.03592 22.839 8.96981 23.9996 12.0182 24.0001H19.0002C20.3257 23.9986 21.5966 23.4713 22.5339 22.5339C23.4713 21.5966 23.9986 20.3257 24.0002 19.0001V11.3091V11.2461C23.8943 9.61159 23.4562 8.0158 22.7125 6.55636C21.9689 5.09692 20.9354 3.8045 19.6752 2.75814ZM8.00015 7.00014H12.0002C12.2654 7.00014 12.5197 7.1055 12.7073 7.29304C12.8948 7.48057 13.0002 7.73493 13.0002 8.00014C13.0002 8.26536 12.8948 8.51971 12.7073 8.70725C12.5197 8.89479 12.2654 9.00014 12.0002 9.00014H8.00015C7.73494 9.00014 7.48058 8.89479 7.29305 8.70725C7.10551 8.51971 7.00015 8.26536 7.00015 8.00014C7.00015 7.73493 7.10551 7.48057 7.29305 7.29304C7.48058 7.1055 7.73494 7.00014 8.00015 7.00014ZM16.0002 17.0001H8.00015C7.73494 17.0001 7.48058 16.8948 7.29305 16.7073C7.10551 16.5197 7.00015 16.2654 7.00015 16.0001C7.00015 15.7349 7.10551 15.4806 7.29305 15.293C7.48058 15.1055 7.73494 15.0001 8.00015 15.0001H16.0002C16.2654 15.0001 16.5197 15.1055 16.7073 15.293C16.8948 15.4806 17.0002 15.7349 17.0002 16.0001C17.0002 16.2654 16.8948 16.5197 16.7073 16.7073C16.5197 16.8948 16.2654 17.0001 16.0002 17.0001ZM16.0002 13.0001H8.00015C7.73494 13.0001 7.48058 12.8948 7.29305 12.7073C7.10551 12.5197 7.00015 12.2654 7.00015 12.0001C7.00015 11.7349 7.10551 11.4806 7.29305 11.293C7.48058 11.1055 7.73494 11.0001 8.00015 11.0001H16.0002C16.2654 11.0001 16.5197 11.1055 16.7073 11.293C16.8948 11.4806 17.0002 11.7349 17.0002 12.0001C17.0002 12.2654 16.8948 12.5197 16.7073 12.7073C16.5197 12.8948 16.2654 13.0001 16.0002 13.0001Z" fill="currentColor"/>
</g>
<defs>
<clipPath id="clip0_406_2216">
<rect width="24" height="24" fill="white"/>
</clipPath>
</defs>
</svg>
