<svg width="24" height="24" viewBox="0 0 24 24" fill="none" xmlns="http://www.w3.org/2000/svg">
<g clip-path="url(#clip0_406_2118)">
<path d="M12.8358 0.0278035C11.1213 -0.0921554 9.40114 0.157549 7.79157 0.760021C6.18199 1.36249 4.72061 2.30367 3.5063 3.51988C2.29199 4.73608 1.35309 6.19893 0.753135 7.80945C0.153175 9.41996 -0.0938447 11.1406 0.0287894 12.8548C0.469789 19.2078 6.08179 23.9998 13.0828 23.9998H18.9998C20.3254 23.9982 21.5962 23.4709 22.5336 22.5336C23.4709 21.5962 23.9982 20.3254 23.9998 18.9998V12.3398C24.0371 9.25725 22.9069 6.2747 20.8361 3.99098C18.7653 1.70725 15.9073 0.291441 12.8358 0.0278035ZM11.9998 4.9998C12.3976 4.9998 12.7791 5.15784 13.0605 5.43914C13.3418 5.72045 13.4998 6.10198 13.4998 6.4998C13.4998 6.89763 13.3418 7.27916 13.0605 7.56046C12.7791 7.84177 12.3976 7.9998 11.9998 7.9998C11.602 7.9998 11.2204 7.84177 10.9391 7.56046C10.6578 7.27916 10.4998 6.89763 10.4998 6.4998C10.4998 6.10198 10.6578 5.72045 10.9391 5.43914C11.2204 5.15784 11.602 4.9998 11.9998 4.9998ZM13.9998 17.9998C13.9998 18.265 13.8944 18.5194 13.7069 18.7069C13.5194 18.8944 13.265 18.9998 12.9998 18.9998C12.7346 18.9998 12.4802 18.8944 12.2927 18.7069C12.1051 18.5194 11.9998 18.265 11.9998 17.9998V11.9998H10.9998C10.7346 11.9998 10.4802 11.8944 10.2927 11.7069C10.1051 11.5194 9.99979 11.265 9.99979 10.9998C9.99979 10.7346 10.1051 10.4802 10.2927 10.2927C10.4802 10.1052 10.7346 9.9998 10.9998 9.9998H11.9998C12.5302 9.9998 13.0389 10.2105 13.414 10.5856C13.7891 10.9607 13.9998 11.4694 13.9998 11.9998V17.9998Z" fill="currentColor"/>
</g>
<defs>
<clipPath id="clip0_406_2118">
<rect width="24" height="24" fill="white"/>
</clipPath>
</defs>
</svg>
