<svg width="24" height="24" viewBox="0 0 24 24" fill="none" xmlns="http://www.w3.org/2000/svg">
<g clip-path="url(#clip0_406_2124)">
<path d="M12.836 0.0278035C11.1216 -0.0921554 9.40136 0.157549 7.79178 0.760021C6.18221 1.36249 4.72082 2.30367 3.50652 3.51988C2.29221 4.73608 1.35331 6.19893 0.753348 7.80945C0.153389 9.41996 -0.0936311 11.1406 0.029003 12.8548C0.470003 19.2078 6.082 23.9998 13.083 23.9998H19C20.3256 23.9982 21.5964 23.4709 22.5338 22.5336C23.4711 21.5962 23.9984 20.3254 24 18.9998V12.3398C24.0373 9.25725 22.9071 6.2747 20.8363 3.99098C18.7655 1.70725 15.9075 0.291441 12.836 0.0278035ZM18.7 9.7118L11.907 16.4188C11.5322 16.7922 11.0246 17.0019 10.4955 17.0019C9.9664 17.0019 9.45885 16.7922 9.084 16.4188L5.3 12.7148C5.11037 12.5292 5.00226 12.2758 4.99945 12.0104C4.99663 11.745 5.09935 11.4894 5.285 11.2998C5.47065 11.1102 5.72403 11.0021 5.9894 10.9992C6.25476 10.9964 6.51037 11.0992 6.7 11.2848L10.493 14.9918L17.299 8.2918C17.4909 8.12293 17.7403 8.03397 17.9957 8.04321C18.2512 8.05245 18.4935 8.15919 18.6727 8.34149C18.8519 8.52379 18.9545 8.76781 18.9594 9.02341C18.9643 9.27901 18.8711 9.52677 18.699 9.7158L18.7 9.7118Z" fill="currentColor"/>
</g>
<defs>
<clipPath id="clip0_406_2124">
<rect width="24" height="24" fill="white"/>
</clipPath>
</defs>
</svg>
