<svg width="24" height="24" viewBox="0 0 24 24" fill="none" xmlns="http://www.w3.org/2000/svg">
<g clip-path="url(#clip0_403_2900)">
<path d="M4.99988 14C5.55216 14 5.99987 13.5523 5.99987 13C5.99987 12.4477 5.55216 12 4.99988 12C4.44759 12 3.99988 12.4477 3.99988 13C3.99988 13.5523 4.44759 14 4.99988 14Z" fill="currentColor"/>
<path d="M1 10.0001C1.55228 10.0001 2 9.5524 2 9.00012C2 8.44784 1.55228 8.00012 1 8.00012C0.447715 8.00012 0 8.44784 0 9.00012C0 9.5524 0.447715 10.0001 1 10.0001Z" fill="currentColor"/>
<path d="M4.99988 5.99987C5.55216 5.99987 5.99987 5.55216 5.99987 4.99988C5.99987 4.44759 5.55216 3.99988 4.99988 3.99988C4.44759 3.99988 3.99988 4.44759 3.99988 4.99988C3.99988 5.55216 4.44759 5.99987 4.99988 5.99987Z" fill="currentColor"/>
<path d="M1 2C1.55228 2 2 1.55228 2 1C2 0.447715 1.55228 0 1 0C0.447715 0 0 0.447715 0 1C0 1.55228 0.447715 2 1 2Z" fill="currentColor"/>
<path d="M22.9999 14C23.5521 14 23.9999 13.5523 23.9999 13C23.9999 12.4477 23.5521 12 22.9999 12C22.4476 12 21.9999 12.4477 21.9999 13C21.9999 13.5523 22.4476 14 22.9999 14Z" fill="currentColor"/>
<path d="M19 10.0001C19.5523 10.0001 20 9.5524 20 9.00012C20 8.44784 19.5523 8.00012 19 8.00012C18.4477 8.00012 18 8.44784 18 9.00012C18 9.5524 18.4477 10.0001 19 10.0001Z" fill="currentColor"/>
<path d="M22.9999 5.99987C23.5521 5.99987 23.9999 5.55216 23.9999 4.99988C23.9999 4.44759 23.5521 3.99988 22.9999 3.99988C22.4476 3.99988 21.9999 4.44759 21.9999 4.99988C21.9999 5.55216 22.4476 5.99987 22.9999 5.99987Z" fill="currentColor"/>
<path d="M19 2C19.5523 2 20 1.55228 20 1C20 0.447715 19.5523 0 19 0C18.4477 0 18 0.447715 18 1C18 1.55228 18.4477 2 19 2Z" fill="currentColor"/>
<path d="M13.9999 23.9999C14.5522 23.9999 14.9999 23.5521 14.9999 22.9999C14.9999 22.4476 14.5522 21.9999 13.9999 21.9999C13.4476 21.9999 12.9999 22.4476 12.9999 22.9999C12.9999 23.5521 13.4476 23.9999 13.9999 23.9999Z" fill="currentColor"/>
<path d="M10 20C10.5523 20 11 19.5523 11 19C11 18.4477 10.5523 18 10 18C9.44771 18 9 18.4477 9 19C9 19.5523 9.44771 20 10 20Z" fill="currentColor"/>
<path d="M13.9999 16.0001C14.5522 16.0001 14.9999 15.5524 14.9999 15.0001C14.9999 14.4478 14.5522 14.0001 13.9999 14.0001C13.4476 14.0001 12.9999 14.4478 12.9999 15.0001C12.9999 15.5524 13.4476 16.0001 13.9999 16.0001Z" fill="currentColor"/>
<path d="M10 11.9999C10.5523 11.9999 11 11.5522 11 10.9999C11 10.4476 10.5523 9.99988 10 9.99988C9.44771 9.99988 9 10.4476 9 10.9999C9 11.5522 9.44771 11.9999 10 11.9999Z" fill="currentColor"/>
<path d="M15.0001 3C14.4697 3 13.961 2.78929 13.5859 2.41421C13.2108 2.03914 13.0001 1.53043 13.0001 1C13.0001 0.734784 12.8948 0.48043 12.7072 0.292893C12.5197 0.105357 12.2653 0 12.0001 0C11.7349 0 11.4805 0.105357 11.293 0.292893C11.1055 0.48043 11.0001 0.734784 11.0001 1C11.0001 1.53043 10.7894 2.03914 10.4143 2.41421C10.0393 2.78929 9.53055 3 9.00012 3C8.7349 3 8.48055 3.10536 8.29301 3.29289C8.10548 3.48043 8.00012 3.73478 8.00012 4C8.00012 4.26522 8.10548 4.51957 8.29301 4.70711C8.48055 4.89464 8.7349 5 9.00012 5C9.53055 5 10.0393 5.21071 10.4143 5.58579C10.7894 5.96086 11.0001 6.46957 11.0001 7C11.0001 7.26522 11.1055 7.51957 11.293 7.70711C11.4805 7.89464 11.7349 8 12.0001 8C12.2653 8 12.5197 7.89464 12.7072 7.70711C12.8948 7.51957 13.0001 7.26522 13.0001 7C13.0001 6.46957 13.2108 5.96086 13.5859 5.58579C13.961 5.21071 14.4697 5 15.0001 5C15.2653 5 15.5197 4.89464 15.7072 4.70711C15.8948 4.51957 16.0001 4.26522 16.0001 4C16.0001 3.73478 15.8948 3.48043 15.7072 3.29289C15.5197 3.10536 15.2653 3 15.0001 3Z" fill="currentColor"/>
<path d="M7 18.9999C6.46957 18.9999 5.96086 18.7892 5.58579 18.4141C5.21071 18.039 5 17.5303 5 16.9999C5 16.7347 4.89464 16.4803 4.70711 16.2928C4.51957 16.1052 4.26522 15.9999 4 15.9999C3.73478 15.9999 3.48043 16.1052 3.29289 16.2928C3.10536 16.4803 3 16.7347 3 16.9999C3 17.5303 2.78929 18.039 2.41421 18.4141C2.03914 18.7892 1.53043 18.9999 1 18.9999C0.734784 18.9999 0.48043 19.1052 0.292893 19.2928C0.105357 19.4803 0 19.7347 0 19.9999C0 20.2651 0.105357 20.5194 0.292893 20.707C0.48043 20.8945 0.734784 20.9999 1 20.9999C1.53043 20.9999 2.03914 21.2106 2.41421 21.5857C2.78929 21.9607 3 22.4694 3 22.9999C3 23.2651 3.10536 23.5194 3.29289 23.707C3.48043 23.8945 3.73478 23.9999 4 23.9999C4.26522 23.9999 4.51957 23.8945 4.70711 23.707C4.89464 23.5194 5 23.2651 5 22.9999C5 22.4694 5.21071 21.9607 5.58579 21.5857C5.96086 21.2106 6.46957 20.9999 7 20.9999C7.26522 20.9999 7.51957 20.8945 7.70711 20.707C7.89464 20.5194 8 20.2651 8 19.9999C8 19.7347 7.89464 19.4803 7.70711 19.2928C7.51957 19.1052 7.26522 18.9999 7 18.9999Z" fill="currentColor"/>
<path d="M22.9999 18.9999C22.4694 18.9999 21.9607 18.7892 21.5857 18.4141C21.2106 18.039 20.9999 17.5303 20.9999 16.9999C20.9999 16.7347 20.8945 16.4803 20.707 16.2928C20.5194 16.1052 20.2651 15.9999 19.9999 15.9999C19.7347 15.9999 19.4803 16.1052 19.2928 16.2928C19.1052 16.4803 18.9999 16.7347 18.9999 16.9999C18.9999 17.5303 18.7892 18.039 18.4141 18.4141C18.039 18.7892 17.5303 18.9999 16.9999 18.9999C16.7347 18.9999 16.4803 19.1052 16.2928 19.2928C16.1052 19.4803 15.9999 19.7347 15.9999 19.9999C15.9999 20.2651 16.1052 20.5194 16.2928 20.707C16.4803 20.8945 16.7347 20.9999 16.9999 20.9999C17.5303 20.9999 18.039 21.2106 18.4141 21.5857C18.7892 21.9607 18.9999 22.4694 18.9999 22.9999C18.9999 23.2651 19.1052 23.5194 19.2928 23.707C19.4803 23.8945 19.7347 23.9999 19.9999 23.9999C20.2651 23.9999 20.5194 23.8945 20.707 23.707C20.8945 23.5194 20.9999 23.2651 20.9999 22.9999C20.9999 22.4694 21.2106 21.9607 21.5857 21.5857C21.9607 21.2106 22.4694 20.9999 22.9999 20.9999C23.2651 20.9999 23.5194 20.8945 23.707 20.707C23.8945 20.5194 23.9999 20.2651 23.9999 19.9999C23.9999 19.7347 23.8945 19.4803 23.707 19.2928C23.5194 19.1052 23.2651 18.9999 22.9999 18.9999Z" fill="currentColor"/>
</g>
<defs>
<clipPath id="clip0_403_2900">
<rect width="24" height="24" fill="white"/>
</clipPath>
</defs>
</svg>
