<svg width="24" height="24" viewBox="0 0 24 24" fill="none" xmlns="http://www.w3.org/2000/svg">
<g clip-path="url(#clip0_406_2043)">
<path d="M19 24.0002H5C3.67441 23.9986 2.40356 23.4713 1.46622 22.534C0.528882 21.5966 0.00158786 20.3258 0 19.0002L0 17.0002C0 16.2045 0.31607 15.4415 0.87868 14.8789C1.44129 14.3162 2.20435 14.0002 3 14.0002H21C21.7956 14.0002 22.5587 14.3162 23.1213 14.8789C23.6839 15.4415 24 16.2045 24 17.0002V19.0002C23.9984 20.3258 23.4711 21.5966 22.5338 22.534C21.5964 23.4713 20.3256 23.9986 19 24.0002ZM22 12.0002V10.0002C22 9.46975 21.7893 8.96104 21.4142 8.58597C21.0391 8.21089 20.5304 8.00018 20 8.00018H4C3.46957 8.00018 2.96086 8.21089 2.58579 8.58597C2.21071 8.96104 2 9.46975 2 10.0002V12.0002H22ZM18.961 6.00018C18.8623 4.03482 18.3069 2.1195 17.339 0.406179C17.2378 0.268762 17.1029 0.159713 16.9474 0.0895314C16.7918 0.0193499 16.6208 -0.0095996 16.4508 0.0054704C16.2808 0.0205404 16.1176 0.0791223 15.9768 0.175575C15.836 0.272028 15.7224 0.403103 15.647 0.556179C15.35 1.28803 14.8398 1.91367 14.1826 2.35182C13.5255 2.78998 12.7518 3.02041 11.962 3.01318H10C9.01339 2.93827 8.02956 3.19018 7.20036 3.73003C6.37117 4.26987 5.74271 5.06764 5.412 6.00018H18.961Z" fill="currentColor"/>
</g>
<defs>
<clipPath id="clip0_406_2043">
<rect width="24" height="24" fill="white"/>
</clipPath>
</defs>
</svg>
