<svg width="24" height="24" viewBox="0 0 24 24" fill="none" xmlns="http://www.w3.org/2000/svg">
<g clip-path="url(#clip0_403_3051)">
<path d="M22 12.184V11C21.9974 10.3817 21.8039 9.77935 21.4459 9.27528C21.0879 8.77121 20.5829 8.39006 20 8.18398C20.0524 5.60462 19.4136 3.05823 18.15 0.80898C17.9576 0.537261 17.6987 0.3194 17.3981 0.176196C17.0975 0.0329918 16.7652 -0.0307761 16.433 -0.00902022C16.0871 0.0134769 15.7527 0.12394 15.4615 0.311896C15.1703 0.499852 14.9319 0.759072 14.769 1.06498C14 2.47598 13.24 2.99998 11.962 2.99998H10C8.53439 2.92619 7.09716 3.4229 5.98986 4.38589C4.88256 5.34888 4.19126 6.70331 4.061 8.16498C3.46364 8.36184 2.94326 8.74146 2.57342 9.25019C2.20359 9.75893 2.00299 10.371 2 11V12.184C1.41709 12.3901 0.912091 12.7712 0.554088 13.2753C0.196084 13.7794 0.00256297 14.3817 0 15L0 19C0.00158786 20.3256 0.528882 21.5964 1.46622 22.5338C2.40356 23.4711 3.67441 23.9984 5 24H19C20.3256 23.9984 21.5964 23.4711 22.5338 22.5338C23.4711 21.5964 23.9984 20.3256 24 19V15C23.9974 14.3817 23.8039 13.7794 23.4459 13.2753C23.0879 12.7712 22.5829 12.3901 22 12.184ZM10 4.99998H11.962C12.9359 5.00108 13.8885 4.71497 14.7007 4.17746C15.5128 3.63994 16.1484 2.87488 16.528 1.97798C17.5203 3.82845 18.0267 5.90044 18 7.99998H6.131C6.29118 7.11021 6.77518 6.31128 7.48963 5.7573C8.20408 5.20332 9.09838 4.93353 10 4.99998ZM4 11C4 10.7348 4.10536 10.4804 4.29289 10.2929C4.48043 10.1053 4.73478 9.99998 5 9.99998H19C19.2652 9.99998 19.5196 10.1053 19.7071 10.2929C19.8946 10.4804 20 10.7348 20 11V12H4V11ZM22 19C22 19.7956 21.6839 20.5587 21.1213 21.1213C20.5587 21.6839 19.7956 22 19 22H5C4.20435 22 3.44129 21.6839 2.87868 21.1213C2.31607 20.5587 2 19.7956 2 19V15C2 14.7348 2.10536 14.4804 2.29289 14.2929C2.48043 14.1053 2.73478 14 3 14H21C21.2652 14 21.5196 14.1053 21.7071 14.2929C21.8946 14.4804 22 14.7348 22 15V19Z" fill="currentColor"/>
</g>
<defs>
<clipPath id="clip0_403_3051">
<rect width="24" height="24" fill="white"/>
</clipPath>
</defs>
</svg>
