<svg width="24" height="24" viewBox="0 0 24 24" fill="none" xmlns="http://www.w3.org/2000/svg">
<g clip-path="url(#clip0_406_2240)">
<path d="M14.7618 11.5869C14.2152 11.8981 13.6192 12.1132 12.9998 12.2229V23.8739C13.5269 23.7713 14.0336 23.5832 14.4998 23.3169L20.5268 19.8379C21.286 19.3978 21.9164 18.7662 22.355 18.0062C22.7937 17.2462 23.0254 16.3844 23.0268 15.5069V8.54693C23.0236 8.01274 22.9342 7.48257 22.7618 6.97693L14.7618 11.5869Z" fill="currentColor"/>
<path d="M10.242 9.8569C10.7775 10.165 11.3846 10.3271 12.0024 10.3271C12.6203 10.3271 13.2274 10.165 13.7629 9.8569L21.763 5.2469C21.4086 4.83978 20.9905 4.49293 20.525 4.2199L14.5 0.736897C13.7394 0.299519 12.8773 0.0693359 12 0.0693359C11.1226 0.0693359 10.2605 0.299519 9.49995 0.736897L3.47295 4.2169C3.024 4.47979 2.61908 4.81149 2.27295 5.1999L10.242 9.8569Z" fill="currentColor"/>
<path d="M11 12.2232C10.3802 12.1138 9.78389 11.8986 9.23699 11.5872L1.25699 6.92322C1.07232 7.4449 0.976324 7.99382 0.972992 8.54722V15.5072C0.974454 16.3847 1.20609 17.2465 1.64478 18.0065C2.08347 18.7665 2.71386 19.3981 3.47299 19.8382L9.49999 23.3172C9.96626 23.5835 10.473 23.7716 11 23.8742V12.2232Z" fill="currentColor"/>
</g>
<defs>
<clipPath id="clip0_406_2240">
<rect width="24" height="24" fill="white"/>
</clipPath>
</defs>
</svg>
