<svg width="24" height="24" viewBox="0 0 24 24" fill="none" xmlns="http://www.w3.org/2000/svg">
<g clip-path="url(#clip0_406_1963)">
<path d="M13.9998 2C13.9998 2.53043 13.7891 3.03914 13.414 3.41421C13.0389 3.78929 12.5302 4 11.9998 4C11.4693 4 10.9606 3.78929 10.5856 3.41421C10.2105 3.03914 9.99978 2.53043 9.99978 2C9.99978 1.46957 10.2105 0.960859 10.5856 0.585786C10.9606 0.210714 11.4693 0 11.9998 0C12.5302 0 13.0389 0.210714 13.414 0.585786C13.7891 0.960859 13.9998 1.46957 13.9998 2ZM19.8478 18.636C19.2344 18.8814 18.5783 19.0024 17.9177 18.9919C17.2571 18.9814 16.6051 18.8397 15.9998 18.575C15.369 18.8503 14.6881 18.9924 13.9998 18.9924C13.3115 18.9924 12.6306 18.8503 11.9998 18.575C11.369 18.8503 10.6881 18.9924 9.99978 18.9924C9.31149 18.9924 8.63061 18.8503 7.99978 18.575C7.39389 18.8396 6.74148 18.9813 6.0804 18.9918C5.41932 19.0022 4.76275 18.8813 4.14878 18.636C3.62705 18.8404 3.07622 18.9609 2.51678 18.993L2.67378 19.875C2.87809 21.0324 3.4841 22.0805 4.38515 22.8351C5.2862 23.5896 6.42453 24.0021 7.59978 24H16.3998C17.5745 24.0016 18.712 23.5888 19.6123 22.8343C20.5126 22.0797 21.118 21.0319 21.3218 19.875L21.4788 18.993C20.9196 18.9614 20.369 18.8408 19.8478 18.636ZM23.5238 11.412C22.797 9.66171 21.6624 8.11053 20.2144 6.88781C18.7664 5.6651 17.0471 4.80629 15.1998 4.383C14.8256 4.87631 14.3423 5.27633 13.7878 5.55172C13.2332 5.82712 12.6225 5.97043 12.0033 5.97043C11.3841 5.97043 10.7733 5.82712 10.2188 5.55172C9.66425 5.27633 9.18096 4.87631 8.80678 4.383C6.95839 4.80576 5.23789 5.66441 3.78884 6.88733C2.33978 8.11024 1.20418 9.66195 0.476782 11.413C0.145731 12.3949 -0.0155778 13.4259 -0.000217941 14.462C-0.0180908 14.7871 0.0302179 15.1125 0.141782 15.4184C0.253346 15.7243 0.425845 16.0044 0.648829 16.2417C0.871813 16.479 1.14064 16.6685 1.43903 16.7989C1.73743 16.9292 2.05917 16.9976 2.38478 17C2.83878 17 3.94778 16.692 4.06978 16.277C4.62043 16.7455 5.32256 16.9981 6.0455 16.9876C6.76844 16.9771 7.46295 16.7043 7.99978 16.22C8.5488 16.714 9.26122 16.9874 9.99978 16.9874C10.7383 16.9874 11.4508 16.714 11.9998 16.22C12.5487 16.7142 13.2612 16.9877 13.9998 16.9877C14.7384 16.9877 15.4509 16.7142 15.9998 16.22C16.5366 16.7043 17.2311 16.9771 17.9541 16.9876C18.677 16.9981 19.3791 16.7455 19.9298 16.277C20.0518 16.692 21.1618 17 21.6148 17C21.9403 16.9974 22.2619 16.9288 22.5602 16.7983C22.8584 16.6679 23.1272 16.4783 23.3501 16.2411C23.573 16.0038 23.7455 15.7239 23.8572 15.4181C23.9689 15.1123 24.0174 14.7871 23.9998 14.462C24.0156 13.4257 23.8546 12.3942 23.5238 11.412Z" fill="currentColor"/>
</g>
<defs>
<clipPath id="clip0_406_1963">
<rect width="24" height="24" fill="white"/>
</clipPath>
</defs>
</svg>
