<svg width="24" height="24" viewBox="0 0 24 24" fill="none" xmlns="http://www.w3.org/2000/svg">
<g clip-path="url(#clip0_403_3267)">
<path d="M20.0002 0.000135962H18.2432C17.7175 -0.0012536 17.1969 0.101615 16.7113 0.302788C16.2257 0.503961 15.7848 0.799444 15.4142 1.17214L12.1722 4.41414C11.424 5.16547 11.0028 6.18184 11.0002 7.24214V10.7051C7.73415 13.1201 3.41915 16.3381 2.87915 16.8791C2.44405 17.3171 2.15504 17.879 2.05175 18.4877C1.94845 19.0964 2.03591 19.7221 2.30215 20.2791L0.293153 22.2931C0.105682 22.4807 0.000366211 22.735 0.000366211 23.0001C0.000366211 23.2653 0.105682 23.5196 0.293153 23.7071C0.48068 23.8946 0.734988 23.9999 1.00015 23.9999C1.26532 23.9999 1.51963 23.8946 1.70715 23.7071L3.71415 21.7001C4.2713 21.9719 4.8996 22.0622 5.51073 21.9583C6.12185 21.8545 6.68506 21.5617 7.12115 21.1211C7.66215 20.5801 10.8802 16.2661 13.3002 13.0001H16.7622C17.2878 13.0015 17.8084 12.8987 18.294 12.6975C18.7796 12.4963 19.2205 12.2008 19.5912 11.8281L22.8332 8.58614C23.5795 7.83399 23.9989 6.81772 24.0002 5.75814V4.00014C24.0002 2.93927 23.5787 1.92185 22.8286 1.17171C22.0784 0.421563 21.061 0.000135962 20.0002 0.000135962ZM5.70715 19.7071C5.51702 19.8896 5.26369 19.9915 5.00015 19.9915C4.73661 19.9915 4.48328 19.8896 4.29315 19.7071C4.10568 19.5196 4.00037 19.2653 4.00037 19.0001C4.00037 18.735 4.10568 18.4807 4.29315 18.2931C4.63215 17.9571 7.29315 15.9501 10.2412 13.7591C8.04915 16.7061 6.04215 19.3691 5.70715 19.7071ZM22.0002 5.75814C21.9988 6.28829 21.7882 6.79647 21.4142 7.17214L18.1722 10.4141C17.9867 10.6004 17.7662 10.7481 17.5233 10.8487C17.2804 10.9493 17.02 11.0008 16.7572 11.0001H14.7712L15.7622 9.65214L19.7072 5.70714C19.8027 5.61489 19.8788 5.50454 19.9313 5.38254C19.9837 5.26054 20.0112 5.12932 20.0124 4.99654C20.0136 4.86376 19.9883 4.73208 19.938 4.60918C19.8877 4.48629 19.8134 4.37463 19.7195 4.28074C19.6257 4.18685 19.514 4.1126 19.3911 4.06231C19.2682 4.01203 19.1365 3.98673 19.0038 3.98789C18.871 3.98904 18.7398 4.01663 18.6177 4.06903C18.4957 4.12144 18.3854 4.19763 18.2932 4.29314L14.3492 8.23714L13.0002 9.22914V7.24214C13.0015 6.71199 13.2121 6.2038 13.5862 5.82814L16.8282 2.58614C17.0136 2.39984 17.2341 2.25214 17.477 2.15156C17.7199 2.05098 17.9803 1.99951 18.2432 2.00014H20.0002C20.5306 2.00014 21.0393 2.21085 21.4144 2.58592C21.7894 2.96099 22.0002 3.4697 22.0002 4.00014V5.75814Z" fill="currentColor"/>
</g>
<defs>
<clipPath id="clip0_403_3267">
<rect width="24" height="24" fill="white"/>
</clipPath>
</defs>
</svg>
