<svg width="24" height="24" viewBox="0 0 24 24" fill="none" xmlns="http://www.w3.org/2000/svg">
<g clip-path="url(#clip0_403_3097)">
<path d="M18.9998 2.00015H9.95584C9.19406 1.99779 8.44195 2.17073 7.7577 2.50557C7.07345 2.84041 6.47541 3.32818 6.00984 3.93115L0.209839 11.3861C0.0732849 11.5617 -0.000854492 11.7777 -0.000854492 12.0001C-0.000854492 12.2225 0.0732849 12.4386 0.209839 12.6141L6.00984 20.0691C6.47541 20.6721 7.07345 21.1599 7.7577 21.4947C8.44195 21.8296 9.19406 22.0025 9.95584 22.0001H18.9998C20.3254 21.9986 21.5963 21.4713 22.5336 20.5339C23.471 19.5966 23.9983 18.3257 23.9998 17.0001V7.00015C23.9983 5.67455 23.471 4.4037 22.5336 3.46637C21.5963 2.52903 20.3254 2.00173 18.9998 2.00015ZM21.9998 17.0001C21.9998 17.7958 21.6838 18.5589 21.1212 19.1215C20.5586 19.6841 19.7955 20.0001 18.9998 20.0001H9.95584C9.49875 20.0017 9.04742 19.8981 8.63679 19.6973C8.22616 19.4965 7.86725 19.2039 7.58784 18.8421L2.26684 12.0001L7.58784 5.15815C7.86725 4.79639 8.22616 4.50378 8.63679 4.30298C9.04742 4.10217 9.49875 3.99856 9.95584 4.00015H18.9998C19.7955 4.00015 20.5586 4.31622 21.1212 4.87883C21.6838 5.44143 21.9998 6.2045 21.9998 7.00015V17.0001ZM17.2068 10.2071L15.4138 12.0001L17.2068 13.7931C17.3024 13.8854 17.3785 13.9957 17.4309 14.1177C17.4833 14.2397 17.5109 14.371 17.5121 14.5037C17.5132 14.6365 17.4879 14.7682 17.4377 14.8911C17.3874 15.014 17.3131 15.1256 17.2192 15.2195C17.1253 15.3134 17.0137 15.3877 16.8908 15.438C16.7679 15.4882 16.6362 15.5136 16.5034 15.5124C16.3707 15.5112 16.2394 15.4837 16.1174 15.4312C15.9954 15.3788 15.8851 15.3027 15.7928 15.2071L13.9998 13.4141L12.2068 15.2071C12.0182 15.3893 11.7656 15.4901 11.5034 15.4878C11.2412 15.4855 10.9904 15.3804 10.805 15.195C10.6196 15.0096 10.5144 14.7587 10.5122 14.4965C10.5099 14.2344 10.6107 13.9817 10.7928 13.7931L12.5858 12.0001L10.7928 10.2071C10.6107 10.0185 10.5099 9.76594 10.5122 9.50375C10.5144 9.24155 10.6196 8.99074 10.805 8.80533C10.9904 8.61992 11.2412 8.51475 11.5034 8.51247C11.7656 8.51019 12.0182 8.61099 12.2068 8.79315L13.9998 10.5861L15.7928 8.79315C15.9814 8.61099 16.234 8.51019 16.4962 8.51247C16.7584 8.51475 17.0093 8.61992 17.1947 8.80533C17.3801 8.99074 17.4852 9.24155 17.4875 9.50375C17.4898 9.76594 17.389 10.0185 17.2068 10.2071Z" fill="currentColor"/>
</g>
<defs>
<clipPath id="clip0_403_3097">
<rect width="24" height="24" fill="white"/>
</clipPath>
</defs>
</svg>
