<svg width="24" height="24" viewBox="0 0 24 24" fill="none" xmlns="http://www.w3.org/2000/svg">
<g clip-path="url(#clip0_406_2081)">
<path d="M18.9998 2.00015H9.95584C9.19406 1.99779 8.44195 2.17073 7.7577 2.50557C7.07345 2.84041 6.47541 3.32818 6.00984 3.93115L0.209839 11.3861C0.0732849 11.5617 -0.000854492 11.7777 -0.000854492 12.0001C-0.000854492 12.2225 0.0732849 12.4386 0.209839 12.6141L6.00984 20.0691C6.47541 20.6721 7.07345 21.1599 7.7577 21.4947C8.44195 21.8296 9.19406 22.0025 9.95584 22.0001H18.9998C20.3254 21.9986 21.5963 21.4713 22.5336 20.5339C23.471 19.5966 23.9983 18.3257 23.9998 17.0001V7.00015C23.9983 5.67455 23.471 4.4037 22.5336 3.46637C21.5963 2.52903 20.3254 2.00173 18.9998 2.00015ZM17.7068 14.2931C17.8024 14.3854 17.8785 14.4957 17.9309 14.6177C17.9833 14.7397 18.0109 14.871 18.0121 15.0037C18.0132 15.1365 17.9879 15.2682 17.9377 15.3911C17.8874 15.514 17.8131 15.6256 17.7192 15.7195C17.6253 15.8134 17.5137 15.8877 17.3908 15.938C17.2679 15.9882 17.1362 16.0136 17.0034 16.0124C16.8707 16.0112 16.7394 15.9837 16.6174 15.9312C16.4954 15.8788 16.3851 15.8027 16.2928 15.7071L13.9998 13.4141L11.7068 15.7071C11.5182 15.8893 11.2656 15.9901 11.0034 15.9878C10.7412 15.9855 10.4904 15.8804 10.305 15.695C10.1196 15.5096 10.0144 15.2587 10.0122 14.9965C10.0099 14.7344 10.1107 14.4817 10.2928 14.2931L12.5858 12.0001L10.2928 9.70715C10.1107 9.51854 10.0099 9.26594 10.0122 9.00375C10.0144 8.74155 10.1196 8.49074 10.305 8.30533C10.4904 8.11992 10.7412 8.01475 11.0034 8.01247C11.2656 8.01019 11.5182 8.11099 11.7068 8.29315L13.9998 10.5861L16.2928 8.29315C16.4814 8.11099 16.734 8.01019 16.9962 8.01247C17.2584 8.01475 17.5093 8.11992 17.6947 8.30533C17.8801 8.49074 17.9852 8.74155 17.9875 9.00375C17.9898 9.26594 17.889 9.51854 17.7068 9.70715L15.4138 12.0001L17.7068 14.2931Z" fill="currentColor"/>
</g>
<defs>
<clipPath id="clip0_406_2081">
<rect width="24" height="24" fill="white"/>
</clipPath>
</defs>
</svg>
