<svg width="24" height="24" viewBox="0 0 24 24" fill="none" xmlns="http://www.w3.org/2000/svg">
<g clip-path="url(#clip0_406_2018)">
<path d="M24 9C23.8705 9.7261 23.5819 10.4146 23.155 11.016L14.372 22.836C14.0935 23.1958 13.7369 23.4875 13.3291 23.6891C12.9213 23.8907 12.473 23.9969 12.0181 23.9997C11.5631 24.0025 11.1135 23.9018 10.7033 23.7052C10.293 23.5086 9.93285 23.2213 9.65 22.865L0.824 10.8C0.44908 10.2567 0.184413 9.64519 0.045 9H6.313L11.066 21.359C11.1383 21.5481 11.2663 21.7108 11.4331 21.8255C11.5999 21.9403 11.7976 22.0017 12 22.0017C12.2024 22.0017 12.4001 21.9403 12.5669 21.8255C12.7337 21.7108 12.8617 21.5481 12.934 21.359L17.687 9H24ZM17.7 7H23.957C23.8049 6.32341 23.513 5.68611 23.1 5.129L20.542 1.675C20.1716 1.15726 19.6831 0.735251 19.117 0.443959C18.551 0.152667 17.9236 0.000476636 17.287 1.93358e-06H15.087L17.7 7ZM11.108 1.93358e-06L8.449 7H15.561L12.955 1.93358e-06H11.108ZM6.31 7L8.968 1.93358e-06H6.646C6.01478 -0.000619432 5.39242 0.148527 4.83005 0.435189C4.26768 0.72185 3.78135 1.13785 3.411 1.649L0.938 4.891C0.464805 5.51103 0.143545 6.23336 0 7H6.31ZM15.544 9H8.456L12 18.214L15.544 9Z" fill="currentColor"/>
</g>
<defs>
<clipPath id="clip0_406_2018">
<rect width="24" height="24" fill="white"/>
</clipPath>
</defs>
</svg>
