<svg width="24" height="24" viewBox="0 0 24 24" fill="none" xmlns="http://www.w3.org/2000/svg">
<g clip-path="url(#clip0_403_3115)">
<path d="M19 24H5C3.67441 23.9984 2.40356 23.4711 1.46622 22.5338C0.528882 21.5964 0.00158786 20.3256 0 19L0 5C0.00158786 3.67441 0.528882 2.40356 1.46622 1.46622C2.40356 0.528882 3.67441 0.00158786 5 0L19 0C20.3256 0.00158786 21.5964 0.528882 22.5338 1.46622C23.4711 2.40356 23.9984 3.67441 24 5V19C23.9984 20.3256 23.4711 21.5964 22.5338 22.5338C21.5964 23.4711 20.3256 23.9984 19 24ZM5 2C4.20435 2 3.44129 2.31607 2.87868 2.87868C2.31607 3.44129 2 4.20435 2 5V19C2 19.7956 2.31607 20.5587 2.87868 21.1213C3.44129 21.6839 4.20435 22 5 22H19C19.7956 22 20.5587 21.6839 21.1213 21.1213C21.6839 20.5587 22 19.7956 22 19V5C22 4.20435 21.6839 3.44129 21.1213 2.87868C20.5587 2.31607 19.7956 2 19 2H5ZM11 12C11 12.1978 11.0586 12.3911 11.1685 12.5556C11.2784 12.72 11.4346 12.8482 11.6173 12.9239C11.8 12.9996 12.0011 13.0194 12.1951 12.9808C12.3891 12.9422 12.5673 12.847 12.7071 12.7071C12.847 12.5673 12.9422 12.3891 12.9808 12.1951C13.0194 12.0011 12.9996 11.8 12.9239 11.6173C12.8482 11.4346 12.72 11.2784 12.5556 11.1685C12.3911 11.0586 12.1978 11 12 11C11.7348 11 11.4804 11.1054 11.2929 11.2929C11.1054 11.4804 11 11.7348 11 12ZM6 7C6 7.19778 6.05865 7.39112 6.16853 7.55557C6.27841 7.72002 6.43459 7.84819 6.61732 7.92388C6.80004 7.99957 7.00111 8.01937 7.19509 7.98079C7.38907 7.9422 7.56725 7.84696 7.70711 7.70711C7.84696 7.56725 7.9422 7.38907 7.98079 7.19509C8.01937 7.00111 7.99957 6.80004 7.92388 6.61732C7.84819 6.43459 7.72002 6.27841 7.55557 6.16853C7.39112 6.05865 7.19778 6 7 6C6.73478 6 6.48043 6.10536 6.29289 6.29289C6.10536 6.48043 6 6.73478 6 7ZM16 7C16 7.19778 16.0586 7.39112 16.1685 7.55557C16.2784 7.72002 16.4346 7.84819 16.6173 7.92388C16.8 7.99957 17.0011 8.01937 17.1951 7.98079C17.3891 7.9422 17.5673 7.84696 17.7071 7.70711C17.847 7.56725 17.9422 7.38907 17.9808 7.19509C18.0194 7.00111 17.9996 6.80004 17.9239 6.61732C17.8482 6.43459 17.72 6.27841 17.5556 6.16853C17.3911 6.05865 17.1978 6 17 6C16.7348 6 16.4804 6.10536 16.2929 6.29289C16.1054 6.48043 16 6.73478 16 7ZM6 17C6 17.1978 6.05865 17.3911 6.16853 17.5556C6.27841 17.72 6.43459 17.8482 6.61732 17.9239C6.80004 17.9996 7.00111 18.0194 7.19509 17.9808C7.38907 17.9422 7.56725 17.847 7.70711 17.7071C7.84696 17.5673 7.9422 17.3891 7.98079 17.1951C8.01937 17.0011 7.99957 16.8 7.92388 16.6173C7.84819 16.4346 7.72002 16.2784 7.55557 16.1685C7.39112 16.0586 7.19778 16 7 16C6.73478 16 6.48043 16.1054 6.29289 16.2929C6.10536 16.4804 6 16.7348 6 17ZM16 17C16 17.1978 16.0586 17.3911 16.1685 17.5556C16.2784 17.72 16.4346 17.8482 16.6173 17.9239C16.8 17.9996 17.0011 18.0194 17.1951 17.9808C17.3891 17.9422 17.5673 17.847 17.7071 17.7071C17.847 17.5673 17.9422 17.3891 17.9808 17.1951C18.0194 17.0011 17.9996 16.8 17.9239 16.6173C17.8482 16.4346 17.72 16.2784 17.5556 16.1685C17.3911 16.0586 17.1978 16 17 16C16.7348 16 16.4804 16.1054 16.2929 16.2929C16.1054 16.4804 16 16.7348 16 17Z" fill="currentColor"/>
</g>
<defs>
<clipPath id="clip0_403_3115">
<rect width="24" height="24" fill="white"/>
</clipPath>
</defs>
</svg>
