<svg width="24" height="24" viewBox="0 0 24 24" fill="none" xmlns="http://www.w3.org/2000/svg">
<g clip-path="url(#clip0_403_3222)">
<path d="M12.9999 4.051V2H14.9999C15.2652 2 15.5195 1.89464 15.7071 1.70711C15.8946 1.51957 15.9999 1.26522 15.9999 1C15.9999 0.734784 15.8946 0.48043 15.7071 0.292893C15.5195 0.105357 15.2652 0 14.9999 0L8.99995 0C8.73473 0 8.48038 0.105357 8.29284 0.292893C8.10531 0.48043 7.99995 0.734784 7.99995 1C7.99995 1.26522 8.10531 1.51957 8.29284 1.70711C8.48038 1.89464 8.73473 2 8.99995 2H10.9999V4.051C8.44731 4.30755 6.09092 5.53535 4.41811 7.48047C2.7453 9.42559 1.88405 11.9392 2.01249 14.5015C2.14092 17.0638 3.24922 19.4787 5.10815 21.2468C6.96709 23.0149 9.43445 24.0009 11.9999 24.0009C14.5654 24.0009 17.0328 23.0149 18.8917 21.2468C20.7507 19.4787 21.859 17.0638 21.9874 14.5015C22.1158 11.9392 21.2546 9.42559 19.5818 7.48047C17.909 5.53535 15.5526 4.30755 12.9999 4.051ZM15.9999 15.67V12.33C18.6339 12.798 20 13.638 20 14C20 14.362 18.6339 15.2 15.9999 15.67ZM3.99995 14C3.99995 13.638 5.36595 12.8 7.99995 12.33V15.67C5.36595 15.2 3.99995 14.362 3.99995 14ZM9.99995 12.078C10.6209 12.029 11.2849 12 11.9999 12C12.7149 12 13.3789 12.029 13.9999 12.078V15.922C13.3789 15.971 12.7149 16 11.9999 16C11.2849 16 10.6209 15.971 9.99995 15.922V12.078ZM11.9999 6C12.6751 6.00242 13.3471 6.0908 13.9999 6.263V10.075C13.3359 10.026 12.6649 10 11.9999 10C11.3349 10 10.6639 10.026 9.99995 10.075V6.263C10.6528 6.0908 11.3248 6.00242 11.9999 6ZM19.5 11.236C18.3756 10.7832 17.2003 10.4689 15.9999 10.3V7.082C17.6131 8.01883 18.8504 9.48731 19.5 11.236ZM7.99995 7.082V10.3C6.79977 10.468 5.62448 10.7813 4.49995 11.233C5.15012 9.48542 6.38734 8.01807 7.99995 7.082ZM4.49995 16.764C5.62434 17.2168 6.79964 17.5311 7.99995 17.7V20.921C6.38628 19.9834 5.14892 18.5138 4.49995 16.764ZM9.99995 21.737V17.925C10.6639 17.974 11.3349 18 11.9999 18C12.6649 18 13.3359 17.974 13.9999 17.925V21.737C12.6897 22.0877 11.3102 22.0877 9.99995 21.737ZM15.9999 20.918V17.7C17.2001 17.532 18.3754 17.2187 19.5 16.767C18.8498 18.5146 17.6126 19.9819 15.9999 20.918Z" fill="currentColor"/>
</g>
<defs>
<clipPath id="clip0_403_3222">
<rect width="24" height="24" fill="white"/>
</clipPath>
</defs>
</svg>
