<svg width="24" height="24" viewBox="0 0 24 24" fill="none" xmlns="http://www.w3.org/2000/svg">
<g clip-path="url(#clip0_406_2078)">
<path d="M19 4.99988H16V3.99988C16 3.20423 15.6839 2.44117 15.1213 1.87856C14.5587 1.31595 13.7956 0.999878 13 0.999878H11C10.2044 0.999878 9.44129 1.31595 8.87868 1.87856C8.31607 2.44117 8 3.20423 8 3.99988V4.99988H5C3.67441 5.00147 2.40356 5.52876 1.46622 6.4661C0.528882 7.40344 0.00158786 8.67428 0 9.99988L0 17.9999C0.00158786 19.3255 0.528882 20.5963 1.46622 21.5337C2.40356 22.471 3.67441 22.9983 5 22.9999H19C20.3256 22.9983 21.5964 22.471 22.5338 21.5337C23.4711 20.5963 23.9984 19.3255 24 17.9999V9.99988C23.9984 8.67428 23.4711 7.40344 22.5338 6.4661C21.5964 5.52876 20.3256 5.00147 19 4.99988ZM10 3.99988C10 3.73466 10.1054 3.48031 10.2929 3.29277C10.4804 3.10523 10.7348 2.99988 11 2.99988H13C13.2652 2.99988 13.5196 3.10523 13.7071 3.29277C13.8946 3.48031 14 3.73466 14 3.99988V4.99988H10V3.99988ZM15 14.9999H13V16.9999C13 17.2651 12.8946 17.5194 12.7071 17.707C12.5196 17.8945 12.2652 17.9999 12 17.9999C11.7348 17.9999 11.4804 17.8945 11.2929 17.707C11.1054 17.5194 11 17.2651 11 16.9999V14.9999H9C8.73478 14.9999 8.48043 14.8945 8.29289 14.707C8.10536 14.5194 8 14.2651 8 13.9999C8 13.7347 8.10536 13.4803 8.29289 13.2928C8.48043 13.1052 8.73478 12.9999 9 12.9999H11V10.9999C11 10.7347 11.1054 10.4803 11.2929 10.2928C11.4804 10.1052 11.7348 9.99988 12 9.99988C12.2652 9.99988 12.5196 10.1052 12.7071 10.2928C12.8946 10.4803 13 10.7347 13 10.9999V12.9999H15C15.2652 12.9999 15.5196 13.1052 15.7071 13.2928C15.8946 13.4803 16 13.7347 16 13.9999C16 14.2651 15.8946 14.5194 15.7071 14.707C15.5196 14.8945 15.2652 14.9999 15 14.9999Z" fill="currentColor"/>
</g>
<defs>
<clipPath id="clip0_406_2078">
<rect width="24" height="24" fill="white"/>
</clipPath>
</defs>
</svg>
