<svg width="24" height="24" viewBox="0 0 24 24" fill="none" xmlns="http://www.w3.org/2000/svg">
<g clip-path="url(#clip0_406_2076)">
<path d="M16 0.3C16.7058 0.541978 17.348 0.939823 17.879 1.464L19.535 3.122C20.0598 3.65229 20.458 4.29426 20.7 5H16V0.3ZM21 7V19C20.9984 20.3256 20.4711 21.5964 19.5338 22.5338C18.5964 23.4711 17.3256 23.9984 16 24H8C6.67441 23.9984 5.40356 23.4711 4.46622 22.5338C3.52888 21.5964 3.00159 20.3256 3 19V5C3.00159 3.67441 3.52888 2.40356 4.46622 1.46622C5.40356 0.528882 6.67441 0.00158786 8 0L14 0V5C14 5.53043 14.2107 6.03914 14.5858 6.41421C14.9609 6.78929 15.4696 7 16 7H21ZM16.808 17.413C16.7308 17.3062 16.6334 17.2158 16.5212 17.1468C16.4089 17.0779 16.2842 17.0317 16.1541 17.0111C16.024 16.9905 15.8912 16.9957 15.7631 17.0266C15.6351 17.0575 15.5144 17.1134 15.408 17.191C14.7361 17.6587 13.9513 17.938 13.135 18C12.8152 17.9913 12.5089 17.869 12.271 17.655C11.7491 17.2409 11.1051 17.0106 10.439 17C9.32967 17.1043 8.27306 17.5226 7.393 18.206C7.28378 18.2839 7.19134 18.3829 7.12118 18.4972C7.05102 18.6115 7.00457 18.7388 6.98461 18.8714C6.96465 19.0041 6.97157 19.1394 7.00497 19.2693C7.03837 19.3992 7.09757 19.5211 7.17903 19.6276C7.26049 19.7342 7.36256 19.8233 7.47916 19.8896C7.59576 19.9559 7.72451 19.998 7.85774 20.0136C7.99097 20.0291 8.12596 20.0176 8.25468 19.9799C8.3834 19.9422 8.50322 19.879 8.607 19.794C9.13962 19.3769 9.77043 19.1035 10.439 19C10.685 19 10.81 19.078 11.139 19.3C11.7088 19.7501 12.4129 19.9965 13.139 20C14.3818 19.9432 15.5818 19.529 16.595 18.807C16.8075 18.6499 16.9491 18.4151 16.989 18.1539C17.029 17.8927 16.9639 17.6264 16.808 17.413ZM17 14C17 13.7348 16.8946 13.4804 16.7071 13.2929C16.5196 13.1054 16.2652 13 16 13H8C7.73478 13 7.48043 13.1054 7.29289 13.2929C7.10536 13.4804 7 13.7348 7 14C7 14.2652 7.10536 14.5196 7.29289 14.7071C7.48043 14.8946 7.73478 15 8 15H16C16.2652 15 16.5196 14.8946 16.7071 14.7071C16.8946 14.5196 17 14.2652 17 14ZM17 10C17 9.73478 16.8946 9.48043 16.7071 9.29289C16.5196 9.10536 16.2652 9 16 9H8C7.73478 9 7.48043 9.10536 7.29289 9.29289C7.10536 9.48043 7 9.73478 7 10C7 10.2652 7.10536 10.5196 7.29289 10.7071C7.48043 10.8946 7.73478 11 8 11H16C16.2652 11 16.5196 10.8946 16.7071 10.7071C16.8946 10.5196 17 10.2652 17 10Z" fill="currentColor"/>
</g>
<defs>
<clipPath id="clip0_406_2076">
<rect width="24" height="24" fill="white"/>
</clipPath>
</defs>
</svg>
