<svg width="24" height="24" viewBox="0 0 24 24" fill="none" xmlns="http://www.w3.org/2000/svg">
<g clip-path="url(#clip0_403_3231)">
<path d="M21.3411 5.125C21.0608 4.77324 20.7047 4.48935 20.2994 4.29454C19.894 4.09973 19.4498 3.99905 19.0001 4H14.6731L14.8001 2.89C14.8271 2.646 14.9429 2.42045 15.1255 2.25632C15.308 2.0922 15.5446 2.00097 15.7901 2H20.0001C20.2653 2 20.5197 1.89464 20.7072 1.70711C20.8947 1.51957 21.0001 1.26522 21.0001 1C21.0001 0.734784 20.8947 0.48043 20.7072 0.292893C20.5197 0.105357 20.2653 0 20.0001 0L15.7901 0C15.0519 0.000168296 14.3396 0.272519 13.7896 0.764943C13.2397 1.25737 12.8905 1.93529 12.8091 2.669L12.6611 4H5.00009C4.56047 4.00408 4.12705 4.10409 3.7301 4.29305C3.33315 4.482 2.98224 4.75535 2.70188 5.09399C2.42152 5.43262 2.21848 5.82839 2.10694 6.25363C1.9954 6.67888 1.97804 7.12335 2.05609 7.556L3.56809 19.622C3.72129 20.8302 4.30949 21.9411 5.22263 22.747C6.13576 23.5528 7.31124 23.9982 8.52909 24H15.4701C16.6881 23.998 17.8638 23.5524 18.777 22.7464C19.6903 21.9404 20.2787 20.8294 20.4321 19.621L21.9321 7.653C22.0305 7.21433 22.0285 6.75908 21.9261 6.32131C21.8238 5.88354 21.6238 5.47457 21.3411 5.125ZM19.0001 6C19.1501 5.99994 19.2981 6.03362 19.4333 6.09853C19.5685 6.16344 19.6874 6.25793 19.7811 6.375C19.8815 6.50662 19.95 6.65979 19.981 6.8224C20.0121 6.98502 20.0049 7.15263 19.9601 7.312L19.6221 10H14.0061L14.4511 6H19.0001ZM4.22109 6.374C4.31471 6.25738 4.43329 6.16324 4.5681 6.09851C4.70292 6.03379 4.85054 6.00012 5.00009 6H12.4371L11.9921 10H4.37409L4.02409 7.216C3.99131 7.06988 3.992 6.91824 4.02612 6.77243C4.06023 6.62662 4.12689 6.49041 4.22109 6.374ZM18.4471 19.374C18.3549 20.0988 18.0019 20.7652 17.4539 21.2486C16.906 21.7319 16.2007 21.999 15.4701 22H8.52909C7.79831 21.9999 7.09272 21.733 6.54477 21.2495C5.99682 20.766 5.64419 20.0991 5.55309 19.374L4.62609 12H19.3711L18.4471 19.374ZM13.4381 15.11L12.9941 19.11C12.9796 19.2405 12.9396 19.3669 12.8763 19.482C12.813 19.5971 12.7277 19.6986 12.6252 19.7806C12.5227 19.8627 12.405 19.9238 12.2788 19.9604C12.1527 19.997 12.0206 20.0084 11.8901 19.994C11.7596 19.9796 11.6331 19.9395 11.5181 19.8762C11.403 19.8129 11.3015 19.7276 11.2194 19.6251C11.1374 19.5226 11.0763 19.4049 11.0397 19.2788C11.003 19.1526 10.9916 19.0205 11.0061 18.89L11.4501 14.89C11.4827 14.6277 11.6165 14.3885 11.8229 14.2234C12.0293 14.0583 12.292 13.9803 12.5551 14.006C12.8185 14.0354 13.0595 14.1682 13.2251 14.3752C13.3907 14.5822 13.4673 14.8465 13.4381 15.11Z" fill="currentColor"/>
</g>
<defs>
<clipPath id="clip0_403_3231">
<rect width="24" height="24" fill="white"/>
</clipPath>
</defs>
</svg>
