<svg width="24" height="24" viewBox="0 0 24 24" fill="none" xmlns="http://www.w3.org/2000/svg">
<g clip-path="url(#clip0_406_2070)">
<path d="M21.5 2.50001C19.8937 0.908417 17.7238 0.0155029 15.4625 0.0155029C13.2012 0.0155029 11.0314 0.908417 9.42503 2.50001C7.04803 4.877 6.26803 10.409 6.01503 13.5C5.94546 14.3685 6.15006 15.2369 6.60003 15.983L2.80003 19.783C2.65893 19.5249 2.44505 19.314 2.185 19.1765C1.92496 19.039 1.63022 18.981 1.33747 19.0097C1.04472 19.0384 0.766868 19.1525 0.538488 19.3379C0.310108 19.5233 0.14128 19.7718 0.0530057 20.0524C-0.0352682 20.333 -0.0390906 20.6333 0.0420141 20.9161C0.123119 21.1989 0.285571 21.4515 0.509159 21.6427C0.732747 21.8338 1.0076 21.955 1.29953 21.9911C1.59146 22.0273 1.88757 21.9768 2.15103 21.846C2.0202 22.1094 1.96972 22.4056 2.00587 22.6975C2.04202 22.9894 2.1632 23.2643 2.35435 23.4879C2.54549 23.7114 2.79816 23.8739 3.08092 23.955C3.36367 24.0361 3.66403 24.0323 3.94463 23.944C4.22523 23.8557 4.47368 23.6869 4.65908 23.4585C4.84447 23.2301 4.95862 22.9523 4.98733 22.6595C5.01604 22.3668 4.95804 22.0721 4.82055 21.812C4.68305 21.552 4.47213 21.3381 4.21403 21.197L8.01403 17.397C8.75886 17.8514 9.62831 18.0586 10.498 17.989C13.584 17.736 19.115 16.957 21.498 14.579C23.0913 12.9729 23.9856 10.8023 23.9859 8.53991C23.9863 6.27755 23.0928 4.10666 21.5 2.50001Z" fill="currentColor"/>
</g>
<defs>
<clipPath id="clip0_406_2070">
<rect width="24" height="24" fill="white"/>
</clipPath>
</defs>
</svg>
