<svg width="24" height="24" viewBox="0 0 24 24" fill="none" xmlns="http://www.w3.org/2000/svg">
<path d="M12 20.9999C8.1358 20.9955 5.00441 17.8641 5 13.9999V4.99994C5 4.79993 5.01298 4.59996 5.03 4.40796C3.194 5.19668 2.003 7.00169 2 8.99992V18.9999C2.00328 21.7599 4.23992 23.9966 6.99997 23.9999H13C14.9982 23.9969 16.8032 22.8059 17.592 20.9699C17.392 20.9869 17.2 20.9999 17 20.9999H12Z" fill="currentColor"/>
<path d="M21.155 3.27206L18.871 0.91308C18.6195 0.658408 18.3246 0.450799 18 0.300049V4.00003H21.66C21.5288 3.73364 21.3586 3.48825 21.155 3.27206Z" fill="currentColor"/>
<path d="M17 3.99982C17 4.55211 17.4477 4.99981 18 4.99981H21.966C21.8923 4.3505 21.6074 3.74332 21.155 3.27181L18.871 0.912824C18.3714 0.406387 17.7085 0.0932148 17 0.0288086V3.99982Z" fill="currentColor"/>
<path d="M15 3.99998V0H12C9.23997 0.00332812 7.00333 2.23997 7 5.00002V14C7.00333 16.7601 9.23997 18.9967 12 19H17C19.7601 18.9967 21.9967 16.7601 22 14V6.99998H18C16.3432 6.99998 15 5.65688 15 3.99998Z" fill="currentColor"/>
</svg>
