<svg width="24" height="24" viewBox="0 0 24 24" fill="none" xmlns="http://www.w3.org/2000/svg">
<g clip-path="url(#clip0_403_3062)">
<path d="M21.1549 3.272L18.8709 0.913C18.5904 0.624966 18.2552 0.39584 17.885 0.239061C17.5147 0.0822824 17.1169 0.00100643 16.7149 0L11.9999 0C10.8477 0.00145452 9.7312 0.40009 8.83863 1.12872C7.94606 1.85735 7.33197 2.87141 7.09988 4H6.99988C5.67428 4.00159 4.40344 4.52888 3.4661 5.46622C2.52876 6.40356 2.00147 7.67441 1.99988 9V19C2.00147 20.3256 2.52876 21.5964 3.4661 22.5338C4.40344 23.4711 5.67428 23.9984 6.99988 24H12.9999C14.3255 23.9984 15.5963 23.4711 16.5337 22.5338C17.471 21.5964 17.9983 20.3256 17.9999 19V18.9C19.1285 18.6679 20.1425 18.0538 20.8712 17.1613C21.5998 16.2687 21.9984 15.1522 21.9999 14V5.36C22.0014 4.58042 21.6981 3.83112 21.1549 3.272ZM12.9999 22H6.99988C6.20423 22 5.44117 21.6839 4.87856 21.1213C4.31595 20.5587 3.99988 19.7956 3.99988 19V9C3.99988 8.20435 4.31595 7.44129 4.87856 6.87868C5.44117 6.31607 6.20423 6 6.99988 6V14C7.00147 15.3256 7.52876 16.5964 8.4661 17.5338C9.40344 18.4711 10.6743 18.9984 11.9999 19H15.9999C15.9999 19.7956 15.6838 20.5587 15.1212 21.1213C14.5586 21.6839 13.7955 22 12.9999 22ZM16.9999 17H11.9999C11.2042 17 10.4412 16.6839 9.87856 16.1213C9.31595 15.5587 8.99988 14.7956 8.99988 14V5C8.99988 4.20435 9.31595 3.44129 9.87856 2.87868C10.4412 2.31607 11.2042 2 11.9999 2H15.9999V4C15.9999 4.53043 16.2106 5.03914 16.5857 5.41421C16.9607 5.78929 17.4694 6 17.9999 6H19.9999V14C19.9999 14.7956 19.6838 15.5587 19.1212 16.1213C18.5586 16.6839 17.7955 17 16.9999 17Z" fill="currentColor"/>
</g>
<defs>
<clipPath id="clip0_403_3062">
<rect width="24" height="24" fill="white"/>
</clipPath>
</defs>
</svg>
