<svg width="24" height="24" viewBox="0 0 24 24" fill="none" xmlns="http://www.w3.org/2000/svg">
<g clip-path="url(#clip0_403_3071)">
<path d="M19.9 3.09108C19.7771 2.56273 19.5479 2.06491 19.2265 1.6279C18.9052 1.19088 18.4982 0.823806 18.0305 0.548987C17.5629 0.274168 17.0441 0.097351 16.506 0.0292897C15.9678 -0.0387716 15.4214 0.00334488 14.9 0.153078L13.176 0.646078C12.7393 0.771598 12.337 0.995297 12 1.30008C11.663 0.995297 11.2607 0.771598 10.824 0.646078L9.1 0.153078C8.57894 0.00412528 8.03304 -0.0373908 7.49544 0.0310496C6.95784 0.09949 6.43976 0.276459 5.97263 0.551216C5.50551 0.825973 5.09909 1.19279 4.77804 1.62939C4.45699 2.066 4.22801 2.56329 4.105 3.09108C2.9548 3.30034 1.91429 3.90603 1.16433 4.80288C0.414377 5.69972 0.00239598 6.831 0 8.00008L0 15.0001C0.00158786 16.3257 0.528882 17.5965 1.46622 18.5339C2.40356 19.4712 3.67441 19.9985 5 20.0001H11V22.0001H8C7.73478 22.0001 7.48043 22.1054 7.29289 22.293C7.10536 22.4805 7 22.7349 7 23.0001C7 23.2653 7.10536 23.5196 7.29289 23.7072C7.48043 23.8947 7.73478 24.0001 8 24.0001H16C16.2652 24.0001 16.5196 23.8947 16.7071 23.7072C16.8946 23.5196 17 23.2653 17 23.0001C17 22.7349 16.8946 22.4805 16.7071 22.293C16.5196 22.1054 16.2652 22.0001 16 22.0001H13V20.0001H19C20.3256 19.9985 21.5964 19.4712 22.5338 18.5339C23.4711 17.5965 23.9984 16.3257 24 15.0001V8.00008C23.9978 6.83171 23.5865 5.701 22.8376 4.80426C22.0886 3.90752 21.0493 3.30138 19.9 3.09108ZM13 3.53108C13.0001 3.31389 13.0709 3.10264 13.2017 2.92926C13.3325 2.75589 13.5162 2.6298 13.725 2.57008L15.45 2.07708C15.7477 1.99193 16.0611 1.97706 16.3655 2.03364C16.6699 2.09022 16.957 2.2167 17.2042 2.40313C17.4514 2.58955 17.652 2.83082 17.7901 3.10794C17.9281 3.38506 18 3.69046 18 4.00008V7.93808C17.9986 8.37203 17.8565 8.79383 17.5951 9.1402C17.3337 9.48656 16.967 9.7388 16.55 9.85908L13 10.8731V3.53108ZM6.8 2.40008C7.04673 2.21433 7.33325 2.08847 7.63695 2.03241C7.94065 1.97636 8.25322 1.99165 8.55 2.07708L10.275 2.57008C10.4838 2.6298 10.6675 2.75589 10.7983 2.92926C10.9291 3.10264 10.9999 3.31389 11 3.53108V10.8731L7.45 9.85908C7.03305 9.7388 6.66634 9.48656 6.4049 9.1402C6.14346 8.79383 6.00139 8.37203 6 7.93808V4.00008C5.99898 3.68941 6.07083 3.38283 6.20976 3.10496C6.3487 2.82709 6.55086 2.58567 6.8 2.40008ZM22 15.0001C22 15.7957 21.6839 16.5588 21.1213 17.1214C20.5587 17.684 19.7956 18.0001 19 18.0001H5C4.20435 18.0001 3.44129 17.684 2.87868 17.1214C2.31607 16.5588 2 15.7957 2 15.0001V8.00008C2.00256 7.38182 2.19608 6.77945 2.55409 6.27538C2.91209 5.77131 3.41709 5.39016 4 5.18408V7.93808C4.00245 8.80642 4.28642 9.65055 4.8093 10.3438C5.33218 11.0371 6.06577 11.5421 6.9 11.7831L10.351 12.7701C11.4295 13.0775 12.5725 13.0775 13.651 12.7701L17.102 11.7831C17.9359 11.5417 18.669 11.0366 19.1915 10.3433C19.714 9.6501 19.9977 8.80616 20 7.93808V5.18408C20.5829 5.39016 21.0879 5.77131 21.4459 6.27538C21.8039 6.77945 21.9974 7.38182 22 8.00008V15.0001Z" fill="currentColor"/>
</g>
<defs>
<clipPath id="clip0_403_3071">
<rect width="24" height="24" fill="white"/>
</clipPath>
</defs>
</svg>
