<svg width="24" height="24" viewBox="0 0 24 24" fill="none" xmlns="http://www.w3.org/2000/svg">
<g clip-path="url(#clip0_406_2061)">
<path d="M14.2809 13.4559L23.4189 4.31792C24.1783 3.55972 24.3079 2.06914 22.9939 1.25493C21.8694 0.701519 20.9998 1.17322 20.5949 1.64591L11.8269 11.357C12.8543 11.7663 13.7172 12.5044 14.2809 13.4559Z" fill="currentColor"/>
<path d="M5 19H10C11.6569 19 13 17.6568 13 16C13 14.3432 11.6569 13 10 13C5.99998 13 5 19 5 19Z" fill="currentColor"/>
<path d="M16 19C16 17.3431 17.3431 16 19 16H24V6.56498L14.96 15.605C14.971 15.738 15 15.865 15 16C14.9967 18.76 12.76 20.9967 9.99998 21H5.00002C3.89545 21.0001 2.99991 20.1048 2.99977 19.0003C2.99977 18.89 3.00886 18.7798 3.027 18.671C3.48098 15.949 5.33498 11.437 9.42 11.039L19.105 0.312984C19.2001 0.217125 19.3003 0.126328 19.405 0.0409687C19.269 0.03 19.139 0 19 0H5.00002C2.23997 0.00332812 0.00332812 2.23997 0 5.00002V19C0.00332812 21.76 2.23997 23.9967 5.00002 24H16V19H16Z" fill="currentColor"/>
<path d="M19 18C18.4477 18 18 18.4477 18 19V23.7C18.7055 23.458 19.3474 23.0602 19.878 22.536L22.536 19.878C23.0602 19.3474 23.458 18.7055 23.7 18H19Z" fill="currentColor"/>
</g>
<defs>
<clipPath id="clip0_406_2061">
<rect width="24" height="24" fill="white"/>
</clipPath>
</defs>
</svg>
