<svg width="24" height="24" viewBox="0 0 24 24" fill="none" xmlns="http://www.w3.org/2000/svg">
<g clip-path="url(#clip0_406_2075)">
<path d="M23.954 5.54187L15.536 13.9599C14.5974 14.8961 13.3257 15.4219 12 15.4219C10.6743 15.4219 9.40263 14.8961 8.464 13.9599L0.046 5.54187C0.032 5.69987 0 5.84287 0 5.99987V17.9999C0.00158786 19.3255 0.528882 20.5963 1.46622 21.5337C2.40356 22.471 3.67441 22.9983 5 22.9999H19C20.3256 22.9983 21.5964 22.471 22.5338 21.5337C23.4711 20.5963 23.9984 19.3255 24 17.9999V5.99987C24 5.84287 23.968 5.69987 23.954 5.54187Z" fill="currentColor"/>
<path d="M14.122 12.5459L23.256 3.41088C22.8135 2.6772 22.1895 2.06992 21.444 1.64761C20.6985 1.2253 19.8568 1.00222 19 0.999878H5.00002C4.14324 1.00222 3.30152 1.2253 2.55605 1.64761C1.81057 2.06992 1.1865 2.6772 0.744019 3.41088L9.87802 12.5459C10.4416 13.1072 11.2046 13.4223 12 13.4223C12.7954 13.4223 13.5584 13.1072 14.122 12.5459Z" fill="currentColor"/>
</g>
<defs>
<clipPath id="clip0_406_2075">
<rect width="24" height="24" fill="white"/>
</clipPath>
</defs>
</svg>
