<svg width="24" height="24" viewBox="0 0 24 24" fill="none" xmlns="http://www.w3.org/2000/svg">
<g clip-path="url(#clip0_403_3103)">
<path d="M22 0H17C16.4696 0 15.9609 0.210714 15.5858 0.585786C15.2107 0.960859 15 1.46957 15 2V8.948C15.0005 9.33399 15.1099 9.712 15.3156 10.0386C15.5213 10.3652 15.815 10.6271 16.163 10.7942C16.5109 10.9613 16.8989 11.0269 17.2824 10.9833C17.666 10.9398 18.0294 10.7889 18.331 10.548L19.5 9.613L20.669 10.549C20.9707 10.7899 21.3342 10.9408 21.7178 10.9844C22.1014 11.0279 22.4895 10.9622 22.8375 10.795C23.1855 10.6278 23.4792 10.3657 23.6848 10.039C23.8905 9.71222 23.9997 9.33407 24 8.948V2C24 1.46957 23.7893 0.960859 23.4142 0.585786C23.0391 0.210714 22.5304 0 22 0V0ZM21.919 8.987L20.125 7.552C19.9476 7.41 19.7272 7.33262 19.5 7.33262C19.2728 7.33262 19.0524 7.41 18.875 7.552L17 8.948V2H22L21.919 8.987ZM24 14V19C23.9984 20.3256 23.4711 21.5964 22.5338 22.5338C21.5964 23.4711 20.3256 23.9984 19 24H5C3.67441 23.9984 2.40356 23.4711 1.46622 22.5338C0.528882 21.5964 0.00158786 20.3256 0 19L0 8C0.00158786 6.67441 0.528882 5.40356 1.46622 4.46622C2.40356 3.52888 3.67441 3.00159 5 3H12C12.2652 3 12.5196 3.10536 12.7071 3.29289C12.8946 3.48043 13 3.73478 13 4C13 4.26522 12.8946 4.51957 12.7071 4.70711C12.5196 4.89464 12.2652 5 12 5H5C4.45621 5.0015 3.92312 5.15128 3.45812 5.43321C2.99311 5.71514 2.6138 6.11854 2.361 6.6L9.878 14.118C10.4499 14.663 11.2095 14.967 11.9995 14.967C12.7895 14.967 13.5491 14.663 14.121 14.118L14.979 13.281C15.0729 13.1891 15.184 13.1165 15.3059 13.0675C15.4278 13.0186 15.5582 12.9941 15.6896 12.9954C15.821 12.9968 15.9508 13.0241 16.0717 13.0757C16.1926 13.1272 16.3021 13.2021 16.394 13.296C16.4859 13.3899 16.5585 13.501 16.6075 13.6229C16.6564 13.7448 16.6809 13.8752 16.6796 14.0066C16.6782 14.138 16.6509 14.2678 16.5993 14.3887C16.5478 14.5096 16.4729 14.6191 16.379 14.711L15.53 15.54C14.5884 16.4678 13.3192 16.9872 11.9974 16.9857C10.6755 16.9842 9.40745 16.4619 8.468 15.532L2 9.071V19C2 19.7956 2.31607 20.5587 2.87868 21.1213C3.44129 21.6839 4.20435 22 5 22H19C19.7956 22 20.5587 21.6839 21.1213 21.1213C21.6839 20.5587 22 19.7956 22 19V14C22 13.7348 22.1054 13.4804 22.2929 13.2929C22.4804 13.1054 22.7348 13 23 13C23.2652 13 23.5196 13.1054 23.7071 13.2929C23.8946 13.4804 24 13.7348 24 14Z" fill="currentColor"/>
</g>
<defs>
<clipPath id="clip0_403_3103">
<rect width="24" height="24" fill="white"/>
</clipPath>
</defs>
</svg>
