<svg width="24" height="24" viewBox="0 0 24 24" fill="none" xmlns="http://www.w3.org/2000/svg">
<g clip-path="url(#clip0_403_3197)">
<path d="M21.715 18.363C20.5696 19.7517 19.0705 20.8055 17.376 21.4132C15.6814 22.0208 13.8543 22.1598 12.0873 21.8154C10.3204 21.471 8.67918 20.656 7.33689 19.4565C5.99461 18.2569 5.00103 16.7172 4.461 15H15C15.2652 15 15.5196 14.8946 15.7071 14.7071C15.8946 14.5195 16 14.2652 16 14C16 13.7347 15.8946 13.4804 15.7071 13.2929C15.5196 13.1053 15.2652 13 15 13H4.051C3.983 12.335 3.983 11.6649 4.051 11H15C15.2652 11 15.5196 10.8946 15.7071 10.7071C15.8946 10.5195 16 10.2652 16 9.99997C16 9.73475 15.8946 9.4804 15.7071 9.29286C15.5196 9.10532 15.2652 8.99997 15 8.99997H4.461C5.00103 7.28269 5.99461 5.74302 7.33689 4.54346C8.67918 3.34389 10.3204 2.52891 12.0873 2.18451C13.8543 1.84012 15.6814 1.97908 17.376 2.58673C19.0705 3.19439 20.5696 4.2482 21.715 5.63697C21.7987 5.73822 21.9014 5.822 22.0175 5.88353C22.1335 5.94506 22.2605 5.98313 22.3912 5.99558C22.522 6.00802 22.6539 5.99459 22.7795 5.95605C22.905 5.91751 23.0217 5.85462 23.123 5.77097C23.2242 5.68732 23.308 5.58454 23.3696 5.46851C23.4311 5.35248 23.4692 5.22547 23.4816 5.09472C23.494 4.96398 23.4806 4.83206 23.4421 4.70651C23.4035 4.58096 23.3407 4.46422 23.257 4.36297C21.8496 2.65726 19.998 1.37403 17.9067 0.655172C15.8155 -0.063683 13.5661 -0.190144 11.4075 0.289774C9.24883 0.769692 7.26497 1.83729 5.67529 3.3745C4.08561 4.91171 2.95206 6.85863 2.4 8.99997H1C0.734784 8.99997 0.48043 9.10532 0.292893 9.29286C0.105357 9.4804 0 9.73475 0 9.99997C0 10.2652 0.105357 10.5195 0.292893 10.7071C0.48043 10.8946 0.734784 11 1 11H2.051C2.023 11.331 2 11.662 2 12C2 12.338 2.023 12.669 2.051 13H1C0.734784 13 0.48043 13.1053 0.292893 13.2929C0.105357 13.4804 0 13.7347 0 14C0 14.2652 0.105357 14.5195 0.292893 14.7071C0.48043 14.8946 0.734784 15 1 15H2.4C2.95144 17.1424 4.08492 19.0905 5.67498 20.6286C7.26505 22.1667 9.24969 23.2349 11.4093 23.7149C13.5688 24.1949 15.8191 24.068 17.911 23.3483C20.0029 22.6286 21.8549 21.3441 23.262 19.637C23.4309 19.4325 23.5117 19.1693 23.4866 18.9052C23.4615 18.6412 23.3325 18.3979 23.128 18.229C22.9235 18.06 22.6603 17.9792 22.3962 18.0044C22.1322 18.0295 21.8889 18.1585 21.72 18.363H21.715Z" fill="currentColor"/>
</g>
<defs>
<clipPath id="clip0_403_3197">
<rect width="24" height="24" fill="white"/>
</clipPath>
</defs>
</svg>
