<svg width="24" height="24" viewBox="0 0 24 24" fill="none" xmlns="http://www.w3.org/2000/svg">
<g clip-path="url(#clip0_406_2080)">
<path d="M12 24C18.6274 24 24 18.6274 24 12C24 5.37258 18.6274 0 12 0C5.37258 0 0 5.37258 0 12C0.00717187 18.6245 5.37553 23.9928 12 24ZM11 6C11 5.44772 11.4477 5.00002 12 5.00002C12.5523 5.00002 13 5.44772 13 6V14C13 14.5523 12.5523 15 12 15C11.4477 15 11 14.5523 11 14V6ZM12 18C12.5523 18 13 18.4477 13 19C13 19.5523 12.5523 20 12 20C11.4477 20 11 19.5523 11 19C11 18.4477 11.4477 18 12 18Z" fill="currentColor"/>
</g>
<defs>
<clipPath id="clip0_406_2080">
<rect width="24" height="24" fill="white"/>
</clipPath>
</defs>
</svg>
