<svg width="24" height="24" viewBox="0 0 24 24" fill="none" xmlns="http://www.w3.org/2000/svg">
<g clip-path="url(#clip0_403_3270)">
<path d="M22.8271 1.17414C22.3418 0.684496 21.7374 0.329697 21.0734 0.144703C20.4093 -0.0402917 19.7085 -0.0491003 19.0401 0.119145C13.8576 1.47969 9.11138 4.14825 5.25605 7.86915C4.49765 8.63213 3.90624 9.54453 3.51941 10.5484C3.13257 11.5522 2.95877 12.6255 3.00905 13.7001C3.08068 15.2601 3.62822 16.7607 4.57805 18.0001L0.293051 22.2931C0.19754 22.3854 0.121358 22.4957 0.0689493 22.6177C0.0165403 22.7397 -0.011046 22.871 -0.0121998 23.0037C-0.0133536 23.1365 0.0119481 23.2682 0.062229 23.3911C0.11251 23.514 0.186763 23.6257 0.280656 23.7195C0.374548 23.8134 0.4862 23.8877 0.609097 23.938C0.731993 23.9883 0.863673 24.0136 0.996452 24.0124C1.12923 24.0112 1.26045 23.9837 1.38246 23.9312C1.50446 23.8788 1.6148 23.8027 1.70705 23.7071L5.99105 19.4231C7.30415 20.4484 8.92312 21.0036 10.5891 21.0001C11.6914 20.9842 12.7799 20.7512 13.7922 20.3145C14.8045 19.8779 15.7209 19.246 16.4891 18.4551C20.8891 14.0551 23.3721 7.00915 23.8831 4.93015C24.0492 4.26632 24.0391 3.57064 23.8539 2.91189C23.6687 2.25314 23.3148 1.65414 22.8271 1.17414ZM5.00705 13.6081C4.96941 12.8109 5.09799 12.0145 5.38463 11.2696C5.67127 10.5247 6.10969 9.84753 6.67205 9.28115C7.10005 8.85615 7.54505 8.45715 8.00005 8.06715V14.5861L6.01005 16.5761C5.40365 15.7006 5.05606 14.672 5.00705 13.6081ZM15.0451 17.0671C14.0926 18.1022 12.8022 18.7636 11.4057 18.9322C10.0093 19.1009 8.59849 18.7658 7.42705 17.9871L9.70605 15.7081L12.4141 13.0001H18.1761C17.2703 14.4566 16.2214 15.819 15.0451 17.0671ZM21.9451 4.44715C21.3423 6.72717 20.4694 8.92708 19.3451 11.0001H14.4141L17.7071 7.70715C17.8026 7.6149 17.8787 7.50455 17.9312 7.38255C17.9836 7.26055 18.0111 7.12933 18.0123 6.99655C18.0135 6.86377 17.9882 6.73209 17.9379 6.60919C17.8876 6.4863 17.8133 6.37464 17.7194 6.28075C17.6256 6.18686 17.5139 6.1126 17.391 6.06232C17.2681 6.01204 17.1364 5.98674 17.0037 5.9879C16.8709 5.98905 16.7397 6.01664 16.6176 6.06904C16.4956 6.12145 16.3853 6.19764 16.2931 6.29315L11.2931 11.2931L10.0001 12.5861V6.51215C12.8911 4.48604 16.1134 2.9798 19.5221 2.06115C19.6803 2.0213 19.8428 2.00082 20.0061 2.00014C20.2681 2.00071 20.5275 2.05303 20.7693 2.15411C21.0111 2.25518 21.2305 2.40303 21.4151 2.58914C21.6586 2.82508 21.8355 3.12115 21.9279 3.44742C22.0202 3.77368 22.0248 4.11856 21.9411 4.44715H21.9451Z" fill="currentColor"/>
</g>
<defs>
<clipPath id="clip0_403_3270">
<rect width="24" height="24" fill="white"/>
</clipPath>
</defs>
</svg>
