<svg width="24" height="24" viewBox="0 0 24 24" fill="none" xmlns="http://www.w3.org/2000/svg">
<g clip-path="url(#clip0_403_2988)">
<path d="M19 4.00024H7C5.67441 4.00183 4.40356 4.52913 3.46622 5.46646C2.52888 6.4038 2.00159 7.67465 2 9.00024V11.0002H1C0.734784 11.0002 0.48043 11.1056 0.292893 11.2931C0.105357 11.4807 0 11.735 0 12.0002C0 12.2655 0.105357 12.5198 0.292893 12.7074C0.48043 12.8949 0.734784 13.0002 1 13.0002H2V15.0002C2.00159 16.3258 2.52888 17.5967 3.46622 18.534C4.40356 19.4714 5.67441 19.9987 7 20.0002H19C20.3256 19.9987 21.5964 19.4714 22.5338 18.534C23.4711 17.5967 23.9984 16.3258 24 15.0002V9.00024C23.9984 7.67465 23.4711 6.4038 22.5338 5.46646C21.5964 4.52913 20.3256 4.00183 19 4.00024ZM4 15.0002V13.0002C4.26522 13.0002 4.51957 12.8949 4.70711 12.7074C4.89464 12.5198 5 12.2655 5 12.0002C5 11.735 4.89464 11.4807 4.70711 11.2931C4.51957 11.1056 4.26522 11.0002 4 11.0002V9.00024C4 8.20459 4.31607 7.44153 4.87868 6.87892C5.44129 6.31631 6.20435 6.00024 7 6.00024V18.0002C6.20435 18.0002 5.44129 17.6842 4.87868 17.1216C4.31607 16.559 4 15.7959 4 15.0002ZM22 15.0002C22 15.7959 21.6839 16.559 21.1213 17.1216C20.5587 17.6842 19.7956 18.0002 19 18.0002H9V6.00024H19C19.7956 6.00024 20.5587 6.31631 21.1213 6.87892C21.6839 7.44153 22 8.20459 22 9.00024V15.0002Z" fill="currentColor"/>
</g>
<defs>
<clipPath id="clip0_403_2988">
<rect width="24" height="24" fill="white"/>
</clipPath>
</defs>
</svg>
