<svg width="24" height="24" viewBox="0 0 24 24" fill="none" xmlns="http://www.w3.org/2000/svg">
<g clip-path="url(#clip0_403_2831)">
<path d="M19 22.0006H5C3.67441 21.999 2.40356 21.4717 1.46622 20.5344C0.528882 19.5971 0.00158786 18.3262 0 17.0006L0 7.00061C0.00158786 5.67502 0.528882 4.40417 1.46622 3.46683C2.40356 2.52949 3.67441 2.0022 5 2.00061H19C20.3256 2.0022 21.5964 2.52949 22.5338 3.46683C23.4711 4.40417 23.9984 5.67502 24 7.00061V17.0006C23.9984 18.3262 23.4711 19.5971 22.5338 20.5344C21.5964 21.4717 20.3256 21.999 19 22.0006ZM5 4.00061C4.20435 4.00061 3.44129 4.31668 2.87868 4.87929C2.31607 5.4419 2 6.20496 2 7.00061V17.0006C2 17.7963 2.31607 18.5593 2.87868 19.1219C3.44129 19.6845 4.20435 20.0006 5 20.0006H19C19.7956 20.0006 20.5587 19.6845 21.1213 19.1219C21.6839 18.5593 22 17.7963 22 17.0006V7.00061C22 6.20496 21.6839 5.4419 21.1213 4.87929C20.5587 4.31668 19.7956 4.00061 19 4.00061H5Z" fill="currentColor"/>
<path d="M18.9999 13.0006H10.9999C10.7347 13.0006 10.4803 12.8953 10.2928 12.7077C10.1052 12.5202 9.99988 12.2658 9.99988 12.0006C9.99988 11.7354 10.1052 11.481 10.2928 11.2935C10.4803 11.106 10.7347 11.0006 10.9999 11.0006H18.9999C19.2651 11.0006 19.5194 11.106 19.707 11.2935C19.8945 11.481 19.9999 11.7354 19.9999 12.0006C19.9999 12.2658 19.8945 12.5202 19.707 12.7077C19.5194 12.8953 19.2651 13.0006 18.9999 13.0006Z" fill="currentColor"/>
<path d="M7.00012 13.0006H5.00012C4.7349 13.0006 4.48055 12.8953 4.29301 12.7077C4.10548 12.5202 4.00012 12.2658 4.00012 12.0006C4.00012 11.7354 4.10548 11.481 4.29301 11.2935C4.48055 11.106 4.7349 11.0006 5.00012 11.0006H7.00012C7.26533 11.0006 7.51969 11.106 7.70722 11.2935C7.89476 11.481 8.00011 11.7354 8.00011 12.0006C8.00011 12.2658 7.89476 12.5202 7.70722 12.7077C7.51969 12.8953 7.26533 13.0006 7.00012 13.0006Z" fill="currentColor"/>
<path d="M13.0001 17.9994H5.00012C4.73491 17.9994 4.48055 17.894 4.29302 17.7065C4.10548 17.519 4.00012 17.2646 4.00012 16.9994C4.00012 16.7342 4.10548 16.4798 4.29302 16.2923C4.48055 16.1047 4.73491 15.9994 5.00012 15.9994H13.0001C13.2653 15.9994 13.5197 16.1047 13.7072 16.2923C13.8948 16.4798 14.0001 16.7342 14.0001 16.9994C14.0001 17.2646 13.8948 17.519 13.7072 17.7065C13.5197 17.894 13.2653 17.9994 13.0001 17.9994Z" fill="currentColor"/>
<path d="M18.9999 17.9994H16.9999C16.7347 17.9994 16.4803 17.894 16.2928 17.7065C16.1052 17.519 15.9999 17.2646 15.9999 16.9994C15.9999 16.7342 16.1052 16.4798 16.2928 16.2923C16.4803 16.1047 16.7347 15.9994 16.9999 15.9994H18.9999C19.2651 15.9994 19.5194 16.1047 19.707 16.2923C19.8945 16.4798 19.9999 16.7342 19.9999 16.9994C19.9999 17.2646 19.8945 17.519 19.707 17.7065C19.5194 17.894 19.2651 17.9994 18.9999 17.9994Z" fill="currentColor"/>
</g>
<defs>
<clipPath id="clip0_403_2831">
<rect width="24" height="24" fill="white"/>
</clipPath>
</defs>
</svg>
