<svg width="24" height="24" viewBox="0 0 24 24" fill="none" xmlns="http://www.w3.org/2000/svg">
<g clip-path="url(#clip0_403_2934)">
<path d="M22.5138 10.972C22.106 10.6072 21.6247 10.3342 21.1023 10.1714C20.5799 10.0085 20.0287 9.95962 19.4858 10.028C17.2987 10.2924 15.1406 10.7577 13.0388 11.418C13.3588 8.913 15.7498 8 17.9998 8C18.7955 8 19.5585 7.68393 20.1212 7.12132C20.6838 6.55871 20.9998 5.79565 20.9998 5C20.9998 4.20435 20.6838 3.44129 20.1212 2.87868C19.5585 2.31607 18.7955 2 17.9998 2C17.0676 1.99978 16.1448 2.18649 15.286 2.54908C14.4272 2.91166 13.6498 3.44277 12.9998 4.111V1C12.9998 0.734784 12.8945 0.48043 12.7069 0.292893C12.5194 0.105357 12.265 0 11.9998 0C11.7346 0 11.4803 0.105357 11.2927 0.292893C11.1052 0.48043 10.9998 0.734784 10.9998 1V4.11C10.3496 3.44214 9.57216 2.91133 8.71339 2.54893C7.85462 2.18653 6.93194 1.99988 5.99983 2C5.20418 2 4.44112 2.31607 3.87851 2.87868C3.3159 3.44129 2.99983 4.20435 2.99983 5C2.99983 5.79565 3.3159 6.55871 3.87851 7.12132C4.44112 7.68393 5.20418 8 5.99983 8C8.24983 8 10.6408 8.913 10.9608 11.418C8.85905 10.7578 6.70094 10.2925 4.51383 10.028C3.97098 9.96001 3.41985 10.0091 2.89755 10.1719C2.37525 10.3348 1.89388 10.6076 1.48583 10.972C1.01516 11.4032 0.640964 11.929 0.387796 12.5149C0.134629 13.1009 0.00820946 13.7337 0.0168316 14.372C0.0168316 23.062 4.85183 24 6.93083 24C8.05975 23.9395 9.14092 23.5249 10.0208 22.815C10.5808 22.3407 11.2702 22.0453 11.9998 21.967C12.7295 22.0453 13.4189 22.3407 13.9788 22.815C14.8588 23.5247 15.94 23.9393 17.0688 24C19.1478 24 23.9828 23.062 23.9828 14.375C23.9916 13.7363 23.8653 13.1029 23.6121 12.5165C23.359 11.93 22.9847 11.4037 22.5138 10.972ZM17.9998 4C18.265 4 18.5194 4.10536 18.7069 4.29289C18.8945 4.48043 18.9998 4.73478 18.9998 5C18.9998 5.26522 18.8945 5.51957 18.7069 5.70711C18.5194 5.89464 18.265 6 17.9998 6C16.315 5.94531 14.6569 6.43098 13.2678 7.386C13.6054 6.39892 14.243 5.54196 15.0914 4.93489C15.9398 4.32782 16.9566 4.00096 17.9998 4ZM5.99983 6C5.73462 6 5.48026 5.89464 5.29273 5.70711C5.10519 5.51957 4.99983 5.26522 4.99983 5C4.99983 4.73478 5.10519 4.48043 5.29273 4.29289C5.48026 4.10536 5.73462 4 5.99983 4C7.04311 4.0012 8.05999 4.32814 8.90849 4.93516C9.757 5.54218 10.3948 6.399 10.7328 7.386C9.34349 6.43077 7.68498 5.9451 5.99983 6ZM17.0688 22C16.3392 21.9217 15.6498 21.6263 15.0898 21.152C14.2097 20.4426 13.1287 20.028 11.9998 19.967C10.871 20.028 9.78998 20.4426 8.90983 21.152C8.34988 21.6263 7.66049 21.9217 6.93083 22C3.76183 22 2.01683 19.292 2.01683 14.375C2.01052 14.019 2.0784 13.6656 2.21613 13.3373C2.35386 13.009 2.55844 12.7129 2.81683 12.468C3.01226 12.2897 3.24459 12.1567 3.49728 12.0784C3.74998 12.0001 4.01682 11.9784 4.27883 12.015C6.78922 12.3104 9.25657 12.8977 11.6308 13.765C11.8696 13.8607 12.1361 13.8607 12.3748 13.765C14.7486 12.8961 17.2161 12.3087 19.7268 12.015C19.9888 11.9789 20.2555 12.0008 20.5082 12.0791C20.7608 12.1573 20.9931 12.2901 21.1888 12.468C21.4474 12.7128 21.6521 13.0088 21.7899 13.3372C21.9276 13.6655 21.9954 14.019 21.9888 14.375C21.9828 19.292 20.2378 22 17.0688 22Z" fill="currentColor"/>
<path d="M17.83 15.023C15.309 15.6 12 16.648 12 16.648C14.009 16.861 16.056 18.699 17.114 18.993C18.223 19.301 18.641 18.149 18.981 16.268C19.02 16.1049 19.0183 15.9348 18.9759 15.7726C18.9335 15.6104 18.8518 15.4612 18.738 15.3381C18.6242 15.215 18.4818 15.1218 18.3234 15.0669C18.1651 15.0119 17.9956 14.9968 17.83 15.023Z" fill="currentColor"/>
<path d="M5.01893 16.268C5.35894 18.149 5.77694 19.301 6.88594 18.993C7.94394 18.699 9.98595 16.861 11.9999 16.648C11.9999 16.648 8.69094 15.596 6.16994 15.023C6.00435 14.9968 5.83487 15.0119 5.6765 15.0669C5.51812 15.1218 5.37574 15.215 5.26194 15.3381C5.14814 15.4612 5.06643 15.6104 5.02405 15.7726C4.98166 15.9348 4.97991 16.1049 5.01893 16.268Z" fill="currentColor"/>
</g>
<defs>
<clipPath id="clip0_403_2934">
<rect width="24" height="24" fill="white"/>
</clipPath>
</defs>
</svg>
