<svg width="24" height="24" viewBox="0 0 24 24" fill="none" xmlns="http://www.w3.org/2000/svg">
<g clip-path="url(#clip0_403_2962)">
<path d="M19 0H5C3.67441 0.00158786 2.40356 0.528882 1.46622 1.46622C0.528882 2.40356 0.00158786 3.67441 0 5L0 19C0.00158786 20.3256 0.528882 21.5964 1.46622 22.5338C2.40356 23.4711 3.67441 23.9984 5 24H16.343C16.9998 24.0016 17.6504 23.873 18.2572 23.6215C18.864 23.37 19.4149 23.0008 19.878 22.535L22.536 19.879C23.0017 19.4157 23.3709 18.8646 23.6222 18.2576C23.8735 17.6507 24.0019 16.9999 24 16.343V5C23.9984 3.67441 23.4711 2.40356 22.5338 1.46622C21.5964 0.528882 20.3256 0.00158786 19 0V0ZM2 19V5C2 4.20435 2.31607 3.44129 2.87868 2.87868C3.44129 2.31607 4.20435 2 5 2H19C19.7957 2 20.5587 2.31607 21.1213 2.87868C21.6839 3.44129 22 4.20435 22 5V15H18C17.2044 15 16.4413 15.3161 15.8787 15.8787C15.3161 16.4413 15 17.2044 15 18V22H5C4.20435 22 3.44129 21.6839 2.87868 21.1213C2.31607 20.5587 2 19.7957 2 19ZM18.464 21.121C18.0608 21.5198 17.5534 21.7971 17 21.921V18C17 17.7348 17.1054 17.4804 17.2929 17.2929C17.4804 17.1054 17.7348 17 18 17H21.922C21.8004 17.5546 21.5229 18.0629 21.122 18.465L18.464 21.121ZM14 9.084V6.984C14.0009 6.72237 14.0534 6.46348 14.1544 6.22215C14.2555 5.98081 14.4031 5.76175 14.5888 5.57749C14.7745 5.39323 14.9948 5.24739 15.2369 5.1483C15.4791 5.04921 15.7384 4.99882 16 5C16.3652 5.00292 16.7228 5.10468 17.0348 5.29448C17.3468 5.48429 17.6015 5.75504 17.772 6.078C17.8101 6.15088 17.8334 6.23056 17.8407 6.31247C17.848 6.39437 17.8391 6.47692 17.8145 6.55538C17.7899 6.63385 17.7501 6.7067 17.6973 6.76978C17.6446 6.83285 17.5799 6.88492 17.507 6.923C17.4341 6.96108 17.3544 6.98444 17.2725 6.99173C17.1906 6.99902 17.1081 6.99011 17.0296 6.96551C16.9512 6.9409 16.8783 6.90108 16.8152 6.84832C16.7522 6.79555 16.7001 6.73088 16.662 6.658C16.5971 6.53796 16.5017 6.43709 16.3856 6.36549C16.2694 6.29389 16.1364 6.25406 16 6.25C15.9013 6.24906 15.8034 6.26783 15.712 6.3052C15.6207 6.34257 15.5377 6.3978 15.4679 6.46764C15.3982 6.53749 15.3431 6.62055 15.3058 6.71196C15.2686 6.80337 15.2499 6.9013 15.251 7V9.068C15.2498 9.16679 15.2683 9.26482 15.3055 9.35635C15.3427 9.44788 15.3978 9.53106 15.4676 9.60101C15.5373 9.67096 15.6204 9.72627 15.7118 9.76371C15.8032 9.80114 15.9012 9.81994 16 9.819C16.1957 9.81678 16.3829 9.73909 16.5226 9.60214C16.6624 9.46519 16.7438 9.27956 16.75 9.084V9H16.5C16.3674 9 16.2402 8.94732 16.1464 8.85355C16.0527 8.75979 16 8.63261 16 8.5C16 8.36739 16.0527 8.24022 16.1464 8.14645C16.2402 8.05268 16.3674 8 16.5 8H17.25C17.4489 8 17.6397 8.07902 17.7803 8.21967C17.921 8.36032 18 8.55109 18 8.75V9.084C17.9958 9.61166 17.7832 10.1163 17.4086 10.4879C17.034 10.8595 16.5277 11.068 16 11.068C15.7384 11.0692 15.4791 11.0188 15.2369 10.9197C14.9948 10.8206 14.7745 10.6748 14.5888 10.4905C14.4031 10.3063 14.2555 10.0872 14.1544 9.84586C14.0534 9.60452 14.0009 9.34563 14 9.084ZM8 5.65V9.006C7.99922 9.27804 7.94479 9.54726 7.83983 9.79825C7.73488 10.0492 7.58146 10.2771 7.38835 10.4687C7.19525 10.6603 6.96625 10.8119 6.71446 10.915C6.46267 11.018 6.19304 11.0703 5.921 11.069C5.53537 11.0618 5.15909 10.9491 4.83309 10.743C4.50708 10.5369 4.24384 10.2453 4.072 9.9C4.03191 9.82355 4.00743 9.73989 3.99997 9.65389C3.99252 9.56789 4.00224 9.48127 4.02858 9.39906C4.05492 9.31686 4.09734 9.24071 4.15338 9.17505C4.20942 9.10939 4.27796 9.05553 4.35501 9.01661C4.43206 8.97769 4.51608 8.95448 4.60218 8.94833C4.68829 8.94218 4.77475 8.95322 4.85655 8.9808C4.93835 9.00838 5.01384 9.05196 5.07864 9.10899C5.14344 9.16602 5.19625 9.23537 5.234 9.313C5.29747 9.4436 5.39456 9.55495 5.51529 9.63561C5.63602 9.71628 5.77606 9.76335 5.921 9.772C6.02394 9.77308 6.12605 9.75354 6.22131 9.71452C6.31658 9.6755 6.40306 9.6178 6.47567 9.54482C6.54827 9.47185 6.60553 9.38507 6.64406 9.28961C6.68259 9.19414 6.70161 9.09193 6.7 8.989V5.649C6.7 5.47661 6.76848 5.31128 6.89038 5.18938C7.01228 5.06748 7.17761 4.999 7.35 4.999C7.52239 4.999 7.68772 5.06748 7.80962 5.18938C7.93152 5.31128 8 5.47661 8 5.649V5.65ZM11.09 5H10C9.73479 5 9.48043 5.10536 9.29289 5.29289C9.10536 5.48043 9 5.73478 9 6V10.444C9 10.6098 9.06585 10.7687 9.18306 10.8859C9.30027 11.0032 9.45924 11.069 9.625 11.069C9.79076 11.069 9.94973 11.0032 10.0669 10.8859C10.1842 10.7687 10.25 10.6098 10.25 10.444V9.223H11.09C11.3673 9.223 11.6419 9.16839 11.898 9.06227C12.1542 8.95616 12.387 8.80063 12.5831 8.60456C12.7791 8.40849 12.9347 8.17572 13.0408 7.91954C13.1469 7.66336 13.2015 7.38879 13.2015 7.1115C13.2015 6.83421 13.1469 6.55964 13.0408 6.30346C12.9347 6.04729 12.7791 5.81452 12.5831 5.61844C12.387 5.42237 12.1542 5.26684 11.898 5.16073C11.6419 5.05462 11.3673 5 11.09 5ZM11.09 7.969H10.258L10.252 6.25H11.09C11.2053 6.24607 11.3203 6.26539 11.428 6.30681C11.5357 6.34823 11.634 6.41091 11.717 6.49111C11.8 6.57131 11.866 6.66739 11.911 6.77363C11.9561 6.87987 11.9793 6.9941 11.9793 7.1095C11.9793 7.22491 11.9561 7.33913 11.911 7.44537C11.866 7.55161 11.8 7.64769 11.717 7.72789C11.634 7.80809 11.5357 7.87077 11.428 7.91219C11.3203 7.95362 11.2053 7.97294 11.09 7.969Z" fill="currentColor"/>
</g>
<defs>
<clipPath id="clip0_403_2962">
<rect width="24" height="24" fill="white"/>
</clipPath>
</defs>
</svg>
