<svg width="24" height="24" viewBox="0 0 24 24" fill="none" xmlns="http://www.w3.org/2000/svg">
<g clip-path="url(#clip0_403_2958)">
<path d="M2 11H13C13.5304 11 14.0391 10.7893 14.4142 10.4142C14.7893 10.0391 15 9.53043 15 9V2C15 1.46957 14.7893 0.960859 14.4142 0.585786C14.0391 0.210714 13.5304 0 13 0L2 0C1.46957 0 0.960859 0.210714 0.585786 0.585786C0.210714 0.960859 0 1.46957 0 2L0 9C0 9.53043 0.210714 10.0391 0.585786 10.4142C0.960859 10.7893 1.46957 11 2 11ZM2 2H13V9H2V2Z" fill="currentColor"/>
<path d="M22.0002 0H19.0002C18.4697 0 17.961 0.210714 17.5859 0.585786C17.2109 0.960859 17.0002 1.46957 17.0002 2V9C17.0002 9.53043 17.2109 10.0391 17.5859 10.4142C17.961 10.7893 18.4697 11 19.0002 11H22.0002C22.5306 11 23.0393 10.7893 23.4144 10.4142C23.7894 10.0391 24.0002 9.53043 24.0002 9V2C24.0002 1.46957 23.7894 0.960859 23.4144 0.585786C23.0393 0.210714 22.5306 0 22.0002 0V0ZM22.0002 9H19.0002V2H22.0002V9Z" fill="currentColor"/>
<path d="M5 13.0004H2C1.46957 13.0004 0.960859 13.2111 0.585787 13.5862C0.210714 13.9612 0 14.4699 0 15.0004L0 22.0004C0 22.5308 0.210714 23.0395 0.585787 23.4146C0.960859 23.7896 1.46957 24.0004 2 24.0004H5C5.53043 24.0004 6.03914 23.7896 6.41421 23.4146C6.78929 23.0395 7 22.5308 7 22.0004V15.0004C7 14.4699 6.78929 13.9612 6.41421 13.5862C6.03914 13.2111 5.53043 13.0004 5 13.0004ZM5 22.0004H2V15.0004H5V22.0004Z" fill="currentColor"/>
<path d="M22 13.0004H11C10.4696 13.0004 9.96086 13.2111 9.58579 13.5862C9.21071 13.9612 9 14.4699 9 15.0004V22.0004C9 22.5308 9.21071 23.0395 9.58579 23.4146C9.96086 23.7896 10.4696 24.0004 11 24.0004H22C22.5304 24.0004 23.0391 23.7896 23.4142 23.4146C23.7893 23.0395 24 22.5308 24 22.0004V15.0004C24 14.4699 23.7893 13.9612 23.4142 13.5862C23.0391 13.2111 22.5304 13.0004 22 13.0004ZM22 22.0004H11V15.0004H22V22.0004Z" fill="currentColor"/>
</g>
<defs>
<clipPath id="clip0_403_2958">
<rect width="24" height="24" fill="white"/>
</clipPath>
</defs>
</svg>
