<svg width="24" height="24" viewBox="0 0 24 24" fill="none" xmlns="http://www.w3.org/2000/svg">
<g clip-path="url(#clip0_403_3202)">
<path d="M12 0C9.62663 0 7.30655 0.703788 5.33316 2.02236C3.35977 3.34094 1.8217 5.21509 0.913451 7.4078C0.00519943 9.60051 -0.232441 12.0133 0.230582 14.3411C0.693605 16.6689 1.83649 18.8071 3.51472 20.4853C5.19295 22.1635 7.33115 23.3064 9.65892 23.7694C11.9867 24.2324 14.3995 23.9948 16.5922 23.0866C18.7849 22.1783 20.6591 20.6402 21.9776 18.6668C23.2962 16.6935 24 14.3734 24 12C23.9966 8.81846 22.7312 5.76821 20.4815 3.51852C18.2318 1.26883 15.1815 0.00344108 12 0V0ZM22 12C21.9987 12.6378 21.9365 13.274 21.814 13.9L19.882 13.32C20.0393 12.447 20.0393 11.553 19.882 10.68L21.814 10.1C21.9365 10.726 21.9987 11.3622 22 12ZM21.24 8.184L19.31 8.763C18.5013 6.94934 17.0507 5.49868 15.237 4.69L15.816 2.76C18.2695 3.78051 20.2195 5.73049 21.24 8.184ZM12 18C10.8133 18 9.65328 17.6481 8.66658 16.9888C7.67989 16.3295 6.91085 15.3925 6.45673 14.2961C6.0026 13.1997 5.88378 11.9933 6.11529 10.8295C6.3468 9.66557 6.91825 8.59648 7.75736 7.75736C8.59648 6.91825 9.66558 6.3468 10.8295 6.11529C11.9934 5.88378 13.1997 6.0026 14.2961 6.45672C15.3925 6.91085 16.3295 7.67988 16.9888 8.66658C17.6481 9.65327 18 10.8133 18 12C17.9984 13.5908 17.3658 15.116 16.2409 16.2409C15.116 17.3658 13.5908 17.9984 12 18ZM13.9 2.186L13.32 4.118C12.447 3.96067 11.553 3.96067 10.68 4.118L10.1 2.186C11.3545 1.93807 12.6455 1.93807 13.9 2.186ZM8.18401 2.76L8.76301 4.69C6.94934 5.49868 5.49869 6.94934 4.69001 8.763L2.76001 8.184C3.78052 5.73049 5.73049 3.78051 8.18401 2.76ZM2.00001 12C2.00127 11.3622 2.06355 10.726 2.18601 10.1L4.11801 10.68C3.96067 11.553 3.96067 12.447 4.11801 13.32L2.18601 13.9C2.06355 13.274 2.00127 12.6378 2.00001 12ZM2.76001 15.816L4.69001 15.237C5.49869 17.0507 6.94934 18.5013 8.76301 19.31L8.18401 21.24C5.73049 20.2195 3.78052 18.2695 2.76001 15.816ZM10.1 21.816L10.68 19.884C11.553 20.0413 12.447 20.0413 13.32 19.884L13.9 21.816C12.6455 22.0639 11.3545 22.0639 10.1 21.816ZM15.816 21.241L15.237 19.312C17.0507 18.5033 18.5013 17.0527 19.31 15.239L21.24 15.818C20.2193 18.2707 18.2693 20.2197 15.816 21.239V21.241ZM14.631 10.892C14.8705 11.2117 15 11.6005 15 12C15 12.3995 14.8705 12.7883 14.631 13.108L12.738 15.631C12.6521 15.7457 12.5407 15.8387 12.4126 15.9028C12.2845 15.967 12.1433 16.0003 12 16.0003C11.8568 16.0003 11.7155 15.967 11.5874 15.9028C11.4593 15.8387 11.3479 15.7457 11.262 15.631L9.36901 13.108C9.12947 12.7883 9.00001 12.3995 9.00001 12C9.00001 11.6005 9.12947 11.2117 9.36901 10.892L11.262 8.369C11.3479 8.25434 11.4593 8.16126 11.5874 8.09715C11.7155 8.03305 11.8568 7.99967 12 7.99967C12.1433 7.99967 12.2845 8.03305 12.4126 8.09715C12.5407 8.16126 12.6521 8.25434 12.738 8.369L14.631 10.892Z" fill="currentColor"/>
</g>
<defs>
<clipPath id="clip0_403_3202">
<rect width="24" height="24" fill="white"/>
</clipPath>
</defs>
</svg>
