<svg width="24" height="24" viewBox="0 0 24 24" fill="none" xmlns="http://www.w3.org/2000/svg">
<g clip-path="url(#clip0_403_2892)">
<path d="M18.9999 14.0007C18.1769 14.0061 17.3683 14.2175 16.6479 14.6157L13.2999 10.6007L20.7669 1.64067C20.9292 1.43616 21.0051 1.17631 20.9783 0.916625C20.9516 0.65694 20.8243 0.418012 20.6238 0.250885C20.4232 0.0837582 20.1653 0.00168469 19.905 0.0221982C19.6447 0.0427117 19.4028 0.164186 19.2309 0.360669L11.9999 9.03867L4.76794 0.360669C4.59605 0.164186 4.35414 0.0427117 4.09388 0.0221982C3.83363 0.00168469 3.57567 0.0837582 3.37512 0.250885C3.17457 0.418012 3.04732 0.65694 3.02057 0.916625C2.99382 1.17631 3.06968 1.43616 3.23194 1.64067L10.6999 10.6007L7.35194 14.6157C6.6314 14.218 5.82293 14.0066 4.99994 14.0007C4.01103 14.0007 3.04434 14.2939 2.22209 14.8433C1.39984 15.3927 0.758982 16.1736 0.380544 17.0873C0.00210539 18.0009 -0.0969113 19.0062 0.0960148 19.9761C0.288941 20.946 0.765145 21.8369 1.46441 22.5362C2.16367 23.2355 3.05458 23.7117 4.02449 23.9046C4.99439 24.0975 5.99973 23.9985 6.91336 23.6201C7.82699 23.2416 8.60788 22.6008 9.15729 21.7785C9.7067 20.9563 9.99994 19.9896 9.99994 19.0007C9.99421 17.8707 9.60179 16.7767 8.88794 15.9007L11.9999 12.1627L15.1109 15.9007C14.398 16.7771 14.006 17.8709 13.9999 19.0007C13.9999 19.9896 14.2932 20.9563 14.8426 21.7785C15.392 22.6008 16.1729 23.2416 17.0865 23.6201C18.0002 23.9985 19.0055 24.0975 19.9754 23.9046C20.9453 23.7117 21.8362 23.2355 22.5355 22.5362C23.2347 21.8369 23.7109 20.946 23.9039 19.9761C24.0968 19.0062 23.9978 18.0009 23.6193 17.0873C23.2409 16.1736 22.6 15.3927 21.7778 14.8433C20.9555 14.2939 19.9888 14.0007 18.9999 14.0007ZM4.99994 22.0007C4.4066 22.0007 3.82658 21.8247 3.33323 21.4951C2.83988 21.1654 2.45537 20.6969 2.2283 20.1487C2.00124 19.6005 1.94183 18.9973 2.05759 18.4154C2.17334 17.8335 2.45906 17.2989 2.87862 16.8793C3.29818 16.4598 3.83273 16.1741 4.41467 16.0583C4.99661 15.9426 5.59981 16.002 6.14799 16.229C6.69617 16.4561 7.16471 16.8406 7.49435 17.334C7.82399 17.8273 7.99994 18.4073 7.99994 19.0007C7.99994 19.7963 7.68387 20.5594 7.12126 21.122C6.55865 21.6846 5.79559 22.0007 4.99994 22.0007ZM18.9999 22.0007C18.4066 22.0007 17.8266 21.8247 17.3332 21.4951C16.8399 21.1654 16.4554 20.6969 16.2283 20.1487C16.0012 19.6005 15.9418 18.9973 16.0576 18.4154C16.1733 17.8335 16.4591 17.2989 16.8786 16.8793C17.2982 16.4598 17.8327 16.1741 18.4147 16.0583C18.9966 15.9426 19.5998 16.002 20.148 16.229C20.6962 16.4561 21.1647 16.8406 21.4944 17.334C21.824 17.8273 21.9999 18.4073 21.9999 19.0007C21.9999 19.7963 21.6839 20.5594 21.1213 21.122C20.5587 21.6846 19.7956 22.0007 18.9999 22.0007Z" fill="currentColor"/>
</g>
<defs>
<clipPath id="clip0_403_2892">
<rect width="24" height="24" fill="white"/>
</clipPath>
</defs>
</svg>
