<svg width="24" height="24" viewBox="0 0 24 24" fill="none" xmlns="http://www.w3.org/2000/svg">
<g clip-path="url(#clip0_403_2808)">
<path d="M15.9088 23.9993C15.1375 23.9985 14.3981 23.6918 13.8527 23.1464C13.3073 22.6011 13.0006 21.8616 12.9998 21.0903V14.9993C12.9998 14.7341 12.8944 14.4798 12.7069 14.2922C12.5194 14.1047 12.265 13.9993 11.9998 13.9993C11.7346 13.9993 11.4802 14.1047 11.2927 14.2922C11.1051 14.4798 10.9998 14.7341 10.9998 14.9993V21.0903C10.9998 21.7289 10.7898 22.3497 10.4022 22.8571C10.0145 23.3645 9.47076 23.7304 8.85467 23.8982C8.23858 24.066 7.58439 24.0266 6.99294 23.7859C6.40149 23.5452 5.90563 23.1167 5.58179 22.5663C3.18579 18.4623 -0.000211202 12.2783 -0.000211202 5.99933C-0.0303888 5.2033 0.104162 4.40961 0.395012 3.66801C0.685861 2.9264 1.12674 2.25285 1.69002 1.68957C2.25331 1.12628 2.92686 0.685403 3.66846 0.394554C4.41007 0.103705 5.20376 -0.0308466 5.99979 -0.000668965C7.3288 -0.000157791 8.64963 0.207329 9.91479 0.614331C10.5864 0.847231 11.2893 0.977037 11.9998 0.999331C12.7102 0.977037 13.4132 0.847231 14.0848 0.614331C15.3499 0.207201 16.6708 -0.000288025 17.9998 -0.000668965C18.7958 -0.0308466 19.5895 0.103705 20.3311 0.394554C21.0727 0.685403 21.7463 1.12628 22.3096 1.68957C22.8728 2.25285 23.3137 2.9264 23.6046 3.66801C23.8954 4.40961 24.03 5.2033 23.9998 5.99933C23.9998 12.2773 20.8138 18.4613 18.4178 22.5663C18.1605 23.0029 17.7937 23.3648 17.3536 23.6161C16.9136 23.8674 16.4156 23.9995 15.9088 23.9993ZM11.9998 11.9993C12.7954 11.9993 13.5585 12.3154 14.1211 12.878C14.6837 13.4406 14.9998 14.2037 14.9998 14.9993V21.0903C15.0002 21.2892 15.0656 21.4825 15.1861 21.6407C15.3067 21.799 15.4757 21.9134 15.6673 21.9665C15.859 22.0197 16.0628 22.0087 16.2476 21.9351C16.4324 21.8616 16.588 21.7296 16.6908 21.5593C18.9698 17.6533 21.9998 11.7923 21.9998 5.99933C22.0209 5.46839 21.9319 4.93882 21.7384 4.44396C21.5448 3.9491 21.2509 3.49966 20.8752 3.12393C20.4995 2.7482 20.05 2.45431 19.5552 2.26077C19.0603 2.06722 18.5307 1.97821 17.9998 1.99933C16.8591 1.99874 15.7256 2.17967 14.6418 2.53533C13.7894 2.82171 12.8988 2.97813 11.9998 2.99933C11.1008 2.97822 10.2102 2.8218 9.35779 2.53533C8.27395 2.17977 7.14046 1.99884 5.99979 1.99933C2.04479 1.99933 1.99979 5.83633 1.99979 5.99933C1.99979 11.7933 5.02979 17.6543 7.30979 21.5593C7.41228 21.7299 7.56785 21.8622 7.75268 21.9359C7.9375 22.0096 8.1414 22.0207 8.33313 21.9675C8.52487 21.9143 8.69388 21.7997 8.81429 21.6413C8.93469 21.4828 8.99985 21.2893 8.99979 21.0903V14.9993C8.99979 14.2037 9.31586 13.4406 9.87847 12.878C10.4411 12.3154 11.2041 11.9993 11.9998 11.9993Z" fill="currentColor"/>
</g>
<defs>
<clipPath id="clip0_403_2808">
<rect width="24" height="24" fill="white"/>
</clipPath>
</defs>
</svg>
