<svg width="24" height="24" viewBox="0 0 24 24" fill="none" xmlns="http://www.w3.org/2000/svg">
<path d="M12.0001 5.00012C10.6157 5.00012 9.26228 5.41066 8.11113 6.17983C6.95999 6.949 6.06278 8.04225 5.53297 9.32134C5.00316 10.6004 4.86453 12.0079 5.13463 13.3658C5.40472 14.7236 6.07141 15.9709 7.05038 16.9499C8.02935 17.9288 9.27663 18.5955 10.6345 18.8656C11.9924 19.1357 13.3998 18.9971 14.6789 18.4673C15.958 17.9375 17.0512 17.0403 17.8204 15.8891C18.5896 14.738 19.0001 13.3846 19.0001 12.0001C19.0001 10.1436 18.2626 8.36313 16.9499 7.05037C15.6371 5.73762 13.8566 5.00012 12.0001 5.00012ZM12.0001 17.0001C11.0112 17.0001 10.0445 16.7069 9.22227 16.1575C8.40003 15.6081 7.75917 14.8272 7.38073 13.9135C7.00229 12.9999 6.90327 11.9946 7.0962 11.0247C7.28913 10.0548 7.76533 9.16385 8.46459 8.46459C9.16385 7.76533 10.0548 7.28912 11.0247 7.0962C11.9946 6.90327 12.9999 7.00229 13.9135 7.38072C14.8272 7.75916 15.6081 8.40003 16.1575 9.22227C16.7069 10.0445 17.0001 11.0112 17.0001 12.0001C17.0001 13.3262 16.4733 14.598 15.5357 15.5357C14.598 16.4733 13.3262 17.0001 12.0001 17.0001Z" fill="currentColor"/>
</svg>
