<svg width="24" height="24" viewBox="0 0 24 24" fill="none" xmlns="http://www.w3.org/2000/svg">
<g clip-path="url(#clip0_403_3020)">
<path d="M23.6788 11.4081C22.8945 9.56651 21.664 7.94913 20.0983 6.70192C18.5327 5.45471 16.6812 4.61692 14.7108 4.26415C14.9246 3.80786 15.0199 3.30498 14.9877 2.80209C14.9554 2.2992 14.7968 1.81258 14.5265 1.38731C14.2561 0.962046 13.8828 0.611894 13.4412 0.369298C12.9995 0.126702 12.5037 -0.000488281 11.9998 -0.000488281C11.4959 -0.000488281 11.0001 0.126702 10.5584 0.369298C10.1167 0.611894 9.74344 0.962046 9.4731 1.38731C9.20276 1.81258 9.04413 2.2992 9.01191 2.80209C8.9797 3.30498 9.07493 3.80786 9.28879 4.26415C7.319 4.61747 5.46812 5.45549 3.90304 6.70267C2.33797 7.94984 1.10791 9.56694 0.323789 11.4081C0.0630125 12.0231 -0.0412389 12.693 0.0203646 13.3581C0.0819681 14.0232 0.307504 14.6626 0.676789 15.2191C1.03325 15.7536 1.51353 16.1941 2.07679 16.5031L2.67679 19.8751C2.88101 21.032 3.48658 22.0798 4.38701 22.8343C5.28744 23.5887 6.42506 24.0016 7.59979 24.0001H16.3998C17.5745 24.0017 18.712 23.5889 19.6123 22.8344C20.5126 22.0799 21.118 21.032 21.3218 19.8751L21.9218 16.5041C22.4854 16.1956 22.9658 15.755 23.3218 15.2201C23.6916 14.6637 23.9178 14.0243 23.9801 13.3591C24.0424 12.6939 23.9389 12.0236 23.6788 11.4081ZM11.9998 2.00015C12.265 2.00015 12.5194 2.1055 12.7069 2.29304C12.8944 2.48058 12.9998 2.73493 12.9998 3.00015C12.9998 3.26536 12.8944 3.51972 12.7069 3.70725C12.5194 3.89479 12.265 4.00015 11.9998 4.00015C11.7346 4.00015 11.4802 3.89479 11.2927 3.70725C11.1051 3.51972 10.9998 3.26536 10.9998 3.00015C10.9998 2.73493 11.1051 2.48058 11.2927 2.29304C11.4802 2.1055 11.7346 2.00015 11.9998 2.00015ZM19.3568 19.5251C19.2334 20.2194 18.8694 20.8481 18.3286 21.3007C17.7879 21.7533 17.105 22.0009 16.3998 22.0001H7.59979C6.89514 22.0002 6.21295 21.7522 5.67282 21.2997C5.1327 20.8472 4.7691 20.2189 4.64579 19.5251L4.27479 17.4451C4.82984 17.8338 5.50014 18.0232 6.17653 17.9823C6.85292 17.9415 7.49556 17.6728 7.99979 17.2201C8.5488 17.7142 9.26123 17.9875 9.99979 17.9875C10.7383 17.9875 11.4508 17.7142 11.9998 17.2201C12.5488 17.7142 13.2612 17.9875 13.9998 17.9875C14.7383 17.9875 15.4508 17.7142 15.9998 17.2201C16.5042 17.6736 17.1475 17.9427 17.8245 17.9835C18.5016 18.0244 19.1725 17.8346 19.7278 17.4451L19.3568 19.5251ZM21.6568 14.1121C21.4774 14.3874 21.2316 14.6131 20.942 14.7683C20.6524 14.9235 20.3283 15.0032 19.9998 15.0001C19.7635 15.0105 19.5321 15.0717 19.3216 15.1795C19.111 15.2874 18.9262 15.4394 18.7798 15.6251C18.685 15.7403 18.566 15.8331 18.4311 15.8968C18.2962 15.9605 18.1489 15.9935 17.9998 15.9935C17.8506 15.9935 17.7033 15.9605 17.5685 15.8968C17.4336 15.8331 17.3145 15.7403 17.2198 15.6251C17.0772 15.4365 16.8929 15.2834 16.6812 15.178C16.4695 15.0726 16.2363 15.0178 15.9998 15.0178C15.7633 15.0178 15.5301 15.0726 15.3184 15.178C15.1067 15.2834 14.9223 15.4365 14.7798 15.6251C14.685 15.7403 14.566 15.8331 14.4311 15.8968C14.2962 15.9605 14.1489 15.9935 13.9998 15.9935C13.8506 15.9935 13.7033 15.9605 13.5685 15.8968C13.4336 15.8331 13.3145 15.7403 13.2198 15.6251C13.0772 15.4365 12.8929 15.2834 12.6812 15.178C12.4695 15.0726 12.2363 15.0178 11.9998 15.0178C11.7633 15.0178 11.5301 15.0726 11.3184 15.178C11.1067 15.2834 10.9223 15.4365 10.7798 15.6251C10.685 15.7403 10.566 15.8331 10.4311 15.8968C10.2962 15.9605 10.1489 15.9935 9.99979 15.9935C9.85064 15.9935 9.70335 15.9605 9.56849 15.8968C9.43362 15.8331 9.31454 15.7403 9.21979 15.6251C9.07725 15.4365 8.89289 15.2834 8.6812 15.178C8.46951 15.0726 8.23626 15.0178 7.99979 15.0178C7.76332 15.0178 7.53007 15.0726 7.31838 15.178C7.10669 15.2834 6.92233 15.4365 6.77979 15.6251C6.68504 15.7403 6.56596 15.8331 6.43109 15.8968C6.29623 15.9605 6.14893 15.9935 5.99979 15.9935C5.85064 15.9935 5.70335 15.9605 5.56849 15.8968C5.43362 15.8331 5.31454 15.7403 5.21979 15.6251C5.07342 15.4393 4.88864 15.2872 4.67808 15.1793C4.46752 15.0715 4.23615 15.0103 3.99979 15.0001C3.67139 15.0031 3.34753 14.9234 3.05811 14.7682C2.76868 14.613 2.52302 14.3873 2.34379 14.1121C2.15486 13.8315 2.03963 13.5077 2.00869 13.1708C1.97776 12.8339 2.03213 12.4945 2.16679 12.1841C5.43379 3.98415 18.5668 3.98415 21.8348 12.1841C21.9694 12.4945 22.0238 12.8339 21.9929 13.1708C21.962 13.5077 21.8467 13.8315 21.6578 14.1121H21.6568Z" fill="currentColor"/>
</g>
<defs>
<clipPath id="clip0_403_3020">
<rect width="24" height="24" fill="white"/>
</clipPath>
</defs>
</svg>
