<svg width="24" height="24" viewBox="0 0 24 24" fill="none" xmlns="http://www.w3.org/2000/svg">
<g clip-path="url(#clip0_403_2982)">
<path d="M8.965 24H4C2.93913 24 1.92172 23.5786 1.17157 22.8284C0.421427 22.0783 0 21.0609 0 20V15C0 13.9391 0.421427 12.9217 1.17157 12.1716C1.92172 11.4214 2.93913 11 4 11H12.857C13.3982 11.0003 13.9302 11.1402 14.4014 11.4063C14.8727 11.6724 15.2673 12.0557 15.547 12.519L18.764 8.984C19.0301 8.69139 19.3512 8.45409 19.7091 8.28566C20.0669 8.11723 20.4545 8.02098 20.8496 8.00241C21.2446 7.98383 21.6395 8.0433 22.0116 8.17741C22.3836 8.31152 22.7256 8.51765 23.018 8.784C23.6014 9.31993 23.951 10.0635 23.9916 10.8546C24.0321 11.6458 23.7605 12.4212 23.235 13.014L16.435 20.651C15.4961 21.704 14.3453 22.5467 13.0579 23.1239C11.7706 23.701 10.3758 23.9996 8.965 24ZM4 13C3.46957 13 2.96086 13.2107 2.58579 13.5858C2.21071 13.9609 2 14.4696 2 15V20C2 20.5304 2.21071 21.0391 2.58579 21.4142C2.96086 21.7893 3.46957 22 4 22H8.965C10.0929 21.9995 11.208 21.7607 12.2372 21.2992C13.2664 20.8377 14.1864 20.1639 14.937 19.322L21.742 11.684C21.9187 11.485 22.0101 11.2246 21.9967 10.9588C21.9832 10.693 21.8659 10.4431 21.67 10.263C21.4708 10.0839 21.2096 9.98958 20.942 10C20.8093 10.0056 20.6791 10.0376 20.5589 10.0941C20.4387 10.1506 20.331 10.2304 20.242 10.329L15.816 15.2C15.6217 15.7378 15.285 16.2127 14.8419 16.5741C14.3988 16.9355 13.8659 17.1698 13.3 17.252L8.139 17.99C7.87644 18.0277 7.60966 17.9595 7.39737 17.8004C7.18508 17.6414 7.04466 17.4046 7.007 17.142C6.96934 16.8794 7.03752 16.6127 7.19656 16.4004C7.35559 16.1881 7.59244 16.0477 7.855 16.01L13.017 15.273C13.3035 15.2329 13.5642 15.0856 13.7463 14.8608C13.9284 14.636 14.0184 14.3504 13.9981 14.0618C13.9778 13.7732 13.8487 13.5031 13.6368 13.306C13.425 13.1089 13.1463 12.9995 12.857 13H4ZM11 9.074C10.5468 9.07522 10.1067 8.92137 9.753 8.638C8.041 7.264 6 5.2 6 3.2C5.97545 2.37837 6.27728 1.58044 6.83948 0.980764C7.40168 0.381083 8.17849 0.0284522 9 0C9.74734 0.00291082 10.4644 0.295818 11 0.817C11.5356 0.295818 12.2527 0.00291082 13 0C13.8215 0.0284522 14.5983 0.381083 15.1605 0.980764C15.7227 1.58044 16.0246 2.37837 16 3.2C16 5.2 13.959 7.264 12.246 8.639C11.8924 8.92179 11.4528 9.07527 11 9.074ZM9 2C8.70935 2.02916 8.44175 2.17122 8.25475 2.39562C8.06775 2.62003 7.97627 2.90886 8 3.2C8 4.1 9.151 5.59 11.006 7.079C12.849 5.59 14 4.1 14 3.2C14.0237 2.90886 13.9323 2.62003 13.7453 2.39562C13.5582 2.17122 13.2906 2.02916 13 2C12.7094 2.02916 12.4418 2.17122 12.2547 2.39562C12.0677 2.62003 11.9763 2.90886 12 3.2C12 3.46522 11.8946 3.71957 11.7071 3.90711C11.5196 4.09464 11.2652 4.2 11 4.2C10.7348 4.2 10.4804 4.09464 10.2929 3.90711C10.1054 3.71957 10 3.46522 10 3.2C10.0237 2.90886 9.93225 2.62003 9.74525 2.39562C9.55825 2.17122 9.29065 2.02916 9 2Z" fill="currentColor"/>
</g>
<defs>
<clipPath id="clip0_403_2982">
<rect width="24" height="24" fill="white"/>
</clipPath>
</defs>
</svg>
