<svg width="24" height="24" viewBox="0 0 24 24" fill="none" xmlns="http://www.w3.org/2000/svg">
<g clip-path="url(#clip0_403_3239)">
<path d="M21.5 24.0002H2.5C2.1717 24.0002 1.84661 23.9356 1.54329 23.8099C1.23998 23.6843 0.964379 23.5002 0.732233 23.268C0.500087 23.0359 0.315938 22.7603 0.190301 22.457C0.0646644 22.1536 0 21.8285 0 21.5002C0 20.8372 0.263392 20.2013 0.732233 19.7325C1.20107 19.2636 1.83696 19.0002 2.5 19.0002H21.5C21.8283 19.0002 22.1534 19.0649 22.4567 19.1905C22.76 19.3162 23.0356 19.5003 23.2678 19.7325C23.4999 19.9646 23.6841 20.2402 23.8097 20.5435C23.9353 20.8468 24 21.1719 24 21.5002C24 21.8285 23.9353 22.1536 23.8097 22.457C23.6841 22.7603 23.4999 23.0359 23.2678 23.268C23.0356 23.5002 22.76 23.6843 22.4567 23.8099C22.1534 23.9356 21.8283 24.0002 21.5 24.0002ZM24 14.0002C24 13.4698 23.7893 12.9611 23.4142 12.586C23.0391 12.211 22.5304 12.0002 22 12.0002H2C1.46957 12.0002 0.960859 12.211 0.585786 12.586C0.210714 12.9611 0 13.4698 0 14.0002C0 14.5307 0.210714 15.0394 0.585786 15.4145C0.960859 15.7895 1.46957 16.0002 2 16.0002H22C22.5304 16.0002 23.0391 15.7895 23.4142 15.4145C23.7893 15.0394 24 14.5307 24 14.0002ZM24 7.50024C24 7.10242 23.842 6.72089 23.5607 6.43958C23.2794 6.15828 22.8978 6.00024 22.5 6.00024H1.5C1.10218 6.00024 0.720644 6.15828 0.43934 6.43958C0.158035 6.72089 0 7.10242 0 7.50024C0 7.89807 0.158035 8.2796 0.43934 8.5609C0.720644 8.84221 1.10218 9.00024 1.5 9.00024H22.5C22.8978 9.00024 23.2794 8.84221 23.5607 8.5609C23.842 8.2796 24 7.89807 24 7.50024ZM24 2.00024C24 1.73503 23.8946 1.48067 23.7071 1.29314C23.5196 1.1056 23.2652 1.00024 23 1.00024H1C0.734784 1.00024 0.48043 1.1056 0.292893 1.29314C0.105357 1.48067 0 1.73503 0 2.00024C0 2.26546 0.105357 2.51981 0.292893 2.70735C0.48043 2.89489 0.734784 3.00024 1 3.00024H23C23.2652 3.00024 23.5196 2.89489 23.7071 2.70735C23.8946 2.51981 24 2.26546 24 2.00024Z" fill="currentColor"/>
</g>
<defs>
<clipPath id="clip0_403_3239">
<rect width="24" height="24" fill="white"/>
</clipPath>
</defs>
</svg>
