<svg width="24" height="24" viewBox="0 0 24 24" fill="none" xmlns="http://www.w3.org/2000/svg">
<g clip-path="url(#clip0_403_3104)">
<path d="M23.7197 22.3002L17.7593 16.3398C21.2557 12.0636 20.6236 5.76253 16.3473 2.26613C12.071 -1.23028 5.77006 -0.598218 2.2736 3.67805C-1.22285 7.95431 -0.590694 14.2553 3.68557 17.7518C7.36892 20.7635 12.664 20.7635 16.3474 17.7518L22.3077 23.7122C22.7044 24.0953 23.3366 24.0843 23.7197 23.6876C24.0934 23.3007 24.0934 22.6872 23.7197 22.3002ZM2.04392 10.0249C2.04392 5.613 5.62048 2.03644 10.0324 2.03644C14.4443 2.03644 18.0209 5.613 18.0209 10.0249C18.0209 14.4368 14.4443 18.0134 10.0324 18.0134C5.62254 18.0084 2.04888 14.4348 2.04392 10.0249ZM12.0296 6.03066C11.2836 6.03403 10.5679 6.32602 10.0324 6.84548C9.49704 6.32606 8.78131 6.03403 8.03534 6.03066C6.32754 6.08981 4.9886 7.518 5.03965 9.22603C5.03965 11.2231 7.07773 13.2832 8.78824 14.6582C9.51635 15.2381 10.5485 15.2381 11.2766 14.6582C12.9872 13.2832 15.0252 11.2231 15.0252 9.22603C15.0762 7.518 13.7374 6.08981 12.0296 6.03066ZM10.0384 13.1005C8.18707 11.6126 7.03671 10.1248 7.03671 9.22608C6.98688 8.62111 7.43121 8.08786 8.03529 8.02781C8.63932 8.08786 9.0837 8.62111 9.03387 9.22608C9.03387 9.77756 9.48092 10.2247 10.0324 10.2247C10.5839 10.2247 11.031 9.77761 11.031 9.22608C10.9812 8.62111 11.4255 8.08786 12.0296 8.02781C12.6336 8.08786 13.078 8.62111 13.0282 9.22608C13.0281 10.1248 11.8778 11.6126 10.0384 13.1005Z" fill="currentColor"/>
</g>
<defs>
<clipPath id="clip0_403_3104">
<rect width="24" height="24" fill="white"/>
</clipPath>
</defs>
</svg>
