<svg width="24" height="24" viewBox="0 0 24 24" fill="none" xmlns="http://www.w3.org/2000/svg">
<g clip-path="url(#clip0_403_3093)">
<path d="M20 4H15C15 2.93913 14.5786 1.92172 13.8284 1.17157C13.0783 0.421427 12.0609 0 11 0L4 0C2.93913 0 1.92172 0.421427 1.17157 1.17157C0.421427 1.92172 0 2.93913 0 4L0 23C0 23.2652 0.105357 23.5196 0.292893 23.7071C0.48043 23.8946 0.734784 24 1 24C1.26522 24 1.51957 23.8946 1.70711 23.7071C1.89464 23.5196 2 23.2652 2 23V13H10C10 14.0609 10.4214 15.0783 11.1716 15.8284C11.9217 16.5786 12.9391 17 14 17H20C21.0609 17 22.0783 16.5786 22.8284 15.8284C23.5786 15.0783 24 14.0609 24 13V8C24 6.93913 23.5786 5.92172 22.8284 5.17157C22.0783 4.42143 21.0609 4 20 4ZM2 11V4C2 3.46957 2.21071 2.96086 2.58579 2.58579C2.96086 2.21071 3.46957 2 4 2H11C11.5304 2 12.0391 2.21071 12.4142 2.58579C12.7893 2.96086 13 3.46957 13 4V9C13 9.53043 12.7893 10.0391 12.4142 10.4142C12.0391 10.7893 11.5304 11 11 11H2ZM22 13C22 13.5304 21.7893 14.0391 21.4142 14.4142C21.0391 14.7893 20.5304 15 20 15H14C13.4696 15 12.9609 14.7893 12.5858 14.4142C12.2107 14.0391 12 13.5304 12 13V12.858C12.8561 12.637 13.6149 12.1385 14.1577 11.4404C14.7005 10.7424 14.9967 9.88421 15 9V6H20C20.5304 6 21.0391 6.21071 21.4142 6.58579C21.7893 6.96086 22 7.46957 22 8V13Z" fill="currentColor"/>
</g>
<defs>
<clipPath id="clip0_403_3093">
<rect width="24" height="24" fill="white"/>
</clipPath>
</defs>
</svg>
