<svg width="24" height="24" viewBox="0 0 24 24" fill="none" xmlns="http://www.w3.org/2000/svg">
<g clip-path="url(#clip0_403_3221)">
<path d="M11.8278 16.462C10.4773 14.6174 9.24644 12.6881 8.14285 10.686C9.66485 7.709 10.9998 4.189 10.9998 1C10.9998 0.734784 10.8945 0.48043 10.707 0.292893C10.5194 0.105357 10.2651 0 9.99985 0C9.73463 0 9.48028 0.105357 9.29274 0.292893C9.1052 0.48043 8.99985 0.734784 8.99985 1C8.85762 3.58859 8.17821 6.11924 7.00485 8.431C5.82831 6.11989 5.14551 3.58926 4.99985 1C4.99985 0.734784 4.89449 0.48043 4.70695 0.292893C4.51942 0.105357 4.26506 0 3.99985 0C3.73463 0 3.48027 0.105357 3.29274 0.292893C3.1052 0.48043 2.99984 0.734784 2.99984 1C2.99984 4.174 4.34185 7.7 5.86785 10.685C4.76814 12.692 3.53364 14.622 2.17284 16.462C1.64846 16.7292 1.18975 17.1091 0.829638 17.5746C0.46953 18.0401 0.216965 18.5796 0.0900808 19.1542C-0.0368033 19.7289 -0.0348581 20.3246 0.0957766 20.8984C0.226411 21.4722 0.482494 22.01 0.845635 22.4731C1.20878 22.9363 1.66996 23.3132 2.19608 23.577C2.7222 23.8407 3.30018 23.9847 3.88854 23.9985C4.4769 24.0124 5.06102 23.8957 5.59896 23.6571C6.1369 23.4184 6.61532 23.0635 6.99985 22.618C7.38461 23.0624 7.86292 23.4161 8.40049 23.6539C8.93805 23.8917 9.52156 24.0076 10.1092 23.9933C10.6968 23.979 11.274 23.8349 11.7994 23.5714C12.3248 23.3078 12.7854 22.9312 13.1481 22.4687C13.5109 22.0062 13.7668 21.4691 13.8976 20.8961C14.0284 20.323 14.0307 19.7281 13.9045 19.154C13.7784 18.5799 13.5267 18.0408 13.1677 17.5754C12.8087 17.11 12.3511 16.7298 11.8278 16.462ZM3.99985 22C3.60428 22 3.2176 21.8827 2.8887 21.6629C2.55981 21.4432 2.30346 21.1308 2.15209 20.7654C2.00071 20.3999 1.9611 19.9978 2.03827 19.6098C2.11544 19.2219 2.30593 18.8655 2.58563 18.5858C2.86534 18.3061 3.2217 18.1156 3.60966 18.0384C3.99763 17.9613 4.39976 18.0009 4.76521 18.1522C5.13066 18.3036 5.44302 18.56 5.66278 18.8889C5.88255 19.2178 5.99985 19.6044 5.99985 20C5.99985 20.5304 5.78913 21.0391 5.41406 21.4142C5.03899 21.7893 4.53028 22 3.99985 22ZM4.88284 16.105C5.46784 15.261 6.21985 14.114 7.00485 12.763C7.78885 14.113 8.53885 15.263 9.12185 16.104C8.29668 16.2937 7.55341 16.7413 6.99985 17.382C6.44723 16.7429 5.70594 16.2957 4.88284 16.105ZM9.99985 22C9.60428 22 9.2176 21.8827 8.88871 21.6629C8.55981 21.4432 8.30346 21.1308 8.15209 20.7654C8.00071 20.3999 7.9611 19.9978 8.03827 19.6098C8.11545 19.2219 8.30593 18.8655 8.58563 18.5858C8.86534 18.3061 9.2217 18.1156 9.60966 18.0384C9.99763 17.9613 10.3998 18.0009 10.7652 18.1522C11.1307 18.3036 11.443 18.56 11.6628 18.8889C11.8825 19.2178 11.9998 19.6044 11.9998 20C11.9998 20.5304 11.7891 21.0391 11.4141 21.4142C11.039 21.7893 10.5303 22 9.99985 22ZM17.9998 6V8H22.9998C23.2651 8 23.5194 8.10536 23.707 8.29289C23.8945 8.48043 23.9998 8.73478 23.9998 9C23.9998 9.26522 23.8945 9.51957 23.707 9.70711C23.5194 9.89464 23.2651 10 22.9998 10H17.9998V12H22.9998C23.2651 12 23.5194 12.1054 23.707 12.2929C23.8945 12.4804 23.9998 12.7348 23.9998 13C23.9998 13.2652 23.8945 13.5196 23.707 13.7071C23.5194 13.8946 23.2651 14 22.9998 14H17.9998V16H22.9998C23.2651 16 23.5194 16.1054 23.707 16.2929C23.8945 16.4804 23.9998 16.7348 23.9998 17C23.9998 17.2652 23.8945 17.5196 23.707 17.7071C23.5194 17.8946 23.2651 18 22.9998 18H17.9998V23C17.9998 23.2652 17.8945 23.5196 17.707 23.7071C17.5194 23.8946 17.2651 24 16.9998 24C16.7346 24 16.4803 23.8946 16.2927 23.7071C16.1052 23.5196 15.9998 23.2652 15.9998 23V5C16.0014 3.67441 16.5287 2.40356 17.4661 1.46622C18.4034 0.528882 19.6743 0.00158786 20.9998 0L22.9998 0C23.2651 0 23.5194 0.105357 23.707 0.292893C23.8945 0.48043 23.9998 0.734784 23.9998 1C23.9998 1.26522 23.8945 1.51957 23.707 1.70711C23.5194 1.89464 23.2651 2 22.9998 2H20.9998C20.3816 2.00256 19.7792 2.19608 19.2751 2.55409C18.7711 2.91209 18.3899 3.41709 18.1838 4H22.9998C23.2651 4 23.5194 4.10536 23.707 4.29289C23.8945 4.48043 23.9998 4.73478 23.9998 5C23.9998 5.26522 23.8945 5.51957 23.707 5.70711C23.5194 5.89464 23.2651 6 22.9998 6H17.9998Z" fill="currentColor"/>
</g>
<defs>
<clipPath id="clip0_403_3221">
<rect width="24" height="24" fill="white"/>
</clipPath>
</defs>
</svg>
