<svg width="24" height="24" viewBox="0 0 24 24" fill="none" xmlns="http://www.w3.org/2000/svg">
<g clip-path="url(#clip0_403_3014)">
<path d="M14.0001 24C13.7837 24 13.5732 23.9298 13.4001 23.8L9.4001 20.8C9.27591 20.7069 9.1751 20.5861 9.10568 20.4472C9.03625 20.3084 9.0001 20.1552 9.0001 20V14.38L1.9841 6.487C1.48582 5.92488 1.16048 5.23082 1.04718 4.48823C0.933883 3.74565 1.03745 2.98615 1.34543 2.30101C1.6534 1.61588 2.15269 1.03426 2.78328 0.626066C3.41387 0.217873 4.14893 0.000474419 4.9001 0L19.1001 0C19.8512 0.000881051 20.5861 0.218639 21.2164 0.627107C21.8468 1.03557 22.3457 1.61737 22.6534 2.30259C22.961 2.9878 23.0643 3.74727 22.9507 4.48975C22.8371 5.23222 22.5115 5.9261 22.0131 6.488L15.0001 14.38V23C15.0001 23.2652 14.8947 23.5196 14.7072 23.7071C14.5197 23.8946 14.2653 24 14.0001 24ZM11.0001 19.5L13.0001 21V14C13.0003 13.7552 13.0903 13.5189 13.2531 13.336L20.5211 5.159C20.7635 4.88508 20.9216 4.54704 20.9765 4.18545C21.0315 3.82387 20.9809 3.4541 20.8309 3.12056C20.6808 2.78701 20.4377 2.50386 20.1307 2.30509C19.8237 2.10632 19.4658 2.00038 19.1001 2H4.9001C4.53455 2.00055 4.17692 2.10655 3.87011 2.30527C3.56329 2.50399 3.32031 2.78699 3.17031 3.12035C3.02031 3.45371 2.96966 3.82326 3.02443 4.18468C3.0792 4.5461 3.23707 4.88405 3.4791 5.158L10.7481 13.336C10.9105 13.519 11.0002 13.7553 11.0001 14V19.5Z" fill="currentColor"/>
</g>
<defs>
<clipPath id="clip0_403_3014">
<rect width="24" height="24" fill="white"/>
</clipPath>
</defs>
</svg>
