<svg width="24" height="24" viewBox="0 0 24 24" fill="none" xmlns="http://www.w3.org/2000/svg">
<g clip-path="url(#clip0_403_2906)">
<path d="M23 20H14.816C14.6666 19.5818 14.4262 19.2019 14.1122 18.8878C13.7981 18.5738 13.4182 18.3334 13 18.184V14H19C19.6067 14.0022 20.1997 13.8197 20.7001 13.4769C21.2006 13.134 21.585 12.6469 21.802 12.0804C22.0191 11.5139 22.0586 10.8947 21.9153 10.3052C21.7721 9.71571 21.4528 9.18373 21 8.78V4C21 2.93913 20.5786 1.92172 19.8284 1.17157C19.0783 0.421427 18.0609 0 17 0L7 0C5.93913 0 4.92172 0.421427 4.17157 1.17157C3.42143 1.92172 3 2.93913 3 4V8.78C2.54717 9.18373 2.22792 9.71571 2.08466 10.3052C1.94141 10.8947 1.98094 11.5139 2.19799 12.0804C2.41505 12.6469 2.79936 13.134 3.29985 13.4769C3.80035 13.8197 4.39333 14.0022 5 14H11V18.184C10.5818 18.3334 10.2019 18.5738 9.88785 18.8878C9.5738 19.2019 9.3334 19.5818 9.184 20H1C0.734784 20 0.48043 20.1054 0.292893 20.2929C0.105357 20.4804 0 20.7348 0 21C0 21.2652 0.105357 21.5196 0.292893 21.7071C0.48043 21.8946 0.734784 22 1 22H9.184C9.38765 22.5845 9.76816 23.0912 10.2727 23.4498C10.7773 23.8083 11.381 24.0009 12 24.0009C12.619 24.0009 13.2227 23.8083 13.7273 23.4498C14.2318 23.0912 14.6124 22.5845 14.816 22H23C23.2652 22 23.5196 21.8946 23.7071 21.7071C23.8946 21.5196 24 21.2652 24 21C24 20.7348 23.8946 20.4804 23.7071 20.2929C23.5196 20.1054 23.2652 20 23 20ZM5 4C5 3.46957 5.21071 2.96086 5.58579 2.58579C5.96086 2.21071 6.46957 2 7 2H17C17.5304 2 18.0391 2.21071 18.4142 2.58579C18.7893 2.96086 19 3.46957 19 4V8H15.414C15.1513 7.99929 14.891 8.05072 14.6483 8.15131C14.4056 8.2519 14.1852 8.39965 14 8.586L13.586 9H10.414L10 8.586C9.81479 8.39965 9.59444 8.2519 9.35172 8.15131C9.109 8.05072 8.84874 7.99929 8.586 8H5V4ZM4 11C4 10.7348 4.10536 10.4804 4.29289 10.2929C4.48043 10.1054 4.73478 10 5 10H8.586L9 10.414C9.18521 10.6004 9.40556 10.7481 9.64828 10.8487C9.891 10.9493 10.1513 11.0007 10.414 11H13.586C13.8487 11.0007 14.109 10.9493 14.3517 10.8487C14.5944 10.7481 14.8148 10.6004 15 10.414L15.414 10H19C19.2652 10 19.5196 10.1054 19.7071 10.2929C19.8946 10.4804 20 10.7348 20 11C20 11.2652 19.8946 11.5196 19.7071 11.7071C19.5196 11.8946 19.2652 12 19 12H5C4.73478 12 4.48043 11.8946 4.29289 11.7071C4.10536 11.5196 4 11.2652 4 11ZM12 22C11.8022 22 11.6089 21.9414 11.4444 21.8315C11.28 21.7216 11.1518 21.5654 11.0761 21.3827C11.0004 21.2 10.9806 20.9989 11.0192 20.8049C11.0578 20.6109 11.153 20.4327 11.2929 20.2929C11.4327 20.153 11.6109 20.0578 11.8049 20.0192C11.9989 19.9806 12.2 20.0004 12.3827 20.0761C12.5654 20.1518 12.7216 20.28 12.8315 20.4444C12.9414 20.6089 13 20.8022 13 21C13 21.2652 12.8946 21.5196 12.7071 21.7071C12.5196 21.8946 12.2652 22 12 22Z" fill="currentColor"/>
</g>
<defs>
<clipPath id="clip0_403_2906">
<rect width="24" height="24" fill="white"/>
</clipPath>
</defs>
</svg>
