<svg width="24" height="24" viewBox="0 0 24 24" fill="none" xmlns="http://www.w3.org/2000/svg">
<g clip-path="url(#clip0_403_3145)">
<path d="M23.9799 2.02292V6.02292C23.9799 6.28814 23.8745 6.54249 23.687 6.73003C23.4994 6.91756 23.2451 7.02292 22.9799 7.02292C22.7147 7.02292 22.4603 6.91756 22.2728 6.73003C22.0852 6.54249 21.9799 6.28814 21.9799 6.02292V3.45992L16.6799 8.73192C16.4908 8.91362 16.2379 9.01376 15.9756 9.01077C15.7134 9.00778 15.4628 8.9019 15.2779 8.71593C15.093 8.52997 14.9886 8.27882 14.9871 8.01658C14.9855 7.75433 15.0871 7.50199 15.2699 7.31392L20.5899 2.02292H17.9799C17.7147 2.02292 17.4603 1.91756 17.2728 1.73003C17.0852 1.54249 16.9799 1.28814 16.9799 1.02292C16.9799 0.757705 17.0852 0.503351 17.2728 0.315814C17.4603 0.128278 17.7147 0.0229211 17.9799 0.0229211H21.9799C22.5103 0.0229211 23.019 0.233635 23.3941 0.608708C23.7692 0.98378 23.9799 1.49249 23.9799 2.02292ZM23.0749 16.7619C23.6544 17.343 23.9798 18.1302 23.9798 18.9509C23.9798 19.7716 23.6544 20.5588 23.0749 21.1399L22.1629 22.1899C13.9719 30.0279 -5.95712 10.1049 1.76288 1.88992L2.91188 0.889921C3.49397 0.326692 4.27422 0.014982 5.08416 0.0220917C5.8941 0.0292013 6.66876 0.35456 7.24088 0.927921C7.27088 0.958921 9.12388 3.36692 9.12388 3.36692C9.67355 3.94437 9.97962 4.71139 9.9785 5.50862C9.97738 6.30586 9.66916 7.07201 9.11788 7.64792L7.95888 9.10492C8.59972 10.662 9.54194 12.0772 10.7314 13.269C11.9208 14.4609 13.3341 15.4059 14.8899 16.0499L16.3549 14.8849C16.9307 14.3339 17.6967 14.0259 18.4937 14.0248C19.2907 14.0237 20.0575 14.3295 20.6349 14.8789C20.6349 14.8789 23.0439 16.7319 23.0749 16.7619ZM21.6999 18.2159C21.6999 18.2159 19.3069 16.3739 19.2759 16.3439C19.0699 16.1397 18.7915 16.025 18.5014 16.025C18.2113 16.025 17.9329 16.1397 17.7269 16.3439C17.6999 16.3699 15.6829 17.9779 15.6829 17.9779C15.547 18.0861 15.3852 18.157 15.2135 18.1837C15.0419 18.2103 14.8662 18.1918 14.7039 18.1299C12.6871 17.3799 10.8553 16.2048 9.33273 14.6844C7.81019 13.1639 6.6326 11.3337 5.87988 9.31792C5.81403 9.15404 5.79275 8.97564 5.81822 8.80087C5.84369 8.6261 5.91499 8.46119 6.02488 8.32292C6.02488 8.32292 7.63188 6.30592 7.65888 6.27892C7.86314 6.07291 7.97776 5.79454 7.97776 5.50442C7.97776 5.2143 7.86314 4.93594 7.65888 4.72992C7.62888 4.69992 5.78688 2.30592 5.78688 2.30592C5.5779 2.1183 5.30508 2.01771 5.02432 2.02477C4.74357 2.03184 4.47615 2.14602 4.27688 2.34392L3.12788 3.34392C-2.51612 10.1259 14.7569 26.4419 20.6999 20.8259L21.6119 19.7759C21.8269 19.5786 21.9564 19.3052 21.9728 19.0138C21.9893 18.7224 21.8913 18.4362 21.6999 18.2159Z" fill="currentColor"/>
</g>
<defs>
<clipPath id="clip0_403_3145">
<rect width="24" height="24" fill="white"/>
</clipPath>
</defs>
</svg>
