<svg width="24" height="24" viewBox="0 0 24 24" fill="none" xmlns="http://www.w3.org/2000/svg">
<g clip-path="url(#clip0_403_2924)">
<path d="M19 20.0003H5C3.67441 19.9987 2.40356 19.4714 1.46622 18.5341C0.528882 17.5967 0.00158786 16.3259 0 15.0003L0 9.00031C0.00158786 7.67471 0.528882 6.40386 1.46622 5.46653C2.40356 4.52919 3.67441 4.00189 5 4.00031H19C20.3256 4.00189 21.5964 4.52919 22.5338 5.46653C23.4711 6.40386 23.9984 7.67471 24 9.00031V15.0003C23.9984 16.3259 23.4711 17.5967 22.5338 18.5341C21.5964 19.4714 20.3256 19.9987 19 20.0003ZM5 6.00031C4.20435 6.00031 3.44129 6.31638 2.87868 6.87898C2.31607 7.44159 2 8.20466 2 9.00031V15.0003C2 15.796 2.31607 16.559 2.87868 17.1216C3.44129 17.6842 4.20435 18.0003 5 18.0003H19C19.7956 18.0003 20.5587 17.6842 21.1213 17.1216C21.6839 16.559 22 15.796 22 15.0003V9.00031C22 8.20466 21.6839 7.44159 21.1213 6.87898C20.5587 6.31638 19.7956 6.00031 19 6.00031H5ZM12 16.0003C11.2089 16.0003 10.4355 15.7657 9.77772 15.3262C9.11992 14.8867 8.60723 14.2619 8.30448 13.531C8.00173 12.8001 7.92252 11.9959 8.07686 11.2199C8.2312 10.444 8.61216 9.73129 9.17157 9.17188C9.73098 8.61247 10.4437 8.2315 11.2196 8.07716C11.9956 7.92282 12.7998 8.00204 13.5307 8.30479C14.2616 8.60754 14.8864 9.12023 15.3259 9.77802C15.7654 10.4358 16 11.2092 16 12.0003C16 13.0612 15.5786 14.0786 14.8284 14.8287C14.0783 15.5789 13.0609 16.0003 12 16.0003ZM12 10.0003C11.6044 10.0003 11.2178 10.1176 10.8889 10.3374C10.56 10.5571 10.3036 10.8695 10.1522 11.2349C10.0009 11.6004 9.96126 12.0025 10.0384 12.3905C10.1156 12.7784 10.3061 13.1348 10.5858 13.4145C10.8655 13.6942 11.2219 13.8847 11.6098 13.9619C11.9978 14.039 12.3999 13.9994 12.7654 13.8481C13.1308 13.6967 13.4432 13.4403 13.6629 13.1114C13.8827 12.7825 14 12.3959 14 12.0003C14 11.4699 13.7893 10.9612 13.4142 10.5861C13.0391 10.211 12.5304 10.0003 12 10.0003ZM5 8.00031C4.80222 8.00031 4.60888 8.05895 4.44443 8.16884C4.27998 8.27872 4.15181 8.4349 4.07612 8.61762C4.00043 8.80035 3.98063 9.00141 4.01921 9.1954C4.0578 9.38938 4.15304 9.56756 4.29289 9.70741C4.43275 9.84726 4.61093 9.94251 4.80491 9.98109C4.99889 10.0197 5.19996 9.99987 5.38268 9.92418C5.56541 9.8485 5.72159 9.72032 5.83147 9.55588C5.94135 9.39143 6 9.19809 6 9.00031C6 8.73509 5.89464 8.48073 5.70711 8.2932C5.51957 8.10566 5.26522 8.00031 5 8.00031ZM18 9.00031C18 9.19809 18.0586 9.39143 18.1685 9.55588C18.2784 9.72032 18.4346 9.8485 18.6173 9.92418C18.8 9.99987 19.0011 10.0197 19.1951 9.98109C19.3891 9.94251 19.5673 9.84726 19.7071 9.70741C19.847 9.56756 19.9422 9.38938 19.9808 9.1954C20.0194 9.00141 19.9996 8.80035 19.9239 8.61762C19.8482 8.4349 19.72 8.27872 19.5556 8.16884C19.3911 8.05895 19.1978 8.00031 19 8.00031C18.7348 8.00031 18.4804 8.10566 18.2929 8.2932C18.1054 8.48073 18 8.73509 18 9.00031ZM5 14.0003C4.80222 14.0003 4.60888 14.059 4.44443 14.1688C4.27998 14.2787 4.15181 14.4349 4.07612 14.6176C4.00043 14.8003 3.98063 15.0014 4.01921 15.1954C4.0578 15.3894 4.15304 15.5676 4.29289 15.7074C4.43275 15.8473 4.61093 15.9425 4.80491 15.9811C4.99889 16.0197 5.19996 15.9999 5.38268 15.9242C5.56541 15.8485 5.72159 15.7203 5.83147 15.5559C5.94135 15.3914 6 15.1981 6 15.0003C6 14.7351 5.89464 14.4807 5.70711 14.2932C5.51957 14.1057 5.26522 14.0003 5 14.0003ZM18 15.0003C18 15.1981 18.0586 15.3914 18.1685 15.5559C18.2784 15.7203 18.4346 15.8485 18.6173 15.9242C18.8 15.9999 19.0011 16.0197 19.1951 15.9811C19.3891 15.9425 19.5673 15.8473 19.7071 15.7074C19.847 15.5676 19.9422 15.3894 19.9808 15.1954C20.0194 15.0014 19.9996 14.8003 19.9239 14.6176C19.8482 14.4349 19.72 14.2787 19.5556 14.1688C19.3911 14.059 19.1978 14.0003 19 14.0003C18.7348 14.0003 18.4804 14.1057 18.2929 14.2932C18.1054 14.4807 18 14.7351 18 15.0003Z" fill="currentColor"/>
</g>
<defs>
<clipPath id="clip0_403_2924">
<rect width="24" height="24" fill="white"/>
</clipPath>
</defs>
</svg>
