<svg width="24" height="24" viewBox="0 0 24 24" fill="none" xmlns="http://www.w3.org/2000/svg">
<g clip-path="url(#clip0_403_3110)">
<path d="M21.7359 16.4C21.4001 15.4099 20.7628 14.5497 19.9135 13.9399C19.0642 13.3302 18.0454 13.0015 16.9999 13H12.9999V11.916C14.4833 11.6652 15.8184 10.8664 16.7406 9.67769C17.6627 8.48902 18.1047 6.99729 17.9789 5.49812C17.8531 3.99895 17.1687 2.60175 16.0613 1.5834C14.9539 0.565053 13.5044 -0.00012207 11.9999 -0.00012207C10.4955 -0.00012207 9.04594 0.565053 7.93855 1.5834C6.83116 2.60175 6.14675 3.99895 6.02094 5.49812C5.89513 6.99729 6.3371 8.48902 7.25927 9.67769C8.18145 10.8664 9.51652 11.6652 10.9999 11.916V13H6.99992C5.95441 13.0015 4.93561 13.3302 4.0863 13.9399C3.23699 14.5497 2.59976 15.4099 2.26392 16.4C1.40601 16.8138 0.723959 17.5203 0.340465 18.3922C-0.0430283 19.2641 -0.102788 20.2443 0.171936 21.1563C0.446661 22.0683 1.03784 22.8524 1.83911 23.3675C2.64038 23.8825 3.59914 24.0947 4.54291 23.9659C5.48669 23.8371 6.35351 23.3757 6.98744 22.6647C7.62138 21.9538 7.9808 21.04 8.00105 20.0877C8.0213 19.1354 7.70106 18.2071 7.09792 17.4698C6.49479 16.7326 5.64836 16.2348 4.71092 16.066C4.99205 15.7326 5.34248 15.4645 5.7378 15.2804C6.13312 15.0963 6.56383 15.0006 6.99992 15H10.9999V16.127C10.0573 16.3704 9.23573 16.9492 8.68932 17.755C8.1429 18.5607 7.90913 19.5381 8.0318 20.504C8.15447 21.4698 8.62518 22.3577 9.35569 23.0013C10.0862 23.6449 11.0263 23.9999 11.9999 23.9999C12.9735 23.9999 13.9136 23.6449 14.6442 23.0013C15.3747 22.3577 15.8454 21.4698 15.968 20.504C16.0907 19.5381 15.8569 18.5607 15.3105 17.755C14.7641 16.9492 13.9426 16.3704 12.9999 16.127V15H16.9999C17.4358 15.0002 17.8663 15.0955 18.2616 15.279C18.6569 15.4626 19.0075 15.7301 19.2889 16.063C18.3515 16.2318 17.505 16.7296 16.9019 17.4668C16.2988 18.2041 15.9785 19.1324 15.9988 20.0847C16.019 21.037 16.3785 21.9508 17.0124 22.6617C17.6463 23.3727 18.5132 23.8341 19.4569 23.9629C20.4007 24.0917 21.3595 23.8795 22.1607 23.3645C22.962 22.8494 23.5532 22.0653 23.8279 21.1533C24.1026 20.2413 24.0429 19.2611 23.6594 18.3892C23.2759 17.5173 22.5938 16.8108 21.7359 16.397V16.4ZM7.99992 5.99996C7.99992 5.20883 8.23452 4.43547 8.67404 3.77768C9.11357 3.11988 9.73828 2.60719 10.4692 2.30444C11.2001 2.00169 12.0044 1.92248 12.7803 2.07682C13.5562 2.23116 14.2689 2.61212 14.8283 3.17153C15.3878 3.73094 15.7687 4.44367 15.9231 5.2196C16.0774 5.99552 15.9982 6.79979 15.6954 7.53069C15.3927 8.2616 14.88 8.88631 14.2222 9.32584C13.5644 9.76536 12.791 9.99996 11.9999 9.99996C10.9391 9.99996 9.92164 9.57853 9.17149 8.82839C8.42135 8.07824 7.99992 7.06082 7.99992 5.99996ZM5.99992 20C5.99992 20.3955 5.88262 20.7822 5.66286 21.1111C5.4431 21.44 5.13074 21.6963 4.76529 21.8477C4.39983 21.9991 3.9977 22.0387 3.60974 21.9615C3.22178 21.8844 2.86541 21.6939 2.58571 21.4142C2.306 21.1345 2.11552 20.7781 2.03835 20.3901C1.96118 20.0022 2.00078 19.6 2.15216 19.2346C2.30353 18.8691 2.55988 18.5568 2.88878 18.337C3.21768 18.1173 3.60436 18 3.99992 18C4.53035 18 5.03906 18.2107 5.41413 18.5857C5.78921 18.9608 5.99992 19.4695 5.99992 20ZM13.9999 20C13.9999 20.3955 13.8826 20.7822 13.6629 21.1111C13.4431 21.44 13.1307 21.6963 12.7653 21.8477C12.3998 21.9991 11.9977 22.0387 11.6097 21.9615C11.2218 21.8844 10.8654 21.6939 10.5857 21.4142C10.306 21.1345 10.1155 20.7781 10.0383 20.3901C9.96118 20.0022 10.0008 19.6 10.1522 19.2346C10.3035 18.8691 10.5599 18.5568 10.8888 18.337C11.2177 18.1173 11.6044 18 11.9999 18C12.5304 18 13.0391 18.2107 13.4141 18.5857C13.7892 18.9608 13.9999 19.4695 13.9999 20ZM19.9999 22C19.6044 22 19.2177 21.8827 18.8888 21.6629C18.5599 21.4431 18.3035 21.1308 18.1522 20.7653C18.0008 20.3999 17.9612 19.9977 18.0383 19.6098C18.1155 19.2218 18.306 18.8654 18.5857 18.5857C18.8654 18.306 19.2218 18.1156 19.6097 18.0384C19.9977 17.9612 20.3998 18.0008 20.7653 18.1522C21.1307 18.3036 21.4431 18.5599 21.6629 18.8888C21.8826 19.2177 21.9999 19.6044 21.9999 20C21.9999 20.5304 21.7892 21.0391 21.4141 21.4142C21.0391 21.7892 20.5304 22 19.9999 22Z" fill="currentColor"/>
</g>
<defs>
<clipPath id="clip0_403_3110">
<rect width="24" height="24" fill="white"/>
</clipPath>
</defs>
</svg>
