<svg width="24" height="24" viewBox="0 0 24 24" fill="none" xmlns="http://www.w3.org/2000/svg">
<g clip-path="url(#clip0_403_3152)">
<path d="M16 0H8C6.67441 0.00158786 5.40356 0.528882 4.46622 1.46622C3.52888 2.40356 3.00159 3.67441 3 5V19C3.00159 20.3256 3.52888 21.5964 4.46622 22.5338C5.40356 23.4711 6.67441 23.9984 8 24H16C17.3256 23.9984 18.5964 23.4711 19.5338 22.5338C20.4711 21.5964 20.9984 20.3256 21 19V5C20.9984 3.67441 20.4711 2.40356 19.5338 1.46622C18.5964 0.528882 17.3256 0.00158786 16 0V0ZM19 19C19 19.7956 18.6839 20.5587 18.1213 21.1213C17.5587 21.6839 16.7956 22 16 22H13V21C13 20.7348 12.8946 20.4804 12.7071 20.2929C12.5196 20.1054 12.2652 20 12 20C11.7348 20 11.4804 20.1054 11.2929 20.2929C11.1054 20.4804 11 20.7348 11 21V22H8C7.20435 22 6.44129 21.6839 5.87868 21.1213C5.31607 20.5587 5 19.7956 5 19V5C5 4.20435 5.31607 3.44129 5.87868 2.87868C6.44129 2.31607 7.20435 2 8 2H16C16.7956 2 17.5587 2.31607 18.1213 2.87868C18.6839 3.44129 19 4.20435 19 5V19ZM16 16C16 16.2652 15.8946 16.5196 15.7071 16.7071C15.5196 16.8946 15.2652 17 15 17H9C8.73478 17 8.48043 16.8946 8.29289 16.7071C8.10536 16.5196 8 16.2652 8 16C8 15.7348 8.10536 15.4804 8.29289 15.2929C8.48043 15.1054 8.73478 15 9 15H15C15.2652 15 15.5196 15.1054 15.7071 15.2929C15.8946 15.4804 16 15.7348 16 16ZM10 13C10.2652 13 10.5196 12.8946 10.7071 12.7071C10.8946 12.5196 11 12.2652 11 12V11H13V12C13 12.2652 13.1054 12.5196 13.2929 12.7071C13.4804 12.8946 13.7348 13 14 13C14.2652 13 14.5196 12.8946 14.7071 12.7071C14.8946 12.5196 15 12.2652 15 12V8C15 7.20435 14.6839 6.44129 14.1213 5.87868C13.5587 5.31607 12.7956 5 12 5C11.2044 5 10.4413 5.31607 9.87868 5.87868C9.31607 6.44129 9 7.20435 9 8V12C9 12.2652 9.10536 12.5196 9.29289 12.7071C9.48043 12.8946 9.73478 13 10 13ZM12 7C12.2652 7 12.5196 7.10536 12.7071 7.29289C12.8946 7.48043 13 7.73478 13 8V9H11V8C11 7.73478 11.1054 7.48043 11.2929 7.29289C11.4804 7.10536 11.7348 7 12 7Z" fill="currentColor"/>
</g>
<defs>
<clipPath id="clip0_403_3152">
<rect width="24" height="24" fill="white"/>
</clipPath>
</defs>
</svg>
