<svg width="24" height="24" viewBox="0 0 24 24" fill="none" xmlns="http://www.w3.org/2000/svg">
<g clip-path="url(#clip0_403_3123)">
<path d="M23 22.01H22V17C21.9987 16.0282 21.7143 15.0779 21.1815 14.2652C20.6487 13.4525 19.8906 12.8127 19 12.424V12C18.9977 11.2277 18.8158 10.4666 18.4687 9.77669C18.1216 9.08681 17.6188 8.48712 17 8.02499L16.161 3.8C16.1149 3.57396 15.992 3.37082 15.8132 3.22502C15.6344 3.07922 15.4107 2.99972 15.18 3H14.82C14.5893 2.99972 14.3656 3.07922 14.1868 3.22502C14.008 3.37082 13.8851 3.57396 13.839 3.8L13.2 7H10.25L11 4C11 3.73478 10.8946 3.48043 10.7071 3.29289C10.5196 3.10536 10.2652 3 10 3H8C7.73478 3 7.48043 3.10536 7.29289 3.29289C7.10536 3.48043 7 3.73478 7 4L7.873 7.49299C7.01625 7.89478 6.29131 8.53175 5.78266 9.3297C5.274 10.1276 5.00258 11.0537 5 12V12.424C4.10936 12.8127 3.35129 13.4525 2.8185 14.2652C2.28571 15.0779 2.00128 16.0282 2 17V22.01H1C0.734784 22.01 0.48043 22.1153 0.292893 22.3029C0.105357 22.4904 0 22.7448 0 23.01C0 23.2752 0.105357 23.5295 0.292893 23.7171C0.48043 23.9046 0.734784 24.01 1 24.01H23C23.2652 24.01 23.5196 23.9046 23.7071 23.7171C23.8946 23.5295 24 23.2752 24 23.01C24 22.7448 23.8946 22.4904 23.7071 22.3029C23.5196 22.1153 23.2652 22.01 23 22.01ZM10 8.99999H14C14.7956 8.99999 15.5587 9.31606 16.1213 9.87867C16.6839 10.4413 17 11.2043 17 12H7C7 11.2043 7.31607 10.4413 7.87868 9.87867C8.44129 9.31606 9.20435 8.99999 10 8.99999ZM7 14H17C17.7956 14 18.5587 14.3161 19.1213 14.8787C19.6839 15.4413 20 16.2043 20 17V17.98C19.064 17.88 18.5 17.28 18.5 17C18.5 16.7348 18.3946 16.4804 18.2071 16.2929C18.0196 16.1053 17.7652 16 17.5 16C17.2348 16 16.9804 16.1053 16.7929 16.2929C16.6054 16.4804 16.5 16.7348 16.5 17C16.5 17.344 15.818 18 14.75 18C13.661 18 13 17.306 13 17C13 16.7348 12.8946 16.4804 12.7071 16.2929C12.5196 16.1053 12.2652 16 12 16C11.7348 16 11.4804 16.1053 11.2929 16.2929C11.1054 16.4804 11 16.7348 11 17C11 17.344 10.318 18 9.25 18C8.161 18 7.5 17.306 7.5 17C7.5 16.7348 7.39464 16.4804 7.20711 16.2929C7.01957 16.1053 6.76522 16 6.5 16C6.23478 16 5.98043 16.1053 5.79289 16.2929C5.60536 16.4804 5.5 16.7348 5.5 17C5.5 17.316 4.921 17.888 4 17.981V17C4 16.2043 4.31607 15.4413 4.87868 14.8787C5.44129 14.3161 6.20435 14 7 14ZM4 19.979C4.91869 19.9382 5.79793 19.5939 6.5 19C7.27136 19.643 8.24308 19.9964 9.2473 19.9991C10.2515 20.0018 11.2251 19.6538 12 19.015C12.7749 19.6538 13.7485 20.0018 14.7527 19.9991C15.7569 19.9964 16.7286 19.643 17.5 19C18.2022 19.5935 19.0814 19.9375 20 19.978V22.01H4V19.979Z" fill="currentColor"/>
<path d="M8.99994 2C9.55222 2 9.99994 1.55228 9.99994 1C9.99994 0.447715 9.55222 0 8.99994 0C8.44765 0 7.99994 0.447715 7.99994 1C7.99994 1.55228 8.44765 2 8.99994 2Z" fill="currentColor"/>
<path d="M14.9999 2C15.5522 2 16 1.55228 16 1C16 0.447715 15.5522 0 14.9999 0C14.4477 0 13.9999 0.447715 13.9999 1C13.9999 1.55228 14.4477 2 14.9999 2Z" fill="currentColor"/>
</g>
<defs>
<clipPath id="clip0_403_3123">
<rect width="24" height="24" fill="white"/>
</clipPath>
</defs>
</svg>
