<svg width="24" height="24" viewBox="0 0 24 24" fill="none" xmlns="http://www.w3.org/2000/svg">
<g clip-path="url(#clip0_403_3128)">
<path d="M19.948 24.0002H4.05195C3.3609 24.0042 2.68044 23.8304 2.07591 23.4956C1.47139 23.1608 0.96313 22.6761 0.59995 22.0882C0.241261 21.5143 0.0361304 20.8579 0.00425865 20.182C-0.0276131 19.506 0.114844 18.8332 0.41795 18.2282L8.37995 4.21217C8.72258 3.54395 9.24348 2.9836 9.88497 2.5932C10.5265 2.2028 11.2635 1.99758 12.0144 2.00027C12.7654 2.00296 13.5009 2.21346 14.1396 2.60845C14.7782 3.00344 15.2951 3.56751 15.633 4.23817L23.555 18.1792C23.869 18.7887 24.0197 19.4692 23.9923 20.1542C23.965 20.8393 23.7605 21.5056 23.399 22.0882C23.0359 22.676 22.5278 23.1605 21.9234 23.4954C21.3191 23.8302 20.6388 24.004 19.948 24.0002ZM12 4.00017C11.6174 3.99383 11.2409 4.09667 10.9147 4.29662C10.5884 4.49658 10.3259 4.78538 10.158 5.12917L10.132 5.17817L2.18395 19.1672C2.0424 19.4624 1.97876 19.789 1.99906 20.1158C2.01936 20.4426 2.12295 20.7587 2.29995 21.0342C2.48471 21.3318 2.74288 21.577 3.04968 21.7462C3.35648 21.9153 3.70161 22.0028 4.05195 22.0002H19.952C20.3023 22.0028 20.6474 21.9153 20.9542 21.7462C21.261 21.577 21.5192 21.3318 21.704 21.0342C21.884 20.7501 21.987 20.4241 22.0028 20.0881C22.0185 19.7521 21.9466 19.4179 21.794 19.1182L13.868 5.17817C13.7026 4.82316 13.4385 4.52328 13.1072 4.31438C12.776 4.10548 12.3916 3.9964 12 4.00017Z" fill="currentColor"/>
</g>
<defs>
<clipPath id="clip0_403_3128">
<rect width="24" height="24" fill="white"/>
</clipPath>
</defs>
</svg>
