<svg width="24" height="24" viewBox="0 0 24 24" fill="none" xmlns="http://www.w3.org/2000/svg">
<g clip-path="url(#clip0_403_3227)">
<path d="M5.00493 24H18.9999C19.8424 23.9999 20.6711 23.787 21.4092 23.3809C22.1473 22.9749 22.7709 22.3889 23.222 21.6774C23.6731 20.966 23.9371 20.1521 23.9896 19.3113C24.042 18.4705 23.8811 17.6301 23.5219 16.868L16.5349 2.90004C16.1345 2.03796 15.4965 1.3079 14.6959 0.79544C13.8953 0.282975 12.9653 0.00934118 12.0147 0.00661241C11.0641 0.00388363 10.1325 0.272173 9.32898 0.780033C8.52546 1.28789 7.88336 2.01428 7.47793 2.87404L0.477934 16.874L0.469934 16.9C0.117439 17.6617 -0.0376595 18.4998 0.0189351 19.3372C0.0755297 20.1746 0.341996 20.9842 0.793774 21.6915C1.24555 22.3988 1.8681 22.981 2.60405 23.3845C3.34 23.7879 4.16566 23.9996 5.00493 24ZM8.40493 22L11.1219 16.562C11.1984 16.3936 11.322 16.2509 11.4778 16.1512C11.6336 16.0514 11.8149 15.9989 11.9999 16C12.1899 16.0002 12.3757 16.0559 12.5344 16.1604C12.6931 16.2649 12.8178 16.4135 12.8929 16.588L15.5999 22H8.40493ZM2.27793 17.748L9.27793 3.73604C9.51989 3.21514 9.90629 2.77465 10.3912 2.46689C10.8762 2.15913 11.4393 1.99704 12.0136 1.99988C12.5879 2.00272 13.1494 2.17038 13.6313 2.48293C14.1131 2.79547 14.4951 3.23977 14.7319 3.76304L21.7199 17.736C21.9323 18.1931 22.0261 18.6964 21.9926 19.1993C21.9591 19.7022 21.7995 20.1885 21.5284 20.6134C21.2574 21.0384 20.8836 21.3881 20.4417 21.6305C19.9998 21.8728 19.5039 21.9999 18.9999 22H17.8359L14.6999 15.72C14.4625 15.2086 14.0844 14.7752 13.6099 14.4706C13.1353 14.166 12.5839 14.0028 12.02 13.9999C11.4561 13.9971 10.9031 14.1548 10.4255 14.4546C9.94788 14.7544 9.56547 15.184 9.32293 15.693L6.16793 22H5.00493C4.50192 22.0002 4.00695 21.8738 3.56555 21.6326C3.12414 21.3914 2.75048 21.043 2.47892 20.6196C2.20737 20.1962 2.04664 19.7113 2.01152 19.2095C1.97639 18.7077 2.06801 18.2052 2.27793 17.748Z" fill="currentColor"/>
</g>
<defs>
<clipPath id="clip0_403_3227">
<rect width="24" height="24" fill="white"/>
</clipPath>
</defs>
</svg>
