<svg width="24" height="24" viewBox="0 0 24 24" fill="none" xmlns="http://www.w3.org/2000/svg">
<g clip-path="url(#clip0_403_3037)">
<path d="M23.2198 5.743L20.2088 1.675C19.8385 1.15734 19.3502 0.735369 18.7843 0.444077C18.2184 0.152784 17.5913 0.000553721 16.9548 1.76239e-06H7.0448C6.41144 -0.000592735 5.78698 0.149225 5.22283 0.437125C4.65868 0.725025 4.17096 1.14278 3.7998 1.656L0.734803 5.753C0.235767 6.45669 -0.0219516 7.30308 0.000221156 8.16547C0.0223939 9.02786 0.323265 9.85989 0.857803 10.537L9.6498 22.865C9.92999 23.2198 10.2871 23.5063 10.6942 23.7029C11.1013 23.8995 11.5477 24.0011 11.9998 24C12.4596 23.9991 12.9131 23.8927 13.3254 23.689C13.7377 23.4853 14.0977 23.1897 14.3778 22.825L23.0998 10.634C23.6583 9.94699 23.973 9.0941 23.9948 8.20899C24.0165 7.32388 23.7439 6.45658 23.2198 5.743ZM18.5918 2.851L21.6098 6.929C21.6258 6.951 21.6298 6.977 21.6458 7H16.7538L15.3258 2H16.9548C17.2758 2.001 17.5918 2.07876 17.8766 2.2268C18.1614 2.37485 18.4066 2.58887 18.5918 2.851ZM11.9998 19.118L9.2998 9H14.6998L11.9998 19.118ZM9.3258 7L10.7538 2H13.2458L14.6738 7H9.3258ZM5.4168 2.837C5.60235 2.57839 5.84675 2.36762 6.12982 2.22208C6.41289 2.07655 6.72651 2.00043 7.0448 2H8.6738L7.2458 7H2.3178C2.3318 6.978 2.3358 6.951 2.3518 6.93L5.4168 2.837ZM2.4478 9.325C2.3756 9.22302 2.31363 9.11415 2.2628 9H7.2318L10.2258 20.23L2.4478 9.325ZM13.7708 20.24L16.7708 9H21.7568C21.6924 9.14927 21.6108 9.29055 21.5138 9.421L13.7708 20.24Z" fill="currentColor"/>
</g>
<defs>
<clipPath id="clip0_403_3037">
<rect width="24" height="24" fill="white"/>
</clipPath>
</defs>
</svg>
