<svg width="24" height="24" viewBox="0 0 24 24" fill="none" xmlns="http://www.w3.org/2000/svg">
<g clip-path="url(#clip0_403_3043)">
<path d="M20.527 4.2169L14.5 0.736897C13.7394 0.299519 12.8774 0.0693359 12 0.0693359C11.1226 0.0693359 10.2606 0.299519 9.49999 0.736897L3.47299 4.2169C2.71387 4.65681 2.08347 5.28822 1.64477 6.04805C1.20607 6.80788 0.974428 7.66952 0.972992 8.5469V15.5069C0.974454 16.3844 1.20609 17.2462 1.64478 18.0062C2.08347 18.7661 2.71386 19.3977 3.47299 19.8379L9.49999 23.3169C10.2605 23.7546 11.1226 23.9849 12 23.9849C12.8774 23.9849 13.7395 23.7546 14.5 23.3169L20.527 19.8379C21.2861 19.3977 21.9165 18.7661 22.3552 18.0062C22.7939 17.2462 23.0255 16.3844 23.027 15.5069V8.5469C23.0256 7.66952 22.7939 6.80788 22.3552 6.04805C21.9165 5.28822 21.2861 4.65681 20.527 4.2169ZM10.5 2.4699C10.956 2.20659 11.4734 2.06797 12 2.06797C12.5266 2.06797 13.0439 2.20659 13.5 2.4699L19.527 5.9489C19.6798 6.0455 19.8234 6.15596 19.956 6.2789L13.763 9.8539C13.2268 10.163 12.6189 10.3257 12 10.3257C11.3811 10.3257 10.7731 10.163 10.237 9.8539L4.04399 6.2789C4.17656 6.15596 4.32017 6.0455 4.47299 5.9489L10.5 2.4699ZM4.47299 18.1049C4.0172 17.8408 3.63875 17.4617 3.3755 17.0054C3.11226 16.5491 2.97346 16.0317 2.97299 15.5049V8.5469C2.97994 8.36674 3.00371 8.18763 3.04399 8.0119L9.23699 11.5869C9.78393 11.898 10.3803 12.1128 11 12.2219V21.7909C10.8273 21.738 10.6599 21.669 10.5 21.5849L4.47299 18.1049ZM21.027 15.5049C21.0265 16.0317 20.8877 16.5491 20.6245 17.0054C20.3612 17.4617 19.9828 17.8408 19.527 18.1049L13.5 21.5849C13.3401 21.669 13.1727 21.738 13 21.7909V12.2219C13.6197 12.1128 14.2161 11.898 14.763 11.5869L20.956 8.0119C20.9963 8.18763 21.02 8.36674 21.027 8.5469V15.5049Z" fill="currentColor"/>
</g>
<defs>
<clipPath id="clip0_403_3043">
<rect width="24" height="24" fill="white"/>
</clipPath>
</defs>
</svg>
