<svg width="24" height="24" viewBox="0 0 24 24" fill="none" xmlns="http://www.w3.org/2000/svg">
<g clip-path="url(#clip0_403_2828)">
<path d="M23.414 0.586302C23.1632 0.339185 22.8521 0.161862 22.5117 0.0718851C22.1713 -0.0180919 21.8132 -0.0176035 21.473 0.0733021C19.0321 0.877018 16.8132 2.24109 14.994 4.0563L5.51802 13.5313C4.1498 12.794 2.67249 12.2802 1.14202 12.0093C0.882401 11.9773 0.620589 12.0484 0.412725 12.2072C0.204861 12.366 0.0674945 12.5999 0.0300802 12.8588C-0.00733408 13.1177 0.0581829 13.3809 0.212583 13.5921C0.366982 13.8032 0.597972 13.9455 0.85602 13.9883C2.80282 14.3533 4.63651 15.171 6.20902 16.3753L2.50002 20.0853L1.70702 19.2923C1.61477 19.1968 1.50443 19.1206 1.38242 19.0682C1.26042 19.0158 1.1292 18.9882 0.996421 18.9871C0.863642 18.9859 0.731963 19.0112 0.609066 19.0615C0.48617 19.1118 0.374518 19.186 0.280625 19.2799C0.186732 19.3738 0.112479 19.4855 0.0621985 19.6084C0.0119176 19.7312 -0.0133841 19.8629 -0.0122303 19.9957C-0.0110765 20.1285 0.0165097 20.2597 0.0689187 20.3817C0.121328 20.5037 0.19751 20.6141 0.29302 20.7063L3.29302 23.7063C3.38527 23.8018 3.49561 23.878 3.61762 23.9304C3.73962 23.9828 3.87084 24.0104 4.00362 24.0116C4.1364 24.0127 4.26808 23.9874 4.39097 23.9371C4.51387 23.8868 4.62552 23.8126 4.71942 23.7187C4.81331 23.6248 4.88756 23.5132 4.93784 23.3903C4.98812 23.2674 5.01342 23.1357 5.01227 23.0029C5.01112 22.8701 4.98353 22.7389 4.93112 22.6169C4.87871 22.4949 4.80253 22.3846 4.70702 22.2923L3.91402 21.4993L7.62302 17.7893C8.82825 19.3617 9.64602 21.1959 10.01 23.1433C10.0446 23.3811 10.1637 23.5986 10.3455 23.7557C10.5273 23.9129 10.7597 23.9994 11 23.9993C11.0482 23.9996 11.0964 23.9959 11.144 23.9883C11.406 23.9504 11.6423 23.8102 11.8011 23.5984C11.9599 23.3865 12.0282 23.1204 11.991 22.8583C11.7213 21.3276 11.2074 19.8501 10.469 18.4823L19.944 9.0063C21.7799 7.16145 23.1539 4.90892 23.954 2.4323C24.027 2.10403 24.0157 1.76264 23.9213 1.43989C23.8269 1.11714 23.6524 0.823504 23.414 0.586302ZM18.529 7.5913L9.36202 16.7593C9.05859 16.3595 8.7285 15.9806 8.37402 15.6253C8.01858 15.2713 7.64009 14.9413 7.24102 14.6373L16.408 5.4703C17.9771 3.90024 19.8883 2.71464 21.992 2.0063C21.2819 4.10918 20.0969 6.02024 18.529 7.5913Z" fill="currentColor"/>
</g>
<defs>
<clipPath id="clip0_403_2828">
<rect width="24" height="24" fill="white"/>
</clipPath>
</defs>
</svg>
