<svg width="24" height="24" viewBox="0 0 24 24" fill="none" xmlns="http://www.w3.org/2000/svg">
<g clip-path="url(#clip0_403_2821)">
<path d="M20.4849 3.5159C18.8071 1.83963 16.6699 0.698428 14.3436 0.236545C12.0173 -0.225338 9.60633 0.0128371 7.41536 0.920964C5.2244 1.82909 3.35185 3.3664 2.03443 5.33856C0.717008 7.31072 0.013855 9.62919 0.013855 12.0009C0.013855 14.3726 0.717008 16.6911 2.03443 18.6632C3.35185 20.6354 5.2244 22.1727 7.41536 23.0808C9.60633 23.989 12.0173 24.2271 14.3436 23.7653C16.6699 23.3034 18.8071 22.1622 20.4849 20.4859C22.732 18.2338 23.994 15.1823 23.994 12.0009C23.994 8.8195 22.732 5.768 20.4849 3.5159ZM21.9339 10.9329C20.7348 11.0784 19.5182 10.9491 18.3764 10.555C17.2345 10.1609 16.1973 9.51215 15.3431 8.65794C14.489 7.80373 13.8404 6.76643 13.4464 5.62453C13.0524 4.48263 12.9233 3.26606 13.0689 2.0669C15.3387 2.30553 17.4576 3.31633 19.0713 4.93021C20.685 6.54408 21.6956 8.66315 21.9339 10.9329ZM2.06593 13.0689C3.2651 12.9234 4.48166 13.0527 5.62351 13.4468C6.76537 13.8409 7.8026 14.4897 8.65671 15.3439C9.51083 16.1981 10.1594 17.2354 10.5534 18.3773C10.9474 19.5192 11.0765 20.7357 10.9309 21.9349C8.6612 21.6963 6.54225 20.6855 4.92856 19.0716C3.31487 17.4577 2.3043 15.3387 2.06593 13.0689ZM19.0709 19.0689C17.428 20.7154 15.2601 21.7341 12.9439 21.9479C13.0874 20.4812 12.904 19.0009 12.4069 17.6135C11.9098 16.2262 11.1113 14.9663 10.0689 13.9245C9.02656 12.8827 7.76622 12.0849 6.3786 11.5885C4.99097 11.0922 3.51058 10.9096 2.04393 11.0539C2.26144 8.73819 3.28102 6.5712 4.92651 4.92736C6.57199 3.28352 8.74 2.2661 11.0559 2.0509C10.9215 3.43746 11.0786 4.83681 11.5172 6.15902C11.9558 7.48123 12.6662 8.69704 13.6027 9.72831C14.5392 10.7596 15.6812 11.5835 16.9551 12.1471C18.2291 12.7107 19.6069 13.0015 20.9999 13.0009C21.3169 13.0009 21.6349 12.9849 21.9529 12.9549C21.7357 15.2678 20.7162 17.4318 19.0709 19.0719V19.0689Z" fill="currentColor"/>
</g>
<defs>
<clipPath id="clip0_403_2821">
<rect width="24" height="24" fill="white"/>
</clipPath>
</defs>
</svg>
