<svg width="24" height="24" viewBox="0 0 24 24" fill="none" xmlns="http://www.w3.org/2000/svg">
<g clip-path="url(#clip0_403_2959)">
<path d="M13.0002 0C6.93517 0 2.00017 4.037 2.00017 9C2.00503 10.0726 2.23855 11.1318 2.68517 12.107C2.33333 12.5275 2.10613 13.0381 2.02926 13.5809C1.95239 14.1238 2.02891 14.6773 2.25017 15.179C0.89277 16.4257 0.0838767 18.1589 0.0001665 20C-0.0153192 20.5295 0.0775566 21.0566 0.273094 21.5489C0.468632 22.0412 0.762708 22.4883 1.13727 22.8629C1.51184 23.2375 1.959 23.5315 2.4513 23.7271C2.94361 23.9226 3.47068 24.0155 4.00017 24C4.26538 24.0011 4.52016 23.8967 4.70845 23.7099C4.89673 23.5232 5.00311 23.2692 5.00417 23.004C5.00523 22.7388 4.90089 22.484 4.7141 22.2957C4.52732 22.1074 4.27338 22.0011 4.00817 22C3.7405 22.018 3.47206 21.9787 3.2208 21.8847C2.96954 21.7907 2.74123 21.6441 2.55116 21.4548C2.36108 21.2655 2.2136 21.0378 2.11858 20.7869C2.02356 20.536 1.98319 20.2677 2.00017 20C2.0903 18.6815 2.69469 17.4512 3.68317 16.574C4.7958 16.9019 5.95391 17.0487 7.11317 17.009C7.41317 17.009 7.69017 17.002 7.95617 16.993C9.55403 17.66 11.2687 18.0023 13.0002 18C19.0652 18 24.0002 13.963 24.0002 9C24.0002 4.037 19.0652 0 13.0002 0ZM4.29017 14.688C4.19777 14.5963 4.12443 14.4873 4.07438 14.3672C4.02434 14.247 3.99857 14.1182 3.99857 13.988C3.99857 13.8579 4.02434 13.729 4.07438 13.6088C4.12443 13.4887 4.19777 13.3797 4.29017 13.288C4.38176 13.1955 4.49078 13.122 4.61093 13.0719C4.73108 13.0218 4.85998 12.996 4.99017 12.996C5.12035 12.996 5.24925 13.0218 5.3694 13.0719C5.48955 13.122 5.59858 13.1955 5.69017 13.288C6.10607 13.815 6.45756 14.3897 6.73717 15C5.90983 15.0327 5.08282 14.9273 4.29017 14.688ZM13.0002 16C11.6657 15.9991 10.3422 15.7579 9.09317 15.288C8.58816 14.0648 7.91756 12.9167 7.10017 11.876C6.74839 11.5372 6.3202 11.2881 5.85181 11.1497C5.38341 11.0113 4.88859 10.9878 4.40917 11.081C4.13997 10.4202 4.00109 9.71355 4.00017 9C4.00017 5.141 8.03717 2 13.0002 2C17.9632 2 22.0002 5.141 22.0002 9C22.0002 12.859 17.9632 16 13.0002 16Z" fill="currentColor"/>
</g>
<defs>
<clipPath id="clip0_403_2959">
<rect width="24" height="24" fill="white"/>
</clipPath>
</defs>
</svg>
