<svg width="24" height="24" viewBox="0 0 24 24" fill="none" xmlns="http://www.w3.org/2000/svg">
<g clip-path="url(#clip0_403_3095)">
<path d="M24 11.5C23.9976 10.8258 23.843 10.1609 23.5475 9.55482C23.2521 8.94877 22.8236 8.41728 22.294 8.00004C23.0267 7.42246 23.5609 6.63058 23.8219 5.73488C24.083 4.83918 24.058 3.88433 23.7503 3.00353C23.4427 2.12273 22.8678 1.35991 22.1059 0.821492C21.344 0.283073 20.433 -0.00409694 19.5 4.4165e-05H4.50004C3.56707 -0.00409694 2.65608 0.283073 1.89415 0.821492C1.13222 1.35991 0.557347 2.12273 0.249728 3.00353C-0.0578908 3.88433 -0.0829131 4.83918 0.178152 5.73488C0.439217 6.63058 0.973349 7.42246 1.70604 8.00004C1.17458 8.41562 0.744742 8.94676 0.449122 9.55319C0.153503 10.1596 -0.000132902 10.8254 -0.000132902 11.5C-0.000132902 12.1747 0.153503 12.8405 0.449122 13.4469C0.744742 14.0533 1.17458 14.5845 1.70604 15C0.973349 15.5776 0.439217 16.3695 0.178152 17.2652C-0.0829131 18.1609 -0.0578908 19.1158 0.249728 19.9966C0.557347 20.8774 1.13222 21.6402 1.89415 22.1786C2.65608 22.717 3.56707 23.0042 4.50004 23H19.5C20.433 23.0042 21.344 22.717 22.1059 22.1786C22.8678 21.6402 23.4427 20.8774 23.7503 19.9966C24.058 19.1158 24.083 18.1609 23.8219 17.2652C23.5609 16.3695 23.0267 15.5776 22.294 15C22.8236 14.5828 23.2521 14.0513 23.5475 13.4453C23.843 12.8392 23.9976 12.1743 24 11.5ZM2.00004 4.50004C2.00004 3.837 2.26343 3.20112 2.73227 2.73228C3.20111 2.26344 3.83699 2.00004 4.50004 2.00004H5.00004V3.00004C5.00004 3.26526 5.10539 3.51961 5.29293 3.70715C5.48046 3.89469 5.73482 4.00004 6.00004 4.00004C6.26525 4.00004 6.51961 3.89469 6.70714 3.70715C6.89468 3.51961 7.00004 3.26526 7.00004 3.00004V2.00004H9.00004V3.00004C9.00004 3.26526 9.10539 3.51961 9.29293 3.70715C9.48046 3.89469 9.73482 4.00004 10 4.00004C10.2653 4.00004 10.5196 3.89469 10.7071 3.70715C10.8947 3.51961 11 3.26526 11 3.00004V2.00004H19.5C20.1631 2.00004 20.799 2.26344 21.2678 2.73228C21.7366 3.20112 22 3.837 22 4.50004C22 5.16309 21.7366 5.79897 21.2678 6.26781C20.799 6.73665 20.1631 7.00004 19.5 7.00004H4.50004C3.83699 7.00004 3.20111 6.73665 2.73227 6.26781C2.26343 5.79897 2.00004 5.16309 2.00004 4.50004ZM22 18.5C22 19.1631 21.7366 19.799 21.2678 20.2678C20.799 20.7367 20.1631 21 19.5 21H4.50004C3.83699 21 3.20111 20.7367 2.73227 20.2678C2.26343 19.799 2.00004 19.1631 2.00004 18.5C2.00004 17.837 2.26343 17.2011 2.73227 16.7323C3.20111 16.2634 3.83699 16 4.50004 16H5.00004V17C5.00004 17.2653 5.10539 17.5196 5.29293 17.7072C5.48046 17.8947 5.73482 18 6.00004 18C6.26525 18 6.51961 17.8947 6.70714 17.7072C6.89468 17.5196 7.00004 17.2653 7.00004 17V16H9.00004V17C9.00004 17.2653 9.10539 17.5196 9.29293 17.7072C9.48046 17.8947 9.73482 18 10 18C10.2653 18 10.5196 17.8947 10.7071 17.7072C10.8947 17.5196 11 17.2653 11 17V16H19.5C20.1631 16 20.799 16.2634 21.2678 16.7323C21.7366 17.2011 22 17.837 22 18.5ZM4.50004 14C3.83699 14 3.20111 13.7367 2.73227 13.2678C2.26343 12.799 2.00004 12.1631 2.00004 11.5C2.00004 10.837 2.26343 10.2011 2.73227 9.73228C3.20111 9.26344 3.83699 9.00004 4.50004 9.00004H5.00004V10C5.00004 10.2653 5.10539 10.5196 5.29293 10.7072C5.48046 10.8947 5.73482 11 6.00004 11C6.26525 11 6.51961 10.8947 6.70714 10.7072C6.89468 10.5196 7.00004 10.2653 7.00004 10V9.00004H9.00004V10C9.00004 10.2653 9.10539 10.5196 9.29293 10.7072C9.48046 10.8947 9.73482 11 10 11C10.2653 11 10.5196 10.8947 10.7071 10.7072C10.8947 10.5196 11 10.2653 11 10V9.00004H19.5C20.1631 9.00004 20.799 9.26344 21.2678 9.73228C21.7366 10.2011 22 10.837 22 11.5C22 12.1631 21.7366 12.799 21.2678 13.2678C20.799 13.7367 20.1631 14 19.5 14H4.50004Z" fill="currentColor"/>
</g>
<defs>
<clipPath id="clip0_403_3095">
<rect width="24" height="24" fill="white"/>
</clipPath>
</defs>
</svg>
