<svg width="24" height="24" viewBox="0 0 24 24" fill="none" xmlns="http://www.w3.org/2000/svg">
<g clip-path="url(#clip0_403_3125)">
<path d="M23 22H22V14C21.9984 12.6744 21.4711 11.4036 20.5338 10.4663C19.5964 9.52891 18.3256 9.00162 17 9.00003H13V6.03903C13.4455 5.84461 13.8246 5.52455 14.091 5.11801C14.3574 4.71147 14.4996 4.23608 14.5 3.75003C14.2299 2.47181 13.6213 1.28961 12.738 0.32703C12.6443 0.22456 12.5303 0.142724 12.4032 0.0867352C12.2762 0.0307463 12.1388 0.00183105 12 0.00183105C11.8612 0.00183105 11.7238 0.0307463 11.5968 0.0867352C11.4697 0.142724 11.3557 0.22456 11.262 0.32703C10.3787 1.28961 9.77014 2.47181 9.5 3.75003C9.50045 4.23608 9.64257 4.71147 9.90898 5.11801C10.1754 5.52455 10.5545 5.84461 11 6.03903V9.00003H7C5.67441 9.00162 4.40356 9.52891 3.46622 10.4663C2.52888 11.4036 2.00159 12.6744 2 14V22H1C0.734784 22 0.48043 22.1054 0.292893 22.2929C0.105357 22.4805 0 22.7348 0 23C0 23.2652 0.105357 23.5196 0.292893 23.7071C0.48043 23.8947 0.734784 24 1 24H23C23.2652 24 23.5196 23.8947 23.7071 23.7071C23.8946 23.5196 24 23.2652 24 23C24 22.7348 23.8946 22.4805 23.7071 22.2929C23.5196 22.1054 23.2652 22 23 22ZM7 11H17C17.7956 11 18.5587 11.3161 19.1213 11.8787C19.6839 12.4413 20 13.2044 20 14V15.98C19.064 15.88 18.5 15.28 18.5 15C18.5 14.7348 18.3946 14.4805 18.2071 14.2929C18.0196 14.1054 17.7652 14 17.5 14C17.2348 14 16.9804 14.1054 16.7929 14.2929C16.6054 14.4805 16.5 14.7348 16.5 15C16.5 15.343 15.818 16 14.75 16C13.661 16 13 15.306 13 15C13 14.7348 12.8946 14.4805 12.7071 14.2929C12.5196 14.1054 12.2652 14 12 14C11.7348 14 11.4804 14.1054 11.2929 14.2929C11.1054 14.4805 11 14.7348 11 15C11 15.343 10.318 16 9.25 16C8.161 16 7.5 15.306 7.5 15C7.5 14.7348 7.39464 14.4805 7.20711 14.2929C7.01957 14.1054 6.76522 14 6.5 14C6.23478 14 5.98043 14.1054 5.79289 14.2929C5.60536 14.4805 5.5 14.7348 5.5 15C5.5 15.315 4.921 15.888 4 15.981V14C4 13.2044 4.31607 12.4413 4.87868 11.8787C5.44129 11.3161 6.20435 11 7 11ZM4 17.979C4.91869 17.9383 5.79793 17.594 6.5 17C7.27136 17.643 8.24308 17.9964 9.2473 17.9992C10.2515 18.0019 11.2251 17.6538 12 17.015C12.7749 17.6538 13.7485 18.0019 14.7527 17.9992C15.7569 17.9964 16.7286 17.643 17.5 17C18.2022 17.5936 19.0814 17.9376 20 17.978V22H4V17.979Z" fill="currentColor"/>
</g>
<defs>
<clipPath id="clip0_403_3125">
<rect width="24" height="24" fill="white"/>
</clipPath>
</defs>
</svg>
