<svg width="24" height="24" viewBox="0 0 24 24" fill="none" xmlns="http://www.w3.org/2000/svg">
<g clip-path="url(#clip0_403_2820)">
<path d="M21.122 12.9992C21.885 12.9984 22.6166 12.6949 23.1562 12.1554C23.6957 11.6158 23.9992 10.8843 24 10.1212C23.9989 9.31463 23.8076 8.51967 23.4417 7.80087C23.0758 7.08207 22.5455 6.45967 21.894 5.98422L15.009 0.978215C14.1356 0.339959 13.0818 -0.00402832 12 -0.00402832C10.9182 -0.00402832 9.86444 0.339959 8.991 0.978215L2.106 5.98422C1.45445 6.45967 0.924198 7.08207 0.55828 7.80087C0.192362 8.51967 0.00109332 9.31463 0 10.1212C0.000794154 10.8843 0.304266 11.6158 0.843824 12.1554C1.38338 12.6949 2.11495 12.9984 2.878 12.9992H11V22.9992C11 23.2644 11.1054 23.5188 11.2929 23.7063C11.4804 23.8939 11.7348 23.9992 12 23.9992C12.2652 23.9992 12.5196 23.8939 12.7071 23.7063C12.8946 23.5188 13 23.2644 13 22.9992V12.9992H21.122ZM15.5 8.07421C15.827 8.56564 16.001 9.14295 16 9.73322V10.9992H13V4.31222L15.5 8.07421ZM20.718 7.59922C21.1151 7.88907 21.4381 8.26855 21.6609 8.70677C21.8836 9.145 21.9998 9.62962 22 10.1212C21.9997 10.354 21.9071 10.5772 21.7425 10.7418C21.5779 10.9064 21.3548 10.999 21.122 10.9992H18V9.73322C18.0009 8.74899 17.7104 7.78652 17.165 6.96722L14.665 3.19722L20.718 7.59922ZM2 10.1212C2.00019 9.62962 2.11638 9.145 2.33915 8.70677C2.56191 8.26855 2.88495 7.88907 3.282 7.59922L9.339 3.19922L6.839 6.96921C6.29257 7.7875 6.00064 8.74925 6 9.73322V10.9992H2.878C2.64522 10.999 2.42205 10.9064 2.25745 10.7418C2.09285 10.5772 2.00026 10.354 2 10.1212ZM8 10.9992V9.73322C7.99903 9.14295 8.17302 8.56564 8.5 8.07421L11 4.31222V10.9992H8Z" fill="currentColor"/>
<path d="M4 19H2V16C2 15.7348 1.89464 15.4804 1.70711 15.2929C1.51957 15.1054 1.26522 15 1 15C0.734784 15 0.48043 15.1054 0.292893 15.2929C0.105357 15.4804 0 15.7348 0 16L0 23C0 23.2652 0.105357 23.5196 0.292893 23.7071C0.48043 23.8946 0.734784 24 1 24C1.26522 24 1.51957 23.8946 1.70711 23.7071C1.89464 23.5196 2 23.2652 2 23V21H4C4.26522 21 4.51957 21.1054 4.70711 21.2929C4.89464 21.4804 5 21.7348 5 22V23C5 23.2652 5.10536 23.5196 5.29289 23.7071C5.48043 23.8946 5.73478 24 6 24C6.26522 24 6.51957 23.8946 6.70711 23.7071C6.89464 23.5196 7 23.2652 7 23V22C7 21.2044 6.68393 20.4413 6.12132 19.8787C5.55871 19.3161 4.79565 19 4 19Z" fill="currentColor"/>
<path d="M23.0001 15C22.7349 15 22.4806 15.1054 22.293 15.2929C22.1055 15.4804 22.0001 15.7348 22.0001 16V19H20.0001C19.2045 19 18.4414 19.3161 17.8788 19.8787C17.3162 20.4413 17.0001 21.2044 17.0001 22V23C17.0001 23.2652 17.1055 23.5196 17.293 23.7071C17.4806 23.8946 17.7349 24 18.0001 24C18.2653 24 18.5197 23.8946 18.7072 23.7071C18.8948 23.5196 19.0001 23.2652 19.0001 23V22C19.0001 21.7348 19.1055 21.4804 19.293 21.2929C19.4806 21.1054 19.7349 21 20.0001 21H22.0001V23C22.0001 23.2652 22.1055 23.5196 22.293 23.7071C22.4806 23.8946 22.7349 24 23.0001 24C23.2653 24 23.5197 23.8946 23.7072 23.7071C23.8948 23.5196 24.0001 23.2652 24.0001 23V16C24.0001 15.7348 23.8948 15.4804 23.7072 15.2929C23.5197 15.1054 23.2653 15 23.0001 15Z" fill="currentColor"/>
</g>
<defs>
<clipPath id="clip0_403_2820">
<rect width="24" height="24" fill="white"/>
</clipPath>
</defs>
</svg>
