<svg width="24" height="24" viewBox="0 0 24 24" fill="none" xmlns="http://www.w3.org/2000/svg">
<g clip-path="url(#clip0_403_2822)">
<path d="M16 0H15.87C15.4225 0.00425181 14.989 0.157013 14.6377 0.434299C14.2864 0.711585 14.0371 1.09769 13.929 1.532C13.8132 1.95484 13.5617 2.32792 13.2132 2.59385C12.8647 2.85979 12.4384 3.00383 12 3.00383C11.5616 3.00383 11.1353 2.85979 10.7868 2.59385C10.4383 2.32792 10.1868 1.95484 10.071 1.532C9.9629 1.09769 9.71362 0.711585 9.36231 0.434299C9.01099 0.157013 8.57754 0.00425181 8.13 0L8 0C6.67441 0.00158786 5.40356 0.528882 4.46622 1.46622C3.52888 2.40356 3.00159 3.67441 3 5V21C3 21.7956 3.31607 22.5587 3.87868 23.1213C4.44129 23.6839 5.20435 24 6 24H8.13C8.57754 23.9957 9.01099 23.843 9.36231 23.5657C9.71362 23.2884 9.9629 22.9023 10.071 22.468C10.1868 22.0452 10.4383 21.6721 10.7868 21.4061C11.1353 21.1402 11.5616 20.9962 12 20.9962C12.4384 20.9962 12.8647 21.1402 13.2132 21.4061C13.5617 21.6721 13.8132 22.0452 13.929 22.468C14.0371 22.9023 14.2864 23.2884 14.6377 23.5657C14.989 23.843 15.4225 23.9957 15.87 24H18C18.7956 24 19.5587 23.6839 20.1213 23.1213C20.6839 22.5587 21 21.7956 21 21V5C20.9984 3.67441 20.4711 2.40356 19.5338 1.46622C18.5964 0.528882 17.3256 0.00158786 16 0V0ZM18 22L15.857 21.937C15.6221 21.0884 15.1138 20.341 14.4109 19.8108C13.708 19.2805 12.8498 18.997 11.9693 19.0042C11.0889 19.0113 10.2354 19.3088 9.54122 19.8505C8.84706 20.3921 8.35101 21.1477 8.13 22H6C5.73478 22 5.48043 21.8946 5.29289 21.7071C5.10536 21.5196 5 21.2652 5 21V17H7C7.26522 17 7.51957 16.8946 7.70711 16.7071C7.89464 16.5196 8 16.2652 8 16C8 15.7348 7.89464 15.4804 7.70711 15.2929C7.51957 15.1054 7.26522 15 7 15H5V5C5 4.20435 5.31607 3.44129 5.87868 2.87868C6.44129 2.31607 7.20435 2 8 2L8.143 2.063C8.37722 2.90643 8.881 3.65004 9.57742 4.18035C10.2738 4.71066 11.1247 4.99852 12 5C12.8872 4.99245 13.7476 4.6953 14.4503 4.15376C15.153 3.61222 15.6596 2.85595 15.893 2H16C16.7956 2 17.5587 2.31607 18.1213 2.87868C18.6839 3.44129 19 4.20435 19 5V15H17C16.7348 15 16.4804 15.1054 16.2929 15.2929C16.1054 15.4804 16 15.7348 16 16C16 16.2652 16.1054 16.5196 16.2929 16.7071C16.4804 16.8946 16.7348 17 17 17H19V21C19 21.2652 18.8946 21.5196 18.7071 21.7071C18.5196 21.8946 18.2652 22 18 22Z" fill="currentColor"/>
<path d="M13.0001 15H11.0001C10.7349 15 10.4806 15.1054 10.293 15.2929C10.1055 15.4804 10.0001 15.7348 10.0001 16C10.0001 16.2652 10.1055 16.5196 10.293 16.7071C10.4806 16.8947 10.7349 17 11.0001 17H13.0001C13.2653 17 13.5197 16.8947 13.7072 16.7071C13.8948 16.5196 14.0001 16.2652 14.0001 16C14.0001 15.7348 13.8948 15.4804 13.7072 15.2929C13.5197 15.1054 13.2653 15 13.0001 15Z" fill="currentColor"/>
</g>
<defs>
<clipPath id="clip0_403_2822">
<rect width="24" height="24" fill="white"/>
</clipPath>
</defs>
</svg>
