<svg width="24" height="24" viewBox="0 0 24 24" fill="none" xmlns="http://www.w3.org/2000/svg">
<g clip-path="url(#clip0_403_2964)">
<path d="M10 6.00024H23C23.2652 6.00024 23.5196 5.89488 23.7071 5.70735C23.8946 5.51981 24 5.26546 24 5.00024C24 4.73503 23.8946 4.48067 23.7071 4.29314C23.5196 4.1056 23.2652 4.00024 23 4.00024H10C9.73478 4.00024 9.48043 4.1056 9.29289 4.29314C9.10536 4.48067 9 4.73503 9 5.00024C9 5.26546 9.10536 5.51981 9.29289 5.70735C9.48043 5.89488 9.73478 6.00024 10 6.00024Z" fill="currentColor"/>
<path d="M23 10.9998H10C9.73478 10.9998 9.48043 11.1051 9.29289 11.2927C9.10536 11.4802 9 11.7345 9 11.9998C9 12.265 9.10536 12.5193 9.29289 12.7069C9.48043 12.8944 9.73478 12.9998 10 12.9998H23C23.2652 12.9998 23.5196 12.8944 23.7071 12.7069C23.8946 12.5193 24 12.265 24 11.9998C24 11.7345 23.8946 11.4802 23.7071 11.2927C23.5196 11.1051 23.2652 10.9998 23 10.9998Z" fill="currentColor"/>
<path d="M23 18H10C9.73478 18 9.48043 18.1054 9.29289 18.2929C9.10536 18.4804 9 18.7348 9 19C9 19.2652 9.10536 19.5196 9.29289 19.7071C9.48043 19.8947 9.73478 20 10 20H23C23.2652 20 23.5196 19.8947 23.7071 19.7071C23.8946 19.5196 24 19.2652 24 19C24 18.7348 23.8946 18.4804 23.7071 18.2929C23.5196 18.1054 23.2652 18 23 18Z" fill="currentColor"/>
<path d="M6.08692 6.00034C6.18585 6.00032 6.28256 5.97094 6.36479 5.91594C6.44703 5.86094 6.5111 5.78277 6.54889 5.69134C6.58669 5.59991 6.59651 5.49932 6.57711 5.4023C6.55771 5.30529 6.50996 5.21621 6.43992 5.14634L3.99992 2.70734C3.81239 2.51987 3.55808 2.41455 3.29292 2.41455C3.02775 2.41455 2.77345 2.51987 2.58592 2.70734L0.146918 5.14634C0.076872 5.21621 0.0291282 5.30529 0.00972972 5.4023C-0.00966876 5.49932 0.000150092 5.59991 0.0379436 5.69134C0.075737 5.78277 0.139806 5.86094 0.222042 5.91594C0.304277 5.97094 0.400983 6.00032 0.499918 6.00034H2.29392V18.0003H0.499918C0.400898 18.0002 0.304054 18.0294 0.221665 18.0843C0.139276 18.1392 0.0750515 18.2174 0.0371339 18.3089C-0.000783589 18.4003 -0.0106867 18.501 0.00868009 18.5981C0.0280469 18.6952 0.0758114 18.7844 0.145918 18.8543L2.58592 21.2933C2.77345 21.4808 3.02775 21.5861 3.29292 21.5861C3.55808 21.5861 3.81239 21.4808 3.99992 21.2933L6.43992 18.8543C6.50996 18.7845 6.55771 18.6954 6.57711 18.5984C6.59651 18.5014 6.58669 18.4008 6.54889 18.3093C6.5111 18.2179 6.44703 18.1397 6.36479 18.0847C6.28256 18.0297 6.18585 18.0004 6.08692 18.0003H4.29392V6.00034H6.08692Z" fill="currentColor"/>
</g>
<defs>
<clipPath id="clip0_403_2964">
<rect width="24" height="24" fill="white"/>
</clipPath>
</defs>
</svg>
