<svg width="24" height="24" viewBox="0 0 24 24" fill="none" xmlns="http://www.w3.org/2000/svg">
<g clip-path="url(#clip0_403_3082)">
<path d="M7 22H5C4.20435 22 3.44129 21.6839 2.87868 21.1213C2.31607 20.5587 2 19.7956 2 19V5C2 4.20435 2.31607 3.44129 2.87868 2.87868C3.44129 2.31607 4.20435 2 5 2H7C7.26522 2 7.51957 1.89464 7.70711 1.70711C7.89464 1.51957 8 1.26522 8 1C8 0.734784 7.89464 0.48043 7.70711 0.292893C7.51957 0.105357 7.26522 0 7 0L5 0C3.67441 0.00158786 2.40356 0.528882 1.46622 1.46622C0.528882 2.40356 0.00158786 3.67441 0 5L0 19C0.00158786 20.3256 0.528882 21.5964 1.46622 22.5338C2.40356 23.4711 3.67441 23.9984 5 24H7C7.26522 24 7.51957 23.8946 7.70711 23.7071C7.89464 23.5196 8 23.2652 8 23C8 22.7348 7.89464 22.4804 7.70711 22.2929C7.51957 22.1054 7.26522 22 7 22Z" fill="currentColor"/>
<path d="M22.9999 11.0002L7.22288 11.0322C7.31058 10.8693 7.42028 10.7192 7.54888 10.5862L11.4279 6.7072C11.5234 6.61496 11.5996 6.50461 11.652 6.38261C11.7044 6.2606 11.732 6.12938 11.7331 5.9966C11.7343 5.86383 11.709 5.73215 11.6587 5.60925C11.6084 5.48635 11.5342 5.3747 11.4403 5.28081C11.3464 5.18692 11.2347 5.11266 11.1118 5.06238C10.9889 5.0121 10.8573 4.9868 10.7245 4.98795C10.5917 4.98911 10.4605 5.01669 10.3385 5.0691C10.2165 5.12151 10.1061 5.19769 10.0139 5.2932L6.13288 9.1722C5.38299 9.92231 4.96173 10.9395 4.96173 12.0002C4.96173 13.0609 5.38299 14.0781 6.13288 14.8282L10.0119 18.7072C10.1041 18.8027 10.2145 18.8789 10.3365 18.9313C10.4585 18.9837 10.5897 19.0113 10.7225 19.0125C10.8553 19.0136 10.9869 18.9883 11.1098 18.938C11.2327 18.8877 11.3444 18.8135 11.4383 18.7196C11.5322 18.6257 11.6064 18.5141 11.6567 18.3912C11.707 18.2683 11.7323 18.1366 11.7311 18.0038C11.73 17.871 11.7024 17.7398 11.65 17.6178C11.5976 17.4958 11.5214 17.3855 11.4259 17.2932L7.54688 13.4142C7.43496 13.299 7.33726 13.1707 7.25588 13.0322L22.9999 13.0002C23.2651 13.0002 23.5194 12.8948 23.707 12.7073C23.8945 12.5198 23.9999 12.2654 23.9999 12.0002C23.9999 11.735 23.8945 11.4806 23.707 11.2931C23.5194 11.1056 23.2651 11.0002 22.9999 11.0002Z" fill="currentColor"/>
</g>
<defs>
<clipPath id="clip0_403_3082">
<rect width="24" height="24" fill="white"/>
</clipPath>
</defs>
</svg>
