<svg width="24" height="24" viewBox="0 0 24 24" fill="none" xmlns="http://www.w3.org/2000/svg">
<g clip-path="url(#clip0_403_2963)">
<path d="M12 0C9.62663 0 7.30655 0.703788 5.33316 2.02236C3.35977 3.34094 1.8217 5.21509 0.913451 7.4078C0.00519943 9.60051 -0.232441 12.0133 0.230582 14.3411C0.693605 16.6689 1.83649 18.8071 3.51472 20.4853C5.19295 22.1635 7.33115 23.3064 9.65892 23.7694C11.9867 24.2324 14.3995 23.9948 16.5922 23.0866C18.7849 22.1783 20.6591 20.6402 21.9776 18.6668C23.2962 16.6935 24 14.3734 24 12C23.9966 8.81846 22.7312 5.76821 20.4815 3.51852C18.2318 1.26883 15.1815 0.00344108 12 0V0ZM12 22C10.0222 22 8.08879 21.4135 6.4443 20.3147C4.79981 19.2159 3.51809 17.6541 2.76121 15.8268C2.00433 13.9996 1.8063 11.9889 2.19215 10.0491C2.578 8.10929 3.53041 6.32746 4.92894 4.92893C6.32746 3.53041 8.10929 2.578 10.0491 2.19215C11.9889 1.8063 13.9996 2.00433 15.8268 2.7612C17.6541 3.51808 19.2159 4.79981 20.3147 6.4443C21.4135 8.08879 22 10.0222 22 12C21.9971 14.6513 20.9426 17.1931 19.0679 19.0679C17.1931 20.9426 14.6513 21.9971 12 22Z" fill="currentColor"/>
<path d="M12.7171 5.06271C12.1404 4.95764 11.5477 4.9806 10.9809 5.12995C10.4141 5.27931 9.88703 5.55141 9.43701 5.92701C8.987 6.30262 8.62503 6.77253 8.37673 7.30351C8.12843 7.83449 7.99986 8.41354 8.00012 8.99971C8.00012 9.26493 8.10548 9.51928 8.29302 9.70682C8.48055 9.89435 8.7349 9.99971 9.00012 9.99971C9.26534 9.99971 9.51969 9.89435 9.70723 9.70682C9.89476 9.51928 10.0001 9.26493 10.0001 8.99971C9.99987 8.70549 10.0645 8.41483 10.1895 8.14847C10.3145 7.88211 10.4967 7.6466 10.7231 7.45874C10.9496 7.27088 11.2147 7.1353 11.4995 7.06166C11.7844 6.98802 12.082 6.97813 12.3711 7.03271C12.7662 7.10939 13.1294 7.3021 13.4144 7.5862C13.6994 7.8703 13.8932 8.23291 13.9711 8.62771C14.0498 9.04211 13.9955 9.47079 13.8159 9.85245C13.6363 10.2341 13.3406 10.5492 12.9711 10.7527C12.3593 11.1072 11.8537 11.6192 11.507 12.2355C11.1604 12.8518 10.9853 13.5498 11.0001 14.2567V14.9997C11.0001 15.2649 11.1055 15.5193 11.293 15.7068C11.4805 15.8944 11.7349 15.9997 12.0001 15.9997C12.2653 15.9997 12.5197 15.8944 12.7072 15.7068C12.8948 15.5193 13.0001 15.2649 13.0001 14.9997V14.2567C12.9876 13.9087 13.0669 13.5636 13.2302 13.256C13.3934 12.9484 13.6349 12.6893 13.9301 12.5047C14.6546 12.1068 15.2381 11.4942 15.6002 10.7511C15.9623 10.0081 16.0854 9.17107 15.9524 8.35524C15.8194 7.5394 15.437 6.7848 14.8576 6.19521C14.2783 5.60561 13.5305 5.20997 12.7171 5.06271Z" fill="currentColor"/>
<path d="M13.0002 17.9996C13.0002 17.4474 12.5525 16.9996 12.0002 16.9996C11.4479 16.9996 11.0002 17.4474 11.0002 17.9996C11.0002 18.5519 11.4479 18.9996 12.0002 18.9996C12.5525 18.9996 13.0002 18.5519 13.0002 17.9996Z" fill="currentColor"/>
</g>
<defs>
<clipPath id="clip0_403_2963">
<rect width="24" height="24" fill="white"/>
</clipPath>
</defs>
</svg>
