<svg width="24" height="24" viewBox="0 0 24 24" fill="none" xmlns="http://www.w3.org/2000/svg">
<g clip-path="url(#clip0_403_3256)">
<path d="M22.375 3.78492C20.8791 2.93343 19.2336 2.37703 17.528 2.14592C17.2697 1.649 16.9104 1.21162 16.473 0.861921C16.0019 0.48735 15.4518 0.224892 14.8643 0.0944299C14.2768 -0.036032 13.6673 -0.0310765 13.082 0.108921C11.831 0.424594 10.6176 0.874191 9.46297 1.44992C8.64329 1.0602 7.72774 0.918002 6.82847 1.04073C5.92919 1.16347 5.08524 1.54581 4.39997 2.14092C4.03297 2.45592 3.66397 2.78492 3.29997 3.12392C2.91797 3.48292 2.52897 3.89092 2.14097 4.33392C1.65481 4.88974 1.30785 5.55324 1.12876 6.26962C0.94966 6.986 0.943563 7.73472 1.11097 8.45392C1.18825 8.79342 1.3026 9.1234 1.45197 9.43792C0.87233 10.6008 0.419071 11.8224 0.0999666 13.0819C-0.0406312 13.6672 -0.045888 14.2768 0.0845961 14.8644C0.21508 15.4521 0.477868 16.0022 0.852967 16.4729C1.20631 16.9149 1.6494 17.2769 2.15297 17.5349C2.38468 19.2381 2.94071 20.8811 3.79097 22.3749C4.12085 22.9675 4.63222 23.4386 5.24984 23.7189C5.86747 23.9992 6.55874 24.0739 7.22197 23.9319C7.90802 23.796 8.53216 23.4431 9.00217 22.9252C9.47217 22.4073 9.7631 21.7519 9.83197 21.0559C10.0186 19.7685 10.357 18.5078 10.84 17.2999C10.84 17.2999 11.385 16.9639 11.634 16.7609C12.2335 16.2581 12.6591 15.5788 12.85 14.8199C13.3123 14.6669 13.7327 14.4084 14.078 14.0649C14.4143 13.7226 14.6686 13.3086 14.822 12.8539C15.5782 12.6621 16.2549 12.237 16.756 11.6389C16.956 11.3899 17.296 10.8439 17.296 10.8439C18.5012 10.348 19.7647 10.0076 21.056 9.83092C21.7519 9.76206 22.4073 9.47113 22.9252 9.00112C23.4431 8.53112 23.7961 7.90697 23.932 7.22092C24.0762 6.55692 24.0027 5.86411 23.7222 5.2452C23.4417 4.62629 22.9693 4.11423 22.375 3.78492ZM7.83897 20.8329C7.8149 21.1087 7.70164 21.3692 7.51634 21.5749C7.33103 21.7806 7.08377 21.9203 6.81197 21.9729C6.56186 22.0298 6.29997 22.0029 6.06667 21.8963C5.83337 21.7897 5.64162 21.6093 5.52097 21.3829C4.91957 20.3297 4.48857 19.1879 4.24397 17.9999H8.14397C8.25297 17.9999 8.35897 17.9779 8.46697 17.9719C8.18097 18.8549 7.83897 20.8289 7.83897 20.8329ZM10.369 15.2069C9.74111 15.7188 8.95608 15.9989 8.14597 15.9999H3.99997C3.69577 16.0006 3.39544 15.9318 3.12182 15.7989C2.8482 15.666 2.6085 15.4724 2.42097 15.2329C2.23391 14.9986 2.10273 14.7246 2.0374 14.432C1.97208 14.1393 1.97432 13.8356 2.04397 13.5439C2.24417 12.7366 2.51177 11.9475 2.84397 11.1849C3.15268 11.4265 3.49069 11.6281 3.84997 11.7849L10.527 14.7089C10.589 14.7379 10.655 14.7489 10.718 14.7729C10.6285 14.9373 10.5103 15.0843 10.369 15.2069ZM12.654 12.6549C12.4869 12.8244 12.2714 12.9378 12.0371 12.9797C11.8029 13.0216 11.5614 12.9899 11.346 12.8889L4.65297 9.95792C4.25391 9.78308 3.9021 9.51592 3.62653 9.17845C3.35096 8.84099 3.15951 8.44288 3.06797 8.01692C2.97091 7.60402 2.97343 7.17397 3.07532 6.76223C3.17721 6.3505 3.37555 5.9689 3.65397 5.64892C3.99997 5.25492 4.34197 4.89492 4.67697 4.57992C5.01197 4.26492 5.35897 3.95492 5.70397 3.65992C6.02236 3.38282 6.40159 3.18469 6.81089 3.0816C7.22019 2.97851 7.64803 2.97337 8.05969 3.06659C8.47135 3.15981 8.85523 3.34878 9.18019 3.61814C9.50515 3.88751 9.76202 4.22969 9.92997 4.61692L12.894 11.3069C12.9931 11.5299 13.0233 11.7774 12.9805 12.0177C12.9377 12.2579 12.824 12.4799 12.654 12.6549ZM16 8.14592C15.9993 8.95592 15.7196 9.74096 15.208 10.3689C15.0911 10.5043 14.9521 10.6189 14.797 10.7079C14.771 10.6379 14.752 10.5659 14.722 10.4969L11.759 3.80792C11.6092 3.46831 11.4206 3.14717 11.197 2.85092C11.9557 2.51957 12.7408 2.25198 13.544 2.05092C13.8356 1.98113 14.1394 1.97881 14.4321 2.04414C14.7247 2.10947 14.9987 2.24073 15.233 2.42792C15.473 2.61587 15.6669 2.85621 15.7998 3.13057C15.9328 3.40493 16.0012 3.70605 16 4.01092V8.14592ZM21.973 6.81192C21.9203 7.08372 21.7806 7.33099 21.5749 7.51629C21.3692 7.70159 21.1088 7.81485 20.833 7.83892C20.833 7.83892 18.855 8.18092 17.972 8.46892C17.979 8.36092 18 8.25492 18 8.14592V4.24592C19.1879 4.49053 20.3297 4.92152 21.383 5.52292C21.6086 5.64386 21.7884 5.83534 21.8949 6.06811C22.0015 6.30087 22.0289 6.56212 21.973 6.81192Z" fill="currentColor"/>
</g>
<defs>
<clipPath id="clip0_403_3256">
<rect width="24" height="24" fill="white"/>
</clipPath>
</defs>
</svg>
