<svg width="24" height="24" viewBox="0 0 24 24" fill="none" xmlns="http://www.w3.org/2000/svg">
<g clip-path="url(#clip0_403_2878)">
<path d="M21.977 11.264C21.613 5.724 16.474 1.041 10.731 1C10.5556 0.696116 10.3032 0.443739 9.9994 0.268212C9.69557 0.0926844 9.35089 0.00018439 9 0L7 0C5.93913 0 4.92172 0.421427 4.17157 1.17157C3.42143 1.92172 3 2.93913 3 4V20C3 21.0609 3.42143 22.0783 4.17157 22.8284C4.92172 23.5786 5.93913 24 7 24H9C9.35089 23.9998 9.69557 23.9073 9.9994 23.7318C10.3032 23.5563 10.5556 23.3039 10.731 23H11C12.5047 22.9974 13.993 22.6873 15.3736 22.0887C16.7541 21.4901 17.9977 20.6157 19.028 19.519C20.0634 18.4216 20.86 17.1214 21.3676 15.7006C21.8752 14.2797 22.0827 12.7691 21.977 11.264ZM17.568 18.151C16.7297 19.0542 15.7132 19.7737 14.5827 20.2641C13.4522 20.7545 12.2323 21.0051 11 21H10C9.73478 21 9.48043 21.1054 9.29289 21.2929C9.10536 21.4804 9 21.7348 9 22H7C6.46957 22 5.96086 21.7893 5.58579 21.4142C5.21071 21.0391 5 20.5304 5 20V19H6C6.26522 19 6.51957 18.8946 6.70711 18.7071C6.89464 18.5196 7 18.2652 7 18C7 17.7348 6.89464 17.4804 6.70711 17.2929C6.51957 17.1054 6.26522 17 6 17H5V15H6C6.26522 15 6.51957 14.8946 6.70711 14.7071C6.89464 14.5196 7 14.2652 7 14C7 13.7348 6.89464 13.4804 6.70711 13.2929C6.51957 13.1054 6.26522 13 6 13H5V11H6C6.26522 11 6.51957 10.8946 6.70711 10.7071C6.89464 10.5196 7 10.2652 7 10C7 9.73478 6.89464 9.48043 6.70711 9.29289C6.51957 9.10536 6.26522 9 6 9H5V7H6C6.26522 7 6.51957 6.89464 6.70711 6.70711C6.89464 6.51957 7 6.26522 7 6C7 5.73478 6.89464 5.48043 6.70711 5.29289C6.51957 5.10536 6.26522 5 6 5H5V4C5 3.46957 5.21071 2.96086 5.58579 2.58579C5.96086 2.21071 6.46957 2 7 2H9C9 2.26522 9.10536 2.51957 9.29289 2.70711C9.48043 2.89464 9.73478 3 10 3H10.656C15.413 3 19.683 6.844 19.98 11.394C20.0673 12.6259 19.898 13.8625 19.4829 15.0255C19.0677 16.1886 18.4157 17.2529 17.568 18.151ZM11 7C10.4696 7 9.96086 7.21071 9.58579 7.58579C9.21071 7.96086 9 8.46957 9 9V15C9.00615 15.5234 9.21591 16.0238 9.5848 16.3951C9.95368 16.7664 10.4527 16.9794 10.976 16.989C12.2142 16.9754 13.4049 16.511 14.3253 15.6827C15.2457 14.8543 15.8325 13.7189 15.976 12.489C16.0442 11.7945 15.9664 11.0934 15.7474 10.4308C15.5283 9.76824 15.1731 9.15883 14.7044 8.64181C14.2357 8.12479 13.6639 7.71161 13.0259 7.42885C12.388 7.14609 11.6978 7 11 7ZM11 15V9C11.4194 8.99986 11.8341 9.08763 12.2174 9.25766C12.6008 9.42769 12.9442 9.6762 13.2255 9.98715C13.5069 10.2981 13.72 10.6646 13.8509 11.063C13.9819 11.4613 14.0279 11.8827 13.986 12.3C13.8932 13.0327 13.541 13.7079 12.9932 14.2032C12.4454 14.6986 11.7383 14.9812 11 15Z" fill="currentColor"/>
</g>
<defs>
<clipPath id="clip0_403_2878">
<rect width="24" height="24" fill="white"/>
</clipPath>
</defs>
</svg>
