<svg width="24" height="24" viewBox="0 0 24 24" fill="none" xmlns="http://www.w3.org/2000/svg">
<g clip-path="url(#clip0_403_3063)">
<path d="M7.29292 2.09092L5.39992 3.98492L1.70692 0.292919C1.51832 0.110761 1.26571 0.00996641 1.00352 0.0122448C0.741321 0.0145233 0.490508 0.119692 0.3051 0.3051C0.119692 0.490508 0.0145233 0.741321 0.0122448 1.00352C0.00996641 1.26571 0.110761 1.51832 0.292919 1.70692L3.98492 5.39992L2.09092 7.29292C1.95099 7.43289 1.85574 7.61124 1.81724 7.80538C1.77873 7.99952 1.7987 8.20072 1.87462 8.3835C1.95054 8.56628 2.07899 8.72242 2.24371 8.83216C2.40842 8.94189 2.602 9.00027 2.79992 8.99992H7.56392C7.94477 8.99992 8.31002 8.84863 8.57932 8.57932C8.84863 8.31002 8.99992 7.94477 8.99992 7.56392V2.79992C9.00027 2.602 8.94189 2.40842 8.83216 2.24371C8.72242 2.07899 8.56628 1.95054 8.3835 1.87462C8.20072 1.7987 7.99952 1.77873 7.80538 1.81724C7.61124 1.85574 7.43289 1.95099 7.29292 2.09092Z" fill="currentColor"/>
<path d="M20.015 18.6L21.909 16.706C22.0486 16.566 22.1435 16.3877 22.1818 16.1937C22.2201 15.9998 22.2001 15.7988 22.1242 15.6162C22.0483 15.4337 21.92 15.2777 21.7555 15.168C21.591 15.0583 21.3977 14.9998 21.2 15H16.436C16.0552 15 15.6899 15.1513 15.4206 15.4206C15.1513 15.6899 15 16.0552 15 16.436V21.2C14.9998 21.3978 15.0584 21.5913 15.1682 21.7558C15.278 21.9204 15.4341 22.0487 15.6169 22.1245C15.7996 22.2003 16.0007 22.2202 16.1948 22.1816C16.3888 22.1431 16.5671 22.0479 16.707 21.908L18.6 20.015L22.292 23.707C22.4806 23.8892 22.7332 23.99 22.9954 23.9877C23.2576 23.9854 23.5084 23.8802 23.6938 23.6948C23.8792 23.5094 23.9844 23.2586 23.9867 22.9964C23.989 22.7342 23.8882 22.4816 23.706 22.293L20.015 18.6Z" fill="currentColor"/>
<path d="M16.436 8.99995H21.2C21.3978 9.0001 21.5913 8.94157 21.7558 8.83177C21.9204 8.72196 22.0487 8.5658 22.1245 8.38306C22.2003 8.20032 22.2201 7.99921 22.1816 7.80516C22.1431 7.61111 22.0478 7.43286 21.908 7.29295L20.015 5.39995L23.707 1.70795C23.8946 1.52044 24.0001 1.26607 24.0002 1.0008C24.0003 0.73553 23.895 0.481087 23.7075 0.293447C23.52 0.105806 23.2656 0.000337973 23.0003 0.000244203C22.7351 0.000150433 22.4806 0.105439 22.293 0.292947L18.6 3.98495L16.707 2.09095C16.567 1.95102 16.3887 1.85577 16.1945 1.81726C16.0004 1.77876 15.7992 1.79873 15.6164 1.87465C15.4336 1.95057 15.2775 2.07902 15.1678 2.24374C15.058 2.40845 14.9996 2.60203 15 2.79995V7.56395C15 7.9448 15.1513 8.31005 15.4206 8.57935C15.6899 8.84865 16.0551 8.99995 16.436 8.99995Z" fill="currentColor"/>
<path d="M7.56408 15H2.80008C2.60225 14.9998 2.40881 15.0584 2.24425 15.1682C2.07968 15.278 1.95139 15.4341 1.87559 15.6169C1.7998 15.7996 1.77991 16.0007 1.81845 16.1948C1.85698 16.3888 1.95221 16.5671 2.09208 16.707L3.98508 18.6L0.293081 22.293C0.197571 22.3852 0.121389 22.4956 0.0689798 22.6176C0.0165708 22.7396 -0.0110155 22.8708 -0.0121693 23.0036C-0.0133231 23.1364 0.0119786 23.268 0.0622595 23.3909C0.11254 23.5138 0.186794 23.6255 0.280686 23.7194C0.374579 23.8133 0.486231 23.8875 0.609127 23.9378C0.732023 23.9881 0.863703 24.0134 0.996482 24.0122C1.12926 24.0111 1.26048 23.9835 1.38249 23.9311C1.50449 23.8787 1.61483 23.8025 1.70708 23.707L5.40008 20.015L7.29408 21.909C7.43411 22.0486 7.61237 22.1435 7.80633 22.1818C8.0003 22.2201 8.20127 22.2001 8.38385 22.1242C8.56643 22.0483 8.72241 21.92 8.8321 21.7555C8.94178 21.591 9.00024 21.3977 9.00008 21.2V16.436C9.00008 16.0551 8.84879 15.6899 8.57949 15.4206C8.31018 15.1513 7.94493 15 7.56408 15Z" fill="currentColor"/>
</g>
<defs>
<clipPath id="clip0_403_3063">
<rect width="24" height="24" fill="white"/>
</clipPath>
</defs>
</svg>
