<svg width="24" height="24" viewBox="0 0 24 24" fill="none" xmlns="http://www.w3.org/2000/svg">
<g clip-path="url(#clip0_403_3272)">
<path d="M20.5368 12.7L19.4068 12L20.5378 11.3C21.3231 10.8331 21.9312 10.1187 22.2668 9.26899C22.4769 8.70713 22.5552 8.10455 22.4957 7.50767C22.4362 6.91078 22.2404 6.33552 21.9236 5.8262C21.6067 5.31688 21.1771 4.8871 20.668 4.56996C20.1588 4.25283 19.5837 4.0568 18.9868 3.99699C18.0761 3.9225 17.1665 4.15254 16.4008 4.65099L15.9998 4.89999V4.17199C16.0167 3.15674 15.6577 2.17108 14.9919 1.40447C14.3261 0.637858 13.4004 0.144413 12.3928 0.0189871C11.837 -0.0358815 11.276 0.026232 10.7457 0.201329C10.2154 0.376426 9.72759 0.660626 9.31378 1.03563C8.89996 1.41064 8.56925 1.86815 8.34294 2.3787C8.11664 2.88925 7.99975 3.44153 7.9998 3.99999V4.89999L7.5998 4.64999C6.8342 4.15013 5.92413 3.91901 5.0128 3.99299C4.41584 4.05228 3.84047 4.24786 3.33103 4.56464C2.8216 4.88143 2.39172 5.31097 2.07452 5.82015C1.75733 6.32933 1.56129 6.90454 1.50152 7.50145C1.44175 8.09836 1.51985 8.70103 1.7298 9.26299C2.06543 10.113 2.67398 10.8274 3.4598 11.294L4.5928 12L3.4618 12.7C2.6765 13.1669 2.06837 13.8812 1.7328 14.731C1.52244 15.2933 1.44411 15.8964 1.50387 16.4938C1.56362 17.0911 1.75985 17.6668 2.07741 18.1763C2.39497 18.6858 2.82536 19.1154 3.33536 19.4322C3.84536 19.7489 4.42133 19.9442 5.0188 20.003C5.92744 20.0772 6.83507 19.8483 7.5998 19.352L7.9998 19.1V20C7.9998 21.0609 8.42122 22.0783 9.17137 22.8284C9.92151 23.5786 10.9389 24 11.9998 24C13.0607 24 14.0781 23.5786 14.8282 22.8284C15.5784 22.0783 15.9998 21.0609 15.9998 20V19.1L16.3998 19.351C17.1641 19.8477 18.0713 20.0773 18.9798 20.004C19.5771 19.9449 20.1528 19.7494 20.6626 19.4326C21.1723 19.1157 21.6025 18.686 21.9198 18.1765C22.2372 17.6671 22.4332 17.0916 22.4929 16.4943C22.5525 15.8971 22.4741 15.2941 22.2638 14.732C21.9288 13.8822 21.3214 13.1676 20.5368 12.7ZM20.2258 17.118C19.9571 17.5492 19.5281 17.856 19.0332 17.9709C18.5383 18.0859 18.0181 17.9996 17.5868 17.731L15.5278 16.449C15.3762 16.3548 15.2022 16.3028 15.0238 16.2985C14.8454 16.2942 14.6691 16.3378 14.5132 16.4246C14.3573 16.5114 14.2275 16.6384 14.1372 16.7923C14.0469 16.9462 13.9995 17.1215 13.9998 17.3V20C13.9998 20.5304 13.7891 21.0391 13.414 21.4142C13.0389 21.7893 12.5302 22 11.9998 22C11.4694 22 10.9607 21.7893 10.5856 21.4142C10.2105 21.0391 9.9998 20.5304 9.9998 20V17.3C9.99975 17.1217 9.95205 16.9467 9.86162 16.793C9.77119 16.6394 9.64133 16.5127 9.48549 16.4261C9.32964 16.3395 9.15348 16.2962 8.97525 16.3005C8.79702 16.3049 8.6232 16.3569 8.4718 16.451L6.4128 17.735C6.19927 17.868 5.96164 17.9576 5.71348 17.9987C5.46532 18.0398 5.21149 18.0317 4.96649 17.9747C4.72148 17.9177 4.49009 17.8131 4.28554 17.6667C4.08098 17.5203 3.90726 17.335 3.7743 17.1215C3.64133 16.908 3.55173 16.6703 3.5106 16.4222C3.46947 16.174 3.47763 15.9202 3.5346 15.6752C3.59156 15.4302 3.69623 15.1988 3.84263 14.9942C3.98902 14.7897 4.17427 14.616 4.3878 14.483L7.0128 12.849C7.15751 12.7593 7.27692 12.6342 7.35974 12.4854C7.44255 12.3367 7.48601 12.1692 7.48601 11.999C7.48601 11.8287 7.44255 11.6613 7.35974 11.5126C7.27692 11.3638 7.15751 11.2387 7.0128 11.149L4.3878 9.51599C3.95655 9.24746 3.64965 8.81861 3.5346 8.3238C3.41954 7.82898 3.50576 7.30873 3.7743 6.87749C4.04283 6.44625 4.47167 6.13934 4.96649 6.02429C5.4613 5.90923 5.98155 5.99546 6.4128 6.26399L8.4718 7.54599C8.62299 7.63999 8.79653 7.69192 8.97451 7.69643C9.15248 7.70093 9.32843 7.65784 9.48418 7.57161C9.63993 7.48537 9.76984 7.35912 9.86048 7.20589C9.95113 7.05267 9.99922 6.87802 9.9998 6.69999V4.10699C9.989 3.62014 10.1498 3.145 10.454 2.76474C10.7582 2.38448 11.1865 2.12332 11.6638 2.02699C11.9509 1.97807 12.2451 1.99242 12.5261 2.06905C12.807 2.14567 13.0678 2.28273 13.2903 2.47062C13.5128 2.65852 13.6915 2.89273 13.8141 3.15689C13.9366 3.42105 14 3.70879 13.9998 3.99999V6.69999C14 6.87819 14.0479 7.05309 14.1384 7.2066C14.2289 7.36011 14.3587 7.48665 14.5145 7.57312C14.6704 7.65959 14.8464 7.70285 15.0246 7.69844C15.2027 7.69402 15.3765 7.64208 15.5278 7.54799L17.5868 6.26699C17.8003 6.13402 18.038 6.04442 18.2861 6.00329C18.5343 5.96216 18.7881 5.97032 19.0331 6.02729C19.2781 6.08426 19.5095 6.18892 19.7141 6.33532C19.9186 6.48171 20.0923 6.66696 20.2253 6.88049C20.3583 7.09402 20.4479 7.33165 20.489 7.5798C20.5301 7.82796 20.522 8.08179 20.465 8.3268C20.408 8.57181 20.3034 8.80319 20.157 9.00775C20.0106 9.21231 19.8253 9.38602 19.6118 9.51899L16.9868 11.153C16.8421 11.2427 16.7227 11.3678 16.6399 11.5166C16.557 11.6653 16.5136 11.8327 16.5136 12.003C16.5136 12.1732 16.557 12.3407 16.6399 12.4894C16.7227 12.6382 16.8421 12.7633 16.9868 12.853L19.6118 14.487C19.8254 14.6198 20.0108 14.7934 20.1573 14.9979C20.3038 15.2023 20.4086 15.4337 20.4656 15.6787C20.5227 15.9237 20.5308 16.1776 20.4897 16.4257C20.4485 16.6739 20.3589 16.9115 20.2258 17.125V17.118Z" fill="currentColor"/>
</g>
<defs>
<clipPath id="clip0_403_3272">
<rect width="24" height="24" fill="white"/>
</clipPath>
</defs>
</svg>
