<svg width="24" height="24" viewBox="0 0 24 24" fill="none" xmlns="http://www.w3.org/2000/svg">
<g clip-path="url(#clip0_403_2805)">
<path d="M23.7172 9.549C22.7682 7.45173 21.2725 5.64831 19.387 4.32773C17.5015 3.00714 15.2955 2.218 13.0002 2.043V1C13.0002 0.734784 12.8948 0.48043 12.7073 0.292893C12.5197 0.105357 12.2654 0 12.0002 0C11.735 0 11.4806 0.105357 11.2931 0.292893C11.1055 0.48043 11.0002 0.734784 11.0002 1V2.043C8.70231 2.21616 6.49337 3.00439 4.60496 4.32502C2.71656 5.64566 1.21826 7.45005 0.267175 9.549C0.0281218 10.149 -0.0599644 10.7985 0.010651 11.4405C0.0812663 12.0825 0.308423 12.6973 0.672175 13.231C1.03978 13.7757 1.53545 14.2218 2.1157 14.5303C2.69596 14.8387 3.34304 15 4.00017 15H11.0002V21C11.0002 21.2652 10.8948 21.5196 10.7073 21.7071C10.5197 21.8946 10.2654 22 10.0002 22C9.73496 22 9.4806 21.8946 9.29307 21.7071C9.10553 21.5196 9.00017 21.2652 9.00017 21C9.00017 20.7348 8.89482 20.4804 8.70728 20.2929C8.51974 20.1054 8.26539 20 8.00017 20C7.73496 20 7.4806 20.1054 7.29307 20.2929C7.10553 20.4804 7.00017 20.7348 7.00017 21C7.00017 21.7956 7.31625 22.5587 7.87885 23.1213C8.44146 23.6839 9.20452 24 10.0002 24C10.7958 24 11.5589 23.6839 12.1215 23.1213C12.6841 22.5587 13.0002 21.7956 13.0002 21V15H19.9832C20.6404 15 21.2877 14.8387 21.8681 14.5303C22.4485 14.2218 22.9444 13.7757 23.3122 13.231C23.6757 12.6972 23.9027 12.0824 23.9733 11.4404C24.0439 10.7985 23.956 10.149 23.7172 9.549ZM21.6562 12.11C21.4731 12.3855 21.2243 12.6112 20.9322 12.7666C20.6402 12.9219 20.314 13.0022 19.9832 13H4.00017C3.66925 13.0021 3.343 12.9218 3.05091 12.7662C2.75881 12.6107 2.51008 12.3848 2.32717 12.109C2.14585 11.8462 2.03265 11.5426 1.99775 11.2252C1.96284 10.9079 2.00731 10.5869 2.12717 10.291C3.58117 6.646 7.73417 4 12.0002 4C14.0738 3.99242 16.1059 4.5815 17.854 5.69695C19.6021 6.81241 20.9924 8.40716 21.8592 10.291C21.9791 10.5872 22.0234 10.9086 21.988 11.2262C21.9525 11.5438 21.8385 11.8475 21.6562 12.11Z" fill="currentColor"/>
</g>
<defs>
<clipPath id="clip0_403_2805">
<rect width="24" height="24" fill="white"/>
</clipPath>
</defs>
</svg>
