<svg width="24" height="24" viewBox="0 0 24 24" fill="none" xmlns="http://www.w3.org/2000/svg">
<g clip-path="url(#clip0_403_2891)">
<path d="M18.7128 11.9999H13.9998C13.4694 11.9999 12.9607 11.7892 12.5856 11.4141C12.2106 11.0391 11.9998 10.5304 11.9998 9.99992V5.27392C12.0012 4.8139 11.8968 4.35974 11.6946 3.94653C11.4924 3.53332 11.1979 3.17214 10.8338 2.89092C10.4889 2.61773 10.0857 2.4275 9.65555 2.33491C9.22537 2.24232 8.77966 2.24985 8.35285 2.35692C5.9285 2.95873 3.78218 4.36998 2.26882 6.35729C0.755461 8.34459 -0.0342771 10.7889 0.0302084 13.286C0.0946938 15.7831 1.00954 18.1834 2.62345 20.0899C4.23737 21.9965 6.45367 23.295 8.90585 23.7709C11.663 24.2987 14.5175 23.7523 16.8849 22.2438C19.2523 20.7354 20.9534 18.3789 21.6398 15.6569C21.7473 15.2296 21.7552 14.7832 21.6627 14.3524C21.5703 13.9215 21.3801 13.5176 21.1068 13.1719C20.8223 12.8084 20.4591 12.5141 20.0444 12.3111C19.6298 12.1081 19.1745 12.0017 18.7128 11.9999ZM19.7008 15.1679C19.318 16.7098 18.5324 18.1223 17.4245 19.2609C16.3166 20.3996 14.9262 21.2235 13.3954 21.6485C11.8646 22.0735 10.2484 22.0842 8.71205 21.6796C7.17574 21.275 5.77447 20.4696 4.65156 19.3457C3.52864 18.2219 2.7244 16.82 2.32107 15.2833C1.91774 13.7467 1.92981 12.1305 2.35605 10.6C2.78228 9.06958 3.60738 7.67981 4.74695 6.57286C5.88652 5.46592 7.29967 4.68153 8.84185 4.29992C8.97378 4.26696 9.1116 4.26535 9.24427 4.29522C9.37694 4.32508 9.50077 4.3856 9.60585 4.47192C9.72994 4.56653 9.83057 4.68845 9.89994 4.82823C9.96931 4.968 10.0055 5.12188 10.0058 5.27792V9.99992C10.0058 11.0608 10.4273 12.0782 11.1774 12.8283C11.9276 13.5785 12.945 13.9999 14.0058 13.9999H18.7178C18.8753 14.0006 19.0305 14.0369 19.1718 14.1062C19.3131 14.1755 19.4369 14.2759 19.5338 14.3999C19.6189 14.5065 19.6781 14.6312 19.7069 14.7645C19.7357 14.8977 19.7333 15.0358 19.6998 15.1679H19.7008Z" fill="currentColor"/>
<path d="M23.6512 7.44614C23.1908 5.75361 22.2965 4.21064 21.0566 2.96992C19.8168 1.72919 18.2744 0.83373 16.5822 0.372139C16.4048 0.324449 16.2219 0.300242 16.0382 0.300139C15.774 0.297629 15.5119 0.347507 15.267 0.446892C15.0222 0.546277 14.7994 0.693198 14.6117 0.879165C14.424 1.06513 14.275 1.28646 14.1733 1.53036C14.0716 1.77426 14.0192 2.03589 14.0192 2.30014V7.00014C14.0192 7.79579 14.3353 8.55885 14.8979 9.12146C15.4605 9.68407 16.2236 10.0001 17.0192 10.0001H21.7382C22.0469 9.99717 22.3507 9.92308 22.6261 9.78362C22.9015 9.64416 23.141 9.44309 23.3261 9.19602C23.5111 8.94896 23.6367 8.66256 23.6931 8.35908C23.7495 8.05559 23.7352 7.74319 23.6512 7.44614ZM21.1532 8.00014H17.0152C16.75 8.00014 16.4957 7.89478 16.3081 7.70725C16.1206 7.51971 16.0152 7.26536 16.0152 7.00014L16.0072 2.30714C16.0145 2.30185 16.0232 2.29873 16.0322 2.29814H16.0582C17.4203 2.66922 18.6613 3.39105 19.6573 4.39158C20.6532 5.39211 21.3694 6.63636 21.7342 8.00014H21.1532Z" fill="currentColor"/>
</g>
<defs>
<clipPath id="clip0_403_2891">
<rect width="24" height="24" fill="white"/>
</clipPath>
</defs>
</svg>
