<svg width="24" height="24" viewBox="0 0 24 24" fill="none" xmlns="http://www.w3.org/2000/svg">
<g clip-path="url(#clip0_403_3207)">
<path d="M19 6.00049H14.321C13.9224 5.71641 13.4744 5.50888 13 5.38849V5.00049L16.53 3.34849C16.6747 3.25881 16.7941 3.13367 16.8769 2.98492C16.9598 2.83617 17.0032 2.66874 17.0032 2.49849C17.0032 2.32825 16.9598 2.16082 16.8769 2.01207C16.7941 1.86332 16.6747 1.73818 16.53 1.64849L13.33 0.148494C13.0802 0.0317458 12.8049 -0.0199896 12.5297 -0.00191022C12.2545 0.0161692 11.9883 0.103477 11.7559 0.25191C11.5235 0.400343 11.3323 0.60509 11.2002 0.847144C11.068 1.0892 10.9992 1.36072 11 1.63649V5.38849C10.5258 5.50871 10.0782 5.71626 9.68 6.00049H5C3.67441 6.00208 2.40356 6.52938 1.46622 7.46671C0.528882 8.40405 0.00158786 9.6749 0 11.0005L0 21.0005C0 21.7961 0.31607 22.5592 0.87868 23.1218C1.44129 23.6844 2.20435 24.0005 3 24.0005H21C21.7956 24.0005 22.5587 23.6844 23.1213 23.1218C23.6839 22.5592 24 21.7961 24 21.0005V11.0005C23.9984 9.6749 23.4711 8.40405 22.5338 7.46671C21.5964 6.52938 20.3256 6.00208 19 6.00049ZM21.816 10.0005H19.657C18.8618 9.99847 18.0995 9.68257 17.536 9.1215L16.414 8.00049H19C19.6183 8.00306 20.2206 8.19658 20.7247 8.55458C21.2288 8.91259 21.6099 9.41759 21.816 10.0005ZM5 8.00049H7.586L6.464 9.1215C5.90047 9.68257 5.13821 9.99847 4.343 10.0005H2.184C2.39008 9.41759 2.77123 8.91259 3.2753 8.55458C3.77937 8.19658 4.38174 8.00306 5 8.00049ZM13 22.0005H11V19.0005C11 18.7353 11.1054 18.4809 11.2929 18.2934C11.4804 18.1059 11.7348 18.0005 12 18.0005C12.2652 18.0005 12.5196 18.1059 12.7071 18.2934C12.8946 18.4809 13 18.7353 13 19.0005V22.0005ZM21 22.0005H15V19.0005C15 18.2048 14.6839 17.4418 14.1213 16.8792C13.5587 16.3166 12.7956 16.0005 12 16.0005C11.2044 16.0005 10.4413 16.3166 9.87868 16.8792C9.31607 17.4418 9 18.2048 9 19.0005V22.0005H3C2.73478 22.0005 2.48043 21.8951 2.29289 21.7076C2.10536 21.5201 2 21.2657 2 21.0005V12.0005H4.343C4.99982 12.0021 5.65043 11.8735 6.25721 11.622C6.86398 11.3705 7.41487 11.0012 7.878 10.5355L10.586 7.8285C10.9611 7.45355 11.4697 7.24292 12 7.24292C12.5303 7.24292 13.0389 7.45355 13.414 7.8285L16.122 10.5355C16.5851 11.0012 17.136 11.3705 17.7428 11.622C18.3496 11.8735 19.0002 12.0021 19.657 12.0005H22V21.0005C22 21.2657 21.8946 21.5201 21.7071 21.7076C21.5196 21.8951 21.2652 22.0005 21 22.0005ZM7 15.0005C7 15.2657 6.89464 15.5201 6.70711 15.7076C6.51957 15.8951 6.26522 16.0005 6 16.0005H5C4.73478 16.0005 4.48043 15.8951 4.29289 15.7076C4.10536 15.5201 4 15.2657 4 15.0005C4 14.7353 4.10536 14.4809 4.29289 14.2934C4.48043 14.1059 4.73478 14.0005 5 14.0005H6C6.26522 14.0005 6.51957 14.1059 6.70711 14.2934C6.89464 14.4809 7 14.7353 7 15.0005ZM7 19.0005C7 19.2657 6.89464 19.5201 6.70711 19.7076C6.51957 19.8951 6.26522 20.0005 6 20.0005H5C4.73478 20.0005 4.48043 19.8951 4.29289 19.7076C4.10536 19.5201 4 19.2657 4 19.0005C4 18.7353 4.10536 18.4809 4.29289 18.2934C4.48043 18.1059 4.73478 18.0005 5 18.0005H6C6.26522 18.0005 6.51957 18.1059 6.70711 18.2934C6.89464 18.4809 7 18.7353 7 19.0005ZM20 15.0005C20 15.2657 19.8946 15.5201 19.7071 15.7076C19.5196 15.8951 19.2652 16.0005 19 16.0005H18C17.7348 16.0005 17.4804 15.8951 17.2929 15.7076C17.1054 15.5201 17 15.2657 17 15.0005C17 14.7353 17.1054 14.4809 17.2929 14.2934C17.4804 14.1059 17.7348 14.0005 18 14.0005H19C19.2652 14.0005 19.5196 14.1059 19.7071 14.2934C19.8946 14.4809 20 14.7353 20 15.0005ZM20 19.0005C20 19.2657 19.8946 19.5201 19.7071 19.7076C19.5196 19.8951 19.2652 20.0005 19 20.0005H18C17.7348 20.0005 17.4804 19.8951 17.2929 19.7076C17.1054 19.5201 17 19.2657 17 19.0005C17 18.7353 17.1054 18.4809 17.2929 18.2934C17.4804 18.1059 17.7348 18.0005 18 18.0005H19C19.2652 18.0005 19.5196 18.1059 19.7071 18.2934C19.8946 18.4809 20 18.7353 20 19.0005ZM14 12.0005C14 12.3961 13.8827 12.7827 13.6629 13.1116C13.4432 13.4405 13.1308 13.6969 12.7654 13.8483C12.3999 13.9996 11.9978 14.0392 11.6098 13.9621C11.2219 13.8849 10.8655 13.6944 10.5858 13.4147C10.3061 13.135 10.1156 12.7786 10.0384 12.3907C9.96126 12.0027 10.0009 11.6006 10.1522 11.2351C10.3036 10.8697 10.56 10.5573 10.8889 10.3376C11.2178 10.1178 11.6044 10.0005 12 10.0005C12.5304 10.0005 13.0391 10.2112 13.4142 10.5863C13.7893 10.9614 14 11.4701 14 12.0005Z" fill="currentColor"/>
</g>
<defs>
<clipPath id="clip0_403_3207">
<rect width="24" height="24" fill="white"/>
</clipPath>
</defs>
</svg>
