<svg width="24" height="24" viewBox="0 0 24 24" fill="none" xmlns="http://www.w3.org/2000/svg">
<g clip-path="url(#clip0_403_2926)">
<path d="M22.9998 16.0003C22.7346 16.0003 22.4803 16.1057 22.2927 16.2932C22.1052 16.4807 21.9998 16.7351 21.9998 17.0003V19.0003C21.9998 19.7959 21.6838 20.559 21.1212 21.1216C20.5586 21.6842 19.7955 22.0003 18.9998 22.0003H16.9998C16.7346 22.0003 16.4803 22.1056 16.2927 22.2932C16.1052 22.4807 15.9998 22.7351 15.9998 23.0003C15.9998 23.2655 16.1052 23.5199 16.2927 23.7074C16.4803 23.8949 16.7346 24.0003 16.9998 24.0003H18.9998C20.3254 23.9987 21.5963 23.4714 22.5336 22.5341C23.471 21.5967 23.9982 20.3259 23.9998 19.0003V17.0003C23.9998 16.7351 23.8945 16.4807 23.7069 16.2932C23.5194 16.1057 23.265 16.0003 22.9998 16.0003Z" fill="currentColor"/>
<path d="M1 8C1.26522 8 1.51957 7.89464 1.70711 7.70711C1.89464 7.51957 2 7.26522 2 7V5C2 4.20435 2.31607 3.44129 2.87868 2.87868C3.44129 2.31607 4.20435 2 5 2H7C7.26522 2 7.51957 1.89464 7.70711 1.70711C7.89464 1.51957 8 1.26522 8 1C8 0.734784 7.89464 0.48043 7.70711 0.292893C7.51957 0.105357 7.26522 0 7 0L5 0C3.67441 0.00158786 2.40356 0.528882 1.46622 1.46622C0.528882 2.40356 0.00158786 3.67441 0 5L0 7C0 7.26522 0.105357 7.51957 0.292893 7.70711C0.48043 7.89464 0.734784 8 1 8Z" fill="currentColor"/>
<path d="M7 22.0003H5C4.20435 22.0003 3.44129 21.6842 2.87868 21.1216C2.31607 20.559 2 19.7959 2 19.0003V17.0003C2 16.7351 1.89464 16.4807 1.70711 16.2932C1.51957 16.1057 1.26522 16.0003 1 16.0003C0.734784 16.0003 0.48043 16.1057 0.292893 16.2932C0.105357 16.4807 0 16.7351 0 17.0003L0 19.0003C0.00158786 20.3259 0.528882 21.5967 1.46622 22.5341C2.40356 23.4714 3.67441 23.9987 5 24.0003H7C7.26522 24.0003 7.51957 23.8949 7.70711 23.7074C7.89464 23.5199 8 23.2655 8 23.0003C8 22.7351 7.89464 22.4807 7.70711 22.2932C7.51957 22.1056 7.26522 22.0003 7 22.0003Z" fill="currentColor"/>
<path d="M18.9998 0H16.9998C16.7346 0 16.4803 0.105357 16.2927 0.292893C16.1052 0.48043 15.9998 0.734784 15.9998 1C15.9998 1.26522 16.1052 1.51957 16.2927 1.70711C16.4803 1.89464 16.7346 2 16.9998 2H18.9998C19.7955 2 20.5586 2.31607 21.1212 2.87868C21.6838 3.44129 21.9998 4.20435 21.9998 5V7C21.9998 7.26522 22.1052 7.51957 22.2927 7.70711C22.4803 7.89464 22.7346 8 22.9998 8C23.265 8 23.5194 7.89464 23.7069 7.70711C23.8945 7.51957 23.9998 7.26522 23.9998 7V5C23.9982 3.67441 23.471 2.40356 22.5336 1.46622C21.5963 0.528882 20.3254 0.00158786 18.9998 0V0Z" fill="currentColor"/>
<path d="M12.0002 10.9999C12.7913 10.9999 13.5646 10.7653 14.2224 10.3258C14.8802 9.88629 15.3929 9.26158 15.6957 8.53067C15.9984 7.79977 16.0776 6.9955 15.9233 6.21958C15.769 5.44366 15.388 4.73092 14.8286 4.17151C14.2692 3.6121 13.5564 3.23114 12.7805 3.0768C12.0046 2.92246 11.2003 3.00167 10.4694 3.30442C9.73851 3.60717 9.1138 4.11986 8.67427 4.77766C8.23475 5.43546 8.00015 6.20882 8.00015 6.99994C8.00015 8.06081 8.42158 9.07822 9.17173 9.82837C9.92187 10.5785 10.9393 10.9999 12.0002 10.9999ZM12.0002 4.99994C12.3957 4.99994 12.7824 5.11724 13.1113 5.337C13.4402 5.55676 13.6965 5.86912 13.8479 6.23457C13.9993 6.60003 14.0389 7.00216 13.9617 7.39012C13.8846 7.77808 13.6941 8.13445 13.4144 8.41415C13.1347 8.69386 12.7783 8.88434 12.3903 8.96151C12.0024 9.03868 11.6002 8.99908 11.2348 8.8477C10.8693 8.69632 10.557 8.43998 10.3372 8.11108C10.1175 7.78218 10.0002 7.3955 10.0002 6.99994C10.0002 6.46951 10.2109 5.9608 10.5859 5.58573C10.961 5.21065 11.4697 4.99994 12.0002 4.99994Z" fill="currentColor"/>
<path d="M18.0002 20.0003C18.2654 20.0003 18.5197 19.8949 18.7073 19.7074C18.8948 19.5199 19.0002 19.2655 19.0002 19.0003C18.9986 17.4095 18.3659 15.8843 17.241 14.7594C16.1162 13.6345 14.591 13.0019 13.0002 13.0003H11.0002C9.40934 13.0019 7.88414 13.6345 6.75927 14.7594C5.63439 15.8843 5.00174 17.4095 5.00015 19.0003C5.00015 19.2655 5.10551 19.5199 5.29305 19.7074C5.48058 19.8949 5.73494 20.0003 6.00015 20.0003C6.26537 20.0003 6.51972 19.8949 6.70726 19.7074C6.8948 19.5199 7.00015 19.2655 7.00015 19.0003C7.00015 17.9394 7.42158 16.922 8.17173 16.1719C8.92187 15.4217 9.93929 15.0003 11.0002 15.0003H13.0002C14.061 15.0003 15.0784 15.4217 15.8286 16.1719C16.5787 16.922 17.0002 17.9394 17.0002 19.0003C17.0002 19.2655 17.1055 19.5199 17.293 19.7074C17.4806 19.8949 17.7349 20.0003 18.0002 20.0003Z" fill="currentColor"/>
</g>
<defs>
<clipPath id="clip0_403_2926">
<rect width="24" height="24" fill="white"/>
</clipPath>
</defs>
</svg>
