<svg width="24" height="24" viewBox="0 0 24 24" fill="none" xmlns="http://www.w3.org/2000/svg">
<g clip-path="url(#clip0_403_2923)">
<path d="M19 0H11C9.67441 0.00158786 8.40356 0.528882 7.46622 1.46622C6.52888 2.40356 6.00159 3.67441 6 5V11H5C3.67441 11.0016 2.40356 11.5289 1.46622 12.4662C0.528882 13.4036 0.00158786 14.6744 0 16L0 19C0.00158786 20.3256 0.528882 21.5964 1.46622 22.5338C2.40356 23.4711 3.67441 23.9984 5 24H8C9.32559 23.9984 10.5964 23.4711 11.5338 22.5338C12.4711 21.5964 12.9984 20.3256 13 19V18H19C20.3256 17.9984 21.5964 17.4711 22.5338 16.5338C23.4711 15.5964 23.9984 14.3256 24 13V5C23.9984 3.67441 23.4711 2.40356 22.5338 1.46622C21.5964 0.528882 20.3256 0.00158786 19 0V0ZM11 16C10.2044 16 9.44129 15.6839 8.87868 15.1213C8.31607 14.5587 8 13.7956 8 13C8.79565 13 9.55871 13.3161 10.1213 13.8787C10.6839 14.4413 11 15.2044 11 16ZM11 19C11 19.7956 10.6839 20.5587 10.1213 21.1213C9.55871 21.6839 8.79565 22 8 22H5C4.20435 22 3.44129 21.6839 2.87868 21.1213C2.31607 20.5587 2 19.7956 2 19V16C2 15.2044 2.31607 14.4413 2.87868 13.8787C3.44129 13.3161 4.20435 13 5 13H6C6.00159 14.3256 6.52888 15.5964 7.46622 16.5338C8.40356 17.4711 9.67441 17.9984 11 18V19ZM22 13C22 13.7956 21.6839 14.5587 21.1213 15.1213C20.5587 15.6839 19.7956 16 19 16H13C12.9998 15.0203 12.71 14.0625 12.167 13.247L18 7.414V10C18 10.2652 18.1054 10.5196 18.2929 10.7071C18.4804 10.8946 18.7348 11 19 11C19.2652 11 19.5196 10.8946 19.7071 10.7071C19.8946 10.5196 20 10.2652 20 10V7C20 6.20435 19.6839 5.44129 19.1213 4.87868C18.5587 4.31607 17.7956 4 17 4H14C13.7348 4 13.4804 4.10536 13.2929 4.29289C13.1054 4.48043 13 4.73478 13 5C13 5.26522 13.1054 5.51957 13.2929 5.70711C13.4804 5.89464 13.7348 6 14 6H16.586L10.753 11.833C9.93752 11.29 8.97972 11.0002 8 11V5C8 4.20435 8.31607 3.44129 8.87868 2.87868C9.44129 2.31607 10.2044 2 11 2H19C19.7956 2 20.5587 2.31607 21.1213 2.87868C21.6839 3.44129 22 4.20435 22 5V13Z" fill="currentColor"/>
</g>
<defs>
<clipPath id="clip0_403_2923">
<rect width="24" height="24" fill="white"/>
</clipPath>
</defs>
</svg>
