<svg width="24" height="24" viewBox="0 0 24 24" fill="none" xmlns="http://www.w3.org/2000/svg">
<g clip-path="url(#clip0_403_2973)">
<path d="M23.9999 9.72369V18.9997C23.9983 20.3253 23.471 21.5961 22.5337 22.5335C21.5964 23.4708 20.3255 23.9981 18.9999 23.9997H17.9999C17.7347 23.9997 17.4803 23.8943 17.2928 23.7068C17.1053 23.5193 16.9999 23.2649 16.9999 22.9997C16.9999 22.7345 17.1053 22.4801 17.2928 22.2926C17.4803 22.1051 17.7347 21.9997 17.9999 21.9997H18.9999C19.7956 21.9997 20.5586 21.6836 21.1212 21.121C21.6838 20.5584 21.9999 19.7953 21.9999 18.9997V9.72369C21.9999 9.23261 21.8794 8.74903 21.6489 8.31541C21.4184 7.88178 21.085 7.51137 20.6779 7.23669L13.6779 2.51369C13.1833 2.1765 12.5985 1.99615 11.9999 1.99615C11.4013 1.99615 10.8165 2.1765 10.3219 2.51369L3.32191 7.23669C2.91483 7.51137 2.58141 7.88178 2.35091 8.31541C2.12041 8.74903 1.99988 9.23261 1.99991 9.72369V18.9997C1.99991 19.7953 2.31598 20.5584 2.87859 21.121C3.4412 21.6836 4.20426 21.9997 4.99991 21.9997H5.99991C6.26513 21.9997 6.51948 22.1051 6.70702 22.2926C6.89456 22.4801 6.99991 22.7345 6.99991 22.9997C6.99991 23.2649 6.89456 23.5193 6.70702 23.7068C6.51948 23.8943 6.26513 23.9997 5.99991 23.9997H4.99991C3.67432 23.9981 2.40347 23.4708 1.46613 22.5335C0.528794 21.5961 0.00150022 20.3253 -8.76357e-05 18.9997V9.72369C-0.00111251 8.90541 0.198991 8.09942 0.582617 7.37663C0.966242 6.65385 1.52163 6.03643 2.19991 5.57869L9.19991 0.854692C10.0252 0.294645 10.9996 -0.00476074 11.9969 -0.00476074C12.9943 -0.00476074 13.9687 0.294645 14.7939 0.854692L21.7939 5.57869C22.4729 6.03619 23.0291 6.65341 23.4137 7.37613C23.7984 8.09886 23.9997 8.90498 23.9999 9.72369ZM18.9999 15.0067C19.0025 15.9262 18.8226 16.8371 18.4707 17.6866C18.1188 18.5361 17.6019 19.3073 16.9499 19.9557L13.4349 23.3937C13.0501 23.7663 12.5355 23.9746 11.9999 23.9746C11.4643 23.9746 10.9497 23.7663 10.5649 23.3937L7.05791 19.9637C6.24231 19.1506 5.6399 18.1489 5.3041 17.0473C4.9683 15.9457 4.90947 14.7783 5.13284 13.6485C5.35621 12.5187 5.85487 11.4615 6.58462 10.5706C7.31436 9.67968 8.25265 8.98257 9.3163 8.54106C10.3799 8.09955 11.5361 7.92729 12.6822 8.03955C13.8284 8.1518 14.9292 8.54511 15.8869 9.1846C16.8447 9.8241 17.6299 10.69 18.1729 11.7056C18.7159 12.7212 19 13.8551 18.9999 15.0067ZM16.9999 15.0067C16.9999 14.1845 16.7972 13.3749 16.4096 12.6498C16.022 11.9246 15.4616 11.3062 14.7779 10.8494C14.0943 10.3926 13.3086 10.1114 12.4903 10.0307C11.672 9.95009 10.8465 10.0725 10.0868 10.3871C9.32717 10.7017 8.65681 11.1988 8.13514 11.8343C7.61347 12.4699 7.25658 13.2243 7.09609 14.0307C6.9356 14.8371 6.97645 15.6706 7.21504 16.4575C7.45363 17.2443 7.88259 17.9602 8.46391 18.5417L11.9639 21.9637L15.5439 18.5337C16.0075 18.0711 16.3749 17.5212 16.6248 16.9159C16.8747 16.3105 17.0022 15.6616 16.9999 15.0067ZM14.9999 14.9997C14.9999 15.593 14.824 16.1731 14.4943 16.6664C14.1647 17.1598 13.6961 17.5443 13.148 17.7713C12.5998 17.9984 11.9966 18.0578 11.4146 17.9421C10.8327 17.8263 10.2982 17.5406 9.87859 17.121C9.45903 16.7015 9.17331 16.1669 9.05756 15.585C8.9418 15.003 9.00121 14.3998 9.22827 13.8516C9.45534 13.3035 9.83986 12.8349 10.3332 12.5053C10.8266 12.1756 11.4066 11.9997 11.9999 11.9997C12.7956 11.9997 13.5586 12.3158 14.1212 12.8784C14.6838 13.441 14.9999 14.204 14.9999 14.9997Z" fill="currentColor"/>
</g>
<defs>
<clipPath id="clip0_403_2973">
<rect width="24" height="24" fill="white"/>
</clipPath>
</defs>
</svg>
