<svg width="24" height="24" viewBox="0 0 24 24" fill="none" xmlns="http://www.w3.org/2000/svg">
<g clip-path="url(#clip0_403_2984)">
<path d="M22.9422 6.83693L20.7602 4.65393L21.7072 3.70693C21.8027 3.61468 21.8789 3.50434 21.9313 3.38233C21.9837 3.26033 22.0113 3.12911 22.0125 2.99633C22.0136 2.86355 21.9883 2.73187 21.938 2.60897C21.8878 2.48608 21.8135 2.37443 21.7196 2.28053C21.6257 2.18664 21.5141 2.11239 21.3912 2.06211C21.2683 2.01183 21.1366 1.98652 21.0038 1.98768C20.871 1.98883 20.7398 2.01642 20.6178 2.06883C20.4958 2.12124 20.3855 2.19742 20.2932 2.29293L19.3462 3.23993L17.1632 1.05793C16.4752 0.40225 15.5612 0.036499 14.6107 0.036499C13.6603 0.036499 12.7463 0.40225 12.0582 1.05793C11.7228 1.39309 11.4567 1.79108 11.2751 2.22914C11.0936 2.66719 11.0001 3.13674 11.0001 3.61093C11.0001 4.08512 11.0936 4.55466 11.2751 4.99272C11.4567 5.43078 11.7228 5.82876 12.0582 6.16393L14.2402 8.34593L8.34623 14.2399L6.16323 12.0579C5.47516 11.4022 4.56117 11.0365 3.61073 11.0365C2.66028 11.0365 1.74629 11.4022 1.05823 12.0579C0.722784 12.3931 0.456681 12.7911 0.275126 13.2291C0.0935702 13.6672 0.00012207 14.1367 0.00012207 14.6109C0.00012207 15.0851 0.0935702 15.5547 0.275126 15.9927C0.456681 16.4308 0.722784 16.8288 1.05823 17.1639L3.24023 19.3459L2.29323 20.2929C2.19772 20.3852 2.12153 20.4955 2.06912 20.6175C2.01672 20.7395 1.98913 20.8707 1.98798 21.0035C1.98682 21.1363 2.01212 21.268 2.0624 21.3909C2.11268 21.5138 2.18694 21.6254 2.28083 21.7193C2.37472 21.8132 2.48638 21.8875 2.60927 21.9377C2.73217 21.988 2.86385 22.0133 2.99663 22.0122C3.12941 22.011 3.26063 21.9834 3.38263 21.931C3.50463 21.8786 3.61498 21.8024 3.70723 21.7069L4.65423 20.7599L6.83723 22.9419C7.17237 23.2772 7.57029 23.5432 8.00826 23.7247C8.44623 23.9061 8.91565 23.9995 9.38973 23.9995C9.8638 23.9995 10.3332 23.9061 10.7712 23.7247C11.2092 23.5432 11.6071 23.2772 11.9422 22.9419C12.2776 22.6068 12.5437 22.2089 12.7253 21.771C12.9068 21.333 13.0002 20.8635 13.0002 20.3894C13.0002 19.9153 12.9068 19.4459 12.7253 19.0079C12.5437 18.5699 12.2776 18.172 11.9422 17.8369L9.76023 15.6549L15.6602 9.75993L17.8422 11.9419C18.1774 12.2772 18.5753 12.5432 19.0133 12.7247C19.4512 12.9061 19.9207 12.9995 20.3947 12.9995C20.8688 12.9995 21.3382 12.9061 21.7762 12.7247C22.2142 12.5432 22.6121 12.2772 22.9472 11.9419C23.2826 11.6068 23.5487 11.2089 23.7303 10.771C23.9118 10.333 24.0052 9.86354 24.0052 9.38943C24.0052 8.91532 23.9118 8.44586 23.7303 8.00788C23.5487 7.56991 23.2826 7.17201 22.9472 6.83693H22.9422ZM11.0002 20.3899C11.0007 20.6014 10.9592 20.8108 10.8781 21.0062C10.7971 21.2015 10.6782 21.3788 10.5282 21.5279C10.2217 21.8211 9.8139 21.9848 9.38973 21.9848C8.96555 21.9848 8.55774 21.8211 8.25123 21.5279L2.47223 15.7489C2.17028 15.447 2.00064 15.0374 2.00064 14.6104C2.00064 14.1834 2.17028 13.7739 2.47223 13.4719C2.77417 13.17 3.18371 13.0003 3.61073 13.0003C4.03775 13.0003 4.44728 13.17 4.74923 13.4719L10.5282 19.2509C10.6783 19.4001 10.7973 19.5776 10.8783 19.7731C10.9594 19.9687 11.0008 20.1783 11.0002 20.3899ZM21.5282 10.5279C21.2217 10.8211 20.8139 10.9848 20.3897 10.9848C19.9656 10.9848 19.5577 10.8211 19.2512 10.5279L13.4722 4.74893C13.3227 4.59942 13.2041 4.42192 13.1232 4.22658C13.0423 4.03124 13.0006 3.82187 13.0006 3.61043C13.0006 3.18341 13.1703 2.77388 13.4722 2.47193C13.7742 2.16998 14.1837 2.00035 14.6107 2.00035C15.0377 2.00035 15.4473 2.16998 15.7492 2.47193L21.5282 8.25093C21.6779 8.40037 21.7966 8.57784 21.8776 8.77319C21.9586 8.96854 22.0003 9.17795 22.0003 9.38943C22.0003 9.60091 21.9586 9.81031 21.8776 10.0057C21.7966 10.201 21.6779 10.3785 21.5282 10.5279Z" fill="currentColor"/>
</g>
<defs>
<clipPath id="clip0_403_2984">
<rect width="24" height="24" fill="white"/>
</clipPath>
</defs>
</svg>
