<svg width="24" height="24" viewBox="0 0 24 24" fill="none" xmlns="http://www.w3.org/2000/svg">
<g clip-path="url(#clip0_403_3132)">
<path d="M7 14C7 14.2652 6.89464 14.5196 6.70711 14.7071C6.51957 14.8946 6.26522 15 6 15H5C4.73478 15 4.48043 14.8946 4.29289 14.7071C4.10536 14.5196 4 14.2652 4 14C4 13.7348 4.10536 13.4804 4.29289 13.2929C4.48043 13.1054 4.73478 13 5 13H6C6.26522 13 6.51957 13.1054 6.70711 13.2929C6.89464 13.4804 7 13.7348 7 14ZM11 13H10C9.73478 13 9.48043 13.1054 9.29289 13.2929C9.10536 13.4804 9 13.7348 9 14C9 14.2652 9.10536 14.5196 9.29289 14.7071C9.48043 14.8946 9.73478 15 10 15H11C11.2652 15 11.5196 14.8946 11.7071 14.7071C11.8946 14.5196 12 14.2652 12 14C12 13.7348 11.8946 13.4804 11.7071 13.2929C11.5196 13.1054 11.2652 13 11 13ZM6 17H5C4.73478 17 4.48043 17.1054 4.29289 17.2929C4.10536 17.4804 4 17.7348 4 18C4 18.2652 4.10536 18.5196 4.29289 18.7071C4.48043 18.8946 4.73478 19 5 19H6C6.26522 19 6.51957 18.8946 6.70711 18.7071C6.89464 18.5196 7 18.2652 7 18C7 17.7348 6.89464 17.4804 6.70711 17.2929C6.51957 17.1054 6.26522 17 6 17ZM11 17H10C9.73478 17 9.48043 17.1054 9.29289 17.2929C9.10536 17.4804 9 17.7348 9 18C9 18.2652 9.10536 18.5196 9.29289 18.7071C9.48043 18.8946 9.73478 19 10 19H11C11.2652 19 11.5196 18.8946 11.7071 18.7071C11.8946 18.5196 12 18.2652 12 18C12 17.7348 11.8946 17.4804 11.7071 17.2929C11.5196 17.1054 11.2652 17 11 17ZM6 5H5C4.73478 5 4.48043 5.10536 4.29289 5.29289C4.10536 5.48043 4 5.73478 4 6C4 6.26522 4.10536 6.51957 4.29289 6.70711C4.48043 6.89464 4.73478 7 5 7H6C6.26522 7 6.51957 6.89464 6.70711 6.70711C6.89464 6.51957 7 6.26522 7 6C7 5.73478 6.89464 5.48043 6.70711 5.29289C6.51957 5.10536 6.26522 5 6 5ZM11 5H10C9.73478 5 9.48043 5.10536 9.29289 5.29289C9.10536 5.48043 9 5.73478 9 6C9 6.26522 9.10536 6.51957 9.29289 6.70711C9.48043 6.89464 9.73478 7 10 7H11C11.2652 7 11.5196 6.89464 11.7071 6.70711C11.8946 6.51957 12 6.26522 12 6C12 5.73478 11.8946 5.48043 11.7071 5.29289C11.5196 5.10536 11.2652 5 11 5ZM6 9H5C4.73478 9 4.48043 9.10536 4.29289 9.29289C4.10536 9.48043 4 9.73478 4 10C4 10.2652 4.10536 10.5196 4.29289 10.7071C4.48043 10.8946 4.73478 11 5 11H6C6.26522 11 6.51957 10.8946 6.70711 10.7071C6.89464 10.5196 7 10.2652 7 10C7 9.73478 6.89464 9.48043 6.70711 9.29289C6.51957 9.10536 6.26522 9 6 9ZM11 9H10C9.73478 9 9.48043 9.10536 9.29289 9.29289C9.10536 9.48043 9 9.73478 9 10C9 10.2652 9.10536 10.5196 9.29289 10.7071C9.48043 10.8946 9.73478 11 10 11H11C11.2652 11 11.5196 10.8946 11.7071 10.7071C11.8946 10.5196 12 10.2652 12 10C12 9.73478 11.8946 9.48043 11.7071 9.29289C11.5196 9.10536 11.2652 9 11 9ZM24 10V19C23.9984 20.3256 23.4711 21.5964 22.5338 22.5338C21.5964 23.4711 20.3256 23.9984 19 24H5C3.67441 23.9984 2.40356 23.4711 1.46622 22.5338C0.528882 21.5964 0.00158786 20.3256 0 19L0 5C0.00158786 3.67441 0.528882 2.40356 1.46622 1.46622C2.40356 0.528882 3.67441 0.00158786 5 0L11 0C12.3256 0.00158786 13.5964 0.528882 14.5338 1.46622C15.4711 2.40356 15.9984 3.67441 16 5H19C20.3256 5.00159 21.5964 5.52888 22.5338 6.46622C23.4711 7.40356 23.9984 8.67441 24 10ZM5 22H14V5C14 4.20435 13.6839 3.44129 13.1213 2.87868C12.5587 2.31607 11.7956 2 11 2H5C4.20435 2 3.44129 2.31607 2.87868 2.87868C2.31607 3.44129 2 4.20435 2 5V19C2 19.7956 2.31607 20.5587 2.87868 21.1213C3.44129 21.6839 4.20435 22 5 22ZM22 10C22 9.20435 21.6839 8.44129 21.1213 7.87868C20.5587 7.31607 19.7956 7 19 7H16V22H19C19.7956 22 20.5587 21.6839 21.1213 21.1213C21.6839 20.5587 22 19.7956 22 19V10ZM19 13C18.8022 13 18.6089 13.0586 18.4444 13.1685C18.28 13.2784 18.1518 13.4346 18.0761 13.6173C18.0004 13.8 17.9806 14.0011 18.0192 14.1951C18.0578 14.3891 18.153 14.5673 18.2929 14.7071C18.4327 14.847 18.6109 14.9422 18.8049 14.9808C18.9989 15.0194 19.2 14.9996 19.3827 14.9239C19.5654 14.8482 19.7216 14.72 19.8315 14.5556C19.9414 14.3911 20 14.1978 20 14C20 13.7348 19.8946 13.4804 19.7071 13.2929C19.5196 13.1054 19.2652 13 19 13ZM19 17C18.8022 17 18.6089 17.0586 18.4444 17.1685C18.28 17.2784 18.1518 17.4346 18.0761 17.6173C18.0004 17.8 17.9806 18.0011 18.0192 18.1951C18.0578 18.3891 18.153 18.5673 18.2929 18.7071C18.4327 18.847 18.6109 18.9422 18.8049 18.9808C18.9989 19.0194 19.2 18.9996 19.3827 18.9239C19.5654 18.8482 19.7216 18.72 19.8315 18.5556C19.9414 18.3911 20 18.1978 20 18C20 17.7348 19.8946 17.4804 19.7071 17.2929C19.5196 17.1054 19.2652 17 19 17ZM19 9C18.8022 9 18.6089 9.05865 18.4444 9.16853C18.28 9.27841 18.1518 9.43459 18.0761 9.61732C18.0004 9.80004 17.9806 10.0011 18.0192 10.1951C18.0578 10.3891 18.153 10.5673 18.2929 10.7071C18.4327 10.847 18.6109 10.9422 18.8049 10.9808C18.9989 11.0194 19.2 10.9996 19.3827 10.9239C19.5654 10.8482 19.7216 10.72 19.8315 10.5556C19.9414 10.3911 20 10.1978 20 10C20 9.73478 19.8946 9.48043 19.7071 9.29289C19.5196 9.10536 19.2652 9 19 9Z" fill="currentColor"/>
</g>
<defs>
<clipPath id="clip0_403_3132">
<rect width="24" height="24" fill="white"/>
</clipPath>
</defs>
</svg>
