<svg width="24" height="24" viewBox="0 0 24 24" fill="none" xmlns="http://www.w3.org/2000/svg">
<g clip-path="url(#clip0_403_3144)">
<path d="M19 0H5C3.67441 0.00158786 2.40356 0.528882 1.46622 1.46622C0.528882 2.40356 0.00158786 3.67441 0 5L0 10C0.00238142 11.8558 0.740644 13.6349 2.05288 14.9471C3.36512 16.2594 5.14422 16.9976 7 17H9V21C9 21.7956 9.31607 22.5587 9.87868 23.1213C10.4413 23.6839 11.2044 24 12 24C12.7956 24 13.5587 23.6839 14.1213 23.1213C14.6839 22.5587 15 21.7956 15 21V17H17C18.8558 16.9976 20.6349 16.2594 21.9471 14.9471C23.2594 13.6349 23.9976 11.8558 24 10V5C23.9984 3.67441 23.4711 2.40356 22.5338 1.46622C21.5964 0.528882 20.3256 0.00158786 19 0V0ZM2 5C2 4.20435 2.31607 3.44129 2.87868 2.87868C3.44129 2.31607 4.20435 2 5 2H10V3C10 3.26522 10.1054 3.51957 10.2929 3.70711C10.4804 3.89464 10.7348 4 11 4C11.2652 4 11.5196 3.89464 11.7071 3.70711C11.8946 3.51957 12 3.26522 12 3V2H14V5C14 5.26522 14.1054 5.51957 14.2929 5.70711C14.4804 5.89464 14.7348 6 15 6C15.2652 6 15.5196 5.89464 15.7071 5.70711C15.8946 5.51957 16 5.26522 16 5V2H18V7C18 7.26522 18.1054 7.51957 18.2929 7.70711C18.4804 7.89464 18.7348 8 19 8C19.2652 8 19.5196 7.89464 19.7071 7.70711C19.8946 7.51957 20 7.26522 20 7V2.184C20.5829 2.39008 21.0879 2.77123 21.4459 3.2753C21.8039 3.77937 21.9974 4.38174 22 5V10H2V5ZM17 15H14C13.7348 15 13.4804 15.1054 13.2929 15.2929C13.1054 15.4804 13 15.7348 13 16V21C13 21.2652 12.8946 21.5196 12.7071 21.7071C12.5196 21.8946 12.2652 22 12 22C11.7348 22 11.4804 21.8946 11.2929 21.7071C11.1054 21.5196 11 21.2652 11 21V16C11 15.7348 10.8946 15.4804 10.7071 15.2929C10.5196 15.1054 10.2652 15 10 15H7C6.02823 14.9987 5.0779 14.7143 4.26521 14.1815C3.45252 13.6487 2.81271 12.8906 2.424 12H21.576C21.1873 12.8906 20.5475 13.6487 19.7348 14.1815C18.9221 14.7143 17.9718 14.9987 17 15Z" fill="currentColor"/>
</g>
<defs>
<clipPath id="clip0_403_3144">
<rect width="24" height="24" fill="white"/>
</clipPath>
</defs>
</svg>
