<svg width="24" height="24" viewBox="0 0 24 24" fill="none" xmlns="http://www.w3.org/2000/svg">
<g clip-path="url(#clip0_403_3065)">
<path d="M11.476 15C11.2108 15 10.9564 15.1054 10.7689 15.2929C10.5814 15.4804 10.476 15.7348 10.476 16V19C10.476 19.7956 10.1599 20.5587 9.59732 21.1213C9.03471 21.6839 8.27165 22 7.476 22H5C4.20435 22 3.44129 21.6839 2.87868 21.1213C2.31607 20.5587 2 19.7956 2 19V5C2 4.20435 2.31607 3.44129 2.87868 2.87868C3.44129 2.31607 4.20435 2 5 2H7.476C8.27165 2 9.03471 2.31607 9.59732 2.87868C10.1599 3.44129 10.476 4.20435 10.476 5V8C10.476 8.26522 10.5814 8.51957 10.7689 8.70711C10.9564 8.89464 11.2108 9 11.476 9C11.7412 9 11.9956 8.89464 12.1831 8.70711C12.3706 8.51957 12.476 8.26522 12.476 8V5C12.4744 3.67441 11.9471 2.40356 11.0098 1.46622C10.0724 0.528882 8.80159 0.00158786 7.476 0H5C3.67441 0.00158786 2.40356 0.528882 1.46622 1.46622C0.528882 2.40356 0.00158786 3.67441 0 5L0 19C0.00158786 20.3256 0.528882 21.5964 1.46622 22.5338C2.40356 23.4711 3.67441 23.9984 5 24H7.476C8.80159 23.9984 10.0724 23.4711 11.0098 22.5338C11.9471 21.5964 12.4744 20.3256 12.476 19V16C12.476 15.7348 12.3706 15.4804 12.1831 15.2929C11.9956 15.1054 11.7412 15 11.476 15Z" fill="currentColor"/>
<path d="M22.8672 9.8792L18.2812 5.2932C18.1889 5.19769 18.0786 5.12151 17.9566 5.0691C17.8346 5.01669 17.7033 4.98911 17.5706 4.98795C17.4378 4.9868 17.3061 5.0121 17.1832 5.06238C17.0603 5.11266 16.9487 5.18692 16.8548 5.28081C16.7609 5.3747 16.6866 5.48635 16.6363 5.60925C16.5861 5.73215 16.5608 5.86383 16.5619 5.9966C16.5631 6.12938 16.5906 6.2606 16.6431 6.38261C16.6955 6.50461 16.7716 6.61496 16.8672 6.7072L21.1292 10.9702L6.00015 11.0002C5.73494 11.0002 5.48058 11.1056 5.29305 11.2931C5.10551 11.4806 5.00015 11.735 5.00015 12.0002C5.00015 12.2654 5.10551 12.5198 5.29305 12.7073C5.48058 12.8948 5.73494 13.0002 6.00015 13.0002L21.1882 12.9692L16.8652 17.2932C16.7696 17.3855 16.6935 17.4958 16.6411 17.6178C16.5886 17.7398 16.5611 17.871 16.5599 18.0038C16.5588 18.1366 16.5841 18.2683 16.6343 18.3912C16.6846 18.5141 16.7589 18.6257 16.8528 18.7196C16.9467 18.8135 17.0583 18.8877 17.1812 18.938C17.3041 18.9883 17.4358 19.0136 17.5686 19.0125C17.7013 19.0113 17.8326 18.9837 17.9546 18.9313C18.0766 18.8789 18.1869 18.8027 18.2792 18.7072L22.8652 14.1212C23.4278 13.5589 23.7441 12.7961 23.7445 12.0006C23.7449 11.2051 23.4293 10.4421 22.8672 9.8792Z" fill="currentColor"/>
</g>
<defs>
<clipPath id="clip0_403_3065">
<rect width="24" height="24" fill="white"/>
</clipPath>
</defs>
</svg>
