<svg width="24" height="24" viewBox="0 0 24 24" fill="none" xmlns="http://www.w3.org/2000/svg">
<g clip-path="url(#clip0_403_3077)">
<path d="M18.4002 7.37877C18.2193 7.32717 18.0542 7.23116 17.9199 7.09947C17.7856 6.96778 17.6863 6.8046 17.6312 6.62477C17.325 5.58681 16.8113 4.62178 16.1214 3.78806C15.4314 2.95434 14.5795 2.26928 13.6171 1.77433C12.6547 1.27937 11.602 0.984812 10.5225 0.908477C9.44298 0.832143 8.35922 0.975619 7.33678 1.33022C6.31434 1.68483 5.37448 2.24319 4.57406 2.97151C3.77364 3.69984 3.12932 4.58299 2.68007 5.56752C2.23082 6.55205 1.986 7.6175 1.96041 8.69938C1.93482 9.78127 2.129 10.8571 2.5312 11.8618C2.62359 12.0732 2.64348 12.3092 2.58778 12.5332C2.53207 12.7571 2.40389 12.9563 2.2232 13.0998C1.42692 13.6908 0.805241 14.486 0.423947 15.4014C0.0426523 16.3168 -0.0840687 17.3183 0.0571956 18.2998C0.277649 19.6266 0.96652 20.8305 1.99878 21.6929C3.03103 22.5552 4.33826 23.0189 5.6832 22.9998H11.0002C11.2654 22.9998 11.5198 22.8944 11.7073 22.7069C11.8948 22.5193 12.0002 22.265 12.0002 21.9998C12.0002 21.7345 11.8948 21.4802 11.7073 21.2927C11.5198 21.1051 11.2654 20.9998 11.0002 20.9998H5.6832C4.81948 21.0207 3.97682 20.7316 3.30796 20.1847C2.63909 19.6378 2.18827 18.8694 2.0372 18.0188C1.94139 17.3935 2.01904 16.7539 2.26167 16.1697C2.5043 15.5856 2.90261 15.0792 3.4132 14.7058C3.94952 14.3049 4.33748 13.7373 4.51613 13.092C4.69478 12.4467 4.654 11.7604 4.4002 11.1408C3.89835 9.81547 3.87254 8.35698 4.3272 7.01477C4.69039 5.96334 5.34078 5.03464 6.20468 4.33387C7.06858 3.6331 8.11147 3.18827 9.2152 3.04977C9.47121 3.01681 9.72906 3.00011 9.9872 2.99977C11.2803 2.9955 12.5399 3.4102 13.5775 4.18176C14.6152 4.95332 15.375 6.04024 15.7432 7.27977C15.8869 7.75214 16.1459 8.18134 16.4968 8.52872C16.8476 8.87611 17.2794 9.13077 17.7532 9.26977C18.9127 9.61269 19.9398 10.3016 20.6969 11.2444C21.454 12.1871 21.9051 13.3387 21.9897 14.5448C22.0743 15.751 21.7885 16.9543 21.1704 17.9935C20.5523 19.0327 19.6315 19.8583 18.5312 20.3598C18.3684 20.4431 18.2322 20.5706 18.1383 20.7276C18.0445 20.8846 17.9966 21.0649 18.0002 21.2478C17.9982 21.4132 18.0379 21.5765 18.1155 21.7227C18.1931 21.8689 18.3062 21.9932 18.4443 22.0843C18.5825 22.1754 18.7413 22.2303 18.9063 22.244C19.0712 22.2577 19.2369 22.2298 19.3882 22.1628C23.5222 20.1758 25.7682 14.9488 22.2682 9.89877C21.3045 8.64168 19.9395 7.75238 18.4002 7.37877Z" fill="currentColor"/>
<path d="M18.7071 16.707C18.8946 16.5194 18.9999 16.2651 18.9999 16C18.9999 15.7348 18.8946 15.4805 18.7071 15.293L17.1211 13.707C16.5585 13.1446 15.7956 12.8286 15.0001 12.8286C14.2046 12.8286 13.4417 13.1446 12.8791 13.707L11.2931 15.293C11.1109 15.4816 11.0101 15.7342 11.0124 15.9964C11.0147 16.2586 11.1199 16.5094 11.3053 16.6948C11.4907 16.8802 11.7415 16.9854 12.0037 16.9876C12.2659 16.9899 12.5185 16.8891 12.7071 16.707L14.0001 15.414V23C14.0001 23.2652 14.1055 23.5195 14.293 23.7071C14.4805 23.8946 14.7349 24 15.0001 24C15.2653 24 15.5197 23.8946 15.7072 23.7071C15.8947 23.5195 16.0001 23.2652 16.0001 23V15.414L17.2931 16.707C17.4806 16.8944 17.7349 16.9998 18.0001 16.9998C18.2653 16.9998 18.5196 16.8944 18.7071 16.707Z" fill="currentColor"/>
</g>
<defs>
<clipPath id="clip0_403_3077">
<rect width="24" height="24" fill="white"/>
</clipPath>
</defs>
</svg>
