<svg width="24" height="24" viewBox="0 0 24 24" fill="none" xmlns="http://www.w3.org/2000/svg">
<g clip-path="url(#clip0_403_3120)">
<path d="M12 24C9.62663 24 7.30655 23.2962 5.33316 21.9776C3.35977 20.6591 1.8217 18.7849 0.913451 16.5922C0.00519943 14.3995 -0.232441 11.9867 0.230582 9.65892C0.693605 7.33115 1.83649 5.19295 3.51472 3.51472C5.19295 1.83649 7.33115 0.693605 9.65892 0.230582C11.9867 -0.232441 14.3995 0.00519943 16.5922 0.913451C18.7849 1.8217 20.6591 3.35977 21.9776 5.33316C23.2962 7.30655 24 9.62663 24 12C23.9966 15.1815 22.7312 18.2318 20.4815 20.4815C18.2318 22.7312 15.1815 23.9966 12 24ZM12 2.00001C10.0222 2.00001 8.08879 2.5865 6.4443 3.68531C4.79981 4.78412 3.51809 6.34591 2.76121 8.17317C2.00433 10.0004 1.8063 12.0111 2.19215 13.9509C2.578 15.8907 3.53041 17.6725 4.92894 19.0711C6.32746 20.4696 8.10929 21.422 10.0491 21.8079C11.9889 22.1937 13.9996 21.9957 15.8268 21.2388C17.6541 20.4819 19.2159 19.2002 20.3147 17.5557C21.4135 15.9112 22 13.9778 22 12C21.9971 9.34873 20.9426 6.80689 19.0679 4.93215C17.1931 3.05742 14.6513 2.00292 12 2.00001ZM17.746 17.667C17.8336 17.569 17.9011 17.4547 17.9445 17.3306C17.9879 17.2066 18.0064 17.0752 17.999 16.9439C17.9915 16.8127 17.9583 16.6842 17.9012 16.5658C17.844 16.4474 17.7641 16.3415 17.666 16.254C16.0781 14.8975 14.0858 14.1049 12 14C9.91422 14.1049 7.92187 14.8975 6.33401 16.254C6.13589 16.4304 6.01595 16.6782 6.00057 16.943C5.98519 17.2078 6.07564 17.4679 6.25201 17.666C6.42837 17.8641 6.67622 17.9841 6.94102 17.9994C7.20582 18.0148 7.46589 17.9244 7.66401 17.748C8.88648 16.7187 10.4055 16.1064 12 16C13.5945 16.1065 15.1135 16.7188 16.336 17.748C16.5339 17.9239 16.7934 18.0142 17.0577 17.999C17.3221 17.9838 17.5696 17.8644 17.746 17.667ZM6.00001 10C6.00001 11 6.89501 11 8.00001 11C9.10501 11 10 11 10 10C10 9.46957 9.78929 8.96087 9.41422 8.58579C9.03915 8.21072 8.53044 8.00001 8.00001 8.00001C7.46957 8.00001 6.96086 8.21072 6.58579 8.58579C6.21072 8.96087 6.00001 9.46957 6.00001 10ZM14 10C14 11 14.895 11 16 11C17.105 11 18 11 18 10C18 9.46957 17.7893 8.96087 17.4142 8.58579C17.0391 8.21072 16.5304 8.00001 16 8.00001C15.4696 8.00001 14.9609 8.21072 14.5858 8.58579C14.2107 8.96087 14 9.46957 14 10Z" fill="currentColor"/>
</g>
<defs>
<clipPath id="clip0_403_3120">
<rect width="24" height="24" fill="white"/>
</clipPath>
</defs>
</svg>
