<svg width="24" height="24" viewBox="0 0 24 24" fill="none" xmlns="http://www.w3.org/2000/svg">
<g clip-path="url(#clip0_403_3056)">
<path d="M24.0002 7.49939C24.0028 6.10609 23.6166 4.73969 22.8849 3.55396C22.1532 2.36822 21.1052 1.41021 19.8587 0.787733C18.6121 0.165251 17.2166 -0.0969985 15.8292 0.0304948C14.4417 0.157988 13.1174 0.670164 12.0052 1.50939C11.1062 0.831545 10.0661 0.364794 8.96217 0.143758C7.85819 -0.077279 6.71862 -0.0469289 5.62797 0.232557C4.53733 0.512042 3.5236 1.03349 2.66199 1.75822C1.80038 2.48296 1.11299 3.39238 0.650805 4.41902C0.188625 5.44567 -0.0364836 6.5632 -0.00782325 7.68872C0.0208371 8.81424 0.302531 9.91887 0.816364 10.9207C1.3302 11.9225 2.06298 12.7957 2.96036 13.4757C3.85775 14.1556 4.8967 14.6248 6.00015 14.8484V18.9994H4.00015C3.73494 18.9994 3.48058 19.1047 3.29305 19.2923C3.10551 19.4798 3.00015 19.7342 3.00015 19.9994C3.00015 20.2646 3.10551 20.519 3.29305 20.7065C3.48058 20.894 3.73494 20.9994 4.00015 20.9994H6.00015V22.9994C6.00015 23.2646 6.10551 23.519 6.29305 23.7065C6.48058 23.894 6.73494 23.9994 7.00015 23.9994C7.26537 23.9994 7.51972 23.894 7.70726 23.7065C7.8948 23.519 8.00015 23.2646 8.00015 22.9994V20.9994H10.0002C10.2654 20.9994 10.5197 20.894 10.7073 20.7065C10.8948 20.519 11.0002 20.2646 11.0002 19.9994C11.0002 19.7342 10.8948 19.4798 10.7073 19.2923C10.5197 19.1047 10.2654 18.9994 10.0002 18.9994H8.00015V14.9754C9.45168 14.8821 10.8441 14.3655 12.0052 13.4894C13.164 14.3626 14.5524 14.8787 16.0002 14.9744V18.9994H14.0002C13.7349 18.9994 13.4806 19.1047 13.293 19.2923C13.1055 19.4798 13.0002 19.7342 13.0002 19.9994C13.0002 20.2646 13.1055 20.519 13.293 20.7065C13.4806 20.894 13.7349 20.9994 14.0002 20.9994H16.0002V22.9994C16.0002 23.2646 16.1055 23.519 16.293 23.7065C16.4806 23.894 16.7349 23.9994 17.0002 23.9994C17.2654 23.9994 17.5197 23.894 17.7073 23.7065C17.8948 23.519 18.0002 23.2646 18.0002 22.9994V20.9994H20.0002C20.2654 20.9994 20.5197 20.894 20.7073 20.7065C20.8948 20.519 21.0002 20.2646 21.0002 19.9994C21.0002 19.7342 20.8948 19.4798 20.7073 19.2923C20.5197 19.1047 20.2654 18.9994 20.0002 18.9994H18.0002V14.8484C19.6929 14.5004 21.2139 13.5794 22.3069 12.2407C23.3998 10.9021 23.9978 9.22755 24.0002 7.49939ZM22.0002 7.49939C22.0002 8.58719 21.6776 9.65055 21.0732 10.555C20.4689 11.4595 19.6099 12.1644 18.6049 12.5807C17.5999 12.997 16.4941 13.1059 15.4272 12.8937C14.3603 12.6815 13.3803 12.1577 12.6111 11.3885C11.8419 10.6193 11.3181 9.63928 11.1058 8.57239C10.8936 7.50549 11.0025 6.39962 11.4188 5.39463C11.8351 4.38964 12.54 3.53065 13.4445 2.92631C14.349 2.32196 15.4124 1.99939 16.5002 1.99939C17.9584 2.00098 19.3564 2.58095 20.3875 3.61206C21.4186 4.64316 21.9986 6.04119 22.0002 7.49939ZM2.00015 7.49939C1.99841 6.50236 2.26821 5.52368 2.78059 4.66839C3.29298 3.8131 4.02861 3.11349 4.90852 2.64464C5.78844 2.1758 6.77942 1.95543 7.7751 2.00718C8.77079 2.05893 9.73358 2.38085 10.5602 2.93839C9.54899 4.24378 9.00027 5.84818 9.00027 7.49939C9.00027 9.1506 9.54899 10.755 10.5602 12.0604C9.73358 12.6179 8.77079 12.9398 7.7751 12.9916C6.77942 13.0433 5.78844 12.823 4.90852 12.3541C4.02861 11.8853 3.29298 11.1857 2.78059 10.3304C2.26821 9.47509 1.99841 8.49642 2.00015 7.49939Z" fill="currentColor"/>
</g>
<defs>
<clipPath id="clip0_403_3056">
<rect width="24" height="24" fill="white"/>
</clipPath>
</defs>
</svg>
