<svg width="24" height="24" viewBox="0 0 24 24" fill="none" xmlns="http://www.w3.org/2000/svg">
<g clip-path="url(#clip0_403_3156)">
<path d="M23 20C22.7348 20 22.4804 20.1054 22.2929 20.2929C22.1054 20.4804 22 20.7348 22 21C22 21.344 21.318 22 20.25 22C19.95 22.0105 19.6514 21.9542 19.3759 21.835C19.1003 21.7158 18.8548 21.5368 18.657 21.311C18.6961 21.2472 18.7388 21.1858 18.785 21.127C20.4158 19.4167 21.5126 17.268 21.941 14.944C22.0678 14.2448 21.9423 13.5233 21.5869 12.9079C21.2314 12.2926 20.6691 11.8234 20 11.584V9C20 7.93913 19.5786 6.92172 18.8284 6.17157C18.0783 5.42143 17.0609 5 16 5V4C16 2.93913 15.5786 1.92172 14.8284 1.17157C14.0783 0.421427 13.0609 0 12 0C10.9391 0 9.92172 0.421427 9.17157 1.17157C8.42143 1.92172 8 2.93913 8 4V5C6.93913 5 5.92172 5.42143 5.17157 6.17157C4.42143 6.92172 4 7.93913 4 9V11.571C3.32259 11.805 2.75133 12.2738 2.38962 12.8925C2.0279 13.5112 1.89962 14.2389 2.028 14.944C2.46716 17.2708 3.5746 19.4193 5.215 21.127C5.26299 21.1873 5.3074 21.2505 5.348 21.316C5.15004 21.5426 4.90361 21.7218 4.62698 21.8402C4.35035 21.9586 4.05062 22.0132 3.75 22C2.661 22 2 21.306 2 21C2 20.7348 1.89464 20.4804 1.70711 20.2929C1.51957 20.1054 1.26522 20 1 20C0.734784 20 0.48043 20.1054 0.292893 20.2929C0.105357 20.4804 0 20.7348 0 21C0 22.626 1.718 24 3.75 24C4.76118 24.0091 5.7419 23.6542 6.513 23C7.2821 23.6423 8.25158 23.9955 9.25361 23.9984C10.2556 24.0014 11.2272 23.6538 12 23.016C12.7756 23.6532 13.7491 24.0002 14.7529 23.9972C15.7567 23.9943 16.7281 23.6417 17.5 23C18.2665 23.6507 19.2406 24.0054 20.246 24C22.282 24 24 22.626 24 21C24 20.7348 23.8946 20.4804 23.7071 20.2929C23.5196 20.1054 23.2652 20 23 20ZM10 4C10 3.46957 10.2107 2.96086 10.5858 2.58579C10.9609 2.21071 11.4696 2 12 2C12.5304 2 13.0391 2.21071 13.4142 2.58579C13.7893 2.96086 14 3.46957 14 4V5H10V4ZM8 7H16C16.5304 7 17.0391 7.21071 17.4142 7.58579C17.7893 7.96086 18 8.46957 18 9V10.92L12.948 9.262C12.3339 9.05999 11.6711 9.05999 11.057 9.262L6 10.913V9C6 8.46957 6.21071 7.96086 6.58579 7.58579C6.96086 7.21071 7.46957 7 8 7ZM9.25 22C8.91577 22.0183 8.58249 21.9497 8.28264 21.8009C7.98279 21.6521 7.72659 21.4282 7.539 21.151C7.3307 20.6517 7.04447 20.1886 6.691 19.779C5.31241 18.3517 4.37761 16.5551 4 14.607C3.95383 14.3674 3.99527 14.1191 4.11678 13.9075C4.23829 13.6959 4.43178 13.5349 4.662 13.454L11 11.383V21C11 21.344 10.318 22 9.25 22ZM14.75 22C13.661 22 13 21.306 13 21V11.384L19.305 13.453C19.536 13.5338 19.7303 13.6948 19.8526 13.9068C19.9748 14.1188 20.0168 14.3676 19.971 14.608C19.6043 16.5535 18.6794 18.3502 17.309 19.779C16.9533 20.1892 16.6668 20.6546 16.461 21.157C16.2733 21.4338 16.0169 21.657 15.717 21.8048C15.417 21.9526 15.0838 22.0198 14.75 22Z" fill="currentColor"/>
</g>
<defs>
<clipPath id="clip0_403_3156">
<rect width="24" height="24" fill="white"/>
</clipPath>
</defs>
</svg>
