<svg width="24" height="24" viewBox="0 0 24 24" fill="none" xmlns="http://www.w3.org/2000/svg">
<g clip-path="url(#clip0_403_3205)">
<path d="M24.0001 11.9831C23.998 11.169 23.7472 10.375 23.2812 9.70751C22.8153 9.03998 22.1565 8.53076 21.3931 8.24806L21.3551 8.15706C20.3631 5.7305 18.4639 3.78644 16.0611 2.73806L15.7321 2.59406C15.4489 1.83298 14.9396 1.17672 14.2727 0.71333C13.6059 0.249941 12.8132 0.00158691 12.0011 0.00158691C11.189 0.00158691 10.3964 0.249941 9.72948 0.71333C9.06259 1.17672 8.55336 1.83298 8.27012 2.59406L7.85212 2.78206C5.47066 3.86371 3.59632 5.81969 2.61712 8.24506C1.85246 8.52366 1.19159 9.02997 0.723567 9.69575C0.255546 10.3615 0.00287411 11.1548 -0.000395117 11.9686C-0.00366434 12.7824 0.242626 13.5777 0.705283 14.2472C1.16794 14.9167 1.82472 15.4283 2.58712 15.7131L2.71512 16.0131C3.71847 18.342 5.56116 20.2082 7.87712 21.2411L8.27012 21.4171C8.55416 22.1771 9.06358 22.8322 9.73019 23.2947C10.3968 23.7572 11.1888 24.005 12.0001 24.005C12.8115 24.005 13.6034 23.7572 14.27 23.2947C14.9367 22.8322 15.4461 22.1771 15.7301 21.4171L16.0971 21.2541C18.5197 20.1708 20.4243 18.1855 21.4061 15.7201C22.1669 15.4344 22.8227 14.9238 23.2861 14.2562C23.7495 13.5886 23.9985 12.7957 24.0001 11.9831ZM12.0001 2.00006C12.3957 2.00006 12.7824 2.11736 13.1113 2.33712C13.4402 2.55689 13.6965 2.86924 13.8479 3.2347C13.9992 3.60015 14.0389 4.00228 13.9617 4.39024C13.8845 4.77821 13.694 5.13457 13.4143 5.41428C13.1346 5.69398 12.7783 5.88446 12.3903 5.96163C12.0023 6.0388 11.6002 5.9992 11.2347 5.84782C10.8693 5.69645 10.5569 5.4401 10.3372 5.1112C10.1174 4.7823 10.0001 4.39563 10.0001 4.00006C10.0001 3.46963 10.2108 2.96092 10.5859 2.58585C10.961 2.21078 11.4697 2.00006 12.0001 2.00006ZM3.98812 9.98506L4.07012 10.0161L4.08012 9.99106C4.58121 10.0359 5.04445 10.2764 5.3694 10.6605C5.69435 11.0446 5.85482 11.5413 5.81603 12.0429C5.77724 12.5445 5.54231 13.0106 5.16217 13.3401C4.78203 13.6697 4.28732 13.8361 3.78529 13.8034C3.28325 13.7707 2.81435 13.5414 2.48024 13.1652C2.14613 12.7891 1.97373 12.2964 2.00041 11.794C2.0271 11.2916 2.25072 10.82 2.6228 10.4814C2.99488 10.1428 3.48544 9.96444 3.98812 9.98506ZM12.0001 22.0001C11.6046 22.0001 11.2179 21.8828 10.889 21.663C10.5601 21.4432 10.3037 21.1309 10.1524 20.7654C10.001 20.4 9.96137 19.9978 10.0385 19.6099C10.1157 19.2219 10.3062 18.8656 10.5859 18.5859C10.8656 18.3061 11.222 18.1157 11.6099 18.0385C11.9979 17.9613 12.4 18.0009 12.7655 18.1523C13.1309 18.3037 13.4433 18.56 13.6631 18.8889C13.8828 19.2178 14.0001 19.6045 14.0001 20.0001C14.0001 20.5305 13.7894 21.0392 13.4143 21.4143C13.0393 21.7894 12.5305 22.0001 12.0001 22.0001ZM15.8931 19.1141C15.6941 18.2301 15.2001 17.4402 14.4925 16.8742C13.7849 16.3082 12.9057 15.9998 11.9996 15.9998C11.0935 15.9998 10.2144 16.3082 9.50674 16.8742C8.79913 17.4402 8.30518 18.2301 8.10612 19.1141C6.74071 18.369 5.61895 17.2462 4.87512 15.8801C5.75633 15.681 6.54391 15.1888 7.10909 14.484C7.67427 13.7792 7.98361 12.9034 7.98651 12C7.98941 11.0966 7.68572 10.2189 7.12508 9.5105C6.56444 8.80208 5.78003 8.30483 4.90012 8.10006C5.64669 6.7532 6.75786 5.64411 8.10612 4.90006C8.30601 5.78306 8.80019 6.57185 9.50751 7.13695C10.2148 7.70204 11.0933 8.00986 11.9986 8.00986C12.904 8.00986 13.7824 7.70204 14.4897 7.13695C15.197 6.57185 15.6912 5.78306 15.8911 4.90006C17.2384 5.64329 18.3502 6.74952 19.1001 8.09306C18.2175 8.29466 17.4297 8.79035 16.8659 9.49876C16.3022 10.2072 15.9961 11.0862 15.9978 11.9916C15.9995 12.8969 16.3091 13.7747 16.8755 14.481C17.442 15.1872 18.2317 15.6799 19.1151 15.8781C18.3689 17.2398 17.2516 18.3619 15.8931 19.1141ZM20.0001 13.9831C19.6046 13.9831 19.2179 13.8658 18.889 13.646C18.5601 13.4262 18.3037 13.1139 18.1524 12.7484C18.001 12.383 17.9614 11.9808 18.0385 11.5929C18.1157 11.2049 18.3062 10.8486 18.5859 10.5689C18.8656 10.2891 19.222 10.0987 19.6099 10.0215C19.9979 9.94432 20.4 9.98393 20.7655 10.1353C21.1309 10.2867 21.4433 10.543 21.6631 10.8719C21.8828 11.2008 22.0001 11.5875 22.0001 11.9831C22.0001 12.5135 21.7894 13.0222 21.4143 13.3973C21.0393 13.7724 20.5306 13.9831 20.0001 13.9831Z" fill="currentColor"/>
</g>
<defs>
<clipPath id="clip0_403_3205">
<rect width="24" height="24" fill="white"/>
</clipPath>
</defs>
</svg>
