<svg width="24" height="24" viewBox="0 0 24 24" fill="none" xmlns="http://www.w3.org/2000/svg">
<g clip-path="url(#clip0_403_3022)">
<path d="M15.2069 14.2075L13.4139 16.0005L15.2069 17.7935C15.3024 17.8858 15.3786 17.9961 15.431 18.1181C15.4834 18.2401 15.511 18.3713 15.5121 18.5041C15.5133 18.6369 15.488 18.7686 15.4377 18.8915C15.3874 19.0144 15.3132 19.126 15.2193 19.2199C15.1254 19.3138 15.0137 19.3881 14.8908 19.4383C14.7679 19.4886 14.6363 19.5139 14.5035 19.5128C14.3707 19.5116 14.2395 19.484 14.1175 19.4316C13.9955 19.3792 13.8851 19.303 13.7929 19.2075L11.9999 17.4145L10.2069 19.2075C10.0183 19.3897 9.76567 19.4905 9.50348 19.4882C9.24128 19.4859 8.99047 19.3807 8.80506 19.1953C8.61965 19.0099 8.51448 18.7591 8.5122 18.4969C8.50993 18.2347 8.61072 17.9821 8.79288 17.7935L10.5859 16.0005L8.79288 14.2075C8.61072 14.0189 8.50993 13.7663 8.5122 13.5041C8.51448 13.2419 8.61965 12.9911 8.80506 12.8057C8.99047 12.6203 9.24128 12.5151 9.50348 12.5128C9.76567 12.5106 10.0183 12.6114 10.2069 12.7935L11.9999 14.5865L13.7929 12.7935C13.9815 12.6114 14.2341 12.5106 14.4963 12.5128C14.7585 12.5151 15.0093 12.6203 15.1947 12.8057C15.3801 12.9911 15.4853 13.2419 15.4876 13.5041C15.4898 13.7663 15.389 14.0189 15.2069 14.2075ZM21.9999 10.4855V19.0005C21.9983 20.3261 21.471 21.597 20.5337 22.5343C19.5963 23.4716 18.3255 23.9989 16.9999 24.0005H6.99988C5.67428 23.9989 4.40344 23.4716 3.4661 22.5343C2.52876 21.597 2.00147 20.3261 1.99988 19.0005V5.00051C2.00147 3.67492 2.52876 2.40407 3.4661 1.46673C4.40344 0.529393 5.67428 0.00209919 6.99988 0.00051133H11.5149C12.4345 -0.0018556 13.3455 0.178099 14.1951 0.529971C15.0447 0.881842 15.8162 1.39865 16.4649 2.05051L19.9489 5.53651C20.6011 6.18475 21.1182 6.95597 21.4703 7.80549C21.8224 8.655 22.0024 9.56593 21.9999 10.4855ZM15.0509 3.46451C14.7362 3.15967 14.3828 2.89744 13.9999 2.68451V7.00051C13.9999 7.26573 14.1052 7.52008 14.2928 7.70762C14.4803 7.89515 14.7347 8.00051 14.9999 8.00051H19.3159C19.1028 7.6177 18.8402 7.26466 18.5349 6.95051L15.0509 3.46451ZM19.9999 10.4855C19.9999 10.3205 19.9679 10.1625 19.9529 10.0005H14.9999C14.2042 10.0005 13.4412 9.68444 12.8786 9.12183C12.3159 8.55922 11.9999 7.79616 11.9999 7.00051V2.04751C11.8379 2.03251 11.6789 2.00051 11.5149 2.00051H6.99988C6.20423 2.00051 5.44117 2.31658 4.87856 2.87919C4.31595 3.4418 3.99988 4.20486 3.99988 5.00051V19.0005C3.99988 19.7962 4.31595 20.5592 4.87856 21.1218C5.44117 21.6844 6.20423 22.0005 6.99988 22.0005H16.9999C17.7955 22.0005 18.5586 21.6844 19.1212 21.1218C19.6838 20.5592 19.9999 19.7962 19.9999 19.0005V10.4855Z" fill="currentColor"/>
</g>
<defs>
<clipPath id="clip0_403_3022">
<rect width="24" height="24" fill="white"/>
</clipPath>
</defs>
</svg>
