<svg width="24" height="24" viewBox="0 0 24 24" fill="none" xmlns="http://www.w3.org/2000/svg">
<g clip-path="url(#clip0_403_3096)">
<path d="M23.9998 11.5C23.9993 10.8103 23.795 10.1362 23.4127 9.56231C23.0304 8.98837 22.487 8.54016 21.8508 8.27397C21.4448 5.95633 20.2346 3.85608 18.433 2.34264C16.6313 0.8292 14.3538 -0.000488281 12.0008 -0.000488281C9.6479 -0.000488281 7.37032 0.8292 5.5687 2.34264C3.76709 3.85608 2.55684 5.95633 2.15083 8.27397C1.42484 8.5794 0.823082 9.12079 0.442879 9.81057C0.0626747 10.5004 -0.0737523 11.2982 0.0556583 12.0752C0.185069 12.8521 0.572751 13.5626 1.15602 14.0919C1.73928 14.6213 2.48403 14.9384 3.26983 14.992C3.78632 16.088 4.48679 17.0875 5.34083 17.947C4.08942 19.3134 3.29522 21.036 3.06883 22.875C3.05245 23.0053 3.0619 23.1376 3.09666 23.2643C3.13142 23.391 3.1908 23.5096 3.2714 23.6133C3.35201 23.717 3.45227 23.8039 3.56644 23.8688C3.68062 23.9338 3.80648 23.9757 3.93683 23.992C3.97798 23.997 4.01938 23.9997 4.06083 24C4.3042 23.9997 4.53911 23.9107 4.72155 23.7496C4.90398 23.5885 5.02141 23.3664 5.05183 23.125C5.23313 21.6751 5.86844 20.3198 6.86683 19.253C8.35597 20.3522 10.1493 20.9625 11.9998 21C13.8449 20.9622 15.633 20.3544 17.1188 19.26C18.1129 20.325 18.7456 21.6765 18.9268 23.122C18.957 23.3636 19.0744 23.5859 19.2568 23.7472C19.4393 23.9085 19.6743 23.9977 19.9178 23.998C19.9596 23.9978 20.0014 23.9951 20.0428 23.99C20.3059 23.957 20.5451 23.8209 20.7079 23.6117C20.8706 23.4024 20.9436 23.1371 20.9108 22.874C20.686 21.0397 19.8958 19.3208 18.6498 17.956C19.5086 17.0939 20.2128 16.0906 20.7318 14.99C21.6176 14.9311 22.4479 14.5379 23.0546 13.89C23.6614 13.242 23.9992 12.3877 23.9998 11.5ZM20.2478 12.973C20.0146 12.9302 19.7737 12.9724 19.5689 13.0918C19.364 13.2112 19.2086 13.4 19.1308 13.624C18.2148 16.222 15.1298 19 11.9998 19C8.86983 19 5.78483 16.22 4.86883 13.622C4.79087 13.3981 4.63546 13.2094 4.43063 13.0901C4.22581 12.9707 3.98506 12.9284 3.75183 12.971C3.66873 12.9873 3.58447 12.997 3.49983 13C3.12862 12.9955 2.77224 12.8536 2.49962 12.6016C2.22699 12.3496 2.0575 12.0055 2.02391 11.6358C1.99032 11.2661 2.09503 10.897 2.31778 10.6C2.54053 10.3031 2.8655 10.0992 3.22983 10.028C3.44245 9.98943 3.63686 9.88305 3.78396 9.72478C3.93106 9.5665 4.02294 9.36483 4.04583 9.14997C4.17939 7.87128 4.62064 6.64396 5.33186 5.57295C6.04307 4.50195 7.0031 3.61912 8.12983 2.99997C7.96609 3.63607 7.95855 4.30232 8.10783 4.94197C8.31114 5.78786 8.78469 6.54441 9.4567 7.09694C10.1287 7.64946 10.9625 7.96783 11.8318 8.00378C12.701 8.03973 13.5583 7.79132 14.2736 7.29618C14.9889 6.80104 15.5234 6.08618 15.7958 5.25997C15.8403 5.1132 15.8495 4.95803 15.8228 4.80702C15.7962 4.65601 15.7343 4.5134 15.6423 4.39072C15.5503 4.26804 15.4307 4.16874 15.2932 4.10086C15.1557 4.03298 15.0042 3.99841 14.8508 3.99997H14.6998C14.5159 4.006 14.3387 4.07039 14.1938 4.18383C14.0489 4.29727 13.9438 4.45387 13.8938 4.63097C13.7776 4.98058 13.567 5.29129 13.2854 5.52882C13.0038 5.76635 12.662 5.92147 12.2978 5.97706C11.9336 6.03266 11.5611 5.98657 11.2214 5.84388C10.8817 5.7012 10.5881 5.46745 10.3728 5.16844C10.1576 4.86944 10.0291 4.51678 10.0016 4.14938C9.97405 3.78198 10.0485 3.41412 10.2168 3.08637C10.3851 2.75863 10.6407 2.48374 10.9553 2.29204C11.2699 2.10033 11.6314 1.99926 11.9998 1.99997C13.9757 1.99524 15.883 2.72387 17.3524 4.04476C18.8218 5.36564 19.7488 7.1848 19.9538 9.14997C19.9767 9.36483 20.0686 9.5665 20.2157 9.72478C20.3628 9.88305 20.5572 9.98943 20.7698 10.028C21.1342 10.0992 21.4591 10.3031 21.6819 10.6C21.9046 10.897 22.0093 11.2661 21.9758 11.6358C21.9422 12.0055 21.7727 12.3496 21.5 12.6016C21.2274 12.8536 20.871 12.9955 20.4998 13C20.4153 12.9976 20.331 12.9886 20.2478 12.973Z" fill="currentColor"/>
<path d="M9.50015 13.0001C10.3286 13.0001 11.0002 12.3285 11.0002 11.5001C11.0002 10.6717 10.3286 10.0001 9.50015 10.0001C8.67173 10.0001 8.00015 10.6717 8.00015 11.5001C8.00015 12.3285 8.67173 13.0001 9.50015 13.0001Z" fill="currentColor"/>
<path d="M14.4998 13.0001C15.3283 13.0001 15.9998 12.3285 15.9998 11.5001C15.9998 10.6717 15.3283 10.0001 14.4998 10.0001C13.6714 10.0001 12.9998 10.6717 12.9998 11.5001C12.9998 12.3285 13.6714 13.0001 14.4998 13.0001Z" fill="currentColor"/>
</g>
<defs>
<clipPath id="clip0_403_3096">
<rect width="24" height="24" fill="white"/>
</clipPath>
</defs>
</svg>
