<svg width="24" height="24" viewBox="0 0 24 24" fill="none" xmlns="http://www.w3.org/2000/svg">
<g clip-path="url(#clip0_403_3274)">
<path d="M20.466 1.96681L14.78 0.22081C13.5249 -0.161429 12.17 -0.0361962 11.0063 0.56961C9.84251 1.17542 8.96277 2.21347 8.556 3.46081L8.368 3.99981H5C3.67441 4.00139 2.40356 4.52869 1.46622 5.46602C0.528882 6.40336 0.00158786 7.67421 0 8.9998L0 18.9998C0.00158786 20.3254 0.528882 21.5962 1.46622 22.5336C2.40356 23.4709 3.67441 23.9982 5 23.9998H11C11.7575 23.9971 12.5044 23.8215 13.1838 23.4864C13.8631 23.1512 14.457 22.6653 14.92 22.0658C15.1482 22.0989 15.3784 22.1163 15.609 22.1178C16.6828 22.1186 17.7281 21.7721 18.5887 21.1299C19.4493 20.4877 20.0791 19.5844 20.384 18.5548L23.8 8.1558C24.1649 6.8931 24.0202 5.53765 23.3968 4.38049C22.7735 3.22333 21.7212 2.35675 20.466 1.96681ZM11 21.9998H5C4.20435 21.9998 3.44129 21.6837 2.87868 21.1211C2.31607 20.5585 2 19.7954 2 18.9998V8.9998C2 8.20415 2.31607 7.44109 2.87868 6.87848C3.44129 6.31587 4.20435 5.9998 5 5.9998H11C11.7956 5.9998 12.5587 6.31587 13.1213 6.87848C13.6839 7.44109 14 8.20415 14 8.9998V18.9998C14 19.7954 13.6839 20.5585 13.1213 21.1211C12.5587 21.6837 11.7956 21.9998 11 21.9998ZM21.887 7.5628L18.475 17.9628C18.3054 18.5381 17.9669 19.0492 17.5033 19.4297C17.0396 19.8103 16.4723 20.0427 15.875 20.0968C15.9571 19.7369 15.999 19.369 16 18.9998V8.9998C15.9984 7.67421 15.4711 6.40336 14.5338 5.46602C13.5964 4.52869 12.3256 4.00139 11 3.99981H10.493C10.7511 3.27238 11.2797 2.67244 11.9688 2.32472C12.6579 1.977 13.4545 1.90827 14.193 2.13281L19.879 3.87881C20.6279 4.1099 21.2569 4.62436 21.632 5.31253C22.0071 6.0007 22.0986 6.80816 21.887 7.5628ZM12 12.9998C12 14.4498 10.456 16.3908 9.286 17.3778C8.92652 17.6819 8.47088 17.8488 8 17.8488C7.52912 17.8488 7.07348 17.6819 6.714 17.3778C5.544 16.3908 4 14.4498 4 12.9998C4 12.4694 4.21071 11.9607 4.58579 11.5856C4.96086 11.2105 5.46957 10.9998 6 10.9998C6.53043 10.9998 7.03914 11.2105 7.41421 11.5856C7.78929 11.9607 8 12.4694 8 12.9998C8 12.4694 8.21071 11.9607 8.58579 11.5856C8.96086 11.2105 9.46957 10.9998 10 10.9998C10.5304 10.9998 11.0391 11.2105 11.4142 11.5856C11.7893 11.9607 12 12.4694 12 12.9998Z" fill="currentColor"/>
</g>
<defs>
<clipPath id="clip0_403_3274">
<rect width="24" height="24" fill="white"/>
</clipPath>
</defs>
</svg>
