<svg width="24" height="24" viewBox="0 0 24 24" fill="none" xmlns="http://www.w3.org/2000/svg">
<g clip-path="url(#clip0_403_2983)">
<path d="M24.0001 14.006C23.9989 13.5866 23.9092 13.1722 23.7369 12.7898C23.5646 12.4074 23.3135 12.0657 23.0001 11.787V10C22.9972 7.34873 21.9427 4.80688 20.0679 2.93215C18.1932 1.05742 15.6514 0.0029116 13.0001 0L11.0001 0C8.34881 0.0029116 5.80697 1.05742 3.93223 2.93215C2.0575 4.80688 1.003 7.34873 1.00009 10V11.837C0.689351 12.1302 0.441792 12.4839 0.272591 12.8762C0.10339 13.2685 0.0161133 13.6912 0.0161133 14.1185C0.0161133 14.5458 0.10339 14.9685 0.272591 15.3608C0.441792 15.7531 0.689351 16.1068 1.00009 16.4V17C1.0022 18.8559 1.74038 20.6351 3.05268 21.9474C4.36497 23.2597 6.14422 23.9979 8.00009 24H16.0001C17.856 23.9979 19.6352 23.2597 20.9475 21.9474C22.2598 20.6351 22.998 18.8559 23.0001 17V16.226C23.3136 15.9472 23.5648 15.6053 23.7371 15.2228C23.9094 14.8402 23.999 14.4256 24.0001 14.006ZM2.81209 15.158C2.56274 15.0824 2.34835 14.9207 2.20709 14.7017C2.06583 14.4828 2.00687 14.2208 2.04073 13.9624C2.07458 13.7041 2.19905 13.4661 2.39195 13.291C2.58486 13.1158 2.83367 13.0148 3.09409 13.006H21.0001C21.2653 13.006 21.5197 13.1114 21.7072 13.2989C21.8947 13.4864 22.0001 13.7408 22.0001 14.006C22.0001 14.2712 21.8947 14.5256 21.7072 14.7131C21.5197 14.9006 21.2653 15.006 21.0001 15.006H17.0001C15.0441 15.006 13.0211 15.794 10.6361 17.487C10.1559 17.8205 9.58523 17.9993 9.00059 17.9993C8.41594 17.9993 7.84527 17.8205 7.36509 17.487C7.13709 17.325 6.91809 17.156 6.69809 16.987C5.60875 16.0115 4.25802 15.3758 2.81209 15.158ZM3.00009 10C3.00247 7.879 3.84609 5.84555 5.34586 4.34578C6.84564 2.846 8.87909 2.00238 11.0001 2H13.0001C15.1211 2.00238 17.1545 2.846 18.6543 4.34578C20.1541 5.84555 20.9977 7.879 21.0001 10V11.006L3.00009 11.016V10ZM16.0001 22H8.00009C6.71927 21.9966 5.48872 21.5012 4.5628 20.6162C3.63688 19.7313 3.08638 18.5244 3.02509 17.245C3.93275 17.4965 4.77172 17.9501 5.47909 18.572C5.71809 18.757 5.95809 18.941 6.20809 19.118C7.02775 19.6875 8.00198 19.9928 9.00009 19.9928C9.99819 19.9928 10.9724 19.6875 11.7921 19.118C13.2716 17.8985 15.0891 17.1615 17.0001 17.006H21.0001C20.9985 18.331 20.471 19.6013 19.5335 20.5377C18.596 21.474 17.3251 22 16.0001 22ZM9.00009 5C9.00009 4.73478 9.10544 4.48043 9.29298 4.29289C9.48052 4.10536 9.73487 4 10.0001 4C10.2653 4 10.5197 4.10536 10.7072 4.29289C10.8947 4.48043 11.0001 4.73478 11.0001 5C11.0001 5.26522 10.8947 5.51957 10.7072 5.70711C10.5197 5.89464 10.2653 6 10.0001 6C9.73487 6 9.48052 5.89464 9.29298 5.70711C9.10544 5.51957 9.00009 5.26522 9.00009 5ZM6.00009 8C6.00009 7.73478 6.10544 7.48043 6.29298 7.29289C6.48052 7.10536 6.73487 7 7.00009 7C7.2653 7 7.51966 7.10536 7.70719 7.29289C7.89473 7.48043 8.00009 7.73478 8.00009 8C8.00009 8.26522 7.89473 8.51957 7.70719 8.70711C7.51966 8.89464 7.2653 9 7.00009 9C6.73487 9 6.48052 8.89464 6.29298 8.70711C6.10544 8.51957 6.00009 8.26522 6.00009 8Z" fill="currentColor"/>
</g>
<defs>
<clipPath id="clip0_403_2983">
<rect width="24" height="24" fill="white"/>
</clipPath>
</defs>
</svg>
