<svg width="24" height="24" viewBox="0 0 24 24" fill="none" xmlns="http://www.w3.org/2000/svg">
<g clip-path="url(#clip0_403_3238)">
<path d="M20.036 23.9994H3.96395C3.28814 24.0009 2.6232 23.8293 2.03257 23.5008C1.44194 23.1724 0.945331 22.6981 0.59012 22.1231C0.23491 21.5482 0.0329505 20.8918 0.00351079 20.2167C-0.025929 19.5415 0.118133 18.87 0.421953 18.2664L8.45895 2.18836C8.76533 1.56891 9.22956 1.04115 9.80487 0.658253C10.3802 0.275358 11.0462 0.0508531 11.736 0.00735918C12.5142 -0.0421645 13.2897 0.138177 13.9663 0.525953C14.6428 0.91373 15.1904 1.49183 15.541 2.18836L23.578 18.2664C23.88 18.8702 24.0227 19.5413 23.9924 20.2158C23.9622 20.8903 23.76 21.5459 23.4052 22.1203C23.0503 22.6947 22.5545 23.1688 21.9648 23.4977C21.3751 23.8266 20.7111 23.9993 20.036 23.9994ZM1.99995 20.0424C2.00416 20.5613 2.21265 21.0577 2.58026 21.424C2.94787 21.7903 3.445 21.997 3.96395 21.9994H20.036C20.5549 21.997 21.052 21.7903 21.4196 21.424C21.7873 21.0577 21.9957 20.5613 22 20.0424C21.9994 19.7361 21.9268 19.4343 21.788 19.1614L13.753 3.08236C13.5904 2.75653 13.3403 2.48244 13.0306 2.29087C12.721 2.0993 12.3641 1.99781 12 1.99781C11.6358 1.99781 11.2789 2.0993 10.9693 2.29087C10.6596 2.48244 10.4095 2.75653 10.247 3.08236L2.20995 19.1614C2.07178 19.4345 1.99984 19.7363 1.99995 20.0424Z" fill="currentColor"/>
</g>
<defs>
<clipPath id="clip0_403_3238">
<rect width="24" height="24" fill="white"/>
</clipPath>
</defs>
</svg>
