<svg width="24" height="24" viewBox="0 0 24 24" fill="none" xmlns="http://www.w3.org/2000/svg">
<g clip-path="url(#clip0_403_3273)">
<path d="M23.9999 10.0001C24 9.92715 23.9919 9.85437 23.9759 9.78315L22.6759 3.91515C22.4344 2.80138 21.8173 1.80453 20.9281 1.09173C20.0388 0.378926 18.9316 -0.00647535 17.7919 0.000144924H6.20794C5.06899 -0.00555538 3.96267 0.380267 3.07427 1.09299C2.18587 1.80572 1.56934 2.80206 1.32794 3.91515L0.0239403 9.78315C0.00794844 9.85437 -0.000100695 9.92715 -5.96658e-05 10.0001V11.0001C-0.000866473 11.9737 0.354862 12.9139 0.99994 13.6431V19.0001C1.00153 20.3257 1.52882 21.5966 2.46616 22.5339C3.4035 23.4713 4.67435 23.9986 5.99994 24.0001H17.9999C19.3255 23.9986 20.5964 23.4713 21.5337 22.5339C22.4711 21.5966 22.9984 20.3257 22.9999 19.0001V13.6431C23.645 12.9139 24.0007 11.9737 23.9999 11.0001V10.0001ZM1.99994 10.1091L3.27994 4.34915C3.42498 3.6814 3.79496 3.08372 4.32795 2.65612C4.86095 2.22852 5.52463 1.99695 6.20794 2.00015H6.99994V5.00015C6.99994 5.26536 7.1053 5.51972 7.29283 5.70725C7.48037 5.89479 7.73472 6.00015 7.99994 6.00015C8.26516 6.00015 8.51951 5.89479 8.70705 5.70725C8.89458 5.51972 8.99994 5.26536 8.99994 5.00015V2.00015H14.9999V5.00015C14.9999 5.26536 15.1053 5.51972 15.2928 5.70725C15.4804 5.89479 15.7347 6.00015 15.9999 6.00015C16.2652 6.00015 16.5195 5.89479 16.7071 5.70725C16.8946 5.51972 16.9999 5.26536 16.9999 5.00015V2.00015H17.7919C18.4753 1.99695 19.1389 2.22852 19.6719 2.65612C20.2049 3.08372 20.5749 3.6814 20.7199 4.34915L21.9999 10.1091V11.0001C21.9999 11.5306 21.7892 12.0393 21.4142 12.4144C21.0391 12.7894 20.5304 13.0001 19.9999 13.0001H18.9999C18.4695 13.0001 17.9608 12.7894 17.5857 12.4144C17.2107 12.0393 16.9999 11.5306 16.9999 11.0001C16.9999 10.7349 16.8946 10.4806 16.7071 10.293C16.5195 10.1055 16.2652 10.0001 15.9999 10.0001C15.7347 10.0001 15.4804 10.1055 15.2928 10.293C15.1053 10.4806 14.9999 10.7349 14.9999 11.0001C14.9999 11.5306 14.7892 12.0393 14.4142 12.4144C14.0391 12.7894 13.5304 13.0001 12.9999 13.0001H10.9999C10.4695 13.0001 9.9608 12.7894 9.58573 12.4144C9.21066 12.0393 8.99994 11.5306 8.99994 11.0001C8.99994 10.7349 8.89458 10.4806 8.70705 10.293C8.51951 10.1055 8.26516 10.0001 7.99994 10.0001C7.73472 10.0001 7.48037 10.1055 7.29283 10.293C7.1053 10.4806 6.99994 10.7349 6.99994 11.0001C6.99994 11.5306 6.78923 12.0393 6.41416 12.4144C6.03908 12.7894 5.53037 13.0001 4.99994 13.0001H3.99994C3.46951 13.0001 2.9608 12.7894 2.58573 12.4144C2.21065 12.0393 1.99994 11.5306 1.99994 11.0001V10.1091ZM17.9999 22.0001H5.99994C5.20429 22.0001 4.44123 21.6841 3.87862 21.1215C3.31601 20.5589 2.99994 19.7958 2.99994 19.0001V14.8731C3.32654 14.9577 3.66257 15.0004 3.99994 15.0001H4.99994C5.56776 15.0004 6.1291 14.8795 6.64645 14.6455C7.1638 14.4115 7.62524 14.0698 7.99994 13.6431C8.37464 14.0698 8.83609 14.4115 9.35344 14.6455C9.87079 14.8795 10.4321 15.0004 10.9999 15.0001H12.9999C13.5678 15.0004 14.1291 14.8795 14.6464 14.6455C15.1638 14.4115 15.6252 14.0698 15.9999 13.6431C16.3746 14.0698 16.8361 14.4115 17.3534 14.6455C17.8708 14.8795 18.4321 15.0004 18.9999 15.0001H19.9999C20.3373 15.0004 20.6733 14.9577 20.9999 14.8731V19.0001C20.9999 19.7958 20.6839 20.5589 20.1213 21.1215C19.5587 21.6841 18.7956 22.0001 17.9999 22.0001Z" fill="currentColor"/>
</g>
<defs>
<clipPath id="clip0_403_3273">
<rect width="24" height="24" fill="white"/>
</clipPath>
</defs>
</svg>
