<svg width="24" height="24" viewBox="0 0 24 24" fill="none" xmlns="http://www.w3.org/2000/svg">
<g clip-path="url(#clip0_403_3060)">
<path d="M15.9999 7.9995C14.8696 8.00046 13.7525 8.24169 12.7226 8.70718C11.6926 9.17266 10.7734 9.85178 10.0259 10.6995C9.54936 10.4679 9.0477 10.292 8.53086 10.1755L9.89986 7.4465C9.97586 7.29435 10.0118 7.12534 10.0043 6.95543C9.99674 6.78552 9.94601 6.62034 9.85686 6.4755C9.53942 6.01284 9.1124 5.63593 8.61389 5.37839C8.11539 5.12085 7.56089 4.99068 6.99986 4.9995C6.43967 4.99151 5.88619 5.12207 5.38862 5.37958C4.89106 5.63708 4.46484 6.01355 4.14786 6.4755C4.05872 6.62034 4.00798 6.78552 4.00046 6.95543C3.99293 7.12534 4.02887 7.29435 4.10486 7.4465L5.46886 10.1735C4.43983 10.4001 3.47523 10.856 2.64698 11.5074C1.81874 12.1587 1.14822 12.9887 0.685432 13.9353C0.222644 14.8819 -0.0204727 15.9208 -0.0257898 16.9744C-0.0311069 18.0281 0.201513 19.0694 0.654724 20.0206C1.10793 20.9718 1.77004 21.8085 2.59167 22.4681C3.4133 23.1278 4.37325 23.5935 5.39995 23.8304C6.42664 24.0674 7.49358 24.0695 8.5212 23.8366C9.54883 23.6038 10.5106 23.1419 11.3349 22.4855C12.3582 23.2244 13.5419 23.7107 14.7892 23.9046C16.0365 24.0984 17.3119 23.9944 18.5113 23.601C19.7107 23.2076 20.7999 22.536 21.6901 21.6411C22.5802 20.7461 23.2459 19.6532 23.6329 18.4517C24.0198 17.2503 24.1169 15.9743 23.9163 14.7281C23.7157 13.4819 23.223 12.3008 22.4786 11.2814C21.7342 10.2621 20.7591 9.43332 19.6331 8.86291C18.5071 8.29251 17.2621 7.99665 15.9999 7.9995ZM11.2339 19.6295C10.5698 18.7667 10.1554 17.7381 10.0359 16.6559C9.91629 15.5737 10.0962 14.4795 10.5559 13.4925C11.3482 14.2869 11.8469 15.327 11.9701 16.4422C12.0933 17.5574 11.8337 18.6813 11.2339 19.6295ZM1.99986 16.9995C1.99775 16.1798 2.19773 15.3722 2.58209 14.6482C2.96645 13.9242 3.52335 13.3061 4.20351 12.8486C4.88366 12.3912 5.6661 12.1084 6.48158 12.0253C7.29706 11.9423 8.12045 12.0615 8.87886 12.3725C8.16531 13.7618 7.87641 15.3305 8.04819 16.8829C8.21997 18.4353 8.84482 19.9028 9.84486 21.1025C9.09605 21.6249 8.21826 21.9318 7.30709 21.9899C6.39592 22.0479 5.48629 21.8548 4.67724 21.4317C3.86819 21.0086 3.19074 20.3716 2.71866 19.5901C2.24657 18.8086 1.99795 17.9125 1.99986 16.9995ZM15.9999 21.9995C14.8348 21.9999 13.6952 21.6588 12.7219 21.0185C13.7064 19.6268 14.1462 17.9222 13.9579 16.2278C13.7695 14.5334 12.9661 12.967 11.6999 11.8255C12.3894 11.1135 13.2446 10.5833 14.1891 10.2825C15.1336 9.98169 16.1378 9.91953 17.1122 10.1016C18.0865 10.2837 19.0006 10.7043 19.7727 11.3259C20.5448 11.9475 21.1508 12.7507 21.5367 13.6637C21.9226 14.5767 22.0763 15.5711 21.984 16.558C21.8917 17.5449 21.5564 18.4936 21.008 19.3193C20.4595 20.1449 19.7151 20.8219 18.8412 21.2896C17.9673 21.7573 16.9911 22.0012 15.9999 21.9995Z" fill="currentColor"/>
<path d="M10.5529 4.89517C10.6706 4.95471 10.799 4.99035 10.9306 5.00004C11.0622 5.00973 11.1944 4.99328 11.3196 4.95164C11.4449 4.90999 11.5606 4.84398 11.6602 4.7574C11.7598 4.67082 11.8412 4.56538 11.8999 4.44717L12.8999 2.44717C13.0184 2.2098 13.0378 1.93506 12.9538 1.68339C12.8698 1.43172 12.6892 1.22372 12.4519 1.10517C12.3343 1.04647 12.2064 1.0115 12.0753 1.00224C11.9443 0.992987 11.8127 1.00963 11.6881 1.05124C11.4364 1.13525 11.2284 1.3158 11.1099 1.55317L10.1099 3.55317C9.99084 3.78991 9.97064 4.06421 10.0537 4.31583C10.1368 4.56745 10.3163 4.77582 10.5529 4.89517Z" fill="currentColor"/>
<path d="M2.10493 4.44717C2.22349 4.68521 2.43174 4.86639 2.68388 4.95088C2.80873 4.99271 2.9406 5.00954 3.07195 5.00041C3.2033 4.99129 3.33157 4.95637 3.44943 4.89767C3.5673 4.83897 3.67244 4.75763 3.75887 4.6583C3.84529 4.55896 3.91131 4.44357 3.95314 4.31873C3.99497 4.19388 4.01181 4.06201 4.00268 3.93066C3.99355 3.7993 3.95864 3.67103 3.89993 3.55317L2.89993 1.55317C2.78138 1.3158 2.57339 1.13525 2.32172 1.05124C2.07004 0.96722 1.7953 0.986622 1.55793 1.10517C1.32057 1.22373 1.14001 1.43172 1.056 1.68339C0.971981 1.93506 0.991383 2.20981 1.10993 2.44717L2.10493 4.44717Z" fill="currentColor"/>
<path d="M7 4C7.26521 4 7.51957 3.89464 7.7071 3.70711C7.89464 3.51957 8 3.26522 8 3V1C8 0.734784 7.89464 0.48043 7.7071 0.292893C7.51957 0.105357 7.26521 0 7 0C6.73478 0 6.48043 0.105357 6.29289 0.292893C6.10536 0.48043 6 0.734784 6 1V3C6 3.26522 6.10536 3.51957 6.29289 3.70711C6.48043 3.89464 6.73478 4 7 4Z" fill="currentColor"/>
</g>
<defs>
<clipPath id="clip0_403_3060">
<rect width="24" height="24" fill="white"/>
</clipPath>
</defs>
</svg>
