<svg width="24" height="24" viewBox="0 0 24 24" fill="none" xmlns="http://www.w3.org/2000/svg">
<g clip-path="url(#clip0_403_2989)">
<path d="M22.0568 5.22985L14.6828 1.71685C13.0596 0.747292 11.0393 0.730089 9.39982 1.67185L1.94285 5.22985C1.91486 5.24387 1.88585 5.25887 1.85885 5.27485C0.0892236 6.2867 -0.52512 8.54153 0.486724 10.3112C0.829708 10.9111 1.33422 11.4026 1.94285 11.7299L3.99986 12.7099V17.6099C4.00108 19.8009 5.42679 21.7367 7.51886 22.3879C8.97476 22.8091 10.4844 23.0153 11.9999 22.9999C13.5152 23.0169 15.0248 22.8124 16.4809 22.3929C18.573 21.7418 19.9987 19.806 19.9999 17.6149V12.7079L21.9999 11.7519V19.9998C21.9999 20.5521 22.4476 20.9998 22.9999 20.9998C23.5522 20.9998 23.9999 20.5521 23.9999 19.9998V7.99984C24.0065 6.82557 23.0793 5.74079 22.0568 5.22985ZM17.9998 17.6149C18.0003 18.9255 17.15 20.0847 15.8998 20.4779C14.6321 20.8401 13.3183 21.0159 11.9998 20.9999C10.6814 21.0159 9.36761 20.8401 8.09983 20.4779C6.84963 20.0847 5.99932 18.9255 5.99983 17.6149V13.6629L9.31685 15.2429C10.1353 15.7289 11.07 15.9843 12.0219 15.9819C12.9279 15.9883 13.8186 15.7485 14.5989 15.2879L17.9998 13.6629V17.6149ZM21.1998 9.92486L13.6578 13.5249C12.6063 14.1372 11.3028 14.1198 10.2678 13.4799L2.88883 9.96985C2.06632 9.52632 1.7591 8.5 2.20263 7.67753C2.35263 7.39937 2.57754 7.16879 2.85185 7.01186L10.3468 3.43187C11.3988 2.8209 12.7015 2.8382 13.7368 3.47687L21.1108 6.98987C21.6531 7.291 21.9924 7.85964 21.9998 8.47989C22.0008 9.06742 21.6983 9.61379 21.1998 9.92486Z" fill="currentColor"/>
</g>
<defs>
<clipPath id="clip0_403_2989">
<rect width="24" height="24" fill="white"/>
</clipPath>
</defs>
</svg>
