<svg width="24" height="24" viewBox="0 0 24 24" fill="none" xmlns="http://www.w3.org/2000/svg">
<path d="M18 22H13V2.82298L17.3 7.12298C17.4886 7.30514 17.7412 7.40593 18.0034 7.40365C18.2655 7.40138 18.5164 7.29621 18.7018 7.1108C18.8872 6.92539 18.9923 6.67458 18.9946 6.41238C18.9969 6.15019 18.8961 5.89758 18.714 5.70898L13.768 0.762983C13.5358 0.530767 13.2602 0.34656 12.9568 0.220882C12.6535 0.0952038 12.3283 0.0305176 11.9999 0.0305176C11.6716 0.0305176 11.3464 0.0952038 11.0431 0.220882C10.7397 0.34656 10.4641 0.530767 10.2319 0.762983L5.28195 5.71298C5.09444 5.90102 4.98931 6.15584 4.98969 6.42139C4.99006 6.68695 5.09591 6.94147 5.28395 7.12898C5.47199 7.31649 5.72681 7.42162 5.99236 7.42124C6.25791 7.42087 6.51244 7.31502 6.69995 7.12698L10.9999 2.82698V22H5.99995C5.73473 22 5.48038 22.1053 5.29284 22.2929C5.10531 22.4804 4.99995 22.7348 4.99995 23C4.99995 23.2652 5.10531 23.5195 5.29284 23.7071C5.48038 23.8946 5.73473 24 5.99995 24H18C18.2652 24 18.5195 23.8946 18.7071 23.7071C18.8946 23.5195 19 23.2652 19 23C19 22.7348 18.8946 22.4804 18.7071 22.2929C18.5195 22.1053 18.2652 22 18 22Z" fill="currentColor"/>
</svg>
