<svg width="24" height="24" viewBox="0 0 24 24" fill="none" xmlns="http://www.w3.org/2000/svg">
<g clip-path="url(#clip0_403_3088)">
<path d="M21.7811 20.3669C23.057 19.1049 23.8376 17.4268 23.9811 15.6379C24.132 13.8235 23.6564 12.0121 22.6335 10.5059C21.6106 8.99968 20.1023 7.88965 18.3601 7.36092C18.1887 7.30747 18.0332 7.2125 17.9074 7.08444C17.7816 6.95638 17.6894 6.79921 17.6391 6.62692C17.244 5.33202 16.5253 4.15927 15.5507 3.21955C14.5762 2.27983 13.3781 1.60419 12.0697 1.25652C10.7613 0.908843 9.3858 0.900622 8.07333 1.23263C6.76086 1.56464 5.55475 2.22591 4.56905 3.15392L1.70705 0.292919C1.51845 0.110761 1.26585 0.00996641 1.00365 0.0122448C0.741453 0.0145233 0.490641 0.119692 0.305233 0.3051C0.119824 0.490508 0.0146555 0.741321 0.0123771 1.00352C0.0100987 1.26571 0.110893 1.51832 0.293051 1.70692L22.2931 23.7069C22.4817 23.8891 22.7343 23.9899 22.9965 23.9876C23.2587 23.9853 23.5095 23.8801 23.6949 23.6947C23.8803 23.5093 23.9855 23.2585 23.9877 22.9963C23.99 22.7341 23.8892 22.4815 23.7071 22.2929L21.7811 20.3669ZM9.10005 3.06492C10.5187 2.8496 11.9676 3.15055 13.1832 3.91304C14.3988 4.67554 15.3004 5.84895 15.7241 7.21992C15.872 7.70251 16.1355 8.1417 16.4917 8.4993C16.8479 8.85691 17.286 9.12213 17.7681 9.27192C19.0745 9.66923 20.2054 10.5023 20.972 11.6324C21.7386 12.7624 22.0948 14.1211 21.9811 15.4819C21.8778 16.7942 21.2993 18.0238 20.3541 18.9399L5.98205 4.56792C6.84954 3.7691 7.93478 3.24597 9.10005 3.06492ZM16.9931 21.8279C17.0211 22.0914 16.9434 22.3552 16.7771 22.5614C16.6108 22.7677 16.3695 22.8995 16.1061 22.9279C15.6673 22.9751 15.2263 22.9985 14.7851 22.9979H5.68505C4.35167 22.9747 3.06636 22.496 2.04258 21.6414C1.01881 20.7868 0.318179 19.6077 0.0570512 18.2999C-0.112901 17.1752 0.0735545 16.0256 0.590253 15.0123C1.10695 13.999 1.92796 13.1729 2.93805 12.6499C2.13825 11.1896 1.83699 9.50809 2.08005 7.86092C2.11692 7.59822 2.25663 7.36093 2.46845 7.20124C2.68027 7.04155 2.94685 6.97255 3.20955 7.00942C3.47225 7.04628 3.70954 7.186 3.86923 7.39782C4.02892 7.60964 4.09792 7.87622 4.06105 8.13892C3.88342 9.36724 4.09315 10.6204 4.66105 11.7239C4.91135 12.1874 4.96868 12.731 4.82058 13.2365C4.67247 13.7421 4.3309 14.1687 3.87005 14.4239C3.22683 14.7573 2.70421 15.2839 2.37562 15.9296C2.04704 16.5753 1.92898 17.3077 2.03805 18.0239C2.2245 18.8565 2.68511 19.6025 3.34604 20.1421C4.00698 20.6817 4.82996 20.9838 5.68305 20.9999H14.7831C15.1528 21.0002 15.5224 20.9805 15.8901 20.9409C16.1537 20.9139 16.4174 20.9919 16.6241 21.1579C16.8307 21.3239 16.9636 21.5646 16.9941 21.8279H16.9931Z" fill="currentColor"/>
</g>
<defs>
<clipPath id="clip0_403_3088">
<rect width="24" height="24" fill="white"/>
</clipPath>
</defs>
</svg>
