<svg width="24" height="24" viewBox="0 0 24 24" fill="none" xmlns="http://www.w3.org/2000/svg">
<g clip-path="url(#clip0_403_2848)">
<path d="M22.7611 13.9703L20.3161 14.6163C19.959 14.7116 19.6251 14.879 19.3351 15.1083L16.7181 13.5863C17.0862 12.5603 17.0862 11.4383 16.7181 10.4123L19.3351 8.8903C19.6251 9.11956 19.959 9.287 20.3161 9.3823C20.3161 9.3823 22.9331 10.0613 23.0161 10.0613C23.2561 10.0573 23.4865 9.96721 23.6655 9.80741C23.8445 9.6476 23.9601 9.42876 23.9912 9.19082C24.0222 8.95288 23.9667 8.71171 23.8347 8.51133C23.7027 8.31094 23.503 8.16471 23.2721 8.0993L20.8281 7.4523C20.6451 7.40371 20.4888 7.28451 20.3936 7.12085C20.2984 6.95718 20.2719 6.76242 20.3201 6.5793L20.9671 4.1353C21.0008 4.00831 21.009 3.87595 20.9915 3.74576C20.974 3.61557 20.9309 3.49011 20.8649 3.37655C20.7989 3.26298 20.7112 3.16353 20.6067 3.08388C20.5022 3.00422 20.3831 2.94592 20.2561 2.9123C20.1291 2.87868 19.9968 2.87041 19.8666 2.88794C19.7364 2.90548 19.6109 2.94849 19.4974 3.01451C19.3838 3.08053 19.2844 3.16828 19.2047 3.27273C19.1251 3.37719 19.0668 3.49631 19.0331 3.6233L18.3871 6.0673C18.292 6.42603 18.2723 6.80056 18.3291 7.1673L15.7131 8.6833C15.0035 7.8763 14.0517 7.32062 13.0001 7.0993V4.0993C13.3446 3.96492 13.6575 3.76062 13.9191 3.4993L15.7071 1.7113C15.8953 1.52379 16.0013 1.26921 16.0018 1.00357C16.0022 0.737924 15.8971 0.482973 15.7096 0.294801C15.5221 0.10663 15.2675 0.000653511 15.0019 0.000184668C14.7363 -0.000284175 14.4813 0.104793 14.2931 0.292301L12.5051 2.0803C12.3707 2.21331 12.1892 2.28791 12.0001 2.28791C11.811 2.28791 11.6296 2.21331 11.4951 2.0803L9.70713 0.292301C9.51853 0.110143 9.26593 0.00934895 9.00373 0.0116274C8.74154 0.0139058 8.49072 0.119075 8.30531 0.304483C8.11991 0.489891 8.01474 0.740703 8.01246 1.0029C8.01018 1.2651 8.11097 1.5177 8.29313 1.7063L10.0811 3.4993C10.3427 3.76062 10.6556 3.96492 11.0001 4.0993V7.0993C9.94853 7.32062 8.99678 7.8763 8.28713 8.6833L5.67113 7.1613C5.72797 6.79456 5.70822 6.42003 5.61313 6.0613L4.96713 3.6193C4.93351 3.49231 4.87521 3.37319 4.79556 3.26873C4.7159 3.16428 4.61645 3.07653 4.50288 3.01051C4.38932 2.94449 4.26386 2.90148 4.13367 2.88394C4.00349 2.86641 3.87112 2.87468 3.74413 2.9083C3.61714 2.94192 3.49802 3.00022 3.39356 3.07988C3.28911 3.15953 3.20136 3.25898 3.13534 3.37255C3.06932 3.48611 3.02631 3.61157 3.00877 3.74176C2.99124 3.87195 2.99951 4.00431 3.03313 4.1313L3.68013 6.5753C3.72832 6.75843 3.70189 6.95318 3.60665 7.11685C3.51142 7.28051 3.35515 7.39971 3.17213 7.4483L0.728132 8.0993C0.494117 8.16192 0.29079 8.30736 0.155928 8.5086C0.0210663 8.70984 -0.0361612 8.95319 -0.00512151 9.19344C0.0259181 9.43369 0.143114 9.65451 0.324693 9.81487C0.506271 9.97522 0.739886 10.0642 0.982132 10.0653C1.06713 10.0653 3.68213 9.3863 3.68213 9.3863C4.03929 9.291 4.37316 9.12356 4.66313 8.8943L7.28013 10.4163C6.91208 11.4423 6.91208 12.5643 7.28013 13.5903L4.66513 15.1083C4.37515 14.879 4.0413 14.7116 3.68413 14.6163L1.23913 13.9703C0.990142 13.9219 0.732051 13.9699 0.51712 14.1046C0.302189 14.2393 0.146481 14.4506 0.0815266 14.6958C0.0165724 14.941 0.0472261 15.2017 0.16728 15.4252C0.287335 15.6486 0.487817 15.8181 0.728132 15.8993L3.17213 16.5463C3.35515 16.5949 3.51142 16.7141 3.60665 16.8778C3.70189 17.0414 3.72832 17.2362 3.68013 17.4193L3.03313 19.8633C2.99951 19.9903 2.99124 20.1227 3.00877 20.2528C3.02631 20.383 3.06932 20.5085 3.13534 20.6221C3.20136 20.7356 3.28911 20.8351 3.39356 20.9147C3.49802 20.9944 3.61714 21.0527 3.74413 21.0863C3.87112 21.1199 4.00349 21.1282 4.13367 21.1107C4.26386 21.0931 4.38932 21.0501 4.50288 20.9841C4.61645 20.9181 4.7159 20.8303 4.79556 20.7259C4.87521 20.6214 4.93351 20.5023 4.96713 20.3753L5.61313 17.9313C5.70822 17.5726 5.72797 17.198 5.67113 16.8313L8.28713 15.3093C8.99591 16.1185 9.94776 16.6764 11.0001 16.8993V19.8993C10.6558 20.034 10.343 20.2383 10.0811 20.4993L8.29313 22.2923C8.11097 22.4809 8.01018 22.7335 8.01246 22.9957C8.01474 23.2579 8.11991 23.5087 8.30531 23.6941C8.49072 23.8795 8.74154 23.9847 9.00373 23.987C9.26593 23.9893 9.51853 23.8885 9.70713 23.7063L11.5001 21.9183C11.6346 21.7853 11.816 21.7107 12.0051 21.7107C12.1942 21.7107 12.3757 21.7853 12.5101 21.9183L14.2981 23.7063C14.4867 23.8885 14.7393 23.9893 15.0015 23.987C15.2637 23.9847 15.5145 23.8795 15.7 23.6941C15.8854 23.5087 15.9905 23.2579 15.9928 22.9957C15.9951 22.7335 15.8943 22.4809 15.7121 22.2923L13.9241 20.5043C13.6613 20.2409 13.3467 20.0349 13.0001 19.8993V16.8993C14.0516 16.6783 15.0033 16.1229 15.7131 15.3163L18.3291 16.8383C18.2723 17.205 18.292 17.5796 18.3871 17.9383L19.0331 20.3823C19.101 20.6388 19.268 20.8578 19.4974 20.9911C19.7267 21.1244 19.9997 21.1612 20.2561 21.0933C20.5126 21.0254 20.7316 20.8584 20.8649 20.6291C20.9983 20.3997 21.035 20.1268 20.9671 19.8703L20.3201 17.4263C20.2719 17.2432 20.2984 17.0484 20.3936 16.8848C20.4888 16.7211 20.6451 16.6019 20.8281 16.5533L23.2721 15.9063C23.4019 15.8754 23.5241 15.8188 23.6317 15.7399C23.7392 15.661 23.8299 15.5614 23.8984 15.447C23.9669 15.3325 24.0118 15.2055 24.0304 15.0735C24.0491 14.9414 24.0411 14.8069 24.0071 14.678C23.973 14.549 23.9134 14.4282 23.8319 14.3226C23.7505 14.217 23.6487 14.1288 23.5326 14.0631C23.4165 13.9975 23.2884 13.9557 23.1559 13.9403C23.0234 13.9248 22.8892 13.9361 22.7611 13.9733V13.9703ZM12.0001 14.9993C11.2045 14.9993 10.4414 14.6832 9.87881 14.1206C9.3162 13.558 9.00013 12.795 9.00013 11.9993C9.00013 11.2037 9.3162 10.4406 9.87881 9.87798C10.4414 9.31537 11.2045 8.9993 12.0001 8.9993C12.7958 8.9993 13.5588 9.31537 14.1215 9.87798C14.6841 10.4406 15.0001 11.2037 15.0001 11.9993C15.0001 12.795 14.6841 13.558 14.1215 14.1206C13.5588 14.6832 12.7958 14.9993 12.0001 14.9993Z" fill="currentColor"/>
</g>
<defs>
<clipPath id="clip0_403_2848">
<rect width="24" height="24" fill="white"/>
</clipPath>
</defs>
</svg>
