<svg width="24" height="24" viewBox="0 0 24 24" fill="none" xmlns="http://www.w3.org/2000/svg">
<g clip-path="url(#clip0_403_2932)">
<path d="M23 20.9997C22.7348 20.9997 22.4804 20.8944 22.2929 20.7068C22.1054 20.5193 22 20.2649 22 19.9997V14.9997C21.449 1.72971 2.546 1.74071 2 14.9997V19.9997C2 20.2649 1.89464 20.5193 1.70711 20.7068C1.51957 20.8944 1.26522 20.9997 1 20.9997C0.734784 20.9997 0.48043 20.8944 0.292893 20.7068C0.105357 20.5193 0 20.2649 0 19.9997V14.9997C0.661 -0.92429 23.345 -0.91129 24 14.9997V19.9997C24 20.2649 23.8946 20.5193 23.7071 20.7068C23.5196 20.8944 23.2652 20.9997 23 20.9997ZM20 19.9997V14.9997C19.6 4.39971 4.4 4.40671 4 14.9997V19.9997C4 20.2649 4.10536 20.5193 4.29289 20.7068C4.48043 20.8944 4.73478 20.9997 5 20.9997C5.26522 20.9997 5.51957 20.8944 5.70711 20.7068C5.89464 20.5193 6 20.2649 6 19.9997V14.9997C6.253 7.06771 17.75 7.07371 18 14.9997V19.9997C18 20.2649 18.1054 20.5193 18.2929 20.7068C18.4804 20.8944 18.7348 20.9997 19 20.9997C19.2652 20.9997 19.5196 20.8944 19.7071 20.7068C19.8946 20.5193 20 20.2649 20 19.9997ZM16 19.9997V14.9997C16 13.9388 15.5786 12.9214 14.8284 12.1713C14.0783 11.4211 13.0609 10.9997 12 10.9997C10.9391 10.9997 9.92172 11.4211 9.17157 12.1713C8.42143 12.9214 8 13.9388 8 14.9997V19.9997C8 20.2649 8.10536 20.5193 8.29289 20.7068C8.48043 20.8944 8.73478 20.9997 9 20.9997C9.26522 20.9997 9.51957 20.8944 9.70711 20.7068C9.89464 20.5193 10 20.2649 10 19.9997V14.9997C10 14.4693 10.2107 13.9606 10.5858 13.5855C10.9609 13.2104 11.4696 12.9997 12 12.9997C12.5304 12.9997 13.0391 13.2104 13.4142 13.5855C13.7893 13.9606 14 14.4693 14 14.9997V19.9997C14 20.2649 14.1054 20.5193 14.2929 20.7068C14.4804 20.8944 14.7348 20.9997 15 20.9997C15.2652 20.9997 15.5196 20.8944 15.7071 20.7068C15.8946 20.5193 16 20.2649 16 19.9997Z" fill="currentColor"/>
</g>
<defs>
<clipPath id="clip0_403_2932">
<rect width="24" height="24" fill="white"/>
</clipPath>
</defs>
</svg>
