<svg width="24" height="24" viewBox="0 0 24 24" fill="none" xmlns="http://www.w3.org/2000/svg">
<g clip-path="url(#clip0_403_3027)">
<path d="M23.1122 5.16485C23.3932 4.88394 23.6161 4.5504 23.7683 4.1833C23.9204 3.81619 23.9987 3.42272 23.9987 3.02535C23.9987 2.62798 23.9204 2.23451 23.7683 1.86741C23.6161 1.5003 23.3932 1.16677 23.1122 0.885852C22.5364 0.335474 21.7706 0.0283203 20.9742 0.0283203C20.1777 0.0283203 19.4119 0.335474 18.8362 0.885852L16.4002 3.32385C15.3882 4.33685 13.2772 4.11285 11.8212 3.31085C11.2698 3.01236 10.6291 2.92317 10.0172 3.0597C9.40526 3.19623 8.86327 3.54929 8.49107 4.05384C8.11887 4.55838 7.94152 5.18044 7.9917 5.8054C8.04189 6.43037 8.31621 7.01616 8.76415 7.45485L10.1802 8.87085L2.02515 17.0249C1.48987 17.5544 1.14226 18.2444 1.03521 18.9898C0.928165 19.7351 1.06755 20.495 1.43215 21.1539L0.293153 22.2929C0.105682 22.4804 0.000366211 22.7347 0.000366211 22.9999C0.000366211 23.265 0.105682 23.5193 0.293153 23.7069C0.48068 23.8943 0.734988 23.9996 1.00015 23.9996C1.26532 23.9996 1.51963 23.8943 1.70715 23.7069L2.84615 22.5679C3.50499 22.9325 4.2649 23.0718 5.01024 22.9648C5.75559 22.8577 6.44556 22.5101 6.97515 21.9749L15.1292 13.8199L16.5452 15.2359C16.9838 15.6838 17.5696 15.9581 18.1946 16.0083C18.8196 16.0585 19.4416 15.8811 19.9462 15.5089C20.4507 15.1367 20.8038 14.5947 20.9403 13.9828C21.0768 13.3709 20.9876 12.7302 20.6892 12.1789C19.8892 10.7229 19.6642 8.61085 20.6762 7.59885L23.1122 5.16485ZM5.56015 20.5609C5.27443 20.8336 4.89463 20.9857 4.49965 20.9857C4.10468 20.9857 3.72488 20.8336 3.43915 20.5609C3.15795 20.2796 2.99997 19.8981 2.99997 19.5004C2.99997 19.1026 3.15795 18.7211 3.43915 18.4399L11.5942 10.2859L13.7152 12.4069L5.56015 20.5609ZM19.2602 6.18485C17.5012 7.94385 17.7602 11.0169 18.9352 13.1429C18.9909 13.2538 19.0094 13.3797 18.988 13.502C18.9665 13.6243 18.9063 13.7365 18.8162 13.8219C18.7006 13.9325 18.5467 13.9943 18.3867 13.9943C18.2266 13.9943 18.0727 13.9325 17.9572 13.8219L10.1782 6.04085C10.0941 5.95536 10.037 5.84707 10.014 5.72943C9.99093 5.61178 10.0029 5.48995 10.0485 5.37908C10.0941 5.2682 10.1713 5.17315 10.2704 5.10573C10.3695 5.03832 10.4863 5.0015 10.6062 4.99985C10.6938 4.99945 10.7801 5.02112 10.8572 5.06285C12.9832 6.23285 16.0572 6.49685 17.8152 4.73785L20.2542 2.29985C20.4487 2.11344 20.7077 2.00937 20.9772 2.00937C21.2466 2.00937 21.5056 2.11344 21.7002 2.29985C21.7954 2.39495 21.8709 2.50789 21.9224 2.63221C21.974 2.75652 22.0005 2.88978 22.0005 3.02435C22.0005 3.15893 21.974 3.29218 21.9224 3.4165C21.8709 3.54081 21.7954 3.65375 21.7002 3.74885L19.2602 6.18485Z" fill="currentColor"/>
</g>
<defs>
<clipPath id="clip0_403_3027">
<rect width="24" height="24" fill="white"/>
</clipPath>
</defs>
</svg>
