<svg width="24" height="24" viewBox="0 0 24 24" fill="none" xmlns="http://www.w3.org/2000/svg">
<g clip-path="url(#clip0_403_2929)">
<path d="M18.757 16.0004C18.0683 15.9988 17.3862 16.1336 16.7499 16.397C16.1137 16.6605 15.5359 17.0474 15.05 17.5354C13.638 18.9554 11.9584 20.0813 10.1083 20.8477C8.25826 21.6141 6.27453 22.0059 4.272 22.0004H3.122C2.9001 22.0007 2.6831 21.9352 2.49848 21.8121C2.31385 21.689 2.16991 21.5139 2.08489 21.3089C1.99986 21.104 1.97758 20.8784 2.02086 20.6607C2.06413 20.4431 2.17103 20.2432 2.328 20.0864L3.021 19.3934C4.94382 19.2943 6.76131 18.4846 8.121 17.1214L12.447 12.8004C12.8691 12.9138 13.3023 12.9809 13.739 13.0004C13.825 13.0004 13.912 13.0004 14 13.0004C15.5922 12.9991 17.1189 12.367 18.246 11.2424L19.246 10.2424C19.8332 9.65414 20.2919 8.95052 20.5933 8.17596C20.8947 7.40141 21.0322 6.57276 20.997 5.74238C20.9636 4.90834 20.755 4.09068 20.3848 3.34258C20.0145 2.59449 19.4909 1.93274 18.848 1.40038C17.6469 0.449048 16.1351 -0.0220791 14.6062 0.0784451C13.0773 0.178969 11.6402 0.843974 10.574 1.94438L9.941 2.57838C9.17596 3.34067 8.61868 4.28602 8.32217 5.32451C8.02566 6.36299 7.99978 7.46007 8.247 8.51138L3.879 12.8794C2.51507 14.2386 1.70527 16.0564 1.607 17.9794L0.913997 18.6724C0.477409 19.1089 0.180103 19.6651 0.0596908 20.2707C-0.0607217 20.8762 0.00116922 21.5039 0.237534 22.0742C0.473899 22.6446 0.874117 23.132 1.38756 23.4749C1.901 23.8178 2.5046 24.0006 3.122 24.0004H4.272C6.53716 24.0065 8.78106 23.5634 10.8738 22.6965C12.9666 21.8297 14.8666 20.5564 16.464 18.9504C16.9175 18.497 17.4952 18.1882 18.1242 18.063C18.7531 17.9379 19.405 18.002 19.9975 18.2473C20.59 18.4926 21.0965 18.9081 21.4529 19.4412C21.8094 19.9743 21.9997 20.6011 22 21.2424V23.0004C22 23.2656 22.1054 23.52 22.2929 23.7075C22.4804 23.895 22.7348 24.0004 23 24.0004C23.2652 24.0004 23.5196 23.895 23.7071 23.7075C23.8946 23.52 24 23.2656 24 23.0004V21.2424C23.9981 19.8525 23.4451 18.5201 22.4622 17.5374C21.4794 16.5547 20.1469 16.002 18.757 16.0004ZM11.357 3.98838L11.99 3.35438C12.8114 2.52904 13.9256 2.06177 15.09 2.05438C15.9914 2.04559 16.8668 2.35629 17.561 2.93138C17.9905 3.28603 18.3405 3.72705 18.5884 4.22581C18.8364 4.72457 18.9766 5.2699 19 5.82638C19.0231 6.3799 18.9313 6.93221 18.7305 7.44852C18.5296 7.96483 18.2241 8.43396 17.833 8.82638L16.833 9.82638C16.4401 10.2193 15.9697 10.526 15.4517 10.7271C14.9336 10.9281 14.3794 11.019 13.8244 10.9939C13.2693 10.9689 12.7255 10.8285 12.2277 10.5817C11.7299 10.3349 11.2889 9.98705 10.933 9.56038C10.301 8.74417 9.99434 7.72253 10.0723 6.69321C10.1503 5.66389 10.6073 4.70009 11.355 3.98838H11.357ZM5.293 14.2934L9.129 10.4564C9.22 10.5864 9.293 10.7264 9.396 10.8494C9.72793 11.2415 10.1079 11.5902 10.527 11.8874L6.707 15.7074C5.88483 16.5321 4.83303 17.0897 3.689 17.3074C3.9085 16.1643 4.46749 15.1139 5.293 14.2934Z" fill="currentColor"/>
</g>
<defs>
<clipPath id="clip0_403_2929">
<rect width="24" height="24" fill="white"/>
</clipPath>
</defs>
</svg>
