<svg width="24" height="24" viewBox="0 0 24 24" fill="none" xmlns="http://www.w3.org/2000/svg">
<g clip-path="url(#clip0_403_2971)">
<path d="M21.8 5.57907L14.8 0.855073C13.9742 0.29347 12.9986 -0.00683594 12 -0.00683594C11.0013 -0.00683594 10.0257 0.29347 9.19997 0.855073L2.19997 5.57907C1.52212 6.03725 0.967067 6.65476 0.583495 7.37745C0.199922 8.10013 -0.000444936 8.9059 -2.9874e-05 9.72407V19.0001C0.00155798 20.3257 0.528852 21.5965 1.46619 22.5339C2.40353 23.4712 3.67438 23.9985 4.99997 24.0001H19C20.3256 23.9985 21.5964 23.4712 22.5338 22.5339C23.4711 21.5965 23.9984 20.3257 24 19.0001V9.72407C24.0004 8.9059 23.8 8.10013 23.4164 7.37745C23.0329 6.65476 22.4778 6.03725 21.8 5.57907ZM22 19.0001C22 19.7957 21.6839 20.5588 21.1213 21.1214C20.5587 21.684 19.7956 22.0001 19 22.0001H4.99997C4.20432 22.0001 3.44126 21.684 2.87865 21.1214C2.31604 20.5588 1.99997 19.7957 1.99997 19.0001V9.72407C1.99994 9.23299 2.12047 8.74941 2.35097 8.31579C2.58147 7.88216 2.91489 7.51175 3.32197 7.23707L10.322 2.51307C10.817 2.17679 11.4016 1.99699 12 1.99699C12.5984 1.99699 13.183 2.17679 13.678 2.51307L20.678 7.23707C21.0851 7.51175 21.4185 7.88216 21.649 8.31579C21.8795 8.74941 22 9.23299 22 9.72407V19.0001ZM12 7.00607C10.8122 7.00593 9.65113 7.35831 8.66381 8.01859C7.67649 8.67887 6.90736 9.61733 6.45384 10.7151C6.00032 11.8129 5.88282 13.0205 6.11623 14.1851C6.34963 15.3497 6.92344 16.4189 7.76497 17.2571L9.58897 19.0411C10.2353 19.667 11.0997 20.017 11.9995 20.017C12.8992 20.017 13.7636 19.667 14.41 19.0411L16.243 17.2491C17.0822 16.41 17.6538 15.3408 17.8854 14.1768C18.1169 13.0128 17.9981 11.8063 17.5439 10.7099C17.0897 9.61343 16.3206 8.6763 15.3338 8.01703C14.3469 7.35775 13.1868 7.00593 12 7.00607ZM14.836 15.8271L13.011 17.6121C12.7398 17.8747 12.377 18.0216 11.9995 18.0216C11.6219 18.0216 11.2592 17.8747 10.988 17.6121L9.17097 15.8351C8.61193 15.276 8.2311 14.5638 8.0766 13.7884C7.9221 13.013 8.00085 12.2092 8.30291 11.4786C8.60497 10.7479 9.11678 10.1231 9.77371 9.68319C10.4306 9.24325 11.2032 9.00785 11.9938 9.00673C12.7845 9.00562 13.5577 9.23883 14.2159 9.67692C14.874 10.115 15.3876 10.7383 15.6917 11.4681C15.9958 12.1979 16.0769 13.0015 15.9246 13.7773C15.7722 14.5531 15.3934 15.2664 14.836 15.8271ZM13 13.0001C13 13.1979 12.9413 13.3912 12.8314 13.5556C12.7216 13.7201 12.5654 13.8483 12.3827 13.924C12.1999 13.9996 11.9989 14.0194 11.8049 13.9809C11.6109 13.9423 11.4327 13.847 11.2929 13.7072C11.153 13.5673 11.0578 13.3891 11.0192 13.1952C10.9806 13.0012 11.0004 12.8001 11.0761 12.6174C11.1518 12.4347 11.28 12.2785 11.4444 12.1686C11.6089 12.0587 11.8022 12.0001 12 12.0001C12.2652 12.0001 12.5195 12.1054 12.7071 12.293C12.8946 12.4805 13 12.7349 13 13.0001Z" fill="currentColor"/>
</g>
<defs>
<clipPath id="clip0_403_2971">
<rect width="24" height="24" fill="white"/>
</clipPath>
</defs>
</svg>
