<svg width="24" height="24" viewBox="0 0 24 24" fill="none" xmlns="http://www.w3.org/2000/svg">
<g clip-path="url(#clip0_403_3045)">
<path d="M23.7072 0.293153C23.5196 0.105682 23.2653 0.000366211 23.0002 0.000366211C22.735 0.000366211 22.4807 0.105682 22.2932 0.293153L12.0002 10.5862L1.70715 0.293153C1.51963 0.105682 1.26532 0.000366211 1.00015 0.000366211C0.734988 0.000366211 0.48068 0.105682 0.293153 0.293153C0.105682 0.48068 0.000366211 0.734988 0.000366211 1.00015C0.000366211 1.26532 0.105682 1.51963 0.293153 1.70715L10.5862 12.0002L0.293153 22.2932C0.105682 22.4807 0.000366211 22.735 0.000366211 23.0002C0.000366211 23.2653 0.105682 23.5196 0.293153 23.7072C0.48068 23.8946 0.734988 23.9999 1.00015 23.9999C1.26532 23.9999 1.51963 23.8946 1.70715 23.7072L12.0002 13.4142L22.2932 23.7072C22.4807 23.8946 22.735 23.9999 23.0002 23.9999C23.2653 23.9999 23.5196 23.8946 23.7072 23.7072C23.8946 23.5196 23.9999 23.2653 23.9999 23.0002C23.9999 22.735 23.8946 22.4807 23.7072 22.2932L13.4142 12.0002L23.7072 1.70715C23.8946 1.51963 23.9999 1.26532 23.9999 1.00015C23.9999 0.734988 23.8946 0.48068 23.7072 0.293153Z" fill="currentColor"/>
</g>
<defs>
<clipPath id="clip0_403_3045">
<rect width="24" height="24" fill="white"/>
</clipPath>
</defs>
</svg>
