<svg width="24" height="24" viewBox="0 0 24 24" fill="none" xmlns="http://www.w3.org/2000/svg">
<g clip-path="url(#clip0_403_3204)">
<path d="M12.9998 1.00007C12.9998 0.734855 13.1052 0.480501 13.2927 0.292964C13.4803 0.105428 13.7346 7.1089e-05 13.9998 7.1089e-05C16.6511 0.00298269 19.193 1.05749 21.0677 2.93222C22.9424 4.80695 23.9969 7.3488 23.9998 10.0001C23.9998 10.2653 23.8945 10.5196 23.7069 10.7072C23.5194 10.8947 23.2651 11.0001 22.9998 11.0001C22.7346 11.0001 22.4803 10.8947 22.2927 10.7072C22.1052 10.5196 21.9998 10.2653 21.9998 10.0001C21.9975 7.87907 21.1538 5.84562 19.6541 4.34585C18.1543 2.84607 16.1208 2.00245 13.9998 2.00007C13.7346 2.00007 13.4803 1.89471 13.2927 1.70718C13.1052 1.51964 12.9998 1.26529 12.9998 1.00007ZM13.9998 6.00007C15.0607 6.00007 16.0781 6.4215 16.8283 7.17164C17.5784 7.92179 17.9998 8.93921 17.9998 10.0001C17.9998 10.2653 18.1052 10.5196 18.2927 10.7072C18.4803 10.8947 18.7346 11.0001 18.9998 11.0001C19.2651 11.0001 19.5194 10.8947 19.7069 10.7072C19.8945 10.5196 19.9998 10.2653 19.9998 10.0001C19.9983 8.40926 19.3656 6.88406 18.2407 5.75919C17.1159 4.63431 15.5907 4.00166 13.9998 4.00007C13.7346 4.00007 13.4803 4.10543 13.2927 4.29296C13.1052 4.4805 12.9998 4.73486 12.9998 5.00007C12.9998 5.26529 13.1052 5.51964 13.2927 5.70718C13.4803 5.89471 13.7346 6.00007 13.9998 6.00007ZM23.0928 16.7391C23.6723 17.3202 23.9978 18.1074 23.9978 18.9281C23.9978 19.7488 23.6723 20.536 23.0928 21.1171L22.1828 22.1661C13.9928 30.0071 -5.93713 10.0821 1.78286 1.86607L2.93286 0.866071C3.51463 0.302748 4.29479 -0.00887983 5.10456 -0.00139407C5.91433 0.00609169 6.6886 0.33209 7.25986 0.906071C7.29086 0.937071 9.14385 3.34407 9.14385 3.34407C9.69368 3.9217 9.99976 4.689 9.99845 5.48647C9.99715 6.28395 9.68857 7.05024 9.13685 7.62607L7.97885 9.08207C8.6197 10.6392 9.56192 12.0543 10.7514 13.2462C11.9408 14.438 13.354 15.3831 14.9098 16.0271L16.3748 14.8621C16.9507 14.3108 17.7169 14.0026 18.5141 14.0015C19.3114 14.0003 20.0784 14.3064 20.6558 14.8561C20.6558 14.8561 23.0618 16.7081 23.0928 16.7391ZM21.7168 18.1931C21.7168 18.1931 19.3238 16.3521 19.2928 16.3211C19.0868 16.1168 18.8085 16.0022 18.5183 16.0022C18.2282 16.0022 17.9499 16.1168 17.7438 16.3211C17.7168 16.3491 15.6998 17.9561 15.6998 17.9561C15.5639 18.0643 15.4022 18.1352 15.2305 18.1618C15.0588 18.1885 14.8832 18.17 14.7208 18.1081C12.7053 17.3576 10.8746 16.1828 9.35269 14.6632C7.83079 13.1435 6.65326 11.3145 5.89986 9.30007C5.83306 9.13553 5.81128 8.95616 5.83676 8.78041C5.86224 8.60466 5.93407 8.43887 6.04486 8.30007C6.04486 8.30007 7.65185 6.28207 7.67885 6.25607C7.88312 6.05006 7.99773 5.77169 7.99773 5.48157C7.99773 5.19146 7.88312 4.91309 7.67885 4.70707C7.64785 4.67707 5.80686 2.28207 5.80686 2.28207C5.59776 2.09458 5.32486 1.99417 5.04411 2.00142C4.76335 2.00867 4.496 2.12303 4.29686 2.32107L3.14686 3.32107C-2.49513 10.1051 14.7758 26.4181 20.7208 20.8001L21.6318 19.7501C21.8453 19.5523 21.9735 19.2793 21.9894 18.9888C22.0053 18.6982 21.9075 18.4129 21.7168 18.1931Z" fill="currentColor"/>
</g>
<defs>
<clipPath id="clip0_403_3204">
<rect width="24" height="24" fill="white"/>
</clipPath>
</defs>
</svg>
