<svg width="24" height="24" viewBox="0 0 24 24" fill="none" xmlns="http://www.w3.org/2000/svg">
<g clip-path="url(#clip0_403_3225)">
<path d="M19 1.99942H16.461C15.7695 1.21123 14.8807 0.621358 13.8858 0.290426C12.8909 -0.0405068 11.8258 -0.100566 10.8 0.116419C9.55068 0.371189 8.42128 1.03349 7.589 1.99942H5C3.67441 2.00101 2.40356 2.5283 1.46622 3.46564C0.528882 4.40298 0.00158786 5.67382 0 6.99942L0 18.9994C0.00158786 20.325 0.528882 21.5959 1.46622 22.5332C2.40356 23.4705 3.67441 23.9978 5 23.9994H19C20.3256 23.9978 21.5964 23.4705 22.5338 22.5332C23.4711 21.5959 23.9984 20.325 24 18.9994V6.99942C23.9984 5.67382 23.4711 4.40298 22.5338 3.46564C21.5964 2.5283 20.3256 2.00101 19 1.99942ZM12 1.99942C13.0609 1.99942 14.0783 2.42085 14.8284 3.17099C15.5786 3.92114 16 4.93855 16 5.99942C16 6.26464 15.8946 6.51899 15.7071 6.70653C15.5196 6.89406 15.2652 6.99942 15 6.99942H12.868L13.832 5.55442C13.9792 5.33376 14.0327 5.06366 13.9808 4.80355C13.9288 4.54344 13.7757 4.31461 13.555 4.16742C13.3343 4.02022 13.0642 3.96671 12.8041 4.01866C12.544 4.07061 12.3152 4.22376 12.168 4.44442L10.465 6.99942H9C8.73478 6.99942 8.48043 6.89406 8.29289 6.70653C8.10536 6.51899 8 6.26464 8 5.99942C8 4.93855 8.42143 3.92114 9.17157 3.17099C9.92172 2.42085 10.9391 1.99942 12 1.99942ZM22 18.9994C22 19.7951 21.6839 20.5581 21.1213 21.1207C20.5587 21.6833 19.7956 21.9994 19 21.9994H5C4.20435 21.9994 3.44129 21.6833 2.87868 21.1207C2.31607 20.5581 2 19.7951 2 18.9994V6.99942C2 6.20377 2.31607 5.44071 2.87868 4.8781C3.44129 4.31549 4.20435 3.99942 5 3.99942H6.393C6.1339 4.7092 6.0009 5.45882 6 6.21442C6.00079 6.9528 6.29447 7.66072 6.81658 8.18283C7.3387 8.70495 8.04662 8.99862 8.785 8.99942H15.215C15.932 9.00601 16.6235 8.73351 17.1432 8.23954C17.6629 7.74556 17.9702 7.06883 18 6.35242C18.01 5.55486 17.8939 4.76072 17.656 3.99942H19C19.7956 3.99942 20.5587 4.31549 21.1213 4.8781C21.6839 5.44071 22 6.20377 22 6.99942V18.9994Z" fill="currentColor"/>
</g>
<defs>
<clipPath id="clip0_403_3225">
<rect width="24" height="24" fill="white"/>
</clipPath>
</defs>
</svg>
