<svg width="24" height="24" viewBox="0 0 24 24" fill="none" xmlns="http://www.w3.org/2000/svg">
<g clip-path="url(#clip0_403_2898)">
<path d="M16.9 14.7236C17.0875 14.9111 17.3418 15.0164 17.607 15.0164C17.8722 15.0164 18.1265 14.9111 18.314 14.7236L23.263 9.77361C23.4952 9.54146 23.6794 9.26583 23.8051 8.96247C23.9308 8.65911 23.9955 8.33397 23.9955 8.00561C23.9955 7.67725 23.9308 7.35211 23.8051 7.04875C23.6794 6.74539 23.4952 6.46977 23.263 6.23761L18.313 1.28861C18.1228 1.11618 17.8736 1.02349 17.617 1.02971C17.3604 1.03594 17.116 1.14061 16.9344 1.32206C16.7529 1.50351 16.648 1.74784 16.6416 2.00445C16.6352 2.26107 16.7277 2.51032 16.9 2.70061L21.2 7.00061H5C3.67392 7.00061 2.40215 7.52739 1.46447 8.46508C0.526784 9.40276 0 10.6745 0 12.0006L0 19.0006C0.00158786 20.3262 0.528882 21.5971 1.46622 22.5344C2.40356 23.4717 3.67441 23.999 5 24.0006H19C19.2652 24.0006 19.5196 23.8953 19.7071 23.7077C19.8946 23.5202 20 23.2658 20 23.0006C20 22.7354 19.8946 22.481 19.7071 22.2935C19.5196 22.106 19.2652 22.0006 19 22.0006H5C4.20435 22.0006 3.44129 21.6845 2.87868 21.1219C2.31607 20.5593 2 19.7963 2 19.0006V12.0006C2 11.205 2.31607 10.4419 2.87868 9.87929C3.44129 9.31668 4.20435 9.00061 5 9.00061H21.212L16.9 13.3096C16.7125 13.4971 16.6072 13.7514 16.6072 14.0166C16.6072 14.2818 16.7125 14.5361 16.9 14.7236Z" fill="currentColor"/>
</g>
<defs>
<clipPath id="clip0_403_2898">
<rect width="24" height="24" fill="white"/>
</clipPath>
</defs>
</svg>
