<svg width="24" height="24" viewBox="0 0 24 24" fill="none" xmlns="http://www.w3.org/2000/svg">
<path d="M8.33698 13.3224L10.6234 11.036L8.33698 8.74962C7.94088 8.36707 7.92987 7.73581 8.31246 7.33972C8.69501 6.94362 9.32627 6.93261 9.72237 7.3152C9.73067 7.32322 9.73887 7.33142 9.74689 7.33972L12.0333 9.62609L14.3196 7.33972C14.7022 6.94362 15.3334 6.93265 15.7295 7.31525C16.1256 7.69784 16.1366 8.32906 15.754 8.72515C15.746 8.73345 15.7378 8.74161 15.7295 8.74962L13.4432 11.036L15.7295 13.3224C16.1256 13.705 16.1366 14.3362 15.754 14.7323C15.3714 15.1284 14.7402 15.1393 14.3441 14.7567C14.3358 14.7487 14.3277 14.7406 14.3196 14.7323L12.0333 12.4459L9.74689 14.7323C9.35079 15.1149 8.71957 15.1039 8.33698 14.7078C7.96376 14.3214 7.96376 13.7088 8.33698 13.3224ZM4.30568 18.8184C-0.0289906 14.5871 -0.112803 7.64295 4.11856 3.30823C8.34992 -1.02649 15.2941 -1.11025 19.6287 3.12111C19.6826 3.1737 19.7359 3.22686 19.7887 3.28053C24.0718 7.56383 24.0718 14.5082 19.7887 18.7915L15.8083 22.4698C13.6962 24.5155 10.3392 24.5071 8.23728 22.4509L4.30568 18.8184ZM3.05932 11.036C3.05281 13.4174 3.99926 15.7024 5.6877 17.3816L9.61132 21.0071C10.9584 22.2944 13.0772 22.3027 14.4343 21.026L18.4068 17.3547C21.9039 13.8424 21.8917 8.16012 18.3794 4.66301C14.8671 1.1659 9.18485 1.17814 5.68774 4.69043C3.99921 6.36968 3.05281 8.6547 3.05932 11.036Z" fill="currentColor"/>
</svg>
