<svg width="24" height="24" viewBox="0 0 24 24" fill="none" xmlns="http://www.w3.org/2000/svg">
<g clip-path="url(#clip0_403_2858)">
<path d="M17.0002 0H7.00015C5.67456 0.00158786 4.40371 0.528882 3.46637 1.46622C2.52903 2.40356 2.00174 3.67441 2.00015 5V20C2.00015 21.0609 2.42158 22.0783 3.17173 22.8284C3.92187 23.5786 4.93929 24 6.00015 24H17.0002C18.3257 23.9984 19.5966 23.4711 20.5339 22.5338C21.4713 21.5964 21.9986 20.3256 22.0002 19V5C21.9986 3.67441 21.4713 2.40356 20.5339 1.46622C19.5966 0.528882 18.3257 0.00158786 17.0002 0V0ZM20.0002 5V16H8.00015V2H17.0002C17.7958 2 18.5589 2.31607 19.1215 2.87868C19.6841 3.44129 20.0002 4.20435 20.0002 5ZM6.00015 2.172V16C5.29778 15.9994 4.60776 16.1847 4.00015 16.537V5C4.00024 4.37969 4.19261 3.77466 4.55079 3.2682C4.90896 2.76175 5.41532 2.37877 6.00015 2.172ZM17.0002 22H6.00015C5.46972 22 4.96101 21.7893 4.58594 21.4142C4.21087 21.0391 4.00015 20.5304 4.00015 20C4.00015 19.4696 4.21087 18.9609 4.58594 18.5858C4.96101 18.2107 5.46972 18 6.00015 18H20.0002V19C20.0002 19.7956 19.6841 20.5587 19.1215 21.1213C18.5589 21.6839 17.7958 22 17.0002 22Z" fill="currentColor"/>
</g>
<defs>
<clipPath id="clip0_403_2858">
<rect width="24" height="24" fill="white"/>
</clipPath>
</defs>
</svg>
