<svg width="24" height="24" viewBox="0 0 24 24" fill="none" xmlns="http://www.w3.org/2000/svg">
<g clip-path="url(#clip0_403_2812)">
<path d="M23.0001 18.0006H20.0001V15.0006C20.0001 14.7354 19.8948 14.481 19.7072 14.2935C19.5197 14.106 19.2653 14.0006 19.0001 14.0006C18.7349 14.0006 18.4806 14.106 18.293 14.2935C18.1055 14.481 18.0001 14.7354 18.0001 15.0006V18.0006H15.0001C14.7349 18.0006 14.4806 18.106 14.293 18.2935C14.1055 18.481 14.0001 18.7354 14.0001 19.0006C14.0001 19.2658 14.1055 19.5202 14.293 19.7077C14.4806 19.8953 14.7349 20.0006 15.0001 20.0006H18.0001V23.0006C18.0001 23.2658 18.1055 23.5202 18.293 23.7077C18.4806 23.8953 18.7349 24.0006 19.0001 24.0006C19.2653 24.0006 19.5197 23.8953 19.7072 23.7077C19.8948 23.5202 20.0001 23.2658 20.0001 23.0006V20.0006H23.0001C23.2653 20.0006 23.5197 19.8953 23.7072 19.7077C23.8948 19.5202 24.0001 19.2658 24.0001 19.0006C24.0001 18.7354 23.8948 18.481 23.7072 18.2935C23.5197 18.106 23.2653 18.0006 23.0001 18.0006Z" fill="currentColor"/>
<path d="M11.0002 7V11.586L8.2932 14.293C8.19769 14.3852 8.12151 14.4956 8.0691 14.6176C8.01669 14.7396 7.98911 14.8708 7.98795 15.0036C7.9868 15.1364 8.0121 15.268 8.06238 15.3909C8.11266 15.5138 8.18692 15.6255 8.28081 15.7194C8.3747 15.8133 8.48635 15.8875 8.60925 15.9378C8.73214 15.9881 8.86382 16.0134 8.9966 16.0122C9.12938 16.0111 9.2606 15.9835 9.3826 15.9311C9.50461 15.8787 9.61495 15.8025 9.7072 15.707L12.7072 12.707C12.8947 12.5195 13.0001 12.2652 13.0002 12V7C13.0002 6.73478 12.8948 6.48043 12.7073 6.29289C12.5198 6.10536 12.2654 6 12.0002 6C11.735 6 11.4806 6.10536 11.2931 6.29289C11.1056 6.48043 11.0002 6.73478 11.0002 7Z" fill="currentColor"/>
<path d="M14.7279 21.6244C12.6014 22.2237 10.3361 22.1008 8.28689 21.2749C6.23767 20.4491 4.52023 18.9668 3.40355 17.0604C2.28687 15.154 1.83402 12.9311 2.11593 10.7397C2.39783 8.54841 3.39857 6.51246 4.96141 4.95076C6.52425 3.38905 8.56092 2.38979 10.7525 2.10947C12.944 1.82916 15.1666 2.28362 17.0722 3.40167C18.9778 4.51973 20.4588 6.23825 21.2832 8.28807C22.1076 10.3379 22.2288 12.6033 21.6279 14.7294C21.5873 14.8572 21.5727 14.9919 21.5852 15.1254C21.5977 15.259 21.6369 15.3887 21.7005 15.5068C21.7641 15.6248 21.8508 15.7289 21.9555 15.8128C22.0601 15.8967 22.1806 15.9587 22.3097 15.995C22.4388 16.0314 22.5739 16.0414 22.707 16.0245C22.84 16.0076 22.9683 15.9641 23.0842 15.8966C23.2001 15.829 23.3013 15.7389 23.3816 15.6315C23.462 15.5241 23.5199 15.4016 23.5519 15.2714C24.2733 12.7181 24.1274 9.99774 23.1371 7.53632C22.1467 5.0749 20.3679 3.01153 18.0792 1.66944C15.7904 0.327355 13.1212 -0.217627 10.4896 0.119872C7.85794 0.457372 5.4126 1.65829 3.53663 3.53448C1.66066 5.41068 0.460044 7.85616 0.122862 10.4878C-0.21432 13.1195 0.330985 15.7887 1.67335 18.0772C3.01571 20.3658 5.0793 22.1444 7.54084 23.1345C10.0024 24.1245 12.7228 24.2701 15.2759 23.5484C15.4051 23.5152 15.5263 23.4565 15.6324 23.3757C15.7385 23.295 15.8274 23.1939 15.8939 23.0783C15.9603 22.9627 16.003 22.835 16.0194 22.7027C16.0357 22.5703 16.0255 22.4361 15.9892 22.3078C15.9529 22.1795 15.8914 22.0597 15.8081 21.9555C15.7249 21.8514 15.6217 21.7649 15.5045 21.7013C15.3874 21.6376 15.2587 21.598 15.126 21.5848C14.9933 21.5716 14.8593 21.585 14.7319 21.6244H14.7279Z" fill="currentColor"/>
</g>
<defs>
<clipPath id="clip0_403_2812">
<rect width="24" height="24" fill="white"/>
</clipPath>
</defs>
</svg>
