<svg width="24" height="24" viewBox="0 0 24 24" fill="none" xmlns="http://www.w3.org/2000/svg">
<g clip-path="url(#clip0_403_2968)">
<path d="M17.0002 24H7.00517C6.42688 23.9997 5.85549 23.8744 5.33011 23.6328C4.80473 23.3912 4.33776 23.0389 3.96117 22.6C3.58988 22.1707 3.31572 21.6663 3.15745 21.1212C2.99918 20.5762 2.96054 20.0034 3.04417 19.442C3.58108 16.5175 5.14113 13.8795 7.44517 12C5.1411 10.1199 3.58137 7.48109 3.04517 4.556C2.9617 3.99502 3.00033 3.42262 3.15842 2.87794C3.31651 2.33326 3.59033 1.82913 3.96117 1.4C4.33776 0.961146 4.80473 0.608844 5.33011 0.36721C5.85549 0.125575 6.42688 0.000313842 7.00517 0L17.0002 0C17.5784 0.000512143 18.1497 0.125862 18.6751 0.367483C19.2005 0.609104 19.6674 0.9613 20.0442 1.4C20.415 1.82895 20.689 2.33285 20.8475 2.87732C21.0059 3.42179 21.045 3.99403 20.9622 4.555C20.4205 7.48095 18.8572 10.1194 16.5512 12C18.8559 13.8822 20.4174 16.5217 20.9572 19.448C21.0401 20.0091 21.001 20.5815 20.8426 21.1262C20.6842 21.6708 20.4101 22.1749 20.0392 22.604C19.6626 23.0413 19.1963 23.3924 18.6719 23.6333C18.1474 23.8742 17.5773 23.9993 17.0002 24ZM17.0002 2H7.00517C6.7151 1.99982 6.42841 2.06227 6.1647 2.18308C5.90099 2.30389 5.66647 2.48022 5.47717 2.7C5.29232 2.91043 5.15572 3.15874 5.07695 3.42753C4.99818 3.69632 4.97914 3.97908 5.02117 4.256C5.39717 6.756 6.94517 9.096 9.62117 11.213C9.73941 11.3066 9.83494 11.4258 9.90062 11.5615C9.96629 11.6973 10.0004 11.8462 10.0004 11.997C10.0004 12.1478 9.96629 12.2967 9.90062 12.4325C9.83494 12.5682 9.73941 12.6874 9.62117 12.781C6.94517 14.9 5.40017 17.242 5.02117 19.741C4.97869 20.0184 4.9975 20.3017 5.07628 20.5711C5.15506 20.8404 5.2919 21.0892 5.47717 21.3C5.66647 21.5198 5.90099 21.6961 6.1647 21.8169C6.42841 21.9377 6.7151 22.0002 7.00517 22H17.0002C17.2902 22.0002 17.577 21.9378 17.8407 21.817C18.1044 21.6962 18.3389 21.5198 18.5282 21.3C18.713 21.0899 18.8496 20.842 18.9283 20.5735C19.0071 20.3051 19.0262 20.0226 18.9842 19.746C18.6112 17.259 17.0642 14.917 14.3842 12.784C14.2667 12.6903 14.1718 12.5714 14.1065 12.436C14.0413 12.3006 14.0074 12.1523 14.0074 12.002C14.0074 11.8517 14.0413 11.7034 14.1065 11.568C14.1718 11.4326 14.2667 11.3137 14.3842 11.22C17.0652 9.087 18.6122 6.745 18.9842 4.257C19.026 3.97955 19.0064 3.69629 18.9268 3.42725C18.8471 3.1582 18.7093 2.90994 18.5232 2.7C18.3345 2.4808 18.1008 2.30482 17.8379 2.18403C17.5751 2.06324 17.2894 2.00047 17.0002 2ZM15.6812 20H8.31817C8.15455 19.9999 7.99344 19.9597 7.84898 19.8829C7.70453 19.806 7.58113 19.6949 7.48962 19.5593C7.39811 19.4236 7.34128 19.2676 7.32411 19.1049C7.30695 18.9422 7.32997 18.7777 7.39117 18.626C8.17424 16.9351 9.36737 15.4666 10.8622 14.354L11.3802 13.942C11.5571 13.8012 11.7766 13.7246 12.0027 13.7246C12.2288 13.7246 12.4482 13.8012 12.6252 13.942L13.1342 14.348C14.6268 15.465 15.82 16.934 16.6072 18.624C16.6688 18.7758 16.6921 18.9403 16.6752 19.1033C16.6583 19.2662 16.6016 19.4224 16.5102 19.5583C16.4187 19.6942 16.2953 19.8055 16.1508 19.8826C16.0062 19.9596 15.845 19.9999 15.6812 20ZM10.0342 18H13.9622C13.3916 17.2563 12.7328 16.5847 12.0002 16C11.2643 16.5824 10.6039 17.2543 10.0342 18Z" fill="currentColor"/>
</g>
<defs>
<clipPath id="clip0_403_2968">
<rect width="24" height="24" fill="white"/>
</clipPath>
</defs>
</svg>
