<svg width="24" height="24" viewBox="0 0 24 24" fill="none" xmlns="http://www.w3.org/2000/svg">
<g clip-path="url(#clip0_403_3021)">
<path d="M6.96218 5.81784C7.30736 5.81784 7.58716 5.538 7.58716 5.19286C7.58716 4.84771 7.30732 4.56787 6.96218 4.56787H4.76219C4.417 4.56787 4.13721 4.84771 4.13721 5.19286V10.4069C4.13721 10.752 4.41705 11.0318 4.76219 11.0318H6.96218C7.30736 11.0318 7.58716 10.752 7.58716 10.4069C7.58716 10.0617 7.30732 9.78187 6.96218 9.78187H5.39116V8.42489H6.80018C7.14536 8.42489 7.42516 8.14504 7.42516 7.7999C7.42516 7.45472 7.14532 7.17492 6.80018 7.17492H5.39116V5.81793H6.96218V5.81784Z" fill="currentColor"/>
<path d="M8.85099 5.16904V10.431C8.85099 10.7762 9.13084 11.056 9.47598 11.056C9.82116 11.056 10.101 10.7762 10.101 10.431V8.76806H10.94C12.1053 8.76806 13.05 7.82339 13.05 6.65807C13.05 5.49276 12.1053 4.54809 10.94 4.54809L10.939 4.54411H9.47499C9.43866 4.54312 9.18446 4.54054 9.00179 4.74661C8.84799 4.92004 8.84954 5.12339 8.85099 5.16904ZM10.939 7.51406H10.107V5.79004H10.944C11.419 5.79004 11.804 6.17507 11.804 6.65006C11.804 7.12504 11.419 7.51007 10.944 7.51007L10.939 7.51406Z" fill="currentColor"/>
<path d="M19 0H5.00002C2.23997 0.00332812 0.00332812 2.23997 0 5.00002V19C0.00332812 21.76 2.23997 23.9967 5.00002 24H16.343C17.6699 24.0038 18.9432 23.4766 19.879 22.536L22.535 19.878C23.4757 18.9426 24.0033 17.6697 24 16.343V5.00002C23.9967 2.23997 21.76 0.00332812 19 0ZM2.00002 19V5.00002C2.00002 3.34317 3.34317 2.00002 5.00002 2.00002H19C20.6569 2.00002 22 3.34317 22 5.00002V15H18C16.3432 15 15 16.3432 15 18V22H5.00002C3.34312 22 2.00002 20.6569 2.00002 19ZM18.465 21.122C18.063 21.523 17.5547 21.8006 17 21.922V18C17 17.4477 17.4477 17 18 17H21.925C21.8013 17.5535 21.524 18.0609 21.125 18.464L18.465 21.122Z" fill="currentColor"/>
<path d="M16.8567 7.25537C16.5837 7.16237 16.3008 7.11137 16.0218 7.03839C15.8004 6.99372 15.5951 6.89008 15.4278 6.73839C15.2606 6.57986 15.2012 6.33841 15.2757 6.12039C15.3706 5.93251 15.5569 5.80806 15.7668 5.79241C15.973 5.77956 16.1798 5.80989 16.3737 5.88142C16.6525 5.96833 16.926 6.0715 17.1927 6.19042C17.4877 6.31942 17.8338 6.39644 18.0717 6.11641C18.2466 5.90575 18.2597 5.60444 18.1038 5.37939C18.0001 5.22878 17.8601 5.10667 17.6967 5.02441C16.9647 4.59461 16.0912 4.47541 15.2707 4.69342C14.8374 4.83058 14.4712 5.12533 14.2447 5.51941C14.1385 5.70634 14.0683 5.91156 14.0377 6.12442C13.9819 6.50725 14.065 6.89744 14.2717 7.22444C14.5051 7.56606 14.8419 7.82369 15.2327 7.95944C15.6417 8.12744 16.0497 8.29042 16.4647 8.44244C16.6434 8.49864 16.8078 8.59277 16.9467 8.71844C17.1034 8.86684 17.1616 9.09166 17.0967 9.29744C17.0124 9.49445 16.845 9.64389 16.6398 9.70544C16.3276 9.82281 15.9856 9.83509 15.6657 9.74045C15.3545 9.62781 15.067 9.45827 14.8177 9.24044C14.7917 9.21944 14.7067 9.15545 14.6907 9.14045C14.4577 8.97386 14.1394 8.99519 13.9308 9.19145C13.675 9.42334 13.6557 9.81859 13.8876 10.0743C13.8876 10.0743 13.8877 10.0744 13.8877 10.0745C14.4843 10.708 15.3175 11.0648 16.1877 11.0595C17.219 11.1048 18.1354 10.4068 18.3657 9.40047C18.4628 8.79152 18.2354 8.17605 17.7657 7.77648C17.5002 7.54427 17.1912 7.36717 16.8567 7.25537Z" fill="currentColor"/>
</g>
<defs>
<clipPath id="clip0_403_3021">
<rect width="24" height="24" fill="white"/>
</clipPath>
</defs>
</svg>
