<svg width="24" height="24" viewBox="0 0 24 24" fill="none" xmlns="http://www.w3.org/2000/svg">
<g clip-path="url(#clip0_403_2800)">
<path d="M9 12C10.1867 12 11.3467 11.6481 12.3334 10.9888C13.3201 10.3295 14.0892 9.39246 14.5433 8.2961C14.9974 7.19975 15.1162 5.99335 14.8847 4.82946C14.6532 3.66558 14.0818 2.59648 13.2426 1.75736C12.4035 0.918247 11.3344 0.346802 10.1705 0.115291C9.00666 -0.11622 7.80026 0.00259972 6.7039 0.456726C5.60754 0.910851 4.67047 1.67989 4.01118 2.66658C3.35189 3.65328 3 4.81332 3 6C3.00159 7.59082 3.63424 9.11602 4.75911 10.2409C5.88399 11.3658 7.40919 11.9984 9 12ZM9 2C9.79113 2 10.5645 2.2346 11.2223 2.67412C11.8801 3.11365 12.3928 3.73837 12.6955 4.46927C12.9983 5.20017 13.0775 6.00444 12.9231 6.78036C12.7688 7.55629 12.3878 8.26902 11.8284 8.82843C11.269 9.38784 10.5563 9.7688 9.78036 9.92315C9.00444 10.0775 8.20017 9.99827 7.46927 9.69552C6.73836 9.39277 6.11365 8.88008 5.67412 8.22228C5.2346 7.56449 5 6.79113 5 6C5 4.93914 5.42143 3.92172 6.17157 3.17158C6.92172 2.42143 7.93914 2 9 2ZM18 23C18 23.2652 17.8946 23.5196 17.7071 23.7071C17.5196 23.8946 17.2652 24 17 24C16.7348 24 16.4804 23.8946 16.2929 23.7071C16.1054 23.5196 16 23.2652 16 23C16 21.1435 15.2625 19.363 13.9497 18.0503C12.637 16.7375 10.8565 16 9 16C7.14349 16 5.36301 16.7375 4.05025 18.0503C2.7375 19.363 2 21.1435 2 23C2 23.2652 1.89464 23.5196 1.70711 23.7071C1.51957 23.8946 1.26522 24 1 24C0.734784 24 0.48043 23.8946 0.292893 23.7071C0.105357 23.5196 0 23.2652 0 23C0 20.6131 0.948212 18.3239 2.63604 16.636C4.32387 14.9482 6.61305 14 9 14C11.3869 14 13.6761 14.9482 15.364 16.636C17.0518 18.3239 18 20.6131 18 23ZM23.707 14.293C23.8025 14.3853 23.8787 14.4956 23.9311 14.6176C23.9835 14.7396 24.0111 14.8708 24.0123 15.0036C24.0134 15.1364 23.9881 15.2681 23.9378 15.391C23.8875 15.5139 23.8133 15.6255 23.7194 15.7194C23.6255 15.8133 23.5139 15.8875 23.391 15.9378C23.2681 15.9881 23.1364 16.0134 23.0036 16.0123C22.8708 16.0111 22.7396 15.9835 22.6176 15.9311C22.4956 15.8787 22.3852 15.8025 22.293 15.707L20.5 13.914L18.707 15.707C18.5184 15.8892 18.2658 15.99 18.0036 15.9877C17.7414 15.9854 17.4906 15.8802 17.3052 15.6948C17.1198 15.5094 17.0146 15.2586 17.0123 14.9964C17.01 14.7342 17.1108 14.4816 17.293 14.293L19.086 12.5L17.293 10.707C17.1108 10.5184 17.01 10.2658 17.0123 10.0036C17.0146 9.74141 17.1198 9.49059 17.3052 9.30519C17.4906 9.11978 17.7414 9.01461 18.0036 9.01233C18.2658 9.01005 18.5184 9.11085 18.707 9.293L20.5 11.086L22.293 9.293C22.4816 9.11085 22.7342 9.01005 22.9964 9.01233C23.2586 9.01461 23.5094 9.11978 23.6948 9.30519C23.8802 9.49059 23.9854 9.74141 23.9877 10.0036C23.99 10.2658 23.8892 10.5184 23.707 10.707L21.914 12.5L23.707 14.293Z" fill="currentColor"/>
</g>
<defs>
<clipPath id="clip0_403_2800">
<rect width="24" height="24" fill="white"/>
</clipPath>
</defs>
</svg>
