<svg width="24" height="24" viewBox="0 0 24 24" fill="none" xmlns="http://www.w3.org/2000/svg">
<g clip-path="url(#clip0_403_3289)">
<path d="M21.9999 6H18.9999C18.7347 6 18.4804 6.10536 18.2928 6.29289C18.1053 6.48043 17.9999 6.73478 17.9999 7C17.9999 7.26522 18.1053 7.51957 18.2928 7.70711C18.4804 7.89464 18.7347 8 18.9999 8H20.5859L17.1859 11.4C16.2339 10.6841 15.1136 10.225 13.9329 10.067C13.7746 8.887 13.3156 7.76752 12.5999 6.816L15.9999 3.416V5C15.9999 5.26522 16.1053 5.51957 16.2928 5.70711C16.4804 5.89464 16.7347 6 16.9999 6C17.2652 6 17.5195 5.89464 17.7071 5.70711C17.8946 5.51957 17.9999 5.26522 17.9999 5V2C17.9999 1.46957 17.7892 0.960859 17.4142 0.585787C17.0391 0.210714 16.5304 0 15.9999 0L12.9999 0C12.7347 0 12.4804 0.105357 12.2928 0.292893C12.1053 0.48043 11.9999 0.734784 11.9999 1C11.9999 1.26522 12.1053 1.51957 12.2928 1.70711C12.4804 1.89464 12.7347 2 12.9999 2H14.5859L11.1859 5.4C10.3304 4.76013 9.33969 4.32478 8.28976 4.12736C7.23983 3.92994 6.15862 3.97571 5.12913 4.26115C4.09963 4.54658 3.14922 5.0641 2.35085 5.77398C1.55247 6.48386 0.927357 7.36722 0.523482 8.35627C0.119607 9.34532 -0.0522897 10.4138 0.0209861 11.4796C0.0942619 12.5454 0.410762 13.5802 0.946193 14.5047C1.48162 15.4292 2.22175 16.2187 3.10976 16.8126C3.99778 17.4066 5.01007 17.7891 6.06894 17.931C6.20683 18.9939 6.58695 20.0109 7.17999 20.9036C7.77303 21.7964 8.56316 22.5411 9.48945 23.0802C10.4158 23.6194 11.4535 23.9386 12.5227 24.0134C13.5918 24.0881 14.6639 23.9163 15.6562 23.5113C16.6485 23.1062 17.5345 22.4787 18.246 21.6772C18.9575 20.8756 19.4754 19.9213 19.7598 18.888C20.0442 17.8546 20.0875 16.7698 19.8865 15.717C19.6854 14.6643 19.2452 13.6718 18.5999 12.816L21.9999 9.416V11C21.9999 11.2652 22.1053 11.5196 22.2928 11.7071C22.4804 11.8946 22.7347 12 22.9999 12C23.2652 12 23.5195 11.8946 23.7071 11.7071C23.8946 11.5196 23.9999 11.2652 23.9999 11V8C23.9999 7.46957 23.7892 6.96086 23.4142 6.58579C23.0391 6.21071 22.5304 6 21.9999 6ZM1.99994 11C1.99994 10.0111 2.29318 9.0444 2.84259 8.22215C3.392 7.3999 4.17289 6.75904 5.08652 6.3806C6.00015 6.00216 7.00549 5.90315 7.97539 6.09607C8.9453 6.289 9.83621 6.7652 10.5355 7.46447C11.2347 8.16373 11.7109 9.05464 11.9039 10.0245C12.0968 10.9945 11.9978 11.9998 11.6193 12.9134C11.2409 13.827 10.6 14.6079 9.77779 15.1573C8.95555 15.7068 7.98885 16 6.99994 16C5.67435 15.9984 4.4035 15.4711 3.46616 14.5338C2.52882 13.5964 2.00153 12.3256 1.99994 11ZM12.9999 22C11.8326 21.9978 10.7028 21.5873 9.80641 20.8396C8.90999 20.0918 8.30346 19.054 8.09194 17.906C9.55015 17.6734 10.8975 16.9859 11.9417 15.9418C12.9858 14.8976 13.6733 13.5502 13.9059 12.092C15.1323 12.317 16.2302 12.9925 16.9838 13.9858C17.7374 14.979 18.0924 16.2182 17.9788 17.4599C17.8653 18.7015 17.2915 19.8558 16.3702 20.6959C15.4489 21.536 14.2468 22.0012 12.9999 22Z" fill="currentColor"/>
</g>
<defs>
<clipPath id="clip0_403_3289">
<rect width="24" height="24" fill="white"/>
</clipPath>
</defs>
</svg>
