<svg width="24" height="24" viewBox="0 0 24 24" fill="none" xmlns="http://www.w3.org/2000/svg">
<g clip-path="url(#clip0_403_2925)">
<path d="M12.9998 23.9992C11.409 23.9976 9.8838 23.3649 8.75893 22.24C7.63406 21.1152 7.00141 19.59 6.99982 17.9992C6.99982 16.4392 8.19982 13.9542 10.5518 10.6112C10.8311 10.2222 11.1989 9.90528 11.625 9.68668C12.051 9.46808 12.523 9.35406 13.0018 9.35406C13.4807 9.35406 13.9526 9.46808 14.3787 9.68668C14.8047 9.90528 15.1726 10.2222 15.4518 10.6112C17.8048 13.9542 18.9998 16.4392 18.9998 17.9992C18.9982 19.59 18.3656 21.1152 17.2407 22.24C16.1158 23.3649 14.5906 23.9976 12.9998 23.9992ZM12.9998 11.3422C12.8402 11.341 12.6827 11.3788 12.541 11.4523C12.3993 11.5259 12.2777 11.6329 12.1868 11.7642C9.31082 15.8432 8.99982 17.4832 8.99982 17.9992C8.99982 19.06 9.42124 20.0774 10.1714 20.8276C10.9215 21.5777 11.939 21.9992 12.9998 21.9992C14.0607 21.9992 15.0781 21.5777 15.8282 20.8276C16.5784 20.0774 16.9998 19.06 16.9998 17.9992C16.9998 17.4832 16.6888 15.8432 13.8128 11.7642C13.7219 11.6329 13.6003 11.5259 13.4587 11.4523C13.317 11.3788 13.1595 11.341 12.9998 11.3422Z" fill="currentColor"/>
<path d="M5 11.0009C3.67441 10.9993 2.40356 10.472 1.46622 9.53471C0.528882 8.59737 0.00158786 7.32653 0 6.00093C0 4.74093 0.842 3.14593 2.574 1.12393C2.87441 0.774682 3.24669 0.494412 3.66538 0.30228C4.08408 0.110147 4.53932 0.0106812 5 0.0106812C5.46068 0.0106812 5.91592 0.110147 6.33462 0.30228C6.75331 0.494412 7.12559 0.774682 7.426 1.12393C9.158 3.14393 10 4.73893 10 6.00093C9.99841 7.32653 9.47112 8.59737 8.53378 9.53471C7.59644 10.472 6.32559 10.9993 5 11.0009ZM5 2.00093C4.8273 2.00008 4.65655 2.03738 4.49994 2.11016C4.34333 2.18293 4.20471 2.28939 4.094 2.42193C2.151 4.68993 2 5.73293 2 6.00093C2 6.79658 2.31607 7.55964 2.87868 8.12225C3.44129 8.68486 4.20435 9.00093 5 9.00093C5.79565 9.00093 6.55871 8.68486 7.12132 8.12225C7.68393 7.55964 8 6.79658 8 6.00093C8 5.73493 7.849 4.69193 5.906 2.42493C5.79567 2.29174 5.6572 2.18463 5.50055 2.11132C5.3439 2.03801 5.17296 2.00031 5 2.00093Z" fill="currentColor"/>
<path d="M19.5 9.96319C18.3069 9.96186 17.1631 9.48733 16.3195 8.64371C15.4759 7.80008 15.0013 6.65625 15 5.46319C15 4.37219 15.7 2.95719 17.146 1.13719C17.429 0.785045 17.7874 0.500883 18.1948 0.305637C18.6022 0.11039 19.0482 0.0090332 19.5 0.0090332C19.9518 0.0090332 20.3978 0.11039 20.8052 0.305637C21.2126 0.500883 21.571 0.785045 21.854 1.13719C23.3 2.95719 24 4.37219 24 5.46319C23.9987 6.65625 23.5241 7.80008 22.6805 8.64371C21.8369 9.48733 20.6931 9.96186 19.5 9.96319ZM19.5 1.99919C19.3485 1.99894 19.199 2.03311 19.0627 2.09911C18.9263 2.16511 18.8068 2.26122 18.713 2.38019C17.123 4.38419 17 5.24619 17 5.46319C17 6.12623 17.2634 6.76211 17.7322 7.23095C18.2011 7.69979 18.837 7.96319 19.5 7.96319C20.163 7.96319 20.7989 7.69979 21.2678 7.23095C21.7366 6.76211 22 6.12623 22 5.46319C22 5.24619 21.877 4.38419 20.287 2.38119C20.1933 2.26204 20.0738 2.16574 19.9375 2.09956C19.8011 2.03339 19.6516 1.99906 19.5 1.99919Z" fill="currentColor"/>
</g>
<defs>
<clipPath id="clip0_403_2925">
<rect width="24" height="24" fill="white"/>
</clipPath>
</defs>
</svg>
