<svg width="24" height="24" viewBox="0 0 24 24" fill="none" xmlns="http://www.w3.org/2000/svg">
<g clip-path="url(#clip0_403_2967)">
<path d="M17.0002 24H7.00515C6.42676 23.9994 5.85531 23.8741 5.3298 23.6325C4.80429 23.3908 4.33711 23.0387 3.96015 22.6C3.58932 22.1705 3.31553 21.666 3.15745 21.121C2.99937 20.576 2.96072 20.0033 3.04415 19.442C3.58065 16.5173 5.14078 13.8792 7.44515 12C5.14075 10.1202 3.58094 7.48124 3.04515 4.556C2.96189 3.99509 3.00052 3.42283 3.15842 2.8782C3.31632 2.33357 3.58978 1.82939 3.96015 1.4C4.33711 0.961326 4.80429 0.60916 5.3298 0.367548C5.85531 0.125935 6.42676 0.000566288 7.00515 0L17.0002 0C17.5784 0.000512143 18.1497 0.125862 18.6751 0.367483C19.2004 0.609104 19.6674 0.9613 20.0442 1.4C20.415 1.82895 20.689 2.33285 20.8475 2.87732C21.0059 3.42179 21.045 3.99403 20.9622 4.555C20.4205 7.48095 18.8572 10.1194 16.5512 12C18.8559 13.8822 20.4174 16.5217 20.9572 19.448C21.0401 20.0091 21.001 20.5815 20.8426 21.1262C20.6842 21.6708 20.4101 22.1749 20.0392 22.604C19.6626 23.0413 19.1963 23.3924 18.6718 23.6333C18.1474 23.8742 17.5773 23.9993 17.0002 24ZM17.0002 2H7.00515C6.71507 1.99976 6.42836 2.06218 6.16464 2.18299C5.90092 2.30381 5.66641 2.48016 5.47715 2.7C5.29225 2.91037 5.15568 3.15871 5.07707 3.42754C4.99847 3.69636 4.97972 3.97915 5.02215 4.256C5.39715 6.756 6.94415 9.096 9.62215 11.213C9.74039 11.3066 9.83593 11.4258 9.9016 11.5615C9.96728 11.6973 10.0014 11.8462 10.0014 11.997C10.0014 12.1478 9.96728 12.2967 9.9016 12.4325C9.83593 12.5682 9.74039 12.6874 9.62215 12.781C6.94415 14.9 5.40015 17.242 5.02215 19.741C4.97926 20.0183 4.99778 20.3017 5.0764 20.5711C5.15502 20.8404 5.29183 21.0893 5.47715 21.3C5.66641 21.5198 5.90092 21.6962 6.16464 21.817C6.42836 21.9378 6.71507 22.0002 7.00515 22H17.0002C17.2902 22.0002 17.5769 21.9378 17.8407 21.817C18.1044 21.6962 18.3389 21.5198 18.5282 21.3C18.713 21.0899 18.8495 20.842 18.9283 20.5735C19.0071 20.3051 19.0261 20.0226 18.9842 19.746C18.6112 17.259 17.0642 14.917 14.3842 12.784C14.2666 12.6903 14.1717 12.5714 14.1065 12.436C14.0413 12.3006 14.0074 12.1523 14.0074 12.002C14.0074 11.8517 14.0413 11.7034 14.1065 11.568C14.1717 11.4326 14.2666 11.3137 14.3842 11.22C17.0652 9.087 18.6122 6.745 18.9842 4.257C19.026 3.97955 19.0064 3.69629 18.9268 3.42725C18.8471 3.1582 18.7093 2.90994 18.5232 2.7C18.3344 2.4808 18.1007 2.30482 17.8379 2.18403C17.5751 2.06324 17.2894 2.00047 17.0002 2Z" fill="currentColor"/>
</g>
<defs>
<clipPath id="clip0_403_2967">
<rect width="24" height="24" fill="white"/>
</clipPath>
</defs>
</svg>
