<svg width="24" height="24" viewBox="0 0 24 24" fill="none" xmlns="http://www.w3.org/2000/svg">
<g clip-path="url(#clip0_403_2793)">
<path d="M12 0C9.62663 0 7.30655 0.703788 5.33316 2.02236C3.35977 3.34094 1.8217 5.21509 0.913451 7.4078C0.00519943 9.60051 -0.232441 12.0133 0.230582 14.3411C0.693605 16.6689 1.83649 18.8071 3.51472 20.4853C5.19295 22.1635 7.33115 23.3064 9.65892 23.7694C11.9867 24.2324 14.3995 23.9948 16.5922 23.0866C18.7849 22.1783 20.6591 20.6402 21.9776 18.6668C23.2962 16.6935 24 14.3734 24 12C23.9966 8.81846 22.7312 5.76821 20.4815 3.51852C18.2318 1.26883 15.1815 0.00344108 12 0V0ZM22 12C22.0012 13.9597 21.423 15.876 20.338 17.508L19.146 16.315C19.0525 16.2213 19 16.0944 19 15.962V15C19 14.2044 18.6839 13.4413 18.1213 12.8787C17.5587 12.3161 16.7957 12 16 12H13C12.7348 12 12.4804 11.8946 12.2929 11.7071C12.1054 11.5196 12 11.2652 12 11V10.5C12 10.3674 12.0527 10.2402 12.1465 10.1464C12.2402 10.0527 12.3674 10 12.5 10C13.163 10 13.7989 9.73661 14.2678 9.26777C14.7366 8.79893 15 8.16304 15 7.5V6.5C15 6.36739 15.0527 6.24022 15.1465 6.14645C15.2402 6.05268 15.3674 6 15.5 6H16.879C17.5414 5.99812 18.1763 5.73509 18.646 5.268L19.023 4.891C19.9662 5.81908 20.7152 6.92564 21.2263 8.14617C21.7374 9.3667 22.0004 10.6768 22 12ZM2.04901 12.963L5.20701 16.121C5.48491 16.4007 5.81559 16.6224 6.17985 16.7733C6.54412 16.9242 6.93472 17.0013 7.32901 17H10C10.2652 17 10.5196 17.1054 10.7071 17.2929C10.8946 17.4804 11 17.7348 11 18V21.949C8.7002 21.7142 6.5524 20.6912 4.92093 19.0533C3.28947 17.4155 2.27479 15.2637 2.04901 12.963ZM13 21.949V18C13 17.2044 12.6839 16.4413 12.1213 15.8787C11.5587 15.3161 10.7957 15 10 15H7.32901C7.19753 15.0001 7.06732 14.9743 6.94583 14.924C6.82434 14.8737 6.71396 14.8 6.62101 14.707L2.16301 10.249C2.44918 8.6222 3.13474 7.09189 4.15818 5.79538C5.18162 4.49887 6.51091 3.47671 8.0268 2.82061C9.54269 2.16452 11.1977 1.89502 12.8435 2.03628C14.4892 2.17755 16.0741 2.72517 17.456 3.63L17.232 3.854C17.1379 3.94683 17.0112 3.99922 16.879 4H15.5C14.837 4 14.2011 4.26339 13.7322 4.73223C13.2634 5.20107 13 5.83696 13 6.5V7.5C13 7.63261 12.9473 7.75979 12.8536 7.85355C12.7598 7.94732 12.6326 8 12.5 8C11.837 8 11.2011 8.26339 10.7322 8.73223C10.2634 9.20108 10 9.83696 10 10.5V11C10 11.7957 10.3161 12.5587 10.8787 13.1213C11.4413 13.6839 12.2044 14 13 14H16C16.2652 14 16.5196 14.1054 16.7071 14.2929C16.8946 14.4804 17 14.7348 17 15V15.962C17.0019 16.6244 17.2649 17.2593 17.732 17.729L19.069 19.066C17.4405 20.7002 15.2956 21.7191 13 21.949Z" fill="currentColor"/>
</g>
<defs>
<clipPath id="clip0_403_2793">
<rect width="24" height="24" fill="white"/>
</clipPath>
</defs>
</svg>
