<svg width="24" height="24" viewBox="0 0 24 24" fill="none" xmlns="http://www.w3.org/2000/svg">
<g clip-path="url(#clip0_403_2879)">
<path d="M12.0034 -0.00219727C5.36579 -0.00219727 -0.0151367 5.37872 -0.0151367 12.0164C-0.0151367 18.654 5.36579 24.0349 12.0034 24.0349C18.6411 24.0349 24.0219 18.654 24.0219 12.0164C24.0219 5.37872 18.6411 -0.00219727 12.0034 -0.00219727ZM21.9431 10.942L21.9381 10.938C20.0023 10.7372 18.168 9.97219 16.6631 8.73802L19.7331 5.66804C20.97 7.17193 21.7383 9.00563 21.9431 10.942ZM18.3151 4.25302L15.2491 7.32802C14.0146 5.82338 13.2495 3.98902 13.0492 2.05304C14.9816 2.25647 16.8123 3.02124 18.3151 4.25302ZM11.0531 2.04802C11.2626 4.51674 12.2352 6.85908 13.8361 8.75002L12.0001 10.586L5.67614 4.26202C7.20821 3.00535 9.08044 2.23449 11.0531 2.04802ZM4.26169 5.67657L4.25714 5.67202L4.26216 5.67601C4.26197 5.67619 4.26183 5.67638 4.26169 5.67657L10.5862 12L8.74918 13.837C6.85936 12.2354 4.51754 11.2623 2.04919 11.053C2.23529 9.08063 3.00568 7.20863 4.26169 5.67657ZM2.05716 13.058V13.054C3.99314 13.2544 5.8275 14.0194 7.33214 15.254L4.26216 18.324C3.0286 16.8217 2.26205 14.991 2.05716 13.058ZM5.68013 19.738L8.74613 16.668C9.98072 18.1726 10.7458 20.007 10.9461 21.943C9.01313 21.7381 7.18243 20.9716 5.68013 19.738ZM12.9472 21.952C12.7381 19.4833 11.7649 17.1411 10.1632 15.251L12.0001 13.414L18.3241 19.738C16.7923 20.9951 14.92 21.766 12.9472 21.952ZM19.7362 18.324L13.4141 12L15.2501 10.164C17.1405 11.7646 19.4821 12.7372 21.9501 12.947C21.7637 14.9197 20.9928 16.7919 19.7362 18.324Z" fill="currentColor"/>
</g>
<defs>
<clipPath id="clip0_403_2879">
<rect width="24" height="24" fill="white"/>
</clipPath>
</defs>
</svg>
