<svg width="24" height="24" viewBox="0 0 24 24" fill="none" xmlns="http://www.w3.org/2000/svg">
<g clip-path="url(#clip0_403_2844)">
<path d="M16 0H8C6.67441 0.00158786 5.40356 0.528882 4.46622 1.46622C3.52888 2.40356 3.00159 3.67441 3 5V19C3.00159 20.3256 3.52888 21.5964 4.46622 22.5338C5.40356 23.4711 6.67441 23.9984 8 24H16C17.3256 23.9984 18.5964 23.4711 19.5338 22.5338C20.4711 21.5964 20.9984 20.3256 21 19V5C20.9984 3.67441 20.4711 2.40356 19.5338 1.46622C18.5964 0.528882 17.3256 0.00158786 16 0V0ZM19 19C19 19.7956 18.6839 20.5587 18.1213 21.1213C17.5587 21.6839 16.7956 22 16 22H8C7.20435 22 6.44129 21.6839 5.87868 21.1213C5.31607 20.5587 5 19.7956 5 19V5C5 4.20435 5.31607 3.44129 5.87868 2.87868C6.44129 2.31607 7.20435 2 8 2H16C16.7956 2 17.5587 2.31607 18.1213 2.87868C18.6839 3.44129 19 4.20435 19 5V19Z" fill="currentColor"/>
<path d="M12 7.5C12.8284 7.5 13.5 6.82843 13.5 6C13.5 5.17157 12.8284 4.5 12 4.5C11.1716 4.5 10.5 5.17157 10.5 6C10.5 6.82843 11.1716 7.5 12 7.5Z" fill="currentColor"/>
<path d="M11.9998 9.99939C11.0109 9.99939 10.0442 10.2926 9.22197 10.842C8.39972 11.3914 7.75886 12.1723 7.38042 13.086C7.00198 13.9996 6.90297 15.0049 7.09589 15.9748C7.28882 16.9447 7.76502 17.8357 8.46429 18.5349C9.16355 19.2342 10.0545 19.7104 11.0244 19.9033C11.9943 20.0962 12.9996 19.9972 13.9132 19.6188C14.8269 19.2404 15.6078 18.5995 16.1572 17.7772C16.7066 16.955 16.9998 15.9883 16.9998 14.9994C16.9982 13.6738 16.4709 12.4029 15.5336 11.4656C14.5963 10.5283 13.3254 10.001 11.9998 9.99939ZM11.9998 17.9994C11.4065 17.9994 10.8265 17.8234 10.3331 17.4938C9.83976 17.1642 9.45524 16.6956 9.22818 16.1474C9.00112 15.5993 8.94171 14.9961 9.05746 14.4141C9.17322 13.8322 9.45894 13.2976 9.8785 12.8781C10.2981 12.4585 10.8326 12.1728 11.4145 12.057C11.9965 11.9413 12.5997 12.0007 13.1479 12.2278C13.696 12.4548 14.1646 12.8393 14.4942 13.3327C14.8239 13.826 14.9998 14.406 14.9998 14.9994C14.9998 15.795 14.6837 16.5581 14.1211 17.1207C13.5585 17.6833 12.7955 17.9994 11.9998 17.9994Z" fill="currentColor"/>
<path d="M12.0002 16.0006C12.5525 16.0006 13.0002 15.5529 13.0002 15.0006C13.0002 14.4483 12.5525 14.0006 12.0002 14.0006C11.4479 14.0006 11.0002 14.4483 11.0002 15.0006C11.0002 15.5529 11.4479 16.0006 12.0002 16.0006Z" fill="currentColor"/>
</g>
<defs>
<clipPath id="clip0_403_2844">
<rect width="24" height="24" fill="white"/>
</clipPath>
</defs>
</svg>
