<svg width="24" height="24" viewBox="0 0 24 24" fill="none" xmlns="http://www.w3.org/2000/svg">
<g clip-path="url(#clip0_403_3282)">
<path d="M19.0001 0H14.0001C13.7349 0 13.4805 0.105357 13.293 0.292893C13.1054 0.48043 13.0001 0.734784 13.0001 1C13.0001 1.26522 13.1054 1.51957 13.293 1.70711C13.4805 1.89464 13.7349 2 14.0001 2H19.0001C19.4456 2.00172 19.8849 2.10429 20.2851 2.3L0.293081 22.293C0.197571 22.3852 0.121389 22.4956 0.0689798 22.6176C0.0165708 22.7396 -0.0110155 22.8708 -0.0121693 23.0036C-0.0133231 23.1364 0.0119786 23.2681 0.0622595 23.391C0.11254 23.5139 0.186794 23.6255 0.280686 23.7194C0.374579 23.8133 0.486231 23.8875 0.609127 23.9378C0.732024 23.9881 0.863703 24.0134 0.996482 24.0123C1.12926 24.0111 1.26048 23.9835 1.38249 23.9311C1.50449 23.8787 1.61483 23.8025 1.70708 23.707L21.7001 3.715C21.8958 4.1152 21.9984 4.55451 22.0001 5V10C22.0001 10.2652 22.1054 10.5196 22.293 10.7071C22.4805 10.8946 22.7349 11 23.0001 11C23.2653 11 23.5197 10.8946 23.7072 10.7071C23.8947 10.5196 24.0001 10.2652 24.0001 10V5C23.9985 3.67441 23.4712 2.40356 22.5339 1.46622C21.5965 0.528882 20.3257 0.00158786 19.0001 0V0Z" fill="currentColor"/>
<path d="M5.99988 10.0001C6.791 10.0001 7.56436 9.76553 8.22216 9.326C8.87996 8.88648 9.39265 8.26176 9.6954 7.53086C9.99815 6.79995 10.0774 5.99569 9.92302 5.21976C9.76868 4.44384 9.38772 3.73111 8.82831 3.1717C8.2689 2.61229 7.55616 2.23132 6.78024 2.07698C6.00431 1.92264 5.20005 2.00186 4.46914 2.30461C3.73824 2.60736 3.11353 3.12005 2.674 3.77784C2.23447 4.43564 1.99988 5.209 1.99988 6.00012C1.99988 7.06099 2.42131 8.07841 3.17145 8.82855C3.9216 9.5787 4.93901 10.0001 5.99988 10.0001ZM5.99988 4.00012C6.39544 4.00012 6.78212 4.11742 7.11102 4.33718C7.43992 4.55695 7.69626 4.8693 7.84764 5.23476C7.99901 5.60021 8.03862 6.00234 7.96145 6.3903C7.88428 6.77827 7.6938 7.13463 7.41409 7.41434C7.13439 7.69404 6.77802 7.88452 6.39006 7.96169C6.0021 8.03887 5.59996 7.99926 5.23451 7.84788C4.86906 7.69651 4.5567 7.44016 4.33694 7.11126C4.11718 6.78237 3.99988 6.39569 3.99988 6.00012C3.99988 5.46969 4.21059 4.96098 4.58566 4.58591C4.96074 4.21084 5.46944 4.00012 5.99988 4.00012Z" fill="currentColor"/>
<path d="M18.0001 14.0001C17.209 14.0001 16.4356 14.2347 15.7778 14.6742C15.12 15.1138 14.6074 15.7385 14.3046 16.4694C14.0019 17.2003 13.9226 18.0046 14.077 18.7805C14.2313 19.5564 14.6123 20.2691 15.1717 20.8285C15.7311 21.388 16.4438 21.7689 17.2198 21.9233C17.9957 22.0776 18.8 21.9984 19.5309 21.6956C20.2618 21.3929 20.8865 20.8802 21.326 20.2224C21.7655 19.5646 22.0001 18.7912 22.0001 18.0001C22.0001 16.9393 21.5787 15.9218 20.8286 15.1717C20.0784 14.4215 19.061 14.0001 18.0001 14.0001ZM18.0001 20.0001C17.6046 20.0001 17.2179 19.8828 16.889 19.6631C16.5601 19.4433 16.3037 19.1309 16.1524 18.7655C16.001 18.4 15.9614 17.9979 16.0386 17.6099C16.1157 17.222 16.3062 16.8656 16.5859 16.5859C16.8656 16.3062 17.222 16.1157 17.6099 16.0386C17.9979 15.9614 18.4 16.001 18.7655 16.1524C19.1309 16.3037 19.4433 16.5601 19.6631 16.889C19.8828 17.2179 20.0001 17.6046 20.0001 18.0001C20.0001 18.5306 19.7894 19.0393 19.4143 19.4143C19.0393 19.7894 18.5306 20.0001 18.0001 20.0001Z" fill="currentColor"/>
</g>
<defs>
<clipPath id="clip0_403_3282">
<rect width="24" height="24" fill="white"/>
</clipPath>
</defs>
</svg>
