<svg width="24" height="24" viewBox="0 0 24 24" fill="none" xmlns="http://www.w3.org/2000/svg">
<g clip-path="url(#clip0_403_3080)">
<path d="M11.1071 14.4471C11.1652 14.5656 11.2462 14.6715 11.3453 14.7586C11.4445 14.8456 11.5599 14.9122 11.685 14.9545C11.81 14.9967 11.9422 15.0138 12.0738 15.0047C12.2055 14.9957 12.3341 14.9606 12.4521 14.9016C12.5702 14.8426 12.6754 14.7608 12.7617 14.661C12.848 14.5611 12.9137 14.4452 12.9549 14.3198C12.9962 14.1945 13.0123 14.0622 13.0022 13.9306C12.9921 13.799 12.956 13.6707 12.8961 13.5531L7.39612 2.55312C7.31308 2.38697 7.18541 2.24724 7.02742 2.14958C6.86943 2.05191 6.68736 2.00018 6.50162 2.00018C6.31588 2.00018 6.13381 2.05191 5.97582 2.14958C5.81783 2.24724 5.69016 2.38697 5.60712 2.55312L0.107123 13.5531C0.0472084 13.6707 0.0111643 13.799 0.0010686 13.9306C-0.00902715 14.0622 0.00702513 14.1945 0.0482999 14.3198C0.0895747 14.4452 0.155256 14.5611 0.241555 14.661C0.327855 14.7608 0.433067 14.8426 0.551125 14.9016C0.669183 14.9606 0.797751 14.9957 0.929416 15.0047C1.06108 15.0138 1.19324 14.9967 1.31827 14.9545C1.44331 14.9122 1.55874 14.8456 1.65791 14.7586C1.75709 14.6715 1.83805 14.5656 1.89612 14.4471L3.61912 11.0001H9.38312L11.1071 14.4471ZM4.61912 9.00012L6.50012 5.23612L8.38312 9.00012H4.61912Z" fill="currentColor"/>
<path d="M23.7069 11.2924C23.5194 11.1049 23.2651 10.9996 22.9999 10.9996C22.7347 10.9996 22.4804 11.1049 22.2929 11.2924L12.9999 20.5853L8.7069 16.2924C8.61465 16.1968 8.50431 16.1207 8.3823 16.0683C8.2603 16.0158 8.12908 15.9883 7.9963 15.9871C7.86352 15.9859 7.73184 16.0112 7.60894 16.0615C7.48605 16.1118 7.3744 16.1861 7.2805 16.28C7.18661 16.3739 7.11236 16.4855 7.06208 16.6084C7.0118 16.7313 6.98649 16.863 6.98765 16.9958C6.9888 17.1285 7.01639 17.2598 7.0688 17.3818C7.12121 17.5038 7.19739 17.6141 7.2929 17.7064L12.2929 22.7063C12.4804 22.8938 12.7347 22.9991 12.9999 22.9991C13.2651 22.9991 13.5194 22.8938 13.7069 22.7063L23.7069 12.7064C23.8944 12.5188 23.9997 12.2645 23.9997 11.9994C23.9997 11.7342 23.8944 11.4799 23.7069 11.2924Z" fill="currentColor"/>
</g>
<defs>
<clipPath id="clip0_403_3080">
<rect width="24" height="24" fill="white"/>
</clipPath>
</defs>
</svg>
