<svg width="24" height="24" viewBox="0 0 24 24" fill="none" xmlns="http://www.w3.org/2000/svg">
<g clip-path="url(#clip0_403_3107)">
<path d="M22.2932 12.7001L21.2072 13.7861L17.6222 10.2001C17.0506 9.65488 16.2911 9.35072 15.5012 9.35072C14.7113 9.35072 13.9518 9.65488 13.3802 10.2001L13.2072 10.3731C13.0168 10.5551 12.7636 10.6567 12.5002 10.6567C12.2368 10.6567 11.9836 10.5551 11.7932 10.3731L6.7202 5.29406C6.62796 5.19855 6.51761 5.12237 6.39561 5.06996C6.2736 5.01755 6.14238 4.98996 6.00961 4.98881C5.87683 4.98765 5.74515 5.01296 5.62225 5.06324C5.49935 5.11352 5.3877 5.18777 5.29381 5.28166C5.19992 5.37556 5.12566 5.48721 5.07538 5.6101C5.0251 5.733 4.9998 5.86468 5.00095 5.99746C5.00211 6.13024 5.02969 6.26146 5.0821 6.38346C5.13451 6.50547 5.21069 6.61581 5.3062 6.70806L10.3782 11.7811C10.9497 12.3265 11.7092 12.6308 12.4992 12.6308C13.2892 12.6308 14.0488 12.3265 14.6202 11.7811L14.7932 11.6081C14.9836 11.426 15.2368 11.3244 15.5002 11.3244C15.7636 11.3244 16.0168 11.426 16.2072 11.6081L19.7932 15.2001L18.7072 16.2861C18.5674 16.4259 18.4722 16.6041 18.4336 16.798C18.3951 16.992 18.4149 17.193 18.4905 17.3757C18.5662 17.5584 18.6943 17.7146 18.8587 17.8245C19.0232 17.9343 19.2165 17.993 19.4142 17.9931H22.5002C22.898 17.9931 23.2796 17.835 23.5609 17.5537C23.8422 17.2724 24.0002 16.8909 24.0002 16.4931V13.4001C23.9988 13.2029 23.9391 13.0106 23.8287 12.8472C23.7183 12.6839 23.5621 12.5568 23.3796 12.482C23.1972 12.4072 22.9968 12.388 22.8035 12.4268C22.6102 12.4656 22.4326 12.5607 22.2932 12.7001Z" fill="currentColor"/>
<path d="M23 21.976H5C4.20435 21.976 3.44129 21.6599 2.87868 21.0973C2.31607 20.5347 2 19.7716 2 18.976V1C2 0.734784 1.89464 0.48043 1.70711 0.292893C1.51957 0.105357 1.26522 0 1 0C0.734784 0 0.48043 0.105357 0.292893 0.292893C0.105357 0.48043 0 0.734784 0 1L0 18.976C0.00158786 20.3016 0.528882 21.5724 1.46622 22.5098C2.40356 23.4471 3.67441 23.9744 5 23.976H23C23.2652 23.976 23.5196 23.8706 23.7071 23.6831C23.8946 23.4956 24 23.2412 24 22.976C24 22.7108 23.8946 22.4564 23.7071 22.2689C23.5196 22.0814 23.2652 21.976 23 21.976Z" fill="currentColor"/>
</g>
<defs>
<clipPath id="clip0_403_3107">
<rect width="24" height="24" fill="white"/>
</clipPath>
</defs>
</svg>
