<svg width="24" height="24" viewBox="0 0 24 24" fill="none" xmlns="http://www.w3.org/2000/svg">
<g clip-path="url(#clip0_403_3018)">
<path d="M12 0C9.62663 0 7.30655 0.703788 5.33316 2.02236C3.35977 3.34094 1.8217 5.21509 0.913451 7.4078C0.00519943 9.60051 -0.232441 12.0133 0.230582 14.3411C0.693605 16.6689 1.83649 18.8071 3.51472 20.4853C5.19295 22.1635 7.33115 23.3064 9.65892 23.7694C11.9867 24.2324 14.3995 23.9948 16.5922 23.0866C18.7849 22.1783 20.6591 20.6402 21.9776 18.6668C23.2962 16.6935 24 14.3734 24 12C23.9966 8.81846 22.7312 5.76821 20.4815 3.51852C18.2318 1.26883 15.1815 0.00344108 12 0V0ZM12 22C10.0222 22 8.08879 21.4135 6.4443 20.3147C4.79981 19.2159 3.51809 17.6541 2.76121 15.8268C2.00433 13.9996 1.8063 11.9889 2.19215 10.0491C2.578 8.10929 3.53041 6.32746 4.92894 4.92893C6.32746 3.53041 8.10929 2.578 10.0491 2.19215C11.9889 1.8063 13.9996 2.00433 15.8268 2.7612C17.6541 3.51808 19.2159 4.79981 20.3147 6.4443C21.4135 8.08879 22 10.0222 22 12C21.9971 14.6513 20.9426 17.1931 19.0679 19.0679C17.1931 20.9426 14.6513 21.9971 12 22Z" fill="currentColor"/>
<path d="M15.5362 8.46413C15.7248 8.64628 15.9774 8.74708 16.2396 8.7448C16.5018 8.74252 16.7526 8.63735 16.938 8.45194C17.1234 8.26654 17.2286 8.01572 17.2308 7.75353C17.2331 7.49133 17.1323 7.23873 16.9502 7.05013C15.9712 6.07123 14.7239 5.40461 13.366 5.13458C12.0082 4.86454 10.6008 5.0032 9.32172 5.53304C8.04268 6.06287 6.94947 6.96008 6.18033 8.11121C5.4112 9.26234 5.00067 10.6157 5.00067 12.0001C5.00067 13.3846 5.4112 14.7379 6.18033 15.889C6.94947 17.0402 8.04268 17.9374 9.32172 18.4672C10.6008 18.997 12.0082 19.1357 13.366 18.8657C14.7239 18.5956 15.9712 17.929 16.9502 16.9501C17.1323 16.7615 17.2331 16.5089 17.2308 16.2467C17.2286 15.9845 17.1234 15.7337 16.938 15.5483C16.7526 15.3629 16.5018 15.2577 16.2396 15.2555C15.9774 15.2532 15.7248 15.354 15.5362 15.5361C14.8369 16.2353 13.9459 16.7113 12.9761 16.9041C12.0062 17.097 11.0009 16.9979 10.0874 16.6194C9.17382 16.2409 8.39301 15.6001 7.84366 14.7778C7.29431 13.9556 7.0011 12.989 7.0011 12.0001C7.0011 11.0113 7.29431 10.0446 7.84366 9.22241C8.39301 8.40019 9.17382 7.75933 10.0874 7.38085C11.0009 7.00238 12.0062 6.90328 12.9761 7.0961C13.9459 7.28892 14.8369 7.76499 15.5362 8.46413Z" fill="currentColor"/>
</g>
<defs>
<clipPath id="clip0_403_3018">
<rect width="24" height="24" fill="white"/>
</clipPath>
</defs>
</svg>
