<svg width="24" height="24" viewBox="0 0 24 24" fill="none" xmlns="http://www.w3.org/2000/svg">
<g clip-path="url(#clip0_403_3187)">
<path d="M22.9999 16.6527L20.6599 14.8527C20.0824 14.303 19.3154 13.9969 18.5182 13.9981C17.7209 13.9992 16.9548 14.3074 16.3789 14.8587L14.9099 16.0267C13.3541 15.3827 11.9408 14.4376 10.7514 13.2458C9.56195 12.0539 8.61973 10.6388 7.97889 9.08168L9.13689 7.62568C9.6886 7.04985 9.99718 6.28356 9.99849 5.48608C9.99979 4.68861 9.69372 3.92131 9.14389 3.34368L7.34589 0.999679C7.31948 0.964469 7.29075 0.931061 7.25989 0.899679C6.68881 0.325864 5.91482 -0.000123644 5.10529 -0.00779602C4.29576 -0.0154684 3.51574 0.295791 2.93389 0.858679L1.78389 1.85868C-5.93511 10.0687 13.9839 30.0037 22.1839 22.1587L23.0939 21.1097C23.6734 20.5286 23.9988 19.7414 23.9988 18.9207C23.9988 18.1 23.6734 17.3128 23.0939 16.7317C23.064 16.7037 23.0326 16.6773 22.9999 16.6527ZM21.6359 19.7527L20.7249 20.8027C14.7879 26.4177 -2.50011 10.1137 3.14689 3.32468L4.29689 2.32468C4.49603 2.12664 4.76338 2.01228 5.04413 2.00503C5.32489 1.99777 5.59779 2.09819 5.80689 2.28568L7.59289 4.60868C7.61907 4.64407 7.64781 4.67749 7.67889 4.70868C7.88315 4.91469 7.99777 5.19306 7.99777 5.48318C7.99777 5.77329 7.88315 6.05166 7.67889 6.25768C7.65075 6.28321 7.62435 6.31061 7.59989 6.33968L6.04389 8.29968C5.9331 8.43847 5.86127 8.60427 5.83579 8.78002C5.81031 8.95577 5.83208 9.13513 5.89889 9.29968C6.65203 11.3148 7.82956 13.1444 9.35166 14.6646C10.8738 16.1848 12.7049 17.36 14.7209 18.1107C14.8832 18.1726 15.0589 18.1911 15.2305 18.1644C15.4022 18.1378 15.564 18.0669 15.6999 17.9587L17.6599 16.3997C17.6893 16.376 17.7174 16.3506 17.7439 16.3237C17.8552 16.2163 17.9874 16.1329 18.1323 16.0787C18.2771 16.0246 18.4316 16.0008 18.5861 16.0088C18.7405 16.0169 18.8917 16.0566 19.0301 16.1256C19.1686 16.1946 19.2914 16.2913 19.3909 16.4097L21.7169 18.1967C21.9076 18.4165 22.0053 18.7018 21.9895 18.9924C21.9736 19.2829 21.8454 19.5559 21.6319 19.7537L21.6359 19.7527ZM23.7069 6.29268C23.889 6.48128 23.9898 6.73388 23.9876 6.99608C23.9853 7.25828 23.8801 7.50909 23.6947 7.6945C23.5093 7.87991 23.2585 7.98507 22.9963 7.98735C22.7341 7.98963 22.4815 7.88884 22.2929 7.70668L19.9999 5.41368L17.7069 7.70668C17.5183 7.88884 17.2657 7.98963 17.0035 7.98735C16.7413 7.98507 16.4905 7.87991 16.3051 7.6945C16.1197 7.50909 16.0145 7.25828 16.0122 6.99608C16.0099 6.73388 16.1107 6.48128 16.2929 6.29268L18.5859 3.99968L16.2929 1.70668C16.1107 1.51808 16.0099 1.26547 16.0122 1.00328C16.0145 0.741081 16.1197 0.490268 16.3051 0.30486C16.4905 0.119452 16.7413 0.0142832 17.0035 0.0120047C17.2657 0.00972632 17.5183 0.110521 17.7069 0.292679L19.9999 2.58568L22.2929 0.292679C22.4815 0.110521 22.7341 0.00972632 22.9963 0.0120047C23.2585 0.0142832 23.5093 0.119452 23.6947 0.30486C23.8801 0.490268 23.9853 0.741081 23.9876 1.00328C23.9898 1.26547 23.889 1.51808 23.7069 1.70668L21.4139 3.99968L23.7069 6.29268Z" fill="currentColor"/>
</g>
<defs>
<clipPath id="clip0_403_3187">
<rect width="24" height="24" fill="white"/>
</clipPath>
</defs>
</svg>
