<svg width="24" height="24" viewBox="0 0 24 24" fill="none" xmlns="http://www.w3.org/2000/svg">
<g clip-path="url(#clip0_403_2979)">
<path d="M19.7999 4.41922C18.6275 2.83062 17.0457 1.59028 15.2233 0.830647C13.401 0.0710174 11.4065 -0.179372 9.4529 0.106217C7.55274 0.376367 5.75634 1.13898 4.24215 2.31829C2.72795 3.4976 1.54867 5.05257 0.821445 6.82872C0.0942225 8.60487 -0.155627 10.5404 0.0967171 12.443C0.349061 14.3456 1.09482 16.149 2.2599 17.6742C2.75596 18.3579 3.01574 19.1847 2.9999 20.0292V21.0002C2.9999 21.7959 3.31597 22.5589 3.87858 23.1215C4.44119 23.6841 5.20425 24.0002 5.9999 24.0002H12.9999C13.7955 24.0002 14.5586 23.6841 15.1212 23.1215C15.6838 22.5589 15.9999 21.7959 15.9999 21.0002H16.4939C17.7057 20.9973 18.8755 20.5556 19.7868 19.7568C20.698 18.958 21.2892 17.8562 21.4509 16.6552L21.6699 15.0002H21.9999C22.2641 15.0058 22.5266 14.9579 22.7718 14.8594C23.017 14.7608 23.2397 14.6137 23.4266 14.4269C23.6134 14.24 23.7605 14.0173 23.859 13.7721C23.9576 13.527 24.0055 13.2644 23.9999 13.0002C23.9999 11.5802 21.0679 5.98522 19.7999 4.41922ZM20.7929 13.0002C20.5504 13.0003 20.3163 13.0885 20.134 13.2483C19.9517 13.4082 19.8337 13.6288 19.8019 13.8692L19.4679 16.3942C19.3708 17.1146 19.016 17.7755 18.4693 18.2546C17.9225 18.7336 17.2208 18.9985 16.4939 19.0002H14.9999C14.7347 19.0002 14.4803 19.1056 14.2928 19.2931C14.1053 19.4806 13.9999 19.735 13.9999 20.0002V21.0002C13.9999 21.2654 13.8945 21.5198 13.707 21.7073C13.5195 21.8949 13.2651 22.0002 12.9999 22.0002H5.9999C5.73468 22.0002 5.48033 21.8949 5.29279 21.7073C5.10525 21.5198 4.9999 21.2654 4.9999 21.0002V20.0292C5.01501 18.7454 4.6109 17.4916 3.8489 16.4582C2.89676 15.211 2.28725 13.7365 2.08083 12.181C1.87441 10.6255 2.07826 9.04307 2.67216 7.59067C3.26606 6.13828 4.22936 4.86639 5.46651 3.90118C6.70366 2.93597 8.17166 2.31099 9.7249 2.08822C10.149 2.02934 10.5767 1.99994 11.0049 2.00022C12.41 1.99832 13.7959 2.32764 15.0499 2.96146C16.304 3.59527 17.3911 4.51574 18.2229 5.64822C19.8023 7.92061 21.0724 10.3929 21.9999 13.0002H20.7929ZM16.1999 8.01122C16.1345 7.89724 16.0472 7.79728 15.9432 7.71704C15.8391 7.63681 15.7202 7.57787 15.5934 7.5436C15.4665 7.50933 15.3341 7.5004 15.2038 7.51732C15.0735 7.53424 14.9478 7.57668 14.8339 7.64222L13.8519 8.20622C13.3426 7.69 12.7024 7.32218 11.9999 7.14222V6.00022C11.9999 5.735 11.8945 5.48065 11.707 5.29311C11.5195 5.10557 11.2651 5.00022 10.9999 5.00022C10.7347 5.00022 10.4803 5.10557 10.2928 5.29311C10.1053 5.48065 9.9999 5.735 9.9999 6.00022V7.14222C9.29634 7.32168 8.65502 7.68953 8.1449 8.20622L7.1629 7.64222C7.04904 7.57656 6.92337 7.53396 6.79305 7.51687C6.66273 7.49978 6.53033 7.50852 6.40339 7.5426C6.27645 7.57668 6.15747 7.63543 6.05324 7.71549C5.949 7.79555 5.86156 7.89536 5.7959 8.00922C5.73024 8.12307 5.68764 8.24875 5.67055 8.37906C5.65346 8.50938 5.6622 8.64179 5.69628 8.76873C5.73036 8.89566 5.78911 9.01465 5.86917 9.11888C5.94923 9.22311 6.04904 9.31056 6.1629 9.37622L7.1559 9.94722C7.05648 10.2895 7.004 10.6438 6.9999 11.0002C7.00497 11.3568 7.05846 11.711 7.1589 12.0532L6.1659 12.6242C5.93595 12.7568 5.76811 12.9753 5.69928 13.2317C5.63046 13.4881 5.66629 13.7613 5.7989 13.9912C5.93151 14.2212 6.15003 14.389 6.40639 14.4578C6.66275 14.5267 6.93595 14.4908 7.1659 14.3582L8.1479 13.7942C8.65719 14.3104 9.29742 14.6783 9.9999 14.8582V16.0002C9.9999 16.2654 10.1053 16.5198 10.2928 16.7073C10.4803 16.8949 10.7347 17.0002 10.9999 17.0002C11.2651 17.0002 11.5195 16.8949 11.707 16.7073C11.8945 16.5198 11.9999 16.2654 11.9999 16.0002V14.8582C12.7034 14.6788 13.3448 14.3109 13.8549 13.7942L14.8369 14.3582C14.9508 14.4239 15.0764 14.4665 15.2067 14.4836C15.3371 14.5007 15.4695 14.4919 15.5964 14.4578C15.7233 14.4238 15.8423 14.365 15.9466 14.2849C16.0508 14.2049 16.1382 14.1051 16.2039 13.9912C16.2696 13.8774 16.3122 13.7517 16.3292 13.6214C16.3463 13.4911 16.3376 13.3586 16.3035 13.2317C16.2694 13.1048 16.2107 12.9858 16.1306 12.8816C16.0506 12.7773 15.9508 12.6899 15.8369 12.6242L14.8439 12.0532C14.9433 11.7109 14.9958 11.3567 14.9999 11.0002C14.9948 10.6436 14.9413 10.2894 14.8409 9.94722L15.8339 9.37622C16.0633 9.24361 16.2307 9.02537 16.2993 8.76944C16.3679 8.51351 16.3322 8.24081 16.1999 8.01122ZM10.9999 13.0002C10.6043 13.0002 10.2177 12.8829 9.88876 12.6632C9.55986 12.4434 9.30351 12.131 9.15214 11.7656C9.00076 11.4001 8.96116 10.998 9.03833 10.61C9.1155 10.2221 9.30598 9.86571 9.58568 9.586C9.86539 9.3063 10.2218 9.11582 10.6097 9.03865C10.9977 8.96148 11.3998 9.00108 11.7653 9.15246C12.1307 9.30383 12.4431 9.56018 12.6628 9.88908C12.8826 10.218 12.9999 10.6047 12.9999 11.0002C12.9999 11.5307 12.7892 12.0394 12.4141 12.4144C12.039 12.7895 11.5303 13.0002 10.9999 13.0002Z" fill="currentColor"/>
</g>
<defs>
<clipPath id="clip0_403_2979">
<rect width="24" height="24" fill="white"/>
</clipPath>
</defs>
</svg>
