<svg width="24" height="24" viewBox="0 0 24 24" fill="none" xmlns="http://www.w3.org/2000/svg">
<g clip-path="url(#clip0_403_3211)">
<path d="M12 0C9.62663 0 7.30655 0.703788 5.33316 2.02236C3.35977 3.34094 1.8217 5.21509 0.913451 7.4078C0.00519943 9.60051 -0.232441 12.0133 0.230582 14.3411C0.693605 16.6689 1.83649 18.8071 3.51472 20.4853C5.19295 22.1635 7.33115 23.3064 9.65892 23.7694C11.9867 24.2324 14.3995 23.9948 16.5922 23.0866C18.7849 22.1783 20.6591 20.6402 21.9776 18.6668C23.2962 16.6935 24 14.3734 24 12C23.9966 8.81846 22.7312 5.76821 20.4815 3.51852C18.2318 1.26883 15.1815 0.00344108 12 0V0ZM19.879 18.136C19.0254 17.4229 18.3302 16.5394 17.838 15.542L19.371 14.929C19.6174 14.8306 19.8146 14.6384 19.9192 14.3946C20.0239 14.1508 20.0274 13.8754 19.929 13.629C19.8306 13.3826 19.6384 13.1854 19.3946 13.0808C19.1508 12.9761 18.8754 12.9726 18.629 13.071L17.184 13.649C16.9384 12.5627 16.9384 11.4353 17.184 10.349L18.629 10.927C18.751 10.9757 18.8814 10.9999 19.0128 10.9983C19.1441 10.9966 19.2739 10.9691 19.3946 10.9172C19.5153 10.8654 19.6246 10.7903 19.7163 10.6963C19.808 10.6022 19.8803 10.491 19.929 10.369C19.9777 10.247 20.0019 10.1166 20.0003 9.98525C19.9986 9.85389 19.9711 9.72415 19.9192 9.60344C19.8674 9.48272 19.7923 9.37339 19.6983 9.28169C19.6042 9.18999 19.493 9.11772 19.371 9.069L17.838 8.456C18.3302 7.45861 19.0254 6.57506 19.879 5.862C21.2531 7.61213 22 9.77287 22 11.998C22 14.2231 21.2531 16.3839 19.879 18.134V18.136ZM4.12101 5.864C4.97459 6.57706 5.66978 7.46061 6.16201 8.458L4.62901 9.071C4.38262 9.1694 4.18541 9.36164 4.08077 9.60544C3.97612 9.84923 3.97261 10.1246 4.07101 10.371C4.1694 10.6174 4.36164 10.8146 4.60544 10.9192C4.84924 11.0239 5.12462 11.0274 5.37101 10.929L6.81601 10.351C6.93433 10.8928 6.99599 11.4454 7.00001 12C6.99599 12.5546 6.93433 13.1072 6.81601 13.649L5.37101 13.071C5.24901 13.0223 5.11861 12.9981 4.98725 12.9997C4.8559 13.0014 4.72616 13.0289 4.60544 13.0808C4.48472 13.1326 4.3754 13.2077 4.2837 13.3017C4.192 13.3958 4.11973 13.507 4.07101 13.629C4.02228 13.751 3.99807 13.8814 3.99975 14.0128C4.00142 14.1441 4.02895 14.2739 4.08077 14.3946C4.13258 14.5153 4.20767 14.6246 4.30173 14.7163C4.3958 14.808 4.50701 14.8803 4.62901 14.929L6.16201 15.542C5.66978 16.5394 4.97459 17.4229 4.12101 18.136C2.74687 16.3859 1.99997 14.2251 1.99997 12C1.99997 9.77487 2.74687 7.61413 4.12101 5.864ZM5.50701 19.59C6.56704 18.6767 7.42264 17.5502 8.01801 16.284L9.62901 16.929C9.751 16.9777 9.8814 17.0019 10.0128 17.0003C10.1441 16.9986 10.2739 16.9711 10.3946 16.9192C10.5153 16.8674 10.6246 16.7923 10.7163 16.6983C10.808 16.6042 10.8803 16.493 10.929 16.371C10.9777 16.249 11.0019 16.1186 11.0003 15.9872C10.9986 15.8559 10.9711 15.7262 10.9192 15.6054C10.8674 15.4847 10.7923 15.3754 10.6983 15.2837C10.6042 15.192 10.493 15.1197 10.371 15.071L8.70501 14.405C8.90016 13.6182 8.99921 12.8106 9.00001 12C8.99881 11.191 8.89976 10.3852 8.70501 9.6L10.371 8.934C10.6174 8.83561 10.8146 8.64336 10.9192 8.39957C11.0239 8.15577 11.0274 7.88039 10.929 7.634C10.8306 7.38761 10.6384 7.19041 10.3946 7.08576C10.1508 6.98112 9.87539 6.97761 9.62901 7.076L8.01801 7.721C7.42324 6.45299 6.5676 5.32474 5.50701 4.41C7.313 2.85522 9.61695 2.0001 12 2.0001C14.3831 2.0001 16.687 2.85522 18.493 4.41C17.433 5.32329 16.5774 6.44978 15.982 7.716L14.371 7.071C14.249 7.02228 14.1186 6.99807 13.9873 6.99974C13.8559 7.00142 13.7262 7.02895 13.6054 7.08076C13.4847 7.13258 13.3754 7.20766 13.2837 7.30173C13.192 7.3958 13.1197 7.507 13.071 7.629C13.0223 7.751 12.9981 7.8814 12.9997 8.01275C13.0014 8.14411 13.029 8.27385 13.0808 8.39457C13.1326 8.51528 13.2077 8.62461 13.3017 8.71631C13.3958 8.80801 13.507 8.88028 13.629 8.929L15.3 9.6C14.9067 11.1792 14.9067 12.8308 15.3 14.41L13.634 15.076C13.3876 15.1744 13.1904 15.3666 13.0858 15.6104C12.9811 15.8542 12.9776 16.1296 13.076 16.376C13.1744 16.6224 13.3666 16.8196 13.6104 16.9242C13.8542 17.0289 14.1296 17.0324 14.376 16.934L15.987 16.289C16.5824 17.5552 17.438 18.6817 18.498 19.595C16.692 21.1498 14.3881 22.0049 12.005 22.0049C9.62195 22.0049 7.318 21.1498 5.51201 19.595L5.50701 19.59Z" fill="currentColor"/>
</g>
<defs>
<clipPath id="clip0_403_3211">
<rect width="24" height="24" fill="white"/>
</clipPath>
</defs>
</svg>
