<svg width="24" height="24" viewBox="0 0 24 24" fill="none" xmlns="http://www.w3.org/2000/svg">
<g clip-path="url(#clip0_403_2823)">
<path d="M22.9999 11C23.2652 11 23.5195 10.8946 23.707 10.7071C23.8946 10.5196 23.9999 10.2652 23.9999 10C23.9999 9.73478 23.8946 9.48043 23.707 9.29289C23.5195 9.10536 23.2652 9 22.9999 9H21.5999L20.8299 6.519C20.5488 5.60459 20.0094 4.7909 19.2767 4.17582C18.544 3.56074 17.6492 3.17049 16.6999 3.052C16.3206 2.14915 15.6835 1.37814 14.8684 0.835324C14.0533 0.292507 13.0963 0.00196172 12.1169 0L11.8829 0C10.9036 0.00196172 9.9466 0.292507 9.13149 0.835324C8.31637 1.37814 7.67932 2.14915 7.29994 3.052C6.35113 3.17077 5.45683 3.56105 4.72452 4.17591C3.99222 4.79078 3.45309 5.60406 3.17194 6.518L2.39994 9H0.999935C0.734718 9 0.480364 9.10536 0.292828 9.29289C0.105292 9.48043 -6.53469e-05 9.73478 -6.53469e-05 10C-6.53469e-05 10.2652 0.105292 10.5196 0.292828 10.7071C0.480364 10.8946 0.734718 11 0.999935 11H1.78093L1.06593 13.3C0.657405 13.7368 0.353183 14.2606 0.176127 14.8318C-0.000928208 15.4031 -0.0462133 16.0071 0.0436747 16.5984C0.133563 17.1897 0.356286 17.7529 0.695111 18.2458C1.03394 18.7386 1.48005 19.1483 1.99993 19.444V21C1.99993 21.7956 2.31601 22.5587 2.87861 23.1213C3.44122 23.6839 4.20429 24 4.99994 24C5.79558 24 6.55865 23.6839 7.12126 23.1213C7.68387 22.5587 7.99994 21.7956 7.99994 21V20H15.9999V21C15.9999 21.7956 16.316 22.5587 16.8786 23.1213C17.4412 23.6839 18.2043 24 18.9999 24C19.7956 24 20.5586 23.6839 21.1213 23.1213C21.6839 22.5587 21.9999 21.7956 21.9999 21V19.444C22.5195 19.1483 22.9653 18.7387 23.3039 18.246C23.6425 17.7533 23.8651 17.1903 23.9549 16.5993C24.0448 16.0083 23.9997 15.4045 23.8228 14.8335C23.646 14.2624 23.3421 13.7388 22.9339 13.302L22.2189 11H22.9999ZM11.8829 2H12.1169C12.5374 2.00085 12.953 2.09035 13.3366 2.26266C13.7201 2.43497 14.063 2.68621 14.3429 3H9.65693C9.93672 2.68606 10.2796 2.43472 10.6632 2.2624C11.0468 2.09008 11.4624 2.00066 11.8829 2ZM5.08294 7.11C5.27085 6.49762 5.65072 5.96191 6.16643 5.58196C6.68215 5.20202 7.30638 4.99799 7.94694 5H16.0529C16.6938 4.99784 17.3183 5.20191 17.8343 5.58207C18.3502 5.96222 18.7301 6.49827 18.9179 7.111L20.4499 12.045C20.3009 12.0214 20.1507 12.0064 19.9999 12H3.99994C3.8492 12.0064 3.69895 12.0214 3.54994 12.045L5.08294 7.11ZM5.99994 21C5.99994 21.2652 5.89458 21.5196 5.70704 21.7071C5.51951 21.8946 5.26515 22 4.99994 22C4.73472 22 4.48036 21.8946 4.29283 21.7071C4.10529 21.5196 3.99994 21.2652 3.99994 21V20H5.99994V21ZM19.9999 21C19.9999 21.2652 19.8946 21.5196 19.707 21.7071C19.5195 21.8946 19.2652 22 18.9999 22C18.7347 22 18.4804 21.8946 18.2928 21.7071C18.1053 21.5196 17.9999 21.2652 17.9999 21V20H19.9999V21ZM19.9999 18H3.99994C3.4695 18 2.96079 17.7893 2.58572 17.4142C2.21065 17.0391 1.99993 16.5304 1.99993 16C1.99993 15.4696 2.21065 14.9609 2.58572 14.5858C2.96079 14.2107 3.4695 14 3.99994 14V15C3.99994 15.2652 4.10529 15.5196 4.29283 15.7071C4.48036 15.8946 4.73472 16 4.99994 16C5.26515 16 5.51951 15.8946 5.70704 15.7071C5.89458 15.5196 5.99994 15.2652 5.99994 15V14H17.9999V15C17.9999 15.2652 18.1053 15.5196 18.2928 15.7071C18.4804 15.8946 18.7347 16 18.9999 16C19.2652 16 19.5195 15.8946 19.707 15.7071C19.8946 15.5196 19.9999 15.2652 19.9999 15V14C20.5304 14 21.0391 14.2107 21.4142 14.5858C21.7892 14.9609 21.9999 15.4696 21.9999 16C21.9999 16.5304 21.7892 17.0391 21.4142 17.4142C21.0391 17.7893 20.5304 18 19.9999 18Z" fill="currentColor"/>
</g>
<defs>
<clipPath id="clip0_403_2823">
<rect width="24" height="24" fill="white"/>
</clipPath>
</defs>
</svg>
