<svg width="24" height="24" viewBox="0 0 24 24" fill="none" xmlns="http://www.w3.org/2000/svg">
<g clip-path="url(#clip0_403_3047)">
<path d="M19.9999 7.99933C20.0011 6.45949 19.5579 4.95201 18.7234 3.65786C17.889 2.36371 16.6988 1.33788 15.2957 0.703506C13.8926 0.0691322 12.3362 -0.146826 10.8134 0.0815544C9.29055 0.309935 7.866 0.972948 6.71072 1.99101C5.55544 3.00907 4.71852 4.33891 4.30042 5.82091C3.88232 7.30291 3.90081 8.87408 4.35367 10.3458C4.80653 11.8176 5.67451 13.1274 6.85343 14.118C8.03235 15.1085 9.47211 15.7379 10.9999 15.9303V18.9993H8.99988C8.73466 18.9993 8.48031 19.1047 8.29277 19.2922C8.10523 19.4798 7.99988 19.7341 7.99988 19.9993C7.99988 20.2645 8.10523 20.5189 8.29277 20.7064C8.48031 20.894 8.73466 20.9993 8.99988 20.9993H10.9999V22.9993C10.9999 23.2645 11.1052 23.5189 11.2928 23.7064C11.4803 23.894 11.7347 23.9993 11.9999 23.9993C12.2651 23.9993 12.5194 23.894 12.707 23.7064C12.8945 23.5189 12.9999 23.2645 12.9999 22.9993V20.9993H14.9999C15.2651 20.9993 15.5194 20.894 15.707 20.7064C15.8945 20.5189 15.9999 20.2645 15.9999 19.9993C15.9999 19.7341 15.8945 19.4798 15.707 19.2922C15.5194 19.1047 15.2651 18.9993 14.9999 18.9993H12.9999V15.9303C14.9314 15.6853 16.7074 14.7449 17.9958 13.2852C19.2842 11.8254 19.9966 9.94631 19.9999 7.99933ZM5.99988 7.99933C5.99988 6.81264 6.35177 5.65261 7.01106 4.66591C7.67035 3.67922 8.60742 2.91018 9.70377 2.45605C10.8001 2.00193 12.0065 1.88311 13.1704 2.11462C14.3343 2.34613 15.4034 2.91758 16.2425 3.75669C17.0816 4.59581 17.6531 5.6649 17.8846 6.82879C18.1161 7.99268 17.9973 9.19908 17.5432 10.2954C17.089 11.3918 16.32 12.3289 15.3333 12.9881C14.3466 13.6474 13.1866 13.9993 11.9999 13.9993C10.4091 13.9977 8.88386 13.3651 7.75899 12.2402C6.63411 11.1153 6.00146 9.59014 5.99988 7.99933Z" fill="currentColor"/>
</g>
<defs>
<clipPath id="clip0_403_3047">
<rect width="24" height="24" fill="white"/>
</clipPath>
</defs>
</svg>
