<svg width="24" height="24" viewBox="0 0 24 24" fill="none" xmlns="http://www.w3.org/2000/svg">
<g clip-path="url(#clip0_403_2851)">
<path d="M15.0001 0H9.00012C7.67453 0.00158786 6.40368 0.528882 5.46634 1.46622C4.529 2.40356 4.00171 3.67441 4.00012 5V19C4.00171 20.3256 4.529 21.5964 5.46634 22.5338C6.40368 23.4711 7.67453 23.9984 9.00012 24H15.0001C16.3257 23.9984 17.5966 23.4711 18.5339 22.5338C19.4712 21.5964 19.9985 20.3256 20.0001 19V5C19.9985 3.67441 19.4712 2.40356 18.5339 1.46622C17.5966 0.528882 16.3257 0.00158786 15.0001 0V0ZM9.00012 2H15.0001C15.7958 2 16.5588 2.31607 17.1214 2.87868C17.6841 3.44129 18.0001 4.20435 18.0001 5V16H6.00012V5C6.00012 4.20435 6.31619 3.44129 6.8788 2.87868C7.44141 2.31607 8.20447 2 9.00012 2ZM15.0001 22H9.00012C8.20447 22 7.44141 21.6839 6.8788 21.1213C6.31619 20.5587 6.00012 19.7956 6.00012 19V18H18.0001V19C18.0001 19.7956 17.6841 20.5587 17.1214 21.1213C16.5588 21.6839 15.7958 22 15.0001 22Z" fill="currentColor"/>
<path d="M12.0001 20.9994C12.5524 20.9994 13.0001 20.5517 13.0001 19.9994C13.0001 19.4471 12.5524 18.9994 12.0001 18.9994C11.4478 18.9994 11.0001 19.4471 11.0001 19.9994C11.0001 20.5517 11.4478 20.9994 12.0001 20.9994Z" fill="currentColor"/>
</g>
<defs>
<clipPath id="clip0_403_2851">
<rect width="24" height="24" fill="white"/>
</clipPath>
</defs>
</svg>
