<svg width="24" height="24" viewBox="0 0 24 24" fill="none" xmlns="http://www.w3.org/2000/svg">
<g clip-path="url(#clip0_403_2876)">
<path d="M19 0.99939H5C3.67441 1.00098 2.40356 1.52827 1.46622 2.46561C0.528882 3.40295 0.00158786 4.67379 0 5.99939L0 13.9994C0.00158786 15.325 0.528882 16.5958 1.46622 17.5332C2.40356 18.4705 3.67441 18.9978 5 18.9994H11V20.9994H7C6.73478 20.9994 6.48043 21.1047 6.29289 21.2923C6.10536 21.4798 6 21.7342 6 21.9994C6 22.2646 6.10536 22.519 6.29289 22.7065C6.48043 22.894 6.73478 22.9994 7 22.9994H17C17.2652 22.9994 17.5196 22.894 17.7071 22.7065C17.8946 22.519 18 22.2646 18 21.9994C18 21.7342 17.8946 21.4798 17.7071 21.2923C17.5196 21.1047 17.2652 20.9994 17 20.9994H13V18.9994H19C20.3256 18.9978 21.5964 18.4705 22.5338 17.5332C23.4711 16.5958 23.9984 15.325 24 13.9994V5.99939C23.9984 4.67379 23.4711 3.40295 22.5338 2.46561C21.5964 1.52827 20.3256 1.00098 19 0.99939ZM22 13.9994C22 14.795 21.6839 15.5581 21.1213 16.1207C20.5587 16.6833 19.7956 16.9994 19 16.9994H5C4.20435 16.9994 3.44129 16.6833 2.87868 16.1207C2.31607 15.5581 2 14.795 2 13.9994V5.99939C2 5.20374 2.31607 4.44068 2.87868 3.87807C3.44129 3.31546 4.20435 2.99939 5 2.99939H19C19.7956 2.99939 20.5587 3.31546 21.1213 3.87807C21.6839 4.44068 22 5.20374 22 5.99939V13.9994ZM20 9.99939C20 10.2646 19.8946 10.519 19.7071 10.7065C19.5196 10.894 19.2652 10.9994 19 10.9994H16.035L14.335 13.5544C14.2434 13.6917 14.1192 13.8042 13.9735 13.8819C13.8278 13.9595 13.6651 13.9999 13.5 13.9994C13.479 13.9994 13.458 13.9994 13.438 13.9994C13.263 13.9886 13.094 13.932 12.9478 13.8353C12.8016 13.7386 12.6834 13.6052 12.605 13.4484L10.376 8.98739L9.332 10.5544C9.24065 10.6913 9.11692 10.8036 8.97178 10.8812C8.82665 10.9588 8.66459 10.9994 8.5 10.9994H5C4.73478 10.9994 4.48043 10.894 4.29289 10.7065C4.10536 10.519 4 10.2646 4 9.99939C4 9.73417 4.10536 9.47982 4.29289 9.29228C4.48043 9.10475 4.73478 8.99939 5 8.99939H7.965L9.665 6.44439C9.76123 6.29695 9.89516 6.17794 10.0529 6.09969C10.2106 6.02145 10.3864 5.98682 10.562 5.99939C10.737 6.01017 10.906 6.06674 11.0522 6.16345C11.1984 6.26016 11.3166 6.3936 11.395 6.55039L13.624 11.0094L14.668 9.44239C14.7596 9.30584 14.8834 9.19398 15.0285 9.11671C15.1737 9.03944 15.3356 8.99915 15.5 8.99939H19C19.2652 8.99939 19.5196 9.10475 19.7071 9.29228C19.8946 9.47982 20 9.73417 20 9.99939Z" fill="currentColor"/>
</g>
<defs>
<clipPath id="clip0_403_2876">
<rect width="24" height="24" fill="white"/>
</clipPath>
</defs>
</svg>
