<svg width="24" height="24" viewBox="0 0 24 24" fill="none" xmlns="http://www.w3.org/2000/svg">
<g clip-path="url(#clip0_403_3254)">
<path d="M18.0001 24H6.00006C4.67447 23.9984 3.40362 23.4711 2.46628 22.5338C1.52894 21.5964 1.00165 20.3256 1.00006 19V5C1.00165 3.67441 1.52894 2.40356 2.46628 1.46622C3.40362 0.528882 4.67447 0.00158786 6.00006 0L18.0001 0C19.3257 0.00158786 20.5965 0.528882 21.5338 1.46622C22.4712 2.40356 22.9985 3.67441 23.0001 5V19C22.9985 20.3256 22.4712 21.5964 21.5338 22.5338C20.5965 23.4711 19.3257 23.9984 18.0001 24ZM6.00006 2C5.20441 2 4.44135 2.31607 3.87874 2.87868C3.31613 3.44129 3.00006 4.20435 3.00006 5V19C3.00006 19.7956 3.31613 20.5587 3.87874 21.1213C4.44135 21.6839 5.20441 22 6.00006 22H18.0001C18.7957 22 19.5588 21.6839 20.1214 21.1213C20.684 20.5587 21.0001 19.7956 21.0001 19V5C21.0001 4.20435 20.684 3.44129 20.1214 2.87868C19.5588 2.31607 18.7957 2 18.0001 2H6.00006ZM16.0001 10H8.00006C7.20441 10 6.44135 9.68393 5.87874 9.12132C5.31613 8.55871 5.00006 7.79565 5.00006 7C5.00006 6.20435 5.31613 5.44129 5.87874 4.87868C6.44135 4.31607 7.20441 4 8.00006 4H16.0001C16.7957 4 17.5588 4.31607 18.1214 4.87868C18.684 5.44129 19.0001 6.20435 19.0001 7C19.0001 7.79565 18.684 8.55871 18.1214 9.12132C17.5588 9.68393 16.7957 10 16.0001 10ZM8.00006 6C7.73484 6 7.48049 6.10536 7.29295 6.29289C7.10542 6.48043 7.00006 6.73478 7.00006 7C7.00006 7.26522 7.10542 7.51957 7.29295 7.70711C7.48049 7.89464 7.73484 8 8.00006 8H16.0001C16.2653 8 16.5196 7.89464 16.7072 7.70711C16.8947 7.51957 17.0001 7.26522 17.0001 7C17.0001 6.73478 16.8947 6.48043 16.7072 6.29289C16.5196 6.10536 16.2653 6 16.0001 6H8.00006ZM6.00006 13C5.80228 13 5.60894 13.0586 5.44449 13.1685C5.28004 13.2784 5.15187 13.4346 5.07618 13.6173C5.00049 13.8 4.98069 14.0011 5.01928 14.1951C5.05786 14.3891 5.1531 14.5673 5.29295 14.7071C5.43281 14.847 5.61099 14.9422 5.80497 14.9808C5.99895 15.0194 6.20002 14.9996 6.38274 14.9239C6.56547 14.8482 6.72165 14.72 6.83153 14.5556C6.94141 14.3911 7.00006 14.1978 7.00006 14C7.00006 13.7348 6.8947 13.4804 6.70717 13.2929C6.51963 13.1054 6.26528 13 6.00006 13ZM10.0001 13C9.80228 13 9.60894 13.0586 9.44449 13.1685C9.28004 13.2784 9.15187 13.4346 9.07618 13.6173C9.00049 13.8 8.98069 14.0011 9.01928 14.1951C9.05786 14.3891 9.1531 14.5673 9.29295 14.7071C9.43281 14.847 9.61099 14.9422 9.80497 14.9808C9.99895 15.0194 10.2 14.9996 10.3827 14.9239C10.5655 14.8482 10.7216 14.72 10.8315 14.5556C10.9414 14.3911 11.0001 14.1978 11.0001 14C11.0001 13.7348 10.8947 13.4804 10.7072 13.2929C10.5196 13.1054 10.2653 13 10.0001 13ZM14.0001 13C13.8023 13 13.6089 13.0586 13.4445 13.1685C13.28 13.2784 13.1519 13.4346 13.0762 13.6173C13.0005 13.8 12.9807 14.0011 13.0193 14.1951C13.0579 14.3891 13.1531 14.5673 13.293 14.7071C13.4328 14.847 13.611 14.9422 13.805 14.9808C13.999 15.0194 14.2 14.9996 14.3827 14.9239C14.5655 14.8482 14.7216 14.72 14.8315 14.5556C14.9414 14.3911 15.0001 14.1978 15.0001 14C15.0001 13.7348 14.8947 13.4804 14.7072 13.2929C14.5196 13.1054 14.2653 13 14.0001 13ZM6.00006 17C5.80228 17 5.60894 17.0586 5.44449 17.1685C5.28004 17.2784 5.15187 17.4346 5.07618 17.6173C5.00049 17.8 4.98069 18.0011 5.01928 18.1951C5.05786 18.3891 5.1531 18.5673 5.29295 18.7071C5.43281 18.847 5.61099 18.9422 5.80497 18.9808C5.99895 19.0194 6.20002 18.9996 6.38274 18.9239C6.56547 18.8482 6.72165 18.72 6.83153 18.5556C6.94141 18.3911 7.00006 18.1978 7.00006 18C7.00006 17.7348 6.8947 17.4804 6.70717 17.2929C6.51963 17.1054 6.26528 17 6.00006 17ZM10.0001 17C9.80228 17 9.60894 17.0586 9.44449 17.1685C9.28004 17.2784 9.15187 17.4346 9.07618 17.6173C9.00049 17.8 8.98069 18.0011 9.01928 18.1951C9.05786 18.3891 9.1531 18.5673 9.29295 18.7071C9.43281 18.847 9.61099 18.9422 9.80497 18.9808C9.99895 19.0194 10.2 18.9996 10.3827 18.9239C10.5655 18.8482 10.7216 18.72 10.8315 18.5556C10.9414 18.3911 11.0001 18.1978 11.0001 18C11.0001 17.7348 10.8947 17.4804 10.7072 17.2929C10.5196 17.1054 10.2653 17 10.0001 17ZM18.0001 13C17.8023 13 17.6089 13.0586 17.4445 13.1685C17.28 13.2784 17.1519 13.4346 17.0762 13.6173C17.0005 13.8 16.9807 14.0011 17.0193 14.1951C17.0579 14.3891 17.1531 14.5673 17.293 14.7071C17.4328 14.847 17.611 14.9422 17.805 14.9808C17.999 15.0194 18.2 14.9996 18.3827 14.9239C18.5655 14.8482 18.7216 14.72 18.8315 14.5556C18.9414 14.3911 19.0001 14.1978 19.0001 14C19.0001 13.7348 18.8947 13.4804 18.7072 13.2929C18.5196 13.1054 18.2653 13 18.0001 13ZM19.0001 18C19.0001 17.7348 18.8947 17.4804 18.7072 17.2929C18.5196 17.1054 18.2653 17 18.0001 17H14.0001C13.7348 17 13.4805 17.1054 13.293 17.2929C13.1054 17.4804 13.0001 17.7348 13.0001 18C13.0001 18.2652 13.1054 18.5196 13.293 18.7071C13.4805 18.8946 13.7348 19 14.0001 19H18.0001C18.2653 19 18.5196 18.8946 18.7072 18.7071C18.8947 18.5196 19.0001 18.2652 19.0001 18Z" fill="currentColor"/>
</g>
<defs>
<clipPath id="clip0_403_3254">
<rect width="24" height="24" fill="white"/>
</clipPath>
</defs>
</svg>
