<svg width="24" height="24" viewBox="0 0 24 24" fill="none" xmlns="http://www.w3.org/2000/svg">
<g clip-path="url(#clip0_403_2974)">
<path d="M11.9998 16.0001C12.4655 16.0009 12.9249 15.8935 13.3418 15.686L15.3418 14.6861C16.3612 14.1799 17.0042 13.1382 16.9998 12.0001V9.03307C17.0034 7.89593 16.3604 6.85559 15.3418 6.35009L13.3418 5.3501C12.4968 4.9301 11.5038 4.9301 10.6588 5.3501L8.65881 6.35009C7.63984 6.85531 6.99648 7.89574 6.99981 9.03307V12.0001C6.99615 13.1375 7.63904 14.1782 8.65782 14.6841L10.6578 15.6841C11.0746 15.8922 11.534 16.0003 11.9998 16.0001ZM8.99982 12.0001V9.03307C9.00142 8.93107 9.01862 8.82987 9.05082 8.73307L11.2308 9.82306C11.715 10.065 12.2847 10.065 12.7689 9.82306L14.9489 8.73307C14.9811 8.82987 14.9983 8.93107 14.9999 9.03307V12.0001C15.0015 12.3795 14.7869 12.7267 14.4469 12.8951L12.4469 13.895C12.1649 14.0346 11.8339 14.0346 11.5519 13.895L9.55187 12.8951C9.21217 12.7264 8.99804 12.3793 8.99982 12.0001ZM18.9998 22.0001H16.2908L19.7778 18.7781C24.0737 14.4823 24.0737 7.51756 19.778 3.2217C15.4823 -1.07416 8.51757 -1.07421 4.22171 3.22146C-0.0741445 7.51713 -0.0742385 14.482 4.22148 18.7778C4.2309 18.7872 7.70884 22.0001 7.70884 22.0001H4.99984C4.44756 22.0001 3.99986 22.4478 3.99986 23C3.99986 23.5523 4.44756 24 4.99984 24H18.9999C19.5521 24 19.9998 23.5523 19.9998 23C19.9998 22.4478 19.5521 22.0001 18.9998 22.0001ZM5.63584 4.63606C9.14284 1.11331 14.8416 1.10056 18.3643 4.60756C21.8871 8.11456 21.8998 13.8133 18.3928 17.336L14.4078 21.017C13.0477 22.299 10.9219 22.2916 9.57086 21L5.63584 17.364C2.12654 13.847 2.12659 8.15309 5.63584 4.63606Z" fill="currentColor"/>
</g>
<defs>
<clipPath id="clip0_403_2974">
<rect width="24" height="24" fill="white"/>
</clipPath>
</defs>
</svg>
