<svg width="24" height="24" viewBox="0 0 24 24" fill="none" xmlns="http://www.w3.org/2000/svg">
<g clip-path="url(#clip0_403_2908)">
<path d="M0 22.9993V15.9993C0.00264685 13.6132 0.951708 11.3255 2.63896 9.63829C4.32622 7.95103 6.61386 7.00197 9 6.99933H13.83V5.41333C13.8301 5.01783 13.9474 4.63123 14.1672 4.30241C14.387 3.97359 14.6993 3.71731 15.0647 3.56597C15.4301 3.41464 15.8322 3.37503 16.2201 3.45216C16.608 3.5293 16.9643 3.71971 17.244 3.99933L23.124 9.87832C23.6864 10.4409 24.0024 11.2038 24.0024 11.9993C24.0024 12.7948 23.6864 13.5577 23.124 14.1203L17.244 19.9993C16.9643 20.2789 16.608 20.4693 16.2201 20.5465C15.8322 20.6236 15.4301 20.584 15.0647 20.4327C14.6993 20.2813 14.387 20.025 14.1672 19.6962C13.9474 19.3674 13.8301 18.9808 13.83 18.5853V16.9993H8C6.40919 17.0009 4.88399 17.6336 3.75911 18.7584C2.63424 19.8833 2.00159 21.4085 2 22.9993C2 23.2645 1.89464 23.5189 1.70711 23.7064C1.51957 23.8939 1.26522 23.9993 1 23.9993C0.734784 23.9993 0.48043 23.8939 0.292893 23.7064C0.105357 23.5189 0 23.2645 0 22.9993ZM15.83 7.99932C15.83 8.26454 15.7246 8.51889 15.5371 8.70643C15.3496 8.89397 15.0952 8.99932 14.83 8.99932H9C7.14414 9.00144 5.36489 9.73962 4.05259 11.0519C2.7403 12.3642 2.00212 14.1435 2 15.9993V17.7133C2.74957 16.8603 3.67249 16.1769 4.70715 15.7089C5.74182 15.2409 6.86441 14.999 8 14.9993H14.83C15.0952 14.9993 15.3496 15.1047 15.5371 15.2922C15.7246 15.4797 15.83 15.7341 15.83 15.9993V18.5853L21.709 12.7063C21.8965 12.5188 22.0018 12.2645 22.0018 11.9993C22.0018 11.7342 21.8965 11.4798 21.709 11.2923L15.83 5.41333V7.99932Z" fill="currentColor"/>
</g>
<defs>
<clipPath id="clip0_403_2908">
<rect width="24" height="24" fill="white"/>
</clipPath>
</defs>
</svg>
