<svg width="24" height="24" viewBox="0 0 24 24" fill="none" xmlns="http://www.w3.org/2000/svg">
<g clip-path="url(#clip0_403_3257)">
<path d="M19 0H13C11.6744 0.00158786 10.4036 0.528882 9.46622 1.46622C8.52888 2.40356 8.00159 3.67441 8 5V5.1C6.87141 5.3321 5.85735 5.94618 5.12872 6.83875C4.40009 7.73132 4.00145 8.8478 4 10V10.1C2.87141 10.3321 1.85735 10.9462 1.12872 11.8387C0.40009 12.7313 0.00145452 13.8478 0 15L0 19C0.00158786 20.3256 0.528882 21.5964 1.46622 22.5338C2.40356 23.4711 3.67441 23.9984 5 24H11C12.3256 23.9984 13.5964 23.4711 14.5338 22.5338C15.4711 21.5964 15.9984 20.3256 16 19V18.9C17.1286 18.6679 18.1427 18.0538 18.8713 17.1613C19.5999 16.2687 19.9985 15.1522 20 14V13.9C21.1286 13.6679 22.1427 13.0538 22.8713 12.1613C23.5999 11.2687 23.9985 10.1522 24 9V5C23.9984 3.67441 23.4711 2.40356 22.5338 1.46622C21.5964 0.528882 20.3256 0.00158786 19 0V0ZM2 15C2 14.2044 2.31607 13.4413 2.87868 12.8787C3.44129 12.3161 4.20435 12 5 12H11C11.5437 12.0015 12.0766 12.1512 12.5415 12.4332C13.0063 12.7151 13.3855 13.1185 13.638 13.6L10.183 17.063L9.708 16.584C9.3539 16.2272 8.87802 16.0176 8.37579 15.997C7.87356 15.9764 7.38211 16.1464 7 16.473L2.379 20.433C2.13318 19.9952 2.00275 19.5021 2 19V15ZM14 19C14 19.7956 13.6839 20.5587 13.1213 21.1213C12.5587 21.6839 11.7956 22 11 22H5C4.61656 21.9992 4.23691 21.9241 3.882 21.779L8.288 18L8.764 18.481C9.13906 18.8559 9.64767 19.0666 10.178 19.0666C10.7083 19.0666 11.2169 18.8559 11.592 18.481L14 16.068V19ZM18 14C17.9974 14.6183 17.8039 15.2206 17.4459 15.7247C17.0879 16.2288 16.5829 16.6099 16 16.816V15C15.9984 13.6744 15.4711 12.4036 14.5338 11.4662C13.5964 10.5289 12.3256 10.0016 11 10H6C6 9.20435 6.31607 8.44129 6.87868 7.87868C7.44129 7.31607 8.20435 7 9 7H15C15.7956 7 16.5587 7.31607 17.1213 7.87868C17.6839 8.44129 18 9.20435 18 10V14ZM22 9C21.9974 9.61826 21.8039 10.2206 21.4459 10.7247C21.0879 11.2288 20.5829 11.6099 20 11.816V10C19.9984 8.67441 19.4711 7.40356 18.5338 6.46622C17.5964 5.52888 16.3256 5.00159 15 5H10C10 4.20435 10.3161 3.44129 10.8787 2.87868C11.4413 2.31607 12.2044 2 13 2H19C19.7956 2 20.5587 2.31607 21.1213 2.87868C21.6839 3.44129 22 4.20435 22 5V9ZM4 15C4 14.8022 4.05865 14.6089 4.16853 14.4444C4.27841 14.28 4.43459 14.1518 4.61732 14.0761C4.80004 14.0004 5.00111 13.9806 5.19509 14.0192C5.38907 14.0578 5.56725 14.153 5.70711 14.2929C5.84696 14.4327 5.9422 14.6109 5.98079 14.8049C6.01937 14.9989 5.99957 15.2 5.92388 15.3827C5.84819 15.5654 5.72002 15.7216 5.55557 15.8315C5.39112 15.9414 5.19778 16 5 16C4.73478 16 4.48043 15.8946 4.29289 15.7071C4.10536 15.5196 4 15.2652 4 15Z" fill="currentColor"/>
</g>
<defs>
<clipPath id="clip0_403_3257">
<rect width="24" height="24" fill="white"/>
</clipPath>
</defs>
</svg>
