<svg width="24" height="24" viewBox="0 0 24 24" fill="none" xmlns="http://www.w3.org/2000/svg">
<path d="M19 10.9999H9L12.29 7.70994C12.3837 7.61697 12.4581 7.50637 12.5089 7.38451C12.5597 7.26265 12.5858 7.13195 12.5858 6.99994C12.5858 6.86793 12.5597 6.73722 12.5089 6.61536C12.4581 6.4935 12.3837 6.3829 12.29 6.28994C12.1026 6.10369 11.8492 5.99915 11.585 5.99915C11.3208 5.99915 11.0674 6.10369 10.88 6.28994L6.59 10.5899C6.21441 10.9633 6.00223 11.4704 6 11.9999C6.00487 12.526 6.21684 13.029 6.59 13.3999L10.88 17.6999C10.9732 17.7925 11.0838 17.8658 11.2054 17.9157C11.3269 17.9655 11.4571 17.9909 11.5885 17.9905C11.7199 17.99 11.8499 17.9637 11.9712 17.913C12.0924 17.8623 12.2024 17.7882 12.295 17.6949C12.3876 17.6017 12.4609 17.4911 12.5107 17.3696C12.5606 17.248 12.586 17.1178 12.5856 16.9864C12.5851 16.855 12.5588 16.725 12.508 16.6038C12.4573 16.4825 12.3832 16.3725 12.29 16.2799L9 12.9999H19C19.2652 12.9999 19.5196 12.8946 19.7071 12.707C19.8946 12.5195 20 12.2651 20 11.9999C20 11.7347 19.8946 11.4804 19.7071 11.2928C19.5196 11.1053 19.2652 10.9999 19 10.9999Z" fill="currentColor"/>
</svg>
