<svg width="24" height="24" viewBox="0 0 24 24" fill="none" xmlns="http://www.w3.org/2000/svg">
<g clip-path="url(#clip0_403_3148)">
<path d="M17.7621 23.9999C9.63115 24.2749 -5.01683 9.74492 1.78416 1.86691L2.93416 0.866914C3.51628 0.304179 4.29657 -0.00670868 5.10618 0.00152591C5.91579 0.0097605 6.6896 0.336455 7.26015 0.910914C7.29099 0.942318 7.31972 0.975724 7.34615 1.01091L9.14615 3.34991C9.69317 3.92875 9.99711 4.69549 9.99525 5.49191C9.99339 6.28833 9.68587 7.05364 9.13615 7.62991L7.97815 9.08592C8.61927 10.643 9.56157 12.0581 10.751 13.2501C11.9404 14.4421 13.3535 15.3874 14.9091 16.0319L16.3731 14.8669C16.9569 14.3308 17.7204 14.0328 18.513 14.0317C19.3056 14.0305 20.0699 14.3264 20.6551 14.8609L22.9951 16.6609C23.0301 16.6873 23.0635 16.7157 23.0951 16.7459C23.6722 17.3283 23.996 18.115 23.996 18.9349C23.996 19.7548 23.6722 20.5415 23.0951 21.1239L22.1841 22.1739C21.6063 22.7581 20.9173 23.2206 20.1578 23.5342C19.3984 23.8478 18.5838 24.0062 17.7621 23.9999ZM5.07115 1.99991C4.92745 1.9998 4.78512 2.02801 4.65232 2.08291C4.51951 2.13782 4.39883 2.21835 4.29715 2.31991L3.14616 3.31991C-2.49984 10.1079 14.7771 26.4229 20.7201 20.8079L21.6321 19.7569C21.7405 19.6604 21.8288 19.5434 21.8918 19.4127C21.9548 19.2819 21.9913 19.14 21.9992 18.9951C22.0071 18.8502 21.9862 18.7051 21.9378 18.5683C21.8894 18.4315 21.8144 18.3056 21.7171 18.1979L19.3901 16.4109C19.3545 16.3847 19.321 16.3556 19.2901 16.3239C19.0815 16.1251 18.8043 16.0142 18.5161 16.0142C18.2279 16.0142 17.9508 16.1251 17.7421 16.3239C17.7156 16.3508 17.6875 16.3762 17.6581 16.3999L15.7001 17.9599C15.5642 18.0681 15.4025 18.139 15.2308 18.1657C15.0591 18.1923 14.8835 18.1738 14.7211 18.1119C12.7053 17.3609 10.8744 16.1855 9.35245 14.6651C7.83054 13.1447 6.65319 11.315 5.90015 9.29992C5.83349 9.13528 5.81187 8.95587 5.83753 8.78012C5.86319 8.60436 5.9352 8.43861 6.04615 8.29992L7.60015 6.34391C7.62326 6.31429 7.64832 6.28622 7.67515 6.25991C7.87942 6.0539 7.99403 5.77553 7.99403 5.48541C7.99403 5.1953 7.87942 4.91693 7.67515 4.71091C7.64398 4.67982 7.61523 4.64639 7.58915 4.61091L5.80615 2.28691C5.60469 2.10488 5.34268 2.00436 5.07115 2.00491V1.99991ZM22.5641 12.5759C27.5541 5.23092 18.7641 -3.55009 11.4271 1.43891C11.3165 1.51279 11.2217 1.60799 11.1483 1.71896C11.0749 1.82993 11.0244 1.95442 10.9998 2.08515C10.9751 2.21588 10.9768 2.35022 11.0047 2.4803C11.0326 2.61038 11.0861 2.73359 11.1622 2.8427C11.2384 2.95182 11.3355 3.04465 11.4479 3.11575C11.5604 3.18686 11.6859 3.23482 11.8171 3.25682C11.9483 3.27882 12.0826 3.27441 12.212 3.24386C12.3415 3.21332 12.4636 3.15724 12.5711 3.07891C18.0451 -0.680086 24.6811 5.96291 20.9241 11.4329C20.8441 11.5404 20.7865 11.6628 20.7547 11.7929C20.7229 11.9231 20.7176 12.0583 20.7391 12.1905C20.7606 12.3227 20.8084 12.4493 20.8797 12.5627C20.9511 12.6761 21.0445 12.774 21.1544 12.8506C21.2643 12.9272 21.3885 12.9809 21.5195 13.0086C21.6506 13.0363 21.7859 13.0374 21.9174 13.0117C22.0489 12.9861 22.1739 12.9343 22.285 12.8595C22.3961 12.7846 22.491 12.6882 22.5641 12.5759ZM18.7061 10.7109C18.8936 10.5234 18.9989 10.2691 18.9989 10.0039C18.9989 9.73875 18.8936 9.48444 18.7061 9.29692L17.0001 7.58991V4.99991C17.0001 4.7347 16.8948 4.48034 16.7072 4.29281C16.5197 4.10527 16.2654 3.99991 16.0001 3.99991C15.7349 3.99991 15.4806 4.10527 15.293 4.29281C15.1055 4.48034 15.0001 4.7347 15.0001 4.99991V7.99992C15.0002 8.26511 15.1056 8.51942 15.2931 8.70691L17.2931 10.7069C17.4807 10.8944 17.735 10.9997 18.0001 10.9997C18.2653 10.9997 18.5196 10.8944 18.7071 10.7069L18.7061 10.7109Z" fill="currentColor"/>
</g>
<defs>
<clipPath id="clip0_403_3148">
<rect width="24" height="24" fill="white"/>
</clipPath>
</defs>
</svg>
