<svg width="24" height="24" viewBox="0 0 24 24" fill="none" xmlns="http://www.w3.org/2000/svg">
<g clip-path="url(#clip0_403_2843)">
<path d="M12 0C9.62663 0 7.30655 0.703788 5.33316 2.02236C3.35977 3.34094 1.8217 5.21509 0.913451 7.4078C0.00519943 9.60051 -0.232441 12.0133 0.230582 14.3411C0.693605 16.6689 1.83649 18.8071 3.51472 20.4853C5.19295 22.1635 7.33115 23.3064 9.65892 23.7694C11.9867 24.2324 14.3995 23.9948 16.5922 23.0866C18.7849 22.1783 20.6591 20.6402 21.9776 18.6668C23.2962 16.6935 24 14.3734 24 12C23.9966 8.81846 22.7312 5.76821 20.4815 3.51852C18.2318 1.26883 15.1815 0.00344108 12 0V0ZM12 16C6.27601 16 2.00001 13.889 2.00001 12C2.00001 10.111 6.27601 8 12 8C17.724 8 22 10.111 22 12C22 13.889 17.724 16 12 16ZM12 2C13.9564 2.00225 15.8693 2.57758 17.5023 3.6549C19.1354 4.73223 20.417 6.26435 21.189 8.062C18.3531 6.59927 15.189 5.88926 12 6C8.81098 5.88926 5.64694 6.59927 2.81101 8.062C3.58297 6.26435 4.86464 4.73223 6.49769 3.6549C8.13074 2.57758 10.0436 2.00225 12 2ZM12 22C10.0436 21.9977 8.13074 21.4224 6.49769 20.3451C4.86464 19.2678 3.58297 17.7357 2.81101 15.938C5.64694 17.4007 8.81098 18.1107 12 18C15.189 18.1107 18.3531 17.4007 21.189 15.938C20.417 17.7357 19.1354 19.2678 17.5023 20.3451C15.8693 21.4224 13.9564 21.9977 12 22Z" fill="currentColor"/>
</g>
<defs>
<clipPath id="clip0_403_2843">
<rect width="24" height="24" fill="white"/>
</clipPath>
</defs>
</svg>
