<svg width="24" height="24" viewBox="0 0 24 24" fill="none" xmlns="http://www.w3.org/2000/svg">
<g clip-path="url(#clip0_406_2023)">
<path d="M12 4V5C12 6.06087 11.5786 7.07828 10.8284 7.82843C10.0783 8.57857 9.06087 9 8 9H7V11H9C9.26522 11 9.51957 11.1054 9.70711 11.2929C9.89464 11.4804 10 11.7348 10 12C10 12.2652 9.89464 12.5196 9.70711 12.7071C9.51957 12.8946 9.26522 13 9 13H3C2.73478 13 2.48043 12.8946 2.29289 12.7071C2.10536 12.5196 2 12.2652 2 12C2 11.7348 2.10536 11.4804 2.29289 11.2929C2.48043 11.1054 2.73478 11 3 11H5V9H4C2.93913 9 1.92172 8.57857 1.17157 7.82843C0.421427 7.07828 0 6.06087 0 5V4C0 2.93913 0.421427 1.92172 1.17157 1.17157C1.92172 0.421427 2.93913 0 4 0L8 0C9.06087 0 10.0783 0.421427 10.8284 1.17157C11.5786 1.92172 12 2.93913 12 4ZM15 5H17C17.2652 5 17.5196 5.10536 17.7071 5.29289C17.8946 5.48043 18 5.73478 18 6V8C18 8.26522 18.1054 8.51957 18.2929 8.70711C18.4804 8.89464 18.7348 9 19 9C19.2652 9 19.5196 8.89464 19.7071 8.70711C19.8946 8.51957 20 8.26522 20 8V6C20 5.20435 19.6839 4.44129 19.1213 3.87868C18.5587 3.31607 17.7956 3 17 3H15C14.7348 3 14.4804 3.10536 14.2929 3.29289C14.1054 3.48043 14 3.73478 14 4C14 4.26522 14.1054 4.51957 14.2929 4.70711C14.4804 4.89464 14.7348 5 15 5ZM11 19H8C7.73478 19 7.48043 18.8946 7.29289 18.7071C7.10536 18.5196 7 18.2652 7 18V16C7 15.7348 6.89464 15.4804 6.70711 15.2929C6.51957 15.1054 6.26522 15 6 15C5.73478 15 5.48043 15.1054 5.29289 15.2929C5.10536 15.4804 5 15.7348 5 16V18C5 18.7956 5.31607 19.5587 5.87868 20.1213C6.44129 20.6839 7.20435 21 8 21H11C11.2652 21 11.5196 20.8946 11.7071 20.7071C11.8946 20.5196 12 20.2652 12 20C12 19.7348 11.8946 19.4804 11.7071 19.2929C11.5196 19.1054 11.2652 19 11 19ZM24 15V20C24 21.0609 23.5786 22.0783 22.8284 22.8284C22.0783 23.5786 21.0609 24 20 24H18C16.9391 24 15.9217 23.5786 15.1716 22.8284C14.4214 22.0783 14 21.0609 14 20V15C14 13.9391 14.4214 12.9217 15.1716 12.1716C15.9217 11.4214 16.9391 11 18 11H20C21.0609 11 22.0783 11.4214 22.8284 12.1716C23.5786 12.9217 24 13.9391 24 15ZM20 20C20 19.8022 19.9414 19.6089 19.8315 19.4444C19.7216 19.28 19.5654 19.1518 19.3827 19.0761C19.2 19.0004 18.9989 18.9806 18.8049 19.0192C18.6109 19.0578 18.4327 19.153 18.2929 19.2929C18.153 19.4327 18.0578 19.6109 18.0192 19.8049C17.9806 19.9989 18.0004 20.2 18.0761 20.3827C18.1518 20.5654 18.28 20.7216 18.4444 20.8315C18.6089 20.9414 18.8022 21 19 21C19.2652 21 19.5196 20.8946 19.7071 20.7071C19.8946 20.5196 20 20.2652 20 20Z" fill="currentColor"/>
</g>
<defs>
<clipPath id="clip0_406_2023">
<rect width="24" height="24" fill="white"/>
</clipPath>
</defs>
</svg>
