<svg width="24" height="24" viewBox="0 0 24 24" fill="none" xmlns="http://www.w3.org/2000/svg">
<g clip-path="url(#clip0_406_1965)">
<path d="M1.99991 7.17704V19C2.0015 20.3256 2.52879 21.5965 3.46613 22.5338C4.40347 23.4712 5.67431 23.9985 6.99991 24H16.9999C18.3255 23.9985 19.5964 23.4712 20.5337 22.5338C21.471 21.5965 21.9983 20.3256 21.9999 19V7.17704C21.9998 6.64212 21.8567 6.11695 21.5854 5.65594C21.3141 5.19492 20.9245 4.81483 20.4569 4.55504L12.4859 0.126041C12.3373 0.043381 12.17 0 11.9999 0C11.8298 0 11.6626 0.043381 11.5139 0.126041L3.54291 4.55504C3.07531 4.81483 2.68568 5.19492 2.41438 5.65594C2.14309 6.11695 1.99999 6.64212 1.99991 7.17704ZM11.9999 5.50004C12.2966 5.50004 12.5866 5.58801 12.8333 5.75284C13.0799 5.91766 13.2722 6.15193 13.3857 6.42602C13.4993 6.70011 13.529 7.00171 13.4711 7.29268C13.4132 7.58365 13.2703 7.85092 13.0606 8.0607C12.8508 8.27048 12.5835 8.41334 12.2925 8.47122C12.0016 8.5291 11.7 8.49939 11.4259 8.38586C11.1518 8.27233 10.9175 8.08007 10.7527 7.8334C10.5879 7.58672 10.4999 7.29671 10.4999 7.00004C10.4999 6.60222 10.6579 6.22069 10.9392 5.93938C11.2206 5.65808 11.6021 5.50004 11.9999 5.50004Z" fill="currentColor"/>
</g>
<defs>
<clipPath id="clip0_406_1965">
<rect width="24" height="24" fill="white"/>
</clipPath>
</defs>
</svg>
