<svg width="24" height="24" viewBox="0 0 24 24" fill="none" xmlns="http://www.w3.org/2000/svg">
<g clip-path="url(#clip0_406_2107)">
<path d="M4.94296 5.606L1.02396 9.52501C0.387588 10.1919 0.0325317 11.0782 0.0325317 12C0.0325317 12.9218 0.387588 13.8081 1.02396 14.475L4.94296 18.394C5.08133 18.5373 5.24685 18.6516 5.42986 18.7302C5.61286 18.8088 5.80969 18.8502 6.00886 18.8519C6.20803 18.8536 6.40555 18.8157 6.58989 18.7402C6.77424 18.6648 6.94172 18.5534 7.08256 18.4126C7.2234 18.2718 7.33477 18.1043 7.4102 17.9199C7.48562 17.7356 7.52357 17.5381 7.52184 17.3389C7.52011 17.1397 7.47873 16.9429 7.40012 16.7599C7.3215 16.5769 7.20723 16.4114 7.06396 16.273L4.28496 13.492L22.535 13.469C22.9328 13.469 23.3143 13.311 23.5956 13.0297C23.8769 12.7484 24.035 12.3668 24.035 11.969C24.035 11.5712 23.8769 11.1897 23.5956 10.9083C23.3143 10.627 22.9328 10.469 22.535 10.469L4.29996 10.492L7.06396 7.72701C7.3372 7.4441 7.48839 7.0652 7.48497 6.6719C7.48156 6.27861 7.3238 5.90239 7.04569 5.62428C6.76758 5.34616 6.39136 5.18841 5.99806 5.18499C5.60477 5.18158 5.22587 5.33277 4.94296 5.606Z" fill="currentColor"/>
</g>
<defs>
<clipPath id="clip0_406_2107">
<rect width="24" height="24" fill="white"/>
</clipPath>
</defs>
</svg>
