<svg width="24" height="24" viewBox="0 0 24 24" fill="none" xmlns="http://www.w3.org/2000/svg">
<g clip-path="url(#clip0_406_1989)">
<path d="M17.0002 24H7.00515C6.42676 23.9994 5.85531 23.8741 5.3298 23.6325C4.80429 23.3908 4.33711 23.0387 3.96015 22.6C3.58932 22.1705 3.31553 21.666 3.15745 21.121C2.99937 20.576 2.96072 20.0033 3.04415 19.442C3.58065 16.5173 5.14078 13.8792 7.44515 12C5.14075 10.1202 3.58094 7.48124 3.04515 4.556C2.96189 3.99509 3.00052 3.42283 3.15842 2.8782C3.31632 2.33357 3.58978 1.82939 3.96015 1.4C4.33711 0.961326 4.80429 0.60916 5.3298 0.367548C5.85531 0.125935 6.42676 0.000566288 7.00515 0L17.0002 0C17.5784 0.000512143 18.1497 0.125862 18.6751 0.367483C19.2004 0.609104 19.6674 0.9613 20.0442 1.4C20.415 1.82895 20.689 2.33285 20.8475 2.87732C21.0059 3.42179 21.045 3.99403 20.9622 4.555C20.4205 7.48095 18.8572 10.1194 16.5512 12C18.8559 13.8822 20.4174 16.5217 20.9572 19.448C21.0401 20.0091 21.001 20.5815 20.8426 21.1262C20.6842 21.6708 20.4101 22.1749 20.0392 22.604C19.6626 23.0413 19.1963 23.3924 18.6718 23.6333C18.1474 23.8742 17.5773 23.9993 17.0002 24Z" fill="currentColor"/>
</g>
<defs>
<clipPath id="clip0_406_1989">
<rect width="24" height="24" fill="white"/>
</clipPath>
</defs>
</svg>
