<svg width="24" height="24" viewBox="0 0 24 24" fill="none" xmlns="http://www.w3.org/2000/svg">
<path d="M22.1011 5.03342C21.2055 3.44117 19.6133 2.54553 17.8219 2.54553H5.97947C4.18819 2.54553 2.59589 3.44117 1.70025 5.03342C0.605578 7.02374 0.00848389 9.21313 0.00848389 11.502C0.00848389 16.9754 2.19783 21.4536 4.98431 21.4536C6.47705 21.4536 7.67128 20.0604 8.56692 17.1744C8.66644 16.7764 9.0645 16.4778 9.56208 16.4778H14.4384C14.8365 16.4778 15.2345 16.7764 15.4335 17.1744C16.3292 20.0604 17.5234 21.4536 19.0162 21.4536C21.8026 21.4536 23.992 16.9754 23.992 11.502C23.793 9.21308 23.1959 7.02374 22.1011 5.03342ZM8.96498 10.5068H7.96983V11.502C7.96983 12.0991 7.57177 12.4971 6.97467 12.4971C6.37758 12.4971 5.97952 12.0991 5.97952 11.502V10.5068H4.98436C4.38727 10.5068 3.9892 10.1088 3.9892 9.51167C3.9892 8.91458 4.38727 8.51652 4.98436 8.51652H5.97952V7.52136C5.97952 6.92427 6.37758 6.5262 6.97467 6.5262C7.57177 6.5262 7.96983 6.92427 7.96983 7.52136V8.51652H8.96498C9.56208 8.51652 9.96014 8.91458 9.96014 9.51167C9.96014 10.1088 9.56208 10.5068 8.96498 10.5068ZM15.5331 12.4971C14.7369 12.4971 14.0403 11.8005 14.0403 11.0044C14.0403 10.2083 14.7369 9.51167 15.5331 9.51167C16.3292 9.51167 17.0258 10.2083 17.0258 11.0044C17.0258 11.8005 16.2297 12.4971 15.5331 12.4971ZM18.4191 9.51167C17.7225 9.51167 16.9263 8.81506 16.9263 8.01894C16.9263 7.22281 17.7225 6.5262 18.4191 6.5262C19.1157 6.5262 19.9118 7.22281 19.9118 8.01894C19.9118 8.81506 19.2152 9.51167 18.4191 9.51167Z" fill="currentColor"/>
</svg>
