<svg width="24" height="24" viewBox="0 0 24 24" fill="none" xmlns="http://www.w3.org/2000/svg">
<g clip-path="url(#clip0_406_1886)">
<path d="M22.8308 9.17111L18.9518 5.29211C18.5545 4.90844 17.9215 4.91946 17.5378 5.31672C17.1635 5.70424 17.1635 6.31863 17.5378 6.70614L21.4168 10.5851C21.5321 10.7027 21.6328 10.8336 21.7168 10.9751C21.7018 10.9751 21.6898 10.9671 21.6748 10.9671L5.99083 10.9991C5.43855 10.9991 4.99084 11.4468 4.99084 11.9991C4.99084 12.5514 5.43855 12.9991 5.99083 12.9991L21.6688 12.9671C21.6968 12.9671 21.7198 12.9531 21.7468 12.9511C21.6581 13.1203 21.5456 13.2759 21.4128 13.4131L17.5338 17.2921C17.1366 17.6758 17.1256 18.3088 17.5092 18.7061C17.8929 19.1034 18.526 19.1144 18.9232 18.7307C18.9316 18.7226 18.9398 18.7144 18.9478 18.7061L22.8268 14.8271C24.3884 13.2651 24.3884 10.7331 22.8268 9.17111H22.8308Z" fill="currentColor"/>
<path d="M7.00188 22H5.00186C3.34502 22 2.00186 20.6568 2.00186 19V5.00002C2.00186 3.34317 3.34502 2.00002 5.00186 2.00002H7.00188C7.55416 2.00002 8.00186 1.55231 8.00186 1.00003C8.00186 0.44775 7.5542 0 7.00188 0H5.00186C2.24186 0.00332812 0.00522021 2.23997 0.00189209 5.00002V19C0.00522021 21.76 2.24186 23.9967 5.00191 24H7.00192C7.5542 24 8.00191 23.5523 8.00191 23C8.00191 22.4477 7.5542 22 7.00188 22Z" fill="currentColor"/>
</g>
<defs>
<clipPath id="clip0_406_1886">
<rect width="24" height="24" fill="white"/>
</clipPath>
</defs>
</svg>
