<svg width="24" height="24" viewBox="0 0 24 24" fill="none" xmlns="http://www.w3.org/2000/svg">
<g clip-path="url(#clip0_406_2166)">
<path d="M14 7C14 5.14349 13.2625 3.36301 11.9497 2.05025C10.637 0.737498 8.85652 0 7 0C5.14349 0 3.36301 0.737498 2.05025 2.05025C0.737498 3.36301 0 5.14349 0 7C0 10.971 2.257 15.485 5.39 16.685C5.17323 17.046 5.03997 17.4509 5 17.87C5 19.441 6.489 20.137 7.576 20.646C8.176 20.926 9 21.311 9 21.609C8.91853 21.9195 8.77272 22.2095 8.572 22.46C8.50109 22.5706 8.45265 22.694 8.42945 22.8233C8.40624 22.9526 8.40874 23.0852 8.43678 23.2135C8.46482 23.3419 8.51787 23.4634 8.59289 23.5713C8.66791 23.6791 8.76343 23.7711 8.874 23.842C9.09731 23.9852 9.36837 24.0339 9.62755 23.9772C9.75588 23.9492 9.87743 23.8961 9.98526 23.8211C10.0931 23.7461 10.1851 23.6506 10.256 23.54C10.6804 22.979 10.9383 22.3098 11 21.609C11 20.038 9.511 19.342 8.424 18.834C7.824 18.553 7 18.168 6.991 17.969C7.14303 17.6108 7.33347 17.2701 7.559 16.953C11.227 16.475 14 11.4 14 7ZM9.176 10.47C9.6368 9.72092 9.91877 8.87571 10 8C10 7.73478 10.1054 7.48043 10.2929 7.29289C10.4804 7.10536 10.7348 7 11 7C11.2652 7 11.5196 7.10536 11.7071 7.29289C11.8946 7.48043 12 7.73478 12 8C11.9182 9.25133 11.5305 10.4635 10.871 11.53C10.8014 11.6416 10.7105 11.7384 10.6035 11.8149C10.4965 11.8914 10.3754 11.9461 10.2473 11.9758C10.1191 12.0055 9.98639 12.0097 9.85663 11.9881C9.72686 11.9665 9.60262 11.9196 9.491 11.85C9.37938 11.7804 9.28256 11.6895 9.20606 11.5825C9.12957 11.4755 9.07491 11.3544 9.04519 11.2263C9.01548 11.0981 9.01129 10.9654 9.03288 10.8356C9.05447 10.7059 9.1014 10.5816 9.171 10.47H9.176ZM19.5 18.589C18.818 18.227 18.114 17.852 18.016 17.427C17.97 17.234 17.991 16.799 18.531 15.954C21.7 15.5 24 11.025 24 7C24.0279 6.20454 23.8919 5.41185 23.6002 4.67126C23.3086 3.93067 22.8676 3.25803 22.3048 2.69521C21.742 2.13239 21.0693 1.69143 20.3287 1.39979C19.5882 1.10815 18.7955 0.972063 18 1C16.7554 0.983245 15.535 1.34449 14.5 2.036C15.4793 3.50618 16.0013 5.23349 16 7C15.9509 9.37959 15.3396 11.7138 14.216 13.812C14.7877 14.5962 15.5431 15.228 16.416 15.652C16.0469 16.3328 15.9226 17.1196 16.064 17.881C16.37 19.191 17.583 19.836 18.558 20.355C19.174 20.683 19.871 21.055 19.977 21.423C20.0033 21.8083 19.8916 22.1904 19.662 22.501C19.5953 22.6148 19.5518 22.7406 19.5339 22.8713C19.516 23.0019 19.5242 23.1348 19.5579 23.2623C19.5916 23.3898 19.6502 23.5094 19.7303 23.6142C19.8104 23.7189 19.9105 23.8068 20.0247 23.8728C20.1389 23.9387 20.265 23.9814 20.3958 23.9984C20.5266 24.0154 20.6594 24.0064 20.7867 23.9718C20.914 23.9373 21.0331 23.8779 21.1374 23.7971C21.2416 23.7163 21.3288 23.6156 21.394 23.501C21.6554 23.1219 21.8354 22.6927 21.9225 22.2406C22.0096 21.7884 22.0019 21.3231 21.9 20.874C21.6776 20.3492 21.3498 19.8756 20.937 19.4826C20.5242 19.0896 20.0351 18.7854 19.5 18.589ZM19.175 10.47C19.6362 9.72101 19.9185 8.87579 20 8C20 7.73478 20.1054 7.48043 20.2929 7.29289C20.4804 7.10536 20.7348 7 21 7C21.2652 7 21.5196 7.10536 21.7071 7.29289C21.8946 7.48043 22 7.73478 22 8C21.9182 9.25133 21.5305 10.4635 20.871 11.53C20.7304 11.7554 20.5061 11.9158 20.2473 11.9758C19.9885 12.0358 19.7164 11.9906 19.491 11.85C19.2656 11.7094 19.1052 11.4851 19.0452 11.2263C18.9852 10.9675 19.0304 10.6954 19.171 10.47H19.175Z" fill="currentColor"/>
</g>
<defs>
<clipPath id="clip0_406_2166">
<rect width="24" height="24" fill="white"/>
</clipPath>
</defs>
</svg>
