<svg width="24" height="24" viewBox="0 0 24 24" fill="none" xmlns="http://www.w3.org/2000/svg">
<g clip-path="url(#clip0_406_2028)">
<path d="M16.585 9.61593L15.21 5.99993H17.632C18.5529 6.00215 19.4605 6.22045 20.2816 6.63729C21.1028 7.05412 21.8147 7.65786 22.36 8.39993L23.147 9.47493C23.4824 9.93248 23.7269 10.4502 23.867 10.9999H16.952C16.881 10.5265 16.758 10.0623 16.585 9.61593ZM12 3.99993C12.2652 3.99993 12.5196 3.89457 12.7071 3.70704C12.8947 3.5195 13 3.26515 13 2.99993V0.99993C13 0.734713 12.8947 0.480359 12.7071 0.292823C12.5196 0.105286 12.2652 -7.04907e-05 12 -7.04907e-05C11.7348 -7.04907e-05 11.4805 0.105286 11.2929 0.292823C11.1054 0.480359 11 0.734713 11 0.99993V2.99993C11 3.26515 11.1054 3.5195 11.2929 3.70704C11.4805 3.89457 11.7348 3.99993 12 3.99993ZM14.722 10.3429L13.071 5.99993H10.938L9.26003 10.4519C9.19567 10.6312 9.14223 10.8142 9.10003 10.9999H14.921C14.8711 10.7763 14.8046 10.5567 14.722 10.3429ZM16.553 3.89993C16.6711 3.95929 16.7998 3.99466 16.9316 4.004C17.0634 4.01334 17.1957 3.99646 17.321 3.95434C17.4463 3.91222 17.5619 3.84568 17.6613 3.75859C17.7607 3.6715 17.8418 3.56557 17.9 3.44693L18.9 1.44693C19.0186 1.20956 19.038 0.934819 18.954 0.683146C18.87 0.431472 18.6894 0.223481 18.452 0.10493C18.2147 -0.0136223 17.9399 -0.0330241 17.6882 0.0509922C17.4366 0.135009 17.2286 0.315561 17.11 0.552929L16.11 2.55293C16.0503 2.67039 16.0144 2.7985 16.0044 2.92989C15.9943 3.06127 16.0103 3.19335 16.0515 3.31852C16.0927 3.4437 16.1582 3.5595 16.2442 3.65928C16.3303 3.75906 16.4353 3.84084 16.553 3.89993ZM11.988 18.8869L14.774 13.6339C14.8447 13.4268 14.9005 13.215 14.941 12.9999H9.00003C9.04499 13.2575 9.1119 13.5108 9.20003 13.7569L11.988 18.8869ZM7.40003 9.72893L8.80003 5.99993H6.38303C5.48106 6.00228 4.59166 6.21169 3.78339 6.61202C2.97511 7.01234 2.26954 7.59289 1.72103 8.30893L0.900033 9.38293C0.538297 9.86386 0.279889 10.4144 0.141033 10.9999H7.04103C7.1179 10.5653 7.23817 10.1395 7.40003 9.72893ZM16.969 12.9999C16.906 13.4778 16.7907 13.9473 16.625 14.3999C16.61 14.4399 12.869 21.4739 12.866 21.4749C12.7846 21.6332 12.6613 21.766 12.5095 21.8591C12.3578 21.9521 12.1834 22.0017 12.0055 22.0025C11.8275 22.0034 11.6527 21.9554 11.5001 21.8637C11.3475 21.7721 11.223 21.6404 11.14 21.4829C11.14 21.4829 7.36603 14.5709 7.35003 14.5279C7.17091 14.0346 7.05139 13.5216 6.99403 12.9999H0.121033C0.305971 13.8947 0.771123 14.7073 1.44903 15.3199L9.43903 23.0269C10.1408 23.6528 11.0487 23.9978 11.989 23.9959C12.9493 23.994 13.875 23.638 14.589 22.9959L22.525 15.3629C23.2204 14.741 23.6987 13.913 23.89 12.9999H16.969ZM6.10503 3.44693C6.22358 3.68496 6.43184 3.86615 6.68398 3.95063C6.93612 4.03512 7.2115 4.01598 7.44953 3.89743C7.68756 3.77888 7.86875 3.57062 7.95324 3.31848C8.03772 3.06634 8.01858 2.79096 7.90003 2.55293L6.90003 0.552929C6.84133 0.435396 6.76006 0.330576 6.66085 0.244454C6.56164 0.158331 6.44643 0.0925929 6.32182 0.0509922C6.07014 -0.0330241 5.7954 -0.0136223 5.55803 0.10493C5.32066 0.223481 5.14011 0.431472 5.0561 0.683146C4.97208 0.934819 4.99148 1.20956 5.11003 1.44693L6.10503 3.44693Z" fill="currentColor"/>
</g>
<defs>
<clipPath id="clip0_406_2028">
<rect width="24" height="24" fill="white"/>
</clipPath>
</defs>
</svg>
