<svg width="24" height="24" viewBox="0 0 24 24" fill="none" xmlns="http://www.w3.org/2000/svg">
<g clip-path="url(#clip0_406_1826)">
<path d="M12 14C16.276 14 19.634 7.708 20.665 3.945C20.4015 3.24199 19.9821 2.60787 19.4382 2.09033C18.8944 1.57279 18.2402 1.1853 17.525 0.957C15.7433 0.356516 13.8799 0.0337401 12 0C10.1203 0.0340187 8.25691 0.356442 6.47502 0.956C5.75985 1.18467 5.10578 1.57241 4.56195 2.09009C4.01811 2.60778 3.59863 3.24196 3.33502 3.945C4.36602 7.708 7.72402 14 12 14ZM10 3H14C14.2652 3 14.5196 3.10536 14.7071 3.29289C14.8947 3.48043 15 3.73478 15 4C15 4.26522 14.8947 4.51957 14.7071 4.70711C14.5196 4.89464 14.2652 5 14 5H10C9.73481 5 9.48045 4.89464 9.29291 4.70711C9.10538 4.51957 9.00002 4.26522 9.00002 4C9.00002 3.73478 9.10538 3.48043 9.29291 3.29289C9.48045 3.10536 9.73481 3 10 3ZM21 8.585C19.109 12.323 15.971 16 12 16C8.02902 16 4.89102 12.323 3.00002 8.585V16.177C3.00011 17.4333 3.47314 18.6436 4.32502 19.567L3.07602 22.621C3.0242 22.7429 2.99712 22.8739 2.99635 23.0064C2.99559 23.1389 3.02115 23.2702 3.07156 23.3927C3.12196 23.5152 3.19621 23.6265 3.28998 23.72C3.38376 23.8136 3.49519 23.8876 3.6178 23.9378C3.74042 23.9879 3.87178 24.0132 4.00425 24.0121C4.13672 24.0111 4.26766 23.9837 4.38947 23.9317C4.51127 23.8796 4.62152 23.8038 4.7138 23.7088C4.80608 23.6137 4.87856 23.5013 4.92702 23.378L6.00002 20.745C7.87827 21.6151 9.93052 22.0443 12 22C14.0696 22.0447 16.1219 21.6154 18 20.745L19.077 23.378C19.1267 23.4996 19.1999 23.6102 19.2924 23.7036C19.3848 23.7969 19.4947 23.8711 19.6159 23.9219C19.737 23.9728 19.867 23.9992 19.9983 23.9999C20.1297 24.0005 20.2599 23.9752 20.3815 23.9255C20.5031 23.8758 20.6137 23.8026 20.7071 23.7102C20.8004 23.6177 20.8746 23.5078 20.9254 23.3866C20.9763 23.2655 21.0028 23.1355 21.0034 23.0042C21.004 22.8728 20.9787 22.7426 20.929 22.621L19.679 19.567C20.5294 18.643 21.001 17.4328 21 16.177V8.585ZM12 20C11.8022 20 11.6089 19.9414 11.4445 19.8315C11.28 19.7216 11.1518 19.5654 11.0761 19.3827C11.0005 19.2 10.9807 18.9989 11.0192 18.8049C11.0578 18.6109 11.1531 18.4327 11.2929 18.2929C11.4328 18.153 11.6109 18.0578 11.8049 18.0192C11.9989 17.9806 12.2 18.0004 12.3827 18.0761C12.5654 18.1518 12.7216 18.28 12.8315 18.4444C12.9414 18.6089 13 18.8022 13 19C13 19.2652 12.8947 19.5196 12.7071 19.7071C12.5196 19.8946 12.2652 20 12 20Z" fill="currentColor"/>
</g>
<defs>
<clipPath id="clip0_406_1826">
<rect width="24" height="24" fill="white"/>
</clipPath>
</defs>
</svg>
