<svg width="24" height="24" viewBox="0 0 24 24" fill="none" xmlns="http://www.w3.org/2000/svg">
<g clip-path="url(#clip0_406_2176)">
<path d="M3.99982 6H1.99982C1.99984 4.97984 2.38966 3.99823 3.08952 3.25598C3.78939 2.51373 4.74641 2.06694 5.76482 2.007C6.16547 1.41419 6.70145 0.925226 7.32846 0.580535C7.95547 0.235843 8.65551 0.0453156 9.37072 0.0246995C10.0859 0.00408336 10.7958 0.15397 11.4416 0.461972C12.0874 0.769975 12.6507 1.22725 13.0848 1.796C13.1479 1.87663 13.2308 1.93954 13.3254 1.97862C13.4201 2.0177 13.5232 2.03161 13.6248 2.019C14.4435 1.945 15.2655 2.11923 15.9838 2.519C16.6044 2.86128 17.1201 3.36621 17.4752 3.97953C17.8304 4.59284 18.0118 5.29136 17.9998 6H11.9998C11.2042 6 10.4411 6.31608 9.8785 6.87868C9.31589 7.44129 8.99982 8.20436 8.99982 9V13C8.99982 13.2652 8.89446 13.5196 8.70692 13.7071C8.51939 13.8946 8.26503 14 7.99982 14C7.7346 14 7.48025 13.8946 7.29271 13.7071C7.10517 13.5196 6.99982 13.2652 6.99982 13V9C6.99982 8.20436 6.68375 7.44129 6.12114 6.87868C5.55853 6.31608 4.79547 6 3.99982 6ZM22.9998 13.5V16.5C22.9998 17.4283 22.6311 18.3185 21.9747 18.9749C21.3183 19.6313 20.4281 20 19.4998 20H18.8998C18.6677 21.1286 18.0536 22.1427 17.1611 22.8713C16.2685 23.5999 15.152 23.9986 13.9998 24H5.99982C4.67422 23.9984 3.40337 23.4711 2.46604 22.5338C1.5287 21.5964 1.0014 20.3256 0.999817 19V9C0.999817 8.73479 1.10517 8.48043 1.29271 8.2929C1.48025 8.10536 1.7346 8 1.99982 8H3.99982C4.26503 8 4.51939 8.10536 4.70692 8.2929C4.89446 8.48043 4.99982 8.73479 4.99982 9V13C4.99982 13.7957 5.31589 14.5587 5.8785 15.1213C6.44111 15.6839 7.20417 16 7.99982 16C8.79547 16 9.55853 15.6839 10.1211 15.1213C10.6837 14.5587 10.9998 13.7957 10.9998 13V9C10.9998 8.73479 11.1052 8.48043 11.2927 8.2929C11.4802 8.10536 11.7346 8 11.9998 8H17.9998C18.265 8 18.5194 8.10536 18.7069 8.2929C18.8945 8.48043 18.9998 8.73479 18.9998 9V10H19.4998C20.4281 10 21.3183 10.3688 21.9747 11.0251C22.6311 11.6815 22.9998 12.5717 22.9998 13.5ZM20.9998 13.5C20.9998 13.1022 20.8418 12.7206 20.5605 12.4393C20.2792 12.158 19.8976 12 19.4998 12H18.9998V18H19.4998C19.8976 18 20.2792 17.842 20.5605 17.5607C20.8418 17.2794 20.9998 16.8978 20.9998 16.5V13.5Z" fill="currentColor"/>
</g>
<defs>
<clipPath id="clip0_406_2176">
<rect width="24" height="24" fill="white"/>
</clipPath>
</defs>
</svg>
