<svg width="24" height="24" viewBox="0 0 24 24" fill="none" xmlns="http://www.w3.org/2000/svg">
<g clip-path="url(#clip0_406_2220)">
<path d="M5.86823 15.5831C4.81357 14.6089 4.00912 13.3949 3.52295 12.044C3.03679 10.6931 2.88321 9.2449 3.07523 7.82205C3.2651 6.37931 3.80197 5.00413 4.63982 3.81436C5.47768 2.6246 6.59153 1.65574 7.88591 0.990821C9.18029 0.325905 10.6166 -0.015236 12.0717 -0.00336245C13.5269 0.00851106 14.9574 0.373045 16.2408 1.059C17.5241 1.74495 18.622 2.73185 19.4404 3.93513C20.2587 5.13841 20.773 6.52217 20.9393 7.96782C21.1056 9.41346 20.9189 10.8779 20.3952 12.2355C19.8714 13.5932 19.0263 14.8036 17.9322 15.7631C17.2277 16.3687 16.6807 17.1364 16.3382 18.0001H13.0002V10.8161C13.5831 10.61 14.0881 10.2288 14.4461 9.72475C14.8041 9.22068 14.9977 8.61831 15.0002 8.00005C15.0002 7.73483 14.8949 7.48048 14.7073 7.29294C14.5198 7.10541 14.2655 7.00005 14.0002 7.00005C13.735 7.00005 13.4807 7.10541 13.2931 7.29294C13.1056 7.48048 13.0002 7.73483 13.0002 8.00005C13.0002 8.26527 12.8949 8.51962 12.7073 8.70716C12.5198 8.89469 12.2655 9.00005 12.0002 9.00005C11.735 9.00005 11.4807 8.89469 11.2931 8.70716C11.1056 8.51962 11.0002 8.26527 11.0002 8.00005C11.0002 7.73483 10.8949 7.48048 10.7073 7.29294C10.5198 7.10541 10.2655 7.00005 10.0002 7.00005C9.73502 7.00005 9.48066 7.10541 9.29313 7.29294C9.10559 7.48048 9.00023 7.73483 9.00023 8.00005C9.0028 8.61831 9.19632 9.22068 9.55432 9.72475C9.91232 10.2288 10.4173 10.61 11.0002 10.8161V18.0001H7.56323C7.18093 17.0806 6.60246 16.2557 5.86823 15.5831ZM8.00023 20.0001V20.3101C8.00129 21.2884 8.3904 22.2263 9.08218 22.9181C9.77396 23.6099 10.7119 23.999 11.6902 24.0001H12.3102C13.2886 23.999 14.2265 23.6099 14.9183 22.9181C15.6101 22.2263 15.9992 21.2884 16.0002 20.3101V20.0001H8.00023Z" fill="currentColor"/>
</g>
<defs>
<clipPath id="clip0_406_2220">
<rect width="24" height="24" fill="white"/>
</clipPath>
</defs>
</svg>
