<svg width="24" height="24" viewBox="0 0 24 24" fill="none" xmlns="http://www.w3.org/2000/svg">
<g clip-path="url(#clip0_406_1918)">
<path d="M20.036 24.0003H3.96395C3.28814 24.0018 2.6232 23.8302 2.03257 23.5018C1.44194 23.1733 0.945331 22.699 0.59012 22.124C0.23491 21.5491 0.0329505 20.8927 0.00351079 20.2176C-0.025929 19.5424 0.118133 18.8709 0.421953 18.2673L8.45895 2.18927C8.76533 1.56982 9.22956 1.04206 9.80487 0.659168C10.3802 0.276273 11.0462 0.0517687 11.736 0.00827471C12.5142 -0.041249 13.2897 0.139092 13.9663 0.526869C14.6428 0.914645 15.1904 1.49275 15.541 2.18927L23.578 18.2673C23.88 18.8711 24.0227 19.5422 23.9924 20.2167C23.9622 20.8912 23.76 21.5468 23.4052 22.1212C23.0503 22.6956 22.5545 23.1697 21.9648 23.4986C21.3751 23.8275 20.7111 24.0002 20.036 24.0003Z" fill="currentColor"/>
</g>
<defs>
<clipPath id="clip0_406_1918">
<rect width="24" height="24" fill="white"/>
</clipPath>
</defs>
</svg>
