<svg width="24" height="24" viewBox="0 0 24 24" fill="none" xmlns="http://www.w3.org/2000/svg">
<g clip-path="url(#clip0_406_2093)">
<path d="M19.9999 0.000135962H18.2429C17.7173 -0.0012536 17.1966 0.101615 16.711 0.302788C16.2254 0.503961 15.7845 0.799444 15.4139 1.17214L12.1719 4.41414C11.4237 5.16547 11.0025 6.18184 10.9999 7.24214V10.9901C8.1449 12.9761 3.4909 16.2661 2.87891 16.8791C2.4438 17.3171 2.1548 17.879 2.0515 18.4877C1.9482 19.0964 2.03567 19.7221 2.30191 20.2791L0.292908 22.2931C0.105437 22.4807 0.00012207 22.735 0.00012207 23.0001C0.00012207 23.2653 0.105437 23.5196 0.292908 23.7071C0.480436 23.8946 0.734743 23.9999 0.999907 23.9999C1.26507 23.9999 1.51938 23.8946 1.70691 23.7071L3.7139 21.7001C4.27105 21.9719 4.89935 22.0622 5.51048 21.9583C6.1216 21.8545 6.6848 21.5617 7.1209 21.1211C7.7339 20.5091 11.0209 15.8551 13.0099 13.0001H16.7569C17.2825 13.0015 17.8032 12.8987 18.2888 12.6975C18.7744 12.4963 19.2152 12.2008 19.5859 11.8281L22.8279 8.58614C23.576 7.83481 23.9973 6.81844 23.9999 5.75814V4.00014C23.9999 2.93927 23.5785 1.92185 22.8283 1.17171C22.0782 0.421563 21.0607 0.000135962 19.9999 0.000135962ZM19.7069 5.70714L14.7069 10.7071C14.5183 10.8893 14.2657 10.9901 14.0035 10.9878C13.7413 10.9855 13.4905 10.8804 13.3051 10.695C13.1197 10.5095 13.0145 10.2587 13.0122 9.99654C13.0099 9.73434 13.1107 9.48174 13.2929 9.29314L18.2929 4.29314C18.3851 4.19763 18.4955 4.12144 18.6175 4.06903C18.7395 4.01663 18.8707 3.98904 19.0035 3.98789C19.1363 3.98673 19.2679 4.01203 19.3908 4.06231C19.5137 4.1126 19.6254 4.18685 19.7193 4.28074C19.8132 4.37463 19.8874 4.48629 19.9377 4.60918C19.988 4.73208 20.0133 4.86376 20.0121 4.99654C20.011 5.12932 19.9834 5.26054 19.931 5.38254C19.8786 5.50454 19.8024 5.61489 19.7069 5.70714Z" fill="currentColor"/>
</g>
<defs>
<clipPath id="clip0_406_2093">
<rect width="24" height="24" fill="white"/>
</clipPath>
</defs>
</svg>
