<svg width="24" height="24" viewBox="0 0 24 24" fill="none" xmlns="http://www.w3.org/2000/svg">
<g clip-path="url(#clip0_406_1992)">
<path d="M13 10C13 10.1978 12.9414 10.3911 12.8315 10.5556C12.7216 10.72 12.5654 10.8482 12.3827 10.9239C12.2 10.9996 11.9989 11.0194 11.8049 10.9808C11.6109 10.9422 11.4328 10.847 11.2929 10.7071C11.153 10.5673 11.0578 10.3891 11.0192 10.1951C10.9806 10.0011 11.0004 9.80004 11.0761 9.61732C11.1518 9.43459 11.28 9.27841 11.4444 9.16853C11.6089 9.05865 11.8022 9 12 9C12.2652 9 12.5196 9.10536 12.7071 9.29289C12.8946 9.48043 13 9.73479 13 10ZM24 12C24 14.3734 23.2962 16.6935 21.9776 18.6668C20.6591 20.6402 18.7849 22.1783 16.5922 23.0866C14.3995 23.9948 11.9867 24.2324 9.65892 23.7694C7.33115 23.3064 5.19295 22.1635 3.51472 20.4853C1.83649 18.8071 0.693605 16.6689 0.230582 14.3411C-0.232441 12.0133 0.00519943 9.60051 0.913451 7.4078C1.8217 5.21509 3.35977 3.34094 5.33316 2.02236C7.30655 0.703788 9.62663 0 12 0C15.1815 0.00344108 18.2318 1.26883 20.4815 3.51852C22.7312 5.76821 23.9966 8.81846 24 12ZM15 10C15.0023 9.44948 14.853 8.90895 14.5686 8.4376C14.2842 7.96625 13.8755 7.58225 13.3874 7.32766C12.8993 7.07307 12.3505 6.95769 11.8012 6.99418C11.2519 7.03066 10.7232 7.21759 10.2731 7.53451C9.82291 7.85142 9.46863 8.28609 9.24903 8.79091C9.02944 9.29574 8.95298 9.85126 9.02805 10.3966C9.10312 10.942 9.32681 11.4562 9.67462 11.883C10.0224 12.3097 10.481 12.6325 11 12.816V16C11 16.2652 11.1054 16.5196 11.2929 16.7071C11.4804 16.8946 11.7348 17 12 17C12.2652 17 12.5196 16.8946 12.7071 16.7071C12.8946 16.5196 13 16.2652 13 16V12.816C13.5829 12.6099 14.0879 12.2288 14.4459 11.7247C14.8039 11.2206 14.9974 10.6183 15 10Z" fill="currentColor"/>
</g>
<defs>
<clipPath id="clip0_406_1992">
<rect width="24" height="24" fill="white"/>
</clipPath>
</defs>
</svg>
