<svg width="24" height="24" viewBox="0 0 24 24" fill="none" xmlns="http://www.w3.org/2000/svg">
<g clip-path="url(#clip0_406_1899)">
<path d="M10.4201 20.656C9.61649 20.6553 8.83411 20.3977 8.18714 19.921L1.54614 15.051C1.06743 14.6995 0.678189 14.2402 0.409901 13.7103C0.141614 13.1805 0.0018158 12.5949 0.0018158 12.001C0.0018158 11.4071 0.141614 10.8215 0.409901 10.2917C0.678189 9.76179 1.06743 9.30252 1.54614 8.951L8.18714 4.081C8.73181 3.68075 9.37378 3.43374 10.0463 3.36567C10.7188 3.2976 11.3972 3.41095 12.011 3.69392C12.6249 3.9769 13.1517 4.41918 13.5367 4.97475C13.9216 5.53031 14.1507 6.17888 14.2001 6.853L17.9821 4.079C18.546 3.66655 19.2131 3.41825 19.9094 3.36161C20.6057 3.30498 21.3041 3.44221 21.9272 3.75812C22.5503 4.07403 23.0738 4.55627 23.4397 5.15141C23.8056 5.74656 23.9996 6.43138 24.0001 7.13V16.87C24 17.5691 23.8061 18.2545 23.4401 18.8502C23.074 19.4458 22.5502 19.9284 21.9265 20.2444C21.3029 20.5604 20.6039 20.6975 19.9071 20.6404C19.2104 20.5833 18.543 20.3343 17.9791 19.921L14.2001 17.147C14.1293 18.1005 13.7006 18.9919 13.0002 19.6426C12.2997 20.2934 11.3792 20.6553 10.4231 20.656H10.4201Z" fill="currentColor"/>
</g>
<defs>
<clipPath id="clip0_406_1899">
<rect width="24" height="24" fill="white"/>
</clipPath>
</defs>
</svg>
