<svg width="24" height="24" viewBox="0 0 24 24" fill="none" xmlns="http://www.w3.org/2000/svg">
<g clip-path="url(#clip0_406_2138)">
<path d="M22.466 8.4641L15.536 1.5331C14.5972 0.597087 13.3257 0.0714722 12 0.0714722C10.6743 0.0714722 9.40276 0.597087 8.464 1.5331L1.534 8.4641C0.596645 9.40174 0.0700684 10.6733 0.0700684 11.9991C0.0700684 13.3249 0.596645 14.5965 1.534 15.5341L8.464 22.4651C9.40263 23.4014 10.6743 23.9271 12 23.9271C13.3257 23.9271 14.5974 23.4014 15.536 22.4651L22.466 15.5341C23.4034 14.5965 23.9299 13.3249 23.9299 11.9991C23.9299 10.6733 23.4034 9.40174 22.466 8.4641Z" fill="currentColor"/>
</g>
<defs>
<clipPath id="clip0_406_2138">
<rect width="24" height="24" fill="white"/>
</clipPath>
</defs>
</svg>
