<svg width="24" height="24" viewBox="0 0 24 24" fill="none" xmlns="http://www.w3.org/2000/svg">
<g clip-path="url(#clip0_406_2194)">
<path d="M10.007 3L8 2.986C7.9963 2.19278 7.67859 1.43331 7.11639 0.873724C6.55418 0.314139 5.79323 -8.63726e-06 5 1.78109e-10L3 1.7811e-10C2.20435 1.7811e-10 1.44129 0.31607 0.87868 0.87868C0.31607 1.44129 0 2.20435 0 3L0 5C-2.16263e-06 5.79444 0.315107 6.55644 0.876203 7.11885C1.4373 7.68126 2.19856 7.99815 2.993 8L2.979 9.993C2.97808 10.1244 3.00306 10.2547 3.05253 10.3764C3.102 10.4982 3.17497 10.609 3.26729 10.7025C3.3596 10.796 3.46945 10.8704 3.59054 10.9215C3.71163 10.9725 3.84159 10.9992 3.973 11H3.979C4.24301 11 4.49631 10.8956 4.68364 10.7096C4.87098 10.5236 4.97715 10.271 4.979 10.007L4.993 8H5C5.79565 8 6.55871 7.68393 7.12132 7.12132C7.68393 6.55871 8 5.79565 8 5V4.986L9.993 5H10C10.1313 5.00046 10.2614 4.97505 10.3829 4.92522C10.5045 4.87539 10.6149 4.80212 10.7081 4.70958C10.8013 4.61705 10.8754 4.50707 10.926 4.38592C10.9767 4.26477 11.003 4.13482 11.0035 4.0035C11.004 3.87218 10.9785 3.74205 10.9287 3.62055C10.8789 3.49905 10.8056 3.38855 10.7131 3.29537C10.6205 3.20218 10.5106 3.12814 10.3894 3.07746C10.2683 3.02678 10.1383 3.00046 10.007 3Z" fill="currentColor"/>
<path d="M21 0H19C18.2055 -2.16263e-06 17.4435 0.315107 16.8811 0.876203C16.3187 1.4373 16.0018 2.19856 16 2.993L14.006 2.979H14C13.7347 2.97807 13.48 3.08254 13.2918 3.26942C13.1036 3.4563 12.9974 3.71028 12.9965 3.9755C12.9955 4.24072 13.1 4.49544 13.2869 4.68363C13.4738 4.87182 13.7277 4.97807 13.993 4.979L16 4.993V5C16 5.79565 16.316 6.55871 16.8786 7.12132C17.4413 7.68393 18.2043 8 19 8H19.014L19 9.993C18.999 10.1243 19.024 10.2545 19.0734 10.3762C19.1228 10.4979 19.1957 10.6087 19.2879 10.7022C19.3801 10.7957 19.4898 10.8701 19.6108 10.9212C19.7318 10.9723 19.8616 10.9991 19.993 11H20C20.264 11 20.5173 10.8956 20.7046 10.7096C20.8919 10.5236 20.9981 10.271 21 10.007L21.014 8C21.8072 7.9963 22.5667 7.67859 23.1262 7.11639C23.6858 6.55418 24 5.79323 24 5V3C24 2.20435 23.6839 1.44129 23.1213 0.87868C22.5587 0.31607 21.7956 0 21 0V0Z" fill="currentColor"/>
<path d="M21.007 15.9994L21.021 14.0054C21.0218 13.8741 20.9967 13.7439 20.9471 13.6222C20.8976 13.5006 20.8246 13.3899 20.7323 13.2965C20.64 13.2031 20.5302 13.1288 20.4092 13.0778C20.2882 13.0268 20.1583 13.0002 20.027 12.9994H20.021C19.757 12.9994 19.5037 13.1038 19.3163 13.2898C19.129 13.4758 19.0228 13.7284 19.021 13.9924L19.007 15.9994H19C18.2043 15.9994 17.4413 16.3155 16.8786 16.8781C16.316 17.4407 16 18.2037 16 18.9994V19.0134L14.007 18.9994H14C13.7347 18.9985 13.48 19.1029 13.2918 19.2898C13.1036 19.4767 12.9974 19.7307 12.9965 19.9959C12.9955 20.2611 13.1 20.5158 13.2869 20.704C13.4738 20.8922 13.7277 20.9985 13.993 20.9994L16 21.0134C16.0037 21.8066 16.3214 22.5661 16.8836 23.1257C17.4458 23.6852 18.2067 23.9994 19 23.9994H21C21.7956 23.9994 22.5587 23.6833 23.1213 23.1207C23.6839 22.5581 24 21.795 24 20.9994V18.9994C24 18.2049 23.6849 17.4429 23.1238 16.8805C22.5627 16.3181 21.8014 16.0012 21.007 15.9994Z" fill="currentColor"/>
<path d="M10.007 19.0204L8 19.0064V18.9994C8 18.2037 7.68393 17.4407 7.12132 16.8781C6.55871 16.3155 5.79565 15.9994 5 15.9994H4.986L5 14.0064C5.00092 13.8751 4.97597 13.7448 4.92656 13.6232C4.87716 13.5015 4.80427 13.3907 4.71206 13.2972C4.61985 13.2037 4.51013 13.1293 4.38915 13.0782C4.26818 13.0271 4.13832 13.0003 4.007 12.9994H4C3.73599 12.9994 3.48269 13.1038 3.29536 13.2898C3.10802 13.4758 3.00185 13.7284 3 13.9924L2.986 15.9994C2.19278 16.0031 1.43331 16.3208 0.873724 16.883C0.314139 17.4452 -8.63726e-06 18.2062 1.78109e-10 18.9994L1.78109e-10 20.9994C1.7811e-10 21.795 0.31607 22.5581 0.87868 23.1207C1.44129 23.6833 2.20435 23.9994 3 23.9994H5C5.79444 23.9994 6.55644 23.6843 7.11885 23.1232C7.68126 22.5621 7.99815 21.8008 8 21.0064L9.994 21.0204H10C10.2652 21.0213 10.5199 20.9168 10.7081 20.73C10.8963 20.5431 11.0026 20.2891 11.0035 20.0239C11.0044 19.7587 10.9 19.5039 10.7131 19.3157C10.5262 19.1276 10.2722 19.0213 10.007 19.0204Z" fill="currentColor"/>
</g>
<defs>
<clipPath id="clip0_406_2194">
<rect width="24" height="24" fill="white"/>
</clipPath>
</defs>
</svg>
