<svg width="24" height="24" viewBox="0 0 24 24" fill="none" xmlns="http://www.w3.org/2000/svg">
<path d="M6.41409 9H17.5861C17.7838 9.00004 17.9771 9.05871 18.1416 9.1686C18.306 9.27848 18.4341 9.43465 18.5098 9.61734C18.5854 9.80004 18.6052 10.0011 18.5667 10.195C18.5281 10.389 18.4329 10.5671 18.2931 10.707L12.7071 16.293C12.5196 16.4805 12.2653 16.5858 12.0001 16.5858C11.7349 16.5858 11.4806 16.4805 11.2931 16.293L5.70709 10.707C5.56728 10.5671 5.47208 10.389 5.43351 10.195C5.39494 10.0011 5.41475 9.80004 5.49042 9.61734C5.56609 9.43465 5.69423 9.27848 5.85864 9.1686C6.02305 9.05871 6.21634 9.00004 6.41409 9Z" fill="currentColor"/>
</svg>
