<svg width="24" height="24" viewBox="0 0 24 24" fill="none" xmlns="http://www.w3.org/2000/svg">
<g clip-path="url(#clip0_406_1832)">
<path d="M14.5999 21.3002C14.2999 21.5262 13.9809 21.7642 13.7099 22.0002H15.9999C16.2651 22.0002 16.5195 22.1056 16.707 22.2931C16.8946 22.4807 16.9999 22.735 16.9999 23.0002C16.9999 23.2654 16.8946 23.5198 16.707 23.7073C16.5195 23.8949 16.2651 24.0002 15.9999 24.0002H11.9999C11.7347 24.0002 11.4804 23.8949 11.2928 23.7073C11.1053 23.5198 10.9999 23.2654 10.9999 23.0002C10.9999 21.5002 12.2749 20.5442 13.3999 19.7002C14.1499 19.1382 14.9999 18.5002 14.9999 18.0002C14.9999 17.735 14.8946 17.4807 14.707 17.2931C14.5195 17.1056 14.2651 17.0002 13.9999 17.0002C13.7347 17.0002 13.4804 17.1056 13.2928 17.2931C13.1053 17.4807 12.9999 17.735 12.9999 18.0002C12.9999 18.2654 12.8946 18.5198 12.707 18.7073C12.5195 18.8949 12.2651 19.0002 11.9999 19.0002C11.7347 19.0002 11.4804 18.8949 11.2928 18.7073C11.1053 18.5198 10.9999 18.2654 10.9999 18.0002C10.9999 17.2046 11.316 16.4415 11.8786 15.8789C12.4412 15.3163 13.2043 15.0002 13.9999 15.0002C14.7956 15.0002 15.5586 15.3163 16.1212 15.8789C16.6839 16.4415 16.9999 17.2046 16.9999 18.0002C16.9999 19.5002 15.7249 20.4562 14.5999 21.3002ZM22.9999 15.0002C22.7347 15.0002 22.4804 15.1056 22.2928 15.2931C22.1053 15.4807 21.9999 15.735 21.9999 16.0002V19.0002H20.9999C20.7347 19.0002 20.4804 18.8949 20.2928 18.7073C20.1053 18.5198 19.9999 18.2654 19.9999 18.0002V16.0002C19.9999 15.735 19.8946 15.4807 19.707 15.2931C19.5195 15.1056 19.2651 15.0002 18.9999 15.0002C18.7347 15.0002 18.4804 15.1056 18.2928 15.2931C18.1053 15.4807 17.9999 15.735 17.9999 16.0002V18.0002C17.9999 18.7959 18.316 19.5589 18.8786 20.1216C19.4412 20.6842 20.2043 21.0002 20.9999 21.0002H21.9999V23.0002C21.9999 23.2654 22.1053 23.5198 22.2928 23.7073C22.4804 23.8949 22.7347 24.0002 22.9999 24.0002C23.2651 24.0002 23.5195 23.8949 23.707 23.7073C23.8946 23.5198 23.9999 23.2654 23.9999 23.0002V16.0002C23.9999 15.735 23.8946 15.4807 23.707 15.2931C23.5195 15.1056 23.2651 15.0002 22.9999 15.0002ZM12.9999 12.0002V7.00023C12.9999 6.73502 12.8946 6.48066 12.707 6.29313C12.5195 6.10559 12.2651 6.00023 11.9999 6.00023C11.7347 6.00023 11.4804 6.10559 11.2928 6.29313C11.1053 6.48066 10.9999 6.73502 10.9999 7.00023V11.0002H7.99992C7.73471 11.0002 7.48035 11.1056 7.29282 11.2931C7.10528 11.4807 6.99992 11.735 6.99992 12.0002C6.99992 12.2654 7.10528 12.5198 7.29282 12.7073C7.48035 12.8949 7.73471 13.0002 7.99992 13.0002H11.9999C12.2651 13.0002 12.5195 12.8949 12.707 12.7073C12.8946 12.5198 12.9999 12.2654 12.9999 12.0002ZM22.9999 2.00023C22.7347 2.00023 22.4804 2.10559 22.2928 2.29312C22.1053 2.48066 21.9999 2.73502 21.9999 3.00023V5.37423C20.958 3.80181 19.56 2.49715 17.9195 1.56613C16.279 0.635116 14.4421 0.103956 12.5578 0.0157521C10.6736 -0.072452 8.79509 0.284784 7.07476 1.05848C5.35442 1.83217 3.84071 3.00052 2.65644 4.46874C1.47217 5.93695 0.650709 7.66367 0.258698 9.50879C-0.133313 11.3539 -0.0848267 13.2655 0.400223 15.0883C0.885272 16.9112 1.79322 18.5941 3.0504 20.0004C4.30758 21.4066 5.87858 22.4968 7.63592 23.1822C7.75206 23.227 7.87545 23.2501 7.99992 23.2502C8.23328 23.2506 8.45942 23.1693 8.63917 23.0205C8.81893 22.8717 8.94097 22.6647 8.98418 22.4354C9.02739 22.2061 8.98903 21.9688 8.87575 21.7648C8.76248 21.5608 8.58142 21.4028 8.36392 21.3182C6.87195 20.7413 5.54014 19.8149 4.48031 18.6167C3.42047 17.4186 2.66353 15.9837 2.27303 14.4324C1.88253 12.8812 1.86987 11.2589 2.2361 9.70177C2.60233 8.14463 3.33677 6.69806 4.37777 5.4835C5.41877 4.26895 6.73595 3.32185 8.21873 2.72171C9.70152 2.12156 11.3066 1.88589 12.8994 2.03448C14.4921 2.18306 16.0259 2.71157 17.3721 3.57562C18.7183 4.43968 19.8375 5.61408 20.6359 7.00023H17.9999C17.7347 7.00023 17.4804 7.10559 17.2928 7.29313C17.1053 7.48066 16.9999 7.73502 16.9999 8.00023C16.9999 8.26545 17.1053 8.5198 17.2928 8.70734C17.4804 8.89487 17.7347 9.00023 17.9999 9.00023H20.9999C21.7956 9.00023 22.5586 8.68416 23.1212 8.12155C23.6839 7.55894 23.9999 6.79588 23.9999 6.00023V3.00023C23.9999 2.73502 23.8946 2.48066 23.707 2.29312C23.5195 2.10559 23.2651 2.00023 22.9999 2.00023Z" fill="currentColor"/>
</g>
<defs>
<clipPath id="clip0_406_1832">
<rect width="24" height="24" fill="white"/>
</clipPath>
</defs>
</svg>
