<svg width="24" height="24" viewBox="0 0 24 24" fill="none" xmlns="http://www.w3.org/2000/svg">
<g clip-path="url(#clip0_406_2168)">
<path d="M7 0H4C1.79086 0 0 1.79086 0 4V7C0 9.20914 1.79086 11 4 11H7C9.20914 11 11 9.20914 11 7V4C11 1.79086 9.20914 0 7 0Z" fill="currentColor"/>
<path d="M7 13H4C1.79086 13 0 14.7909 0 17V20C0 22.2092 1.79086 24 4 24H7C9.20914 24 11 22.2092 11 20V17C11 14.7909 9.20914 13 7 13Z" fill="currentColor"/>
<path d="M20.0001 13H17.0001C14.791 13 13.0001 14.7909 13.0001 17V20C13.0001 22.2092 14.791 24 17.0001 24H20.0001C22.2092 24 24.0001 22.2092 24.0001 20V17C24.0001 14.7909 22.2092 13 20.0001 13Z" fill="currentColor"/>
<path d="M14.0001 7H22.0001C22.2653 7 22.5197 6.89465 22.7072 6.70711C22.8948 6.51957 23.0001 6.26522 23.0001 6C23.0001 5.73478 22.8948 5.48043 22.7072 5.29289C22.5197 5.10536 22.2653 5 22.0001 5H14.0001C13.7349 5 13.4806 5.10536 13.293 5.29289C13.1055 5.48043 13.0001 5.73478 13.0001 6C13.0001 6.26522 13.1055 6.51957 13.293 6.70711C13.4806 6.89465 13.7349 7 14.0001 7Z" fill="currentColor"/>
</g>
<defs>
<clipPath id="clip0_406_2168">
<rect width="24" height="24" fill="white"/>
</clipPath>
</defs>
</svg>
