<svg width="24" height="24" viewBox="0 0 24 24" fill="none" xmlns="http://www.w3.org/2000/svg">
<g clip-path="url(#clip0_406_1904)">
<path d="M23 13.0006H1C0.734784 13.0006 0.48043 12.8953 0.292893 12.7077C0.105357 12.5202 0 12.2658 0 12.0006C0 11.7354 0.105357 11.481 0.292893 11.2935C0.48043 11.106 0.734784 11.0006 1 11.0006H23C23.2652 11.0006 23.5196 11.106 23.7071 11.2935C23.8946 11.481 24 11.7354 24 12.0006C24 12.2658 23.8946 12.5202 23.7071 12.7077C23.5196 12.8953 23.2652 13.0006 23 13.0006ZM18.934 7.12661C19.0597 6.59329 19.0012 6.03314 18.7681 5.53728C18.5349 5.04143 18.1409 4.63905 17.65 4.39561L9.668 0.428611C9.16973 0.145643 8.60635 -0.0027039 8.03334 -0.00182719C7.46032 -0.000950482 6.89741 0.149119 6.4 0.433611C5.96664 0.684775 5.60832 1.04725 5.36216 1.48347C5.116 1.9197 4.99096 2.41381 5 2.91461V6.00061C5 6.79626 5.31607 7.55932 5.87868 8.12193C6.44129 8.68454 7.20435 9.00061 8 9.00061H16.318C16.9035 9.03874 17.484 8.87287 17.961 8.53121C18.4379 8.18954 18.7817 7.6932 18.934 7.12661ZM9.628 23.5926L17.661 19.6006C18.1491 19.3559 18.5403 18.9536 18.7713 18.4589C19.0024 17.9642 19.0597 17.406 18.934 16.8746C18.7817 16.308 18.4379 15.8117 17.961 15.47C17.484 15.1284 16.9035 14.9625 16.318 15.0006H8C7.20435 15.0006 6.44129 15.3167 5.87868 15.8793C5.31607 16.4419 5 17.205 5 18.0006V21.0856C4.99086 21.5864 5.11585 22.0806 5.36202 22.5168C5.60819 22.9531 5.96657 23.3155 6.4 23.5666C6.89555 23.8543 7.45903 24.0041 8.032 24.0006C8.59001 24.0023 9.13926 23.8619 9.628 23.5926Z" fill="currentColor"/>
</g>
<defs>
<clipPath id="clip0_406_1904">
<rect width="24" height="24" fill="white"/>
</clipPath>
</defs>
</svg>
