<svg width="24" height="24" viewBox="0 0 24 24" fill="none" xmlns="http://www.w3.org/2000/svg">
<path d="M19 10.5H10.207L12.646 8.061C12.9274 7.77974 13.0855 7.39822 13.0856 7.00036C13.0857 6.6025 12.9277 6.2209 12.6465 5.9395C12.3652 5.65811 11.9837 5.49997 11.5858 5.49988C11.188 5.49978 10.8064 5.65774 10.525 5.939L6.93896 9.525C6.28373 10.182 5.91577 11.0721 5.91577 12C5.91577 12.9279 6.28373 13.818 6.93896 14.475L10.525 18.061C10.8064 18.3423 11.188 18.5002 11.5858 18.5001C11.9837 18.5 12.3652 18.3419 12.6465 18.0605C12.9277 17.7791 13.0857 17.3975 13.0856 16.9997C13.0855 16.6018 12.9274 16.2203 12.646 15.939L10.207 13.5H19C19.3978 13.5 19.7793 13.342 20.0606 13.0607C20.3419 12.7794 20.5 12.3978 20.5 12C20.5 11.6022 20.3419 11.2206 20.0606 10.9393C19.7793 10.658 19.3978 10.5 19 10.5Z" fill="currentColor"/>
</svg>
