<svg width="24" height="24" viewBox="0 0 24 24" fill="none" xmlns="http://www.w3.org/2000/svg">
<g clip-path="url(#clip0_406_2071)">
<path d="M11.9938 10H2.36183L2.05583 7.556C1.97797 7.12337 1.99545 6.67897 2.10706 6.2538C2.21867 5.82863 2.42173 5.43293 2.70205 5.09434C2.98237 4.75574 3.33321 4.4824 3.73008 4.29339C4.12694 4.10438 4.56028 4.00425 4.99983 4H12.6598L11.9938 10ZM12.9938 19.11C12.9794 19.2405 12.9394 19.3669 12.8761 19.482C12.8128 19.5971 12.7274 19.6986 12.6249 19.7806C12.5224 19.8627 12.4047 19.9238 12.2786 19.9604C12.1525 19.997 12.0204 20.0084 11.8898 19.994C11.7593 19.9796 11.6329 19.9395 11.5178 19.8762C11.4027 19.8129 11.3013 19.7276 11.2192 19.6251C11.1371 19.5226 11.076 19.4049 11.0394 19.2788C11.0028 19.1526 10.9914 19.0205 11.0058 18.89L11.7718 12H2.61283L3.56783 19.622C3.72104 20.8302 4.30924 21.9411 5.22237 22.747C6.1355 23.5528 7.31098 23.9982 8.52883 24H15.4698C16.6879 23.998 17.8635 23.5524 18.7768 22.7464C19.6901 21.9404 20.2784 20.8294 20.4318 19.621L21.3838 12H13.7838L12.9938 19.11ZM21.6338 10L21.9268 7.653C22.0246 7.21443 22.0227 6.75949 21.9211 6.32179C21.8195 5.88408 21.6209 5.47478 21.3399 5.12412C21.059 4.77346 20.7028 4.49039 20.2978 4.29582C19.8927 4.10126 19.4492 4.00016 18.9998 4H14.6728L14.0068 10H21.6338ZM14.7998 2.89C14.8268 2.646 14.9426 2.42045 15.1252 2.25632C15.3078 2.0922 15.5443 2.00097 15.7898 2H19.9998C20.265 2 20.5194 1.89464 20.7069 1.70711C20.8945 1.51957 20.9998 1.26522 20.9998 1C20.9998 0.734784 20.8945 0.48043 20.7069 0.292893C20.5194 0.105357 20.265 0 19.9998 0L15.7898 0C15.0516 0.000168296 14.3394 0.272519 13.7894 0.764943C13.2394 1.25737 12.8903 1.93529 12.8088 2.669L12.6608 4H14.6728L14.7998 2.89Z" fill="currentColor"/>
</g>
<defs>
<clipPath id="clip0_406_2071">
<rect width="24" height="24" fill="white"/>
</clipPath>
</defs>
</svg>
