<svg width="24" height="24" viewBox="0 0 24 24" fill="none" xmlns="http://www.w3.org/2000/svg">
<g clip-path="url(#clip0_406_2144)">
<path d="M20 10V14C19.9978 14.7721 19.8159 15.5332 19.4688 16.2229C19.1216 16.9126 18.6188 17.5121 18 17.974V15C17.9976 13.1442 17.2594 11.3651 15.9471 10.0529C14.6349 8.74064 12.8558 8.00238 11 8H5C4.8 8 4.6 8.013 4.408 8.03C4.79391 7.13171 5.43442 6.36609 6.25045 5.82764C7.06648 5.28918 8.02233 5.00147 9 5H15C16.3256 5.00159 17.5964 5.52888 18.5338 6.46622C19.4711 7.40356 19.9984 8.67441 20 10ZM11.594 18.577C11.4083 18.763 11.1877 18.9105 10.9449 19.0111C10.7021 19.1118 10.4418 19.1636 10.179 19.1636C9.91617 19.1636 9.65592 19.1118 9.41312 19.0111C9.17033 18.9105 8.94975 18.763 8.764 18.577L8.288 18.097L2.379 23.225C3.17023 23.7286 4.08811 23.9973 5.026 24H11.026C12.3516 23.9984 13.6224 23.4711 14.5598 22.5338C15.4971 21.5964 16.0244 20.3256 16.026 19V15C16.0206 14.7316 15.9935 14.464 15.945 14.2L11.594 18.577ZM15.145 12.177L10.183 17.171L9.708 16.692C9.35417 16.335 8.87853 16.1249 8.37636 16.1038C7.8742 16.0827 7.38258 16.252 7 16.578L0.922001 21.843C0.339017 21.0096 0.0262331 20.0171 0.026001 19V15C0.0275888 13.6744 0.554883 12.4036 1.49222 11.4662C2.42956 10.5289 3.70041 10.0016 5.026 10H11.026C11.8375 10.001 12.6366 10.1996 13.3542 10.5786C14.0719 10.9575 14.6865 11.5054 15.145 12.175V12.177ZM5 14.1C5 13.9022 4.94135 13.7089 4.83147 13.5444C4.72159 13.38 4.56541 13.2518 4.38268 13.1761C4.19996 13.1004 3.99889 13.0806 3.80491 13.1192C3.61093 13.1578 3.43275 13.253 3.29289 13.3929C3.15304 13.5327 3.0578 13.7109 3.01922 13.9049C2.98063 14.0989 3.00043 14.3 3.07612 14.4827C3.15181 14.6654 3.27998 14.8216 3.44443 14.9315C3.60888 15.0414 3.80222 15.1 4 15.1C4.26522 15.1 4.51957 14.9946 4.70711 14.8071C4.89464 14.6196 5 14.3652 5 14.1ZM19 0H13C12.0243 0.00237827 11.0707 0.290514 10.2569 0.828817C9.44316 1.36712 8.80491 2.13201 8.421 3.029C8.612 3.014 8.805 3 9 3H15C16.8558 3.00238 18.6349 3.74064 19.9471 5.05288C21.2594 6.36512 21.9976 8.14422 22 10V12.974C22.6188 12.5121 23.1216 11.9126 23.4688 11.2229C23.8159 10.5332 23.9978 9.77215 24 9V5C23.9984 3.67441 23.4711 2.40356 22.5338 1.46622C21.5964 0.528882 20.3256 0.00158786 19 0V0Z" fill="currentColor"/>
</g>
<defs>
<clipPath id="clip0_406_2144">
<rect width="24" height="24" fill="white"/>
</clipPath>
</defs>
</svg>
