<svg width="24" height="24" viewBox="0 0 24 24" fill="none" xmlns="http://www.w3.org/2000/svg">
<path d="M20.4671 17.2999C20.4461 17.2699 18.9101 15.4849 18.9101 15.4849C19.4682 15.0737 19.8445 14.4616 19.9595 13.7781C20.0744 13.0945 19.919 12.393 19.5261 11.8219C19.5011 11.7859 17.6411 9.73088 17.6411 9.73088C18.1064 9.49625 18.4858 9.12075 18.7251 8.65788C18.931 8.2614 19.0236 7.8158 18.9925 7.37012C18.9614 6.92445 18.808 6.49598 18.5491 6.13188C18.5281 6.09988 13.8861 0.845884 13.8861 0.845884C13.6426 0.591075 13.35 0.388265 13.0259 0.249703C12.7019 0.111142 12.3531 0.0397034 12.0006 0.0397034C11.6482 0.0397034 11.2994 0.111142 10.9753 0.249703C10.6513 0.388265 10.3586 0.591075 10.1151 0.845884C10.1151 0.845884 5.47314 6.09988 5.45114 6.12988C5.13662 6.55363 4.97738 7.07265 5.00014 7.59988C5.00252 7.97219 5.15215 8.32841 5.41635 8.59074C5.68055 8.85306 6.03783 9.00016 6.41014 8.99988H12.0001C12.2654 8.99988 12.5197 9.10524 12.7072 9.29278C12.8948 9.48031 13.0001 9.73467 13.0001 9.99988C13.0001 10.2651 12.8948 10.5195 12.7072 10.707C12.5197 10.8945 12.2654 10.9999 12.0001 10.9999H5.20614C5.20614 10.9999 4.49914 11.7839 4.47414 11.8199C4.17112 12.2861 4.00675 12.8289 4.00014 13.3849C3.99373 13.5633 4.02473 13.7411 4.09114 13.9069C4.23975 14.242 4.48506 14.525 4.7956 14.7198C5.10615 14.9145 5.46779 15.012 5.83414 14.9999H13.0001C13.2654 14.9999 13.5197 15.1052 13.7072 15.2928C13.8948 15.4803 14.0001 15.7347 14.0001 15.9999C14.0001 16.2651 13.8948 16.5195 13.7072 16.707C13.5197 16.8945 13.2654 16.9999 13.0001 16.9999H3.78214C3.78214 16.9999 3.55414 17.2679 3.53314 17.2999C3.10341 17.9274 2.92647 18.6941 3.03772 19.4465C3.14896 20.1989 3.54019 20.8815 4.13314 21.3579C4.65779 21.7829 5.31503 22.0101 5.99014 21.9999H11.0001V22.9999C11.0001 23.2651 11.1055 23.5195 11.293 23.707C11.4806 23.8945 11.7349 23.9999 12.0001 23.9999C12.2654 23.9999 12.5197 23.8945 12.7072 23.707C12.8948 23.5195 13.0001 23.2651 13.0001 22.9999V21.9999H18.0101C18.6872 22.0105 19.3464 21.7826 19.8721 21.3559C20.4636 20.8788 20.8533 20.1962 20.9636 19.4444C21.0739 18.6925 20.8966 17.9268 20.4671 17.2999Z" fill="currentColor"/>
</svg>
