<svg width="24" height="24" viewBox="0 0 24 24" fill="none" xmlns="http://www.w3.org/2000/svg">
<g clip-path="url(#clip0_406_2117)">
<path d="M14.9999 7.00005V3.00005C14.9999 2.73483 15.1053 2.48048 15.2928 2.29294C15.4803 2.10541 15.7347 2.00005 15.9999 2.00005C16.2651 2.00005 16.5195 2.10541 16.707 2.29294C16.8946 2.48048 16.9999 2.73483 16.9999 3.00005V5.61305C17.6299 4.98105 21.6999 0.887051 22.2929 0.300051C22.4815 0.117893 22.7341 0.0170982 22.9963 0.0193766C23.2585 0.0216551 23.5093 0.126824 23.6947 0.312232C23.8801 0.49764 23.9853 0.748453 23.9876 1.01065C23.9899 1.27285 23.8891 1.52545 23.7069 1.71405C23.1149 2.30005 19.0639 6.37305 18.4389 7.00005H20.9999C21.2651 7.00005 21.5195 7.10541 21.707 7.29294C21.8946 7.48048 21.9999 7.73483 21.9999 8.00005C21.9999 8.26527 21.8946 8.51962 21.707 8.70716C21.5195 8.89469 21.2651 9.00005 20.9999 9.00005H16.9999C16.4695 9.00005 15.9608 8.78934 15.5857 8.41426C15.2106 8.03919 14.9999 7.53048 14.9999 7.00005ZM20.6549 14.8551C20.0775 14.3057 19.3107 13.9998 18.5137 14.0009C17.7167 14.002 16.9508 14.3101 16.3749 14.8611L14.4689 16.4671C12.9132 15.8233 11.5 14.8785 10.3104 13.687C9.12076 12.4955 8.17824 11.0808 7.53692 9.52405L9.13692 7.62405C9.68646 7.04705 9.99347 6.28107 9.99459 5.48425C9.99571 4.68743 9.69084 3.92059 9.14292 3.34205C9.14292 3.34205 7.29092 0.939051 7.25992 0.908051C6.68937 0.333799 5.9158 0.0070727 5.10634 -0.00153454C4.29689 -0.0101418 3.51655 0.300061 2.93392 0.862051L1.78392 1.86205C-5.93508 10.0721 13.9839 30.0001 22.1839 22.1621L23.0959 21.1121C23.6751 20.531 24.0004 19.744 24.0004 18.9236C24.0004 18.1031 23.6751 17.3161 23.0959 16.7351C23.0629 16.7081 20.6549 14.8561 20.6549 14.8561V14.8551Z" fill="currentColor"/>
</g>
<defs>
<clipPath id="clip0_406_2117">
<rect width="24" height="24" fill="white"/>
</clipPath>
</defs>
</svg>
