<svg width="24" height="24" viewBox="0 0 24 24" fill="none" xmlns="http://www.w3.org/2000/svg">
<g clip-path="url(#clip0_406_1942)">
<path d="M19 4.00031H5C3.67441 4.00189 2.40356 4.52919 1.46622 5.46653C0.528882 6.40386 0.00158786 7.67471 0 9.00031L0 15.0003C0.00158786 16.3259 0.528882 17.5967 1.46622 18.5341C2.40356 19.4714 3.67441 19.9987 5 20.0003H19C20.3256 19.9987 21.5964 19.4714 22.5338 18.5341C23.4711 17.5967 23.9984 16.3259 24 15.0003V9.00031C23.9984 7.67471 23.4711 6.40386 22.5338 5.46653C21.5964 4.52919 20.3256 4.00189 19 4.00031ZM4 17.0003C3.80222 17.0003 3.60888 16.9417 3.44443 16.8318C3.27998 16.7219 3.15181 16.5657 3.07612 16.383C3.00043 16.2003 2.98063 15.9992 3.01921 15.8052C3.0578 15.6112 3.15304 15.4331 3.29289 15.2932C3.43275 15.1533 3.61093 15.0581 3.80491 15.0195C3.99889 14.9809 4.19996 15.0007 4.38268 15.0764C4.56541 15.1521 4.72159 15.2803 4.83147 15.4447C4.94135 15.6092 5 15.8025 5 16.0003C5 16.2655 4.89464 16.5199 4.70711 16.7074C4.51957 16.8949 4.26522 17.0003 4 17.0003ZM4 9.00031C3.80222 9.00031 3.60888 8.94166 3.44443 8.83177C3.27998 8.72189 3.15181 8.56571 3.07612 8.38299C3.00043 8.20026 2.98063 7.9992 3.01921 7.80521C3.0578 7.61123 3.15304 7.43305 3.29289 7.2932C3.43275 7.15335 3.61093 7.0581 3.80491 7.01952C3.99889 6.98093 4.19996 7.00074 4.38268 7.07643C4.56541 7.15211 4.72159 7.28029 4.83147 7.44474C4.94135 7.60918 5 7.80252 5 8.00031C5 8.26552 4.89464 8.51988 4.70711 8.70741C4.51957 8.89495 4.26522 9.00031 4 9.00031ZM12 16.0003C11.2089 16.0003 10.4355 15.7657 9.77772 15.3262C9.11992 14.8867 8.60723 14.2619 8.30448 13.531C8.00173 12.8001 7.92252 11.9959 8.07686 11.2199C8.2312 10.444 8.61216 9.73129 9.17157 9.17188C9.73098 8.61247 10.4437 8.2315 11.2196 8.07716C11.9956 7.92282 12.7998 8.00204 13.5307 8.30479C14.2616 8.60754 14.8864 9.12023 15.3259 9.77802C15.7654 10.4358 16 11.2092 16 12.0003C16 13.0612 15.5786 14.0786 14.8284 14.8287C14.0783 15.5789 13.0609 16.0003 12 16.0003ZM20 17.0003C19.8022 17.0003 19.6089 16.9417 19.4444 16.8318C19.28 16.7219 19.1518 16.5657 19.0761 16.383C19.0004 16.2003 18.9806 15.9992 19.0192 15.8052C19.0578 15.6112 19.153 15.4331 19.2929 15.2932C19.4327 15.1533 19.6109 15.0581 19.8049 15.0195C19.9989 14.9809 20.2 15.0007 20.3827 15.0764C20.5654 15.1521 20.7216 15.2803 20.8315 15.4447C20.9414 15.6092 21 15.8025 21 16.0003C21 16.2655 20.8946 16.5199 20.7071 16.7074C20.5196 16.8949 20.2652 17.0003 20 17.0003ZM20 9.00031C19.8022 9.00031 19.6089 8.94166 19.4444 8.83177C19.28 8.72189 19.1518 8.56571 19.0761 8.38299C19.0004 8.20026 18.9806 7.9992 19.0192 7.80521C19.0578 7.61123 19.153 7.43305 19.2929 7.2932C19.4327 7.15335 19.6109 7.0581 19.8049 7.01952C19.9989 6.98093 20.2 7.00074 20.3827 7.07643C20.5654 7.15211 20.7216 7.28029 20.8315 7.44474C20.9414 7.60918 21 7.80252 21 8.00031C21 8.26552 20.8946 8.51988 20.7071 8.70741C20.5196 8.89495 20.2652 9.00031 20 9.00031ZM14 12.0003C14 12.3959 13.8827 12.7825 13.6629 13.1114C13.4432 13.4403 13.1308 13.6967 12.7654 13.8481C12.3999 13.9994 11.9978 14.039 11.6098 13.9619C11.2219 13.8847 10.8655 13.6942 10.5858 13.4145C10.3061 13.1348 10.1156 12.7784 10.0384 12.3905C9.96126 12.0025 10.0009 11.6004 10.1522 11.2349C10.3036 10.8695 10.56 10.5571 10.8889 10.3374C11.2178 10.1176 11.6044 10.0003 12 10.0003C12.5304 10.0003 13.0391 10.211 13.4142 10.5861C13.7893 10.9612 14 11.4699 14 12.0003Z" fill="currentColor"/>
</g>
<defs>
<clipPath id="clip0_406_1942">
<rect width="24" height="24" fill="white"/>
</clipPath>
</defs>
</svg>
