<svg width="24" height="24" viewBox="0 0 24 24" fill="none" xmlns="http://www.w3.org/2000/svg">
<g clip-path="url(#clip0_406_1871)">
<path d="M18.5 0H5.5C4.0418 0.00158817 2.64377 0.581561 1.61267 1.61267C0.581561 2.64377 0.00158817 4.0418 0 5.5L0 18.5C0.00158817 19.9582 0.581561 21.3562 1.61267 22.3873C2.64377 23.4184 4.0418 23.9984 5.5 24H18.5C19.9582 23.9984 21.3562 23.4184 22.3873 22.3873C23.4184 21.3562 23.9984 19.9582 24 18.5V5.5C23.9984 4.0418 23.4184 2.64377 22.3873 1.61267C21.3562 0.581561 19.9582 0.00158817 18.5 0V0ZM21 18.5C21 19.163 20.7366 19.7989 20.2678 20.2678C19.7989 20.7366 19.163 21 18.5 21H5.5C4.83696 21 4.20107 20.7366 3.73223 20.2678C3.26339 19.7989 3 19.163 3 18.5V5.5C3 4.83696 3.26339 4.20107 3.73223 3.73223C4.20107 3.26339 4.83696 3 5.5 3H18.5C19.163 3 19.7989 3.26339 20.2678 3.73223C20.7366 4.20107 21 4.83696 21 5.5V18.5Z" fill="currentColor"/>
</g>
<defs>
<clipPath id="clip0_406_1871">
<rect width="24" height="24" fill="white"/>
</clipPath>
</defs>
</svg>
