<svg width="24" height="24" viewBox="0 0 24 24" fill="none" xmlns="http://www.w3.org/2000/svg">
<g clip-path="url(#clip0_406_2119)">
<path d="M23.94 6.57292C23.8215 7.17337 23.5129 7.71972 23.0598 8.13109C22.6066 8.54245 22.033 8.79696 21.424 8.85692C21.424 8.85692 20.373 9.02192 19.914 9.14092C19.9647 8.81153 19.9934 8.47913 20 8.14592V4.01092C19.9975 3.47766 19.9245 2.94706 19.783 2.43292C20.7595 2.69107 21.6989 3.07353 22.578 3.57092C23.0972 3.85878 23.51 4.30611 23.7553 4.84675C24.0006 5.38739 24.0653 5.99262 23.94 6.57292ZM14.147 14.1289C14.5659 13.7005 14.847 13.1565 14.9539 12.5669C15.0608 11.9773 14.9888 11.3692 14.747 10.8209L10.991 3.60692C10.7177 2.98265 10.3016 2.43129 9.7762 1.99728C9.25081 1.56327 8.63082 1.25873 7.96618 1.10821C7.30154 0.957693 6.61083 0.965397 5.94972 1.1307C5.2886 1.29601 4.67555 1.6143 4.15997 2.05992C3.81797 2.35192 3.47597 2.65992 3.14197 2.97192C2.78697 3.30592 2.42497 3.68392 2.06497 4.09592C1.61343 4.61204 1.29115 5.22817 1.12475 5.89343C0.958347 6.55869 0.952597 7.254 1.10797 7.92192C1.25953 8.60109 1.56815 9.23529 2.00908 9.77365C2.45001 10.312 3.01098 10.7395 3.64697 11.0219L10.847 14.7389C11.2274 14.9123 11.6409 15.0013 12.059 14.9999C12.4473 15 12.8318 14.9231 13.1902 14.7736C13.5486 14.6241 13.8738 14.405 14.147 14.1289ZM16.473 0.861921C16.0019 0.48735 15.4518 0.224892 14.8643 0.0944299C14.2768 -0.036032 13.6673 -0.0310765 13.082 0.108921C12.4676 0.25578 11.862 0.437066 11.268 0.651921C11.9122 1.23555 12.4307 1.9443 12.792 2.73492L16.572 10.0059C16.6386 10.1668 16.6966 10.331 16.746 10.4979L16.756 10.4879C17.5595 9.50298 17.9989 8.27108 18 6.99992V4.01092C18.0013 3.40454 17.8644 2.80583 17.5998 2.26022C17.3353 1.7146 16.9499 1.23641 16.473 0.861921ZM6.57297 23.9389C7.17324 23.8203 7.71937 23.5116 8.13054 23.0585C8.5417 22.6053 8.79606 22.0319 8.85597 21.4229C8.85597 21.4229 9.02097 20.3719 9.13997 19.9129C8.81094 19.964 8.47887 19.9931 8.14597 19.9999H4.00997C3.47672 19.9974 2.94613 19.9244 2.43197 19.7829C2.68949 20.7613 3.07197 21.7023 3.56997 22.5829C3.8589 23.1011 4.30679 23.5127 4.84753 23.7569C5.38827 24.001 5.99319 24.0649 6.57297 23.9389ZM4.00997 17.9999H6.99997C8.27113 17.9989 9.50303 17.5595 10.488 16.7559L10.498 16.7469C10.3314 16.697 10.1676 16.6386 10.007 16.5719L2.73597 12.7919C1.94455 12.4306 1.2351 11.9117 0.650974 11.2669C0.435991 11.8608 0.255031 12.4664 0.108974 13.0809C-0.0315481 13.6662 -0.0367672 14.2758 0.0937141 14.8634C0.224195 15.451 0.486942 16.0011 0.861974 16.4719C1.23616 16.949 1.71412 17.3346 2.25958 17.5993C2.80504 17.8641 3.40366 18.0011 4.00997 17.9999Z" fill="currentColor"/>
</g>
<defs>
<clipPath id="clip0_406_2119">
<rect width="24" height="24" fill="white"/>
</clipPath>
</defs>
</svg>
