<svg width="24" height="24" viewBox="0 0 24 24" fill="none" xmlns="http://www.w3.org/2000/svg">
<g clip-path="url(#clip0_406_1888)">
<path d="M23.421 16.5822L20.13 13.2912C20.0382 13.1935 19.9278 13.1152 19.8053 13.0611C19.6827 13.0069 19.5505 12.9779 19.4165 12.9758C19.2826 12.9737 19.1495 12.9986 19.0253 13.049C18.9012 13.0993 18.7884 13.1741 18.6936 13.2689C18.5989 13.3636 18.5242 13.4765 18.474 13.6007C18.4237 13.7249 18.399 13.858 18.4011 13.9919C18.4033 14.1259 18.4324 14.2581 18.4866 14.3806C18.5409 14.5031 18.6192 14.6135 18.717 14.7052L21.007 16.9992C19.7621 17.002 18.5292 16.7557 17.381 16.2748C16.2328 15.794 15.1923 15.0882 14.321 14.1992C14.2242 14.1101 14.1105 14.0413 13.9867 13.997C13.8629 13.9526 13.7314 13.9336 13.6 13.9411C13.4687 13.9486 13.3402 13.9823 13.2222 14.0404C13.1042 14.0985 12.999 14.1797 12.913 14.2792L12.9 14.2992C12.7319 14.4947 12.6458 14.7477 12.6598 15.0052C12.6737 15.2628 12.7867 15.5049 12.975 15.6812C14.0248 16.7429 15.2766 17.5835 16.6567 18.1533C18.0367 18.7232 19.5169 19.0108 21.01 18.9992L18.717 21.2922C18.6125 21.382 18.5277 21.4925 18.4679 21.6167C18.4082 21.7409 18.3748 21.8761 18.3697 22.0138C18.3647 22.1516 18.3882 22.2888 18.4387 22.4171C18.4893 22.5453 18.5658 22.6617 18.6635 22.7589C18.7611 22.8562 18.8778 22.9322 19.0063 22.9822C19.1347 23.0322 19.2721 23.0551 19.4098 23.0495C19.5475 23.0439 19.6825 23.0098 19.8065 22.9496C19.9304 22.8893 20.0405 22.804 20.13 22.6992L23.421 19.4082C23.7953 19.0332 24.0055 18.525 24.0055 17.9952C24.0055 17.4653 23.7953 16.9571 23.421 16.5822Z" fill="currentColor"/>
<path d="M21.007 6.99953L18.717 9.28953C18.6976 9.31585 18.6795 9.34323 18.663 9.37153C18.5017 9.56828 18.4221 9.81952 18.4407 10.0733C18.4594 10.3271 18.5748 10.564 18.7632 10.735C18.9516 10.9061 19.1985 10.9982 19.4529 10.9924C19.7073 10.9865 19.9497 10.8831 20.13 10.7035L21.836 8.99953L23.422 7.41453C23.6902 7.14429 23.8756 6.80313 23.9566 6.43113C24.0375 6.05914 24.0106 5.67177 23.879 5.31453C23.7819 5.04108 23.6255 4.79248 23.421 4.58653L20.13 1.29953C20.0388 1.20034 19.9283 1.12063 19.8055 1.0652C19.6826 1.00977 19.5498 0.979753 19.415 0.97696C19.2802 0.974168 19.1462 0.998656 19.0212 1.04895C18.8961 1.09925 18.7825 1.17431 18.6872 1.26964C18.5918 1.36496 18.5168 1.47858 18.4665 1.60365C18.4162 1.72873 18.3917 1.86268 18.3945 1.99746C18.3973 2.13224 18.4273 2.26506 18.4827 2.38795C18.5382 2.51083 18.6179 2.62124 18.717 2.71253L21.01 5.00453C16.0771 5.01653 13.3731 7.67853 10.9211 10.4785C8.66906 7.93653 6.00007 5.39953 1.48707 5.04553L1.00607 4.99953C0.740856 4.99953 0.486502 5.10489 0.298966 5.29243C0.11143 5.47996 0.006073 5.73432 0.006073 5.99953C0.0111931 6.26315 0.118194 6.51454 0.304631 6.70097C0.491069 6.88741 0.742459 6.99441 1.00607 6.99953C1.07807 6.99953 1.29307 7.03253 1.29307 7.03253C5.18907 7.32753 7.42507 9.52153 9.60006 11.9995C7.43807 14.4655 5.21707 16.6995 1.35307 16.9595L0.953072 16.9805C0.689845 16.997 0.443931 17.1173 0.269429 17.3151C0.0949262 17.5128 0.00612958 17.7718 0.022573 18.035C0.0390164 18.2983 0.159353 18.5442 0.35711 18.7187C0.554867 18.8932 0.813845 18.982 1.07707 18.9655C1.23307 18.9585 1.48707 18.9525 1.61207 18.9425C6.63206 18.5555 9.35506 15.3425 11.7831 12.5335C14.2351 9.69953 16.5511 7.01753 21.007 6.99953Z" fill="currentColor"/>
</g>
<defs>
<clipPath id="clip0_406_1888">
<rect width="24" height="24" fill="white"/>
</clipPath>
</defs>
</svg>
