<svg width="24" height="24" viewBox="0 0 24 24" fill="none" xmlns="http://www.w3.org/2000/svg">
<g clip-path="url(#clip0_406_2157)">
<path d="M18.427 4.91095L14.508 0.991951C13.8413 0.355121 12.9549 -0.000244141 12.033 -0.000244141C11.111 -0.000244141 10.2246 0.355121 9.55796 0.991951L5.63896 4.91095C5.36573 5.19385 5.21453 5.57275 5.21795 5.96605C5.22137 6.35934 5.37912 6.73556 5.65724 7.01367C5.93535 7.29178 6.31157 7.44954 6.70486 7.45295C7.09816 7.45637 7.47706 7.30518 7.75996 7.03194L10.54 4.25195L10.563 22.5019C10.563 22.8997 10.721 23.2813 11.0023 23.5626C11.2836 23.8439 11.6651 24.0019 12.063 24.0019C12.4608 24.0019 12.8423 23.8439 13.1236 23.5626C13.4049 23.2813 13.563 22.8997 13.563 22.5019L13.54 4.26595L16.306 7.03194C16.4443 7.17521 16.6098 7.28948 16.7929 7.3681C16.9759 7.44671 17.1727 7.48809 17.3719 7.48982C17.571 7.49155 17.7685 7.4536 17.9529 7.37818C18.1372 7.30275 18.3047 7.19138 18.4456 7.05054C18.5864 6.9097 18.6978 6.74222 18.7732 6.55788C18.8486 6.37353 18.8866 6.17601 18.8848 5.97684C18.8831 5.77767 18.8417 5.58084 18.7631 5.39784C18.6845 5.21483 18.5702 5.04932 18.427 4.91095Z" fill="currentColor"/>
</g>
<defs>
<clipPath id="clip0_406_2157">
<rect width="24" height="24" fill="white"/>
</clipPath>
</defs>
</svg>
