<svg width="24" height="24" viewBox="0 0 24 24" fill="none" xmlns="http://www.w3.org/2000/svg">
<g clip-path="url(#clip0_406_1837)">
<path d="M14.1811 0.207727C14.0369 0.18119 13.8887 0.186683 13.7468 0.223818C13.605 0.260954 13.4731 0.328822 13.3604 0.422615C13.2477 0.516409 13.157 0.633834 13.0948 0.766572C13.0325 0.89931 13.0002 1.04411 13.0001 1.19073V4.06973C11.8708 3.92044 10.7227 4.01404 9.63246 4.34427C8.54226 4.67451 7.53515 5.23375 6.67851 5.9846C5.82187 6.73545 5.13546 7.66058 4.6652 8.6981C4.19494 9.73562 3.95167 10.8616 3.95167 12.0007C3.95167 13.1398 4.19494 14.2658 4.6652 15.3034C5.13546 16.3409 5.82187 17.266 6.67851 18.0169C7.53515 18.7677 8.54226 19.3269 9.63246 19.6572C10.7227 19.9874 11.8708 20.081 13.0001 19.9317V22.8107C13.0002 22.9573 13.0325 23.1021 13.0948 23.2349C13.157 23.3676 13.2477 23.485 13.3604 23.5788C13.4731 23.6726 13.605 23.7405 13.7468 23.7776C13.8887 23.8148 14.0369 23.8203 14.1811 23.7937C16.9386 23.2863 19.4311 21.8287 21.2253 19.6741C23.0195 17.5196 24.002 14.8045 24.002 12.0007C24.002 9.19695 23.0195 6.48182 21.2253 4.32731C19.4311 2.1728 16.9386 0.715141 14.1811 0.207727ZM13.0001 13.7237V16.0007C13.0001 16.2659 12.8948 16.5203 12.7072 16.7078C12.5197 16.8954 12.2653 17.0007 12.0001 17.0007C11.7349 17.0007 11.4805 16.8954 11.293 16.7078C11.1055 16.5203 11.0001 16.2659 11.0001 16.0007V13.7237C10.6962 13.5503 10.4437 13.2995 10.268 12.9969C10.0923 12.6943 9.99975 12.3506 9.99975 12.0007C9.99975 11.6508 10.0923 11.3071 10.268 11.0046C10.4437 10.702 10.6962 10.4512 11.0001 10.2777V7.00073C11.0001 6.73551 11.1055 6.48116 11.293 6.29362C11.4805 6.10608 11.7349 6.00073 12.0001 6.00073C12.2653 6.00073 12.5197 6.10608 12.7072 6.29362C12.8948 6.48116 13.0001 6.73551 13.0001 7.00073V10.2777C13.304 10.4512 13.5566 10.702 13.7323 11.0046C13.908 11.3071 14.0005 11.6508 14.0005 12.0007C14.0005 12.3506 13.908 12.6943 13.7323 12.9969C13.5566 13.2995 13.304 13.5503 13.0001 13.7237ZM2.98612 4.96873C3.18023 5.00563 3.35906 5.09922 3.50004 5.23767C3.64101 5.37612 3.73781 5.55323 3.77821 5.74665C3.81862 5.94007 3.80081 6.14112 3.72705 6.32443C3.65329 6.50774 3.52688 6.66508 3.36377 6.77661C3.20066 6.88814 3.00817 6.94884 2.81059 6.95107C2.61301 6.95329 2.4192 6.89693 2.25363 6.7891C2.08805 6.68127 1.95813 6.52681 1.88026 6.34521C1.8024 6.1636 1.78008 5.963 1.81612 5.76873C1.84014 5.63924 1.8895 5.51577 1.96137 5.40542C2.03324 5.29506 2.1262 5.19998 2.23491 5.12565C2.34362 5.05132 2.46595 4.99919 2.59486 4.97226C2.72378 4.94533 2.85674 4.94413 2.98612 4.96873ZM1.38612 8.95573C1.58023 8.99263 1.75906 9.08622 1.90004 9.22467C2.04101 9.36312 2.13781 9.54023 2.17821 9.73365C2.21862 9.92707 2.20081 10.1281 2.12705 10.3114C2.05329 10.4947 1.92688 10.6521 1.76377 10.7636C1.60066 10.8751 1.40817 10.9358 1.21059 10.9381C1.01301 10.9403 0.819204 10.8839 0.653627 10.7761C0.488051 10.6683 0.35813 10.5138 0.280264 10.3322C0.202397 10.1506 0.180076 9.95 0.216117 9.75573C0.240157 9.62654 0.289421 9.50337 0.361094 9.39323C0.432766 9.2831 0.525441 9.18817 0.633821 9.11387C0.742202 9.03958 0.864162 8.98737 0.992731 8.96023C1.1213 8.9331 1.25396 8.93157 1.38312 8.95573H1.38612ZM10.1281 21.8237C10.3224 21.8609 10.5013 21.9548 10.6422 22.0937C10.783 22.2325 10.8796 22.41 10.9196 22.6037C10.9596 22.7974 10.9412 22.9986 10.8669 23.1819C10.7925 23.3652 10.6655 23.5223 10.5018 23.6334C10.3381 23.7444 10.1452 23.8045 9.9474 23.8059C9.74961 23.8073 9.55584 23.75 9.3906 23.6413C9.22537 23.5326 9.09608 23.3773 9.0191 23.1951C8.94211 23.0129 8.92089 22.812 8.95812 22.6177C9.00805 22.3579 9.15889 22.1285 9.37762 21.9797C9.59635 21.8309 9.86513 21.7748 10.1251 21.8237H10.1281ZM6.00812 1.90073C6.20223 1.93763 6.38106 2.03122 6.52204 2.16967C6.66301 2.30812 6.75981 2.48523 6.80021 2.67865C6.84062 2.87207 6.82281 3.07312 6.74905 3.25643C6.67529 3.43973 6.54888 3.59708 6.38577 3.70861C6.22266 3.82014 6.03017 3.88084 5.83259 3.88307C5.63501 3.88529 5.4412 3.82893 5.27563 3.7211C5.11005 3.61327 4.98013 3.45881 4.90226 3.27721C4.8244 3.0956 4.80208 2.895 4.83812 2.70073C4.86214 2.57124 4.9115 2.44777 4.98337 2.33742C5.05524 2.22706 5.1482 2.13198 5.25691 2.05765C5.36562 1.98332 5.48795 1.93119 5.61686 1.90426C5.74578 1.87733 5.87874 1.87613 6.00812 1.90073ZM10.1821 0.209727C10.3759 0.250085 10.5534 0.347057 10.692 0.488358C10.8307 0.62966 10.9243 0.808932 10.9609 1.00347C10.9976 1.198 10.9757 1.39904 10.898 1.58113C10.8204 1.76321 10.6904 1.91814 10.5246 2.02629C10.3588 2.13445 10.1646 2.19095 9.96665 2.18866C9.7687 2.18636 9.57589 2.12537 9.41264 2.0134C9.24938 1.90143 9.12304 1.74353 9.0496 1.55969C8.97616 1.37585 8.95894 1.17436 9.00012 0.980727C9.05513 0.722025 9.21039 0.495654 9.43191 0.351156C9.65344 0.206659 9.92319 0.155806 10.1821 0.209727ZM0.234117 14.0467C0.271023 13.8526 0.364608 13.6738 0.503059 13.5328C0.641511 13.3918 0.818623 13.295 1.01204 13.2546C1.20546 13.2142 1.40651 13.232 1.58982 13.3058C1.77313 13.3796 1.93047 13.506 2.042 13.6691C2.15353 13.8322 2.21423 14.0247 2.21646 14.2223C2.21868 14.4198 2.16232 14.6136 2.05449 14.7792C1.94666 14.9448 1.7922 15.0747 1.6106 15.1526C1.42899 15.2304 1.22839 15.2528 1.03412 15.2167C0.90463 15.1927 0.781164 15.1433 0.670806 15.0715C0.560448 14.9996 0.465373 14.9066 0.39104 14.7979C0.316706 14.6892 0.264578 14.5669 0.237649 14.438C0.21072 14.3091 0.20952 14.1761 0.234117 14.0467ZM1.91512 18.0097C1.95202 17.8156 2.04561 17.6368 2.18406 17.4958C2.32251 17.3548 2.49962 17.258 2.69304 17.2176C2.88646 17.1772 3.08751 17.195 3.27082 17.2688C3.45412 17.3426 3.61147 17.469 3.723 17.6321C3.83453 17.7952 3.89523 17.9877 3.89746 18.1853C3.89968 18.3828 3.84332 18.5766 3.73549 18.7422C3.62766 18.9078 3.4732 19.0377 3.2916 19.1156C3.10999 19.1934 2.90939 19.2158 2.71512 19.1797C2.58563 19.1557 2.46216 19.1063 2.35181 19.0345C2.24145 18.9626 2.14637 18.8696 2.07204 18.7609C1.99771 18.6522 1.94558 18.5299 1.91865 18.401C1.89172 18.2721 1.89052 18.1391 1.91512 18.0097ZM4.96712 21.0007C5.00402 20.8066 5.09761 20.6278 5.23606 20.4868C5.37451 20.3458 5.55162 20.249 5.74504 20.2086C5.93846 20.1682 6.13951 20.186 6.32282 20.2598C6.50612 20.3336 6.66347 20.46 6.775 20.6231C6.88653 20.7862 6.94723 20.9787 6.94946 21.1763C6.95168 21.3738 6.89532 21.5676 6.78749 21.7332C6.67966 21.8988 6.5252 22.0287 6.3436 22.1066C6.16199 22.1845 5.96139 22.2068 5.76712 22.1707C5.63763 22.1467 5.51416 22.0973 5.40381 22.0255C5.29345 21.9536 5.19837 21.8606 5.12404 21.7519C5.04971 21.6432 4.99758 21.5209 4.97065 21.392C4.94372 21.2631 4.94252 21.1301 4.96712 21.0007Z" fill="currentColor"/>
</g>
<defs>
<clipPath id="clip0_406_1837">
<rect width="24" height="24" fill="white"/>
</clipPath>
</defs>
</svg>
