<svg width="24" height="24" viewBox="0 0 24 24" fill="none" xmlns="http://www.w3.org/2000/svg">
<g clip-path="url(#clip0_406_2287)">
<path d="M15.5 0H8.5C7.0418 0.00158817 5.64377 0.581561 4.61267 1.61267C3.58156 2.64377 3.00159 4.0418 3 5.5V18.5C3.00159 19.9582 3.58156 21.3562 4.61267 22.3873C5.64377 23.4184 7.0418 23.9984 8.5 24H15.5C16.9582 23.9984 18.3562 23.4184 19.3873 22.3873C20.4184 21.3562 20.9984 19.9582 21 18.5V5.5C20.9984 4.0418 20.4184 2.64377 19.3873 1.61267C18.3562 0.581561 16.9582 0.00158817 15.5 0V0ZM18 18.5C18 19.163 17.7366 19.7989 17.2678 20.2678C16.7989 20.7366 16.163 21 15.5 21H8.5C7.83696 21 7.20107 20.7366 6.73223 20.2678C6.26339 19.7989 6 19.163 6 18.5V5.5C6 4.83696 6.26339 4.20107 6.73223 3.73223C7.20107 3.26339 7.83696 3 8.5 3H15.5C16.163 3 16.7989 3.26339 17.2678 3.73223C17.7366 4.20107 18 4.83696 18 5.5V18.5Z" fill="currentColor"/>
</g>
<defs>
<clipPath id="clip0_406_2287">
<rect width="24" height="24" fill="white"/>
</clipPath>
</defs>
</svg>
