<svg width="24" height="24" viewBox="0 0 24 24" fill="none" xmlns="http://www.w3.org/2000/svg">
<g clip-path="url(#clip0_406_1853)">
<path d="M7 22V23C7 23.2652 6.89464 23.5196 6.70711 23.7071C6.51957 23.8946 6.26522 24 6 24C5.73478 24 5.48043 23.8946 5.29289 23.7071C5.10536 23.5196 5 23.2652 5 23V22C5 21.7348 4.89464 21.4804 4.70711 21.2929C4.51957 21.1054 4.26522 21 4 21H2V23C2 23.2652 1.89464 23.5196 1.70711 23.7071C1.51957 23.8946 1.26522 24 1 24C0.734784 24 0.48043 23.8946 0.292893 23.7071C0.105357 23.5196 0 23.2652 0 23V16C0 15.7348 0.105357 15.4804 0.292893 15.2929C0.48043 15.1054 0.734784 15 1 15C1.26522 15 1.51957 15.1054 1.70711 15.2929C1.89464 15.4804 2 15.7348 2 16V19H4C4.79565 19 5.55871 19.3161 6.12132 19.8787C6.68393 20.4413 7 21.2044 7 22ZM23 15C22.7348 15 22.4804 15.1054 22.2929 15.2929C22.1054 15.4804 22 15.7348 22 16V19H20C19.2044 19 18.4413 19.3161 17.8787 19.8787C17.3161 20.4413 17 21.2044 17 22V23C17 23.2652 17.1054 23.5196 17.2929 23.7071C17.4804 23.8946 17.7348 24 18 24C18.2652 24 18.5196 23.8946 18.7071 23.7071C18.8946 23.5196 19 23.2652 19 23V22C19 21.7348 19.1054 21.4804 19.2929 21.2929C19.4804 21.1054 19.7348 21 20 21H22V23C22 23.2652 22.1054 23.5196 22.2929 23.7071C22.4804 23.8946 22.7348 24 23 24C23.2652 24 23.5196 23.8946 23.7071 23.7071C23.8946 23.5196 24 23.2652 24 23V16C24 15.7348 23.8946 15.4804 23.7071 15.2929C23.5196 15.1054 23.2652 15 23 15ZM21.894 5.985L14.869 0.979C14.0493 0.374564 13.0641 0.0360126 12.046 0.009C12.1913 0.0166278 12.3331 0.0564763 12.461 0.125659C12.589 0.194841 12.7 0.291625 12.786 0.409C12.795 0.414 18.106 6.888 18.106 6.888C18.6853 7.72427 18.997 8.7167 19 9.734V10C19 10.2652 18.8946 10.5196 18.7071 10.7071C18.5196 10.8946 18.2652 11 18 11C17.7348 11 17.4804 10.8946 17.2929 10.7071C17.1054 10.5196 17 10.2652 17 10V9.734C17.001 9.14374 16.827 8.56643 16.5 8.075L13 3.8V10C13 10.2652 12.8946 10.5196 12.7071 10.7071C12.5196 10.8946 12.2652 11 12 11C11.7348 11 11.4804 10.8946 11.2929 10.7071C11.1054 10.5196 11 10.2652 11 10V3.8L7.442 8.154C7.14944 8.62881 6.99627 9.17631 7 9.734V10C7 10.2652 6.89464 10.5196 6.70711 10.7071C6.51957 10.8946 6.26522 11 6 11C5.73478 11 5.48043 10.8946 5.29289 10.7071C5.10536 10.5196 5 10.2652 5 10V9.734C4.99906 8.74977 5.28961 7.7873 5.835 6.968C5.835 6.968 11.2 0.414 11.217 0.406C11.3068 0.281901 11.4243 0.180543 11.5603 0.110041C11.6963 0.0395394 11.8469 0.00185323 12 0C10.9502 0.0116541 9.92986 0.348058 9.079 0.963L2.106 5.985C1.45445 6.46046 0.924198 7.08285 0.55828 7.80166C0.192362 8.52046 0.00109332 9.31542 0 10.122C0.000794154 10.885 0.304266 11.6166 0.843824 12.1562C1.38338 12.6957 2.11495 12.9992 2.878 13H11V23C11 23.2652 11.1054 23.5196 11.2929 23.7071C11.4804 23.8946 11.7348 24 12 24C12.2652 24 12.5196 23.8946 12.7071 23.7071C12.8946 23.5196 13 23.2652 13 23V13H21.122C21.885 12.9992 22.6166 12.6957 23.1562 12.1562C23.6957 11.6166 23.9992 10.885 24 10.122C23.9989 9.31542 23.8076 8.52046 23.4417 7.80166C23.0758 7.08285 22.5455 6.46046 21.894 5.985Z" fill="currentColor"/>
</g>
<defs>
<clipPath id="clip0_406_1853">
<rect width="24" height="24" fill="white"/>
</clipPath>
</defs>
</svg>
