<svg width="24" height="24" viewBox="0 0 24 24" fill="none" xmlns="http://www.w3.org/2000/svg">
<g clip-path="url(#clip0_406_2054)">
<path d="M23.2668 9.40753C22.3644 7.92978 21.2261 6.6098 19.897 5.49998L22.696 2.70104C23.0795 2.30392 23.0685 1.67111 22.6714 1.28758C22.284 0.913419 21.6699 0.913419 21.2825 1.28758L18.2386 4.33543C16.3517 3.21469 14.1945 2.63052 11.9999 2.64607C5.81123 2.64607 2.28454 6.88252 0.733127 9.40758C-0.244416 10.9887 -0.244416 12.9865 0.733127 14.5677C1.63556 16.0454 2.77387 17.3654 4.10289 18.4752L1.30395 21.2742C0.906828 21.6577 0.895817 22.2906 1.27935 22.6876C1.66288 23.0848 2.29573 23.0958 2.69281 22.7122C2.70115 22.7042 2.70935 22.696 2.71741 22.6876L5.76826 19.6368C7.65282 20.7574 9.80743 21.3425 11.9999 21.3291C18.1887 21.3291 21.7154 17.0927 23.2668 14.5676C24.2444 12.9865 24.2444 10.9887 23.2668 9.40753ZM6.00222 11.9876C5.99655 8.68063 8.67273 5.99522 11.9797 5.98955C13.2309 5.98739 14.4514 6.3773 15.4697 7.10443L14.0182 8.55589C13.4089 8.18844 12.7115 7.99257 12 7.9891C9.79169 7.9891 8.00149 9.7793 8.00149 11.9876C8.00496 12.6991 8.20082 13.3965 8.56828 14.0059L7.11682 15.4573C6.39203 14.4455 6.00227 13.2322 6.00222 11.9876ZM12 17.9854C10.7554 17.9853 9.54208 17.5956 8.53028 16.8708L9.98174 15.4193C10.5911 15.7868 11.2885 15.9826 12 15.9861C14.2083 15.9861 15.9985 14.1959 15.9985 11.9876C15.995 11.2761 15.7992 10.5787 15.4317 9.96935L16.8832 8.51789C18.8049 11.2091 18.1812 14.9487 15.49 16.8705C14.4717 17.5976 13.2512 17.9875 12 17.9854Z" fill="currentColor"/>
</g>
<defs>
<clipPath id="clip0_406_2054">
<rect width="24" height="24" fill="white"/>
</clipPath>
</defs>
</svg>
