<svg width="24" height="24" viewBox="0 0 24 24" fill="none" xmlns="http://www.w3.org/2000/svg">
<g clip-path="url(#clip0_406_2128)">
<path d="M18.3572 7.36088C18.1857 7.30783 18.03 7.21312 17.904 7.08522C17.778 6.95731 17.6857 6.80019 17.6352 6.62788C17.1061 4.9275 16.0247 3.45229 14.5624 2.43592C13.1001 1.41955 11.3405 0.920145 9.56234 1.0168C7.78415 1.11346 6.08905 1.80066 4.74554 2.96954C3.40204 4.13843 2.48695 5.72217 2.14523 7.46988C1.79367 9.23656 2.07698 11.0706 2.94523 12.6489C1.93385 13.1711 1.11144 13.9969 0.59346 15.0105C0.0754822 16.024 -0.11204 17.1743 0.0572261 18.2999C0.317877 19.6077 1.01804 20.787 2.04144 21.642C3.06485 22.4969 4.34991 22.9761 5.68323 22.9999H14.7832C19.8562 22.9999 23.6342 19.9729 23.9722 15.6379C24.1235 13.8242 23.6488 12.0135 22.6271 10.5074C21.6053 9.00125 20.0984 7.89074 18.3572 7.36088ZM18.6652 18.7469L17.0792 20.1609C16.8075 20.4299 16.4852 20.6425 16.131 20.7865C15.7768 20.9305 15.3976 21.003 15.0152 20.9999C14.6187 21.0007 14.2258 20.9232 13.8593 20.7718C13.4928 20.6205 13.1597 20.3982 12.8792 20.1179L11.3352 18.7439C11.2371 18.6566 11.1572 18.5508 11.1 18.4325C11.0428 18.3143 11.0094 18.186 11.0018 18.0549C10.9864 17.7901 11.0769 17.53 11.2532 17.3319C11.4296 17.1338 11.6774 17.0138 11.9422 16.9985C12.0734 16.9908 12.2047 17.0091 12.3287 17.0523C12.4528 17.0954 12.5671 17.1626 12.6652 17.2499L14.0002 18.4439V10.9999C14.0002 10.7347 14.1056 10.4803 14.2931 10.2928C14.4807 10.1052 14.735 9.99988 15.0002 9.99988C15.2654 9.99988 15.5198 10.1052 15.7073 10.2928C15.8949 10.4803 16.0002 10.7347 16.0002 10.9999V18.4449L17.3352 17.2529C17.5333 17.0765 17.7934 16.9861 18.0582 17.0015C18.323 17.0168 18.5709 17.1368 18.7472 17.3349C18.9236 17.533 19.014 17.7931 18.9987 18.0579C18.9833 18.3227 18.8633 18.5705 18.6652 18.7469Z" fill="currentColor"/>
</g>
<defs>
<clipPath id="clip0_406_2128">
<rect width="24" height="24" fill="white"/>
</clipPath>
</defs>
</svg>
