<svg width="24" height="24" viewBox="0 0 24 24" fill="none" xmlns="http://www.w3.org/2000/svg">
<g clip-path="url(#clip0_406_2236)">
<path d="M9.39996 24C9.11806 23.9824 8.83901 23.9335 8.56796 23.854C7.86912 23.661 7.24746 23.2558 6.78886 22.6943C6.33026 22.1327 6.05736 21.4426 6.00785 20.7193C5.95834 19.996 6.13467 19.2752 6.51248 18.6564C6.89029 18.0376 7.45094 17.5515 8.11696 17.265C7.93843 16.3609 7.95787 15.4289 8.17396 14.533C8.47748 13.3067 9.16035 12.2074 10.1253 11.3919C11.0902 10.5764 12.2879 10.0863 13.5477 9.99142C14.8075 9.89655 16.0651 10.2018 17.1412 10.8636C18.2174 11.5253 19.0572 12.5099 19.541 13.677C19.623 13.8099 19.735 13.9217 19.868 14.0035C20.0011 14.0853 20.1514 14.1348 20.307 14.148C21.563 14.4903 22.6365 15.3079 23.3004 16.4278C23.9643 17.5476 24.1664 18.8818 23.864 20.148C23.6549 21.049 23.1974 21.8734 22.5433 22.5274C21.8893 23.1814 21.065 23.639 20.164 23.848C19.8153 23.9345 19.4589 23.9854 19.1 24H9.39996ZM5.99996 16.23C5.98044 15.5 6.05778 14.7707 6.22996 14.061C6.61886 12.48 7.48092 11.0552 8.70099 9.9771C9.92106 8.89896 11.4411 8.21877 13.0579 8.02736C14.6748 7.83596 16.3116 8.14246 17.7497 8.90593C19.1878 9.6694 20.3587 10.8535 21.106 12.3C22.2015 12.6486 23.1951 13.2601 24 14.081C24.0237 12.3561 23.4861 10.6702 22.468 9.27751C21.45 7.88482 20.0068 6.86087 18.356 6.36003C18.1844 6.30698 18.0287 6.21227 17.9027 6.08436C17.7768 5.95645 17.6844 5.79933 17.634 5.62703C17.1048 3.92665 16.0234 2.45144 14.5612 1.43507C13.0989 0.4187 11.3393 -0.0807097 9.56107 0.0159484C7.78289 0.112607 6.08778 0.799806 4.74428 1.96869C3.40077 3.13757 2.48568 4.72131 2.14396 6.46903C1.79241 8.23571 2.07572 10.0698 2.94396 11.648C1.93241 12.1703 1.10987 12.9963 0.591878 14.01C0.0738882 15.0238 -0.113526 16.1743 0.0559619 17.3C0.259925 18.3513 0.750942 19.3255 1.47461 20.1149C2.19827 20.9042 3.12633 21.4778 4.15596 21.772C3.91189 20.7683 3.9554 19.7162 4.28152 18.736C4.60764 17.7559 5.20319 16.8874 5.99996 16.23Z" fill="currentColor"/>
</g>
<defs>
<clipPath id="clip0_406_2236">
<rect width="24" height="24" fill="white"/>
</clipPath>
</defs>
</svg>
