<svg width="24" height="24" viewBox="0 0 24 24" fill="none" xmlns="http://www.w3.org/2000/svg">
<g clip-path="url(#clip0_406_2228)">
<path d="M19 0H5C3.67392 0 2.40215 0.526784 1.46447 1.46447C0.526784 2.40215 0 3.67392 0 5H0C0 5.79565 0.31607 6.55871 0.87868 7.12132C1.44129 7.68393 2.20435 8 3 8H21C21.7605 8.00929 22.4956 7.72644 23.0538 7.20977C23.612 6.6931 23.9506 5.98198 24 5.223C24.0294 4.54804 23.9219 3.87411 23.6839 3.24183C23.4459 2.60954 23.0823 2.03198 22.6152 1.54395C22.148 1.05593 21.5868 0.66754 20.9655 0.402193C20.3442 0.136846 19.6756 3.37588e-05 19 0V0Z" fill="currentColor"/>
<path d="M21.9998 10H1.99983C1.73462 10 1.48026 10.1054 1.29273 10.2929C1.10519 10.4804 0.999832 10.7348 0.999832 11V19C1.00142 20.3256 1.52871 21.5964 2.46605 22.5338C3.40339 23.4711 4.67424 23.9984 5.99983 24H17.9998C19.3254 23.9984 20.5963 23.4711 21.5336 22.5338C22.471 21.5964 22.9982 20.3256 22.9998 19V11C22.9998 10.7348 22.8945 10.4804 22.7069 10.2929C22.5194 10.1054 22.265 10 21.9998 10ZM14.9998 15H8.99983C8.73462 15 8.48026 14.8946 8.29273 14.7071C8.10519 14.5196 7.99983 14.2652 7.99983 14C7.99983 13.7348 8.10519 13.4804 8.29273 13.2929C8.48026 13.1054 8.73462 13 8.99983 13H14.9998C15.265 13 15.5194 13.1054 15.7069 13.2929C15.8945 13.4804 15.9998 13.7348 15.9998 14C15.9998 14.2652 15.8945 14.5196 15.7069 14.7071C15.5194 14.8946 15.265 15 14.9998 15Z" fill="currentColor"/>
</g>
<defs>
<clipPath id="clip0_406_2228">
<rect width="24" height="24" fill="white"/>
</clipPath>
</defs>
</svg>
