<svg width="24" height="24" viewBox="0 0 24 24" fill="none" xmlns="http://www.w3.org/2000/svg">
<g clip-path="url(#clip0_406_1982)">
<path d="M19.7904 3.27889C15.5429 -1.04172 8.59702 -1.10097 4.27641 3.14656C-0.0441954 7.39409 -0.103445 14.34 4.14409 18.6606C4.19687 18.7143 4.25021 18.7675 4.30412 18.8201L8.23656 22.4533C10.3389 24.5099 13.6966 24.5183 15.8092 22.4722L19.7904 18.7932C24.0744 14.5089 24.0744 7.56307 19.7904 3.27889ZM16.0226 12.0333H13.0306V15.0252C13.0306 15.576 12.5841 16.0226 12.0333 16.0226C11.4826 16.0226 11.036 15.576 11.036 15.0252V12.0333H8.04409C7.4933 12.0333 7.04677 11.5868 7.04677 11.036C7.04677 10.4852 7.4933 10.0387 8.04409 10.0387H11.036V7.04675C11.036 6.49596 11.4826 6.04943 12.0333 6.04943C12.5841 6.04943 13.0306 6.49596 13.0306 7.04675V10.0387H16.0226C16.5734 10.0387 17.0199 10.4852 17.0199 11.036C17.0199 11.5868 16.5734 12.0333 16.0226 12.0333Z" fill="currentColor"/>
</g>
<defs>
<clipPath id="clip0_406_1982">
<rect width="24" height="24" fill="white"/>
</clipPath>
</defs>
</svg>
