<svg width="24" height="24" viewBox="0 0 24 24" fill="none" xmlns="http://www.w3.org/2000/svg">
<path d="M17.0609 9.525L13.4749 5.939C13.1935 5.65774 12.8119 5.49978 12.4141 5.49988C12.0162 5.49997 11.6347 5.65811 11.3534 5.9395C11.0722 6.2209 10.9142 6.6025 10.9143 7.00036C10.9144 7.39822 11.0725 7.77974 11.3539 8.061L13.7929 10.5H4.99994C4.60211 10.5 4.22058 10.658 3.93928 10.9393C3.65797 11.2206 3.49994 11.6022 3.49994 12C3.49994 12.3978 3.65797 12.7794 3.93928 13.0607C4.22058 13.342 4.60211 13.5 4.99994 13.5H13.7929L11.3539 15.939C11.0725 16.2203 10.9144 16.6018 10.9143 16.9997C10.9142 17.3975 11.0722 17.7791 11.3534 18.0605C11.6347 18.3419 12.0162 18.5 12.4141 18.5001C12.8119 18.5002 13.1935 18.3423 13.4749 18.061L17.0609 14.475C17.7162 13.818 18.0841 12.9279 18.0841 12C18.0841 11.0721 17.7162 10.182 17.0609 9.525Z" fill="currentColor"/>
</svg>
