<svg width="24" height="24" viewBox="0 0 24 24" fill="none" xmlns="http://www.w3.org/2000/svg">
<g clip-path="url(#clip0_406_1870)">
<path d="M21.77 8.94838C21.6069 8.89004 21.4577 8.79809 21.3323 8.67848C21.2069 8.55887 21.1081 8.41426 21.0421 8.25401C20.9761 8.09377 20.9445 7.92146 20.9493 7.74823C20.9541 7.575 20.9953 7.40471 21.07 7.24838C21.357 6.64444 21.4501 5.96647 21.3364 5.30754C21.2227 4.64861 20.9079 4.04101 20.4351 3.56814C19.9624 3.09527 19.3548 2.7803 18.6959 2.66647C18.037 2.55264 17.3591 2.64553 16.755 2.93238C16.5987 3.00701 16.4284 3.04801 16.2552 3.05275C16.0821 3.05749 15.9098 3.02586 15.7496 2.95989C15.5894 2.89393 15.4448 2.7951 15.3252 2.66979C15.2055 2.54447 15.1135 2.39546 15.055 2.23238C14.8302 1.60346 14.4165 1.05941 13.8705 0.674751C13.3245 0.290088 12.6729 0.0836182 12.005 0.0836182C11.3372 0.0836182 10.6856 0.290088 10.1396 0.674751C9.59359 1.05941 9.17985 1.60346 8.95504 2.23238C8.8967 2.39556 8.80475 2.54468 8.68514 2.67007C8.56553 2.79547 8.42092 2.89437 8.26068 2.96035C8.10043 3.02633 7.92812 3.05794 7.75489 3.05312C7.58166 3.0483 7.41137 3.00717 7.25504 2.93238C6.65072 2.64325 5.97161 2.54862 5.31126 2.66153C4.65092 2.77444 4.04183 3.08933 3.5679 3.56282C3.09397 4.03631 2.77852 4.64511 2.665 5.30535C2.55148 5.96559 2.64548 6.64479 2.93404 7.24938C3.00899 7.40568 3.05025 7.576 3.05515 7.74927C3.06005 7.92255 3.02847 8.09491 2.96247 8.2552C2.89647 8.41549 2.79752 8.56012 2.67203 8.6797C2.54654 8.79929 2.39732 8.89117 2.23404 8.94938C1.60557 9.17464 1.06203 9.58855 0.67776 10.1345C0.293489 10.6804 0.0872498 11.3318 0.0872498 11.9994C0.0872498 12.667 0.293489 13.3183 0.67776 13.8643C1.06203 14.4102 1.60557 14.8241 2.23404 15.0494C2.39766 15.1072 2.5473 15.1988 2.67324 15.3182C2.79919 15.4376 2.89862 15.5821 2.9651 15.7424C3.03158 15.9027 3.06361 16.0752 3.05912 16.2487C3.05463 16.4221 3.01372 16.5927 2.93904 16.7494C2.65188 17.3529 2.55854 18.0306 2.67182 18.6893C2.78511 19.348 3.09947 19.9556 3.57177 20.4285C4.04407 20.9015 4.65116 21.2167 5.30973 21.3309C5.9683 21.4451 6.64608 21.3527 7.25004 21.0664C7.40637 20.9916 7.57666 20.9505 7.74989 20.9456C7.92312 20.9408 8.09543 20.9724 8.25568 21.0384C8.41592 21.1044 8.56053 21.2033 8.68014 21.3287C8.79975 21.4541 8.8917 21.6032 8.95004 21.7664C9.17485 22.3953 9.58859 22.9393 10.1346 23.324C10.6806 23.7087 11.3322 23.9151 12 23.9151C12.6679 23.9151 13.3195 23.7087 13.8655 23.324C14.4115 22.9393 14.8252 22.3953 15.05 21.7664C15.1084 21.6032 15.2003 21.4541 15.3199 21.3287C15.4396 21.2033 15.5842 21.1044 15.7444 21.0384C15.9047 20.9724 16.077 20.9408 16.2502 20.9456C16.4234 20.9505 16.5937 20.9916 16.75 21.0664C17.354 21.3534 18.032 21.4464 18.6909 21.3327C19.3498 21.2191 19.9574 20.9042 20.4303 20.4315C20.9032 19.9587 21.2181 19.3512 21.332 18.6923C21.4458 18.0334 21.3529 17.3554 21.066 16.7514C20.9914 16.595 20.9504 16.4248 20.9457 16.2516C20.9409 16.0784 20.9726 15.9061 21.0385 15.7459C21.1045 15.5857 21.2033 15.4411 21.3286 15.3215C21.4539 15.2019 21.603 15.1099 21.766 15.0514C22.395 14.8266 22.939 14.4128 23.3237 13.8668C23.7083 13.3208 23.9148 12.6693 23.9148 12.0014C23.9148 11.3335 23.7083 10.6819 23.3237 10.1359C22.939 9.58993 22.395 9.17619 21.766 8.95138L21.77 8.94838Z" fill="currentColor"/>
</g>
<defs>
<clipPath id="clip0_406_1870">
<rect width="24" height="24" fill="white"/>
</clipPath>
</defs>
</svg>
