<svg width="24" height="24" viewBox="0 0 24 24" fill="none" xmlns="http://www.w3.org/2000/svg">
<g clip-path="url(#clip0_406_1890)">
<path d="M18 12C16.9464 12.0012 15.9111 11.7247 14.9984 11.1982C14.0858 10.6717 13.328 9.91396 12.8016 9.00128C12.2752 8.08859 11.9987 7.05326 12 5.99965C12.0013 4.94604 12.2803 3.91139 12.809 3H4.242L4.2 2.648C4.11382 1.9186 3.76306 1.24615 3.21419 0.758104C2.66532 0.270054 1.95647 0.000312836 1.222 0L1 0C0.734784 0 0.48043 0.105357 0.292893 0.292893C0.105357 0.48043 0 0.734784 0 1C0 1.26522 0.105357 1.51957 0.292893 1.70711C0.48043 1.89464 0.734784 2 1 2H1.222C1.46693 2.00003 1.70334 2.08996 1.88637 2.25272C2.06941 2.41547 2.18634 2.63975 2.215 2.883L3.591 14.583C3.73385 15.7998 4.31848 16.9218 5.23391 17.736C6.14934 18.5502 7.33185 19 8.557 19H19C19.2652 19 19.5196 18.8946 19.7071 18.7071C19.8946 18.5196 20 18.2652 20 18C20 17.7348 19.8946 17.4804 19.7071 17.2929C19.5196 17.1054 19.2652 17 19 17H8.557C7.93788 16.9985 7.33441 16.8054 6.82934 16.4473C6.32428 16.0893 5.94237 15.5837 5.736 15H17.657C18.8293 15.0001 19.9643 14.5882 20.8638 13.8364C21.7633 13.0846 22.37 12.0407 22.578 10.887L22.816 9.568C22.2597 10.3222 21.5341 10.9351 20.6976 11.3576C19.8611 11.78 18.9371 12 18 12Z" fill="currentColor"/>
<path d="M7.00006 24.0006C8.10462 24.0006 9.00005 23.1052 9.00005 22.0006C9.00005 20.896 8.10462 20.0006 7.00006 20.0006C5.89549 20.0006 5.00006 20.896 5.00006 22.0006C5.00006 23.1052 5.89549 24.0006 7.00006 24.0006Z" fill="currentColor"/>
<path d="M17 24.0006C18.1046 24.0006 19 23.1052 19 22.0006C19 20.896 18.1046 20.0006 17 20.0006C15.8954 20.0006 15 20.896 15 22.0006C15 23.1052 15.8954 24.0006 17 24.0006Z" fill="currentColor"/>
<path d="M14.9999 7.00061H16.9999V9.00061C16.9999 9.26583 17.1053 9.52018 17.2928 9.70772C17.4804 9.89525 17.7347 10.0006 17.9999 10.0006C18.2651 10.0006 18.5195 9.89525 18.707 9.70772C18.8946 9.52018 18.9999 9.26583 18.9999 9.00061V7.00061H20.9999C21.2651 7.00061 21.5195 6.89525 21.707 6.70772C21.8946 6.52018 21.9999 6.26583 21.9999 6.00061C21.9999 5.73539 21.8946 5.48104 21.707 5.2935C21.5195 5.10597 21.2651 5.00061 20.9999 5.00061H18.9999V3.00061C18.9999 2.73539 18.8946 2.48104 18.707 2.2935C18.5195 2.10597 18.2651 2.00061 17.9999 2.00061C17.7347 2.00061 17.4804 2.10597 17.2928 2.2935C17.1053 2.48104 16.9999 2.73539 16.9999 3.00061V5.00061H14.9999C14.7347 5.00061 14.4804 5.10597 14.2928 5.2935C14.1053 5.48104 13.9999 5.73539 13.9999 6.00061C13.9999 6.26583 14.1053 6.52018 14.2928 6.70772C14.4804 6.89525 14.7347 7.00061 14.9999 7.00061Z" fill="currentColor"/>
</g>
<defs>
<clipPath id="clip0_406_1890">
<rect width="24" height="24" fill="white"/>
</clipPath>
</defs>
</svg>
