<svg width="24" height="24" viewBox="0 0 24 24" fill="none" xmlns="http://www.w3.org/2000/svg">
<g clip-path="url(#clip0_406_2177)">
<path d="M18.5811 2.14067L12.3161 0.0516681C12.111 -0.016653 11.8893 -0.016653 11.6841 0.0516681L5.41812 2.14067C4.42222 2.47172 3.55594 3.10817 2.94236 3.95961C2.32878 4.81105 1.99909 5.83418 2.00012 6.88367V12.0007C2.00012 19.5637 11.2001 23.7407 11.5941 23.9147C11.7219 23.9715 11.8603 24.0008 12.0001 24.0008C12.14 24.0008 12.2783 23.9715 12.4061 23.9147C12.8001 23.7407 22.0001 19.5637 22.0001 12.0007V6.88367C22.0011 5.83406 21.6713 4.81083 21.0575 3.95938C20.4437 3.10793 19.5772 2.47155 18.5811 2.14067Z" fill="currentColor"/>
</g>
<defs>
<clipPath id="clip0_406_2177">
<rect width="24" height="24" fill="white"/>
</clipPath>
</defs>
</svg>
