<svg width="24" height="24" viewBox="0 0 24 24" fill="none" xmlns="http://www.w3.org/2000/svg">
<g clip-path="url(#clip0_406_2202)">
<path d="M9.00018 23.9129C8.55118 23.9529 8.10018 23.9809 7.66918 23.9809C5.57531 24.1247 3.50728 23.4508 1.90018 22.1009C0.382182 20.5789 -0.173818 17.9099 0.0831821 15.0009L9.00018 23.9129ZM23.9452 8.53187C24.1002 5.80687 23.5352 3.33987 22.1002 1.90087C20.6652 0.461871 18.2002 -0.0991288 15.4712 0.0538712L23.9452 8.53187ZM23.6092 11.0239C23.0008 14.1447 21.5239 17.0303 19.3482 19.3489C17.1339 21.4298 14.395 22.8689 11.4252 23.5119L0.475182 12.5619C1.12588 9.59602 2.56956 6.86247 4.65218 4.65287C6.97074 2.47718 9.8564 1.00021 12.9772 0.391871L23.6092 11.0239ZM17.7092 10.2939L13.7092 6.29387C13.5206 6.11171 13.268 6.01092 13.0058 6.0132C12.7436 6.01548 12.4928 6.12064 12.3074 6.30605C12.122 6.49146 12.0168 6.74227 12.0145 7.00447C12.0122 7.26667 12.113 7.51927 12.2952 7.70787L13.5862 9.00087L12.0002 10.5869L10.7072 9.29387C10.5186 9.11171 10.266 9.01092 10.0038 9.0132C9.74158 9.01548 9.49077 9.12065 9.30536 9.30605C9.11996 9.49146 9.01479 9.74227 9.01251 10.0045C9.01023 10.2667 9.11102 10.5193 9.29318 10.7079L10.5862 12.0009L9.00018 13.5869L7.70718 12.2939C7.51858 12.1117 7.26598 12.0109 7.00378 12.0132C6.74158 12.0155 6.49077 12.1206 6.30536 12.3061C6.11996 12.4915 6.01479 12.7423 6.01251 13.0045C6.01023 13.2667 6.11102 13.5193 6.29318 13.7079L10.2932 17.7079C10.4818 17.89 10.7344 17.9908 10.9966 17.9885C11.2588 17.9863 11.5096 17.8811 11.695 17.6957C11.8804 17.5103 11.9856 17.2595 11.9879 16.9973C11.9901 16.7351 11.8893 16.4825 11.7072 16.2939L10.4142 15.0009L12.0002 13.4149L13.2932 14.7079C13.4818 14.89 13.7344 14.9908 13.9966 14.9885C14.2588 14.9863 14.5096 14.8811 14.695 14.6957C14.8804 14.5103 14.9856 14.2595 14.9879 13.9973C14.9901 13.7351 14.8893 13.4825 14.7072 13.2939L13.4142 12.0009L15.0002 10.4149L16.2932 11.7079C16.4818 11.89 16.7344 11.9908 16.9966 11.9885C17.2588 11.9863 17.5096 11.8811 17.695 11.6957C17.8804 11.5103 17.9856 11.2595 17.9879 10.9973C17.9901 10.7351 17.8893 10.4825 17.7072 10.2939H17.7092Z" fill="currentColor"/>
</g>
<defs>
<clipPath id="clip0_406_2202">
<rect width="24" height="24" fill="white"/>
</clipPath>
</defs>
</svg>
