<svg width="24" height="24" viewBox="0 0 24 24" fill="none" xmlns="http://www.w3.org/2000/svg">
<g clip-path="url(#clip0_406_2225)">
<path d="M23.7091 7.29971C23.8908 7.48881 23.9909 7.74172 23.9879 8.00395C23.985 8.26618 23.8791 8.51674 23.6931 8.70165C23.5072 8.88657 23.256 8.99103 22.9938 8.99253C22.7315 8.99404 22.4792 8.89247 22.2911 8.70971L19.5001 5.91471L16.7001 8.71471C16.6089 8.81623 16.4978 8.89799 16.3738 8.95497C16.2497 9.01194 16.1154 9.04292 15.9789 9.046C15.8424 9.04908 15.7068 9.02419 15.5803 8.97287C15.4539 8.92155 15.3392 8.84488 15.2435 8.74758C15.1478 8.65028 15.073 8.53442 15.0237 8.40712C14.9745 8.27983 14.9518 8.1438 14.9571 8.00741C14.9624 7.87102 14.9956 7.73716 15.0546 7.61408C15.1135 7.49099 15.1971 7.38128 15.3001 7.29171L18.0861 4.49971L15.2911 1.70671C15.1911 1.61535 15.1107 1.50463 15.0548 1.38126C14.9988 1.2579 14.9686 1.12445 14.9658 0.989028C14.963 0.853604 14.9877 0.719024 15.0385 0.593452C15.0893 0.46788 15.165 0.353935 15.2612 0.258529C15.3573 0.163123 15.4719 0.0882459 15.5978 0.0384398C15.7238 -0.0113663 15.8586 -0.0350628 15.994 -0.031212C16.1294 -0.0273612 16.2626 0.00395662 16.3855 0.0608414C16.5084 0.117726 16.6185 0.198992 16.7091 0.299708L19.5001 3.08771L22.3001 0.292708C22.4915 0.124946 22.7397 0.036481 22.994 0.0453401C23.2484 0.0541992 23.4898 0.159716 23.6691 0.340388C23.8484 0.52106 23.952 0.76329 23.9589 1.01772C23.9657 1.27214 23.8753 1.51962 23.7061 1.70971L20.9141 4.49971L23.7091 7.29971ZM20.6551 14.8597C20.0777 14.3103 19.3109 14.0044 18.5139 14.0056C17.7169 14.0067 16.951 14.3147 16.3751 14.8657L14.4691 16.4717C12.9128 15.8275 11.4992 14.882 10.3096 13.6896C9.11995 12.4972 8.17773 11.0815 7.5371 9.52371L9.1371 7.62371C9.68809 7.04785 9.99613 6.28191 9.99724 5.48491C9.99836 4.68791 9.69248 3.92111 9.1431 3.34371C9.1431 3.34371 7.2911 0.938708 7.2611 0.906708C6.69008 0.332569 5.91622 0.00595476 5.10652 -0.00265115C4.29681 -0.0112571 3.51619 0.298835 2.9331 0.860708L1.7841 1.86071C-5.9359 10.0697 13.9841 29.9987 22.1841 22.1607L23.0961 21.1117C23.6756 20.5306 24.001 19.7434 24.001 18.9227C24.001 18.102 23.6756 17.3148 23.0961 16.7337C23.0631 16.7077 20.6551 14.8557 20.6551 14.8557V14.8597Z" fill="currentColor"/>
</g>
<defs>
<clipPath id="clip0_406_2225">
<rect width="24" height="24" fill="white"/>
</clipPath>
</defs>
</svg>
