<svg width="24" height="24" viewBox="0 0 24 24" fill="none" xmlns="http://www.w3.org/2000/svg">
<g clip-path="url(#clip0_406_2139)">
<path d="M23.9998 11.5C23.9993 10.8103 23.795 10.1362 23.4127 9.56231C23.0304 8.98837 22.487 8.54016 21.8508 8.27397C21.4448 5.95633 20.2346 3.85608 18.433 2.34264C16.6313 0.8292 14.3538 -0.000488281 12.0008 -0.000488281C9.6479 -0.000488281 7.37032 0.8292 5.5687 2.34264C3.76709 3.85608 2.55684 5.95633 2.15083 8.27397C1.42484 8.5794 0.823082 9.12079 0.442879 9.81057C0.0626747 10.5004 -0.0737523 11.2982 0.0556583 12.0752C0.185069 12.8521 0.572751 13.5626 1.15602 14.0919C1.73928 14.6213 2.48403 14.9384 3.26983 14.992C3.78632 16.088 4.48679 17.0875 5.34083 17.947C4.08942 19.3134 3.29522 21.036 3.06883 22.875C3.05111 23.0156 3.0635 23.1585 3.10519 23.294C3.14687 23.4295 3.21689 23.5546 3.31061 23.661C3.40432 23.7674 3.51959 23.8526 3.64876 23.9111C3.77793 23.9695 3.91805 23.9998 4.05983 24H19.9188C20.0606 23.9999 20.2007 23.9697 20.33 23.9114C20.4592 23.8531 20.5745 23.768 20.6683 23.6617C20.7621 23.5554 20.8323 23.4304 20.8741 23.2949C20.9159 23.1594 20.9284 23.0166 20.9108 22.876C20.686 21.0417 19.8958 19.3228 18.6498 17.958C19.5086 17.0959 20.2128 16.0926 20.7318 14.992C21.6179 14.9331 22.4485 14.5396 23.0553 13.8912C23.6621 13.2428 23.9998 12.388 23.9998 11.5ZM20.2478 12.973C20.0146 12.9302 19.7737 12.9724 19.5689 13.0918C19.364 13.2112 19.2086 13.4 19.1308 13.624C18.2148 16.222 15.1298 19 11.9998 19C8.86983 19 5.78483 16.22 4.86883 13.622C4.79087 13.3981 4.63546 13.2094 4.43063 13.0901C4.22581 12.9707 3.98506 12.9284 3.75183 12.971C3.66873 12.9873 3.58447 12.997 3.49983 13C3.12862 12.9955 2.77224 12.8536 2.49962 12.6016C2.22699 12.3496 2.0575 12.0055 2.02391 11.6358C1.99032 11.2661 2.09503 10.897 2.31778 10.6C2.54053 10.3031 2.8655 10.0992 3.22983 10.028C3.44245 9.98943 3.63686 9.88305 3.78396 9.72478C3.93106 9.5665 4.02294 9.36483 4.04583 9.14997C4.19114 7.76195 4.69856 6.43647 5.51727 5.30624C6.33599 4.17601 7.43727 3.2807 8.71083 2.70997C8.5002 3.2458 8.42366 3.82498 8.48789 4.39713C8.55212 4.96928 8.75516 5.51707 9.07936 5.99286C9.40356 6.46865 9.83909 6.85803 10.3481 7.12712C10.8571 7.39622 11.4241 7.53689 11.9998 7.53689C12.5756 7.53689 13.1426 7.39622 13.6516 7.12712C14.1606 6.85803 14.5961 6.46865 14.9203 5.99286C15.2445 5.51707 15.4475 4.96928 15.5118 4.39713C15.576 3.82498 15.4995 3.2458 15.2888 2.70997C16.5624 3.2807 17.6637 4.17601 18.4824 5.30624C19.3011 6.43647 19.8085 7.76195 19.9538 9.14997C19.9767 9.36483 20.0686 9.5665 20.2157 9.72478C20.3628 9.88305 20.5572 9.98943 20.7698 10.028C21.1342 10.0992 21.4591 10.3031 21.6819 10.6C21.9046 10.897 22.0093 11.2661 21.9758 11.6358C21.9422 12.0055 21.7727 12.3496 21.5 12.6016C21.2274 12.8536 20.871 12.9955 20.4998 13C20.4153 12.9976 20.331 12.9886 20.2478 12.973Z" fill="currentColor"/>
<path d="M9.50015 13.0001C10.3286 13.0001 11.0002 12.3285 11.0002 11.5001C11.0002 10.6717 10.3286 10.0001 9.50015 10.0001C8.67173 10.0001 8.00015 10.6717 8.00015 11.5001C8.00015 12.3285 8.67173 13.0001 9.50015 13.0001Z" fill="currentColor"/>
<path d="M14.4998 13.0001C15.3283 13.0001 15.9998 12.3285 15.9998 11.5001C15.9998 10.6717 15.3283 10.0001 14.4998 10.0001C13.6714 10.0001 12.9998 10.6717 12.9998 11.5001C12.9998 12.3285 13.6714 13.0001 14.4998 13.0001Z" fill="currentColor"/>
</g>
<defs>
<clipPath id="clip0_406_2139">
<rect width="24" height="24" fill="white"/>
</clipPath>
</defs>
</svg>
