<svg width="24" height="24" viewBox="0 0 24 24" fill="none" xmlns="http://www.w3.org/2000/svg">
<g clip-path="url(#clip0_406_2058)">
<path d="M14.746 6.285C14.9355 6.0995 15.1909 5.99688 15.4561 5.99969C15.7213 6.0025 15.9745 6.11053 16.16 6.3L18 8.181V1C18 0.734784 18.1054 0.48043 18.2929 0.292893C18.4804 0.105357 18.7348 0 19 0C19.2652 0 19.5196 0.105357 19.7071 0.292893C19.8946 0.48043 20 0.734784 20 1V8.181L21.84 6.3C22.0257 6.11037 22.279 6.00226 22.5444 5.99944C22.8098 5.99663 23.0654 6.09935 23.255 6.285C23.4446 6.47065 23.5527 6.72403 23.5556 6.98939C23.5584 7.25476 23.4557 7.51037 23.27 7.7L20.755 10.27C20.2932 10.734 19.6666 10.9964 19.012 11C19.0058 11.0015 18.9992 11.0015 18.993 11C18.6697 11.0001 18.3496 10.9364 18.051 10.8125C17.7524 10.6886 17.4812 10.5069 17.253 10.278L14.73 7.7C14.6381 7.60608 14.5655 7.49496 14.5166 7.37299C14.4676 7.25102 14.4432 7.1206 14.4447 6.98918C14.4462 6.85777 14.4735 6.72793 14.5253 6.6071C14.577 6.48627 14.652 6.37682 14.746 6.285ZM12 15.422C12.7955 15.4229 13.5588 15.1078 14.122 14.546L16.463 12.205C16.2396 12.0528 16.0304 11.8808 15.838 11.691L13.3 9.1C12.7436 8.53134 12.4359 7.76498 12.4446 6.96947C12.4532 6.17397 12.7774 5.41446 13.346 4.858C13.82 4.394 14.792 3.543 15.42 3H5C4.14322 3.00234 3.3015 3.22542 2.55603 3.64773C1.81055 4.07004 1.18648 4.67732 0.744 5.411L9.878 14.546C10.4412 15.1078 11.2045 15.4229 12 15.422ZM22.185 11.668C21.7179 12.1489 21.146 12.5153 20.5138 12.7386C19.8817 12.9619 19.2065 13.0359 18.541 12.955L15.536 15.96C14.5972 16.896 13.3257 17.4216 12 17.4216C10.6743 17.4216 9.40276 16.896 8.464 15.96L0.046 7.542C0.032 7.7 0 7.843 0 8V19C0.00158786 20.3256 0.528882 21.5964 1.46622 22.5338C2.40356 23.4711 3.67441 23.9984 5 24H19C20.3256 23.9984 21.5964 23.4711 22.5338 22.5338C23.4711 21.5964 23.9984 20.3256 24 19V9.812L22.185 11.668Z" fill="currentColor"/>
</g>
<defs>
<clipPath id="clip0_406_2058">
<rect width="24" height="24" fill="white"/>
</clipPath>
</defs>
</svg>
