<svg width="24" height="24" viewBox="0 0 24 24" fill="none" xmlns="http://www.w3.org/2000/svg">
<g clip-path="url(#clip0_406_2276)">
<path d="M19 3H5C3.67441 3.00159 2.40356 3.52888 1.46622 4.46622C0.528882 5.40356 0.00158786 6.67441 0 8H24C23.9984 6.67441 23.4711 5.40356 22.5338 4.46622C21.5964 3.52888 20.3256 3.00159 19 3Z" fill="currentColor"/>
<path d="M0 15.9999C0.00158786 17.3255 0.528882 18.5963 1.46622 19.5336C2.40356 20.471 3.67441 20.9983 5 20.9999H19C20.3256 20.9983 21.5964 20.471 22.5338 19.5336C23.4711 18.5963 23.9984 17.3255 24 15.9999V9.99988H0V15.9999ZM7 15.4999C7 15.7965 6.91203 16.0866 6.7472 16.3332C6.58238 16.5799 6.34811 16.7722 6.07403 16.8857C5.79994 16.9992 5.49834 17.0289 5.20736 16.971C4.91639 16.9132 4.64912 16.7703 4.43934 16.5605C4.22956 16.3507 4.0867 16.0835 4.02882 15.7925C3.97094 15.5015 4.00065 15.1999 4.11418 14.9258C4.22771 14.6518 4.41997 14.4175 4.66664 14.2527C4.91332 14.0878 5.20333 13.9999 5.5 13.9999C5.89782 13.9999 6.27936 14.1579 6.56066 14.4392C6.84196 14.7205 7 15.102 7 15.4999Z" fill="currentColor"/>
</g>
<defs>
<clipPath id="clip0_406_2276">
<rect width="24" height="24" fill="white"/>
</clipPath>
</defs>
</svg>
