<svg width="24" height="24" viewBox="0 0 24 24" fill="none" xmlns="http://www.w3.org/2000/svg">
<g clip-path="url(#clip0_406_1896)">
<path d="M7 5C7 3.67392 7.52678 2.40215 8.46447 1.46447C9.40215 0.526784 10.6739 0 12 0C13.3261 0 14.5979 0.526784 15.5355 1.46447C16.4732 2.40215 17 3.67392 17 5C17 5.53043 16.7893 6.03914 16.4142 6.41421C16.0391 6.78929 15.5304 7 15 7H12.2L13.83 4.555C13.9772 4.33434 14.0307 4.06424 13.9788 3.80413C13.9268 3.54402 13.7737 3.3152 13.553 3.168C13.3323 3.0208 13.0622 2.9673 12.8021 3.01924C12.542 3.07119 12.3132 3.22434 12.166 3.445L9.8 7H9C8.46957 7 7.96086 6.78929 7.58579 6.41421C7.21071 6.03914 7 5.53043 7 5ZM19 2H18.326C18.7706 2.93755 19.0009 3.96236 19 5C19 6.06087 18.5786 7.07828 17.8284 7.82843C17.0783 8.57857 16.0609 9 15 9H8.466L8.474 8.987C7.52767 8.90782 6.64554 8.47627 6.0022 7.77775C5.35887 7.07922 5.0012 6.16464 5 5.215C5.00487 4.10089 5.26017 3.00213 5.747 2H5C3.67392 2 2.40215 2.52678 1.46447 3.46447C0.526784 4.40215 0 5.67392 0 7L0 19C0 19.6566 0.129329 20.3068 0.380602 20.9134C0.631876 21.52 1.00017 22.0712 1.46447 22.5355C2.40215 23.4732 3.67392 24 5 24H19C19.6566 24 20.3068 23.8707 20.9134 23.6194C21.52 23.3681 22.0712 22.9998 22.5355 22.5355C22.9998 22.0712 23.3681 21.52 23.6194 20.9134C23.8707 20.3068 24 19.6566 24 19V7C24 6.34339 23.8707 5.69321 23.6194 5.08658C23.3681 4.47995 22.9998 3.92876 22.5355 3.46447C22.0712 3.00017 21.52 2.63188 20.9134 2.3806C20.3068 2.12933 19.6566 2 19 2Z" fill="currentColor"/>
</g>
<defs>
<clipPath id="clip0_406_1896">
<rect width="24" height="24" fill="white"/>
</clipPath>
</defs>
</svg>
