<svg width="24" height="24" viewBox="0 0 24 24" fill="none" xmlns="http://www.w3.org/2000/svg">
<g clip-path="url(#clip0_406_1854)">
<path d="M13.118 0.0595229C15.9019 0.316039 18.5082 1.53871 20.485 3.51554C22.4618 5.49236 23.6845 8.09867 23.941 10.8825C22.4689 11.1018 20.9658 10.9735 19.5522 10.5078C18.1385 10.042 16.8535 9.25188 15.8 8.20052C14.7484 7.14717 13.958 5.86219 13.4923 4.44849C13.0266 3.03479 12.8984 1.53167 13.118 0.0595229ZM22.552 13.0005C20.9174 13.0013 19.3014 12.6544 17.8111 11.983C16.3208 11.3115 14.9903 10.3309 13.9078 9.10602C12.8254 7.88119 12.0158 6.44018 11.5328 4.87861C11.0497 3.31704 10.9042 1.6706 11.106 0.0485229C8.23798 0.253876 5.54038 1.48721 3.50876 3.52196C1.47714 5.5567 0.247944 8.2562 0.0469971 11.1245C1.78824 10.8828 3.56182 11.048 5.22846 11.6072C6.8951 12.1663 8.40943 13.1042 9.65253 14.3472C10.8956 15.5902 11.8337 17.1045 12.393 18.7711C12.9523 20.4377 13.1176 22.2113 12.876 23.9525C15.7423 23.7523 18.4402 22.5251 20.4746 20.496C22.509 18.467 23.7433 15.7723 23.951 12.9065C23.487 12.9661 23.0198 12.9975 22.552 13.0005ZM8.239 15.7615C7.18174 14.7064 5.88858 13.9181 4.46639 13.4617C3.04419 13.0052 1.53379 12.8938 0.0599971 13.1365C0.32131 15.9125 1.54311 18.5103 3.51469 20.4818C5.48627 22.4534 8.08403 23.6752 10.86 23.9365C11.103 22.4637 10.9921 20.9541 10.5363 19.5326C10.0806 18.1111 9.29311 16.8185 8.239 15.7615Z" fill="currentColor"/>
</g>
<defs>
<clipPath id="clip0_406_1854">
<rect width="24" height="24" fill="white"/>
</clipPath>
</defs>
</svg>
