<svg width="24" height="24" viewBox="0 0 24 24" fill="none" xmlns="http://www.w3.org/2000/svg">
<g clip-path="url(#clip0_406_2134)">
<path d="M23.9241 18.1339L21.4601 4.13388C21.2579 2.97513 20.653 1.92498 19.7522 1.16866C18.8513 0.412327 17.7123 -0.00159756 16.5361 -0.000116295H7.45108C6.2739 -0.0019061 5.13396 0.41237 4.2326 1.16954C3.33125 1.92671 2.72647 2.97806 2.52508 4.13788L0.0760857 18.1379C-0.049678 18.8565 -0.016685 19.5938 0.17275 20.2983C0.362185 21.0028 0.703473 21.6572 1.17267 22.2158C1.64187 22.7744 2.2276 23.2235 2.88879 23.5317C3.54998 23.8399 4.27059 23.9997 5.00008 23.9999H19.0001C19.73 24 20.4512 23.8402 21.1128 23.5318C21.7745 23.2235 22.3606 22.774 22.8299 22.2149C23.2993 21.6559 23.6406 21.0008 23.8298 20.2958C24.019 19.5907 24.0515 18.8528 23.9251 18.1339H23.9241ZM13.0001 19.9999C13.0001 20.2651 12.8947 20.5195 12.7072 20.707C12.5196 20.8945 12.2653 20.9999 12.0001 20.9999C11.7349 20.9999 11.4805 20.8945 11.293 20.707C11.1054 20.5195 11.0001 20.2651 11.0001 19.9999V17.9999C11.0001 17.7347 11.1054 17.4803 11.293 17.2928C11.4805 17.1052 11.7349 16.9999 12.0001 16.9999C12.2653 16.9999 12.5196 17.1052 12.7072 17.2928C12.8947 17.4803 13.0001 17.7347 13.0001 17.9999V19.9999ZM13.0001 12.9999C13.0001 13.2651 12.8947 13.5195 12.7072 13.707C12.5196 13.8945 12.2653 13.9999 12.0001 13.9999C11.7349 13.9999 11.4805 13.8945 11.293 13.707C11.1054 13.5195 11.0001 13.2651 11.0001 12.9999V10.9999C11.0001 10.7347 11.1054 10.4803 11.293 10.2928C11.4805 10.1052 11.7349 9.99988 12.0001 9.99988C12.2653 9.99988 12.5196 10.1052 12.7072 10.2928C12.8947 10.4803 13.0001 10.7347 13.0001 10.9999V12.9999ZM13.0001 5.99988C13.0001 6.2651 12.8947 6.51945 12.7072 6.70699C12.5196 6.89453 12.2653 6.99988 12.0001 6.99988C11.7349 6.99988 11.4805 6.89453 11.293 6.70699C11.1054 6.51945 11.0001 6.2651 11.0001 5.99988V3.99988C11.0001 3.73467 11.1054 3.48031 11.293 3.29278C11.4805 3.10524 11.7349 2.99988 12.0001 2.99988C12.2653 2.99988 12.5196 3.10524 12.7072 3.29278C12.8947 3.48031 13.0001 3.73467 13.0001 3.99988V5.99988Z" fill="currentColor"/>
</g>
<defs>
<clipPath id="clip0_406_2134">
<rect width="24" height="24" fill="white"/>
</clipPath>
</defs>
</svg>
