<svg width="24" height="24" viewBox="0 0 24 24" fill="none" xmlns="http://www.w3.org/2000/svg">
<g clip-path="url(#clip0_406_1988)">
<path d="M19.7904 3.27889C15.5429 -1.04172 8.59702 -1.10097 4.27641 3.14656C-0.0441954 7.39409 -0.103445 14.34 4.14409 18.6606C4.19687 18.7143 4.25021 18.7675 4.30412 18.8201L8.23656 22.4533C10.3389 24.5099 13.6966 24.5183 15.8092 22.4722L19.7904 18.7932C24.0744 14.5089 24.0744 7.56307 19.7904 3.27889ZM15.7304 13.3228C16.1266 13.7055 16.1375 14.3369 15.7548 14.733C15.3721 15.1292 14.7408 15.1402 14.3446 14.7575C14.3364 14.7495 14.3282 14.7413 14.3202 14.733L12.0333 12.4462L9.74645 14.7331C9.35026 15.1157 8.7189 15.1048 8.33626 14.7086C7.96295 14.3221 7.96295 13.7094 8.33626 13.3229L10.6231 11.036L8.33626 8.7492C7.94007 8.36656 7.9291 7.7352 8.31174 7.33901C8.69438 6.94282 9.32574 6.93185 9.72193 7.3145C9.73023 7.32251 9.73843 7.33071 9.74645 7.33901L12.0333 9.62585L14.3201 7.33901C14.7028 6.94282 15.3342 6.93185 15.7303 7.31454C16.1265 7.69723 16.1375 8.32859 15.7548 8.72473C15.7468 8.73303 15.7386 8.74118 15.7303 8.7492L13.4435 11.036L15.7304 13.3228Z" fill="currentColor"/>
</g>
<defs>
<clipPath id="clip0_406_1988">
<rect width="24" height="24" fill="white"/>
</clipPath>
</defs>
</svg>
