<svg width="24" height="24" viewBox="0 0 24 24" fill="none" xmlns="http://www.w3.org/2000/svg">
<g clip-path="url(#clip0_406_2197)">
<path d="M12 0C9.62663 0 7.30655 0.703788 5.33316 2.02236C3.35977 3.34094 1.8217 5.21509 0.913451 7.4078C0.00519943 9.60051 -0.232441 12.0133 0.230582 14.3411C0.693605 16.6689 1.83649 18.8071 3.51472 20.4853C5.19295 22.1635 7.33115 23.3064 9.65892 23.7694C11.9867 24.2324 14.3995 23.9948 16.5922 23.0866C18.7849 22.1783 20.6591 20.6402 21.9776 18.6668C23.2962 16.6935 24 14.3734 24 12C23.9966 8.81846 22.7312 5.76821 20.4815 3.51852C18.2318 1.26883 15.1815 0.00344108 12 0V0ZM8.00001 8C8.53044 8 9.03915 8.21072 9.41422 8.58579C9.78929 8.96086 10 9.46957 10 10C10 11 9.10501 11 8.00001 11C6.89501 11 6.00001 11 6.00001 10C6.00001 9.46957 6.21072 8.96086 6.58579 8.58579C6.96086 8.21072 7.46957 8 8.00001 8ZM17.746 17.667C17.5696 17.8644 17.3221 17.9838 17.0577 17.999C16.7934 18.0142 16.5339 17.9239 16.336 17.748C15.1135 16.7188 13.5945 16.1065 12 16C10.4055 16.1064 8.88648 16.7187 7.66401 17.748C7.46589 17.9244 7.20582 18.0148 6.94102 17.9994C6.67622 17.9841 6.42837 17.8641 6.25201 17.666C6.07564 17.4679 5.98519 17.2078 6.00057 16.943C6.01595 16.6782 6.13589 16.4304 6.33401 16.254C7.92187 14.8975 9.91422 14.1049 12 14C14.0858 14.1049 16.0781 14.8975 17.666 16.254C17.7641 16.3415 17.844 16.4474 17.9012 16.5658C17.9583 16.6842 17.9915 16.8127 17.999 16.9439C18.0064 17.0752 17.9879 17.2066 17.9445 17.3306C17.9011 17.4547 17.8336 17.569 17.746 17.667ZM16 11C14.895 11 14 11 14 10C14 9.46957 14.2107 8.96086 14.5858 8.58579C14.9609 8.21072 15.4696 8 16 8C16.5304 8 17.0391 8.21072 17.4142 8.58579C17.7893 8.96086 18 9.46957 18 10C18 11 17.105 11 16 11Z" fill="currentColor"/>
</g>
<defs>
<clipPath id="clip0_406_2197">
<rect width="24" height="24" fill="white"/>
</clipPath>
</defs>
</svg>
