<svg width="24" height="24" viewBox="0 0 24 24" fill="none" xmlns="http://www.w3.org/2000/svg">
<path d="M13.293 18.5859L7.70697 12.9999C7.5195 12.8124 7.41418 12.5581 7.41418 12.2929C7.41418 12.0278 7.5195 11.7735 7.70697 11.5859L13.293 5.99994C13.4328 5.86013 13.611 5.76492 13.8049 5.72636C13.9989 5.68779 14.1999 5.70759 14.3826 5.78326C14.5653 5.85893 14.7215 5.98707 14.8314 6.15148C14.9413 6.31589 14.9999 6.50919 15 6.70694V17.8789C14.9999 18.0767 14.9413 18.27 14.8314 18.4344C14.7215 18.5988 14.5653 18.7269 14.3826 18.8026C14.1999 18.8783 13.9989 18.8981 13.8049 18.8595C13.611 18.821 13.4328 18.7257 13.293 18.5859Z" fill="currentColor"/>
</svg>
