<svg width="24" height="24" viewBox="0 0 24 24" fill="none" xmlns="http://www.w3.org/2000/svg">
<g clip-path="url(#clip0_406_1945)">
<path d="M9.34012 10.7927C8.38863 9.59138 7.9175 8.07936 8.01821 6.55019C8.11893 5.02103 8.78429 3.58385 9.88512 2.51771L10.5181 1.88371C11.5843 0.783304 13.0214 0.1183 14.5503 0.0177762C16.0792 -0.0827479 17.591 0.388379 18.7921 1.33971C19.4346 1.87246 19.9577 2.53449 20.3275 3.28275C20.6972 4.03101 20.9053 4.84873 20.9381 5.6827C20.9733 6.51308 20.8358 7.34173 20.5344 8.11629C20.233 8.89084 19.7743 9.59446 19.1871 10.1827L18.1871 11.1827C17.0601 12.3073 15.5333 12.9394 13.9411 12.9407C13.8551 12.9407 13.7691 12.9387 13.6831 12.9347C12.8495 12.9021 12.0321 12.6945 11.2838 12.3255C10.5356 11.9565 9.8734 11.4342 9.34012 10.7927ZM18.7571 15.9997C18.0685 15.9981 17.3863 16.1329 16.7501 16.3963C16.1138 16.6598 15.536 17.0467 15.0501 17.5347C13.6382 18.9547 11.9585 20.0806 10.1085 20.847C8.25838 21.6134 6.27465 22.0052 4.27212 21.9997H3.12212C2.90022 22 2.68322 21.9345 2.4986 21.8114C2.31397 21.6883 2.17003 21.5132 2.08501 21.3082C1.99998 21.1033 1.9777 20.8777 2.02098 20.6601C2.06425 20.4424 2.17115 20.2425 2.32812 20.0857L3.02812 19.3857C4.76438 19.2692 6.39916 18.5257 7.62812 17.2937L10.6821 14.2397C9.57301 13.7469 8.59054 13.0083 7.80912 12.0797C7.37239 11.5561 7.00843 10.9758 6.72712 10.3547L3.70012 13.3787C2.46772 14.6074 1.72419 16.2423 1.60812 17.9787L0.908117 18.6787C0.473565 19.116 0.178242 19.6721 0.0593994 20.277C-0.0594435 20.8819 0.00351748 21.5085 0.24034 22.0776C0.477163 22.6468 0.87724 23.1331 1.3901 23.4752C1.90297 23.8172 2.50565 23.9997 3.12212 23.9997H4.27212C6.53728 24.0058 8.78118 23.5627 10.8739 22.6958C12.9667 21.829 14.8667 20.5557 16.4641 18.9497C16.9176 18.4963 17.4953 18.1875 18.1243 18.0623C18.7532 17.9372 19.4052 18.0013 19.9977 18.2466C20.5902 18.4919 21.0966 18.9074 21.4531 19.4405C21.8095 19.9736 21.9999 20.6004 22.0001 21.2417V22.9997C22.0001 23.2649 22.1055 23.5193 22.293 23.7068C22.4805 23.8943 22.7349 23.9997 23.0001 23.9997C23.2653 23.9997 23.5197 23.8943 23.7072 23.7068C23.8948 23.5193 24.0001 23.2649 24.0001 22.9997V21.2417C23.9983 19.8518 23.4453 18.5194 22.4624 17.5367C21.4795 16.554 20.147 16.0013 18.7571 15.9997Z" fill="currentColor"/>
</g>
<defs>
<clipPath id="clip0_406_1945">
<rect width="24" height="24" fill="white"/>
</clipPath>
</defs>
</svg>
