<svg width="24" height="24" viewBox="0 0 24 24" fill="none" xmlns="http://www.w3.org/2000/svg">
<g clip-path="url(#clip0_406_2084)">
<path d="M8.99994 0H14.9999C15.2652 0 15.5195 0.105357 15.707 0.292893C15.8946 0.48043 15.9999 0.734784 15.9999 1C15.9999 1.26522 15.8946 1.51957 15.707 1.70711C15.5195 1.89464 15.2652 2 14.9999 2H12.9999V4.056C13.6787 4.12209 14.3489 4.2578 14.9999 4.461V9.151C14.0169 9.053 13.0079 9 11.9999 9C10.9919 9 9.98294 9.053 8.99994 9.151V4.461C9.65096 4.2578 10.3212 4.12209 10.9999 4.056V2H8.99994C8.73472 2 8.48037 1.89464 8.29283 1.70711C8.1053 1.51957 7.99994 1.26522 7.99994 1C7.99994 0.734784 8.1053 0.48043 8.29283 0.292893C8.48037 0.105357 8.73472 0 8.99994 0V0ZM1.99994 14C1.99994 14.82 3.87894 15.927 6.99994 16.541V11.459C3.87894 12.073 1.99994 13.18 1.99994 14ZM16.9999 5.353V9.425C18.5517 9.66884 20.059 10.1406 21.4729 10.825C20.695 8.51884 19.1053 6.57409 16.9999 5.353ZM8.99994 11.16V16.84C9.99632 16.9474 10.9978 17.0008 11.9999 17C13.0021 17.0008 14.0036 16.9474 14.9999 16.84V11.16C13.0056 10.9466 10.9942 10.9466 8.99994 11.16ZM16.9999 11.46V16.542C20.1209 15.928 21.9999 14.821 21.9999 14.001C21.9999 13.181 20.1209 12.073 16.9999 11.459V11.46ZM8.99994 18.85V23.54C10.9527 24.1547 13.0472 24.1547 14.9999 23.54V18.85C14.0169 18.95 13.0079 19.001 11.9999 19.001C10.9919 19.001 9.98294 18.947 8.99994 18.849V18.85ZM16.9999 22.65C19.1045 21.4299 20.6942 19.4867 21.4729 17.182C20.0586 17.864 18.5514 18.3334 16.9999 18.575V22.65ZM6.99994 22.65V18.575C5.44813 18.3312 3.94086 17.8594 2.52694 17.175C3.30488 19.4812 4.89459 21.4259 6.99994 22.647V22.65ZM2.52694 10.821C3.94108 10.138 5.44834 9.66757 6.99994 9.425V5.353C4.89533 6.57311 3.30572 8.51633 2.52694 10.821Z" fill="currentColor"/>
</g>
<defs>
<clipPath id="clip0_406_2084">
<rect width="24" height="24" fill="white"/>
</clipPath>
</defs>
</svg>
