<svg width="24" height="24" viewBox="0 0 24 24" fill="none" xmlns="http://www.w3.org/2000/svg">
<g clip-path="url(#clip0_406_2011)">
<path d="M5 23.0003C6.32559 22.9987 7.59644 22.4714 8.53378 21.5341C9.47112 20.5967 9.99841 19.3259 10 18.0003V6.00031C10 5.20466 10.3161 4.44159 10.8787 3.87898C11.4413 3.31638 12.2044 3.00031 13 3.00031H19C19.7956 3.00031 20.5587 3.31638 21.1213 3.87898C21.6839 4.44159 22 5.20466 22 6.00031V14.0263C21.1396 13.3645 20.0855 13.004 19 13.0003C18.0111 13.0003 17.0444 13.2936 16.2221 13.843C15.3999 14.3924 14.759 15.1733 14.3806 16.0869C14.0022 17.0005 13.9031 18.0059 14.0961 18.9758C14.289 19.9457 14.7652 20.8366 15.4645 21.5358C16.1637 22.2351 17.0546 22.7113 18.0245 22.9042C18.9945 23.0972 19.9998 22.9981 20.9134 22.6197C21.827 22.2413 22.6079 21.6004 23.1573 20.7782C23.7068 19.9559 24 18.9892 24 18.0003V6.00031C23.9984 4.67471 23.4711 3.40386 22.5338 2.46653C21.5964 1.52919 20.3256 1.00189 19 1.00031H13C11.6744 1.00189 10.4036 1.52919 9.46622 2.46653C8.52888 3.40386 8.00159 4.67471 8 6.00031V14.0263C7.13961 13.3645 6.08547 13.004 5 13.0003C3.67392 13.0003 2.40215 13.5271 1.46447 14.4648C0.526784 15.4025 0 16.6742 0 18.0003C0 19.3264 0.526784 20.5982 1.46447 21.5358C2.40215 22.4735 3.67392 23.0003 5 23.0003Z" fill="currentColor"/>
</g>
<defs>
<clipPath id="clip0_406_2011">
<rect width="24" height="24" fill="white"/>
</clipPath>
</defs>
</svg>
