<svg width="24" height="24" viewBox="0 0 24 24" fill="none" xmlns="http://www.w3.org/2000/svg">
<g clip-path="url(#clip0_406_1878)">
<path d="M13.861 24H10.139C7.79811 24.0103 5.54697 23.1002 3.87096 21.466C2.12429 19.7055 0.849371 17.5333 0.163963 15.15C-0.0130242 14.5524 -0.0483131 13.9218 0.060896 13.3082C0.170105 12.6946 0.420807 12.1148 0.793113 11.615C1.16542 11.1152 1.64908 10.709 2.20574 10.4286C2.76239 10.1483 3.37671 10.0015 3.99996 10H20C20.6233 10.0014 21.2378 10.1481 21.7946 10.4284C22.3514 10.7086 22.8352 11.1148 23.2077 11.6146C23.5802 12.1144 23.8311 12.6942 23.9405 13.3078C24.0499 13.9215 24.0148 14.5522 23.838 15.15C23.153 17.5337 21.8776 19.7061 20.13 21.466C18.454 23.1008 16.2022 24.011 13.861 24ZM16 6C16.0017 5.42009 15.8883 4.84561 15.6664 4.30986C15.4444 3.77411 15.1183 3.28775 14.707 2.879C14.4817 2.65482 14.3032 2.38813 14.1818 2.09441C14.0605 1.8007 13.9987 1.4858 14 1.168V1C14 0.734784 13.8946 0.48043 13.7071 0.292893C13.5195 0.105357 13.2652 0 13 0C12.7347 0 12.4804 0.105357 12.2929 0.292893C12.1053 0.48043 12 0.734784 12 1V1.168C11.9983 1.74804 12.1117 2.32265 12.3337 2.85855C12.5556 3.39445 12.8817 3.881 13.293 4.29C13.5181 4.51406 13.6965 4.78059 13.8179 5.07412C13.9393 5.36766 14.0011 5.68237 14 6C14 6.26522 14.1053 6.51957 14.2929 6.70711C14.4804 6.89464 14.7347 7 15 7C15.2652 7 15.5195 6.89464 15.7071 6.70711C15.8946 6.51957 16 6.26522 16 6ZM12 7V6.692C12.0015 6.11221 11.8882 5.53787 11.6664 5.00217C11.4446 4.46646 11.1189 3.98004 10.708 3.571C10.483 3.34738 10.3046 3.08137 10.1831 2.78838C10.0616 2.49538 9.99932 2.1812 9.99996 1.864V1C9.99996 0.734784 9.89461 0.48043 9.70707 0.292893C9.51953 0.105357 9.26518 0 8.99996 0C8.73475 0 8.48039 0.105357 8.29286 0.292893C8.10532 0.48043 7.99996 0.734784 7.99996 1V1.864C7.99847 2.44386 8.11198 3.01827 8.33392 3.55398C8.55586 4.08969 8.88183 4.57608 9.29296 4.985C9.51774 5.20871 9.69596 5.47475 9.81731 5.76774C9.93866 6.06073 10.0007 6.37487 9.99996 6.692V7C9.99996 7.26522 10.1053 7.51957 10.2929 7.70711C10.4804 7.89464 10.7347 8 11 8C11.2652 8 11.5195 7.89464 11.7071 7.70711C11.8946 7.51957 12 7.26522 12 7Z" fill="currentColor"/>
</g>
<defs>
<clipPath id="clip0_406_1878">
<rect width="24" height="24" fill="white"/>
</clipPath>
</defs>
</svg>
