<svg width="24" height="24" viewBox="0 0 24 24" fill="none" xmlns="http://www.w3.org/2000/svg">
<g clip-path="url(#clip0_406_2204)">
<path d="M23.7197 22.3082L17.7593 16.3478C21.2557 12.0715 20.6236 5.77051 16.3473 2.27406C12.071 -1.22239 5.77006 -0.590236 2.2736 3.68603C-1.22285 7.9623 -0.590694 14.2633 3.68557 17.7597C7.36892 20.7714 12.664 20.7714 16.3474 17.7597L22.3077 23.7201C22.7044 24.1032 23.3366 24.0923 23.7197 23.6956C24.0934 23.3086 24.0934 22.6952 23.7197 22.3082ZM11.2766 14.6652C10.5485 15.2451 9.51631 15.2451 8.7882 14.6652C7.07768 13.2912 5.0396 11.2311 5.0396 9.23401C4.98856 7.52594 6.32749 6.09775 8.03529 6.03864C8.78126 6.04201 9.49699 6.334 10.0324 6.85347C10.5678 6.33404 11.2835 6.04201 12.0295 6.03864C13.7373 6.0978 15.0762 7.52598 15.0252 9.23401C15.0252 11.2311 12.9872 13.2912 11.2766 14.6652ZM13.0281 9.23401C13.0281 10.1327 11.8777 11.6206 10.0384 13.1084C8.18707 11.6206 7.03671 10.1327 7.03671 9.23401C6.98688 8.62905 7.43121 8.09579 8.03529 8.03575C8.63932 8.09579 9.0837 8.62905 9.03387 9.23401C9.03387 9.7855 9.48092 10.2326 10.0324 10.2326C10.5839 10.2326 11.031 9.78555 11.031 9.23401C10.9812 8.62905 11.4255 8.09579 12.0296 8.03575C12.6336 8.09579 13.0779 8.62905 13.0281 9.23401Z" fill="currentColor"/>
</g>
<defs>
<clipPath id="clip0_406_2204">
<rect width="24" height="24" fill="white"/>
</clipPath>
</defs>
</svg>
