<svg width="24" height="24" viewBox="0 0 24 24" fill="none" xmlns="http://www.w3.org/2000/svg">
<g clip-path="url(#clip0_406_2181)">
<path d="M2.88606 6.83628C3.04934 6.8368 3.21026 6.79734 3.35477 6.72134C3.49928 6.64534 3.62298 6.53511 3.71506 6.40028C4.45848 5.29984 5.41334 4.35824 6.52406 3.63028C6.63385 3.55805 6.72833 3.46491 6.80212 3.35616C6.87591 3.24742 6.92756 3.12521 6.95411 2.99651C6.98067 2.86781 6.98162 2.73513 6.9569 2.60607C6.93219 2.477 6.88229 2.35406 6.81006 2.24428C6.73784 2.13449 6.64469 2.04001 6.53595 1.96622C6.42721 1.89243 6.305 1.84078 6.1763 1.81423C6.04759 1.78767 5.91492 1.78672 5.78585 1.81144C5.65679 1.83615 5.53385 1.88605 5.42406 1.95828C4.09401 2.83011 2.95052 3.95762 2.06006 5.27528C1.95825 5.42552 1.89924 5.60063 1.88936 5.78185C1.87948 5.96308 1.91911 6.14357 2.00399 6.30398C2.08888 6.4644 2.21582 6.59869 2.37121 6.69246C2.5266 6.78623 2.70457 6.83595 2.88606 6.83628Z" fill="currentColor"/>
<path d="M2 11.9998C1.99982 11.3387 2.06446 10.6792 2.193 10.0308C2.22083 9.90123 2.22263 9.76742 2.19829 9.63715C2.17395 9.50688 2.12397 9.38275 2.05123 9.27197C1.9785 9.16119 1.88448 9.06597 1.77462 8.99185C1.66477 8.91773 1.54127 8.86618 1.41132 8.8402C1.28137 8.81422 1.14755 8.81434 1.01764 8.84053C0.887732 8.86673 0.764326 8.91848 0.654595 8.99279C0.544864 9.06709 0.450996 9.16247 0.378449 9.27337C0.305902 9.38427 0.256122 9.50849 0.232002 9.6388C-0.0779852 11.1996 -0.0779852 12.806 0.232002 14.3668C0.278108 14.5927 0.400839 14.7957 0.579422 14.9415C0.758005 15.0872 0.981472 15.1668 1.212 15.1668C1.27913 15.1671 1.34612 15.1607 1.412 15.1478C1.67205 15.0957 1.90074 14.9424 2.04777 14.7217C2.19479 14.5009 2.24812 14.2308 2.196 13.9708C2.06625 13.3218 2.0006 12.6616 2 11.9998Z" fill="currentColor"/>
<path d="M6.52802 20.3722C5.41707 19.6458 4.46184 18.7055 3.71802 17.6062C3.64429 17.4974 3.54986 17.4043 3.44012 17.3321C3.33038 17.2598 3.2075 17.2099 3.07847 17.1851C2.81789 17.1352 2.54812 17.1908 2.32852 17.3397C2.10893 17.4886 1.95748 17.7186 1.9075 17.9792C1.85752 18.2398 1.91311 18.5096 2.06202 18.7292C2.9543 20.0468 4.09989 21.1737 5.43202 22.0442C5.65375 22.19 5.92433 22.2419 6.18426 22.1882C6.44418 22.1346 6.67216 21.9799 6.81802 21.7582C6.96389 21.5365 7.01571 21.2659 6.96207 21.0059C6.90844 20.746 6.75375 20.518 6.53202 20.3722H6.52802Z" fill="currentColor"/>
<path d="M12 0C11.2718 0.00124052 10.5452 0.0681785 9.82898 0.2C9.58317 0.244507 9.36292 0.379402 9.21157 0.578139C9.06023 0.776877 8.98874 1.02506 9.01119 1.27386C9.03364 1.52265 9.14839 1.75404 9.33286 1.92247C9.51734 2.09091 9.75817 2.18421 10.008 2.184C10.0686 2.18355 10.1292 2.1782 10.189 2.168C10.7863 2.05729 11.3925 2.00106 12 2V22C11.3926 22.0003 10.7864 21.9454 10.189 21.836C9.928 21.7883 9.65876 21.8461 9.44046 21.9969C9.22217 22.1477 9.07272 22.379 9.02498 22.64C8.97724 22.901 9.03513 23.1702 9.1859 23.3885C9.33668 23.6068 9.568 23.7563 9.82898 23.804C11.5596 24.1206 13.3387 24.053 15.0404 23.6062C16.7421 23.1593 18.3248 22.344 19.6766 21.218C21.0284 20.092 22.1164 18.6827 22.8634 17.0898C23.6105 15.4969 23.9985 13.7594 24 12C23.9965 8.81846 22.7311 5.76821 20.4815 3.51852C18.2318 1.26883 15.1815 0.00344108 12 0V0Z" fill="currentColor"/>
</g>
<defs>
<clipPath id="clip0_406_2181">
<rect width="24" height="24" fill="white"/>
</clipPath>
</defs>
</svg>
