<svg width="24" height="24" viewBox="0 0 24 24" fill="none" xmlns="http://www.w3.org/2000/svg">
<g clip-path="url(#clip0_406_1923)">
<path d="M14.9968 3.84703C15.0032 4.2532 15.2502 4.61683 15.6255 4.7725C18.983 6.24984 21.1071 9.61808 20.9933 13.2845C20.9127 18.2522 16.8203 22.2139 11.8526 22.1333C6.88499 22.0527 2.92324 17.9603 3.00386 12.9927C3.00859 9.43196 5.11331 6.20922 8.37169 4.77349C8.74708 4.61688 8.99392 4.25268 9.00034 3.84605C9.00123 3.29409 8.55444 2.84595 8.00249 2.84506C7.87389 2.84487 7.74642 2.86946 7.62715 2.91758C2.05656 5.33266 -0.501451 11.8063 1.91368 17.3769C4.3288 22.9475 10.8024 25.5055 16.373 23.0904C21.9436 20.6753 24.5016 14.2016 22.0865 8.63105C20.9763 6.07037 18.9337 4.02777 16.373 2.91758C15.8618 2.70948 15.2786 2.95524 15.0706 3.46644C15.0214 3.58731 14.9963 3.71656 14.9968 3.84703Z" fill="currentColor"/>
<path d="M11.9986 0C12.5506 0 12.998 0.44744 12.998 0.999397V6.99587C12.998 7.54783 12.5506 7.99527 11.9986 7.99527C11.4467 7.99527 10.9992 7.54783 10.9992 6.99587V0.999397C10.9992 0.44744 11.4467 0 11.9986 0Z" fill="currentColor"/>
</g>
<defs>
<clipPath id="clip0_406_1923">
<rect width="24" height="24" fill="white"/>
</clipPath>
</defs>
</svg>
