<svg width="24" height="24" viewBox="0 0 24 24" fill="none" xmlns="http://www.w3.org/2000/svg">
<g clip-path="url(#clip0_406_1858)">
<path d="M23.707 5.29341L18.707 0.293407C18.5184 0.111249 18.2658 0.0104547 18.0036 0.0127331C17.7414 0.0150115 17.4906 0.12018 17.3052 0.305589C17.1198 0.490997 17.0146 0.741809 17.0123 1.00401C17.0101 1.2662 17.1109 1.5188 17.293 1.70741L19.086 3.50041L16.611 5.97541C15.8221 5.40043 14.8822 5.06895 13.9072 5.02186C12.9321 4.97477 11.9646 5.21413 11.124 5.71041L13.707 8.29341C13.8025 8.38565 13.8787 8.496 13.9311 8.618C13.9835 8.74001 14.0111 8.87123 14.0123 9.00401C14.0134 9.13679 13.9881 9.26847 13.9378 9.39136C13.8876 9.51426 13.8133 9.62591 13.7194 9.7198C13.6255 9.81369 13.5139 9.88795 13.391 9.93823C13.2681 9.98851 13.1364 10.0138 13.0036 10.0127C12.8708 10.0115 12.7396 9.98392 12.6176 9.93151C12.4956 9.8791 12.3853 9.80292 12.293 9.70741L9.58602 7.00041L8.00002 8.58641L10.707 11.2934C10.8025 11.3857 10.8787 11.496 10.9311 11.618C10.9835 11.74 11.0111 11.8712 11.0123 12.004C11.0134 12.1368 10.9881 12.2685 10.9378 12.3914C10.8876 12.5143 10.8133 12.6259 10.7194 12.7198C10.6255 12.8137 10.5139 12.8879 10.391 12.9382C10.2681 12.9885 10.1364 13.0138 10.0036 13.0127C9.87084 13.0115 9.73962 12.9839 9.61762 12.9315C9.49561 12.8791 9.38527 12.8029 9.29302 12.7074L6.58602 10.0004L5.00002 11.5884L7.70502 14.2934C7.80053 14.3857 7.87671 14.496 7.92912 14.618C7.98153 14.74 8.00912 14.8712 8.01027 15.004C8.01142 15.1368 7.98612 15.2685 7.93584 15.3914C7.88556 15.5143 7.81131 15.6259 7.71741 15.7198C7.62352 15.8137 7.51187 15.8879 7.38897 15.9382C7.26608 15.9885 7.1344 16.0138 7.00162 16.0127C6.86884 16.0115 6.73762 15.9839 6.61562 15.9315C6.49361 15.8791 6.38327 15.8029 6.29102 15.7074L3.80602 13.2204C3.27462 14.2265 2.99788 15.3476 3.00002 16.4854V19.5854L0.29302 22.2934C0.19751 22.3857 0.121328 22.496 0.0689187 22.618C0.0165097 22.74 -0.0110765 22.8712 -0.0122303 23.004C-0.0133841 23.1368 0.0119176 23.2685 0.0621985 23.3914C0.112479 23.5143 0.186732 23.6259 0.280625 23.7198C0.374518 23.8137 0.48617 23.8879 0.609066 23.9382C0.731962 23.9885 0.863642 24.0138 0.996421 24.0127C1.1292 24.0115 1.26042 23.9839 1.38242 23.9315C1.50443 23.8791 1.61477 23.8029 1.70702 23.7074L4.41402 21.0004H7.51402C8.4335 21.0029 9.34434 20.8229 10.1938 20.4711C11.0433 20.1192 11.8146 19.6023 12.463 18.9504L17.535 13.8784C18.3749 13.0337 18.8851 11.9165 18.9735 10.7285C19.0619 9.54056 18.7226 8.36016 18.017 7.40041L20.5 4.91441L22.293 6.70741C22.4816 6.88956 22.7342 6.99036 22.9964 6.98808C23.2586 6.9858 23.5094 6.88063 23.6948 6.69523C23.8802 6.50982 23.9854 6.25901 23.9877 5.99681C23.99 5.73461 23.8892 5.48201 23.707 5.29341Z" fill="currentColor"/>
</g>
<defs>
<clipPath id="clip0_406_1858">
<rect width="24" height="24" fill="white"/>
</clipPath>
</defs>
</svg>
