<svg width="24" height="24" viewBox="0 0 24 24" fill="none" xmlns="http://www.w3.org/2000/svg">
<g clip-path="url(#clip0_406_2031)">
<path d="M18.427 16.935C18.1457 16.6538 17.7642 16.4958 17.3665 16.4958C16.9687 16.4958 16.5873 16.6538 16.306 16.935L13.525 19.714L13.5 1.5C13.5 1.10217 13.3419 0.720644 13.0606 0.43934C12.7793 0.158035 12.3978 0 12 0V0C11.6021 0 11.2206 0.158035 10.9393 0.43934C10.658 0.720644 10.5 1.10217 10.5 1.5L10.523 19.7L7.75996 16.935C7.47706 16.6618 7.09816 16.5106 6.70486 16.514C6.31157 16.5174 5.93535 16.6752 5.65724 16.9533C5.37912 17.2314 5.22137 17.6076 5.21795 18.0009C5.21453 18.3942 5.36573 18.7731 5.63896 19.056L9.55796 22.975C10.2143 23.6311 11.1044 23.9997 12.0325 23.9997C12.9605 23.9997 13.8506 23.6311 14.507 22.975L18.427 19.056C18.7082 18.7747 18.8661 18.3932 18.8661 17.9955C18.8661 17.5977 18.7082 17.2163 18.427 16.935Z" fill="currentColor"/>
</g>
<defs>
<clipPath id="clip0_406_2031">
<rect width="24" height="24" fill="white"/>
</clipPath>
</defs>
</svg>
