<svg width="24" height="24" viewBox="0 0 24 24" fill="none" xmlns="http://www.w3.org/2000/svg">
<path d="M1.51323 15.487L5.67923 19.653C6.24181 20.2154 7.00473 20.5314 7.80023 20.5314C8.59572 20.5314 9.35864 20.2154 9.92122 19.653L22.7872 6.787C22.9694 6.59839 23.0702 6.34579 23.0679 6.0836C23.0656 5.8214 22.9605 5.57059 22.775 5.38518C22.5896 5.19977 22.3388 5.0946 22.0766 5.09232C21.8144 5.09004 21.5618 5.19084 21.3732 5.373L8.50723 18.239C8.3197 18.4265 8.06539 18.5318 7.80023 18.5318C7.53506 18.5318 7.28075 18.4265 7.09323 18.239L2.92723 14.073C2.73862 13.8908 2.48602 13.79 2.22382 13.7923C1.96163 13.7946 1.71081 13.8998 1.52541 14.0852C1.34 14.2706 1.23483 14.5214 1.23255 14.7836C1.23027 15.0458 1.33107 15.2984 1.51323 15.487Z" fill="currentColor"/>
</svg>
