<svg width="24" height="24" viewBox="0 0 24 24" fill="none" xmlns="http://www.w3.org/2000/svg">
<g clip-path="url(#clip0_406_2025)">
<path d="M9.87815 18.122C11.0494 19.294 12.9488 19.2946 14.1208 18.1234C14.1213 18.1229 14.1217 18.1225 14.1222 18.122L17.3331 14.911C17.7036 14.5014 17.6717 13.869 17.2621 13.4986C16.8807 13.1537 16.2999 13.1543 15.9192 13.5L12.9932 16.427L13.0002 1.00003C13.0001 0.447703 12.5524 0 12.0001 0C11.4478 0 11.0001 0.447703 11.0001 0.999984L10.9911 16.408L8.08115 13.5C7.6904 13.1095 7.05712 13.1098 6.66665 13.5005C6.27618 13.8913 6.27641 14.5245 6.66716 14.915L9.87815 18.122Z" fill="currentColor"/>
<path d="M23 16C22.4477 16 22 16.4477 22 17V21C22 21.5523 21.5523 22 21 22H3C2.44772 22 2.00002 21.5523 2.00002 21V17C2.00002 16.4477 1.55231 16 1.00003 16C0.447703 16 0 16.4477 0 17V21C0 22.6569 1.34316 24 3 24H21C22.6568 24 24 22.6569 24 21V17C24 16.4477 23.5523 16 23 16Z" fill="currentColor"/>
</g>
<defs>
<clipPath id="clip0_406_2025">
<rect width="24" height="24" fill="white"/>
</clipPath>
</defs>
</svg>
