<svg width="24" height="24" viewBox="0 0 24 24" fill="none" xmlns="http://www.w3.org/2000/svg">
<g clip-path="url(#clip0_406_2179)">
<path d="M16 24H8C7.34142 23.9973 6.70203 23.778 6.18046 23.3759C5.65889 22.9738 5.28413 22.4112 5.114 21.775C5.40037 20.1568 6.24747 18.6912 7.50666 17.6353C8.76585 16.5794 10.3567 16.0006 12 16.0006C13.6433 16.0006 15.2342 16.5794 16.4933 17.6353C17.7525 18.6912 18.5996 20.1568 18.886 21.775C18.7159 22.4112 18.3411 22.9738 17.8195 23.3759C17.298 23.778 16.6586 23.9973 16 24ZM3 21V13.424C2.10936 13.8127 1.35129 14.4525 0.818499 15.2652C0.285705 16.0779 0.00127838 17.0282 0 18L0 19C0.00155925 20.138 0.391254 21.2414 1.10471 22.1279C1.81816 23.0145 2.81269 23.6311 3.924 23.876C3.32404 23.0369 3.00101 22.0315 3 21ZM21 13.424V21C20.999 22.0315 20.676 23.0369 20.076 23.876C21.1873 23.6311 22.1818 23.0145 22.8953 22.1279C23.6087 21.2414 23.9984 20.138 24 19V18C23.9987 17.0282 23.7143 16.0779 23.1815 15.2652C22.6487 14.4525 21.8906 13.8127 21 13.424ZM19 11V17.356C18.1587 16.3084 17.093 15.4631 15.8815 14.8822C14.67 14.3013 13.3436 13.9998 12 13.9998C10.6564 13.9998 9.33001 14.3013 8.1185 14.8822C6.90699 15.4631 5.8413 16.3084 5 17.356V11C5.00071 9.8729 5.27388 8.76267 5.79624 7.76392C6.31859 6.76517 7.07466 5.90751 8 5.264V4C8 2.93913 8.42143 1.92172 9.17157 1.17157C9.92172 0.421427 10.9391 0 12 0C13.0609 0 14.0783 0.421427 14.8284 1.17157C15.5786 1.92172 16 2.93913 16 4V5.264C16.9253 5.90751 17.6814 6.76517 18.2038 7.76392C18.7261 8.76267 18.9993 9.8729 19 11ZM10 4.3C11.3043 3.90666 12.6957 3.90666 14 4.3V4C14 3.46957 13.7893 2.96086 13.4142 2.58579C13.0391 2.21071 12.5304 2 12 2C11.4696 2 10.9609 2.21071 10.5858 2.58579C10.2107 2.96086 10 3.46957 10 4V4.3ZM15 10C15 9.73478 14.8946 9.48043 14.7071 9.29289C14.5196 9.10536 14.2652 9 14 9H10C9.73478 9 9.48043 9.10536 9.29289 9.29289C9.10536 9.48043 9 9.73478 9 10C9 10.2652 9.10536 10.5196 9.29289 10.7071C9.48043 10.8946 9.73478 11 10 11H14C14.2652 11 14.5196 10.8946 14.7071 10.7071C14.8946 10.5196 15 10.2652 15 10Z" fill="currentColor"/>
</g>
<defs>
<clipPath id="clip0_406_2179">
<rect width="24" height="24" fill="white"/>
</clipPath>
</defs>
</svg>
