<svg width="24" height="24" viewBox="0 0 24 24" fill="none" xmlns="http://www.w3.org/2000/svg">
<g clip-path="url(#clip0_406_1843)">
<path d="M24.0001 19.9994C24.0001 20.5514 23.5521 20.9994 23.0001 20.9994H21.0001V22.9994C21.0001 23.5514 20.5521 23.9994 20.0001 23.9994C19.4481 23.9994 19.0001 23.5514 19.0001 22.9994V20.9994H17.0001C16.4481 20.9994 16.0001 20.5514 16.0001 19.9994C16.0001 19.4474 16.4481 18.9994 17.0001 18.9994H19.0001V16.9994C19.0001 16.4474 19.4481 15.9994 20.0001 15.9994C20.5521 15.9994 21.0001 16.4474 21.0001 16.9994V18.9994H23.0001C23.5521 18.9994 24.0001 19.4474 24.0001 19.9994Z" fill="currentColor"/>
<path d="M14.0351 20.0149C14.0311 16.7179 16.7001 14.0419 19.9961 14.0369C21.2791 14.0349 22.5291 14.4469 23.5591 15.2119C25.3321 8.82691 21.5931 2.21391 15.2091 0.440912C8.82511 -1.33209 2.21311 2.40591 0.440109 8.79091C-1.33289 15.1759 2.40611 21.7899 8.79011 23.5629C10.8901 24.1459 13.1091 24.1459 15.2091 23.5629C14.4471 22.5369 14.0351 21.2929 14.0351 20.0149ZM13.0001 12.0219C13.0001 12.2879 12.8941 12.5419 12.7061 12.7299L9.70111 15.7359C9.30311 16.1199 8.66911 16.1089 8.28511 15.7109C7.91011 15.3229 7.91011 14.7069 8.28511 14.3189L10.9971 11.6069V7.01291C10.9971 6.45991 11.4451 6.01091 11.9991 6.01091C12.5521 6.01091 13.0001 6.45991 13.0001 7.01291V12.0219Z" fill="currentColor"/>
</g>
<defs>
<clipPath id="clip0_406_1843">
<rect width="24" height="24" fill="white"/>
</clipPath>
</defs>
</svg>
