<svg width="24" height="24" viewBox="0 0 24 24" fill="none" xmlns="http://www.w3.org/2000/svg">
<g clip-path="url(#clip0_406_1823)">
<path d="M16 2H15.829C15.6214 1.41549 15.2381 0.909511 14.7316 0.551443C14.2251 0.193376 13.6203 0.000756748 13 0L11 0C10.3797 0.000756748 9.77487 0.193376 9.26839 0.551443C8.7619 0.909511 8.37858 1.41549 8.171 2H8C6.67441 2.00159 5.40356 2.52888 4.46622 3.46622C3.52888 4.40356 3.00159 5.67441 3 7V19C3.00159 20.3256 3.52888 21.5964 4.46622 22.5338C5.40356 23.4711 6.67441 23.9984 8 24H16C17.3256 23.9984 18.5964 23.4711 19.5338 22.5338C20.4711 21.5964 20.9984 20.3256 21 19V7C20.9984 5.67441 20.4711 4.40356 19.5338 3.46622C18.5964 2.52888 17.3256 2.00159 16 2ZM9 7H11V5C11 4.73478 11.1054 4.48043 11.2929 4.29289C11.4804 4.10536 11.7348 4 12 4C12.2652 4 12.5196 4.10536 12.7071 4.29289C12.8946 4.48043 13 4.73478 13 5V7H15C15.2652 7 15.5196 7.10536 15.7071 7.29289C15.8946 7.48043 16 7.73478 16 8C16 8.26522 15.8946 8.51957 15.7071 8.70711C15.5196 8.89464 15.2652 9 15 9H13V11C13 11.2652 12.8946 11.5196 12.7071 11.7071C12.5196 11.8946 12.2652 12 12 12C11.7348 12 11.4804 11.8946 11.2929 11.7071C11.1054 11.5196 11 11.2652 11 11V9H9C8.73478 9 8.48043 8.89464 8.29289 8.70711C8.10536 8.51957 8 8.26522 8 8C8 7.73478 8.10536 7.48043 8.29289 7.29289C8.48043 7.10536 8.73478 7 9 7ZM12 20H8C7.73478 20 7.48043 19.8946 7.29289 19.7071C7.10536 19.5196 7 19.2652 7 19C7 18.7348 7.10536 18.4804 7.29289 18.2929C7.48043 18.1054 7.73478 18 8 18H12C12.2652 18 12.5196 18.1054 12.7071 18.2929C12.8946 18.4804 13 18.7348 13 19C13 19.2652 12.8946 19.5196 12.7071 19.7071C12.5196 19.8946 12.2652 20 12 20ZM16 16H8C7.73478 16 7.48043 15.8946 7.29289 15.7071C7.10536 15.5196 7 15.2652 7 15C7 14.7348 7.10536 14.4804 7.29289 14.2929C7.48043 14.1054 7.73478 14 8 14H16C16.2652 14 16.5196 14.1054 16.7071 14.2929C16.8946 14.4804 17 14.7348 17 15C17 15.2652 16.8946 15.5196 16.7071 15.7071C16.5196 15.8946 16.2652 16 16 16Z" fill="currentColor"/>
</g>
<defs>
<clipPath id="clip0_406_1823">
<rect width="24" height="24" fill="white"/>
</clipPath>
</defs>
</svg>
