<svg width="24" height="24" viewBox="0 0 24 24" fill="none" xmlns="http://www.w3.org/2000/svg">
<g clip-path="url(#clip0_406_2188)">
<path d="M21.018 13.4269C20.2467 13.4271 19.5058 13.7276 18.9524 14.2649L17.7755 13.6764C18.7362 10.5257 16.9609 7.19287 13.8102 6.23221C12.6577 5.88084 11.4258 5.88674 10.2768 6.24914L9.5869 5.00362C10.6942 3.79115 10.6089 1.91062 9.39645 0.803385C8.18398 -0.303896 6.3035 -0.218631 5.19622 0.993838C4.08894 2.20631 4.1742 4.08679 5.38667 5.19407C5.9367 5.69639 6.65525 5.97393 7.40009 5.97178C7.54306 5.9677 7.68556 5.9534 7.82651 5.92903L8.51037 7.16456C5.92011 9.08676 5.33881 12.7256 7.20125 15.3592L4.3047 18.1424C2.76805 17.4542 0.964483 18.142 0.276311 19.6786C-0.411861 21.2153 0.275936 23.0189 1.81259 23.707C3.34925 24.3952 5.15281 23.7074 5.84098 22.1707C6.22442 21.3146 6.19231 20.3295 5.75398 19.5001L8.59287 16.7716C11.2456 18.6929 14.9534 18.1017 16.877 15.4506L18.0698 16.0469C18.0509 16.1667 18.0397 16.2876 18.036 16.4088C18.036 18.0557 19.3711 19.3908 21.018 19.3908C22.665 19.3908 24 18.0559 24 16.409C24 14.7621 22.6649 13.4269 21.018 13.4269Z" fill="currentColor"/>
</g>
<defs>
<clipPath id="clip0_406_2188">
<rect width="24" height="24" fill="white"/>
</clipPath>
</defs>
</svg>
