<svg width="24" height="24" viewBox="0 0 24 24" fill="none" xmlns="http://www.w3.org/2000/svg">
<g clip-path="url(#clip0_406_1866)">
<path d="M23.7818 12.1729C23.5796 12.752 23.2494 13.278 22.8158 13.7119L13.7158 22.8119C13.2815 23.2412 12.7552 23.566 12.1768 23.7619C12.0167 22.82 11.9884 21.8605 12.0928 20.9109C12.3537 18.6601 13.3676 16.5635 14.9699 14.9613C16.5722 13.3592 18.669 12.3456 20.9198 12.0849C21.8732 11.9802 22.8366 12.0099 23.7818 12.1729ZM10.0998 20.6999C10.4119 17.9964 11.629 15.4778 13.5534 13.5535C15.4778 11.6291 17.9963 10.412 20.6998 10.0999C21.7746 9.98459 22.8598 10.0108 23.9278 10.1779C23.5854 7.98302 22.6421 5.92575 21.2025 4.23396C19.7629 2.54216 17.8831 1.28186 15.7713 0.592639C13.6595 -0.0965788 11.3981 -0.187814 9.23769 0.329039C7.07724 0.845891 5.10201 1.95066 3.53077 3.52098C1.95953 5.0913 0.853617 7.06589 0.335507 9.22604C-0.182603 11.3862 -0.0926835 13.6476 0.595306 15.7598C1.28329 17.872 2.5425 19.7525 4.23346 21.1931C5.92442 22.6338 7.98113 23.5782 10.1758 23.9219C10.0093 22.8559 9.98378 21.7726 10.0998 20.6999Z" fill="currentColor"/>
</g>
<defs>
<clipPath id="clip0_406_1866">
<rect width="24" height="24" fill="white"/>
</clipPath>
</defs>
</svg>
