<svg width="24" height="24" viewBox="0 0 24 24" fill="none" xmlns="http://www.w3.org/2000/svg">
<path d="M5.00001 21.9996C5.53045 21.9996 6.03915 21.7889 6.41423 21.4138C6.7893 21.0388 7.00001 20.5301 7.00001 19.9996V13.9996C7.00001 13.4692 6.7893 12.9605 6.41423 12.5854C6.03915 12.2103 5.53045 11.9996 5.00001 11.9996V10.9996C5.00001 9.14312 5.73751 7.36264 7.05026 6.04989C8.36302 4.73713 10.1435 3.99963 12 3.99963C13.8565 3.99963 15.637 4.73713 16.9498 6.04989C18.2625 7.36264 19 9.14312 19 10.9996V11.9996C18.4696 11.9996 17.9609 12.2103 17.5858 12.5854C17.2107 12.9605 17 13.4692 17 13.9996V19.9996H14C13.7348 19.9996 13.4804 20.105 13.2929 20.2925C13.1054 20.4801 13 20.7344 13 20.9996C13 21.2649 13.1054 21.5192 13.2929 21.7067C13.4804 21.8943 13.7348 21.9996 14 21.9996H19C20.146 21.9962 21.2561 21.5992 22.1443 20.8751C23.0326 20.151 23.6452 19.1437 23.8795 18.0219C24.1138 16.9001 23.9556 15.7318 23.4314 14.7127C22.9072 13.6936 22.0489 12.8855 21 12.4236V10.9996C21 8.61269 20.0518 6.3235 18.364 4.63567C16.6761 2.94785 14.387 1.99963 12 1.99963C9.61306 1.99963 7.32388 2.94785 5.63605 4.63567C3.94822 6.3235 3.00001 8.61269 3.00001 10.9996V12.4236C1.95117 12.8855 1.09281 13.6936 0.568633 14.7127C0.0444543 15.7318 -0.113727 16.9001 0.120569 18.0219C0.354866 19.1437 0.967419 20.151 1.85568 20.8751C2.74394 21.5992 3.854 21.9962 5.00001 21.9996Z" fill="currentColor"/>
</svg>
