<svg width="24" height="24" viewBox="0 0 24 24" fill="none" xmlns="http://www.w3.org/2000/svg">
<g clip-path="url(#clip0_406_2189)">
<path d="M23.8 8.15559L20.387 18.5556C20.1717 19.2789 19.7938 19.9433 19.2821 20.4979C18.7704 21.0526 18.1386 21.4828 17.435 21.7556C17.8087 20.8849 18.001 19.9471 18 18.9996V8.99959C17.9979 7.14373 17.2597 5.36448 15.9474 4.05218C14.6351 2.73989 12.8559 2.00171 11 1.99959H9.335C9.9525 1.18272 10.8052 0.574414 11.7786 0.256394C12.7519 -0.0616258 13.7993 -0.0741195 14.78 0.220592L20.466 1.96659C21.7212 2.35653 22.7735 3.22312 23.3968 4.38028C24.0202 5.53744 24.1649 6.89289 23.8 8.15559ZM16 8.99959V18.9996C15.9984 20.3252 15.4711 21.596 14.5338 22.5334C13.5964 23.4707 12.3256 23.998 11 23.9996H5C3.67441 23.998 2.40356 23.4707 1.46622 22.5334C0.528882 21.596 0.00158786 20.3252 0 18.9996L0 8.99959C0.00158786 7.674 0.528882 6.40315 1.46622 5.46581C2.40356 4.52847 3.67441 4.00118 5 3.99959H11C12.3256 4.00118 13.5964 4.52847 14.5338 5.46581C15.4711 6.40315 15.9984 7.674 16 8.99959ZM12 12.9996C12 12.4692 11.7893 11.9605 11.4142 11.5854C11.0391 11.2103 10.5304 10.9996 10 10.9996C9.46957 10.9996 8.96086 11.2103 8.58579 11.5854C8.21071 11.9605 8 12.4692 8 12.9996C8 12.4692 7.78929 11.9605 7.41421 11.5854C7.03914 11.2103 6.53043 10.9996 6 10.9996C5.46957 10.9996 4.96086 11.2103 4.58579 11.5854C4.21071 11.9605 4 12.4692 4 12.9996C4 14.4496 5.544 16.3906 6.714 17.3776C7.07348 17.6817 7.52912 17.8486 8 17.8486C8.47088 17.8486 8.92652 17.6817 9.286 17.3776C10.456 16.3906 12 14.4496 12 12.9996Z" fill="currentColor"/>
</g>
<defs>
<clipPath id="clip0_406_2189">
<rect width="24" height="24" fill="white"/>
</clipPath>
</defs>
</svg>
