<svg width="24" height="24" viewBox="0 0 24 24" fill="none" xmlns="http://www.w3.org/2000/svg">
<g clip-path="url(#clip0_406_1931)">
<path d="M11.1221 12.5362C10.8435 12.2574 10.5127 12.0362 10.1486 11.8853C9.78448 11.7345 9.39421 11.6568 9.00009 11.6568C8.60596 11.6568 8.21569 11.7345 7.85159 11.8853C7.48749 12.0362 7.15669 12.2574 6.87809 12.5362L0.0380859 19.3762C0.130547 20.6303 0.692994 21.8032 1.61296 22.6605C2.53292 23.5178 3.7426 23.9963 5.00009 24.0002H19.0001C19.9798 24 20.9376 23.7102 21.7531 23.1672L11.1221 12.5362Z" fill="currentColor"/>
<path d="M17.9999 8.0003C19.1044 8.0003 19.9999 7.10487 19.9999 6.0003C19.9999 4.89573 19.1044 4.00031 17.9999 4.00031C16.8953 4.00031 15.9999 4.89573 15.9999 6.0003C15.9999 7.10487 16.8953 8.0003 17.9999 8.0003Z" fill="currentColor"/>
<path d="M19 0H5C3.67441 0.00158786 2.40356 0.528882 1.46622 1.46622C0.528882 2.40356 0.00158786 3.67441 0 5L0 16.586L5.464 11.122C5.92831 10.6576 6.47956 10.2892 7.08628 10.0378C7.69299 9.78644 8.34328 9.65707 9 9.65707C9.65672 9.65707 10.307 9.78644 10.9137 10.0378C11.5204 10.2892 12.0717 10.6576 12.536 11.122L23.167 21.753C23.71 20.9375 23.9998 19.9797 24 19V5C23.9984 3.67441 23.4711 2.40356 22.5338 1.46622C21.5964 0.528882 20.3256 0.00158786 19 0V0ZM18 10C17.2089 10 16.4355 9.7654 15.7777 9.32588C15.1199 8.88635 14.6072 8.26164 14.3045 7.53073C14.0017 6.79983 13.9225 5.99556 14.0769 5.21964C14.2312 4.44372 14.6122 3.73098 15.1716 3.17157C15.731 2.61216 16.4437 2.2312 17.2196 2.07686C17.9956 1.92252 18.7998 2.00173 19.5307 2.30448C20.2616 2.60723 20.8864 3.11992 21.3259 3.77772C21.7654 4.43552 22 5.20888 22 6C22 7.06087 21.5786 8.07828 20.8284 8.82843C20.0783 9.57857 19.0609 10 18 10Z" fill="currentColor"/>
</g>
<defs>
<clipPath id="clip0_406_1931">
<rect width="24" height="24" fill="white"/>
</clipPath>
</defs>
</svg>
