<svg width="24" height="24" viewBox="0 0 24 24" fill="none" xmlns="http://www.w3.org/2000/svg">
<g clip-path="url(#clip0_406_2065)">
<path d="M13.9999 7V0.46C14.9249 0.809335 15.7652 1.35131 16.4649 2.05L19.9489 5.536C20.6484 6.23488 21.1908 7.07489 21.5399 8H14.9999C14.7347 8 14.4803 7.89464 14.2928 7.70711C14.1052 7.51957 13.9999 7.26522 13.9999 7ZM21.9999 10.485V19C21.9983 20.3256 21.471 21.5964 20.5337 22.5338C19.5963 23.4711 18.3255 23.9984 16.9999 24H6.99988C5.67428 23.9984 4.40344 23.4711 3.4661 22.5338C2.52876 21.5964 2.00147 20.3256 1.99988 19V5C2.00147 3.67441 2.52876 2.40356 3.4661 1.46622C4.40344 0.528882 5.67428 0.00158786 6.99988 0L11.5149 0C11.6779 0 11.8389 0.013 11.9999 0.024V7C11.9999 7.79565 12.3159 8.55871 12.8786 9.12132C13.4412 9.68393 14.2042 10 14.9999 10H21.9759C21.9869 10.161 21.9999 10.322 21.9999 10.485ZM13.4139 17L15.2069 15.207C15.389 15.0184 15.4898 14.7658 15.4876 14.5036C15.4853 14.2414 15.3801 13.9906 15.1947 13.8052C15.0093 13.6198 14.7585 13.5146 14.4963 13.5123C14.2341 13.51 13.9815 13.6108 13.7929 13.793L11.9999 15.586L10.2069 13.793C10.0183 13.6108 9.76567 13.51 9.50348 13.5123C9.24128 13.5146 8.99047 13.6198 8.80506 13.8052C8.61965 13.9906 8.51448 14.2414 8.5122 14.5036C8.50993 14.7658 8.61072 15.0184 8.79288 15.207L10.5859 17L8.79288 18.793C8.69737 18.8852 8.62119 18.9956 8.56878 19.1176C8.51637 19.2396 8.48878 19.3708 8.48763 19.5036C8.48647 19.6364 8.51178 19.7681 8.56206 19.891C8.61234 20.0138 8.68659 20.1255 8.78048 20.2194C8.87438 20.3133 8.98603 20.3875 9.10892 20.4378C9.23182 20.4881 9.3635 20.5134 9.49628 20.5123C9.62906 20.5111 9.76028 20.4835 9.88228 20.4311C10.0043 20.3787 10.1146 20.3025 10.2069 20.207L11.9999 18.414L13.7929 20.207C13.9815 20.3892 14.2341 20.49 14.4963 20.4877C14.7585 20.4854 15.0093 20.3802 15.1947 20.1948C15.3801 20.0094 15.4853 19.7586 15.4876 19.4964C15.4898 19.2342 15.389 18.9816 15.2069 18.793L13.4139 17Z" fill="currentColor"/>
</g>
<defs>
<clipPath id="clip0_406_2065">
<rect width="24" height="24" fill="white"/>
</clipPath>
</defs>
</svg>
