<svg width="24" height="24" viewBox="0 0 24 24" fill="none" xmlns="http://www.w3.org/2000/svg">
<g clip-path="url(#clip0_406_1985)">
<path d="M23 18.9996C22.7348 18.9996 22.4804 19.105 22.2929 19.2925C22.1054 19.4801 22 19.7344 22 19.9996C22 20.5301 21.7893 21.0388 21.4142 21.4139C21.0391 21.7889 20.5304 21.9996 20 21.9996H16V17.9996H18.1C19.1339 17.9983 20.1251 17.587 20.8563 16.8559C21.5874 16.1248 21.9987 15.1336 22 14.0996C21.9973 12.7134 21.5157 11.3707 20.6369 10.2987C19.758 9.22666 18.5358 8.49116 17.177 8.21664L15.436 7.86764L13.369 11.4996C13.2377 11.7301 13.0203 11.899 12.7645 11.9691C12.5087 12.0393 12.2355 12.0049 12.005 11.8736C11.7745 11.7424 11.6056 11.5249 11.5355 11.2691C11.4654 11.0133 11.4997 10.7401 11.631 10.5096L13.369 7.45864L13.3 7.43964C13.087 7.39659 12.8825 7.31853 12.695 7.20864L9.674 9.04664C9.44737 9.18442 9.17529 9.22653 8.91762 9.1637C8.65994 9.10088 8.43778 8.93826 8.3 8.71164C8.16222 8.48501 8.12011 8.21293 8.18294 7.95526C8.24576 7.69758 8.40837 7.47542 8.635 7.33764L11.678 5.48864L11.614 4.99964H8C7.73478 4.99964 7.48043 4.89428 7.29289 4.70674C7.10536 4.51921 7 4.26485 7 3.99964C7 3.73442 7.10536 3.48007 7.29289 3.29253C7.48043 3.10499 7.73478 2.99964 8 2.99964H11.352L11.3 2.57564C11.2408 2.16129 11.0955 1.76392 10.8735 1.40907C10.6515 1.05423 10.3578 0.749761 10.0111 0.515244C9.66438 0.280727 9.27245 0.121352 8.86049 0.0473644C8.44852 -0.0266234 8.02563 -0.0135862 7.619 0.0856378L2.91 1.41964C2.07333 1.65915 1.33714 2.16403 0.812295 2.85823C0.28745 3.55243 0.00237401 4.39837 0 5.26864L0 13.9996C0 15.0605 0.421427 16.0779 1.17157 16.8281C1.92172 17.5782 2.93913 17.9996 4 17.9996H5V21.9996H1C0.734784 21.9996 0.48043 22.105 0.292893 22.2925C0.105357 22.4801 0 22.7344 0 22.9996C0 23.2649 0.105357 23.5192 0.292893 23.7067C0.48043 23.8943 0.734784 23.9996 1 23.9996H20C21.0609 23.9996 22.0783 23.5782 22.8284 22.8281C23.5786 22.0779 24 21.0605 24 19.9996C24 19.7344 23.8946 19.4801 23.7071 19.2925C23.5196 19.105 23.2652 18.9996 23 18.9996ZM7 17.9996H14V21.9996H7V17.9996Z" fill="currentColor"/>
</g>
<defs>
<clipPath id="clip0_406_1985">
<rect width="24" height="24" fill="white"/>
</clipPath>
</defs>
</svg>
