<svg width="24" height="24" viewBox="0 0 24 24" fill="none" xmlns="http://www.w3.org/2000/svg">
<g clip-path="url(#clip0_406_2251)">
<path d="M17.0002 0H8.00015V16H22.0002V5C22.0002 3.67392 21.4734 2.40215 20.5357 1.46447C19.598 0.526784 18.3262 0 17.0002 0V0Z" fill="currentColor"/>
<path d="M4.39515 16.061C4.59425 16.0203 4.79694 15.9999 5.00015 16H6.00015V0.0999756C4.87079 0.330506 3.85576 0.944157 3.12685 1.83707C2.39794 2.72999 1.99992 3.84732 2.00015 4.99998V17.025C2.69921 16.4975 3.52563 16.1649 4.39515 16.061Z" fill="currentColor"/>
<path d="M22.0002 18H5.00015C4.2045 18 3.44144 18.3161 2.87883 18.8787C2.31622 19.4413 2.00015 20.2044 2.00015 21C2.00015 21.7956 2.31622 22.5587 2.87883 23.1213C3.44144 23.6839 4.2045 24 5.00015 24H17.0002C17.6568 24 18.3069 23.8707 18.9136 23.6194C19.5202 23.3681 20.0714 22.9998 20.5357 22.5355C21 22.0712 21.3683 21.52 21.6196 20.9134C21.8708 20.3068 22.0002 19.6566 22.0002 19V18Z" fill="currentColor"/>
</g>
<defs>
<clipPath id="clip0_406_2251">
<rect width="24" height="24" fill="white"/>
</clipPath>
</defs>
</svg>
