<svg width="24" height="24" viewBox="0 0 24 24" fill="none" xmlns="http://www.w3.org/2000/svg">
<g clip-path="url(#clip0_406_1834)">
<path d="M14.1811 0.207727C14.0369 0.18119 13.8887 0.186683 13.7468 0.223818C13.605 0.260954 13.4731 0.328822 13.3604 0.422615C13.2477 0.516409 13.157 0.633834 13.0948 0.766572C13.0325 0.89931 13.0002 1.04411 13.0001 1.19073V4.06973C11.3318 3.84972 9.63645 4.15786 8.15225 4.95087C6.66805 5.74388 5.46955 6.98191 4.72512 8.49106C3.98068 10.0002 3.72771 11.7047 4.00173 13.365C4.27576 15.0253 5.06301 16.558 6.25291 17.7479C7.44281 18.9378 8.97557 19.7251 10.6359 19.9991C12.2962 20.2731 14.0006 20.0202 15.5098 19.2757C17.0189 18.5313 18.257 17.3328 19.05 15.8486C19.843 14.3644 20.1511 12.6691 19.9311 11.0007H22.8171C22.9637 11.0007 23.1085 10.9683 23.2413 10.9061C23.374 10.8438 23.4914 10.7531 23.5852 10.6405C23.679 10.5278 23.7469 10.3958 23.784 10.254C23.8212 10.1122 23.8267 9.96392 23.8001 9.81973C23.3512 7.43524 22.1928 5.24186 20.4765 3.52679C18.7601 1.81171 16.5659 0.654865 14.1811 0.207727ZM16.0001 13.0007H13.7231C13.5704 13.266 13.3587 13.4925 13.1044 13.6627C12.85 13.833 12.5599 13.9424 12.2565 13.9825C11.9531 14.0227 11.6445 13.9924 11.3547 13.8941C11.0649 13.7958 10.8015 13.6321 10.5851 13.4157C10.3687 13.1993 10.205 12.936 10.1067 12.6461C10.0084 12.3563 9.97819 12.0477 10.0183 11.7443C10.0584 11.4409 10.1679 11.1508 10.3381 10.8965C10.5084 10.6422 10.7349 10.4304 11.0001 10.2777V7.00073C11.0001 6.73551 11.1055 6.48116 11.293 6.29362C11.4805 6.10608 11.7349 6.00073 12.0001 6.00073C12.2653 6.00073 12.5197 6.10608 12.7072 6.29362C12.8948 6.48116 13.0001 6.73551 13.0001 7.00073V10.2777C13.2997 10.452 13.5488 10.7012 13.7231 11.0007H16.0001C16.2653 11.0007 16.5197 11.1061 16.7072 11.2936C16.8948 11.4812 17.0001 11.7355 17.0001 12.0007C17.0001 12.2659 16.8948 12.5203 16.7072 12.7078C16.5197 12.8954 16.2653 13.0007 16.0001 13.0007ZM2.98612 4.96873C3.18023 5.00563 3.35906 5.09922 3.50004 5.23767C3.64101 5.37612 3.73781 5.55323 3.77821 5.74665C3.81862 5.94007 3.80081 6.14112 3.72705 6.32443C3.65329 6.50773 3.52688 6.66508 3.36377 6.77661C3.20066 6.88814 3.00817 6.94884 2.81059 6.95107C2.61301 6.95329 2.4192 6.89693 2.25363 6.7891C2.08805 6.68127 1.95813 6.52681 1.88026 6.34521C1.8024 6.1636 1.78008 5.963 1.81612 5.76873C1.84014 5.63924 1.8895 5.51577 1.96137 5.40542C2.03324 5.29506 2.1262 5.19998 2.23491 5.12565C2.34362 5.05132 2.46595 4.99919 2.59486 4.97226C2.72378 4.94533 2.85674 4.94413 2.98612 4.96873ZM1.38612 8.95573C1.58023 8.99263 1.75906 9.08622 1.90004 9.22467C2.04101 9.36312 2.13781 9.54023 2.17821 9.73365C2.21862 9.92707 2.20081 10.1281 2.12705 10.3114C2.05329 10.4947 1.92688 10.6521 1.76377 10.7636C1.60066 10.8751 1.40817 10.9358 1.21059 10.9381C1.01301 10.9403 0.819204 10.8839 0.653627 10.7761C0.488051 10.6683 0.35813 10.5138 0.280264 10.3322C0.202397 10.1506 0.180076 9.95 0.216117 9.75573C0.240157 9.62654 0.289421 9.50336 0.361094 9.39323C0.432766 9.2831 0.525441 9.18817 0.633821 9.11387C0.742202 9.03957 0.864162 8.98737 0.992731 8.96023C1.1213 8.93309 1.25396 8.93157 1.38312 8.95573H1.38612ZM10.1281 21.8237C10.3224 21.8609 10.5013 21.9548 10.6422 22.0937C10.783 22.2325 10.8796 22.41 10.9196 22.6037C10.9596 22.7974 10.9412 22.9986 10.8669 23.1819C10.7925 23.3652 10.6655 23.5223 10.5018 23.6334C10.3381 23.7444 10.1452 23.8045 9.9474 23.8059C9.74961 23.8073 9.55584 23.75 9.3906 23.6413C9.22537 23.5326 9.09608 23.3773 9.0191 23.1951C8.94211 23.0129 8.92089 22.812 8.95812 22.6177C9.00805 22.3579 9.15889 22.1285 9.37762 21.9797C9.59635 21.8309 9.86513 21.7748 10.1251 21.8237H10.1281ZM6.00812 1.90073C6.20223 1.93763 6.38106 2.03122 6.52204 2.16967C6.66301 2.30812 6.75981 2.48523 6.80021 2.67865C6.84062 2.87207 6.82281 3.07312 6.74905 3.25643C6.67529 3.43973 6.54888 3.59708 6.38577 3.70861C6.22266 3.82014 6.03017 3.88084 5.83259 3.88307C5.63501 3.88529 5.4412 3.82893 5.27563 3.7211C5.11005 3.61327 4.98013 3.45881 4.90226 3.27721C4.8244 3.0956 4.80208 2.895 4.83812 2.70073C4.86214 2.57124 4.9115 2.44777 4.98337 2.33742C5.05524 2.22706 5.1482 2.13198 5.25691 2.05765C5.36562 1.98332 5.48795 1.93119 5.61686 1.90426C5.74578 1.87733 5.87874 1.87613 6.00812 1.90073ZM10.1821 0.209727C10.3759 0.250085 10.5534 0.347057 10.692 0.488358C10.8307 0.62966 10.9243 0.808932 10.9609 1.00347C10.9976 1.198 10.9757 1.39904 10.898 1.58113C10.8204 1.76321 10.6904 1.91814 10.5246 2.02629C10.3588 2.13445 10.1646 2.19095 9.96665 2.18866C9.7687 2.18636 9.57589 2.12537 9.41264 2.0134C9.24938 1.90143 9.12304 1.74353 9.0496 1.55969C8.97616 1.37585 8.95894 1.17436 9.00012 0.980727C9.05513 0.722025 9.21039 0.495653 9.43191 0.351156C9.65344 0.206659 9.92319 0.155806 10.1821 0.209727ZM0.234117 14.0467C0.271023 13.8526 0.364608 13.6738 0.503059 13.5328C0.641511 13.3918 0.818623 13.295 1.01204 13.2546C1.20546 13.2142 1.40651 13.232 1.58982 13.3058C1.77313 13.3796 1.93047 13.506 2.042 13.6691C2.15353 13.8322 2.21423 14.0247 2.21646 14.2223C2.21868 14.4198 2.16232 14.6136 2.05449 14.7792C1.94666 14.9448 1.7922 15.0747 1.6106 15.1526C1.42899 15.2304 1.22839 15.2528 1.03412 15.2167C0.90463 15.1927 0.781164 15.1433 0.670806 15.0715C0.560448 14.9996 0.465373 14.9066 0.39104 14.7979C0.316706 14.6892 0.264578 14.5669 0.237649 14.438C0.21072 14.3091 0.20952 14.1761 0.234117 14.0467ZM1.91512 18.0097C1.95202 17.8156 2.04561 17.6368 2.18406 17.4958C2.32251 17.3548 2.49962 17.258 2.69304 17.2176C2.88646 17.1772 3.08751 17.195 3.27082 17.2688C3.45412 17.3426 3.61147 17.469 3.723 17.6321C3.83453 17.7952 3.89523 17.9877 3.89746 18.1853C3.89968 18.3828 3.84332 18.5766 3.73549 18.7422C3.62766 18.9078 3.4732 19.0377 3.2916 19.1156C3.10999 19.1934 2.90939 19.2158 2.71512 19.1797C2.58563 19.1557 2.46216 19.1063 2.35181 19.0345C2.24145 18.9626 2.14637 18.8696 2.07204 18.7609C1.99771 18.6522 1.94558 18.5299 1.91865 18.401C1.89172 18.2721 1.89052 18.1391 1.91512 18.0097ZM4.96712 21.0007C5.00402 20.8066 5.09761 20.6278 5.23606 20.4868C5.37451 20.3458 5.55162 20.249 5.74504 20.2086C5.93846 20.1682 6.13951 20.186 6.32282 20.2598C6.50612 20.3336 6.66347 20.46 6.775 20.6231C6.88653 20.7862 6.94723 20.9787 6.94946 21.1763C6.95168 21.3738 6.89532 21.5676 6.78749 21.7332C6.67966 21.8988 6.5252 22.0287 6.3436 22.1066C6.16199 22.1844 5.96139 22.2068 5.76712 22.1707C5.63763 22.1467 5.51416 22.0973 5.40381 22.0255C5.29345 21.9536 5.19837 21.8606 5.12404 21.7519C5.04971 21.6432 4.99758 21.5209 4.97065 21.392C4.94372 21.2631 4.94252 21.1301 4.96712 21.0007ZM21.0141 19.0337C20.82 18.9968 20.6412 18.9032 20.5002 18.7648C20.3592 18.6263 20.2624 18.4492 20.222 18.2558C20.1816 18.0624 20.1994 17.8613 20.2732 17.678C20.3469 17.4947 20.4734 17.3374 20.6365 17.2258C20.7996 17.1143 20.9921 17.0536 21.1896 17.0514C21.3872 17.0492 21.581 17.1055 21.7466 17.2134C21.9122 17.3212 22.0421 17.4756 22.12 17.6572C22.1978 17.8389 22.2202 18.0394 22.1841 18.2337C22.16 18.3631 22.1105 18.4865 22.0386 18.5967C21.9667 18.707 21.8737 18.8019 21.765 18.8762C21.6563 18.9504 21.534 19.0024 21.4052 19.0293C21.2763 19.0562 21.1434 19.0573 21.0141 19.0327V19.0337ZM17.9921 22.1007C17.798 22.0638 17.6192 21.9702 17.4782 21.8318C17.3372 21.6933 17.2404 21.5162 17.2 21.3228C17.1596 21.1294 17.1774 20.9283 17.2512 20.745C17.3249 20.5617 17.4514 20.4044 17.6145 20.2928C17.7776 20.1813 17.9701 20.1206 18.1676 20.1184C18.3652 20.1162 18.559 20.1725 18.7246 20.2804C18.8902 20.3882 19.0201 20.5426 19.098 20.7242C19.1758 20.9058 19.1982 21.1064 19.1621 21.3007C19.1381 21.4302 19.0887 21.5537 19.0169 21.664C18.945 21.7744 18.852 21.8695 18.7433 21.9438C18.6346 22.0181 18.5123 22.0703 18.3834 22.0972C18.2545 22.1241 18.1215 22.1253 17.9921 22.1007ZM14.0531 23.7567C13.8589 23.7196 13.68 23.6257 13.5391 23.487C13.3982 23.3482 13.3016 23.1708 13.2615 22.9771C13.2215 22.7834 13.2397 22.5822 13.314 22.399C13.3883 22.2157 13.5152 22.0585 13.6788 21.9474C13.8424 21.8362 14.0352 21.7761 14.233 21.7745C14.4307 21.773 14.6245 21.8301 14.7898 21.9387C14.9551 22.0472 15.0845 22.2024 15.1616 22.3845C15.2387 22.5666 15.2601 22.7675 15.2231 22.9617C15.1725 23.2216 15.021 23.4508 14.8016 23.5991C14.5823 23.7474 14.3131 23.8026 14.0531 23.7527V23.7567ZM23.7121 14.0007C23.7121 14.1985 23.6535 14.3918 23.5436 14.5563C23.4337 14.7207 23.2775 14.8489 23.0948 14.9246C22.9121 15.0003 22.711 15.0201 22.517 14.9815C22.323 14.9429 22.1449 14.8477 22.005 14.7078C21.8652 14.568 21.7699 14.3898 21.7313 14.1958C21.6927 14.0018 21.7126 13.8008 21.7882 13.618C21.8639 13.4353 21.9921 13.2791 22.1565 13.1693C22.321 13.0594 22.5143 13.0007 22.7121 13.0007C22.9773 13.0007 23.2317 13.1061 23.4192 13.2936C23.6068 13.4812 23.7121 13.7355 23.7121 14.0007Z" fill="currentColor"/>
</g>
<defs>
<clipPath id="clip0_406_1834">
<rect width="24" height="24" fill="white"/>
</clipPath>
</defs>
</svg>
