<svg width="24" height="24" viewBox="0 0 24 24" fill="none" xmlns="http://www.w3.org/2000/svg">
<g clip-path="url(#clip0_406_2064)">
<path d="M19.948 23.0008H4.05195C3.3609 23.0048 2.68044 22.8311 2.07591 22.4962C1.47139 22.1614 0.96313 21.6767 0.59995 21.0888C0.241261 20.515 0.0361304 19.8586 0.00425865 19.1826C-0.0276131 18.5067 0.114844 17.8339 0.41795 17.2288L8.37995 3.21281C8.72258 2.54459 9.24348 1.98424 9.88497 1.59384C10.5265 1.20344 11.2635 0.998219 12.0144 1.00091C12.7654 1.0036 13.5009 1.2141 14.1396 1.60909C14.7782 2.00408 15.2951 2.56815 15.633 3.23881L23.555 17.1798C23.869 17.7893 24.0197 18.4698 23.9923 19.1549C23.965 19.84 23.7605 20.5063 23.399 21.0888C23.0359 21.6766 22.5278 22.1612 21.9234 22.496C21.3191 22.8308 20.6388 23.0047 19.948 23.0008Z" fill="currentColor"/>
</g>
<defs>
<clipPath id="clip0_406_2064">
<rect width="24" height="24" fill="white"/>
</clipPath>
</defs>
</svg>
