<svg width="24" height="24" viewBox="0 0 24 24" fill="none" xmlns="http://www.w3.org/2000/svg">
<g clip-path="url(#clip0_406_1815)">
<path d="M8.08102 5.50529L11.007 2.57832L11 18.0161C11 18.5683 11.4477 19.016 11.9999 19.016C12.5522 19.016 12.9999 18.5683 12.9999 18.0161L13.0069 2.59533L15.9189 5.50829C16.3161 5.89195 16.9492 5.88099 17.3328 5.48373C17.7071 5.09622 17.7071 4.48184 17.3328 4.09433L14.1219 0.879361C12.9507 -0.292589 11.0513 -0.293198 9.87931 0.878002C9.87884 0.878471 9.87842 0.878893 9.87795 0.879361L6.66701 4.09133C6.28334 4.48859 6.29431 5.12162 6.69157 5.50529C7.07908 5.87958 7.69346 5.87958 8.08102 5.50529Z" fill="currentColor"/>
<path d="M22.9997 15.9998C22.4475 15.9998 21.9998 16.4475 21.9998 16.9998V20.9997C21.9998 21.552 21.5521 21.9997 20.9998 21.9997H3.00009C2.44782 21.9997 2.00012 21.552 2.00012 20.9997V16.9998C2.00012 16.4475 1.55242 15.9998 1.00015 15.9998C0.447879 15.9998 0.000183105 16.4475 0.000183105 16.9998V20.9997C0.000183105 22.6566 1.34332 23.9997 3.00014 23.9997H20.9999C22.6567 23.9997 23.9998 22.6566 23.9998 20.9997V16.9998C23.9997 16.4475 23.552 15.9998 22.9997 15.9998Z" fill="currentColor"/>
</g>
<defs>
<clipPath id="clip0_406_1815">
<rect width="24" height="24" fill="white"/>
</clipPath>
</defs>
</svg>
