<svg width="24" height="24" viewBox="0 0 24 24" fill="none" xmlns="http://www.w3.org/2000/svg">
<g clip-path="url(#clip0_406_2146)">
<path d="M19 0H5.00002C2.23997 0.00332812 0.00332812 2.23997 0 5.00002V19C0.00332812 21.76 2.23997 23.9967 5.00002 24H19C21.76 23.9967 23.9967 21.76 24 19V5.00002C23.9967 2.23997 21.76 0.00332812 19 0ZM20 8.079L10.746 17.333C9.96511 18.1142 8.69878 18.1145 7.91756 17.3336C7.91738 17.3334 7.91719 17.3332 7.917 17.333L3.99998 13.417C3.60867 13.0257 3.60867 12.3913 3.99998 12C4.3913 11.6088 5.0257 11.6087 5.41697 12L9.33295 15.916L18.588 6.66202C18.9793 6.27211 19.6125 6.27323 20.0025 6.6645C20.3924 7.05581 20.3913 7.68909 20 8.079Z" fill="currentColor"/>
</g>
<defs>
<clipPath id="clip0_406_2146">
<rect width="24" height="24" fill="white"/>
</clipPath>
</defs>
</svg>
