<svg width="24" height="24" viewBox="0 0 24 24" fill="none" xmlns="http://www.w3.org/2000/svg">
<g clip-path="url(#clip0_406_2029)">
<path d="M12 0C9.62663 0 7.30655 0.703788 5.33316 2.02236C3.35977 3.34094 1.8217 5.21509 0.913451 7.4078C0.00519943 9.60051 -0.232441 12.0133 0.230582 14.3411C0.693605 16.6689 1.83649 18.8071 3.51472 20.4853C5.19295 22.1635 7.33115 23.3064 9.65892 23.7694C11.9867 24.2324 14.3995 23.9948 16.5922 23.0866C18.7849 22.1783 20.6591 20.6402 21.9776 18.6668C23.2962 16.6935 24 14.3734 24 12C23.9966 8.81846 22.7312 5.76821 20.4815 3.51852C18.2318 1.26883 15.1815 0.00344108 12 0V0ZM6.00001 10C6.00001 9.46957 6.21072 8.96086 6.58579 8.58579C6.96086 8.21072 7.46957 8 8.00001 8C8.53044 8 9.03915 8.21072 9.41422 8.58579C9.78929 8.96086 10 9.46957 10 10C10 11 9.10501 11 8.00001 11C6.89501 11 6.00001 11 6.00001 10ZM16.01 18H8.00001C7.84394 18.0007 7.68988 17.9649 7.55015 17.8954C7.41042 17.8258 7.2889 17.7246 7.19531 17.5997C7.10171 17.4748 7.03865 17.3298 7.01116 17.1761C6.98368 17.0225 6.99253 16.8646 7.03701 16.715C7.3953 15.6675 8.06136 14.7525 8.94809 14.0897C9.83482 13.4269 10.9009 13.0471 12.007 13C13.1135 13.0436 14.1808 13.4222 15.0675 14.0855C15.9542 14.7489 16.6187 15.6658 16.973 16.715C17.0132 16.8644 17.019 17.021 16.9897 17.1729C16.9605 17.3248 16.8971 17.4681 16.8043 17.5919C16.7115 17.7157 16.5918 17.8168 16.4542 17.8875C16.3166 17.9582 16.1647 17.9967 16.01 18ZM16 11C14.895 11 14 11 14 10C14 9.46957 14.2107 8.96086 14.5858 8.58579C14.9609 8.21072 15.4696 8 16 8C16.5304 8 17.0391 8.21072 17.4142 8.58579C17.7893 8.96086 18 9.46957 18 10C18 11 17.105 11 16 11Z" fill="currentColor"/>
</g>
<defs>
<clipPath id="clip0_406_2029">
<rect width="24" height="24" fill="white"/>
</clipPath>
</defs>
</svg>
