<svg width="24" height="24" viewBox="0 0 24 24" fill="none" xmlns="http://www.w3.org/2000/svg">
<g clip-path="url(#clip0_406_2298)">
<path d="M15.9999 8C14.8696 8.00096 13.7525 8.24218 12.7226 8.70767C11.6926 9.17316 10.7734 9.85228 10.0259 10.7C9.54936 10.4684 9.0477 10.2925 8.53086 10.176L9.89986 7.447C9.97586 7.29485 10.0118 7.12583 10.0043 6.95593C9.99674 6.78602 9.94601 6.62084 9.85686 6.476C9.53942 6.01333 9.1124 5.63642 8.61389 5.37888C8.11539 5.12134 7.56089 4.99118 6.99986 5C6.43967 4.99201 5.88619 5.12257 5.38862 5.38007C4.89106 5.63758 4.46484 6.01404 4.14786 6.476C4.05872 6.62084 4.00798 6.78602 4.00046 6.95593C3.99293 7.12583 4.02887 7.29485 4.10486 7.447L5.46886 10.174C4.43983 10.4006 3.47523 10.8565 2.64698 11.5079C1.81874 12.1592 1.14822 12.9892 0.685432 13.9358C0.222644 14.8824 -0.0204727 15.9213 -0.0257898 16.9749C-0.0311069 18.0286 0.201513 19.0699 0.654724 20.0211C1.10793 20.9723 1.77004 21.809 2.59167 22.4686C3.4133 23.1283 4.37325 23.594 5.39995 23.8309C6.42664 24.0679 7.49358 24.07 8.5212 23.8371C9.54883 23.6043 10.5106 23.1424 11.3349 22.486C12.3582 23.2249 13.5419 23.7112 14.7892 23.9051C16.0365 24.0989 17.3119 23.9949 18.5113 23.6015C19.7107 23.2081 20.7999 22.5365 21.6901 21.6416C22.5802 20.7466 23.2459 19.6537 23.6329 18.4522C24.0198 17.2508 24.1169 15.9748 23.9163 14.7286C23.7157 13.4824 23.223 12.3013 22.4786 11.2819C21.7342 10.2626 20.7591 9.43381 19.6331 8.86341C18.5071 8.29301 17.2621 7.99714 15.9999 8ZM11.2339 19.63C10.5698 18.7672 10.1554 17.7386 10.0359 16.6564C9.91629 15.5742 10.0962 14.48 10.5559 13.493C11.3482 14.2874 11.8469 15.3275 11.9701 16.4427C12.0933 17.5579 11.8337 18.6818 11.2339 19.63ZM1.99986 17C1.99775 16.1803 2.19773 15.3727 2.58209 14.6487C2.96645 13.9247 3.52335 13.3066 4.20351 12.8491C4.88366 12.3917 5.6661 12.1089 6.48158 12.0258C7.29706 11.9428 8.12045 12.062 8.87886 12.373C8.16531 13.7623 7.87641 15.331 8.04819 16.8834C8.21997 18.4358 8.84482 19.9033 9.84486 21.103C9.09605 21.6254 8.21826 21.9323 7.30709 21.9904C6.39592 22.0484 5.48629 21.8553 4.67724 21.4322C3.86819 21.0091 3.19074 20.3721 2.71866 19.5906C2.24657 18.8091 1.99795 17.913 1.99986 17ZM15.9999 22C14.8348 22.0004 13.6952 21.6593 12.7219 21.019C13.7064 19.6273 14.1462 17.9227 13.9579 16.2283C13.7695 14.5339 12.9661 12.9675 11.6999 11.826C12.3894 11.114 13.2446 10.5838 14.1891 10.283C15.1336 9.98218 16.1378 9.92003 17.1122 10.1021C18.0865 10.2842 19.0006 10.7048 19.7727 11.3264C20.5448 11.948 21.1508 12.7512 21.5367 13.6642C21.9226 14.5772 22.0763 15.5716 21.984 16.5585C21.8917 17.5454 21.5564 18.4941 21.008 19.3198C20.4595 20.1454 19.7151 20.8224 18.8412 21.2901C17.9673 21.7578 16.9911 22.0017 15.9999 22ZM10.1049 3.553L11.1049 1.553C11.2234 1.31563 11.4314 1.13508 11.6831 1.05106C11.8077 1.00946 11.9393 0.992814 12.0703 1.00207C12.2014 1.01132 12.3293 1.0463 12.4469 1.105C12.5644 1.1637 12.6692 1.24498 12.7553 1.34419C12.8415 1.4434 12.9072 1.5586 12.9488 1.68322C12.9904 1.80783 13.007 1.93942 12.9978 2.07047C12.9885 2.20152 12.9536 2.32947 12.8949 2.447L11.8949 4.447C11.8362 4.56453 11.7549 4.66935 11.6557 4.75548C11.5565 4.8416 11.4413 4.90734 11.3166 4.94894C11.192 4.99054 11.0604 5.00719 10.9294 4.99793C10.7983 4.98868 10.6704 4.9537 10.5529 4.895C10.3155 4.77645 10.1349 4.56846 10.0509 4.31678C9.96691 4.06511 9.98631 3.79037 10.1049 3.553ZM1.10486 2.447C0.986311 2.20897 0.967173 1.93359 1.05166 1.68145C1.13614 1.42931 1.31733 1.22105 1.55536 1.1025C1.79339 0.983948 2.06877 0.96481 2.32091 1.0493C2.57306 1.13378 2.78131 1.31497 2.89986 1.553L3.89986 3.553C3.95856 3.67053 3.99354 3.79848 4.00279 3.92953C4.01205 4.06058 3.9954 4.19217 3.9538 4.31678C3.9122 4.4414 3.84646 4.5566 3.76034 4.65581C3.67422 4.75502 3.5694 4.8363 3.45186 4.895C3.33433 4.9537 3.20639 4.98868 3.07534 4.99793C2.94429 5.00719 2.8127 4.99054 2.68808 4.94894C2.43641 4.86492 2.22841 4.68437 2.10986 4.447L1.10486 2.447ZM5.99986 3V1C5.99986 0.734784 6.10522 0.48043 6.29276 0.292893C6.48029 0.105357 6.73465 0 6.99986 0C7.26508 0 7.51943 0.105357 7.70697 0.292893C7.89451 0.48043 7.99986 0.734784 7.99986 1V3C7.99986 3.26522 7.89451 3.51957 7.70697 3.70711C7.51943 3.89464 7.26508 4 6.99986 4C6.73465 4 6.48029 3.89464 6.29276 3.70711C6.10522 3.51957 5.99986 3.26522 5.99986 3Z" fill="currentColor"/>
</g>
<defs>
<clipPath id="clip0_406_2298">
<rect width="24" height="24" fill="white"/>
</clipPath>
</defs>
</svg>
