<svg width="24" height="24" viewBox="0 0 24 24" fill="none" xmlns="http://www.w3.org/2000/svg">
<g clip-path="url(#clip0_406_2300)">
<path d="M23.863 6.88024L0 6.99124V6.00024C0.00158786 4.67465 0.528882 3.4038 1.46622 2.46646C2.40356 1.52913 3.67441 1.00183 5 1.00024H7.528C7.9934 1.00063 8.45239 1.10879 8.869 1.31624L12.025 2.90024C12.1645 2.96707 12.3173 3.00127 12.472 3.00024H19C20.1297 3.00249 21.2254 3.38725 22.1084 4.09182C22.9915 4.79639 23.6099 5.77924 23.863 6.88024ZM24 8.88024V18.0002C23.9984 19.3258 23.4711 20.5967 22.5338 21.534C21.5964 22.4714 20.3256 22.9987 19 23.0002H5C3.67441 22.9987 2.40356 22.4714 1.46622 21.534C0.528882 20.5967 0.00158786 19.3258 0 18.0002L0 8.99124L24 8.88024ZM16 16.0002C16 15.735 15.8946 15.4807 15.7071 15.2931C15.5196 15.1056 15.2652 15.0002 15 15.0002H13V13.0002C13 12.735 12.8946 12.4807 12.7071 12.2931C12.5196 12.1056 12.2652 12.0002 12 12.0002C11.7348 12.0002 11.4804 12.1056 11.2929 12.2931C11.1054 12.4807 11 12.735 11 13.0002V15.0002H9C8.73478 15.0002 8.48043 15.1056 8.29289 15.2931C8.10536 15.4807 8 15.735 8 16.0002C8 16.2655 8.10536 16.5198 8.29289 16.7074C8.48043 16.8949 8.73478 17.0002 9 17.0002H11V19.0002C11 19.2655 11.1054 19.5198 11.2929 19.7074C11.4804 19.8949 11.7348 20.0002 12 20.0002C12.2652 20.0002 12.5196 19.8949 12.7071 19.7074C12.8946 19.5198 13 19.2655 13 19.0002V17.0002H15C15.2652 17.0002 15.5196 16.8949 15.7071 16.7074C15.8946 16.5198 16 16.2655 16 16.0002Z" fill="currentColor"/>
</g>
<defs>
<clipPath id="clip0_406_2300">
<rect width="24" height="24" fill="white"/>
</clipPath>
</defs>
</svg>
