<svg width="24" height="24" viewBox="0 0 24 24" fill="none" xmlns="http://www.w3.org/2000/svg">
<g clip-path="url(#clip0_406_2227)">
<path d="M6.224 8.68495L4.15 9.29295C3.47605 9.49079 2.85093 9.82742 2.31482 10.2812C1.7787 10.735 1.34344 11.2959 1.037 11.928C0.735606 12.5514 0.567738 13.2309 0.544147 13.923C0.520555 14.6151 0.64176 15.3044 0.9 15.9469C0.907 15.9649 0.916 15.982 0.923 16L2.643 15.719C4.26415 15.2967 5.74659 14.4576 6.943 13.285C7.03689 13.193 7.14798 13.1205 7.2699 13.0715C7.39183 13.0225 7.52221 12.998 7.65361 12.9994C7.785 13.0008 7.91483 13.028 8.0357 13.0796C8.15656 13.1312 8.26607 13.2061 8.358 13.3C8.44992 13.3938 8.52246 13.5049 8.57145 13.6269C8.62045 13.7488 8.64495 13.8792 8.64356 14.0106C8.64216 14.142 8.6149 14.2718 8.56333 14.3926C8.51177 14.5135 8.4369 14.623 8.343 14.715C6.8705 16.1523 5.04354 17.1739 3.048 17.676L1.876 17.87C2.55038 18.966 3.38648 19.9538 4.356 20.7999L6.409 20.038L7.809 19.3379C9.25225 18.6127 10.4878 17.533 11.4 16.2L11.919 15.439C11.9912 15.3265 12.0852 15.2297 12.1955 15.1542C12.3057 15.0787 12.43 15.026 12.561 14.9994C12.6919 14.9727 12.8269 14.9725 12.9579 14.9989C13.0889 15.0253 13.2133 15.0777 13.3237 15.1529C13.4341 15.2282 13.5283 15.3248 13.6008 15.4371C13.6732 15.5494 13.7224 15.6751 13.7455 15.8067C13.7685 15.9384 13.765 16.0733 13.735 16.2035C13.705 16.3337 13.6493 16.4566 13.571 16.565L13.053 17.326C11.9496 18.9406 10.4537 20.2483 8.706 21.1259L7.156 21.899L6.313 22.211C8.34462 23.3954 10.6553 24.0167 13.007 24.011H13.931C14.1377 24.0108 14.3395 23.9473 14.509 23.829C16.6268 22.3895 18.3808 20.4771 19.632 18.243L8.74 7.54895C7.94524 8.01818 7.10156 8.39911 6.224 8.68495Z" fill="currentColor"/>
<path d="M23.7151 2.28503C23.5253 2.09585 23.2681 1.98962 23.0001 1.98962C22.7321 1.98962 22.475 2.09585 22.2851 2.28503L17.5211 7.04903L17.2011 6.73603C16.3574 5.91198 15.25 5.41212 14.0739 5.32449C12.8978 5.23687 11.7286 5.5671 10.7721 6.25703C10.6801 6.32303 10.5891 6.37803 10.4961 6.44203L20.5231 16.286C20.8422 15.4221 21.0766 14.5293 21.2231 13.62C21.3471 12.8279 21.28 12.0176 21.0272 11.2568C20.7744 10.4959 20.3434 9.80649 19.7701 9.24603L18.9701 8.46203L23.7171 3.71503C23.906 3.5249 24.0119 3.26764 24.0115 2.99961C24.0112 2.73159 23.9046 2.47463 23.7151 2.28503Z" fill="currentColor"/>
</g>
<defs>
<clipPath id="clip0_406_2227">
<rect width="24" height="24" fill="white"/>
</clipPath>
</defs>
</svg>
