<svg width="24" height="24" viewBox="0 0 24 24" fill="none" xmlns="http://www.w3.org/2000/svg">
<g clip-path="url(#clip0_406_2180)">
<path d="M11 5.27223C8.23594 5.48002 5.5688 6.3811 3.24503 7.89223C3.54889 6.6814 4.19244 5.58261 5.0999 4.7253C6.00735 3.86799 7.1409 3.28785 8.36703 3.05323C8.69148 2.98796 9.02648 2.99674 9.34707 3.0789C9.66767 3.16106 9.96559 3.31449 10.2187 3.52777C10.4717 3.74104 10.6734 4.00867 10.8087 4.31071C10.944 4.61274 11.0094 4.94141 11 5.27223ZM23.654 5.24923C23.2908 4.75228 22.8301 4.33459 22.3 4.02167C21.7699 3.70875 21.1816 3.50717 20.571 3.42923C20.4931 2.81864 20.2915 2.23034 19.9786 1.70026C19.6657 1.17019 19.248 0.709467 18.751 0.346233C18.4962 0.154442 18.1929 0.0373922 17.8753 0.00819164C17.5577 -0.0210089 17.2382 0.0387932 16.9526 0.180901C16.6671 0.323008 16.4267 0.541809 16.2585 0.812798C16.0902 1.08379 16.0007 1.39626 16 1.71523V7.00023C8.48303 7.00023 4.19403 8.43723 1.96303 12.1942C4.33048 12.8127 6.49012 14.0514 8.21928 15.7826C9.94843 17.5139 11.1845 19.675 11.8 22.0432C15.561 19.8132 17 15.5232 17 8.00023H22.285C22.604 7.99954 22.9165 7.91006 23.1875 7.74181C23.4585 7.57357 23.6773 7.33321 23.8194 7.04764C23.9615 6.76208 24.0213 6.44259 23.9921 6.12496C23.9629 5.80733 23.8458 5.5041 23.654 5.24923ZM19.2 13.0002H18.725C18.5742 14.3552 18.3021 15.6939 17.912 17.0002H18.726C21.213 17.0772 22.012 13.1242 19.2 13.0002ZM9.95103 22.9112C7.55103 23.5992 3.41403 25.0542 1.17103 22.8292C0.768228 22.4276 0.456109 21.9444 0.255674 21.4121C0.0552395 20.8798 -0.0288608 20.3108 0.0090319 19.7432C0.101789 17.8021 0.465648 15.8835 1.09003 14.0432C3.25489 14.5312 5.23678 15.6236 6.80536 17.1934C8.37393 18.7632 9.46475 20.746 9.95103 22.9112ZM5.00003 20.0002C5.00003 19.735 4.89467 19.4807 4.70714 19.2931C4.5196 19.1056 4.26525 19.0002 4.00003 19.0002C3.73482 19.0002 3.48046 19.1056 3.29293 19.2931C3.10539 19.4807 3.00003 19.735 3.00003 20.0002C3.00003 20.2654 3.10539 20.5198 3.29293 20.7073C3.48046 20.8949 3.73482 21.0002 4.00003 21.0002C4.26525 21.0002 4.5196 20.8949 4.70714 20.7073C4.89467 20.5198 5.00003 20.2654 5.00003 20.0002Z" fill="currentColor"/>
</g>
<defs>
<clipPath id="clip0_406_2180">
<rect width="24" height="24" fill="white"/>
</clipPath>
</defs>
</svg>
