<svg width="24" height="24" viewBox="0 0 24 24" fill="none" xmlns="http://www.w3.org/2000/svg">
<g clip-path="url(#clip0_406_1809)">
<path d="M23.925 18.1434C24.0498 18.8616 24.0161 19.5984 23.8261 20.3022C23.6362 21.006 23.2947 21.6598 22.8255 22.2177C22.3563 22.7756 21.7707 23.2241 21.1099 23.5319C20.4491 23.8397 19.729 23.9992 19 23.9994H16C15.7348 23.9994 15.4805 23.8941 15.2929 23.7065C15.1054 23.519 15 23.2646 15 22.9994V20.4094C14.0457 20.792 13.0281 20.9921 12 20.9994C10.9713 20.9889 9.95369 20.7853 9.00004 20.3994V22.9994C9.00004 23.2646 8.89468 23.519 8.70715 23.7065C8.51961 23.8941 8.26526 23.9994 8.00004 23.9994H5.00004C4.27107 23.9992 3.55095 23.8397 2.89014 23.5319C2.22933 23.2241 1.64382 22.7756 1.17462 22.2177C0.705414 21.6598 0.363878 21.006 0.173935 20.3022C-0.0160068 19.5984 -0.0497605 18.8616 0.0750394 18.1434L0.375039 16.4034C0.474797 15.8247 0.745634 15.2892 1.15262 14.8658C1.55961 14.4425 2.08409 14.1508 2.65842 14.0283C3.23276 13.9058 3.83061 13.9582 4.37488 14.1787C4.91916 14.3992 5.3849 14.7777 5.71204 15.2654C6.97604 17.1234 9.40904 18.9994 12 18.9994C15.13 18.9994 18.214 16.2204 19.13 13.6234C19.2036 13.4282 19.3346 13.2599 19.5058 13.1408C19.6771 13.0217 19.8805 12.9574 20.089 12.9564L20.521 12.9634C20.7147 12.9658 20.9068 12.9297 21.0864 12.8571C21.2659 12.7846 21.4292 12.6771 21.5668 12.5409C21.7045 12.4046 21.8136 12.2424 21.888 12.0636C21.9624 11.8848 22.0005 11.6931 22 11.4994C21.9997 11.1487 21.8764 10.8092 21.6517 10.5399C21.427 10.2706 21.115 10.0885 20.77 10.0254C20.5573 9.98682 20.3628 9.8803 20.2156 9.72183C20.0685 9.56335 19.9767 9.36146 19.954 9.14642C19.8214 7.88201 19.3878 6.66776 18.6896 5.60527C17.9915 4.54279 17.049 3.66296 15.941 3.03942C15.6582 3.92462 15.2803 4.77659 14.814 5.58042C13.5161 7.42058 11.8227 8.94689 9.85804 10.0474C10.1575 10.1209 10.4271 10.285 10.6299 10.5172C10.8328 10.7494 10.9592 11.0385 10.9919 11.3452C11.0246 11.6518 10.962 11.961 10.8126 12.2308C10.6632 12.5006 10.4343 12.7178 10.1571 12.8528C9.87985 12.9878 9.56773 13.034 9.26324 12.9853C8.95875 12.9365 8.67668 12.7951 8.45545 12.5803C8.23421 12.3655 8.08456 12.0877 8.02687 11.7848C7.96918 11.4819 8.00625 11.1685 8.13304 10.8874C5.83386 11.8184 3.34784 12.1952 0.876039 11.9874C0.670011 11.9598 0.477709 11.8687 0.325876 11.7267C0.174044 11.5847 0.0702297 11.399 0.0288708 11.1952C-0.0124881 10.9915 0.0106646 10.78 0.095109 10.59C0.179553 10.4001 0.321092 10.2412 0.500039 10.1354C1.10457 9.44952 1.55442 8.64157 1.81904 7.76642C3.12404 4.67342 5.10004 -0.000582344 12 -0.000582344C14.3544 -0.00615982 16.6348 0.821466 18.4376 2.33578C20.2403 3.8501 21.4492 5.95342 21.85 8.27342C22.4864 8.53946 23.03 8.9876 23.4125 9.56155C23.795 10.1355 23.9994 10.8097 24 11.4994C23.9983 12.3304 23.6949 13.1325 23.146 13.7564C23.153 13.7824 23.171 13.8034 23.176 13.8314L23.925 18.1434ZM16 11.4994C16 11.2027 15.9121 10.9127 15.7472 10.6661C15.5824 10.4194 15.3482 10.2271 15.0741 10.1136C14.8 10.0001 14.4984 9.97036 14.2074 10.0282C13.9164 10.0861 13.6492 10.229 13.4394 10.4388C13.2296 10.6485 13.0867 10.9158 13.0289 11.2068C12.971 11.4978 13.0007 11.7994 13.1142 12.0734C13.2278 12.3475 13.42 12.5818 13.6667 12.7466C13.9134 12.9114 14.2034 12.9994 14.5 12.9994C14.8979 12.9994 15.2794 12.8414 15.5607 12.5601C15.842 12.2788 16 11.8972 16 11.4994Z" fill="currentColor"/>
</g>
<defs>
<clipPath id="clip0_406_1809">
<rect width="24" height="24" fill="white"/>
</clipPath>
</defs>
</svg>
