<svg width="24" height="24" viewBox="0 0 24 24" fill="none" xmlns="http://www.w3.org/2000/svg">
<g clip-path="url(#clip0_406_2226)">
<path d="M24 10H0V5C0.00158786 3.67441 0.528882 2.40356 1.46622 1.46622C2.40356 0.528882 3.67441 0.00158786 5 0L10 0V3C10 3.26522 10.1054 3.51957 10.2929 3.70711C10.4804 3.89464 10.7348 4 11 4C11.2652 4 11.5196 3.89464 11.7071 3.70711C11.8946 3.51957 12 3.26522 12 3V0H14V5C14 5.26522 14.1054 5.51957 14.2929 5.70711C14.4804 5.89464 14.7348 6 15 6C15.2652 6 15.5196 5.89464 15.7071 5.70711C15.8946 5.51957 16 5.26522 16 5V0H18V7C18 7.26522 18.1054 7.51957 18.2929 7.70711C18.4804 7.89464 18.7348 8 19 8C19.2652 8 19.5196 7.89464 19.7071 7.70711C19.8946 7.51957 20 7.26522 20 7V0.1C21.1286 0.332096 22.1427 0.94618 22.8713 1.83875C23.5999 2.73132 23.9985 3.8478 24 5V10ZM0.3 12C0.731861 13.4424 1.61658 14.7074 2.82323 15.6079C4.02989 16.5084 5.49438 16.9965 7 17H9V21C9 21.7956 9.31607 22.5587 9.87868 23.1213C10.4413 23.6839 11.2044 24 12 24C12.7956 24 13.5587 23.6839 14.1213 23.1213C14.6839 22.5587 15 21.7956 15 21V17H17C18.5056 16.9965 19.9701 16.5084 21.1768 15.6079C22.3834 14.7074 23.2681 13.4424 23.7 12H0.3Z" fill="currentColor"/>
</g>
<defs>
<clipPath id="clip0_406_2226">
<rect width="24" height="24" fill="white"/>
</clipPath>
</defs>
</svg>
