<svg width="24" height="24" viewBox="0 0 24 24" fill="none" xmlns="http://www.w3.org/2000/svg">
<g clip-path="url(#clip0_406_2277)">
<path d="M15.0001 0H9.00012C7.67453 0.00158786 6.40368 0.528882 5.46634 1.46622C4.529 2.40356 4.00171 3.67441 4.00012 5V16H20.0001V5C19.9985 3.67441 19.4712 2.40356 18.5339 1.46622C17.5966 0.528882 16.3257 0.00158786 15.0001 0V0Z" fill="currentColor"/>
<path d="M4.00012 19C4.00171 20.3256 4.529 21.5964 5.46634 22.5338C6.40368 23.4711 7.67453 23.9984 9.00012 24H15.0001C16.3257 23.9984 17.5966 23.4711 18.5339 22.5338C19.4712 21.5964 19.9985 20.3256 20.0001 19V18H4.00012V19ZM12.0001 20C12.1979 20 12.3912 20.0586 12.5557 20.1685C12.7201 20.2784 12.8483 20.4346 12.924 20.6173C12.9997 20.8 13.0195 21.0011 12.9809 21.1951C12.9423 21.3891 12.8471 21.5673 12.7072 21.7071C12.5674 21.847 12.3892 21.9422 12.1952 21.9808C12.0012 22.0194 11.8002 21.9996 11.6174 21.9239C11.4347 21.8482 11.2785 21.72 11.1687 21.5556C11.0588 21.3911 11.0001 21.1978 11.0001 21C11.0001 20.7348 11.1055 20.4804 11.293 20.2929C11.4806 20.1054 11.7349 20 12.0001 20Z" fill="currentColor"/>
</g>
<defs>
<clipPath id="clip0_406_2277">
<rect width="24" height="24" fill="white"/>
</clipPath>
</defs>
</svg>
