<svg width="24" height="24" viewBox="0 0 24 24" fill="none" xmlns="http://www.w3.org/2000/svg">
<g clip-path="url(#clip0_406_2253)">
<path d="M18.5811 2.14067L12.3161 0.0516681C12.111 -0.016653 11.8893 -0.016653 11.6841 0.0516681L5.41912 2.14067C4.42303 2.47155 3.55654 3.10793 2.94277 3.95938C2.329 4.81083 1.99916 5.83406 2.00012 6.88367V12.0007C2.00012 19.5637 11.2001 23.7407 11.5941 23.9147C11.7219 23.9715 11.8603 24.0008 12.0001 24.0008C12.14 24.0008 12.2783 23.9715 12.4061 23.9147C12.8001 23.7407 22.0001 19.5637 22.0001 12.0007V6.88367C22.0011 5.83406 21.6713 4.81083 21.0575 3.95938C20.4437 3.10793 19.5772 2.47155 18.5811 2.14067ZM15.0001 12.0007H13.0001V14.0007C13.0001 14.2659 12.8948 14.5202 12.7072 14.7078C12.5197 14.8953 12.2653 15.0007 12.0001 15.0007C11.7349 15.0007 11.4806 14.8953 11.293 14.7078C11.1055 14.5202 11.0001 14.2659 11.0001 14.0007V12.0007H9.00012C8.73491 12.0007 8.48055 11.8953 8.29302 11.7078C8.10548 11.5202 8.00012 11.2659 8.00012 11.0007C8.00012 10.7355 8.10548 10.4811 8.29302 10.2936C8.48055 10.106 8.73491 10.0007 9.00012 10.0007H11.0001V8.00067C11.0001 7.73545 11.1055 7.4811 11.293 7.29356C11.4806 7.10603 11.7349 7.00067 12.0001 7.00067C12.2653 7.00067 12.5197 7.10603 12.7072 7.29356C12.8948 7.4811 13.0001 7.73545 13.0001 8.00067V10.0007H15.0001C15.2653 10.0007 15.5197 10.106 15.7072 10.2936C15.8948 10.4811 16.0001 10.7355 16.0001 11.0007C16.0001 11.2659 15.8948 11.5202 15.7072 11.7078C15.5197 11.8953 15.2653 12.0007 15.0001 12.0007Z" fill="currentColor"/>
</g>
<defs>
<clipPath id="clip0_406_2253">
<rect width="24" height="24" fill="white"/>
</clipPath>
</defs>
</svg>
