<svg width="24" height="24" viewBox="0 0 24 24" fill="none" xmlns="http://www.w3.org/2000/svg">
<path d="M15.75 9.525L11.164 4.939C10.8827 4.65774 10.5011 4.49978 10.1032 4.49988C9.70534 4.49997 9.32381 4.65811 9.04255 4.9395C8.76129 5.2209 8.60333 5.6025 8.60342 6.00036C8.60352 6.39822 8.76166 6.77974 9.04305 7.061L13.629 11.646C13.6756 11.6925 13.7125 11.7476 13.7378 11.8084C13.763 11.8691 13.7759 11.9342 13.7759 12C13.7759 12.0658 13.763 12.1309 13.7378 12.1916C13.7125 12.2524 13.6756 12.3076 13.629 12.354L9.04305 16.939C8.76166 17.2203 8.60352 17.6018 8.60342 17.9997C8.60333 18.3975 8.76129 18.7791 9.04255 19.0605C9.32381 19.3419 9.70534 19.5 10.1032 19.5001C10.5011 19.5002 10.8827 19.3423 11.164 19.061L15.75 14.475C16.4053 13.818 16.7732 12.9279 16.7732 12C16.7732 11.0721 16.4053 10.182 15.75 9.525Z" fill="currentColor"/>
</svg>
