<svg width="24" height="24" viewBox="0 0 24 24" fill="none" xmlns="http://www.w3.org/2000/svg">
<path d="M18.0611 9.52494L14.4751 5.93894C13.8082 5.30257 12.9218 4.94751 12.0001 4.94751C11.0783 4.94751 10.1919 5.30257 9.52507 5.93894L5.93907 9.52494C5.6578 9.80634 5.49985 10.1879 5.49994 10.5858C5.50003 10.9837 5.65817 11.3652 5.93957 11.6464C6.22096 11.9277 6.60256 12.0857 7.00042 12.0856C7.39828 12.0855 7.7798 11.9273 8.06107 11.6459L10.5001 9.20694V18.9999C10.5001 19.3978 10.6581 19.7793 10.9394 20.0606C11.2207 20.3419 11.6022 20.4999 12.0001 20.4999C12.3979 20.4999 12.7794 20.3419 13.0607 20.0606C13.342 19.7793 13.5001 19.3978 13.5001 18.9999V9.20694L15.9391 11.6459C16.0783 11.7853 16.2437 11.8958 16.4257 11.9712C16.6077 12.0467 16.8027 12.0855 16.9997 12.0856C17.1967 12.0856 17.3918 12.0469 17.5738 11.9715C17.7558 11.8962 17.9212 11.7857 18.0606 11.6464C18.1999 11.5072 18.3104 11.3418 18.3859 11.1598C18.4613 10.9779 18.5001 10.7828 18.5002 10.5858C18.5002 10.3888 18.4615 10.1937 18.3861 10.0117C18.3108 9.82967 18.2003 9.66427 18.0611 9.52494Z" fill="currentColor"/>
</svg>
