<svg width="24" height="24" viewBox="0 0 24 24" fill="none" xmlns="http://www.w3.org/2000/svg">
<g clip-path="url(#clip0_406_2067)">
<path d="M23 10.9991H21V8.99907C21 8.44679 20.5523 7.99908 20 7.99908C19.4478 7.99908 19.0001 8.44679 19.0001 8.99907V10.9991H17C16.4478 10.9991 16.0001 11.4468 16.0001 11.9991C16.0001 12.5513 16.4478 12.999 17 12.999H19.0001V14.9991C19.0001 15.5513 19.4478 15.999 20 15.999C20.5523 15.999 21 15.5513 21 14.9991V12.999H23C23.5523 12.999 24 12.5513 24 11.9991C24 11.4468 23.5523 10.9991 23 10.9991Z" fill="currentColor"/>
<path d="M9 12C12.3137 12 15 9.31371 15 6C15 2.68629 12.3137 0 9 0C5.68629 0 3 2.68629 3 6C3 9.31371 5.68629 12 9 12Z" fill="currentColor"/>
<path d="M9 13.9991C4.03172 14.0046 0.00553125 18.0308 0 22.9991C0 23.5514 0.447703 23.9991 0.999984 23.9991H17C17.5522 23.9991 18 23.5514 18 22.9991C17.9945 18.0308 13.9683 14.0046 9 13.9991Z" fill="currentColor"/>
</g>
<defs>
<clipPath id="clip0_406_2067">
<rect width="24" height="24" fill="white"/>
</clipPath>
</defs>
</svg>
