<svg width="24" height="24" viewBox="0 0 24 24" fill="none" xmlns="http://www.w3.org/2000/svg">
<g clip-path="url(#clip0_406_2155)">
<path d="M14.0001 24.0003H10.0001C8.67453 23.9987 7.40368 23.4714 6.46634 22.5341C5.529 21.5967 5.00171 20.3259 5.00012 19.0003V17.0003C5.00012 16.2046 5.31619 15.4416 5.8788 14.879C6.44141 14.3164 7.20447 14.0003 8.00012 14.0003H16.0001C16.7958 14.0003 17.5588 14.3164 18.1214 14.879C18.6841 15.4416 19.0001 16.2046 19.0001 17.0003V19.0003C18.9985 20.3259 18.4712 21.5967 17.5339 22.5341C16.5966 23.4714 15.3257 23.9987 14.0001 24.0003ZM17.0001 12.0003V10.0003C17.0001 9.73507 16.8948 9.48072 16.7072 9.29318C16.5197 9.10565 16.2653 9.00029 16.0001 9.00029H8.00012C7.73491 9.00029 7.48055 9.10565 7.29302 9.29318C7.10548 9.48072 7.00012 9.73507 7.00012 10.0003V12.0003H17.0001ZM15.0001 7.00029V1.41429C15.0002 1.17353 14.9387 0.936746 14.8214 0.726449C14.7042 0.516152 14.5352 0.339324 14.3303 0.212766C14.1255 0.0862076 13.8917 0.014124 13.6512 0.0033641C13.4107 -0.00739578 13.1714 0.0435255 12.9561 0.151289L10.3341 1.46229C9.93325 1.66257 9.5961 1.97056 9.36047 2.35173C9.12485 2.7329 9.00007 3.17217 9.00012 3.62029V7.00029H15.0001Z" fill="currentColor"/>
</g>
<defs>
<clipPath id="clip0_406_2155">
<rect width="24" height="24" fill="white"/>
</clipPath>
</defs>
</svg>
