<svg width="24" height="24" viewBox="0 0 24 24" fill="none" xmlns="http://www.w3.org/2000/svg">
<g clip-path="url(#clip0_406_2266)">
<path d="M23 19.9997H14.816C14.6666 19.5814 14.4262 19.2016 14.1122 18.8875C13.7981 18.5735 13.4182 18.3331 13 18.1837V14.0197C14.344 14.0197 15.52 14.0077 16.1 13.9967C16.4586 13.9897 16.8154 13.9458 17.165 13.8657C18.0657 13.656 18.8897 13.1982 19.5436 12.5443C20.1975 11.8904 20.6553 11.0664 20.865 10.1657C21.1673 8.89907 20.9648 7.56451 20.3003 6.4446C19.6358 5.32469 18.5616 4.50737 17.305 4.16569L17.129 4.12269C16.829 4.05569 16.677 4.02269 16.541 3.69469C16.0573 2.5276 15.2176 1.54295 14.1415 0.881085C13.0654 0.219219 11.8079 -0.0860921 10.5481 0.00866623C9.2883 0.103425 8.09057 0.593416 7.12559 1.40881C6.16062 2.2242 5.47764 3.32338 5.174 4.54969C4.95775 5.4459 4.93864 6.37838 5.118 7.28269C4.45228 7.56904 3.89186 8.05498 3.51409 8.67342C3.13633 9.29186 2.95985 10.0123 3.00902 10.7353C3.05819 11.4584 3.33058 12.1483 3.78859 12.7099C4.2466 13.2715 4.86764 13.6771 5.566 13.8707C5.83814 13.9455 6.11798 13.9888 6.4 13.9997C7.053 14.0177 8.949 14.0257 10.921 14.0257H11V18.1867C10.5821 18.3358 10.2024 18.5757 9.88837 18.8892C9.57434 19.2027 9.33378 19.582 9.184 19.9997H1C0.734784 19.9997 0.48043 20.1051 0.292893 20.2926C0.105357 20.4801 0 20.7345 0 20.9997C0 21.2649 0.105357 21.5193 0.292893 21.7068C0.48043 21.8943 0.734784 21.9997 1 21.9997H9.184C9.38765 22.5842 9.76816 23.0909 10.2727 23.4495C10.7773 23.808 11.381 24.0006 12 24.0006C12.619 24.0006 13.2227 23.808 13.7273 23.4495C14.2318 23.0909 14.6124 22.5842 14.816 21.9997H23C23.2652 21.9997 23.5196 21.8943 23.7071 21.7068C23.8946 21.5193 24 21.2649 24 20.9997C24 20.7345 23.8946 20.4801 23.7071 20.2926C23.5196 20.1051 23.2652 19.9997 23 19.9997Z" fill="currentColor"/>
</g>
<defs>
<clipPath id="clip0_406_2266">
<rect width="24" height="24" fill="white"/>
</clipPath>
</defs>
</svg>
