<svg width="24" height="24" viewBox="0 0 24 24" fill="none" xmlns="http://www.w3.org/2000/svg">
<g clip-path="url(#clip0_406_2290)">
<path d="M12.0001 24C11.8032 24.0003 11.6082 23.9617 11.4263 23.8864C11.2444 23.8111 11.0791 23.7005 10.9401 23.561L3.26414 15.889C2.23275 14.8576 1.65332 13.4587 1.65332 12C1.65332 10.5414 2.23275 9.14245 3.26414 8.11101L10.9361 0.439005C11.2175 0.157743 11.5991 -0.000215797 11.997 -0.000122029C12.3948 -2.82604e-05 12.7764 0.15811 13.0576 0.439505C13.3389 0.7209 13.4969 1.1025 13.4968 1.50036C13.4967 1.89822 13.3385 2.27974 13.0571 2.56101L5.38514 10.232C5.15293 10.4642 4.96872 10.7398 4.84304 11.0431C4.71736 11.3465 4.65268 11.6716 4.65268 12C4.65268 12.3284 4.71736 12.6535 4.84304 12.9569C4.96872 13.2602 5.15293 13.5359 5.38514 13.768L13.0571 21.439C13.2668 21.6485 13.4097 21.9155 13.4678 22.2062C13.5258 22.4969 13.4965 22.7983 13.3834 23.0723C13.2703 23.3463 13.0785 23.5806 12.8323 23.7458C12.5862 23.9109 12.2966 23.9994 12.0001 24Z" fill="currentColor"/>
<path d="M21.542 24.0001C21.3449 24.0002 21.1498 23.9614 20.9678 23.8861C20.7857 23.8108 20.6203 23.7003 20.481 23.5611L11.4 14.4751C10.7447 13.818 10.3768 12.928 10.3768 12.0001C10.3768 11.0722 10.7447 10.1821 11.4 9.52508L20.481 0.439077C20.7649 0.170864 21.1423 0.0239953 21.5329 0.0297013C21.9234 0.0354072 22.2964 0.193238 22.5724 0.469632C22.8484 0.746026 23.0057 1.11918 23.0108 1.50975C23.016 1.90032 22.8686 2.2775 22.6 2.56108L13.514 11.6461C13.4674 11.6925 13.4305 11.7477 13.4052 11.8084C13.38 11.8692 13.3671 11.9343 13.3671 12.0001C13.3671 12.0658 13.38 12.131 13.4052 12.1917C13.4305 12.2525 13.4674 12.3076 13.514 12.3541L22.6 21.4391C22.8097 21.6487 22.9526 21.9157 23.0106 22.2065C23.0687 22.4973 23.0392 22.7988 22.926 23.0728C22.8128 23.3469 22.6209 23.5812 22.3745 23.7462C22.1282 23.9113 21.8385 23.9996 21.542 24.0001Z" fill="currentColor"/>
</g>
<defs>
<clipPath id="clip0_406_2290">
<rect width="24" height="24" fill="white"/>
</clipPath>
</defs>
</svg>
