<svg width="24" height="24" viewBox="0 0 24 24" fill="none" xmlns="http://www.w3.org/2000/svg">
<g clip-path="url(#clip0_406_2085)">
<path d="M3.787 20.6562C2.78296 20.6557 1.82018 20.2567 1.11013 19.5468C0.400068 18.8369 0.000794959 17.8742 1.34638e-07 16.8702V7.1302C-0.000186396 6.43093 0.193447 5.74529 0.559399 5.14942C0.92535 4.55356 1.4493 4.07078 2.07306 3.7547C2.69682 3.43863 3.39598 3.30162 4.0929 3.35891C4.78982 3.41619 5.45722 3.66552 6.021 4.0792L9.8 6.8532C9.8494 6.17942 10.0783 5.53116 10.463 4.97578C10.8477 4.42041 11.3741 3.97818 11.9875 3.69506C12.6009 3.41193 13.2789 3.29824 13.9511 3.36579C14.6233 3.43335 15.2652 3.67968 15.81 4.0792L22.451 8.9492C22.9297 9.30073 23.3189 9.76 23.5872 10.2899C23.8555 10.8197 23.9953 11.4053 23.9953 11.9992C23.9953 12.5931 23.8555 13.1787 23.5872 13.7085C23.3189 14.2384 22.9297 14.6977 22.451 15.0492L15.81 19.9192C15.2653 20.3187 14.6237 20.565 13.9516 20.6327C13.2796 20.7003 12.6017 20.5868 11.9883 20.3039C11.375 20.021 10.8485 19.579 10.4637 19.0239C10.0789 18.4688 9.84973 17.8208 9.8 17.1472L6.021 19.9212C5.37359 20.3978 4.59093 20.6553 3.787 20.6562Z" fill="currentColor"/>
</g>
<defs>
<clipPath id="clip0_406_2085">
<rect width="24" height="24" fill="white"/>
</clipPath>
</defs>
</svg>
