<svg width="24" height="24" viewBox="0 0 24 24" fill="none" xmlns="http://www.w3.org/2000/svg">
<g clip-path="url(#clip0_406_2211)">
<path d="M13.0001 4C13.0001 4.26522 13.1055 4.51957 13.293 4.70711C13.4806 4.89464 13.7349 5 14.0001 5H17.9661C17.8925 4.35068 17.6076 3.74354 17.1551 3.272L14.8711 0.913C14.3715 0.406548 13.7086 0.0933745 13.0001 0.029V4ZM11.0001 4V0H7.00012C5.67453 0.00158786 4.40368 0.528882 3.46634 1.46622C2.529 2.40356 2.00171 3.67441 2.00012 5V15C2.00171 16.3256 2.529 17.5964 3.46634 18.5338C4.40368 19.4711 5.67453 19.9984 7.00012 20H13.0001C14.3257 19.9984 15.5966 19.4711 16.5339 18.5338C17.4712 17.5964 17.9985 16.3256 18.0001 15V7H14.0001C13.2045 7 12.4414 6.68393 11.8788 6.12132C11.3162 5.55871 11.0001 4.79565 11.0001 4ZM17.0001 24H8.00012C7.73491 24 7.48055 23.8946 7.29302 23.7071C7.10548 23.5196 7.00012 23.2652 7.00012 23C7.00012 22.7348 7.10548 22.4804 7.29302 22.2929C7.48055 22.1054 7.73491 22 8.00012 22H17.0001C17.7958 22 18.5588 21.6839 19.1214 21.1213C19.6841 20.5587 20.0001 19.7956 20.0001 19V8C20.0001 7.73478 20.1055 7.48043 20.293 7.29289C20.4806 7.10536 20.7349 7 21.0001 7C21.2653 7 21.5197 7.10536 21.7072 7.29289C21.8948 7.48043 22.0001 7.73478 22.0001 8V19C21.9985 20.3256 21.4712 21.5964 20.5339 22.5338C19.5966 23.4711 18.3257 23.9984 17.0001 24Z" fill="currentColor"/>
</g>
<defs>
<clipPath id="clip0_406_2211">
<rect width="24" height="24" fill="white"/>
</clipPath>
</defs>
</svg>
