<svg width="24" height="24" viewBox="0 0 24 24" fill="none" xmlns="http://www.w3.org/2000/svg">
<g clip-path="url(#clip0_406_1903)">
<path d="M11.9998 2.00033C14.6791 2.00914 17.2435 3.08934 19.1216 5.00023H15.9997C15.4474 5.00023 14.9997 5.44792 14.9997 6.00019C14.9997 6.55245 15.4474 7.00014 15.9997 7.00014H20.1425C21.1678 6.99958 21.9989 6.16851 21.9995 5.1432V1.00033C21.9995 0.448063 21.5518 0.000374387 20.9995 0.000374387C20.4472 0.000374387 19.9996 0.448063 19.9996 1.00033V3.07828C15.0828 -1.34972 7.50748 -0.953549 3.07948 3.96316C1.34661 5.88732 0.28375 8.32113 0.050179 10.9C-0.00119436 11.4538 0.40609 11.9443 0.959854 11.9957C0.989853 11.9985 1.01999 11.9999 1.05018 12C1.55702 12.0065 1.98549 11.6261 2.03916 11.122C2.50049 5.96292 6.82012 2.00712 11.9998 2.00033Z" fill="currentColor"/>
<path d="M22.9505 12.0002C22.4436 11.9937 22.0152 12.3741 21.9615 12.8782C21.4843 18.3724 16.6435 22.4396 11.1492 21.9623C8.77202 21.7559 6.54735 20.7049 4.87805 19H7.99997C8.55223 19 8.99992 18.5523 8.99992 18C8.99992 17.4478 8.55223 17.0001 7.99997 17.0001H3.85709C2.83206 16.9995 2.00072 17.83 2.00015 18.855C2.00015 18.8556 2.00015 18.8563 2.00015 18.857V22.9999C2.00015 23.5521 2.44784 23.9998 3.00011 23.9998C3.55237 23.9998 4.00006 23.5521 4.00006 22.9999V20.9219C8.91676 25.3499 16.4921 24.9538 20.9201 20.037C22.653 18.1129 23.7159 15.6791 23.9494 13.1001C24.0008 12.5464 23.5935 12.0558 23.0398 12.0045C23.0101 12.0018 22.9803 12.0003 22.9505 12.0002Z" fill="currentColor"/>
</g>
<defs>
<clipPath id="clip0_406_1903">
<rect width="24" height="24" fill="white"/>
</clipPath>
</defs>
</svg>
