<svg width="24" height="24" viewBox="0 0 24 24" fill="none" xmlns="http://www.w3.org/2000/svg">
<g clip-path="url(#clip0_406_2295)">
<path d="M11.8321 24C11.5353 24.0001 11.2452 23.9122 10.9984 23.7474C10.7516 23.5826 10.5592 23.3483 10.4456 23.0741C10.3321 22.7999 10.3023 22.4982 10.3603 22.2072C10.4182 21.9161 10.5612 21.6488 10.7711 21.439L18.4431 13.768C18.6753 13.5358 18.8595 13.2602 18.9852 12.9569C19.1109 12.6535 19.1756 12.3284 19.1756 12C19.1756 11.6716 19.1109 11.3465 18.9852 11.0431C18.8595 10.7398 18.6753 10.4641 18.4431 10.232L10.7711 2.56099C10.6318 2.42166 10.5212 2.25625 10.4458 2.0742C10.3704 1.89215 10.3316 1.69704 10.3316 1.49999C10.3316 1.10204 10.4897 0.720387 10.7711 0.438992C11.0525 0.157598 11.4341 -0.000488281 11.8321 -0.000488281C12.0291 -0.000488281 12.2243 0.0383228 12.4063 0.113729C12.5884 0.189135 12.7538 0.29966 12.8931 0.438992L20.5641 8.11099C21.5955 9.14244 22.1749 10.5413 22.1749 12C22.1749 13.4586 21.5955 14.8575 20.5641 15.889L12.8931 23.561C12.7537 23.7003 12.5883 23.8107 12.4063 23.886C12.2242 23.9614 12.0291 24.0001 11.8321 24Z" fill="currentColor"/>
<path d="M2.28722 24C1.99053 23.9999 1.70053 23.9119 1.45388 23.747C1.20724 23.5821 1.01503 23.3478 0.901565 23.0737C0.788101 22.7995 0.758479 22.4979 0.816445 22.2069C0.874411 21.916 1.01736 21.6487 1.22722 21.439L10.3122 12.354C10.3588 12.3076 10.3957 12.2524 10.4209 12.1916C10.4461 12.1309 10.4591 12.0658 10.4591 12C10.4591 11.9342 10.4461 11.8691 10.4209 11.8084C10.3957 11.7476 10.3588 11.6925 10.3122 11.646L1.22722 2.56101C0.945822 2.27974 0.787684 1.89822 0.78759 1.50036C0.787496 1.1025 0.945455 0.7209 1.22672 0.439505C1.50798 0.15811 1.88951 -2.82604e-05 2.28736 -0.000122029C2.68522 -0.000215797 3.06682 0.157743 3.34822 0.439005L12.4342 9.52501C13.0887 10.1823 13.4561 11.072 13.4561 11.9995C13.4561 12.927 13.0887 13.8168 12.4342 14.474L3.34822 23.561C3.20886 23.7003 3.04343 23.8107 2.86139 23.886C2.67934 23.9614 2.48423 24.0001 2.28722 24Z" fill="currentColor"/>
</g>
<defs>
<clipPath id="clip0_406_2295">
<rect width="24" height="24" fill="white"/>
</clipPath>
</defs>
</svg>
