<svg width="24" height="24" viewBox="0 0 24 24" fill="none" xmlns="http://www.w3.org/2000/svg">
<path d="M15.9998 12.9994C15.5341 13.6204 14.9302 14.1244 14.2359 14.4715C13.5416 14.8187 12.776 14.9994 11.9998 14.9994C11.2236 14.9994 10.458 14.8187 9.76375 14.4715C9.06947 14.1244 8.46555 13.6204 7.99982 12.9994C7.60785 13.5278 7.1146 13.9728 6.54885 14.3085C5.98309 14.6443 5.35615 14.8641 4.70458 14.955C4.05302 15.0459 3.38986 15.0062 2.7538 14.8382C2.11773 14.6702 1.52148 14.3772 0.999817 13.9764V18.9994C1.0014 20.325 1.5287 21.5958 2.46604 22.5332C3.40337 23.4705 4.67422 23.9978 5.99982 23.9994H17.9998C19.3254 23.9978 20.5963 23.4705 21.5336 22.5332C22.4709 21.5958 22.9982 20.325 22.9998 18.9994V13.9734C22.4783 14.3744 21.8822 14.6676 21.2463 14.8358C20.6103 15.0041 19.9473 15.044 19.2957 14.9534C18.6441 14.8627 18.0171 14.6433 17.4513 14.3078C16.8854 13.9723 16.392 13.5275 15.9998 12.9994Z" fill="currentColor"/>
<path d="M21.6998 3.13144C21.5063 2.24053 21.0123 1.44323 20.3008 0.873195C19.5893 0.303155 18.7035 -0.00498097 17.7918 0.000436444H16.9998V3.00044C16.9998 3.26565 16.8945 3.52001 16.7069 3.70754C16.5194 3.89508 16.265 4.00044 15.9998 4.00044C15.7346 4.00044 15.4802 3.89508 15.2927 3.70754C15.1052 3.52001 14.9998 3.26565 14.9998 3.00044V0.000436444H8.99982V3.00044C8.99982 3.26565 8.89446 3.52001 8.70692 3.70754C8.51939 3.89508 8.26503 4.00044 7.99982 4.00044C7.7346 4.00044 7.48025 3.89508 7.29271 3.70754C7.10517 3.52001 6.99982 3.26565 6.99982 3.00044V0.000436444H6.20782C5.296 -0.00493205 4.41006 0.303346 3.69854 0.873583C2.98702 1.44382 2.49318 2.24134 2.29982 3.13244L1.02182 8.90044L0.999817 10.0204C1.00113 10.4144 1.08003 10.8043 1.23201 11.1677C1.38398 11.5312 1.60606 11.8612 1.88557 12.1388C2.45005 12.6996 3.21417 13.0131 4.00982 13.0104C4.40378 13.0091 4.79363 12.9302 5.15711 12.7782C5.52058 12.6263 5.85056 12.4042 6.12821 12.1247C6.40586 11.8452 6.62573 11.5137 6.77528 11.1492C6.92483 10.7848 7.00113 10.3944 6.99982 10.0004C6.99982 9.73522 7.10517 9.48087 7.29271 9.29333C7.48025 9.10579 7.7346 9.00044 7.99982 9.00044C8.26503 9.00044 8.51939 9.10579 8.70692 9.29333C8.89446 9.48087 8.99982 9.73522 8.99982 10.0004C8.99982 10.7961 9.31589 11.5591 9.8785 12.1218C10.4411 12.6844 11.2042 13.0004 11.9998 13.0004C12.7955 13.0004 13.5585 12.6844 14.1211 12.1218C14.6837 11.5591 14.9998 10.7961 14.9998 10.0004C14.9998 9.73522 15.1052 9.48087 15.2927 9.29333C15.4802 9.10579 15.7346 9.00044 15.9998 9.00044C16.265 9.00044 16.5194 9.10579 16.7069 9.29333C16.8945 9.48087 16.9998 9.73522 16.9998 10.0004C16.9998 10.7961 17.3159 11.5591 17.8785 12.1218C18.4411 12.6844 19.2042 13.0004 19.9998 13.0004C20.7955 13.0004 21.5585 12.6844 22.1211 12.1218C22.6837 11.5591 22.9998 10.7961 22.9998 10.0004V9.10744L21.6998 3.13144Z" fill="currentColor"/>
</svg>
