<svg width="24" height="24" viewBox="0 0 24 24" fill="none" xmlns="http://www.w3.org/2000/svg">
<g clip-path="url(#clip0_406_2015)">
<path d="M1.51008 6.07898C1.70706 6.07871 1.90215 6.11746 2.08408 6.19298C2.26601 6.2685 2.43119 6.37929 2.57008 6.51898L10.2431 14.191C10.4752 14.4232 10.7509 14.6074 11.0542 14.7331C11.3576 14.8587 11.6827 14.9234 12.0111 14.9234C12.3394 14.9234 12.6646 14.8587 12.9679 14.7331C13.2713 14.6074 13.5469 14.4232 13.7791 14.191L21.4401 6.52898C21.5785 6.38571 21.744 6.27144 21.927 6.19282C22.11 6.11421 22.3068 6.07283 22.506 6.0711C22.7051 6.06937 22.9027 6.10732 23.087 6.18274C23.2714 6.25817 23.4388 6.36954 23.5797 6.51038C23.7205 6.65122 23.8319 6.8187 23.9073 7.00304C23.9827 7.18739 24.0207 7.38491 24.019 7.58408C24.0172 7.78325 23.9758 7.98008 23.8972 8.16308C23.8186 8.34609 23.7043 8.5116 23.5611 8.64997L15.9001 16.312C14.868 17.3421 13.4693 17.9207 12.0111 17.9207C10.5528 17.9207 9.15417 17.3421 8.12208 16.312L0.44908 8.63997C0.239164 8.43019 0.0961935 8.16286 0.0382594 7.8718C-0.0196747 7.58074 0.0100314 7.27903 0.123619 7.00486C0.237206 6.73069 0.42957 6.49637 0.676369 6.33156C0.923168 6.16674 1.21331 6.07884 1.51008 6.07898Z" fill="currentColor"/>
</g>
<defs>
<clipPath id="clip0_406_2015">
<rect width="24" height="24" fill="white"/>
</clipPath>
</defs>
</svg>
