<svg width="24" height="24" viewBox="0 0 24 24" fill="none" xmlns="http://www.w3.org/2000/svg">
<g clip-path="url(#clip0_406_2281)">
<path d="M18.9509 23.0008H18.9179C18.4069 22.9928 17.9209 22.7758 17.5739 22.4008L15.6559 20.5198C15.2719 20.1228 15.2809 19.4898 15.6779 19.1058C15.6789 19.1048 15.6799 19.1038 15.6809 19.1028C16.0779 18.7218 16.7079 18.7328 17.0909 19.1268L18.9519 20.9498L22.2929 17.6088C22.6829 17.2188 23.3169 17.2188 23.7069 17.6088C24.0969 17.9988 24.0969 18.6328 23.7069 19.0228L20.2859 22.4438C19.9339 22.8008 19.4529 23.0018 18.9509 23.0008Z" fill="currentColor"/>
<path d="M14.0351 20.0149C14.0311 16.7179 16.7001 14.0419 19.9961 14.0369C21.2791 14.0349 22.5291 14.4469 23.5591 15.2119C25.3321 8.82691 21.5931 2.21391 15.2091 0.440912C8.82511 -1.33209 2.21311 2.40591 0.440109 8.79091C-1.33289 15.1759 2.40611 21.7899 8.79011 23.5629C10.8901 24.1459 13.1091 24.1459 15.2091 23.5629C14.4471 22.5369 14.0351 21.2929 14.0351 20.0149ZM13.0001 12.0219C13.0001 12.2879 12.8941 12.5419 12.7061 12.7299L9.70111 15.7359C9.30311 16.1199 8.66911 16.1089 8.28511 15.7109C7.91011 15.3229 7.91011 14.7069 8.28511 14.3189L10.9971 11.6069V7.01291C10.9971 6.45991 11.4451 6.01091 11.9991 6.01091C12.5521 6.01091 13.0001 6.45991 13.0001 7.01291V12.0219Z" fill="currentColor"/>
</g>
<defs>
<clipPath id="clip0_406_2281">
<rect width="24" height="24" fill="white"/>
</clipPath>
</defs>
</svg>
