<svg width="24" height="24" viewBox="0 0 24 24" fill="none" xmlns="http://www.w3.org/2000/svg">
<g clip-path="url(#clip0_406_1863)">
<path d="M19 2.00061H5C3.67441 2.0022 2.40356 2.52949 1.46622 3.46683C0.528882 4.40417 0.00158786 5.67502 0 7.00061L0 17.0006C0.00158786 18.3262 0.528882 19.5971 1.46622 20.5344C2.40356 21.4717 3.67441 21.999 5 22.0006H19C20.3256 21.999 21.5964 21.4717 22.5338 20.5344C23.4711 19.5971 23.9984 18.3262 24 17.0006V7.00061C23.9984 5.67502 23.4711 4.40417 22.5338 3.46683C21.5964 2.52949 20.3256 2.0022 19 2.00061ZM5 11.0006H7C7.26522 11.0006 7.51957 11.106 7.70711 11.2935C7.89464 11.481 8 11.7354 8 12.0006C8 12.2658 7.89464 12.5202 7.70711 12.7077C7.51957 12.8953 7.26522 13.0006 7 13.0006H5C4.73478 13.0006 4.48043 12.8953 4.29289 12.7077C4.10536 12.5202 4 12.2658 4 12.0006C4 11.7354 4.10536 11.481 4.29289 11.2935C4.48043 11.106 4.73478 11.0006 5 11.0006ZM13 18.0006H5C4.73478 18.0006 4.48043 17.8953 4.29289 17.7077C4.10536 17.5202 4 17.2658 4 17.0006C4 16.7354 4.10536 16.481 4.29289 16.2935C4.48043 16.106 4.73478 16.0006 5 16.0006H13C13.2652 16.0006 13.5196 16.106 13.7071 16.2935C13.8946 16.481 14 16.7354 14 17.0006C14 17.2658 13.8946 17.5202 13.7071 17.7077C13.5196 17.8953 13.2652 18.0006 13 18.0006ZM19 18.0006H17C16.7348 18.0006 16.4804 17.8953 16.2929 17.7077C16.1054 17.5202 16 17.2658 16 17.0006C16 16.7354 16.1054 16.481 16.2929 16.2935C16.4804 16.106 16.7348 16.0006 17 16.0006H19C19.2652 16.0006 19.5196 16.106 19.7071 16.2935C19.8946 16.481 20 16.7354 20 17.0006C20 17.2658 19.8946 17.5202 19.7071 17.7077C19.5196 17.8953 19.2652 18.0006 19 18.0006ZM19 13.0006H11C10.7348 13.0006 10.4804 12.8953 10.2929 12.7077C10.1054 12.5202 10 12.2658 10 12.0006C10 11.7354 10.1054 11.481 10.2929 11.2935C10.4804 11.106 10.7348 11.0006 11 11.0006H19C19.2652 11.0006 19.5196 11.106 19.7071 11.2935C19.8946 11.481 20 11.7354 20 12.0006C20 12.2658 19.8946 12.5202 19.7071 12.7077C19.5196 12.8953 19.2652 13.0006 19 13.0006Z" fill="currentColor"/>
</g>
<defs>
<clipPath id="clip0_406_1863">
<rect width="24" height="24" fill="white"/>
</clipPath>
</defs>
</svg>
