<svg width="24" height="24" viewBox="0 0 24 24" fill="none" xmlns="http://www.w3.org/2000/svg">
<g clip-path="url(#clip0_406_1980)">
<path d="M17.0002 9.99994C15.6157 9.99994 14.2623 10.4105 13.1112 11.1797C11.96 11.9488 11.0628 13.0421 10.533 14.3212C10.0032 15.6002 9.86456 17.0077 10.1347 18.3656C10.4048 19.7234 11.0714 20.9707 12.0504 21.9497C13.0294 22.9287 14.2767 23.5953 15.6345 23.8654C16.9924 24.1355 18.3999 23.9969 19.6789 23.4671C20.958 22.9373 22.0513 22.0401 22.8204 20.8889C23.5896 19.7378 24.0002 18.3844 24.0002 16.9999C23.998 15.1441 23.2599 13.3648 21.9476 12.0525C20.6353 10.7402 18.856 10.0021 17.0002 9.99994ZM19.7072 19.7069C19.5196 19.8944 19.2653 19.9997 19.0002 19.9997C18.735 19.9997 18.4807 19.8944 18.2932 19.7069L16.2932 17.7069C16.1056 17.5194 16.0002 17.2651 16.0002 16.9999V13.9999C16.0002 13.7347 16.1055 13.4804 16.293 13.2928C16.4806 13.1053 16.7349 12.9999 17.0002 12.9999C17.2654 12.9999 17.5197 13.1053 17.7073 13.2928C17.8948 13.4804 18.0002 13.7347 18.0002 13.9999V16.5859L19.7072 18.2929C19.8946 18.4805 19.9999 18.7348 19.9999 18.9999C19.9999 19.2651 19.8946 19.5194 19.7072 19.7069ZM8.47415 10.9999C7.38636 10.9999 6.32299 10.6774 5.41852 10.073C4.51405 9.46868 3.8091 8.60969 3.39282 7.6047C2.97653 6.59971 2.86761 5.49384 3.07983 4.42694C3.29205 3.36005 3.81588 2.38004 4.58507 1.61085C5.35425 0.841665 6.33426 0.317841 7.40116 0.105622C8.46805 -0.106596 9.57392 0.00232205 10.5789 0.418604C11.5839 0.834886 12.4429 1.53983 13.0472 2.44431C13.6516 3.34878 13.9742 4.41214 13.9742 5.49994C13.9726 6.95814 13.3926 8.35617 12.3615 9.38727C11.3304 10.4184 9.93236 10.9984 8.47415 10.9999ZM11.3562 23.9999H1.00015C0.8679 23.9999 0.736959 23.9737 0.614911 23.9228C0.492863 23.8718 0.382131 23.7972 0.289128 23.7032C0.196124 23.6091 0.122695 23.4976 0.073092 23.375C0.023489 23.2524 -0.00130272 23.1212 0.000152059 22.9889C-0.00445402 20.9143 0.619089 18.8868 1.78875 17.1733C2.9584 15.4598 4.61938 14.1405 6.55315 13.3889C7.32108 13.1161 8.13242 12.9859 8.94715 13.0049C8.78619 13.3279 8.6446 13.6602 8.52315 13.9999C8.17685 14.9622 7.9999 15.9772 8.00015 16.9999C8.00049 18.3434 8.30216 19.6697 8.88297 20.8812C9.46377 22.0926 10.3089 23.1584 11.3562 23.9999Z" fill="currentColor"/>
</g>
<defs>
<clipPath id="clip0_406_1980">
<rect width="24" height="24" fill="white"/>
</clipPath>
</defs>
</svg>
