<svg width="24" height="24" viewBox="0 0 24 24" fill="none" xmlns="http://www.w3.org/2000/svg">
<g clip-path="url(#clip0_406_2020)">
<path d="M4.99998 7.99962C4.99998 6.41737 5.46917 4.87065 6.34822 3.55506C7.22727 2.23946 8.4767 1.21408 9.93851 0.608583C11.4003 0.00308233 13.0089 -0.155344 14.5607 0.153337C16.1125 0.462019 17.538 1.22395 18.6568 2.34277C19.7757 3.46159 20.5376 4.88705 20.8463 6.4389C21.1549 7.99075 20.9965 9.59928 20.391 11.0611C19.7855 12.5229 18.7601 13.7723 17.4445 14.6514C16.1289 15.5304 14.5822 15.9996 13 15.9996C10.879 15.9972 8.84553 15.1536 7.34575 13.6538C5.84598 12.1541 5.00236 10.1206 4.99998 7.99962ZM22.646 13.3826C22.4272 13.2328 22.1578 13.176 21.8971 13.2248C21.6365 13.2735 21.4058 13.4238 21.256 13.6426C20.4931 14.7569 19.5123 15.7052 18.373 16.4302C17.2336 17.1552 15.9592 17.6418 14.6266 17.8609C13.294 18.0799 11.9308 18.0268 10.6193 17.7047C9.30785 17.3825 8.07519 16.7981 6.99572 15.9866C5.91624 15.1751 5.01231 14.1534 4.33846 12.9831C3.6646 11.8127 3.23478 10.518 3.07491 9.17707C2.91505 7.83609 3.02846 6.47663 3.40829 5.18068C3.78813 3.88472 4.42653 2.67913 5.28498 1.63662C5.45392 1.43214 5.53471 1.16892 5.50958 0.904867C5.48445 0.640816 5.35546 0.397563 5.15098 0.22862C4.9465 0.0596768 4.68328 -0.0211166 4.41923 0.00401331C4.15517 0.0291432 3.91192 0.158138 3.74298 0.36262C2.34914 2.05192 1.44445 4.09063 1.12704 6.2576C0.809624 8.42457 1.0916 10.6371 1.94238 12.6552C2.79316 14.6733 4.18027 16.4199 5.95326 17.7056C7.72624 18.9913 9.81742 19.767 12 19.9486V21.9996H7.99998C7.73476 21.9996 7.48041 22.105 7.29287 22.2925C7.10534 22.48 6.99998 22.7344 6.99998 22.9996C6.99998 23.2648 7.10534 23.5192 7.29287 23.7067C7.48041 23.8943 7.73476 23.9996 7.99998 23.9996H18C18.2652 23.9996 18.5195 23.8943 18.7071 23.7067C18.8946 23.5192 19 23.2648 19 22.9996C19 22.7344 18.8946 22.48 18.7071 22.2925C18.5195 22.105 18.2652 21.9996 18 21.9996H14V19.9386C15.7751 19.793 17.4955 19.2538 19.0362 18.3602C20.5768 17.4667 21.8991 16.2411 22.907 14.7726C22.9811 14.6642 23.0332 14.5423 23.0602 14.4137C23.0872 14.2852 23.0886 14.1526 23.0644 14.0236C23.0401 13.8945 22.9907 13.7714 22.9189 13.6615C22.8471 13.5515 22.7544 13.4567 22.646 13.3826Z" fill="currentColor"/>
</g>
<defs>
<clipPath id="clip0_406_2020">
<rect width="24" height="24" fill="white"/>
</clipPath>
</defs>
</svg>
