<svg width="24" height="24" viewBox="0 0 24 24" fill="none" xmlns="http://www.w3.org/2000/svg">
<g clip-path="url(#clip0_406_1873)">
<path d="M12.5815 24C17.1015 24.0115 21.2414 21.4726 23.2804 17.4387C23.5164 16.9395 23.303 16.3434 22.8037 16.1075C22.3254 15.8814 21.7538 16.067 21.4996 16.5309C18.9981 21.454 12.9792 23.4172 8.05601 20.9157C3.1328 18.4142 1.16965 12.3953 3.67114 7.4721C6.17264 2.54889 12.1915 0.58579 17.1147 3.08728C19.0115 4.05107 20.5514 5.59473 21.5105 7.49385C21.7439 7.99432 22.3388 8.21091 22.8393 7.97754C23.3398 7.74418 23.5563 7.14931 23.323 6.64878C23.3143 6.63022 23.3051 6.61194 23.2953 6.59395C20.3089 0.678311 13.0924 -1.69621 7.17682 1.2902C1.26124 4.27661 -1.11333 11.4932 1.87307 17.4087C3.91327 21.4501 8.05442 23.999 12.5815 24Z" fill="currentColor"/>
</g>
<defs>
<clipPath id="clip0_406_1873">
<rect width="24" height="24" fill="white"/>
</clipPath>
</defs>
</svg>
