<svg width="24" height="24" viewBox="0 0 24 24" fill="none" xmlns="http://www.w3.org/2000/svg">
<path d="M19.7836 3.25426C15.5149 -1.0544 8.56157 -1.08679 4.25292 3.18198C-0.0557406 7.45074 -0.0881313 14.404 4.18063 18.7127C4.21392 18.7463 4.24738 18.7796 4.28109 18.8128L8.21765 22.4478C10.3217 24.5074 13.6834 24.5163 15.7982 22.4678L19.7837 18.7848C24.0722 14.4961 24.0722 7.54299 19.7836 3.25426ZM18.0086 13.5155C18.0086 14.8939 16.8911 16.0114 15.5127 16.0114H8.52412C7.14567 16.0114 6.02821 14.8939 6.02821 13.5155V10.149C6.02821 9.16717 6.50938 8.24766 7.3161 7.68802L10.3112 5.61043C11.3386 4.90046 12.6981 4.90046 13.7256 5.61043L16.7207 7.68802C17.5274 8.24766 18.0086 9.16717 18.0086 10.149V13.5155ZM16.0118 10.149V13.5154C16.0118 13.7911 15.7883 14.0146 15.5127 14.0146H14.0151V12.0179C14.0151 11.4665 13.5681 11.0195 13.0168 11.0195H11.02C10.4686 11.0195 10.0217 11.4665 10.0217 12.0179V14.0146H8.52412C8.24845 14.0146 8.02495 13.7911 8.02495 13.5154V10.149C8.02485 9.82159 8.18526 9.51493 8.45423 9.32832L11.4493 7.25073C11.7921 7.01504 12.2447 7.01504 12.5874 7.25073L15.5825 9.32832C15.8515 9.51493 16.0119 9.82159 16.0118 10.149Z" fill="currentColor"/>
</svg>
