<svg width="24" height="24" viewBox="0 0 24 24" fill="none" xmlns="http://www.w3.org/2000/svg">
<path d="M10.957 12.354C10.9105 12.3076 10.8735 12.2524 10.8483 12.1916C10.8231 12.1309 10.8101 12.0658 10.8101 12C10.8101 11.9342 10.8231 11.8691 10.8483 11.8084C10.8735 11.7476 10.9105 11.6925 10.957 11.646L15.543 7.061C15.8244 6.77974 15.9825 6.39822 15.9826 6.00036C15.9827 5.6025 15.8248 5.2209 15.5435 4.9395C15.2622 4.65811 14.8807 4.49997 14.4829 4.49988C14.085 4.49978 13.7034 4.65774 13.422 4.939L8.83602 9.525C8.18079 10.182 7.81284 11.0721 7.81284 12C7.81284 12.9279 8.18079 13.818 8.83602 14.475L13.422 19.061C13.7034 19.3423 14.085 19.5002 14.4829 19.5001C14.8807 19.5 15.2622 19.3419 15.5435 19.0605C15.8248 18.7791 15.9827 18.3975 15.9826 17.9997C15.9825 17.6018 15.8244 17.2203 15.543 16.939L10.957 12.354Z" fill="currentColor"/>
</svg>
