<svg width="24" height="24" viewBox="0 0 24 24" fill="none" xmlns="http://www.w3.org/2000/svg">
<g clip-path="url(#clip0_406_2195)">
<path d="M23.9001 11.4372C23.5072 8.4126 21.9774 5.65112 19.6215 3.71402C17.2656 1.77693 14.2605 0.809592 11.217 1.00863C8.17353 1.20767 5.32002 2.55814 3.2365 4.78556C1.15297 7.01298 -0.0042192 9.95019 0.000135089 13.0002C-0.00562931 14.6327 0.325193 16.2489 0.97195 17.7478C1.61871 19.2468 2.56751 20.5963 3.75914 21.7122C4.67047 22.5559 5.87129 23.0171 7.11313 23.0002H16.8801C18.1921 23.0033 19.4526 22.4899 20.3891 21.5712C21.7238 20.2726 22.7364 18.68 23.346 16.9204C23.9557 15.1609 24.1454 13.2831 23.9001 11.4372ZM7.47214 19.6612C7.38537 19.7599 7.28 19.8405 7.16206 19.8984C7.04412 19.9563 6.91592 19.9904 6.78479 19.9988C6.65365 20.0072 6.52216 19.9896 6.39782 19.9471C6.27348 19.9046 6.15873 19.838 6.06013 19.7512C4.68572 18.5445 3.7119 16.9474 3.26858 15.173C2.82525 13.3986 2.93349 11.5312 3.57885 9.8199C4.22422 8.10859 5.37603 6.63474 6.88066 5.59493C8.38528 4.55513 10.1712 3.99881 12.0001 4.00018C12.7587 4.00041 13.5142 4.09548 14.2491 4.28318C14.3764 4.31601 14.4959 4.37359 14.6009 4.45261C14.7059 4.53164 14.7943 4.63058 14.8611 4.74377C14.9279 4.85697 14.9717 4.9822 14.99 5.11233C15.0084 5.24246 15.001 5.37493 14.9681 5.50218C14.9353 5.62943 14.8777 5.74897 14.7987 5.85397C14.7197 5.95897 14.6207 6.04738 14.5075 6.11415C14.3944 6.18091 14.2691 6.22473 14.139 6.24309C14.0089 6.26146 13.8764 6.25401 13.7491 6.22118C12.2256 5.82631 10.6135 5.95682 9.17335 6.59162C7.73322 7.22642 6.54928 8.32839 5.81297 9.71937C5.07666 11.1103 4.83102 12.709 5.11577 14.2569C5.40052 15.8047 6.19901 17.2113 7.38213 18.2492C7.48081 18.336 7.56142 18.4413 7.61935 18.5593C7.67728 18.6772 7.7114 18.8054 7.71976 18.9365C7.72812 19.0677 7.71055 19.1992 7.66806 19.3235C7.62557 19.4478 7.559 19.5626 7.47214 19.6612ZM12.0001 15.0002C11.7135 15.004 11.4293 14.9461 11.167 14.8304C10.9046 14.7147 10.6702 14.544 10.4796 14.3298C10.289 14.1157 10.1467 13.863 10.0623 13.589C9.97795 13.315 9.95347 13.026 9.99055 12.7417C10.0276 12.4574 10.1254 12.1844 10.2772 11.9412C10.4291 11.698 10.6314 11.4903 10.8706 11.3321C11.1097 11.174 11.3801 11.0691 11.6633 11.0246C11.9465 10.9801 12.236 10.997 12.5121 11.0742L16.2931 7.29318C16.3854 7.19767 16.4957 7.12149 16.6177 7.06908C16.7397 7.01667 16.871 6.98909 17.0037 6.98793C17.1365 6.98678 17.2682 7.01208 17.3911 7.06236C17.514 7.11264 17.6256 7.18689 17.7195 7.28079C17.8134 7.37468 17.8877 7.48633 17.938 7.60923C17.9882 7.73212 18.0135 7.8638 18.0124 7.99658C18.0112 8.12936 17.9836 8.26058 17.9312 8.38259C17.8788 8.50459 17.8026 8.61493 17.7071 8.70718L13.9261 12.4882C14.0095 12.784 14.0228 13.0951 13.9648 13.3969C13.9069 13.6987 13.7794 13.9828 13.5924 14.2266C13.4054 14.4705 13.1641 14.6674 12.8877 14.8017C12.6113 14.936 12.3074 15.0039 12.0001 15.0002ZM17.9401 19.7512C17.7402 19.919 17.4825 20.002 17.2222 19.9825C16.9619 19.9629 16.7196 19.8423 16.547 19.6465C16.3744 19.4506 16.2852 19.195 16.2985 18.9343C16.3118 18.6736 16.4265 18.4284 16.6181 18.2512C17.5905 17.3984 18.3073 16.2927 18.6888 15.0569C19.0703 13.8211 19.1016 12.5037 18.7791 11.2512C18.7128 10.9942 18.7513 10.7214 18.8862 10.4928C19.021 10.2642 19.2411 10.0985 19.4981 10.0322C19.7551 9.96588 20.0279 10.0044 20.2565 10.1392C20.4852 10.2741 20.6508 10.4942 20.7171 10.7512C20.9049 11.4861 21 12.2416 21.0001 13.0002C20.9987 14.2782 20.725 15.5413 20.1974 16.7053C19.6698 17.8694 18.9003 18.9077 17.9401 19.7512Z" fill="currentColor"/>
</g>
<defs>
<clipPath id="clip0_406_2195">
<rect width="24" height="24" fill="white"/>
</clipPath>
</defs>
</svg>
