<svg width="24" height="24" viewBox="0 0 24 24" fill="none" xmlns="http://www.w3.org/2000/svg">
<g clip-path="url(#clip0_406_2182)">
<path d="M2.00002 11H13C14.1045 11 15 10.1046 15 9V2.00002C15 0.895453 14.1045 0 13 0H2.00002C0.895453 0 0 0.895453 0 2.00002V9C0 10.1046 0.895453 11 2.00002 11Z" fill="currentColor"/>
<path d="M23.6579 0.882C23.2863 0.330656 22.6649 9.375e-05 21.9999 0H18.9999C17.8954 0 16.9999 0.895453 16.9999 2.00002V9C16.9999 10.1046 17.8953 11 18.9999 11H21.9999C23.1045 11 23.9999 10.1046 23.9999 9V2.00002C24.0006 1.60148 23.8814 1.21195 23.6579 0.882Z" fill="currentColor"/>
<path d="M6.11798 13.3419C5.78803 13.1184 5.3985 12.9992 4.99997 12.9999H1.99997C0.895453 12.9999 0 13.8953 0 14.9999V21.9999C0 23.1045 0.895453 23.9999 2.00002 23.9999H5.00002C6.10458 23.9999 7.00003 23.1044 7.00003 21.9999V14.9999C6.99989 14.335 6.66933 13.7136 6.11798 13.3419Z" fill="currentColor"/>
<path d="M23.118 13.3419C22.788 13.1184 22.3985 12.9992 22 12.9999H11C9.89545 12.9999 9 13.8953 9 14.9999V21.9999C9 23.1045 9.89545 23.9999 11 23.9999H22C23.1046 23.9999 24 23.1045 24 21.9999V14.9999C23.9999 14.335 23.6693 13.7136 23.118 13.3419Z" fill="currentColor"/>
</g>
<defs>
<clipPath id="clip0_406_2182">
<rect width="24" height="24" fill="white"/>
</clipPath>
</defs>
</svg>
