<svg width="24" height="24" viewBox="0 0 24 24" fill="none" xmlns="http://www.w3.org/2000/svg">
<g clip-path="url(#clip0_406_2053)">
<path d="M18.5 11C25.769 10.769 25.767 0.23 18.5 0C11.231 0.231 11.233 10.77 18.5 11ZM18.5 9C17.9217 8.99613 17.3536 8.84689 16.848 8.566L21.566 3.848C21.8507 4.37979 21.9932 4.97615 21.9795 5.57922C21.9659 6.18228 21.7966 6.77159 21.4881 7.28996C21.1796 7.80833 20.7424 8.23818 20.2189 8.53779C19.6953 8.83741 19.1032 8.99663 18.5 9ZM18.5 2C19.0783 2.00387 19.6464 2.15311 20.152 2.434L15.434 7.152C15.1493 6.62021 15.0068 6.02385 15.0205 5.42078C15.0341 4.81772 15.2034 4.22841 15.5119 3.71004C15.8204 3.19167 16.2576 2.76182 16.7811 2.46221C17.3047 2.16259 17.8968 2.00337 18.5 2ZM18.5 13C19.5338 13 20.5564 12.7856 21.503 12.3703C22.4497 11.9549 23.3 11.3477 24 10.587V19C23.9984 20.3256 23.4711 21.5964 22.5338 22.5338C21.5964 23.4711 20.3256 23.9984 19 24H5C3.67441 23.9984 2.40356 23.4711 1.46622 22.5338C0.528882 21.5964 0.00158786 20.3256 0 19L0 8C0 7.843 0.032 7.7 0.046 7.542L8.464 15.96C9.40276 16.896 10.6743 17.4216 12 17.4216C13.3257 17.4216 14.5972 16.896 15.536 15.96L18.5 13ZM9.878 14.546L0.744 5.411C1.18648 4.67732 1.81055 4.07004 2.55603 3.64773C3.3015 3.22542 4.14322 3.00234 5 3H11.436C11.1105 3.93447 10.9723 4.92391 11.0294 5.91179C11.0865 6.89968 11.3376 7.86664 11.7685 8.75742C12.1994 9.6482 12.8016 10.4453 13.5407 11.1033C14.2798 11.7613 15.1413 12.2671 16.076 12.592L14.122 14.546C13.5583 15.1071 12.7953 15.4221 12 15.4221C11.2047 15.4221 10.4417 15.1071 9.878 14.546Z" fill="currentColor"/>
</g>
<defs>
<clipPath id="clip0_406_2053">
<rect width="24" height="24" fill="white"/>
</clipPath>
</defs>
</svg>
