<svg width="24" height="24" viewBox="0 0 24 24" fill="none" xmlns="http://www.w3.org/2000/svg">
<g clip-path="url(#clip0_406_1911)">
<path d="M18.5 5.00061H5.5C4.0418 5.0022 2.64377 5.58217 1.61267 6.61328C0.581561 7.64438 0.00158817 9.04241 0 10.5006L0 13.5006C0.00158817 14.9588 0.581561 16.3568 1.61267 17.3879C2.64377 18.419 4.0418 18.999 5.5 19.0006H18.5C19.9582 18.999 21.3562 18.419 22.3873 17.3879C23.4184 16.3568 23.9984 14.9588 24 13.5006V10.5006C23.9984 9.04241 23.4184 7.64438 22.3873 6.61328C21.3562 5.58217 19.9582 5.0022 18.5 5.00061ZM21 13.5006C21 14.1637 20.7366 14.7995 20.2678 15.2684C19.7989 15.7372 19.163 16.0006 18.5 16.0006H5.5C4.83696 16.0006 4.20107 15.7372 3.73223 15.2684C3.26339 14.7995 3 14.1637 3 13.5006V10.5006C3 9.83757 3.26339 9.20168 3.73223 8.73284C4.20107 8.264 4.83696 8.00061 5.5 8.00061H18.5C19.163 8.00061 19.7989 8.264 20.2678 8.73284C20.7366 9.20168 21 9.83757 21 10.5006V13.5006Z" fill="currentColor"/>
</g>
<defs>
<clipPath id="clip0_406_1911">
<rect width="24" height="24" fill="white"/>
</clipPath>
</defs>
</svg>
