<svg width="24" height="24" viewBox="0 0 24 24" fill="none" xmlns="http://www.w3.org/2000/svg">
<g clip-path="url(#clip0_406_1949)">
<path d="M16 9V7H8V9C6.67441 9.00159 5.40356 9.52888 4.46622 10.4662C3.52888 11.4036 3.00159 12.6744 3 14V19C3.00159 20.3256 3.52888 21.5964 4.46622 22.5338C5.40356 23.4711 6.67441 23.9984 8 24H16C17.3256 23.9984 18.5964 23.4711 19.5338 22.5338C20.4711 21.5964 20.9984 20.3256 21 19V14C20.9984 12.6744 20.4711 11.4036 19.5338 10.4662C18.5964 9.52888 17.3256 9.00159 16 9ZM15 17H13V19C13 19.2652 12.8946 19.5196 12.7071 19.7071C12.5196 19.8946 12.2652 20 12 20C11.7348 20 11.4804 19.8946 11.2929 19.7071C11.1054 19.5196 11 19.2652 11 19V17H9C8.73478 17 8.48043 16.8946 8.29289 16.7071C8.10536 16.5196 8 16.2652 8 16C8 15.7348 8.10536 15.4804 8.29289 15.2929C8.48043 15.1054 8.73478 15 9 15H11V13C11 12.7348 11.1054 12.4804 11.2929 12.2929C11.4804 12.1054 11.7348 12 12 12C12.2652 12 12.5196 12.1054 12.7071 12.2929C12.8946 12.4804 13 12.7348 13 13V15H15C15.2652 15 15.5196 15.1054 15.7071 15.2929C15.8946 15.4804 16 15.7348 16 16C16 16.2652 15.8946 16.5196 15.7071 16.7071C15.5196 16.8946 15.2652 17 15 17ZM15.5 5H8.5C7.83696 5 7.20107 4.73661 6.73223 4.26777C6.26339 3.79893 6 3.16304 6 2.5C6 1.83696 6.26339 1.20107 6.73223 0.732233C7.20107 0.263392 7.83696 0 8.5 0L15.5 0C16.163 0 16.7989 0.263392 17.2678 0.732233C17.7366 1.20107 18 1.83696 18 2.5C18 3.16304 17.7366 3.79893 17.2678 4.26777C16.7989 4.73661 16.163 5 15.5 5Z" fill="currentColor"/>
</g>
<defs>
<clipPath id="clip0_406_1949">
<rect width="24" height="24" fill="white"/>
</clipPath>
</defs>
</svg>
