<svg width="24" height="24" viewBox="0 0 24 24" fill="none" xmlns="http://www.w3.org/2000/svg">
<g clip-path="url(#clip0_406_2148)">
<path d="M3 5V4C3 2.93914 3.42143 1.92172 4.17157 1.17157C4.92172 0.421429 5.93913 1.23306e-06 7 1.23306e-06H8.47C9.07711 -0.000549809 9.67003 0.183602 10.17 0.528001L12.055 1.828C12.222 1.9411 12.4193 2.00106 12.621 2H17C17.8842 2.00332 18.7424 2.29952 19.4404 2.8423C20.1385 3.38508 20.637 4.14386 20.858 5H3ZM23 20H14.816C14.6666 19.5818 14.4262 19.2019 14.1122 18.8879C13.7981 18.5738 13.4182 18.3334 13 18.184V15H17C18.0609 15 19.0783 14.5786 19.8284 13.8284C20.5786 13.0783 21 12.0609 21 11V7H3V11C3 12.0609 3.42143 13.0783 4.17157 13.8284C4.92172 14.5786 5.93913 15 7 15H11V18.184C10.5818 18.3334 10.2019 18.5738 9.88785 18.8879C9.5738 19.2019 9.3334 19.5818 9.184 20H1C0.734784 20 0.48043 20.1054 0.292893 20.2929C0.105357 20.4804 0 20.7348 0 21C0 21.2652 0.105357 21.5196 0.292893 21.7071C0.48043 21.8946 0.734784 22 1 22H9.184C9.38765 22.5845 9.76816 23.0912 10.2727 23.4498C10.7773 23.8083 11.381 24.001 12 24.001C12.619 24.001 13.2227 23.8083 13.7273 23.4498C14.2318 23.0912 14.6124 22.5845 14.816 22H23C23.2652 22 23.5196 21.8946 23.7071 21.7071C23.8946 21.5196 24 21.2652 24 21C24 20.7348 23.8946 20.4804 23.7071 20.2929C23.5196 20.1054 23.2652 20 23 20Z" fill="currentColor"/>
</g>
<defs>
<clipPath id="clip0_406_2148">
<rect width="24" height="24" fill="white"/>
</clipPath>
</defs>
</svg>
