<svg width="24" height="24" viewBox="0 0 24 24" fill="none" xmlns="http://www.w3.org/2000/svg">
<g clip-path="url(#clip0_406_2003)">
<path d="M20.4302 15.3302L14.3192 24.0002H10.4052L18.4762 12.5302L20.4302 15.3302ZM15.2652 7.93019L4.0462 23.8902C4.40195 23.9629 4.7641 23.9997 5.1272 24.0002H7.9612L17.2612 10.7862L15.2652 7.93019ZM21.6472 17.0742L16.7662 24.0002H18.8732C19.6175 24.0516 20.3614 23.8932 21.0202 23.543C21.679 23.1928 22.2264 22.6649 22.6002 22.0192C22.9169 21.3371 23.041 20.5814 22.9591 19.8339C22.8771 19.0863 22.5922 18.3754 22.1352 17.7782L21.6472 17.0742ZM15.0002 3.00019C15.0017 2.47776 14.8668 1.96399 14.6088 1.50973C14.3507 1.05547 13.9785 0.676472 13.529 0.410237C13.0795 0.144003 12.5683 -0.000233818 12.0459 -0.00819637C11.5236 -0.0161589 11.0082 0.112428 10.5508 0.364839C10.0934 0.61725 9.7098 0.984732 9.43805 1.43092C9.16629 1.8771 9.01576 2.38652 9.00136 2.90875C8.98695 3.43098 9.10918 3.94792 9.35593 4.4084C9.60268 4.86889 9.9654 5.25695 10.4082 5.53419L1.8612 17.7782C1.40485 18.3758 1.12066 19.0869 1.0394 19.8344C0.958142 20.582 1.08291 21.3375 1.4002 22.0192C1.60392 22.4037 1.87997 22.7453 2.2132 23.0252L14.0462 6.18419L13.5922 5.53419C14.0226 5.26595 14.3776 4.89261 14.624 4.44931C14.8703 4.00601 14.9998 3.50732 15.0002 3.00019Z" fill="currentColor"/>
</g>
<defs>
<clipPath id="clip0_406_2003">
<rect width="24" height="24" fill="white"/>
</clipPath>
</defs>
</svg>
