<svg width="24" height="24" viewBox="0 0 24 24" fill="none" xmlns="http://www.w3.org/2000/svg">
<path d="M11.9999 15.9985C14.2082 15.9985 15.9984 14.2083 15.9984 12C15.9984 9.79165 14.2082 8.00146 11.9999 8.00146C9.79159 8.00146 8.0014 9.79165 8.0014 12C8.0014 14.2083 9.79159 15.9985 11.9999 15.9985Z" fill="currentColor"/>
<path d="M23.2668 9.42008C21.7164 6.89501 18.1897 2.65857 12 2.65857C5.8103 2.65857 2.28361 6.89501 0.733188 9.42008C-0.244355 11.0012 -0.244355 12.999 0.733188 14.5802C2.28361 17.1052 5.8103 21.3417 12 21.3417C18.1897 21.3417 21.7164 17.1052 23.2668 14.5802C24.2444 12.999 24.2444 11.0012 23.2668 9.42008ZM12 17.9979C8.68755 17.9979 6.00223 15.3126 6.00223 12.0001C6.00223 8.68764 8.68755 6.00233 12 6.00233C15.3125 6.00233 17.9978 8.68764 17.9978 12.0001C17.9945 15.3112 15.3111 17.9945 12 17.9979Z" fill="currentColor"/>
</svg>
