<svg width="24" height="24" viewBox="0 0 24 24" fill="none" xmlns="http://www.w3.org/2000/svg">
<g clip-path="url(#clip0_406_1928)">
<path d="M18 12C18 10.8133 17.6481 9.65326 16.9888 8.66657C16.3295 7.67987 15.3925 6.91084 14.2961 6.45671C13.1997 6.00259 11.9933 5.88377 10.8295 6.11528C9.66557 6.34679 8.59648 6.91824 7.75736 7.75735C6.91825 8.59647 6.3468 9.66556 6.11529 10.8294C5.88378 11.9933 6.0026 13.1997 6.45673 14.2961C6.91085 15.3924 7.67989 16.3295 8.66658 16.9888C9.65328 17.6481 10.8133 18 12 18C13.5908 17.9984 15.116 17.3658 16.2409 16.2409C17.3658 15.116 17.9984 13.5908 18 12ZM14.631 13.108L12.738 15.631C12.6521 15.7457 12.5407 15.8387 12.4126 15.9028C12.2845 15.9669 12.1433 16.0003 12 16.0003C11.8568 16.0003 11.7155 15.9669 11.5874 15.9028C11.4593 15.8387 11.3479 15.7457 11.262 15.631L9.369 13.108C9.12947 12.7883 9 12.3995 9 12C9 11.6005 9.12947 11.2117 9.369 10.892L11.262 8.36899C11.3479 8.25433 11.4593 8.16125 11.5874 8.09715C11.7155 8.03304 11.8568 7.99966 12 7.99966C12.1433 7.99966 12.2845 8.03304 12.4126 8.09715C12.5407 8.16125 12.6521 8.25433 12.738 8.36899L14.631 10.892C14.8705 11.2117 15 11.6005 15 12C15 12.3995 14.8705 12.7883 14.631 13.108ZM9.565 0.248991C11.1714 -0.082997 12.8286 -0.082997 14.435 0.248991L13.547 3.30599C13.4867 3.52261 13.3537 3.71189 13.1703 3.84208C12.987 3.97226 12.7644 4.03543 12.54 4.02099C12.362 4.00799 12.182 3.99999 12 3.99999C11.818 3.99999 11.638 4.00799 11.46 4.02099C11.2356 4.03524 11.0132 3.972 10.8299 3.84184C10.6466 3.71169 10.5135 3.52252 10.453 3.30599L9.565 0.248991ZM15.459 3.89299L16.349 0.827991C17.8951 1.4337 19.2992 2.35246 20.4734 3.5266C21.6475 4.70074 22.5663 6.10492 23.172 7.65099L20.107 8.54099C19.8954 8.6045 19.6686 8.59494 19.463 8.51386C19.2575 8.43277 19.0853 8.28488 18.974 8.09399C18.2517 6.80962 17.1904 5.74834 15.906 5.02599C15.7151 4.91474 15.5672 4.74249 15.4861 4.53696C15.4051 4.33144 15.3955 4.10461 15.459 3.89299ZM19.979 11.46C19.9646 11.2356 20.0277 11.013 20.1579 10.8297C20.2881 10.6463 20.4774 10.5133 20.694 10.453L23.751 9.56499C24.083 11.1714 24.083 12.8286 23.751 14.435L20.694 13.547C20.4774 13.4866 20.2881 13.3536 20.1579 13.1703C20.0277 12.9869 19.9646 12.7644 19.979 12.54C19.992 12.362 20 12.182 20 12C20 11.818 19.992 11.638 19.979 11.46ZM3.894 8.48699L0.877002 7.51699C1.49274 6.0005 2.41093 4.62531 3.57556 3.4753C4.74018 2.32528 6.12685 1.42454 7.651 0.827991L8.541 3.89299C8.60449 4.10486 8.59482 4.33193 8.51355 4.53764C8.43229 4.74335 8.28415 4.91572 8.093 5.02699C6.82455 5.74103 5.77356 6.7858 5.052 8.04999C4.93789 8.24411 4.76078 8.39332 4.55011 8.47282C4.33944 8.55233 4.10791 8.55733 3.894 8.48699ZM14.572 23.715C12.8784 24.095 11.1216 24.095 9.428 23.715L10.408 20.664C10.4727 20.4533 10.6066 20.2705 10.7881 20.1455C10.9696 20.0204 11.1881 19.9603 11.408 19.975C11.608 19.991 11.801 20 12 20C12.199 20 12.4 19.991 12.592 19.975C12.8119 19.9603 13.0304 20.0204 13.2119 20.1455C13.3934 20.2705 13.5274 20.4533 13.592 20.664L14.572 23.715ZM4.025 12.592C4.03965 12.8119 3.97958 13.0304 3.85451 13.2119C3.72945 13.3934 3.54674 13.5273 3.336 13.592L0.285002 14.572C-0.0950007 12.8784 -0.0950007 11.1216 0.285002 9.42799L3.336 10.408C3.54674 10.4726 3.72945 10.6066 3.85451 10.7881C3.97958 10.9696 4.03965 11.1881 4.025 11.408C4.009 11.6 4 11.8 4 12C4 12.2 4.009 12.4 4.025 12.592ZM20.107 15.459L23.172 16.349C22.5755 17.8731 21.6747 19.2598 20.5247 20.4244C19.3747 21.5891 17.9995 22.5072 16.483 23.123L15.513 20.106C15.4421 19.8921 15.4468 19.6604 15.5264 19.4496C15.6059 19.2388 15.7555 19.0617 15.95 18.948C17.2145 18.2265 18.2596 17.1755 18.974 15.907C19.085 15.7158 19.2571 15.5676 19.4627 15.4863C19.6683 15.405 19.8953 15.3954 20.107 15.459ZM8.487 20.106L7.517 23.123C6.02238 22.5166 4.66461 21.6165 3.52407 20.4759C2.38353 19.3354 1.48342 17.9776 0.877002 16.483L3.894 15.513C4.10798 15.4422 4.3398 15.447 4.55062 15.5268C4.76144 15.6065 4.93845 15.7563 5.052 15.951C5.76583 17.2012 6.80179 18.2372 8.052 18.951C8.24525 19.0651 8.39372 19.2419 8.47283 19.4519C8.55194 19.662 8.55694 19.8927 8.487 20.106Z" fill="currentColor"/>
</g>
<defs>
<clipPath id="clip0_406_1928">
<rect width="24" height="24" fill="white"/>
</clipPath>
</defs>
</svg>
