<svg width="24" height="24" viewBox="0 0 24 24" fill="none" xmlns="http://www.w3.org/2000/svg">
<g clip-path="url(#clip0_406_2145)">
<path d="M12 24C14.3734 24 16.6935 23.2962 18.6668 21.9776C20.6402 20.6591 22.1783 18.7849 23.0866 16.5922C23.9948 14.3995 24.2324 11.9867 23.7694 9.65892C23.3064 7.33115 22.1635 5.19295 20.4853 3.51472C18.8071 1.83649 16.6689 0.693605 14.3411 0.230582C12.0133 -0.232441 9.60051 0.00519943 7.4078 0.913451C5.21509 1.8217 3.34094 3.35977 2.02236 5.33316C0.703788 7.30655 0 9.62663 0 12C0.00344108 15.1815 1.26883 18.2318 3.51852 20.4815C5.76821 22.7312 8.81846 23.9966 12 24ZM22 12C22.0016 13.8927 21.4656 15.747 20.4544 17.3469C19.4431 18.9469 17.9983 20.2267 16.288 21.0374C14.5777 21.8481 12.6723 22.1564 10.7936 21.9264C8.91488 21.6963 7.14016 20.9374 5.676 19.738L19.738 5.67601C21.2023 7.45808 22.0018 9.69353 22 12ZM12 2.00001C14.3065 1.99817 16.5419 2.79776 18.324 4.26201L4.262 18.324C3.06257 16.8598 2.30366 15.0851 2.07362 13.2064C1.84357 11.3277 2.15186 9.42234 2.96259 7.71204C3.77331 6.00174 5.05314 4.55688 6.65308 3.54565C8.25302 2.53441 10.1073 1.9984 12 2.00001Z" fill="currentColor"/>
</g>
<defs>
<clipPath id="clip0_406_2145">
<rect width="24" height="24" fill="white"/>
</clipPath>
</defs>
</svg>
