<svg width="24" height="24" viewBox="0 0 24 24" fill="none" xmlns="http://www.w3.org/2000/svg">
<g clip-path="url(#clip0_406_2191)">
<path d="M23.9999 1.99985V5.99985C23.9999 6.26506 23.8945 6.51942 23.707 6.70695C23.5194 6.89449 23.2651 6.99985 22.9999 6.99985C22.7346 6.99985 22.4803 6.89449 22.2927 6.70695C22.1052 6.51942 21.9999 6.26506 21.9999 5.99985V3.43885L16.6999 8.70985C16.61 8.81526 16.4991 8.90083 16.3744 8.96116C16.2497 9.02149 16.1138 9.05524 15.9754 9.06029C15.837 9.06534 15.699 9.04157 15.5702 8.99048C15.4414 8.93939 15.3247 8.86211 15.2274 8.76353C15.13 8.66495 15.0543 8.54722 15.0048 8.41781C14.9554 8.2884 14.9334 8.15012 14.9402 8.01176C14.947 7.87339 14.9825 7.73795 15.0444 7.61403C15.1063 7.4901 15.1933 7.38039 15.2999 7.29185L20.6099 1.99985H17.9999C17.7346 1.99985 17.4803 1.89449 17.2927 1.70696C17.1052 1.51942 16.9999 1.26506 16.9999 0.999848C16.9999 0.734632 17.1052 0.480278 17.2927 0.292742C17.4803 0.105205 17.7346 -0.00015161 17.9999 -0.00015161H21.9999C22.5303 -0.00015161 23.039 0.210562 23.4141 0.585635C23.7891 0.960708 23.9999 1.46942 23.9999 1.99985ZM20.6549 14.8558C20.0775 14.3065 19.3106 14.0006 18.5137 14.0017C17.7167 14.0028 16.9507 14.3109 16.3749 14.8618L14.4689 16.4678C12.9129 15.8241 11.4996 14.8792 10.31 13.6875C9.12035 12.4959 8.17793 11.0809 7.53686 9.52385L9.13686 7.62385C9.68785 7.04799 9.99588 6.28205 9.997 5.48505C9.99812 4.68805 9.69223 3.92125 9.14285 3.34385C9.14285 3.34385 7.29086 0.938848 7.26086 0.906848C6.68984 0.332709 5.91598 0.00609483 5.10628 -0.00251109C4.29657 -0.011117 3.51594 0.298975 2.93285 0.860848L1.78385 1.86085C-5.93614 10.0698 13.9839 29.9988 22.1839 22.1608L23.0959 21.1118C23.6754 20.5307 24.0008 19.7435 24.0008 18.9228C24.0008 18.1022 23.6754 17.315 23.0959 16.7338C23.0629 16.7078 20.6549 14.8558 20.6549 14.8558Z" fill="currentColor"/>
</g>
<defs>
<clipPath id="clip0_406_2191">
<rect width="24" height="24" fill="white"/>
</clipPath>
</defs>
</svg>
