<svg width="24" height="24" viewBox="0 0 24 24" fill="none" xmlns="http://www.w3.org/2000/svg">
<g clip-path="url(#clip0_406_2008)">
<path d="M22.942 6.83693L20.76 4.65393L21.707 3.70693C21.8025 3.61468 21.8787 3.50434 21.9311 3.38233C21.9835 3.26033 22.0111 3.12911 22.0122 2.99633C22.0134 2.86355 21.9881 2.73187 21.9378 2.60897C21.8875 2.48608 21.8133 2.37443 21.7194 2.28053C21.6255 2.18664 21.5138 2.11239 21.3909 2.06211C21.268 2.01183 21.1364 1.98652 21.0036 1.98768C20.8708 1.98883 20.7396 2.01642 20.6176 2.06883C20.4956 2.12124 20.3852 2.19742 20.293 2.29293L19.346 3.23993L17.163 1.05793C16.4749 0.40225 15.5609 0.036499 14.6105 0.036499C13.66 0.036499 12.746 0.40225 12.058 1.05793C11.7225 1.39309 11.4564 1.79108 11.2749 2.22914C11.0933 2.66719 10.9999 3.13674 10.9999 3.61093C10.9999 4.08512 11.0933 4.55466 11.2749 4.99272C11.4564 5.43078 11.7225 5.82876 12.058 6.16393L14.24 8.34593L8.34598 14.2399L6.16298 12.0579C5.47492 11.4022 4.56093 11.0365 3.61048 11.0365C2.66004 11.0365 1.74604 11.4022 1.05798 12.0579C0.72254 12.3931 0.456437 12.7911 0.274881 13.2291C0.0933261 13.6672 -0.00012207 14.1367 -0.00012207 14.6109C-0.00012207 15.0851 0.0933261 15.5547 0.274881 15.9927C0.456437 16.4308 0.72254 16.8288 1.05798 17.1639L3.23998 19.3459L2.29298 20.2929C2.19747 20.3852 2.12129 20.4955 2.06888 20.6175C2.01647 20.7395 1.98889 20.8707 1.98773 21.0035C1.98658 21.1363 2.01188 21.268 2.06216 21.3909C2.11244 21.5138 2.18669 21.6254 2.28059 21.7193C2.37448 21.8132 2.48613 21.8875 2.60903 21.9377C2.73192 21.988 2.8636 22.0133 2.99638 22.0122C3.12916 22.011 3.26038 21.9834 3.38239 21.931C3.50439 21.8786 3.61473 21.8024 3.70698 21.7069L4.65398 20.7599L6.83698 22.9419C7.17213 23.2772 7.57005 23.5432 8.00802 23.7247C8.44598 23.9061 8.91541 23.9995 9.38948 23.9995C9.86355 23.9995 10.333 23.9061 10.7709 23.7247C11.2089 23.5432 11.6068 23.2772 11.942 22.9419C12.2774 22.6068 12.5435 22.2089 12.725 21.771C12.9066 21.333 13 20.8635 13 20.3894C13 19.9153 12.9066 19.4459 12.725 19.0079C12.5435 18.5699 12.2774 18.172 11.942 17.8369L9.75998 15.6549L15.66 9.75993L17.842 11.9419C18.1771 12.2772 18.5751 12.5432 19.013 12.7247C19.451 12.9061 19.9204 12.9995 20.3945 12.9995C20.8686 12.9995 21.338 12.9061 21.7759 12.7247C22.2139 12.5432 22.6118 12.2772 22.947 11.9419C23.2824 11.6068 23.5485 11.2089 23.73 10.771C23.9116 10.333 24.005 9.86354 24.005 9.38943C24.005 8.91532 23.9116 8.44586 23.73 8.00788C23.5485 7.56991 23.2824 7.17201 22.947 6.83693H22.942Z" fill="currentColor"/>
</g>
<defs>
<clipPath id="clip0_406_2008">
<rect width="24" height="24" fill="white"/>
</clipPath>
</defs>
</svg>
