<svg width="24" height="24" viewBox="0 0 24 24" fill="none" xmlns="http://www.w3.org/2000/svg">
<g clip-path="url(#clip0_406_1926)">
<path d="M19 0H5C3.67441 0.00158786 2.40356 0.528882 1.46622 1.46622C0.528882 2.40356 0.00158786 3.67441 0 5L0 19C0.00158786 20.3256 0.528882 21.5964 1.46622 22.5338C2.40356 23.4711 3.67441 23.9984 5 24V21C5 19.1435 5.7375 17.363 7.05025 16.0503C8.36301 14.7375 10.1435 14 12 14C13.8565 14 15.637 14.7375 16.9497 16.0503C18.2625 17.363 19 19.1435 19 21V24C20.3256 23.9984 21.5964 23.4711 22.5338 22.5338C23.4711 21.5964 23.9984 20.3256 24 19V5C23.9984 3.67441 23.4711 2.40356 22.5338 1.46622C21.5964 0.528882 20.3256 0.00158786 19 0V0ZM12 12C11.2089 12 10.4355 11.7654 9.77772 11.3259C9.11992 10.8864 8.60723 10.2616 8.30448 9.53073C8.00173 8.79983 7.92252 7.99556 8.07686 7.21964C8.2312 6.44371 8.61216 5.73098 9.17157 5.17157C9.73098 4.61216 10.4437 4.2312 11.2196 4.07686C11.9956 3.92252 12.7998 4.00173 13.5307 4.30448C14.2616 4.60723 14.8864 5.11992 15.3259 5.77772C15.7654 6.43552 16 7.20887 16 8C16 9.06087 15.5786 10.0783 14.8284 10.8284C14.0783 11.5786 13.0609 12 12 12Z" fill="currentColor"/>
<path d="M11.9998 9.99999C13.1044 9.99999 13.9998 9.10456 13.9998 8C13.9998 6.89543 13.1044 6 11.9998 6C10.8953 6 9.99985 6.89543 9.99985 8C9.99985 9.10456 10.8953 9.99999 11.9998 9.99999Z" fill="currentColor"/>
<path d="M11.9998 16.0003C10.6743 16.0019 9.40341 16.5292 8.46607 17.4665C7.52873 18.4039 7.00144 19.6747 6.99985 21.0003V24.0003H16.9998V21.0003C16.9983 19.6747 16.471 18.4039 15.5336 17.4665C14.5963 16.5292 13.3254 16.0019 11.9998 16.0003Z" fill="currentColor"/>
</g>
<defs>
<clipPath id="clip0_406_1926">
<rect width="24" height="24" fill="white"/>
</clipPath>
</defs>
</svg>
