<svg width="24" height="24" viewBox="0 0 24 24" fill="none" xmlns="http://www.w3.org/2000/svg">
<g clip-path="url(#clip0_406_2223)">
<path d="M22.766 4.566C22.4006 4.41379 21.9981 4.37378 21.6099 4.45107C21.2217 4.52836 20.8653 4.71945 20.586 5L18 7.586L13.414 3C13.0389 2.62506 12.5303 2.41443 12 2.41443C11.4697 2.41443 10.9611 2.62506 10.586 3L6 7.586L3.414 5C3.1343 4.72038 2.77797 4.52997 2.39006 4.45283C2.00216 4.3757 1.60009 4.41531 1.23469 4.56665C0.869291 4.71799 0.556965 4.97426 0.337197 5.30308C0.117428 5.6319 8.44486e-05 6.0185 0 6.414L0 17C0.00158786 18.3256 0.528882 19.5964 1.46622 20.5338C2.40356 21.4711 3.67441 21.9984 5 22H19C20.3256 21.9984 21.5964 21.4711 22.5338 20.5338C23.4711 19.5964 23.9984 18.3256 24 17V6.414C24.0001 6.01847 23.8829 5.63179 23.6633 5.30285C23.4436 4.97391 23.1314 4.71749 22.766 4.566Z" fill="currentColor"/>
</g>
<defs>
<clipPath id="clip0_406_2223">
<rect width="24" height="24" fill="white"/>
</clipPath>
</defs>
</svg>
