<svg width="24" height="24" viewBox="0 0 24 24" fill="none" xmlns="http://www.w3.org/2000/svg">
<g clip-path="url(#clip0_406_2193)">
<path d="M12 0C9.62663 0 7.30655 0.703788 5.33316 2.02236C3.35977 3.34094 1.8217 5.21509 0.913451 7.4078C0.00519943 9.60051 -0.232441 12.0133 0.230582 14.3411C0.693605 16.6689 1.83649 18.8071 3.51472 20.4853C5.19295 22.1635 7.33115 23.3064 9.65892 23.7694C11.9867 24.2324 14.3995 23.9948 16.5922 23.0866C18.7849 22.1783 20.6591 20.6402 21.9776 18.6668C23.2962 16.6935 24 14.3734 24 12C23.9966 8.81846 22.7312 5.76821 20.4815 3.51852C18.2318 1.26883 15.1815 0.00344108 12 0V0ZM6.00001 10C6.00001 9.46957 6.21072 8.96086 6.58579 8.58579C6.96086 8.21072 7.46957 8 8.00001 8C8.53044 8 9.03915 8.21072 9.41422 8.58579C9.78929 8.96086 10 9.46957 10 10C10 11 9.10501 11 8.00001 11C6.89501 11 6.00001 11 6.00001 10ZM16.973 15.285C16.6187 16.3342 15.9542 17.2511 15.0675 17.9145C14.1808 18.5778 13.1135 18.9564 12.007 19C10.9016 18.9521 9.83639 18.572 8.95045 17.9092C8.06451 17.2464 7.39905 16.3319 7.04101 15.285C6.99662 15.1357 6.98772 14.9782 7.01499 14.8248C7.04227 14.6715 7.10497 14.5267 7.19811 14.4019C7.29125 14.2771 7.41225 14.1758 7.55147 14.106C7.69069 14.0362 7.84428 13.9999 8.00001 14H16.01C16.1647 14.0033 16.3166 14.0418 16.4542 14.1125C16.5918 14.1832 16.7115 14.2843 16.8043 14.4081C16.8971 14.5319 16.9605 14.6752 16.9897 14.8271C17.019 14.979 17.0132 15.1356 16.973 15.285ZM16 11C14.895 11 14 11 14 10C14 9.46957 14.2107 8.96086 14.5858 8.58579C14.9609 8.21072 15.4696 8 16 8C16.5304 8 17.0391 8.21072 17.4142 8.58579C17.7893 8.96086 18 9.46957 18 10C18 11 17.105 11 16 11Z" fill="currentColor"/>
</g>
<defs>
<clipPath id="clip0_406_2193">
<rect width="24" height="24" fill="white"/>
</clipPath>
</defs>
</svg>
