<svg width="24" height="24" viewBox="0 0 24 24" fill="none" xmlns="http://www.w3.org/2000/svg">
<g clip-path="url(#clip0_406_1875)">
<path d="M12 6C18.841 6 24 8.579 24 12C24 8.8174 22.7357 5.76515 20.4853 3.51472C18.2348 1.26428 15.1826 0 12 0C8.8174 0 5.76515 1.26428 3.51472 3.51472C1.26428 5.76515 0 8.8174 0 12C0 8.579 5.159 6 12 6Z" fill="currentColor"/>
<path d="M12.0001 16.0006C17.5229 16.0006 22.0001 14.2097 22.0001 12.0006C22.0001 9.79147 17.5229 8.00061 12.0001 8.00061C6.47721 8.00061 2.00006 9.79147 2.00006 12.0006C2.00006 14.2097 6.47721 16.0006 12.0001 16.0006Z" fill="currentColor"/>
<path d="M12 18C5.159 18 0 15.421 0 12C0 15.1826 1.26428 18.2348 3.51472 20.4853C5.76515 22.7357 8.8174 24 12 24C15.1826 24 18.2348 22.7357 20.4853 20.4853C22.7357 18.2348 24 15.1826 24 12C24 15.421 18.841 18 12 18Z" fill="currentColor"/>
</g>
<defs>
<clipPath id="clip0_406_1875">
<rect width="24" height="24" fill="white"/>
</clipPath>
</defs>
</svg>
