<svg width="24" height="24" viewBox="0 0 24 24" fill="none" xmlns="http://www.w3.org/2000/svg">
<g clip-path="url(#clip0_406_1919)">
<path d="M19 1.00031H5C3.67441 1.00189 2.40356 1.52919 1.46622 2.46653C0.528882 3.40386 0.00158786 4.67471 0 6.00031L0 14.0003C0.00158786 15.3259 0.528882 16.5967 1.46622 17.5341C2.40356 18.4714 3.67441 18.9987 5 19.0003H11V21.0003H7C6.73478 21.0003 6.48043 21.1057 6.29289 21.2932C6.10536 21.4807 6 21.7351 6 22.0003C6 22.2655 6.10536 22.5199 6.29289 22.7074C6.48043 22.8949 6.73478 23.0003 7 23.0003H17C17.2652 23.0003 17.5196 22.8949 17.7071 22.7074C17.8946 22.5199 18 22.2655 18 22.0003C18 21.7351 17.8946 21.4807 17.7071 21.2932C17.5196 21.1057 17.2652 21.0003 17 21.0003H13V19.0003H19C20.3256 18.9987 21.5964 18.4714 22.5338 17.5341C23.4711 16.5967 23.9984 15.3259 24 14.0003V6.00031C23.9984 4.67471 23.4711 3.40386 22.5338 2.46653C21.5964 1.52919 20.3256 1.00189 19 1.00031ZM19 11.0003H16.035L14.335 13.5553C14.2434 13.6926 14.1192 13.8052 13.9735 13.8828C13.8278 13.9605 13.6651 14.0008 13.5 14.0003C13.479 14.0003 13.458 14.0003 13.438 14.0003C13.263 13.9895 13.094 13.933 12.9478 13.8362C12.8016 13.7395 12.6834 13.6061 12.605 13.4493L10.376 8.98831L9.332 10.5553C9.24065 10.6922 9.11692 10.8045 8.97178 10.8821C8.82665 10.9597 8.66459 11.0003 8.5 11.0003H5C4.73478 11.0003 4.48043 10.8949 4.29289 10.7074C4.10536 10.5199 4 10.2655 4 10.0003C4 9.73509 4.10536 9.48073 4.29289 9.2932C4.48043 9.10566 4.73478 9.00031 5 9.00031H7.965L9.665 6.44531C9.76123 6.29787 9.89516 6.17886 10.0529 6.10061C10.2106 6.02236 10.3864 5.98773 10.562 6.00031C10.737 6.01108 10.906 6.06766 11.0522 6.16437C11.1984 6.26107 11.3166 6.39451 11.395 6.55131L13.624 11.0103L14.668 9.44331C14.7596 9.30676 14.8834 9.1949 15.0285 9.11763C15.1737 9.04036 15.3356 9.00006 15.5 9.00031H19C19.2652 9.00031 19.5196 9.10566 19.7071 9.2932C19.8946 9.48073 20 9.73509 20 10.0003C20 10.2655 19.8946 10.5199 19.7071 10.7074C19.5196 10.8949 19.2652 11.0003 19 11.0003Z" fill="currentColor"/>
</g>
<defs>
<clipPath id="clip0_406_1919">
<rect width="24" height="24" fill="white"/>
</clipPath>
</defs>
</svg>
