<svg width="24" height="24" viewBox="0 0 24 24" fill="none" xmlns="http://www.w3.org/2000/svg">
<path d="M6.07904 22.5C6.07939 22.1023 6.23766 21.7211 6.51904 21.44L14.191 13.768C14.4233 13.5359 14.6075 13.2602 14.7331 12.9569C14.8588 12.6535 14.9235 12.3284 14.9235 12C14.9235 11.6717 14.8588 11.3465 14.7331 11.0432C14.6075 10.7398 14.4233 10.4642 14.191 10.232L6.52904 2.56502C6.2558 2.28211 6.10461 1.90321 6.10803 1.50992C6.11145 1.11662 6.2692 0.740401 6.54731 0.462289C6.82542 0.184177 7.20164 0.0264236 7.59494 0.0230059C7.98823 0.0195883 8.36714 0.17078 8.65004 0.444017L16.312 8.10502C17.3423 9.13728 17.9209 10.5361 17.9209 11.9945C17.9209 13.4529 17.3423 14.8518 16.312 15.884L8.64004 23.556C8.43056 23.7656 8.16368 23.9085 7.87309 23.9666C7.58249 24.0247 7.2812 23.9954 7.00723 23.8824C6.73326 23.7695 6.49889 23.5779 6.3337 23.3319C6.16851 23.0858 6.07989 22.7964 6.07904 22.5Z" fill="currentColor"/>
</svg>
