<svg width="24" height="24" viewBox="0 0 24 24" fill="none" xmlns="http://www.w3.org/2000/svg">
<path d="M19.7831 12.079C19.6191 11.493 19.4341 10.873 19.2281 10.206C18.618 8.52422 18.2059 6.77712 18.0001 5C18.0001 4.73478 18.1054 4.48043 18.2929 4.29289C18.4805 4.10536 18.7348 4 19.0001 4C19.2653 4 19.5196 4.10536 19.7072 4.29289C19.8947 4.48043 20.0001 4.73478 20.0001 5C20.0001 5.26522 20.1054 5.51957 20.2929 5.70711C20.4805 5.89464 20.7348 6 21.0001 6C21.2653 6 21.5196 5.89464 21.7072 5.70711C21.8947 5.51957 22.0001 5.26522 22.0001 5C22.0001 4.20435 21.684 3.44129 21.1214 2.87868C20.5588 2.31607 19.7957 2 19.0001 2C18.2044 2 17.4413 2.31607 16.8787 2.87868C16.3161 3.44129 16.0001 4.20435 16.0001 5C16.0248 5.7636 16.1318 6.52231 16.3191 7.263L11.5191 11L5.97105 7H9.00005C9.26527 7 9.51962 6.89464 9.70716 6.70711C9.8947 6.51957 10.0001 6.26522 10.0001 6C10.0001 5.73478 9.8947 5.48043 9.70716 5.29289C9.51962 5.10536 9.26527 5 9.00005 5H5.97105C5.55562 4.99987 5.15079 5.13115 4.81449 5.37505C4.47818 5.61894 4.22764 5.96296 4.0987 6.35788C3.96976 6.75279 3.96903 7.17838 4.09662 7.57373C4.22421 7.96909 4.47358 8.31396 4.80905 8.559L9.88005 12.271L8.44205 13.39C7.54884 12.549 6.37536 12.0694 5.14882 12.044C3.92228 12.0185 2.72992 12.4491 1.80262 13.2523C0.875313 14.0555 0.279022 15.1743 0.129198 16.3919C-0.0206271 17.6095 0.286672 18.8394 0.991598 19.8435C1.69652 20.8475 2.74893 21.5543 3.94505 21.827C5.14117 22.0997 6.39592 21.9188 7.46636 21.3195C8.5368 20.7201 9.34677 19.7449 9.73947 18.5826C10.1322 17.4204 10.0796 16.1538 9.59205 15.028L16.8811 9.359C17.0221 9.835 17.6081 11.743 17.7371 12.182C16.5418 12.4941 15.5046 13.2381 14.8259 14.2703C14.1472 15.3025 13.8751 16.5497 14.0623 17.7708C14.2495 18.9918 14.8827 20.1002 15.8394 20.8817C16.7961 21.6632 18.0086 22.0624 19.2425 22.0021C20.4763 21.9418 21.6441 21.4263 22.52 20.5552C23.396 19.6841 23.918 18.5193 23.9853 17.2858C24.0525 16.0522 23.6601 14.8376 22.884 13.8765C22.1079 12.9154 21.0031 12.276 19.7831 12.082V12.079Z" fill="currentColor"/>
</svg>
