<svg width="24" height="24" viewBox="0 0 24 24" fill="none" xmlns="http://www.w3.org/2000/svg">
<g clip-path="url(#clip0_406_1836)">
<path d="M12 0C9.62663 0 7.30655 0.703788 5.33316 2.02236C3.35977 3.34094 1.8217 5.21509 0.913451 7.4078C0.00519943 9.60051 -0.232441 12.0133 0.230582 14.3411C0.693605 16.6689 1.83649 18.8071 3.51472 20.4853C5.19295 22.1635 7.33115 23.3064 9.65892 23.7694C11.9867 24.2324 14.3995 23.9948 16.5922 23.0866C18.7849 22.1783 20.6591 20.6402 21.9776 18.6668C23.2962 16.6935 24 14.3734 24 12C23.9966 8.81846 22.7312 5.76821 20.4815 3.51852C18.2318 1.26883 15.1815 0.00344108 12 0V0ZM12 14C11.5601 14.0015 11.1321 13.8575 10.7825 13.5904C10.433 13.3233 10.1816 12.9481 10.0675 12.5233C9.95341 12.0984 9.98298 11.6478 10.1516 11.2415C10.3203 10.8352 10.6186 10.4961 11 10.277V7C11 6.73478 11.1054 6.48043 11.2929 6.29289C11.4804 6.10536 11.7348 6 12 6C12.2652 6 12.5196 6.10536 12.7071 6.29289C12.8946 6.48043 13 6.73478 13 7V10.277C13.3814 10.4961 13.6797 10.8352 13.8484 11.2415C14.017 11.6478 14.0466 12.0984 13.9325 12.5233C13.8184 12.9481 13.567 13.3233 13.2175 13.5904C12.8679 13.8575 12.4399 14.0015 12 14Z" fill="currentColor"/>
</g>
<defs>
<clipPath id="clip0_406_1836">
<rect width="24" height="24" fill="white"/>
</clipPath>
</defs>
</svg>
