<svg width="24" height="24" viewBox="0 0 24 24" fill="none" xmlns="http://www.w3.org/2000/svg">
<g clip-path="url(#clip0_406_2073)">
<path d="M20.6782 7.39277C19.7622 8.30877 19.9712 10.2308 20.7032 11.5598C20.9826 12.0867 21.0635 12.6964 20.9312 13.2779C20.7989 13.8594 20.4622 14.3741 19.9824 14.7283C19.5026 15.0825 18.9116 15.2527 18.3169 15.2078C17.7222 15.1629 17.1634 14.906 16.7422 14.4838L9.51615 7.25777C9.09645 6.83601 8.84172 6.27787 8.79812 5.68447C8.75452 5.09107 8.92493 4.50169 9.27848 4.02312C9.63202 3.54455 10.1453 3.20846 10.7253 3.07576C11.3053 2.94306 11.9137 3.02253 12.4402 3.29976C13.7692 4.03077 15.6912 4.24077 16.6072 3.32476L19.0862 0.842765C19.6344 0.319077 20.3635 0.0268555 21.1217 0.0268555C21.8799 0.0268555 22.6089 0.319077 23.1572 0.842765C23.4249 1.11024 23.6373 1.42785 23.7822 1.77746C23.9271 2.12707 24.0017 2.50181 24.0017 2.88026C24.0017 3.25872 23.9271 3.63346 23.7822 3.98307C23.6373 4.33268 23.4249 4.65029 23.1572 4.91777L20.6782 7.39277ZM1.96915 17.3468C1.4762 17.8443 1.15393 18.4855 1.04879 19.1779C0.943659 19.8704 1.06109 20.5783 1.38415 21.1998L0.293153 22.2928C0.105682 22.4803 0.000366211 22.7346 0.000366211 22.9998C0.000366211 23.2649 0.105682 23.5192 0.293153 23.7068C0.48068 23.8942 0.734989 23.9996 1.00015 23.9996C1.26532 23.9996 1.51963 23.8942 1.70715 23.7068L2.80015 22.6158C3.42022 22.9459 4.13026 23.0673 4.82477 22.9617C5.51929 22.8561 6.16121 22.5293 6.65515 22.0298L14.0552 14.6298L9.37315 9.94377L1.96915 17.3468Z" fill="currentColor"/>
</g>
<defs>
<clipPath id="clip0_406_2073">
<rect width="24" height="24" fill="white"/>
</clipPath>
</defs>
</svg>
