<svg width="24" height="24" viewBox="0 0 24 24" fill="none" xmlns="http://www.w3.org/2000/svg">
<g clip-path="url(#clip0_406_2263)">
<path d="M7.00003 23.8938C6.82211 23.8636 6.64613 23.8228 6.47303 23.7718L3.60403 22.8718C2.56654 22.567 1.65542 21.9349 1.00662 21.0699C0.35782 20.2048 0.00612992 19.1531 0.00402832 18.0718V5.9998C0.00506815 5.17784 0.20873 4.36882 0.596987 3.64434C0.985244 2.91986 1.54612 2.30227 2.22997 1.84624C2.91382 1.39021 3.69954 1.1098 4.5176 1.02984C5.33566 0.949874 6.16082 1.07282 6.92003 1.3878L7.00003 1.4248V23.8938ZM20.68 1.1668L20.659 1.1598L17.944 0.259795C17.6369 0.160176 17.3207 0.0908456 17 0.0527954V22.3148L19.054 22.9068C19.6426 23.0501 20.256 23.0578 20.8479 22.9294C21.4399 22.801 21.995 22.5398 22.4713 22.1656C22.9476 21.7914 23.3327 21.3139 23.5975 20.7691C23.8623 20.2243 23.9999 19.6265 24 19.0208V5.8758C23.9985 4.84463 23.6789 3.83906 23.0847 2.99629C22.4905 2.15353 21.6508 1.51463 20.68 1.1668ZM15 0.189795C15 0.189795 9.15703 1.8628 9.00003 1.8798V23.8798C9.10003 23.8588 15 22.2438 15 22.2438V0.189795Z" fill="currentColor"/>
</g>
<defs>
<clipPath id="clip0_406_2263">
<rect width="24" height="24" fill="white"/>
</clipPath>
</defs>
</svg>
