<svg width="24" height="24" viewBox="0 0 24 24" fill="none" xmlns="http://www.w3.org/2000/svg">
<g clip-path="url(#clip0_406_1917)">
<path d="M8 4.00031H4C2.93913 4.00031 1.92172 4.42173 1.17157 5.17188C0.421427 5.92202 0 6.93944 0 8.00031L0 12.0003C0 12.5307 0.210714 13.0394 0.585786 13.4145C0.960859 13.7896 1.46957 14.0003 2 14.0003H7.91C7.67273 15.3968 6.94948 16.6646 5.86803 17.5795C4.78658 18.4944 3.41655 18.9977 2 19.0003C1.73478 19.0003 1.48043 19.1057 1.29289 19.2932C1.10536 19.4807 1 19.7351 1 20.0003C1 20.2655 1.10536 20.5199 1.29289 20.7074C1.48043 20.8949 1.73478 21.0003 2 21.0003C4.121 20.9979 6.15445 20.1543 7.65422 18.6545C9.154 17.1548 9.99762 15.1213 10 13.0003V6.00031C10 5.46987 9.78929 4.96116 9.41421 4.58609C9.03914 4.21102 8.53043 4.00031 8 4.00031Z" fill="currentColor"/>
<path d="M21.9999 4.00031H17.9999C16.939 4.00031 15.9216 4.42173 15.1714 5.17188C14.4213 5.92202 13.9999 6.93944 13.9999 8.00031V12.0003C13.9999 12.5307 14.2106 13.0394 14.5857 13.4145C14.9607 13.7896 15.4694 14.0003 15.9999 14.0003H21.9099C21.6726 15.3968 20.9493 16.6646 19.8679 17.5795C18.7864 18.4944 17.4164 18.9977 15.9999 19.0003C15.7347 19.0003 15.4803 19.1057 15.2928 19.2932C15.1052 19.4807 14.9999 19.7351 14.9999 20.0003C14.9999 20.2655 15.1052 20.5199 15.2928 20.7074C15.4803 20.8949 15.7347 21.0003 15.9999 21.0003C18.1209 20.9979 20.1543 20.1543 21.6541 18.6545C23.1538 17.1548 23.9975 15.1213 23.9998 13.0003V6.00031C23.9998 5.46987 23.7891 4.96116 23.4141 4.58609C23.039 4.21102 22.5303 4.00031 21.9999 4.00031Z" fill="currentColor"/>
</g>
<defs>
<clipPath id="clip0_406_1917">
<rect width="24" height="24" fill="white"/>
</clipPath>
</defs>
</svg>
