<svg width="24" height="24" viewBox="0 0 24 24" fill="none" xmlns="http://www.w3.org/2000/svg">
<g clip-path="url(#clip0_406_1967)">
<path d="M1 6H23C23.2652 6 23.5196 5.89464 23.7071 5.7071C23.8946 5.51957 24 5.26521 24 5C24 4.73478 23.8946 4.48043 23.7071 4.29289C23.5196 4.10536 23.2652 4 23 4H1C0.734784 4 0.48043 4.10536 0.292893 4.29289C0.105357 4.48043 0 4.73478 0 5C0 5.26521 0.105357 5.51957 0.292893 5.7071C0.48043 5.89464 0.734784 6 1 6Z" fill="currentColor"/>
<path d="M5.00012 9C4.73491 9 4.48055 9.10536 4.29302 9.29289C4.10548 9.48043 4.00012 9.73478 4.00012 10C4.00012 10.2652 4.10548 10.5196 4.29302 10.7071C4.48055 10.8946 4.73491 11 5.00012 11H19.0001C19.2653 11 19.5197 10.8946 19.7072 10.7071C19.8948 10.5196 20.0001 10.2652 20.0001 10C20.0001 9.73478 19.8948 9.48043 19.7072 9.29289C19.5197 9.10536 19.2653 9 19.0001 9H5.00012Z" fill="currentColor"/>
<path d="M19.0001 19H5.00012C4.73491 19 4.48055 19.1054 4.29302 19.2929C4.10548 19.4804 4.00012 19.7348 4.00012 20C4.00012 20.2652 4.10548 20.5196 4.29302 20.7071C4.48055 20.8947 4.73491 21 5.00012 21H19.0001C19.2653 21 19.5197 20.8947 19.7072 20.7071C19.8948 20.5196 20.0001 20.2652 20.0001 20C20.0001 19.7348 19.8948 19.4804 19.7072 19.2929C19.5197 19.1054 19.2653 19 19.0001 19Z" fill="currentColor"/>
<path d="M23 14H1C0.734784 14 0.48043 14.1054 0.292893 14.2929C0.105357 14.4804 0 14.7348 0 15C0 15.2652 0.105357 15.5196 0.292893 15.7071C0.48043 15.8947 0.734784 16 1 16H23C23.2652 16 23.5196 15.8947 23.7071 15.7071C23.8946 15.5196 24 15.2652 24 15C24 14.7348 23.8946 14.4804 23.7071 14.2929C23.5196 14.1054 23.2652 14 23 14Z" fill="currentColor"/>
</g>
<defs>
<clipPath id="clip0_406_1967">
<rect width="24" height="24" fill="white"/>
</clipPath>
</defs>
</svg>
