<svg width="24" height="24" viewBox="0 0 24 24" fill="none" xmlns="http://www.w3.org/2000/svg">
<g clip-path="url(#clip0_406_2110)">
<path d="M22.959 12C22.4532 11.9934 22.0251 12.3721 21.97 12.875C21.5032 18.3947 16.6501 22.4909 11.1304 22.024C5.61066 21.5572 1.51453 16.7041 1.98141 11.1844C2.44828 5.66466 7.3013 1.56853 12.821 2.03536C15.2108 2.23748 17.4491 3.28927 19.13 4.99997H16.008C15.4557 4.99997 15.008 5.44767 15.008 5.99995C15.008 6.55223 15.4557 6.99994 16.008 6.99994H20.151C21.1763 6.99937 22.0074 6.16828 22.008 5.14294V0.999984C22.008 0.447703 21.5603 0 21.008 0C20.4557 0 20.008 0.447703 20.008 0.999984V3.078C15.0723 -1.33242 7.49578 -0.906609 3.08536 4.02909C-1.32506 8.9648 -0.899249 16.5413 4.03645 20.9517C8.97216 25.3621 16.5487 24.9363 20.9591 20.0006C22.6735 18.082 23.725 15.6625 23.958 13.1C24.0094 12.5462 23.6021 12.0556 23.0483 12.0043C23.0186 12.0015 22.9889 12.0001 22.959 12Z" fill="currentColor"/>
</g>
<defs>
<clipPath id="clip0_406_2110">
<rect width="24" height="24" fill="white"/>
</clipPath>
</defs>
</svg>
