<svg width="24" height="24" viewBox="0 0 24 24" fill="none" xmlns="http://www.w3.org/2000/svg">
<g clip-path="url(#clip0_406_1958)">
<path d="M3.99987 22.0002C3.60562 22.0012 3.21508 21.9241 2.85084 21.7732C2.48661 21.6223 2.1559 21.4007 1.87787 21.1212L0.333868 19.7472C0.135751 19.5705 0.0159167 19.3224 0.000726292 19.0575C-0.0144642 18.7925 0.076234 18.5323 0.252868 18.3342C0.429502 18.1361 0.677604 18.0162 0.942593 18.001C1.20758 17.9858 1.46775 18.0765 1.66587 18.2532L3.25087 19.6672C3.3416 19.7691 3.45223 19.8513 3.57595 19.9089C3.69966 19.9664 3.83384 19.998 3.97023 20.0018C4.10661 20.0055 4.24233 19.9813 4.36901 19.9307C4.4957 19.88 4.61067 19.8039 4.70687 19.7072L8.30687 16.2762C8.4009 16.1805 8.51321 16.1048 8.63711 16.0535C8.76101 16.0021 8.89397 15.9762 9.02808 15.9773C9.1622 15.9784 9.29472 16.0065 9.41777 16.0598C9.54081 16.1132 9.65187 16.1907 9.74433 16.2879C9.83678 16.3851 9.90875 16.4998 9.95595 16.6254C10.0032 16.7509 10.0246 16.8846 10.0191 17.0186C10.0135 17.1526 9.98108 17.2842 9.92366 17.4054C9.86625 17.5266 9.78504 17.635 9.68487 17.7242L6.09987 21.1382C5.82364 21.4128 5.49599 21.6303 5.13566 21.7782C4.77533 21.9261 4.38937 22.0015 3.99987 22.0002ZM22.9999 21.0002H12.9999C12.7347 21.0002 12.4803 20.8948 12.2928 20.7073C12.1052 20.5197 11.9999 20.2654 11.9999 20.0002C11.9999 19.735 12.1052 19.4806 12.2928 19.2931C12.4803 19.1055 12.7347 19.0002 12.9999 19.0002H22.9999C23.2651 19.0002 23.5194 19.1055 23.707 19.2931C23.8945 19.4806 23.9999 19.735 23.9999 20.0002C23.9999 20.2654 23.8945 20.5197 23.707 20.7073C23.5194 20.8948 23.2651 21.0002 22.9999 21.0002ZM3.99987 14.0002C3.60562 14.0012 3.21508 13.9241 2.85084 13.7732C2.48661 13.6223 2.1559 13.4007 1.87787 13.1212L0.292868 11.5362C0.11071 11.3476 0.00991571 11.095 0.0121941 10.8328C0.0144726 10.5706 0.119641 10.3198 0.30505 10.1344C0.490458 9.94895 0.74127 9.84378 1.00347 9.8415C1.26566 9.83922 1.51827 9.94002 1.70687 10.1222L3.29287 11.7072C3.48324 11.8892 3.73648 11.9908 3.99987 11.9908C4.26326 11.9908 4.5165 11.8892 4.70687 11.7072L8.30687 8.27618C8.49889 8.09291 8.75584 7.99343 9.0212 7.99962C9.28657 8.00581 9.5386 8.11716 9.72187 8.30918C9.90513 8.50119 10.0046 8.75815 9.99842 9.02351C9.99224 9.28887 9.88089 9.54091 9.68887 9.72418L6.09987 13.1382C5.82364 13.4128 5.49599 13.6303 5.13566 13.7782C4.77533 13.9261 4.38937 14.0015 3.99987 14.0002ZM22.9999 13.0002H12.9999C12.7347 13.0002 12.4803 12.8948 12.2928 12.7073C12.1052 12.5197 11.9999 12.2654 11.9999 12.0002C11.9999 11.735 12.1052 11.4806 12.2928 11.2931C12.4803 11.1055 12.7347 11.0002 12.9999 11.0002H22.9999C23.2651 11.0002 23.5194 11.1055 23.707 11.2931C23.8945 11.4806 23.9999 11.735 23.9999 12.0002C23.9999 12.2654 23.8945 12.5197 23.707 12.7073C23.5194 12.8948 23.2651 13.0002 22.9999 13.0002ZM3.99987 6.00018C3.60562 6.00121 3.21508 5.92406 2.85084 5.77318C2.48661 5.6223 2.1559 5.40069 1.87787 5.12118L0.333868 3.74718C0.135751 3.57054 0.0159167 3.32244 0.000726292 3.05745C-0.0144642 2.79246 0.076234 2.53229 0.252868 2.33418C0.429502 2.13606 0.677604 2.01623 0.942593 2.00103C1.20758 1.98584 1.46775 2.07654 1.66587 2.25318L3.25087 3.66718C3.3416 3.76907 3.45223 3.85132 3.57595 3.90887C3.69966 3.96641 3.83384 3.99803 3.97023 4.00177C4.10661 4.00552 4.24233 3.98132 4.36901 3.93065C4.4957 3.87999 4.61067 3.80394 4.70687 3.70718L8.31087 0.276177C8.50466 0.103647 8.75793 0.0131959 9.01717 0.0239279C9.27642 0.0346599 9.52134 0.145735 9.70021 0.333692C9.87908 0.521649 9.97789 0.771771 9.97578 1.03123C9.97366 1.29069 9.87078 1.53916 9.68887 1.72418L6.09987 5.13818C5.82364 5.41279 5.49599 5.63027 5.13566 5.77818C4.77533 5.92609 4.38937 6.00153 3.99987 6.00018ZM22.9999 5.00018H12.9999C12.7347 5.00018 12.4803 4.89482 12.2928 4.70728C12.1052 4.51975 11.9999 4.26539 11.9999 4.00018C11.9999 3.73496 12.1052 3.48061 12.2928 3.29307C12.4803 3.10553 12.7347 3.00018 12.9999 3.00018H22.9999C23.2651 3.00018 23.5194 3.10553 23.707 3.29307C23.8945 3.48061 23.9999 3.73496 23.9999 4.00018C23.9999 4.26539 23.8945 4.51975 23.707 4.70728C23.5194 4.89482 23.2651 5.00018 22.9999 5.00018Z" fill="currentColor"/>
</g>
<defs>
<clipPath id="clip0_406_1958">
<rect width="24" height="24" fill="white"/>
</clipPath>
</defs>
</svg>
