<svg width="24" height="24" viewBox="0 0 24 24" fill="none" xmlns="http://www.w3.org/2000/svg">
<g clip-path="url(#clip0_406_2245)">
<path d="M0.0240479 11.5233C0.122315 8.9001 1.08213 6.38231 2.75505 4.35935L3.86105 7.95935C3.92344 8.16156 3.92007 8.37836 3.85143 8.57854C3.78278 8.77873 3.6524 8.95197 3.47905 9.07335L0.0240479 11.5233ZM11.414 2.81135C11.5847 2.93511 11.7902 3.00176 12.001 3.00176C12.2119 3.00176 12.4173 2.93511 12.588 2.81135L15.627 0.563347C13.2584 -0.190694 10.7136 -0.187198 8.34705 0.573347L11.414 2.81135ZM20.514 9.06735L23.971 11.5233C23.8728 8.9001 22.913 6.38231 21.24 4.35935L20.14 7.95335C20.0773 8.15526 20.0803 8.37184 20.1484 8.57199C20.2164 8.77215 20.3462 8.94557 20.519 9.06735H20.514ZM6.70005 18.6833C6.63473 18.483 6.5078 18.3084 6.33738 18.1845C6.16696 18.0606 5.96175 17.9937 5.75105 17.9933L1.61205 17.9863C3.0759 20.5172 5.40982 22.4296 8.17905 23.3673L6.70005 18.6833ZM18.241 17.9933C18.03 17.9942 17.8247 18.0618 17.6544 18.1864C17.4841 18.3111 17.3576 18.4864 17.293 18.6873L15.768 23.3873C18.558 22.4547 20.9107 20.5341 22.383 17.9873L18.241 17.9933ZM13.658 13.6543L14.389 11.4013C14.4217 11.301 14.4218 11.1929 14.3893 11.0925C14.3568 10.992 14.2934 10.9045 14.208 10.8423L12.294 9.45035C12.2086 9.38823 12.1057 9.35478 12 9.35478C11.8944 9.35478 11.7915 9.38823 11.706 9.45035L9.79005 10.8423C9.70436 10.9044 9.64057 10.9921 9.60787 11.0927C9.57517 11.1933 9.57523 11.3018 9.60805 11.4023L10.34 13.6543C10.3726 13.7548 10.436 13.8423 10.5214 13.9045C10.6067 13.9666 10.7095 14.0002 10.815 14.0003H13.185C13.2908 14.0004 13.3938 13.967 13.4793 13.9048C13.5649 13.8426 13.6285 13.7549 13.661 13.6543H13.658ZM13.5 23.9003C13.0027 23.9654 12.5017 23.9988 12 24.0003C11.4795 23.9967 10.9597 23.9589 10.444 23.8873L8.60805 18.0763C8.41532 17.472 8.03547 16.9445 7.52338 16.5701C7.01127 16.1956 6.39342 15.9937 5.75905 15.9933L0.694048 15.9843C0.452983 15.3 0.274911 14.5951 0.162048 13.8783L4.63405 10.7003C5.15235 10.3365 5.54181 9.81756 5.74632 9.21823C5.95082 8.6189 5.95983 7.97012 5.77205 7.36535L4.35605 2.75835C4.93478 2.27946 5.55718 1.85593 6.21505 1.49335L10.236 4.42735C10.7493 4.80141 11.368 5.00295 12.003 5.00295C12.6381 5.00295 13.2568 4.80141 13.77 4.42735L17.757 1.48135C18.4252 1.84794 19.0571 2.2772 19.644 2.76335L18.228 7.36435C18.0397 7.96895 18.0482 8.61773 18.2521 9.21724C18.4561 9.81674 18.8451 10.336 19.363 10.7003L23.838 13.8783C23.7253 14.5948 23.5472 15.2994 23.306 15.9833L18.239 15.9933C17.6055 15.994 16.9886 16.1957 16.4771 16.5695C15.9656 16.9433 15.586 17.4699 15.393 18.0733L13.5 23.9003ZM13.185 16.0003C13.7131 16.0004 14.2277 15.8332 14.6549 15.5228C15.082 15.2123 15.4 14.7746 15.563 14.2723L16.294 12.0193C16.4585 11.5174 16.4591 10.9761 16.2959 10.4738C16.1327 9.97138 15.8141 9.53386 15.386 9.22435L13.469 7.83235C13.0426 7.52092 12.5281 7.35309 12 7.35309C11.472 7.35309 10.9575 7.52092 10.531 7.83235L8.61405 9.22435C8.18511 9.53427 7.86593 9.97265 7.70269 10.476C7.53945 10.9794 7.54063 11.5217 7.70605 12.0243L8.43805 14.2773C8.60112 14.779 8.91906 15.2161 9.34617 15.5257C9.77327 15.8352 10.2875 16.0014 10.815 16.0003H13.185Z" fill="currentColor"/>
</g>
<defs>
<clipPath id="clip0_406_2245">
<rect width="24" height="24" fill="white"/>
</clipPath>
</defs>
</svg>
