<svg width="24" height="24" viewBox="0 0 24 24" fill="none" xmlns="http://www.w3.org/2000/svg">
<g clip-path="url(#clip0_406_2241)">
<path d="M4.043 8.071C4.5 0.566 8.706 0.026 8.9 0.006C8.9332 0.00219315 8.96658 0.000190203 9 0C9.86681 0.0344577 10.7053 0.318121 11.415 0.817C11.5863 0.937955 11.7908 1.0029 12.0005 1.0029C12.2102 1.0029 12.4147 0.937955 12.586 0.817C13.2953 0.318099 14.1335 0.034423 15 0C15.0351 4.88201e-06 15.0701 0.00200813 15.105 0.006C15.294 0.026 19.505 0.566 19.957 8.071C19.9672 8.22515 19.9286 8.37859 19.8465 8.50948C19.7645 8.64038 19.6432 8.74204 19.5 8.8C17.0977 9.66802 14.5532 10.0751 12 10C9.44679 10.075 6.90233 9.66793 4.5 8.8C4.3568 8.74204 4.23554 8.64038 4.15348 8.50948C4.07143 8.37859 4.03277 8.22515 4.043 8.071ZM22.693 9.989C22.5435 9.88415 22.3667 9.82502 22.1842 9.81881C22.0017 9.81259 21.8213 9.85956 21.665 9.954C20.564 10.6 17.538 12 12 12C6.462 12 3.437 10.6 2.335 9.954C2.1787 9.85956 1.99831 9.81259 1.8158 9.81881C1.63329 9.82502 1.45652 9.88415 1.307 9.989C0.945419 10.1967 0.638361 10.4873 0.411125 10.837C0.183889 11.1866 0.0429772 11.5852 0 12C0 15.69 6.194 16 12 16C17.806 16 24 15.69 24 12C23.957 11.5852 23.8161 11.1866 23.5889 10.837C23.3616 10.4873 23.0546 10.1967 22.693 9.989ZM16.5 17C15.806 17.0008 15.1279 17.2079 14.5519 17.595C13.9759 17.9821 13.5279 18.5317 13.265 19.174C12.4376 18.942 11.5624 18.942 10.735 19.174C10.4158 18.4 9.82922 17.7664 9.08215 17.3885C8.33508 17.0106 7.47714 16.9135 6.6645 17.1149C5.85187 17.3163 5.13856 17.8028 4.65442 18.4858C4.17028 19.1689 3.9475 20.003 4.02662 20.8365C4.10575 21.67 4.48152 22.4473 5.08554 23.0271C5.68956 23.6068 6.48167 23.9504 7.31768 23.9953C8.1537 24.0402 8.97804 23.7834 9.64065 23.2716C10.3033 22.7599 10.7601 22.0272 10.928 21.207C11.2724 21.0827 11.6341 21.0128 12 21C12.3659 21.0127 12.7276 21.0826 13.072 21.207C13.2057 21.8553 13.5205 22.4524 13.9799 22.929C14.4393 23.4056 15.0244 23.7421 15.6673 23.8996C16.3103 24.057 16.9847 24.0289 17.6123 23.8185C18.2399 23.6081 18.795 23.224 19.2131 22.7109C19.6313 22.1977 19.8953 21.5765 19.9746 20.9193C20.0539 20.2622 19.9453 19.596 19.6612 18.9981C19.3772 18.4002 18.9294 17.8951 18.3698 17.5414C17.8103 17.1878 17.1619 17 16.5 17Z" fill="currentColor"/>
</g>
<defs>
<clipPath id="clip0_406_2241">
<rect width="24" height="24" fill="white"/>
</clipPath>
</defs>
</svg>
