<svg width="24" height="24" viewBox="0 0 24 24" fill="none" xmlns="http://www.w3.org/2000/svg">
<g clip-path="url(#clip0_406_2301)">
<path d="M4.25909 2.84503C6.15957 1.23324 8.51663 0.256291 11.0001 0.0510254V1.35103C11.0676 3.7597 11.8624 6.09156 13.2801 8.04003C13.4263 8.25197 13.4927 8.50883 13.4677 8.76508C13.4426 9.02134 13.3276 9.26044 13.1431 9.44003L12.7761 9.80703C12.5699 10.0122 12.2909 10.1274 12.0001 10.1274C11.7092 10.1274 11.4302 10.0122 11.2241 9.80703L4.25909 2.84503ZM17.5901 7.82403C17.4726 7.94043 17.3829 8.08183 17.3276 8.23771C17.2723 8.39359 17.2528 8.55993 17.2707 8.72436C17.2886 8.88878 17.3433 9.04706 17.4308 9.18742C17.5183 9.32777 17.6363 9.44659 17.7761 9.53503C19.2624 10.4474 20.9627 10.9527 22.7061 11H23.9491C23.7438 8.51657 22.7669 6.15951 21.1551 4.25903L17.5901 7.82403ZM13.0001 0.0510254V1.32303C13.0508 3.05648 13.556 4.7462 14.4651 6.22303C14.5535 6.36262 14.6723 6.48049 14.8126 6.56788C14.9529 6.65526 15.111 6.70992 15.2753 6.72779C15.4396 6.74566 15.6058 6.72629 15.7616 6.6711C15.9173 6.61591 16.0587 6.52634 16.1751 6.40903L19.7411 2.84303C17.8404 1.23185 15.4834 0.255591 13.0001 0.0510254ZM14.5571 10.857L14.1901 11.224C13.9849 11.4302 13.8697 11.7092 13.8697 12C13.8697 12.2909 13.9849 12.5699 14.1901 12.776L21.1551 19.741C22.767 17.8406 23.744 15.4835 23.9491 13H22.6771C20.2591 12.9364 17.9172 12.1414 15.9601 10.72C15.7477 10.5734 15.4903 10.5067 15.2335 10.5318C14.9767 10.5569 14.7371 10.6721 14.5571 10.857ZM9.44309 13.143L9.81009 12.776C10.0153 12.5699 10.1305 12.2909 10.1305 12C10.1305 11.7092 10.0153 11.4302 9.81009 11.224L2.84509 4.25903C1.23318 6.15944 0.25622 8.51653 0.0510864 11H1.32309C3.74109 11.0635 6.08305 11.8585 8.04009 13.28C8.25243 13.4266 8.50983 13.4933 8.76665 13.4682C9.02347 13.4432 9.26311 13.3279 9.44309 13.143ZM11.2241 14.19L10.8571 14.557C10.6729 14.7368 10.5582 14.9759 10.5331 15.232C10.5081 15.4882 10.5743 15.7449 10.7201 15.957C12.1386 17.9058 12.9335 20.2386 13.0001 22.648V23.948C15.4836 23.7429 17.8407 22.7659 19.7411 21.154L12.7761 14.19C12.5699 13.9848 12.2909 13.8697 12.0001 13.8697C11.7092 13.8697 11.4302 13.9848 11.2241 14.19ZM11.0001 22.677C10.9494 20.9436 10.4442 19.2539 9.53509 17.777C9.44655 17.6375 9.32771 17.5197 9.1874 17.4324C9.04709 17.3451 8.88892 17.2906 8.72463 17.2728C8.56034 17.255 8.39416 17.2745 8.23843 17.3298C8.0827 17.385 7.94142 17.4747 7.82509 17.592L4.25909 21.155C6.1595 22.7669 8.51659 23.7439 11.0001 23.949V22.677ZM1.29409 13H0.0510864C0.256352 15.4835 1.2333 17.8405 2.84509 19.741L6.41009 16.176C6.52759 16.0596 6.61732 15.9182 6.67262 15.7623C6.72792 15.6065 6.74735 15.4401 6.72948 15.2757C6.7116 15.1113 6.65688 14.953 6.56938 14.8126C6.48188 14.6723 6.36385 14.5535 6.22409 14.465C4.73775 13.5526 3.03749 13.0474 1.29409 13Z" fill="currentColor"/>
</g>
<defs>
<clipPath id="clip0_406_2301">
<rect width="24" height="24" fill="white"/>
</clipPath>
</defs>
</svg>
