<svg width="24" height="24" viewBox="0 0 24 24" fill="none" xmlns="http://www.w3.org/2000/svg">
<g clip-path="url(#clip0_406_1968)">
<path d="M19 5.99963H13V2.99963C13 2.73442 12.8946 2.48006 12.7071 2.29253C12.5196 2.10499 12.2652 1.99963 12 1.99963C11.7348 1.99963 11.4804 2.10499 11.2929 2.29253C11.1054 2.48006 11 2.73442 11 2.99963V5.99963H5C3.67441 6.00122 2.40356 6.52852 1.46622 7.46585C0.528882 8.40319 0.00158786 9.67404 0 10.9996L0 14.9996C0.00158786 16.3252 0.528882 17.5961 1.46622 18.5334C2.40356 19.4708 3.67441 19.998 5 19.9996H19C20.3256 19.998 21.5964 19.4708 22.5338 18.5334C23.4711 17.5961 23.9984 16.3252 24 14.9996V10.9996C23.9984 9.67404 23.4711 8.40319 22.5338 7.46585C21.5964 6.52852 20.3256 6.00122 19 5.99963ZM10 9.99963H11C11.2652 9.99963 11.5196 10.105 11.7071 10.2925C11.8946 10.4801 12 10.7344 12 10.9996C12 11.2649 11.8946 11.5192 11.7071 11.7067C11.5196 11.8943 11.2652 11.9996 11 11.9996H10C9.73478 11.9996 9.48043 11.8943 9.29289 11.7067C9.10536 11.5192 9 11.2649 9 10.9996C9 10.7344 9.10536 10.4801 9.29289 10.2925C9.48043 10.105 9.73478 9.99963 10 9.99963ZM5 15.9996C4.80222 15.9996 4.60888 15.941 4.44443 15.8311C4.27998 15.7212 4.15181 15.565 4.07612 15.3823C4.00043 15.1996 3.98063 14.9985 4.01921 14.8045C4.0578 14.6106 4.15304 14.4324 4.29289 14.2925C4.43275 14.1527 4.61093 14.0574 4.80491 14.0188C4.99889 13.9803 5.19996 14.0001 5.38268 14.0758C5.56541 14.1514 5.72159 14.2796 5.83147 14.4441C5.94135 14.6085 6 14.8019 6 14.9996C6 15.2649 5.89464 15.5192 5.70711 15.7067C5.51957 15.8943 5.26522 15.9996 5 15.9996ZM6 11.9996H5C4.73478 11.9996 4.48043 11.8943 4.29289 11.7067C4.10536 11.5192 4 11.2649 4 10.9996C4 10.7344 4.10536 10.4801 4.29289 10.2925C4.48043 10.105 4.73478 9.99963 5 9.99963H6C6.26522 9.99963 6.51957 10.105 6.70711 10.2925C6.89464 10.4801 7 10.7344 7 10.9996C7 11.2649 6.89464 11.5192 6.70711 11.7067C6.51957 11.8943 6.26522 11.9996 6 11.9996ZM15 15.9996H9C8.73478 15.9996 8.48043 15.8943 8.29289 15.7067C8.10536 15.5192 8 15.2649 8 14.9996C8 14.7344 8.10536 14.4801 8.29289 14.2925C8.48043 14.105 8.73478 13.9996 9 13.9996H15C15.2652 13.9996 15.5196 14.105 15.7071 14.2925C15.8946 14.4801 16 14.7344 16 14.9996C16 15.2649 15.8946 15.5192 15.7071 15.7067C15.5196 15.8943 15.2652 15.9996 15 15.9996ZM19 15.9996C18.8022 15.9996 18.6089 15.941 18.4444 15.8311C18.28 15.7212 18.1518 15.565 18.0761 15.3823C18.0004 15.1996 17.9806 14.9985 18.0192 14.8045C18.0578 14.6106 18.153 14.4324 18.2929 14.2925C18.4327 14.1527 18.6109 14.0574 18.8049 14.0188C18.9989 13.9803 19.2 14.0001 19.3827 14.0758C19.5654 14.1514 19.7216 14.2796 19.8315 14.4441C19.9414 14.6085 20 14.8019 20 14.9996C20 15.2649 19.8946 15.5192 19.7071 15.7067C19.5196 15.8943 19.2652 15.9996 19 15.9996ZM19 11.9996H15C14.7348 11.9996 14.4804 11.8943 14.2929 11.7067C14.1054 11.5192 14 11.2649 14 10.9996C14 10.7344 14.1054 10.4801 14.2929 10.2925C14.4804 10.105 14.7348 9.99963 15 9.99963H19C19.2652 9.99963 19.5196 10.105 19.7071 10.2925C19.8946 10.4801 20 10.7344 20 10.9996C20 11.2649 19.8946 11.5192 19.7071 11.7067C19.5196 11.8943 19.2652 11.9996 19 11.9996Z" fill="currentColor"/>
</g>
<defs>
<clipPath id="clip0_406_1968">
<rect width="24" height="24" fill="white"/>
</clipPath>
</defs>
</svg>
