<svg width="24" height="24" viewBox="0 0 24 24" fill="none" xmlns="http://www.w3.org/2000/svg">
<g clip-path="url(#clip0_406_1974)">
<path d="M19 18H23.54C23.1909 18.9254 22.6485 19.7658 21.949 20.465L20.465 21.95C19.7653 22.6487 18.9251 23.1907 18 23.54V19C18 18.7348 18.1054 18.4804 18.2929 18.2929C18.4804 18.1054 18.7348 18 19 18ZM10.09 5.181H9.252L9.258 6.9H10.09C10.2053 6.90393 10.3203 6.88462 10.428 6.84319C10.5357 6.80177 10.634 6.73909 10.717 6.65889C10.8 6.57869 10.866 6.48261 10.911 6.37637C10.9561 6.27013 10.9793 6.15591 10.9793 6.0405C10.9793 5.9251 10.9561 5.81087 10.911 5.70463C10.866 5.59839 10.8 5.50231 10.717 5.42211C10.634 5.34191 10.5357 5.27923 10.428 5.23781C10.3203 5.19638 10.2053 5.17707 10.09 5.181ZM24 5V15.515C24 15.678 23.987 15.839 23.976 16H19C18.2044 16 17.4413 16.3161 16.8787 16.8787C16.3161 17.4413 16 18.2044 16 19V23.976C15.839 23.987 15.678 24 15.515 24H5C3.67441 23.9984 2.40356 23.4711 1.46622 22.5338C0.528882 21.5964 0.00158786 20.3256 0 19L0 5C0.00158786 3.67441 0.528882 2.40356 1.46622 1.46622C2.40356 0.528882 3.67441 0.00158786 5 0L19 0C20.3256 0.00158786 21.5964 0.528882 22.5338 1.46622C23.4711 2.40356 23.9984 3.67441 24 5ZM7 4.581C7 4.40861 6.93152 4.24328 6.80962 4.12138C6.68772 3.99948 6.52239 3.931 6.35 3.931C6.17761 3.931 6.01228 3.99948 5.89038 4.12138C5.76848 4.24328 5.7 4.40861 5.7 4.581V7.92C5.70134 8.02268 5.68215 8.12459 5.64356 8.21975C5.60497 8.31492 5.54776 8.40141 5.47529 8.47416C5.40282 8.54691 5.31655 8.60445 5.22153 8.64341C5.12652 8.68236 5.02468 8.70194 4.922 8.701C4.77706 8.69235 4.63702 8.64528 4.51629 8.56461C4.39556 8.48395 4.29847 8.3726 4.235 8.242C4.19725 8.16437 4.14444 8.09502 4.07964 8.03799C4.01484 7.98096 3.93935 7.93738 3.85755 7.9098C3.77575 7.88222 3.68929 7.87118 3.60318 7.87733C3.51708 7.88348 3.43306 7.90669 3.35601 7.94561C3.27896 7.98453 3.21042 8.03839 3.15438 8.10405C3.09834 8.16971 3.05592 8.24585 3.02958 8.32806C3.00324 8.41027 2.99352 8.49689 3.00097 8.58289C3.00843 8.66889 3.03291 8.75255 3.073 8.829C3.24449 9.17452 3.50745 9.4664 3.83329 9.67286C4.15912 9.87933 4.53533 9.99248 4.921 10C5.19304 10.0013 5.46267 9.94897 5.71446 9.84596C5.96624 9.74294 6.19524 9.59129 6.38835 9.39967C6.58146 9.20805 6.73488 8.98023 6.83983 8.72924C6.94479 8.47826 6.99921 8.20904 7 7.937V4.581ZM12.229 6.041C12.2248 5.47767 11.9971 4.93904 11.5961 4.54343C11.195 4.14781 10.6533 3.92754 10.09 3.931H9C8.73478 3.931 8.48043 4.03636 8.29289 4.22389C8.10536 4.41143 8 4.66578 8 4.931V9.375C8 9.54076 8.06585 9.69973 8.18306 9.81694C8.30027 9.93415 8.45924 10 8.625 10C8.79076 10 8.94973 9.93415 9.06694 9.81694C9.18415 9.69973 9.25 9.54076 9.25 9.375V8.154H10.09C10.3692 8.15571 10.646 8.10242 10.9046 7.99715C11.1632 7.89189 11.3985 7.73672 11.5971 7.54051C11.7958 7.3443 11.9538 7.11089 12.0622 6.8536C12.1706 6.59631 12.2273 6.32019 12.229 6.041ZM17 7.681C17 7.48209 16.921 7.29132 16.7803 7.15067C16.6397 7.01002 16.4489 6.931 16.25 6.931H15.5C15.3674 6.931 15.2402 6.98368 15.1464 7.07745C15.0527 7.17121 15 7.29839 15 7.431C15 7.56361 15.0527 7.69079 15.1464 7.78455C15.2402 7.87832 15.3674 7.931 15.5 7.931H15.749V8.015C15.7428 8.21039 15.6615 8.39587 15.522 8.53279C15.3825 8.66972 15.1955 8.74752 15 8.75C14.9013 8.75094 14.8034 8.73217 14.712 8.6948C14.6207 8.65743 14.5377 8.6022 14.4679 8.53236C14.3982 8.46251 14.3431 8.37945 14.3058 8.28804C14.2686 8.19663 14.2499 8.0987 14.251 8V5.932C14.2498 5.83321 14.2683 5.73518 14.3055 5.64365C14.3427 5.55212 14.3978 5.46895 14.4676 5.39899C14.5373 5.32904 14.6204 5.27373 14.7118 5.23629C14.8032 5.19886 14.9012 5.18006 15 5.181C15.1366 5.18516 15.2698 5.22524 15.386 5.29722C15.5022 5.3692 15.5974 5.47052 15.662 5.591C15.7152 5.69247 15.7949 5.77766 15.8926 5.83751C15.9903 5.89737 16.1024 5.92968 16.217 5.931C16.3252 5.93092 16.4315 5.90291 16.5256 5.84967C16.6198 5.79643 16.6986 5.71978 16.7544 5.62713C16.8103 5.53449 16.8412 5.429 16.8443 5.32088C16.8474 5.21275 16.8225 5.10567 16.772 5.01C16.6015 4.68704 16.3467 4.41629 16.0348 4.22648C15.7228 4.03668 15.3652 3.93492 15 3.932C14.7383 3.93082 14.4789 3.98124 14.2367 4.08039C13.9945 4.17954 13.7742 4.32548 13.5885 4.50984C13.4027 4.6942 13.2551 4.91338 13.1541 5.15484C13.0532 5.39629 13.0008 5.65528 13 5.917V8.017C13.001 8.27855 13.0536 8.53732 13.1547 8.77855C13.2558 9.01977 13.4034 9.23871 13.5892 9.42287C13.7749 9.60702 13.9951 9.75277 14.2372 9.8518C14.4792 9.95082 14.7385 10.0012 15 10C15.5277 10 16.034 9.7915 16.4086 9.41988C16.7832 9.04826 16.9958 8.54366 17 8.016V7.681Z" fill="currentColor"/>
</g>
<defs>
<clipPath id="clip0_406_1974">
<rect width="24" height="24" fill="white"/>
</clipPath>
</defs>
</svg>
