<svg width="24" height="24" viewBox="0 0 24 24" fill="none" xmlns="http://www.w3.org/2000/svg">
<g clip-path="url(#clip0_406_1842)">
<path d="M22.7072 22.7076C22.3172 23.0976 21.6832 23.0976 21.2932 22.7076L19.8792 21.2936L18.4642 22.7076C18.0802 23.1046 17.4472 23.1156 17.0502 22.7326C16.6532 22.3486 16.6422 21.7156 17.0252 21.3186C17.0332 21.3106 17.0412 21.3016 17.0502 21.2936L18.4642 19.8796L17.0502 18.4646C16.6532 18.0806 16.6422 17.4476 17.0252 17.0506C17.4092 16.6536 18.0422 16.6426 18.4392 17.0256C18.4472 17.0336 18.4562 17.0416 18.4642 17.0506L19.8792 18.4646L21.2932 17.0506C21.6772 16.6536 22.3102 16.6426 22.7072 17.0256C23.1042 17.4096 23.1152 18.0426 22.7322 18.4396C22.7242 18.4476 22.7162 18.4566 22.7072 18.4646L21.2932 19.8796L22.7072 21.2936C23.0992 21.6826 23.1042 22.3126 22.7152 22.7046C22.7132 22.7066 22.7122 22.7086 22.7072 22.7076Z" fill="currentColor"/>
<path d="M14.0351 20.0149C14.0311 16.7179 16.7001 14.0419 19.9961 14.0369C21.2791 14.0349 22.5291 14.4469 23.5591 15.2119C25.3321 8.82691 21.5931 2.21391 15.2091 0.440912C8.82511 -1.33209 2.21311 2.40591 0.440109 8.79091C-1.33289 15.1759 2.40611 21.7899 8.79011 23.5629C10.8901 24.1459 13.1091 24.1459 15.2091 23.5629C14.4471 22.5369 14.0351 21.2929 14.0351 20.0149ZM13.0001 12.0219C13.0001 12.2879 12.8941 12.5419 12.7061 12.7299L9.70111 15.7359C9.30311 16.1199 8.66911 16.1089 8.28511 15.7109C7.91011 15.3229 7.91011 14.7069 8.28511 14.3189L10.9971 11.6069V7.01291C10.9971 6.45991 11.4451 6.01091 11.9991 6.01091C12.5521 6.01091 13.0001 6.45991 13.0001 7.01291V12.0219Z" fill="currentColor"/>
</g>
<defs>
<clipPath id="clip0_406_1842">
<rect width="24" height="24" fill="white"/>
</clipPath>
</defs>
</svg>
