<svg width="24" height="24" viewBox="0 0 24 24" fill="none" xmlns="http://www.w3.org/2000/svg">
<g clip-path="url(#clip0_406_2101)">
<path d="M18.5 3C19.3284 3 20 2.32843 20 1.5C20 0.671573 19.3284 0 18.5 0C17.6716 0 17 0.671573 17 1.5C17 2.32843 17.6716 3 18.5 3Z" fill="currentColor"/>
<path d="M21.5 8.00001C22.3284 8.00001 23 7.32843 23 6.5C23 5.67157 22.3284 5 21.5 5C20.6716 5 20 5.67157 20 6.5C20 7.32843 20.6716 8.00001 21.5 8.00001Z" fill="currentColor"/>
<path d="M23.943 10.854C23.8973 10.3771 23.5199 9.9997 23.043 9.954C18.2779 9.49491 14.5065 5.72316 14.048 0.957984C14.0023 0.481125 13.6249 0.103688 13.148 0.0579844C12.769 0.021 12.387 0 12 0C5.37258 0 0 5.37258 0 12C0 18.6274 5.37258 24 12 24C18.6274 24 24 18.6274 24 12C24 11.613 23.979 11.231 23.943 10.854ZM14.5 16C13.6716 16 13 15.3284 13 14.5C13 13.6716 13.6716 13 14.5 13C15.3284 13 16 13.6716 16 14.5C16 15.3284 15.3284 16 14.5 16ZM9.50002 11C8.67159 11 8.00002 10.3284 8.00002 9.50002C8.00002 8.67159 8.67159 8.00002 9.50002 8.00002C10.3284 8.00002 11 8.67159 11 9.50002C11 10.3284 10.3284 11 9.50002 11ZM11 14.5C11 15.3284 10.3284 16 9.50002 16C8.67159 16 8.00002 15.3284 8.00002 14.5C8.00002 13.6716 8.67159 13 9.50002 13C10.3284 13 11 13.6716 11 14.5Z" fill="currentColor"/>
</g>
<defs>
<clipPath id="clip0_406_2101">
<rect width="24" height="24" fill="white"/>
</clipPath>
</defs>
</svg>
