<svg width="24" height="24" viewBox="0 0 24 24" fill="none" xmlns="http://www.w3.org/2000/svg">
<g clip-path="url(#clip0_406_1819)">
<path d="M11.9999 20C14.1209 19.9976 16.1544 19.154 17.6542 17.6542C19.1539 16.1544 19.9976 14.121 19.9999 12V1C19.9999 0.734784 19.8946 0.48043 19.707 0.292893C19.5195 0.105357 19.2652 0 18.9999 0C18.7347 0 18.4804 0.105357 18.2928 0.292893C18.1053 0.48043 17.9999 0.734784 17.9999 1V12C17.9999 13.5913 17.3678 15.1174 16.2426 16.2426C15.1174 17.3679 13.5912 18 11.9999 18C10.4086 18 8.88252 17.3679 7.7573 16.2426C6.63208 15.1174 5.99994 13.5913 5.99994 12V1C5.99994 0.734784 5.89458 0.48043 5.70705 0.292893C5.51951 0.105357 5.26516 0 4.99994 0C4.73472 0 4.48037 0.105357 4.29283 0.292893C4.1053 0.48043 3.99994 0.734784 3.99994 1V12C4.00232 14.121 4.84594 16.1544 6.34572 17.6542C7.84549 19.154 9.87894 19.9976 11.9999 20Z" fill="currentColor"/>
<path d="M23 21.9994H1C0.734784 21.9994 0.48043 22.1047 0.292893 22.2923C0.105357 22.4798 0 22.7342 0 22.9994C0 23.2646 0.105357 23.5189 0.292893 23.7065C0.48043 23.894 0.734784 23.9994 1 23.9994H23C23.2652 23.9994 23.5196 23.894 23.7071 23.7065C23.8946 23.5189 24 23.2646 24 22.9994C24 22.7342 23.8946 22.4798 23.7071 22.2923C23.5196 22.1047 23.2652 21.9994 23 21.9994Z" fill="currentColor"/>
</g>
<defs>
<clipPath id="clip0_406_1819">
<rect width="24" height="24" fill="white"/>
</clipPath>
</defs>
</svg>
