<svg width="24" height="24" viewBox="0 0 24 24" fill="none" xmlns="http://www.w3.org/2000/svg">
<g clip-path="url(#clip0_406_2175)">
<path d="M24 4.5001C24 4.76532 23.8946 5.01967 23.7071 5.20721C23.5195 5.39474 23.2652 5.5001 23 5.5001C22.7347 5.5001 22.4804 5.39474 22.2929 5.20721C22.1053 5.01967 22 4.76532 22 4.5001C21.9888 4.15056 21.907 3.80691 21.7594 3.48985C21.6119 3.17279 21.4017 2.88889 21.1414 2.65528C20.8812 2.42167 20.5763 2.24318 20.2452 2.13058C19.9141 2.01798 19.5637 1.97359 19.215 2.0001C18.9497 2.0001 18.6954 1.89474 18.5079 1.70721C18.3203 1.51967 18.215 1.26532 18.215 1.0001C18.215 0.734884 18.3203 0.48053 18.5079 0.292994C18.6954 0.105457 18.9497 0.000100327 19.215 0.000100327C19.8261 -0.024632 20.436 0.072762 21.0091 0.286584C21.5821 0.500407 22.1068 0.826364 22.5523 1.24538C22.9979 1.66441 23.3554 2.16808 23.604 2.72693C23.8526 3.28578 23.9872 3.8886 24 4.5001Z" fill="currentColor"/>
<path d="M2 4.5001C2.01115 4.15056 2.09296 3.80691 2.24052 3.48985C2.38807 3.17279 2.59831 2.88889 2.85855 2.65528C3.11879 2.42167 3.42365 2.24318 3.75474 2.13058C4.08583 2.01798 4.43629 1.97359 4.785 2.0001C5.05022 2.0001 5.30457 1.89474 5.49211 1.70721C5.67964 1.51967 5.785 1.26532 5.785 1.0001C5.785 0.734884 5.67964 0.48053 5.49211 0.292994C5.30457 0.105457 5.05022 0.000100327 4.785 0.000100327C4.17386 -0.024632 3.56393 0.072762 2.99088 0.286584C2.41784 0.500407 1.89319 0.826364 1.44763 1.24538C1.00207 1.66441 0.644547 2.16808 0.395981 2.72693C0.147415 3.28578 0.0127962 3.8886 0 4.5001C0 4.76532 0.105357 5.01967 0.292893 5.20721C0.48043 5.39474 0.734784 5.5001 1 5.5001C1.26522 5.5001 1.51957 5.39474 1.70711 5.20721C1.89464 5.01967 2 4.76532 2 4.5001Z" fill="currentColor"/>
<path d="M20.3191 20.176C21.6425 18.6482 22.5184 16.7847 22.8505 14.7908C23.1825 12.797 22.9577 10.7501 22.2009 8.87588C21.444 7.00161 20.1845 5.37264 18.5611 4.16842C16.9376 2.9642 15.0133 2.23149 13.0001 2.051V1C13.0001 0.734784 12.8947 0.48043 12.7072 0.292893C12.5196 0.105357 12.2653 0 12.0001 0C11.7348 0 11.4805 0.105357 11.2929 0.292893C11.1054 0.48043 11.0001 0.734784 11.0001 1V2.051C8.98682 2.23149 7.06248 2.9642 5.43904 4.16842C3.8156 5.37264 2.55608 7.00161 1.79924 8.87588C1.0424 10.7501 0.817611 12.797 1.14965 14.7908C1.48169 16.7847 2.35766 18.6482 3.68105 20.176C3.15842 20.4345 2.72168 20.8387 2.42344 21.3397C2.12519 21.8407 1.97816 22.4173 2.00005 23C2.00005 23.2652 2.10541 23.5196 2.29295 23.7071C2.48048 23.8946 2.73484 24 3.00005 24C3.26527 24 3.51962 23.8946 3.70716 23.7071C3.8947 23.5196 4.00005 23.2652 4.00005 23C3.99174 22.6918 4.1024 22.3922 4.30907 22.1633C4.51574 21.9345 4.80257 21.794 5.11005 21.771C5.17884 21.7579 5.24593 21.7371 5.31005 21.709C7.22559 23.1947 9.58089 24.001 12.0051 24.001C14.4292 24.001 16.7845 23.1947 18.7001 21.709C18.7586 21.736 18.8195 21.7574 18.8821 21.773C19.1906 21.794 19.4791 21.9334 19.6874 22.162C19.8957 22.3906 20.0077 22.6908 20.0001 23C20.0001 23.2652 20.1054 23.5196 20.2929 23.7071C20.4805 23.8946 20.7348 24 21.0001 24C21.2653 24 21.5196 23.8946 21.7072 23.7071C21.8947 23.5196 22.0001 23.2652 22.0001 23C22.0219 22.4173 21.8749 21.8407 21.5767 21.3397C21.2784 20.8387 20.8417 20.4345 20.3191 20.176ZM15.7071 15.707C15.5195 15.8945 15.2652 15.9998 15.0001 15.9998C14.7349 15.9998 14.4806 15.8945 14.2931 15.707L11.2931 12.707C11.1055 12.5195 11.0001 12.2652 11.0001 12V7C11.0001 6.73478 11.1054 6.48043 11.2929 6.29289C11.4805 6.10536 11.7348 6 12.0001 6C12.2653 6 12.5196 6.10536 12.7072 6.29289C12.8947 6.48043 13.0001 6.73478 13.0001 7V11.586L15.7071 14.293C15.8945 14.4805 15.9998 14.7348 15.9998 15C15.9998 15.2652 15.8945 15.5195 15.7071 15.707Z" fill="currentColor"/>
</g>
<defs>
<clipPath id="clip0_406_2175">
<rect width="24" height="24" fill="white"/>
</clipPath>
</defs>
</svg>
