<svg width="24" height="24" viewBox="0 0 24 24" fill="none" xmlns="http://www.w3.org/2000/svg">
<g clip-path="url(#clip0_406_2045)">
<path d="M21.9999 10C21.9551 11.9004 21.4823 13.7663 20.6167 15.4587C19.751 17.1512 18.5147 18.6265 16.9999 19.775V23C16.9999 23.2652 16.8945 23.5196 16.707 23.7071C16.5194 23.8946 16.2651 24 15.9999 24C15.7347 24 15.4803 23.8946 15.2928 23.7071C15.1052 23.5196 14.9999 23.2652 14.9999 23V2C14.9909 1.62426 15.0936 1.25431 15.2949 0.936929C15.4962 0.619551 15.7871 0.369011 16.1309 0.217C16.5257 0.0563652 16.9588 0.0142302 17.3772 0.0957442C17.7956 0.177258 18.1812 0.378891 18.4869 0.676C20.8062 3.22095 22.0633 6.5573 21.9999 10ZM10.9999 0C10.7347 0 10.4803 0.105357 10.2928 0.292893C10.1052 0.48043 9.99988 0.734784 9.99988 1V7C9.99731 7.61826 9.80379 8.22063 9.44579 8.7247C9.08779 9.22877 8.58279 9.60992 7.99988 9.816V1C7.99988 0.734784 7.89452 0.48043 7.70698 0.292893C7.51945 0.105357 7.26509 0 6.99988 0C6.73466 0 6.48031 0.105357 6.29277 0.292893C6.10524 0.48043 5.99988 0.734784 5.99988 1V9.816C5.41697 9.60992 4.91197 9.22877 4.55397 8.7247C4.19596 8.22063 4.00244 7.61826 3.99988 7V1C3.99988 0.734784 3.89452 0.48043 3.70698 0.292893C3.51945 0.105357 3.26509 0 2.99988 0C2.73466 0 2.48031 0.105357 2.29277 0.292893C2.10523 0.48043 1.99988 0.734784 1.99988 1V7C2.00133 8.1522 2.39997 9.26868 3.1286 10.1613C3.85722 11.0538 4.87129 11.6679 5.99988 11.9V23C5.99988 23.2652 6.10524 23.5196 6.29277 23.7071C6.48031 23.8946 6.73466 24 6.99988 24C7.26509 24 7.51945 23.8946 7.70698 23.7071C7.89452 23.5196 7.99988 23.2652 7.99988 23V11.9C9.12847 11.6679 10.1425 11.0538 10.8712 10.1613C11.5998 9.26868 11.9984 8.1522 11.9999 7V1C11.9999 0.734784 11.8945 0.48043 11.707 0.292893C11.5194 0.105357 11.2651 0 10.9999 0V0Z" fill="currentColor"/>
</g>
<defs>
<clipPath id="clip0_406_2045">
<rect width="24" height="24" fill="white"/>
</clipPath>
</defs>
</svg>
