<svg width="24" height="24" viewBox="0 0 24 24" fill="none" xmlns="http://www.w3.org/2000/svg">
<g clip-path="url(#clip0_406_2052)">
<path d="M13.9999 7V0.46C14.9249 0.809335 15.7652 1.35131 16.4649 2.05L19.9489 5.536C20.6484 6.23488 21.1908 7.07489 21.5399 8H14.9999C14.7347 8 14.4803 7.89464 14.2928 7.70711C14.1052 7.51957 13.9999 7.26522 13.9999 7ZM21.9999 10.485V19C21.9983 20.3256 21.471 21.5964 20.5337 22.5338C19.5963 23.4711 18.3255 23.9984 16.9999 24H6.99988C5.67428 23.9984 4.40344 23.4711 3.4661 22.5338C2.52876 21.5964 2.00147 20.3256 1.99988 19V5C2.00147 3.67441 2.52876 2.40356 3.4661 1.46622C4.40344 0.528882 5.67428 0.00158786 6.99988 0L11.5149 0C11.6779 0 11.8389 0.013 11.9999 0.024V7C11.9999 7.79565 12.3159 8.55871 12.8786 9.12132C13.4412 9.68393 14.2042 10 14.9999 10H21.9759C21.9869 10.161 21.9999 10.322 21.9999 10.485ZM16.7239 14.311C16.5411 14.1191 16.2896 14.0076 16.0246 14.0011C15.7597 13.9945 15.503 14.0934 15.3109 14.276L11.7109 17.707C11.6147 17.8038 11.4997 17.8798 11.373 17.9305C11.2463 17.9811 11.1106 18.0053 10.9742 18.0016C10.8378 17.9979 10.7037 17.9662 10.58 17.9087C10.4562 17.8511 10.3456 17.7689 10.2549 17.667L8.66588 16.253C8.56778 16.1655 8.45342 16.0983 8.32932 16.055C8.20522 16.0117 8.07381 15.9933 7.9426 16.0009C7.67761 16.016 7.42951 16.1359 7.25288 16.334C7.16542 16.4321 7.09814 16.5465 7.05487 16.6706C7.01161 16.7947 6.99321 16.9261 7.00074 17.0573C7.01593 17.3223 7.13576 17.5704 7.33388 17.747L8.87788 19.121C9.43755 19.6808 10.1958 19.9967 10.9874 19.9999C11.779 20.0031 12.5397 19.6933 13.1039 19.138L16.6889 15.724C16.8808 15.5412 16.9922 15.2897 16.9988 15.0247C17.0054 14.7598 16.9065 14.5031 16.7239 14.311Z" fill="currentColor"/>
</g>
<defs>
<clipPath id="clip0_406_2052">
<rect width="24" height="24" fill="white"/>
</clipPath>
</defs>
</svg>
