<svg width="24" height="24" viewBox="0 0 24 24" fill="none" xmlns="http://www.w3.org/2000/svg">
<g clip-path="url(#clip0_406_2062)">
<path d="M5.81995 19.3062C5.87395 19.3502 5.93595 19.3802 5.99095 19.4232L1.70695 23.7072C1.51835 23.8894 1.26575 23.9902 1.00355 23.9879C0.741351 23.9856 0.490539 23.8804 0.305131 23.695C0.119723 23.5096 0.0145538 23.2588 0.0122754 22.9966C0.00999693 22.7344 0.110791 22.4818 0.292949 22.2932L4.57795 18.0082C4.94085 18.487 5.35759 18.9226 5.81995 19.3062ZM9.99995 12.5862L16.2929 6.29322C16.3852 6.19771 16.4955 6.12153 16.6175 6.06912C16.7395 6.01671 16.8708 5.98912 17.0035 5.98797C17.1363 5.98681 17.268 6.01211 17.3909 6.0624C17.5138 6.11268 17.6255 6.18693 17.7193 6.28082C17.8132 6.37471 17.8875 6.48637 17.9378 6.60926C17.9881 6.73216 18.0134 6.86384 18.0122 6.99662C18.011 7.1294 17.9835 7.26062 17.9311 7.38262C17.8786 7.50463 17.8025 7.61497 17.707 7.70722L14.414 11.0002H21.6C22.5722 9.06137 23.3365 7.02502 23.8799 4.92522C24.0397 4.2589 24.0252 3.56269 23.838 2.90358C23.6507 2.24447 23.297 1.64466 22.8108 1.16186C22.3245 0.679067 21.7222 0.329547 21.0618 0.146939C20.4014 -0.0356678 19.7051 -0.0452147 19.04 0.119218C15.8374 0.970025 12.7874 2.31556 9.99995 4.10722V12.5862ZM12.5 13.0002C12.475 13.0002 12.453 12.9872 12.428 12.9862L5.99095 19.4232C7.30405 20.4485 8.92302 21.0037 10.589 21.0002C11.6932 20.996 12.7852 20.7683 13.7992 20.331C14.8131 19.8936 15.7281 19.2555 16.489 18.4552C18.048 16.8032 19.4054 14.9721 20.533 13.0002H12.5ZM7.99995 14.5002V5.50722C7.03242 6.23096 6.1156 7.02014 5.25595 7.86922C4.49755 8.63221 3.90614 9.5446 3.51931 10.5484C3.13247 11.5523 2.95867 12.6256 3.00895 13.7002C3.08058 15.2601 3.62812 16.7607 4.57795 18.0002L8.01395 14.5632C8.01295 14.5472 7.99995 14.5252 7.99995 14.5002Z" fill="currentColor"/>
</g>
<defs>
<clipPath id="clip0_406_2062">
<rect width="24" height="24" fill="white"/>
</clipPath>
</defs>
</svg>
