<svg width="24" height="24" viewBox="0 0 24 24" fill="none" xmlns="http://www.w3.org/2000/svg">
<g clip-path="url(#clip0_406_2026)">
<path d="M2 15H11V24H7C5.67392 24 4.40215 23.4732 3.46447 22.5355C2.52678 21.5979 2 20.3261 2 19V15ZM24 11C24 11.5304 23.7893 12.0391 23.4142 12.4142C23.0391 12.7893 22.5304 13 22 13H13V8.957C12.664 8.983 12.329 9 12 9C11.671 9 11.336 8.983 11 8.957V13H2C1.46957 13 0.960859 12.7893 0.585786 12.4142C0.210714 12.0391 0 11.5304 0 11C0 9.93913 0.421427 8.92172 1.17157 8.17157C1.92172 7.42143 2.93913 7 4 7H5.738C5.1726 6.5016 4.7238 5.88488 4.42344 5.1936C4.12307 4.50232 3.97851 3.75341 4 3C4 2.73478 4.10536 2.48043 4.29289 2.29289C4.48043 2.10536 4.73478 2 5 2C5.26522 2 5.51957 2.10536 5.70711 2.29289C5.89464 2.48043 6 2.73478 6 3C6 5.622 8.371 6.53 10.174 6.841C9.50852 5.66105 9.10791 4.35037 9 3C9 2.20435 9.31607 1.44129 9.87868 0.87868C10.4413 0.31607 11.2044 0 12 0C12.7956 0 13.5587 0.31607 14.1213 0.87868C14.6839 1.44129 15 2.20435 15 3C14.8921 4.35037 14.4915 5.66105 13.826 6.841C15.629 6.53 18 5.622 18 3C18 2.73478 18.1054 2.48043 18.2929 2.29289C18.4804 2.10536 18.7348 2 19 2C19.2652 2 19.5196 2.10536 19.7071 2.29289C19.8946 2.48043 20 2.73478 20 3C20.0215 3.75341 19.8769 4.50232 19.5766 5.1936C19.2762 5.88488 18.8274 6.5016 18.262 7H20C21.0609 7 22.0783 7.42143 22.8284 8.17157C23.5786 8.92172 24 9.93913 24 11ZM11 3C11.1207 4.06283 11.4613 5.08891 12 6.013C12.5387 5.08891 12.8793 4.06283 13 3C13 2.73478 12.8946 2.48043 12.7071 2.29289C12.5196 2.10536 12.2652 2 12 2C11.7348 2 11.4804 2.10536 11.2929 2.29289C11.1054 2.48043 11 2.73478 11 3ZM13 24H17C17.6566 24 18.3068 23.8707 18.9134 23.6194C19.52 23.3681 20.0712 22.9998 20.5355 22.5355C20.9998 22.0712 21.3681 21.52 21.6194 20.9134C21.8707 20.3068 22 19.6566 22 19V15H13V24Z" fill="currentColor"/>
</g>
<defs>
<clipPath id="clip0_406_2026">
<rect width="24" height="24" fill="white"/>
</clipPath>
</defs>
</svg>
