<svg width="24" height="24" viewBox="0 0 24 24" fill="none" xmlns="http://www.w3.org/2000/svg">
<g clip-path="url(#clip0_406_2274)">
<path d="M12.0001 9C12.0001 8.73478 12.1055 8.48043 12.293 8.29289C12.4806 8.10536 12.7349 8 13.0001 8C13.2653 8 13.5197 8.10536 13.7072 8.29289C13.8948 8.48043 14.0001 8.73478 14.0001 9C14.0001 9.26522 13.8948 9.51957 13.7072 9.70711C13.5197 9.89464 13.2653 10 13.0001 10C12.7349 10 12.4806 9.89464 12.293 9.70711C12.1055 9.51957 12.0001 9.26522 12.0001 9ZM23.0001 5V19C22.9985 20.3256 22.4712 21.5964 21.5339 22.5338C20.5966 23.4711 19.3257 23.9984 18.0001 24H8.00012C7.02836 23.9987 6.07802 23.7143 5.26533 23.1815C4.45265 22.6487 3.81283 21.8906 3.42412 21H2.00012C1.73491 21 1.48055 20.8946 1.29302 20.7071C1.10548 20.5196 1.00012 20.2652 1.00012 20C1.00012 19.7348 1.10548 19.4804 1.29302 19.2929C1.48055 19.1054 1.73491 19 2.00012 19H3.00012V17H2.00012C1.73491 17 1.48055 16.8946 1.29302 16.7071C1.10548 16.5196 1.00012 16.2652 1.00012 16C1.00012 15.7348 1.10548 15.4804 1.29302 15.2929C1.48055 15.1054 1.73491 15 2.00012 15H3.00012V13H2.00012C1.73491 13 1.48055 12.8946 1.29302 12.7071C1.10548 12.5196 1.00012 12.2652 1.00012 12C1.00012 11.7348 1.10548 11.4804 1.29302 11.2929C1.48055 11.1054 1.73491 11 2.00012 11H3.00012V9H2.00012C1.73491 9 1.48055 8.89464 1.29302 8.70711C1.10548 8.51957 1.00012 8.26522 1.00012 8C1.00012 7.73478 1.10548 7.48043 1.29302 7.29289C1.48055 7.10536 1.73491 7 2.00012 7H3.00012V5H2.00012C1.73491 5 1.48055 4.89464 1.29302 4.70711C1.10548 4.51957 1.00012 4.26522 1.00012 4C1.00012 3.73478 1.10548 3.48043 1.29302 3.29289C1.48055 3.10536 1.73491 3 2.00012 3H3.42412C3.81283 2.10936 4.45265 1.35129 5.26533 0.818499C6.07802 0.285705 7.02836 0.00127838 8.00012 0L18.0001 0C19.3257 0.00158786 20.5966 0.528882 21.5339 1.46622C22.4712 2.40356 22.9985 3.67441 23.0001 5ZM10.0001 9C10.0001 9.79565 10.3162 10.5587 10.8788 11.1213C11.4414 11.6839 12.2045 12 13.0001 12C13.7958 12 14.5588 11.6839 15.1214 11.1213C15.6841 10.5587 16.0001 9.79565 16.0001 9C16.0001 8.20435 15.6841 7.44129 15.1214 6.87868C14.5588 6.31607 13.7958 6 13.0001 6C12.2045 6 11.4414 6.31607 10.8788 6.87868C10.3162 7.44129 10.0001 8.20435 10.0001 9ZM18.0001 18C17.7891 11.392 8.20912 11.394 8.00012 18C8.00012 18.2652 8.10548 18.5196 8.29302 18.7071C8.48055 18.8946 8.73491 19 9.00012 19C9.26534 19 9.51969 18.8946 9.70723 18.7071C9.89476 18.5196 10.0001 18.2652 10.0001 18C10.0001 17.2044 10.3162 16.4413 10.8788 15.8787C11.4414 15.3161 12.2045 15 13.0001 15C13.7958 15 14.5588 15.3161 15.1214 15.8787C15.6841 16.4413 16.0001 17.2044 16.0001 18C16.0001 18.2652 16.1055 18.5196 16.293 18.7071C16.4806 18.8946 16.7349 19 17.0001 19C17.2653 19 17.5197 18.8946 17.7072 18.7071C17.8948 18.5196 18.0001 18.2652 18.0001 18Z" fill="currentColor"/>
</g>
<defs>
<clipPath id="clip0_406_2274">
<rect width="24" height="24" fill="white"/>
</clipPath>
</defs>
</svg>
