<svg width="24" height="24" viewBox="0 0 24 24" fill="none" xmlns="http://www.w3.org/2000/svg">
<g clip-path="url(#clip0_406_2149)">
<path d="M10 16.9999H7.329C6.93472 17.0012 6.54411 16.9241 6.17985 16.7733C5.81558 16.6224 5.4849 16.4006 5.207 16.1209L0.052 10.9659C0.023 11.3079 0 11.6509 0 11.9999C0.0043918 15.0072 1.13694 17.9034 3.17374 20.1159C5.21054 22.3285 8.00334 23.6963 11 23.9489V17.9999C11 17.7347 10.8946 17.4804 10.7071 17.2928C10.5196 17.1053 10.2652 16.9999 10 16.9999Z" fill="currentColor"/>
<path d="M20.436 3.47806L18.646 5.26806C18.1763 5.73515 17.5414 5.99817 16.879 6.00006H15.5C15.3674 6.00006 15.2402 6.05274 15.1464 6.1465C15.0527 6.24027 15 6.36745 15 6.50006V7.50006C15 8.1631 14.7366 8.79899 14.2678 9.26783C13.7989 9.73667 13.163 10.0001 12.5 10.0001C12.3674 10.0001 12.2402 10.0527 12.1464 10.1465C12.0527 10.2403 12 10.3675 12 10.5001V11.0001C12 11.2653 12.1054 11.5196 12.2929 11.7072C12.4804 11.8947 12.7348 12.0001 13 12.0001H16C16.7956 12.0001 17.5587 12.3161 18.1213 12.8787C18.6839 13.4413 19 14.2044 19 15.0001V15.9621C19 16.0944 19.0525 16.2214 19.146 16.3151L21.771 18.9411C23.4258 16.6267 24.2005 13.7979 23.9558 10.9633C23.7111 8.12875 22.463 5.47453 20.436 3.47806Z" fill="currentColor"/>
<path d="M16.9999 15.9628V15.0008C16.9999 14.7356 16.8946 14.4813 16.707 14.2937C16.5195 14.1062 16.2651 14.0008 15.9999 14.0008H12.9999C12.2043 14.0008 11.4412 13.6848 10.8786 13.1222C10.316 12.5596 9.99991 11.7965 9.99991 11.0008V10.5008C9.99991 9.8378 10.2633 9.20192 10.7321 8.73308C11.201 8.26424 11.8369 8.00084 12.4999 8.00084C12.6325 8.00084 12.7597 7.94816 12.8535 7.8544C12.9472 7.76063 12.9999 7.63345 12.9999 7.50084V6.50084C12.9999 5.8378 13.2633 5.20192 13.7321 4.73308C14.201 4.26424 14.8369 4.00084 15.4999 4.00084H16.8789C17.0111 4.00006 17.1378 3.94767 17.2319 3.85484L18.8929 2.19384C17.3378 1.09551 15.5433 0.383818 13.6581 0.117801C11.773 -0.148215 9.85157 0.0391161 8.05329 0.664253C6.25502 1.28939 4.63174 2.33431 3.3181 3.71233C2.00447 5.09035 1.03835 6.76174 0.499908 8.58784L6.61991 14.7078C6.71298 14.8009 6.82353 14.8748 6.94519 14.925C7.06686 14.9753 7.19726 15.0011 7.32891 15.0008H9.99991C10.7956 15.0008 11.5586 15.3169 12.1212 15.8795C12.6838 16.4421 12.9999 17.2052 12.9999 18.0008V23.9498C15.8266 23.7172 18.4787 22.4877 20.4829 20.4808L17.7319 17.7298C17.2648 17.2602 17.0018 16.6252 16.9999 15.9628Z" fill="currentColor"/>
</g>
<defs>
<clipPath id="clip0_406_2149">
<rect width="24" height="24" fill="white"/>
</clipPath>
</defs>
</svg>
