<svg width="24" height="24" viewBox="0 0 24 24" fill="none" xmlns="http://www.w3.org/2000/svg">
<g clip-path="url(#clip0_406_2206)">
<path d="M24.0001 13.5004C24.0001 13.8287 23.9355 14.1538 23.8098 14.4571C23.6842 14.7604 23.5 15.036 23.2679 15.2682C23.0357 15.5003 22.7601 15.6845 22.4568 15.8101C22.1535 15.9357 21.8284 16.0004 21.5001 16.0004H17.4641L13.2381 22.4874C12.978 22.9488 12.5994 23.3323 12.1414 23.5983C11.6835 23.8643 11.1627 24.0031 10.6331 24.0004C10.2082 24.0005 9.78955 23.8976 9.41308 23.7005C9.0366 23.5035 8.71352 23.218 8.47149 22.8688C8.22946 22.5195 8.07571 22.1167 8.02339 21.695C7.97108 21.2733 8.02177 20.8452 8.17112 20.4474L10.0191 16.0004H6.00012C5.295 16.0004 4.60239 15.8141 3.99248 15.4602C3.38257 15.1064 2.87704 14.5976 2.52712 13.9854L0.200124 10.1604C0.100694 9.99528 0.0353491 9.81193 0.00794571 9.62115C-0.0194577 9.43037 -0.008364 9.23603 0.0405719 9.04961C0.0895078 8.86318 0.175294 8.68845 0.292867 8.53573C0.410441 8.38301 0.557418 8.25538 0.725124 8.16039C0.991254 8.02086 1.29496 7.96986 1.59207 8.01483C1.88918 8.05979 2.1642 8.19836 2.37712 8.41039L3.79412 9.82839C4.54409 10.5786 5.56135 11.0002 6.62212 11.0004H21.5001C21.8284 11.0004 22.1535 11.0651 22.4568 11.1907C22.7601 11.3163 23.0357 11.5005 23.2679 11.7326C23.5 11.9648 23.6842 12.2404 23.8098 12.5437C23.9355 12.847 24.0001 13.1721 24.0001 13.5004ZM17.7311 9.00039L13.2311 1.51339C12.9714 1.0524 12.5932 0.669123 12.1358 0.403141C11.6784 0.137159 11.1583 -0.00187754 10.6291 0.000393595C10.2043 0.000509283 9.78576 0.103551 9.40942 0.300701C9.03307 0.497852 8.71009 0.783242 8.46811 1.13245C8.22613 1.48167 8.07235 1.8843 8.01993 2.30591C7.96752 2.72753 8.01802 3.15556 8.16712 3.55339L10.2851 9.00039H17.7311Z" fill="currentColor"/>
</g>
<defs>
<clipPath id="clip0_406_2206">
<rect width="24" height="24" fill="white"/>
</clipPath>
</defs>
</svg>
