<svg width="24" height="24" viewBox="0 0 24 24" fill="none" xmlns="http://www.w3.org/2000/svg">
<g clip-path="url(#clip0_406_2244)">
<path d="M2.44605 5.825C2.21796 5.23887 2.06801 4.62527 2.00005 4C2.00005 2.93913 2.42148 1.92172 3.17162 1.17157C3.92177 0.421427 4.93919 0 6.00005 0C7.06092 0 8.07833 0.421427 8.82848 1.17157C9.57862 1.92172 10.0001 2.93913 10.0001 4C9.9321 4.62527 9.78214 5.23887 9.55405 5.825C9.29962 6.53042 9.11409 7.25882 9.00005 8H3.00005C2.88601 7.25882 2.70048 6.53042 2.44605 5.825ZM9.51105 10H2.48905C2.27205 10.5 2.00905 11.012 1.73605 11.537C0.716438 13.1873 0.12012 15.0638 5.07953e-05 17C-0.018831 18.6199 0.31774 20.2243 0.986051 21.7C1.30913 22.3881 1.82159 22.9699 2.46343 23.3773C3.10526 23.7846 3.84987 24.0006 4.61005 24H7.39005C8.15023 24.0006 8.89485 23.7846 9.53668 23.3773C10.1785 22.9699 10.691 22.3881 11.0141 21.7C11.6824 20.2243 12.0189 18.6199 12.0001 17C11.88 15.0638 11.2837 13.1873 10.2641 11.537C9.99105 11.012 9.72805 10.5 9.51105 10ZM24.0001 16C23.999 17.3587 23.6522 18.6948 22.9922 19.8825C22.3322 21.0702 21.3808 22.0704 20.2276 22.7889C19.0744 23.5074 17.7573 23.9205 16.4003 23.9895C15.0434 24.0584 13.6912 23.7809 12.4711 23.183C12.6031 22.9765 12.7223 22.7621 12.8281 22.541C13.6196 20.8021 14.0197 18.9105 14.0001 17C13.8882 14.7416 13.2141 12.5469 12.0391 10.615C11.8301 10.215 11.6321 9.82 11.4541 9.434C12.652 8.59868 14.0561 8.10805 15.5135 8.01555C16.971 7.92304 18.4259 8.23221 19.7198 8.90938C21.0137 9.58654 22.097 10.6058 22.8517 11.856C23.6064 13.1063 24.0036 14.5396 24.0001 16ZM18.0001 15C18.0001 14.8022 17.9414 14.6089 17.8315 14.4444C17.7216 14.28 17.5655 14.1518 17.3827 14.0761C17.2 14.0004 16.9989 13.9806 16.805 14.0192C16.611 14.0578 16.4328 14.153 16.2929 14.2929C16.1531 14.4327 16.0579 14.6109 16.0193 14.8049C15.9807 14.9989 16.0005 15.2 16.0762 15.3827C16.1519 15.5654 16.28 15.7216 16.4445 15.8315C16.6089 15.9414 16.8023 16 17.0001 16C17.2653 16 17.5196 15.8946 17.7072 15.7071C17.8947 15.5196 18.0001 15.2652 18.0001 15ZM20.0001 12C20.0001 11.8022 19.9414 11.6089 19.8315 11.4444C19.7216 11.28 19.5655 11.1518 19.3827 11.0761C19.2 11.0004 18.9989 10.9806 18.805 11.0192C18.611 11.0578 18.4328 11.153 18.2929 11.2929C18.1531 11.4327 18.0579 11.6109 18.0193 11.8049C17.9807 11.9989 18.0005 12.2 18.0762 12.3827C18.1519 12.5654 18.28 12.7216 18.4445 12.8315C18.6089 12.9414 18.8023 13 19.0001 13C19.2653 13 19.5196 12.8946 19.7072 12.7071C19.8947 12.5196 20.0001 12.2652 20.0001 12ZM22.0001 15C22.0001 14.8022 21.9414 14.6089 21.8315 14.4444C21.7216 14.28 21.5655 14.1518 21.3827 14.0761C21.2 14.0004 20.9989 13.9806 20.805 14.0192C20.611 14.0578 20.4328 14.153 20.2929 14.2929C20.1531 14.4327 20.0579 14.6109 20.0193 14.8049C19.9807 14.9989 20.0005 15.2 20.0762 15.3827C20.1519 15.5654 20.28 15.7216 20.4445 15.8315C20.6089 15.9414 20.8023 16 21.0001 16C21.2653 16 21.5196 15.8946 21.7072 15.7071C21.8947 15.5196 22.0001 15.2652 22.0001 15Z" fill="currentColor"/>
</g>
<defs>
<clipPath id="clip0_406_2244">
<rect width="24" height="24" fill="white"/>
</clipPath>
</defs>
</svg>
