<svg width="24" height="24" viewBox="0 0 24 24" fill="none" xmlns="http://www.w3.org/2000/svg">
<path d="M15 5.02597C15 5.82162 14.6839 6.58468 14.1213 7.14729C13.5587 7.7099 12.7956 8.02597 12 8.02597C11.2044 8.02597 10.4413 7.7099 9.87868 7.14729C9.31607 6.58468 9 5.82162 9 5.02597C9.26857 3.47481 9.86112 1.99769 10.739 0.690966C10.8749 0.480016 11.0615 0.306528 11.2818 0.186388C11.5021 0.066248 11.7491 0.0032959 12 0.0032959C12.2509 0.0032959 12.4979 0.066248 12.7182 0.186388C12.9385 0.306528 13.1251 0.480016 13.261 0.690966C14.1389 1.99769 14.7314 3.47481 15 5.02597ZM5.8 18H18.2C18.0739 17.8218 17.9331 17.6546 17.779 17.5C15.856 15.641 15.071 13.485 15.013 9.99997H16C16.2652 9.99997 16.5196 9.89461 16.7071 9.70707C16.8946 9.51954 17 9.26518 17 8.99997C17 8.73475 16.8946 8.4804 16.7071 8.29286C16.5196 8.10532 16.2652 7.99997 16 7.99997H8C7.73478 7.99997 7.48043 8.10532 7.29289 8.29286C7.10536 8.4804 7 8.73475 7 8.99997C7 9.26518 7.10536 9.51954 7.29289 9.70707C7.48043 9.89461 7.73478 9.99997 8 9.99997H8.989C8.931 13.487 8.146 15.643 6.223 17.5C6.06881 17.655 5.92735 17.8222 5.8 18ZM20 22H19V20.371C19 20.246 18.974 20.124 18.962 20H5.038C5.026 20.124 5 20.246 5 20.371V22H4C3.73478 22 3.48043 22.1053 3.29289 22.2929C3.10536 22.4804 3 22.7347 3 23C3 23.2652 3.10536 23.5195 3.29289 23.7071C3.48043 23.8946 3.73478 24 4 24H20C20.2652 24 20.5196 23.8946 20.7071 23.7071C20.8946 23.5195 21 23.2652 21 23C21 22.7347 20.8946 22.4804 20.7071 22.2929C20.5196 22.1053 20.2652 22 20 22Z" fill="currentColor"/>
</svg>
