<svg width="24" height="24" viewBox="0 0 24 24" fill="none" xmlns="http://www.w3.org/2000/svg">
<g clip-path="url(#clip0_406_2167)">
<path d="M15.746 18.2542C15.746 16.7542 14.715 14.7042 12.846 12.4812C12.7426 12.3578 12.613 12.2589 12.4668 12.1917C12.3205 12.1244 12.161 12.0904 12 12.0922C11.8378 12.0915 11.6774 12.1261 11.5299 12.1936C11.3825 12.2611 11.2515 12.36 11.146 12.4832C9.10003 14.8802 8.10003 17.0002 8.27303 18.6252C8.34111 19.139 8.5173 19.6325 8.78998 20.0733C9.06267 20.514 9.42566 20.892 9.85503 21.1822C10.4624 21.6803 11.2153 21.9674 12 22.0002C12.9932 21.9992 13.9454 21.6042 14.6477 20.9019C15.35 20.1996 15.745 19.2474 15.746 18.2542Z" fill="currentColor"/>
<path d="M16.629 2.90045C15.843 2.23245 15.018 1.53245 14.178 0.76845C13.8595 0.479282 13.4816 0.263223 13.0708 0.135398C12.6601 0.00757344 12.2263 -0.0289276 11.8 0.02845C11.3868 0.0831764 10.9906 0.22797 10.6395 0.452601C10.2884 0.677233 9.99087 0.976222 9.76798 1.32845C8.57637 3.32028 7.7336 5.50095 7.27598 7.77645C7.09695 7.5172 6.93782 7.24476 6.79998 6.96145C6.65844 6.66323 6.44529 6.40469 6.17953 6.20888C5.91378 6.01307 5.60369 5.88608 5.27693 5.83925C4.95017 5.79241 4.6169 5.82718 4.30684 5.94046C3.99679 6.05374 3.71959 6.242 3.49998 6.48845C1.82329 8.20285 0.893845 10.5115 0.914982 12.9095C0.891794 15.3589 1.68841 17.7457 3.17809 19.6902C4.66778 21.6347 6.76496 23.0252 9.13598 23.6404C10.0438 23.8689 10.9759 23.9871 11.912 23.9925C10.7157 23.9479 9.5659 23.5178 8.63398 22.7665C7.98839 22.3121 7.44556 21.727 7.04071 21.0493C6.63585 20.3716 6.37804 19.6163 6.28398 18.8325C6.05398 16.6225 7.17698 14.0495 9.62198 11.1855C9.91529 10.8416 10.2799 10.5657 10.6906 10.377C11.1012 10.1883 11.548 10.0912 12 10.0925H12.01C12.4606 10.0928 12.9057 10.1914 13.3143 10.3814C13.723 10.5714 14.0853 10.8482 14.376 11.1925C15.914 13.0195 17.749 15.7275 17.749 18.2535C17.7468 19.7092 17.1924 21.1098 16.1978 22.1727C15.2032 23.2357 13.8423 23.8817 12.39 23.9804C15.2616 23.8879 17.9845 22.6812 19.9818 20.6158C21.979 18.5504 23.0938 15.7886 23.09 12.9155C23.085 8.38545 20.093 5.84545 16.629 2.90045Z" fill="currentColor"/>
</g>
<defs>
<clipPath id="clip0_406_2167">
<rect width="24" height="24" fill="white"/>
</clipPath>
</defs>
</svg>
