<svg width="24" height="24" viewBox="0 0 24 24" fill="none" xmlns="http://www.w3.org/2000/svg">
<g clip-path="url(#clip0_406_1827)">
<path d="M23 22.0006H1C0.734784 22.0006 0.48043 21.8953 0.292893 21.7077C0.105357 21.5202 0 21.2658 0 21.0006C0 20.7354 0.105357 20.481 0.292893 20.2935C0.48043 20.106 0.734784 20.0006 1 20.0006H23C23.2652 20.0006 23.5196 20.106 23.7071 20.2935C23.8946 20.481 24 20.7354 24 21.0006C24 21.2658 23.8946 21.5202 23.7071 21.7077C23.5196 21.8953 23.2652 22.0006 23 22.0006ZM12 2.09461V6.00061H20.267C18.0295 3.8053 15.1167 2.42909 12 2.09461ZM6 2.00061V6.00061H10V2.00061H6ZM21.949 8.00061H0V16.0006C0 16.2658 0.105357 16.5202 0.292893 16.7077C0.48043 16.8953 0.734784 17.0006 1 17.0006H19.99C20.618 17.0017 21.2375 16.8549 21.7982 16.5721C22.359 16.2894 22.8452 15.8785 23.2177 15.3728C23.5901 14.8672 23.8383 14.2809 23.9421 13.6615C24.0458 13.0422 24.0023 12.407 23.815 11.8076C23.3892 10.4515 22.76 9.16792 21.949 8.00061ZM4 6.00061V2.00061H1C0.734784 2.00061 0.48043 2.10597 0.292893 2.2935C0.105357 2.48104 0 2.73539 0 3.00061L0 6.00061H4Z" fill="currentColor"/>
</g>
<defs>
<clipPath id="clip0_406_1827">
<rect width="24" height="24" fill="white"/>
</clipPath>
</defs>
</svg>
