<svg width="24" height="24" viewBox="0 0 24 24" fill="none" xmlns="http://www.w3.org/2000/svg">
<path d="M22.5002 18C22.3031 18 22.1079 17.9611 21.9259 17.8856C21.7438 17.8101 21.5784 17.6995 21.4392 17.56L13.7682 9.88906C13.536 9.65684 13.2604 9.47263 12.957 9.34695C12.6537 9.22128 12.3285 9.15659 12.0002 9.15659C11.6718 9.15659 11.3467 9.22128 11.0433 9.34695C10.74 9.47263 10.4643 9.65684 10.2322 9.88906L2.57017 17.551C2.28727 17.8243 1.90837 17.9755 1.51507 17.9721C1.12178 17.9686 0.745559 17.8109 0.467447 17.5328C0.189334 17.2547 0.031581 16.8784 0.0281634 16.4851C0.0247458 16.0919 0.175937 15.713 0.449174 15.43L8.11117 7.76806C9.14327 6.73789 10.5419 6.1593 12.0002 6.1593C13.4584 6.1593 14.8571 6.73789 15.8892 7.76806L23.5612 15.44C23.7707 15.6499 23.9134 15.9171 23.9712 16.208C24.0289 16.4989 23.9991 16.8004 23.8856 17.0744C23.772 17.3483 23.5798 17.5825 23.3332 17.7472C23.0866 17.912 22.7967 18 22.5002 18Z" fill="currentColor"/>
</svg>
