<svg width="24" height="24" viewBox="0 0 24 24" fill="none" xmlns="http://www.w3.org/2000/svg">
<g clip-path="url(#clip0_406_2077)">
<path d="M9.878 14.546L0.744 5.411C1.18648 4.67732 1.81055 4.07004 2.55603 3.64773C3.3015 3.22542 4.14322 3.00234 5 3H12.294C11.7748 4.77353 11.9741 6.6801 12.8489 8.30792C13.7236 9.93574 15.2035 11.1542 16.969 11.7L14.122 14.548C13.5582 15.109 12.795 15.4238 11.9996 15.4235C11.2042 15.4231 10.4413 15.1076 9.878 14.546ZM15.536 15.96C14.5972 16.896 13.3257 17.4216 12 17.4216C10.6743 17.4216 9.40276 16.896 8.464 15.96L0.046 7.542C0.032 7.7 0 7.843 0 8V19C0.00158786 20.3256 0.528882 21.5964 1.46622 22.5338C2.40356 23.4711 3.67441 23.9984 5 24H19C20.3256 23.9984 21.5964 23.4711 22.5338 22.5338C23.4711 21.5964 23.9984 20.3256 24 19V9.894C22.811 11.1104 21.2184 11.8501 19.522 11.974L15.536 15.96ZM15 6H18V9C18 9.26522 18.1054 9.51957 18.2929 9.70711C18.4804 9.89464 18.7348 10 19 10C19.2652 10 19.5196 9.89464 19.7071 9.70711C19.8946 9.51957 20 9.26522 20 9V6H23C23.2652 6 23.5196 5.89464 23.7071 5.70711C23.8946 5.51957 24 5.26522 24 5C24 4.73478 23.8946 4.48043 23.7071 4.29289C23.5196 4.10536 23.2652 4 23 4H20V1C20 0.734784 19.8946 0.48043 19.7071 0.292893C19.5196 0.105357 19.2652 0 19 0C18.7348 0 18.4804 0.105357 18.2929 0.292893C18.1054 0.48043 18 0.734784 18 1V4H15C14.7348 4 14.4804 4.10536 14.2929 4.29289C14.1054 4.48043 14 4.73478 14 5C14 5.26522 14.1054 5.51957 14.2929 5.70711C14.4804 5.89464 14.7348 6 15 6Z" fill="currentColor"/>
</g>
<defs>
<clipPath id="clip0_406_2077">
<rect width="24" height="24" fill="white"/>
</clipPath>
</defs>
</svg>
