<svg width="24" height="24" viewBox="0 0 24 24" fill="none" xmlns="http://www.w3.org/2000/svg">
<g clip-path="url(#clip0_406_1924)">
<path d="M21.0002 22H6.88415C7.65606 20.812 8.04553 19.416 8.00015 18V14H15.0002C15.2654 14 15.5197 13.8946 15.7073 13.7071C15.8948 13.5196 16.0002 13.2652 16.0002 13C16.0002 12.7348 15.8948 12.4804 15.7073 12.2929C15.5197 12.1054 15.2654 12 15.0002 12H8.00015V8C8.00015 6.4087 8.63229 4.88258 9.75751 3.75736C10.8827 2.63214 12.4089 2 14.0002 2C15.5915 2 17.1176 2.63214 18.2428 3.75736C19.368 4.88258 20.0002 6.4087 20.0002 8C20.0002 8.26522 20.1055 8.51957 20.293 8.70711C20.4806 8.89464 20.7349 9 21.0002 9C21.2654 9 21.5197 8.89464 21.7073 8.70711C21.8948 8.51957 22.0002 8.26522 22.0002 8C22.0002 5.87827 21.1573 3.84344 19.657 2.34315C18.1567 0.842855 16.1219 0 14.0002 0C11.8784 0 9.84359 0.842855 8.3433 2.34315C6.84301 3.84344 6.00015 5.87827 6.00015 8V12H4.00015C3.73494 12 3.48058 12.1054 3.29305 12.2929C3.10551 12.4804 3.00015 12.7348 3.00015 13C3.00015 13.2652 3.10551 13.5196 3.29305 13.7071C3.48058 13.8946 3.73494 14 4.00015 14H6.00015V18C6.00015 19.2 5.70815 22 3.00015 22C2.73494 22 2.48058 22.1054 2.29305 22.2929C2.10551 22.4804 2.00015 22.7348 2.00015 23C2.00015 23.2652 2.10551 23.5196 2.29305 23.7071C2.48058 23.8946 2.73494 24 3.00015 24H21.0002C21.2654 24 21.5197 23.8946 21.7073 23.7071C21.8948 23.5196 22.0002 23.2652 22.0002 23C22.0002 22.7348 21.8948 22.4804 21.7073 22.2929C21.5197 22.1054 21.2654 22 21.0002 22Z" fill="currentColor"/>
</g>
<defs>
<clipPath id="clip0_406_1924">
<rect width="24" height="24" fill="white"/>
</clipPath>
</defs>
</svg>
