<svg width="24" height="24" viewBox="0 0 24 24" fill="none" xmlns="http://www.w3.org/2000/svg">
<g clip-path="url(#clip0_406_2235)">
<path d="M23.6989 1.7182L5.18903 20.2231C5.58919 20.4181 6.0281 20.5206 6.47324 20.5229H9.64332C9.90852 20.5222 10.1629 20.6277 10.3499 20.8158L12.0679 22.5327C12.9995 23.4708 14.2667 23.9988 15.5887 23.9998C16.1346 23.9993 16.6767 23.9098 17.1938 23.735C18.9763 23.1506 20.2728 21.6054 20.5388 19.7484L23.9157 3.70802C24.077 3.03966 24.0003 2.33606 23.6989 1.7182Z" fill="currentColor"/>
<path d="M20.3208 0.0771582L4.31946 3.44816C1.58538 3.82378 -0.326531 6.3447 0.0490864 9.07877C0.19745 10.1585 0.694729 11.1602 1.46517 11.931L3.18215 13.648C3.36982 13.8356 3.47518 14.0902 3.47499 14.3556V17.5257C3.47729 17.9708 3.57979 18.4098 3.77481 18.8099L22.2817 0.300055C21.6735 0.00117271 20.9805 -0.0775768 20.3208 0.0771582Z" fill="currentColor"/>
</g>
<defs>
<clipPath id="clip0_406_2235">
<rect width="24" height="24" fill="white"/>
</clipPath>
</defs>
</svg>
