<svg width="24" height="24" viewBox="0 0 24 24" fill="none" xmlns="http://www.w3.org/2000/svg">
<g clip-path="url(#clip0_406_2162)">
<path d="M18.581 2.14067L12.316 0.0516681C12.1109 -0.016653 11.8891 -0.016653 11.684 0.0516681L5.419 2.14067C4.42291 2.47155 3.55642 3.10793 2.94265 3.95938C2.32887 4.81083 1.99904 5.83406 2 6.88367V12.0007C2 19.5637 11.2 23.7407 11.594 23.9147C11.7218 23.9715 11.8601 24.0008 12 24.0008C12.1399 24.0008 12.2782 23.9715 12.406 23.9147C12.8 23.7407 22 19.5637 22 12.0007V6.88367C22.001 5.83406 21.6711 4.81083 21.0574 3.95938C20.4436 3.10793 19.5771 2.47155 18.581 2.14067ZM16.718 9.71767L12.446 13.9897C12.2712 14.1657 12.0632 14.3052 11.834 14.4001C11.6048 14.495 11.3591 14.5435 11.111 14.5427H11.078C10.8249 14.5388 10.5752 14.4836 10.344 14.3805C10.1128 14.2774 9.90498 14.1284 9.733 13.9427L7.427 11.5427C7.32713 11.45 7.24725 11.3379 7.19226 11.2133C7.13726 11.0887 7.10831 10.9541 7.10718 10.8179C7.10606 10.6816 7.13278 10.5466 7.1857 10.4211C7.23863 10.2956 7.31665 10.1822 7.41497 10.0879C7.51329 9.99357 7.62985 9.92036 7.75748 9.87272C7.88511 9.82508 8.02113 9.80403 8.15719 9.81085C8.29325 9.81766 8.42648 9.85221 8.54872 9.91237C8.67095 9.97252 8.7796 10.057 8.868 10.1607L11.112 12.5007L15.3 8.30067C15.4886 8.11851 15.7412 8.01772 16.0034 8.02C16.2656 8.02227 16.5164 8.12744 16.7018 8.31285C16.8872 8.49826 16.9924 8.74907 16.9947 9.01127C16.997 9.27347 16.8962 9.52607 16.714 9.71467L16.718 9.71767Z" fill="currentColor"/>
</g>
<defs>
<clipPath id="clip0_406_2162">
<rect width="24" height="24" fill="white"/>
</clipPath>
</defs>
</svg>
