<svg width="24" height="24" viewBox="0 0 24 24" fill="none" xmlns="http://www.w3.org/2000/svg">
<path d="M7.38982 3.06807C7.779 2.16859 8.42282 1.4026 9.24195 0.864494C10.0611 0.326389 11.0197 0.0396729 11.9998 0.0396729C12.9799 0.0396729 13.9385 0.326389 14.7577 0.864494C15.5768 1.4026 16.2206 2.16859 16.6098 3.06807C15.6703 3.19879 14.7708 3.53356 13.9744 4.04888C13.178 4.56421 12.504 5.24759 11.9998 6.05107C11.4948 5.24828 10.8207 4.56541 10.0244 4.05018C9.22818 3.53495 8.32904 3.19978 7.38982 3.06807ZM10.9998 9.50007C10.7538 3.21107 1.53282 3.75707 2.03482 10.0241C4.90666 10.5716 7.81823 10.885 10.7408 10.9611C10.9087 10.4921 10.9963 9.99818 10.9998 9.50007ZM17.4998 5.00007C16.7844 5.00249 16.0799 5.17544 15.4447 5.50457C14.8095 5.83371 14.2619 6.30955 13.8474 6.89263C13.4329 7.4757 13.1633 8.14921 13.0611 8.85728C12.959 9.56535 13.0271 10.2876 13.2598 10.9641C16.1824 10.8954 19.0942 10.5829 21.9648 10.0301C22.0387 9.3993 21.9784 8.76004 21.7878 8.15421C21.5973 7.54839 21.2809 6.98968 20.8593 6.51473C20.4376 6.03977 19.9204 5.65931 19.3415 5.39827C18.7625 5.13724 18.1349 5.00154 17.4998 5.00007ZM2.73582 12.1901C2.74982 12.2191 9.01882 22.3331 9.01882 22.3331C9.33591 22.8369 9.77558 23.2522 10.2967 23.54C10.8179 23.8277 11.4035 23.9787 11.9988 23.9787C12.5941 23.9787 13.1798 23.8277 13.7009 23.54C14.2221 23.2522 14.6617 22.8369 14.9788 22.3331C14.9788 22.3331 21.2478 12.2241 21.2608 12.2001C18.2019 12.7276 15.1039 12.9953 11.9998 13.0001C8.89459 12.9898 5.7957 12.7189 2.73582 12.1901Z" fill="currentColor"/>
</svg>
