<svg width="24" height="24" viewBox="0 0 24 24" fill="none" xmlns="http://www.w3.org/2000/svg">
<g clip-path="url(#clip0_406_2159)">
<path d="M24.0001 11.9831C23.998 11.169 23.7472 10.375 23.2812 9.70751C22.8153 9.03998 22.1565 8.53076 21.3931 8.24806L21.3551 8.15706C20.3631 5.7305 18.4639 3.78644 16.0611 2.73806L15.7321 2.59406C15.4489 1.83298 14.9396 1.17672 14.2727 0.71333C13.6059 0.249941 12.8132 0.00158691 12.0011 0.00158691C11.189 0.00158691 10.3964 0.249941 9.72948 0.71333C9.06259 1.17672 8.55336 1.83298 8.27012 2.59406L7.85212 2.78206C5.47066 3.86371 3.59632 5.81969 2.61712 8.24506C1.85246 8.52366 1.19159 9.02997 0.723567 9.69575C0.255546 10.3615 0.00287411 11.1548 -0.000395117 11.9686C-0.00366434 12.7824 0.242626 13.5777 0.705283 14.2472C1.16794 14.9167 1.82472 15.4283 2.58712 15.7131L2.71512 16.0131C3.71847 18.342 5.56116 20.2082 7.87712 21.2411L8.27012 21.4171C8.55416 22.1771 9.06358 22.8322 9.73019 23.2947C10.3968 23.7572 11.1888 24.005 12.0001 24.005C12.8115 24.005 13.6034 23.7572 14.27 23.2947C14.9367 22.8322 15.4461 22.1771 15.7301 21.4171L16.0971 21.2541C18.5197 20.1708 20.4243 18.1855 21.4061 15.7201C22.1669 15.4344 22.8227 14.9238 23.2861 14.2562C23.7495 13.5886 23.9985 12.7957 24.0001 11.9831ZM15.8931 19.1141C15.6941 18.2301 15.2001 17.4402 14.4925 16.8742C13.7849 16.3082 12.9057 15.9998 11.9996 15.9998C11.0935 15.9998 10.2144 16.3082 9.50674 16.8742C8.79913 17.4402 8.30518 18.2301 8.10612 19.1141C6.74071 18.369 5.61895 17.2462 4.87512 15.8801C5.75633 15.681 6.54391 15.1888 7.10909 14.484C7.67427 13.7792 7.98361 12.9034 7.98651 12C7.98941 11.0966 7.68572 10.2189 7.12508 9.5105C6.56444 8.80208 5.78003 8.30483 4.90012 8.10006C5.64669 6.7532 6.75786 5.64411 8.10612 4.90006C8.30601 5.78306 8.80019 6.57185 9.50751 7.13695C10.2148 7.70204 11.0933 8.00986 11.9986 8.00986C12.904 8.00986 13.7824 7.70204 14.4897 7.13695C15.197 6.57185 15.6912 5.78306 15.8911 4.90006C17.2384 5.64329 18.3502 6.74952 19.1001 8.09306C18.2175 8.29466 17.4297 8.79035 16.8659 9.49876C16.3022 10.2072 15.9961 11.0862 15.9978 11.9916C15.9995 12.8969 16.3091 13.7747 16.8755 14.481C17.442 15.1872 18.2317 15.6799 19.1151 15.8781C18.3689 17.2398 17.2516 18.3619 15.8931 19.1141Z" fill="currentColor"/>
</g>
<defs>
<clipPath id="clip0_406_2159">
<rect width="24" height="24" fill="white"/>
</clipPath>
</defs>
</svg>
