<svg width="24" height="24" viewBox="0 0 24 24" fill="none" xmlns="http://www.w3.org/2000/svg">
<g clip-path="url(#clip0_406_2250)">
<path d="M18.5 3H5.5C4.0418 3.00159 2.64377 3.58156 1.61267 4.61267C0.581561 5.64377 0.00158817 7.0418 0 8.5L0 15.5C0.00158817 16.9582 0.581561 18.3562 1.61267 19.3873C2.64377 20.4184 4.0418 20.9984 5.5 21H18.5C19.9582 20.9984 21.3562 20.4184 22.3873 19.3873C23.4184 18.3562 23.9984 16.9582 24 15.5V8.5C23.9984 7.0418 23.4184 5.64377 22.3873 4.61267C21.3562 3.58156 19.9582 3.00159 18.5 3ZM21 15.5C21 16.163 20.7366 16.7989 20.2678 17.2678C19.7989 17.7366 19.163 18 18.5 18H5.5C4.83696 18 4.20107 17.7366 3.73223 17.2678C3.26339 16.7989 3 16.163 3 15.5V8.5C3 7.83696 3.26339 7.20107 3.73223 6.73223C4.20107 6.26339 4.83696 6 5.5 6H18.5C19.163 6 19.7989 6.26339 20.2678 6.73223C20.7366 7.20107 21 7.83696 21 8.5V15.5Z" fill="currentColor"/>
</g>
<defs>
<clipPath id="clip0_406_2250">
<rect width="24" height="24" fill="white"/>
</clipPath>
</defs>
</svg>
