<svg width="24" height="24" viewBox="0 0 24 24" fill="none" xmlns="http://www.w3.org/2000/svg">
<g clip-path="url(#clip0_406_2057)">
<path d="M21.946 11C21.4813 11.0002 21.0305 10.841 20.669 10.549L19.5 9.613L18.331 10.549C18.0293 10.7899 17.6658 10.9408 17.2822 10.9844C16.8986 11.0279 16.5105 10.9622 16.1625 10.795C15.8145 10.6278 15.5209 10.3657 15.3152 10.039C15.1095 9.71222 15.0003 9.33407 15 8.948V2C15 1.46957 15.2107 0.960859 15.5858 0.585786C15.9609 0.210714 16.4696 0 17 0L22 0C22.5304 0 23.0391 0.210714 23.4142 0.585786C23.7893 0.960859 24 1.46957 24 2V8.948C23.9987 9.49216 23.7818 10.0136 23.3968 10.3982C23.0118 10.7828 22.4902 10.9992 21.946 11ZM12 15.422C12.7955 15.4229 13.5588 15.1078 14.122 14.546L15.869 12.8C15.0257 12.577 14.2828 12.0747 13.7617 11.3751C13.2407 10.6755 12.9721 9.81989 13 8.948V3H5C4.14322 3.00234 3.3015 3.22542 2.55603 3.64773C1.81055 4.07004 1.18648 4.67732 0.744 5.411L9.878 14.546C10.4412 15.1078 11.2045 15.4229 12 15.422ZM23.7 12.6C23.0286 12.9224 22.2812 13.0533 21.5402 12.9783C20.7992 12.9033 20.0932 12.6254 19.5 12.175C19.4604 12.154 19.4193 12.136 19.377 12.121L15.536 15.96C14.5972 16.896 13.3257 17.4216 12 17.4216C10.6743 17.4216 9.40276 16.896 8.464 15.96L0.046 7.542C0.032 7.7 0 7.843 0 8V19C0.00158786 20.3256 0.528882 21.5964 1.46622 22.5338C2.40356 23.4711 3.67441 23.9984 5 24H19C20.3256 23.9984 21.5964 23.4711 22.5338 22.5338C23.4711 21.5964 23.9984 20.3256 24 19V12.43C23.9 12.487 23.808 12.548 23.7 12.6Z" fill="currentColor"/>
</g>
<defs>
<clipPath id="clip0_406_2057">
<rect width="24" height="24" fill="white"/>
</clipPath>
</defs>
</svg>
