<svg width="24" height="24" viewBox="0 0 24 24" fill="none" xmlns="http://www.w3.org/2000/svg">
<g clip-path="url(#clip0_406_2242)">
<path d="M15 20H5C3.67441 19.9984 2.40356 19.4711 1.46622 18.5338C0.528882 17.5964 0.00158786 16.3256 0 15L0 5C0.00158786 3.67441 0.528882 2.40356 1.46622 1.46622C2.40356 0.528882 3.67441 0.00158786 5 0L15 0C16.3256 0.00158786 17.5964 0.528882 18.5338 1.46622C19.4711 2.40356 19.9984 3.67441 20 5V15C19.9984 16.3256 19.4711 17.5964 18.5338 18.5338C17.5964 19.4711 16.3256 19.9984 15 20ZM24 19V6C24 5.73478 23.8946 5.48043 23.7071 5.29289C23.5196 5.10536 23.2652 5 23 5C22.7348 5 22.4804 5.10536 22.2929 5.29289C22.1054 5.48043 22 5.73478 22 6V19C22 19.7956 21.6839 20.5587 21.1213 21.1213C20.5587 21.6839 19.7956 22 19 22H6C5.73478 22 5.48043 22.1054 5.29289 22.2929C5.10536 22.4804 5 22.7348 5 23C5 23.2652 5.10536 23.5196 5.29289 23.7071C5.48043 23.8946 5.73478 24 6 24H19C20.3256 23.9984 21.5964 23.4711 22.5338 22.5338C23.4711 21.5964 23.9984 20.3256 24 19Z" fill="currentColor"/>
</g>
<defs>
<clipPath id="clip0_406_2242">
<rect width="24" height="24" fill="white"/>
</clipPath>
</defs>
</svg>
