<svg width="24" height="24" viewBox="0 0 24 24" fill="none" xmlns="http://www.w3.org/2000/svg">
<g clip-path="url(#clip0_406_2151)">
<path d="M22.5001 3.97607H19.4141C19.2163 3.97612 19.023 4.03479 18.8586 4.14467C18.6942 4.25456 18.5661 4.41072 18.4904 4.59342C18.4147 4.77612 18.3949 4.97715 18.4335 5.17111C18.472 5.36506 18.5673 5.54322 18.7071 5.68307L19.7931 6.76907L16.2071 10.3541C16.0165 10.5362 15.7631 10.6378 15.4996 10.6378C15.236 10.6378 14.9826 10.5362 14.7921 10.3541L14.6221 10.1831C14.0507 9.63715 13.2908 9.3325 12.5006 9.3325C11.7103 9.3325 10.9504 9.63715 10.3791 10.1831L5.27906 15.2831C5.09115 15.4715 4.9858 15.7269 4.98618 15.993C4.98655 16.2591 5.09262 16.5142 5.28106 16.7021C5.4695 16.89 5.72486 16.9953 5.99098 16.995C6.25709 16.9946 6.51215 16.8885 6.70006 16.7001L11.8001 11.6001C11.9905 11.4178 12.2439 11.316 12.5076 11.316C12.7712 11.316 13.0246 11.4178 13.2151 11.6001L13.3851 11.7711C13.9567 12.3165 14.7164 12.6209 15.5066 12.6209C16.2967 12.6209 17.0564 12.3165 17.6281 11.7711L21.2141 8.18508L22.3001 9.27107C22.4404 9.40862 22.6181 9.50178 22.8111 9.53892C23.004 9.57606 23.2036 9.55553 23.385 9.47989C23.5664 9.40426 23.7214 9.27687 23.8308 9.11364C23.9402 8.95041 23.9991 8.75857 24.0001 8.56208V5.47607C24.0001 5.07825 23.842 4.69672 23.5607 4.41541C23.2794 4.13411 22.8979 3.97607 22.5001 3.97607Z" fill="currentColor"/>
<path d="M23 21.976H5C4.20435 21.976 3.44129 21.6599 2.87868 21.0973C2.31607 20.5347 2 19.7716 2 18.976V1C2 0.734784 1.89464 0.48043 1.70711 0.292893C1.51957 0.105357 1.26522 0 1 0C0.734784 0 0.48043 0.105357 0.292893 0.292893C0.105357 0.48043 0 0.734784 0 1L0 18.976C0.00158786 20.3016 0.528882 21.5724 1.46622 22.5098C2.40356 23.4471 3.67441 23.9744 5 23.976H23C23.2652 23.976 23.5196 23.8706 23.7071 23.6831C23.8946 23.4956 24 23.2412 24 22.976C24 22.7108 23.8946 22.4564 23.7071 22.2689C23.5196 22.0814 23.2652 21.976 23 21.976Z" fill="currentColor"/>
</g>
<defs>
<clipPath id="clip0_406_2151">
<rect width="24" height="24" fill="white"/>
</clipPath>
</defs>
</svg>
