<svg width="24" height="24" viewBox="0 0 24 24" fill="none" xmlns="http://www.w3.org/2000/svg">
<g clip-path="url(#clip0_406_2303)">
<path d="M9 12C12.3137 12 15 9.31371 15 6C15 2.68629 12.3137 0 9 0C5.68629 0 3 2.68629 3 6C3 9.31371 5.68629 12 9 12Z" fill="currentColor"/>
<path d="M9 13.9996C6.61395 14.0025 4.32645 14.9517 2.63925 16.6389C0.952057 18.3261 0.00291096 20.6136 0 22.9996C0 23.2648 0.105357 23.5192 0.292893 23.7067C0.48043 23.8942 0.734784 23.9996 1 23.9996H17C17.2652 23.9996 17.5196 23.8942 17.7071 23.7067C17.8946 23.5192 18 23.2648 18 22.9996C17.9971 20.6136 17.0479 18.3261 15.3607 16.6389C13.6735 14.9517 11.3861 14.0025 9 13.9996Z" fill="currentColor"/>
<path d="M21.9998 7.875C21.4433 7.90272 20.9204 8.14977 20.5456 8.56207C20.1708 8.97437 19.9746 9.51836 19.9998 10.075C20.0251 9.51836 19.8289 8.97437 19.4541 8.56207C19.0792 8.14977 18.5564 7.90272 17.9998 7.875C17.4433 7.90272 16.9204 8.14977 16.5456 8.56207C16.1708 8.97437 15.9746 9.51836 15.9999 10.075C15.9999 11.805 18.2558 13.832 19.3798 14.734C19.5558 14.8749 19.7745 14.9516 19.9998 14.9516C20.2252 14.9516 20.4439 14.8749 20.6198 14.734C21.7438 13.834 23.9998 11.805 23.9998 10.075C24.0251 9.51836 23.8289 8.97437 23.4541 8.56207C23.0792 8.14977 22.5564 7.90272 21.9998 7.875Z" fill="currentColor"/>
</g>
<defs>
<clipPath id="clip0_406_2303">
<rect width="24" height="24" fill="white"/>
</clipPath>
</defs>
</svg>
