<svg width="24" height="24" viewBox="0 0 24 24" fill="none" xmlns="http://www.w3.org/2000/svg">
<g clip-path="url(#clip0_406_2289)">
<path d="M13.8457 17.2654L10.5841 20.527C8.59436 22.4635 5.41149 22.4204 3.47494 20.4307C1.57574 18.4794 1.57532 15.3707 3.47396 13.4189L6.73556 10.1543C7.12598 9.76356 7.12575 9.13035 6.73504 8.73993C6.34434 8.34951 5.71113 8.34974 5.32071 8.74045L2.06009 12.005C-0.683604 14.7501 -0.682479 19.1996 2.06257 21.9434C4.80763 24.6871 9.25718 24.6859 12.0009 21.9409L15.2625 18.6793C15.6462 18.2821 15.6351 17.6491 15.238 17.2655C14.8505 16.8912 14.2362 16.8912 13.8487 17.2655H13.8457V17.2654Z" fill="currentColor"/>
<path d="M21.9437 2.06127C20.6294 0.738005 18.8402 -0.00412696 16.9752 0.000513117C15.1113 -0.00445505 13.3227 0.73613 12.0078 2.05729L8.74118 5.31987C8.35047 5.7103 8.35024 6.3435 8.74066 6.73421C9.13109 7.12491 9.76429 7.12515 10.155 6.73472L13.4196 3.47312C14.3598 2.5272 15.6395 1.99687 16.9732 2.00029C19.7497 2.00123 21.9999 4.2528 21.9989 7.02935C21.9985 8.36194 21.469 9.63988 20.5267 10.5823L17.2651 13.8439C16.8744 14.2346 16.8744 14.868 17.2651 15.2587C17.6559 15.6494 18.2893 15.6494 18.68 15.2587L21.9416 11.9991C24.6814 9.25331 24.6823 4.80811 21.9437 2.06127Z" fill="currentColor"/>
<path d="M14.2937 8.29286L8.29438 14.2921C7.89717 14.6758 7.8862 15.3088 8.26982 15.706C8.65345 16.1031 9.28647 16.1142 9.68364 15.7305C9.69198 15.7225 9.70014 15.7143 9.7082 15.706L15.7075 9.70668C16.0911 9.30946 16.0801 8.67649 15.6829 8.29286C15.2955 7.91866 14.6812 7.91866 14.2937 8.29286Z" fill="currentColor"/>
</g>
<defs>
<clipPath id="clip0_406_2289">
<rect width="24" height="24" fill="white"/>
</clipPath>
</defs>
</svg>
