<svg width="24" height="24" viewBox="0 0 24 24" fill="none" xmlns="http://www.w3.org/2000/svg">
<g clip-path="url(#clip0_406_2199)">
<path d="M7 0H4C1.79086 0 0 1.79086 0 4V7C0 9.20914 1.79086 11 4 11H7C9.20914 11 11 9.20914 11 7V4C11 1.79086 9.20914 0 7 0Z" fill="currentColor"/>
<path d="M7 13H4C1.79086 13 0 14.7909 0 17V20C0 22.2092 1.79086 24 4 24H7C9.20914 24 11 22.2092 11 20V17C11 14.7909 9.20914 13 7 13Z" fill="currentColor"/>
<path d="M22.2931 19.126L20.0001 21.416V2.58402L22.2931 4.87402C22.386 4.96686 22.4963 5.0405 22.6176 5.09072C22.739 5.14094 22.8691 5.16677 23.0004 5.16672C23.1318 5.16667 23.2618 5.14076 23.3831 5.09045C23.5045 5.04014 23.6147 4.96643 23.7076 4.87352C23.8004 4.78061 23.874 4.67032 23.9243 4.54895C23.9745 4.42758 24.0003 4.29751 24.0003 4.16616C24.0002 4.03481 23.9743 3.90476 23.924 3.78343C23.8737 3.6621 23.8 3.55186 23.7071 3.45902L21.1201 0.876017C20.5576 0.314215 19.7951 -0.00134277 19.0001 -0.00134277C18.2051 -0.00134277 17.4426 0.314215 16.8801 0.876017L14.2931 3.45902C14.2002 3.55186 14.1264 3.6621 14.0761 3.78343C14.0258 3.90476 13.9999 4.03481 13.9999 4.16616C13.9998 4.29751 14.0256 4.42758 14.0759 4.54895C14.1261 4.67032 14.1997 4.78061 14.2926 4.87352C14.3854 4.96643 14.4956 5.04014 14.617 5.09045C14.7383 5.14076 14.8684 5.16667 14.9997 5.16672C15.1311 5.16677 15.2611 5.14094 15.3825 5.09072C15.5039 5.0405 15.6142 4.96686 15.7071 4.87402L18.0001 2.58402V21.416L15.7071 19.126C15.6141 19.0332 15.5037 18.9596 15.3823 18.9094C15.2609 18.8592 15.1308 18.8334 14.9994 18.8335C14.868 18.8336 14.7379 18.8595 14.6165 18.9099C14.4952 18.9603 14.3849 19.034 14.2921 19.127C14.1992 19.22 14.1256 19.3303 14.0754 19.4518C14.0252 19.5732 13.9994 19.7033 13.9995 19.8347C13.9996 19.9661 14.0256 20.0962 14.0759 20.2176C14.1263 20.3389 14.2001 20.4492 14.2931 20.542L16.8801 23.125C17.4433 23.6854 18.2055 23.9999 19.0001 23.9999C19.7946 23.9999 20.5568 23.6854 21.1201 23.125L23.7071 20.542C23.8948 20.3545 24.0004 20.1001 24.0006 19.8347C24.0008 19.5694 23.8956 19.3148 23.7081 19.127C23.5205 18.9392 23.2661 18.8336 23.0008 18.8335C22.7354 18.8333 22.4808 18.9385 22.2931 19.126Z" fill="currentColor"/>
</g>
<defs>
<clipPath id="clip0_406_2199">
<rect width="24" height="24" fill="white"/>
</clipPath>
</defs>
</svg>
