<svg width="24" height="24" viewBox="0 0 24 24" fill="none" xmlns="http://www.w3.org/2000/svg">
<g clip-path="url(#clip0_406_1936)">
<path d="M5.00012 14C5.5524 14 6.00012 13.5523 6.00012 13C6.00012 12.4477 5.5524 12 5.00012 12C4.44784 12 4.00012 12.4477 4.00012 13C4.00012 13.5523 4.44784 14 5.00012 14Z" fill="currentColor"/>
<path d="M1 10.0001C1.55228 10.0001 2 9.5524 2 9.00012C2 8.44784 1.55228 8.00012 1 8.00012C0.447715 8.00012 0 8.44784 0 9.00012C0 9.5524 0.447715 10.0001 1 10.0001Z" fill="currentColor"/>
<path d="M5.00012 5.99987C5.5524 5.99987 6.00012 5.55216 6.00012 4.99988C6.00012 4.44759 5.5524 3.99988 5.00012 3.99988C4.44784 3.99988 4.00012 4.44759 4.00012 4.99988C4.00012 5.55216 4.44784 5.99987 5.00012 5.99987Z" fill="currentColor"/>
<path d="M1 2C1.55228 2 2 1.55228 2 1C2 0.447715 1.55228 0 1 0C0.447715 0 0 0.447715 0 1C0 1.55228 0.447715 2 1 2Z" fill="currentColor"/>
<path d="M23.0001 14C23.5524 14 24.0001 13.5523 24.0001 13C24.0001 12.4477 23.5524 12 23.0001 12C22.4478 12 22.0001 12.4477 22.0001 13C22.0001 13.5523 22.4478 14 23.0001 14Z" fill="currentColor"/>
<path d="M19 10.0001C19.5523 10.0001 20 9.5524 20 9.00012C20 8.44784 19.5523 8.00012 19 8.00012C18.4477 8.00012 18 8.44784 18 9.00012C18 9.5524 18.4477 10.0001 19 10.0001Z" fill="currentColor"/>
<path d="M23.0001 5.99987C23.5524 5.99987 24.0001 5.55216 24.0001 4.99988C24.0001 4.44759 23.5524 3.99988 23.0001 3.99988C22.4478 3.99988 22.0001 4.44759 22.0001 4.99988C22.0001 5.55216 22.4478 5.99987 23.0001 5.99987Z" fill="currentColor"/>
<path d="M19 2C19.5523 2 20 1.55228 20 1C20 0.447715 19.5523 0 19 0C18.4477 0 18 0.447715 18 1C18 1.55228 18.4477 2 19 2Z" fill="currentColor"/>
<path d="M14.0001 23.9999C14.5524 23.9999 15.0001 23.5521 15.0001 22.9999C15.0001 22.4476 14.5524 21.9999 14.0001 21.9999C13.4478 21.9999 13.0001 22.4476 13.0001 22.9999C13.0001 23.5521 13.4478 23.9999 14.0001 23.9999Z" fill="currentColor"/>
<path d="M10 20C10.5523 20 11 19.5523 11 19C11 18.4477 10.5523 18 10 18C9.44771 18 9 18.4477 9 19C9 19.5523 9.44771 20 10 20Z" fill="currentColor"/>
<path d="M14.0001 16.0001C14.5524 16.0001 15.0001 15.5524 15.0001 15.0001C15.0001 14.4478 14.5524 14.0001 14.0001 14.0001C13.4478 14.0001 13.0001 14.4478 13.0001 15.0001C13.0001 15.5524 13.4478 16.0001 14.0001 16.0001Z" fill="currentColor"/>
<path d="M10 11.9999C10.5523 11.9999 11 11.5522 11 10.9999C11 10.4476 10.5523 9.99988 10 9.99988C9.44771 9.99988 9 10.4476 9 10.9999C9 11.5522 9.44771 11.9999 10 11.9999Z" fill="currentColor"/>
<path d="M14.9999 3C14.4694 3 13.9607 2.78929 13.5857 2.41421C13.2106 2.03914 12.9999 1.53043 12.9999 1C12.9999 0.734784 12.8945 0.48043 12.707 0.292893C12.5194 0.105357 12.2651 0 11.9999 0C11.7347 0 11.4803 0.105357 11.2928 0.292893C11.1052 0.48043 10.9999 0.734784 10.9999 1C10.9999 1.53043 10.7892 2.03914 10.4141 2.41421C10.039 2.78929 9.53031 3 8.99988 3C8.73466 3 8.48031 3.10536 8.29277 3.29289C8.10523 3.48043 7.99988 3.73478 7.99988 4C7.99988 4.26522 8.10523 4.51957 8.29277 4.70711C8.48031 4.89464 8.73466 5 8.99988 5C9.53031 5 10.039 5.21071 10.4141 5.58579C10.7892 5.96086 10.9999 6.46957 10.9999 7C10.9999 7.26522 11.1052 7.51957 11.2928 7.70711C11.4803 7.89464 11.7347 8 11.9999 8C12.2651 8 12.5194 7.89464 12.707 7.70711C12.8945 7.51957 12.9999 7.26522 12.9999 7C12.9999 6.46957 13.2106 5.96086 13.5857 5.58579C13.9607 5.21071 14.4694 5 14.9999 5C15.2651 5 15.5194 4.89464 15.707 4.70711C15.8945 4.51957 15.9999 4.26522 15.9999 4C15.9999 3.73478 15.8945 3.48043 15.707 3.29289C15.5194 3.10536 15.2651 3 14.9999 3Z" fill="currentColor"/>
<path d="M7 18.9999C6.46957 18.9999 5.96086 18.7892 5.58579 18.4141C5.21071 18.039 5 17.5303 5 16.9999C5 16.7347 4.89464 16.4803 4.70711 16.2928C4.51957 16.1052 4.26522 15.9999 4 15.9999C3.73478 15.9999 3.48043 16.1052 3.29289 16.2928C3.10536 16.4803 3 16.7347 3 16.9999C3 17.5303 2.78929 18.039 2.41421 18.4141C2.03914 18.7892 1.53043 18.9999 1 18.9999C0.734784 18.9999 0.48043 19.1052 0.292893 19.2928C0.105357 19.4803 0 19.7347 0 19.9999C0 20.2651 0.105357 20.5194 0.292893 20.707C0.48043 20.8945 0.734784 20.9999 1 20.9999C1.53043 20.9999 2.03914 21.2106 2.41421 21.5857C2.78929 21.9607 3 22.4694 3 22.9999C3 23.2651 3.10536 23.5194 3.29289 23.707C3.48043 23.8945 3.73478 23.9999 4 23.9999C4.26522 23.9999 4.51957 23.8945 4.70711 23.707C4.89464 23.5194 5 23.2651 5 22.9999C5 22.4694 5.21071 21.9607 5.58579 21.5857C5.96086 21.2106 6.46957 20.9999 7 20.9999C7.26522 20.9999 7.51957 20.8945 7.70711 20.707C7.89464 20.5194 8 20.2651 8 19.9999C8 19.7347 7.89464 19.4803 7.70711 19.2928C7.51957 19.1052 7.26522 18.9999 7 18.9999Z" fill="currentColor"/>
<path d="M23.0001 18.9999C22.4697 18.9999 21.961 18.7892 21.5859 18.4141C21.2108 18.039 21.0001 17.5303 21.0001 16.9999C21.0001 16.7347 20.8948 16.4803 20.7072 16.2928C20.5197 16.1052 20.2653 15.9999 20.0001 15.9999C19.7349 15.9999 19.4805 16.1052 19.293 16.2928C19.1055 16.4803 19.0001 16.7347 19.0001 16.9999C19.0001 17.5303 18.7894 18.039 18.4143 18.4141C18.0393 18.7892 17.5306 18.9999 17.0001 18.9999C16.7349 18.9999 16.4805 19.1052 16.293 19.2928C16.1055 19.4803 16.0001 19.7347 16.0001 19.9999C16.0001 20.2651 16.1055 20.5194 16.293 20.707C16.4805 20.8945 16.7349 20.9999 17.0001 20.9999C17.5306 20.9999 18.0393 21.2106 18.4143 21.5857C18.7894 21.9607 19.0001 22.4694 19.0001 22.9999C19.0001 23.2651 19.1055 23.5194 19.293 23.707C19.4805 23.8945 19.7349 23.9999 20.0001 23.9999C20.2653 23.9999 20.5197 23.8945 20.7072 23.707C20.8948 23.5194 21.0001 23.2651 21.0001 22.9999C21.0001 22.4694 21.2108 21.9607 21.5859 21.5857C21.961 21.2106 22.4697 20.9999 23.0001 20.9999C23.2653 20.9999 23.5197 20.8945 23.7072 20.707C23.8948 20.5194 24.0001 20.2651 24.0001 19.9999C24.0001 19.7347 23.8948 19.4803 23.7072 19.2928C23.5197 19.1052 23.2653 18.9999 23.0001 18.9999Z" fill="currentColor"/>
</g>
<defs>
<clipPath id="clip0_406_1936">
<rect width="24" height="24" fill="white"/>
</clipPath>
</defs>
</svg>
