<svg width="24" height="24" viewBox="0 0 24 24" fill="none" xmlns="http://www.w3.org/2000/svg">
<g clip-path="url(#clip0_406_1879)">
<path d="M16.0001 17C16.0001 17.2652 15.8947 17.5196 15.7072 17.7071C15.5196 17.8946 15.2653 18 15.0001 18H9.00007C8.73485 18 8.4805 17.8946 8.29296 17.7071C8.10542 17.5196 8.00007 17.2652 8.00007 17C8.00007 16.7348 8.10542 16.4804 8.29296 16.2929C8.4805 16.1054 8.73485 16 9.00007 16H15.0001C15.2653 16 15.5196 16.1054 15.7072 16.2929C15.8947 16.4804 16.0001 16.7348 16.0001 17ZM22.0001 17V18C21.9985 19.5908 21.3658 21.116 20.241 22.2409C19.1161 23.3658 17.5909 23.9984 16.0001 24H8.00007C6.40926 23.9984 4.88405 23.3658 3.75918 22.2409C2.63431 21.116 2.00165 19.5908 2.00007 18V17C1.99829 15.3406 2.4583 13.7134 3.32862 12.3006C4.19895 10.8877 5.44524 9.74489 6.92807 9H17.0721C18.5549 9.74489 19.8012 10.8877 20.6715 12.3006C21.5418 13.7134 22.0018 15.3406 22.0001 17ZM18.0001 17C18.0001 16.2044 17.684 15.4413 17.1214 14.8787C16.5588 14.3161 15.7957 14 15.0001 14H9.00007C8.20442 14 7.44136 14.3161 6.87875 14.8787C6.31614 15.4413 6.00007 16.2044 6.00007 17C6.00007 17.7956 6.31614 18.5587 6.87875 19.1213C7.44136 19.6839 8.20442 20 9.00007 20H15.0001C15.7957 20 16.5588 19.6839 17.1214 19.1213C17.684 18.5587 18.0001 17.7956 18.0001 17ZM17.0001 6C17.0001 5.46957 16.7894 4.96086 16.4143 4.58579C16.0392 4.21071 15.5305 4 15.0001 4V2H19.0001C19.2653 2 19.5196 1.89464 19.7072 1.70711C19.8947 1.51957 20.0001 1.26522 20.0001 1C20.0001 0.734784 19.8947 0.48043 19.7072 0.292893C19.5196 0.105357 19.2653 0 19.0001 0L12.0001 0C11.2044 0 10.4414 0.31607 9.87875 0.87868C9.31614 1.44129 9.00007 2.20435 9.00007 3V4C8.46963 4 7.96093 4.21071 7.58585 4.58579C7.21078 4.96086 7.00007 5.46957 7.00007 6V7H17.0001V6Z" fill="currentColor"/>
</g>
<defs>
<clipPath id="clip0_406_1879">
<rect width="24" height="24" fill="white"/>
</clipPath>
</defs>
</svg>
