<svg width="24" height="24" viewBox="0 0 24 24" fill="none" xmlns="http://www.w3.org/2000/svg">
<g clip-path="url(#clip0_406_2209)">
<path d="M16.4238 21.9744C15.844 22.7647 15.0424 23.3649 14.1208 23.6986C13.1991 24.0322 12.1991 24.0844 11.2478 23.8484C8.59487 23.1203 6.17702 21.7146 4.23177 19.7694C2.28653 17.8241 0.880823 15.4063 0.152766 12.7534C-0.082578 11.8031 -0.0300713 10.8042 0.303613 9.88385C0.637297 8.96345 1.23709 8.16305 2.02677 7.58436C2.03707 11.3989 3.55742 15.0541 6.25535 17.7507C8.95328 20.4473 12.6093 21.9659 16.4238 21.9744ZM23.8318 3.67436L17.3998 20.0004H16.9998C15.2766 20.0598 13.5595 19.7642 11.9554 19.1319C10.3513 18.4997 8.89435 17.5442 7.67513 16.325C6.45592 15.1058 5.50048 13.6488 4.8682 12.0447C4.23593 10.4406 3.94033 8.72357 3.99977 7.00036V6.60036L20.2998 0.178364C20.789 0.000691667 21.3186 -0.0344384 21.827 0.0770591C22.3354 0.188557 22.8017 0.4421 23.1717 0.808201C23.5417 1.1743 23.8001 1.63792 23.917 2.14512C24.0338 2.65233 24.0043 3.18229 23.8318 3.67336V3.67436ZM11.9998 10.0004C11.9998 9.46993 11.7891 8.96122 11.414 8.58615C11.0389 8.21108 10.5302 8.00036 9.99977 8.00036C9.46933 8.00036 8.96063 8.21108 8.58555 8.58615C8.21048 8.96122 7.99977 9.46993 7.99977 10.0004C7.99977 10.5308 8.21048 11.0395 8.58555 11.4146C8.96063 11.7896 9.46933 12.0004 9.99977 12.0004C10.5302 12.0004 11.0389 11.7896 11.414 11.4146C11.7891 11.0395 11.9998 10.5308 11.9998 10.0004ZM18.1218 12.7164L20.6758 6.23036C16.4158 4.73836 14.0578 10.9064 18.1218 12.7164Z" fill="currentColor"/>
</g>
<defs>
<clipPath id="clip0_406_2209">
<rect width="24" height="24" fill="white"/>
</clipPath>
</defs>
</svg>
