<svg width="24" height="24" viewBox="0 0 24 24" fill="none" xmlns="http://www.w3.org/2000/svg">
<g clip-path="url(#clip0_406_1874)">
<path d="M12 4C11.7348 4 11.4804 3.89464 11.2929 3.70711C11.1054 3.51957 11 3.26522 11 3V1C11 0.734784 11.1054 0.48043 11.2929 0.292893C11.4804 0.105357 11.7348 0 12 0C12.2652 0 12.5196 0.105357 12.7071 0.292893C12.8946 0.48043 13 0.734784 13 1V3C13 3.26522 12.8946 3.51957 12.7071 3.70711C12.5196 3.89464 12.2652 4 12 4ZM13 23V21C13 20.7348 12.8946 20.4804 12.7071 20.2929C12.5196 20.1054 12.2652 20 12 20C11.7348 20 11.4804 20.1054 11.2929 20.2929C11.1054 20.4804 11 20.7348 11 21V23C11 23.2652 11.1054 23.5196 11.2929 23.7071C11.4804 23.8946 11.7348 24 12 24C12.2652 24 12.5196 23.8946 12.7071 23.7071C12.8946 23.5196 13 23.2652 13 23ZM4 12C4 11.7348 3.89464 11.4804 3.70711 11.2929C3.51957 11.1054 3.26522 11 3 11H1C0.734784 11 0.48043 11.1054 0.292893 11.2929C0.105357 11.4804 0 11.7348 0 12C0 12.2652 0.105357 12.5196 0.292893 12.7071C0.48043 12.8946 0.734784 13 1 13H3C3.26522 13 3.51957 12.8946 3.70711 12.7071C3.89464 12.5196 4 12.2652 4 12ZM24 12C24 11.7348 23.8946 11.4804 23.7071 11.2929C23.5196 11.1054 23.2652 11 23 11H21C20.7348 11 20.4804 11.1054 20.2929 11.2929C20.1054 11.4804 20 11.7348 20 12C20 12.2652 20.1054 12.5196 20.2929 12.7071C20.4804 12.8946 20.7348 13 21 13H23C23.2652 13 23.5196 12.8946 23.7071 12.7071C23.8946 12.5196 24 12.2652 24 12ZM17.379 4.715L18.379 2.984C18.5022 2.75505 18.5314 2.48712 18.4604 2.23701C18.3894 1.9869 18.2238 1.77428 17.9986 1.64422C17.7735 1.51417 17.5066 1.4769 17.2544 1.54033C17.0023 1.60376 16.7848 1.7629 16.648 1.984L15.648 3.715C15.5153 3.94456 15.4792 4.21741 15.5477 4.47357C15.6161 4.72973 15.7835 4.94822 16.013 5.081C16.1647 5.1697 16.3373 5.21631 16.513 5.216C16.6886 5.21589 16.8611 5.16953 17.0132 5.08159C17.1652 4.99364 17.2914 4.8672 17.379 4.715ZM7.349 22.015L8.349 20.284C8.47221 20.0551 8.5014 19.7871 8.4304 19.537C8.35939 19.2869 8.19377 19.0743 7.96864 18.9442C7.74351 18.8142 7.47658 18.7769 7.22445 18.8403C6.97231 18.9038 6.75479 19.0629 6.618 19.284L5.618 21.015C5.48523 21.2444 5.44899 21.5172 5.51725 21.7733C5.5855 22.0295 5.75267 22.2481 5.982 22.381C6.13372 22.4696 6.3063 22.5162 6.482 22.516C6.65751 22.5164 6.83002 22.4706 6.98221 22.3831C7.13439 22.2957 7.2609 22.1698 7.349 22.018V22.015ZM5.079 7.987C5.21177 7.75756 5.24801 7.4848 5.17975 7.22865C5.1115 6.97251 4.94433 6.75395 4.715 6.621L2.984 5.621C2.75505 5.49779 2.48712 5.4686 2.23701 5.5396C1.9869 5.61061 1.77428 5.77623 1.64422 6.00136C1.51417 6.22649 1.4769 6.49342 1.54033 6.74555C1.60376 6.99769 1.7629 7.21521 1.984 7.352L3.715 8.352C3.94456 8.48469 4.21741 8.52077 4.47357 8.45233C4.72973 8.38388 4.94822 8.2165 5.081 7.987H5.079ZM22.379 18.018C22.4449 17.9044 22.4878 17.7788 22.5051 17.6486C22.5225 17.5184 22.514 17.386 22.4802 17.2591C22.4464 17.1321 22.3879 17.0131 22.3081 16.9088C22.2283 16.8044 22.1287 16.7168 22.015 16.651L20.284 15.651C20.0551 15.5278 19.7871 15.4986 19.537 15.5696C19.2869 15.6406 19.0743 15.8062 18.9442 16.0314C18.8142 16.2565 18.7769 16.5234 18.8403 16.7756C18.9038 17.0277 19.0629 17.2452 19.284 17.382L21.015 18.382C21.1667 18.4707 21.3393 18.5173 21.515 18.517C21.6906 18.5173 21.8632 18.4713 22.0154 18.3837C22.1676 18.2961 22.294 18.17 22.382 18.018H22.379ZM7.987 5.079C8.2165 4.94622 8.38388 4.72773 8.45233 4.47157C8.52077 4.21541 8.48469 3.94256 8.352 3.713L7.352 1.982C7.21521 1.7609 6.99769 1.60176 6.74555 1.53833C6.49342 1.4749 6.22649 1.51217 6.00136 1.64222C5.77623 1.77228 5.61061 1.9849 5.5396 2.23501C5.4686 2.48512 5.49779 2.75305 5.621 2.982L6.621 4.713C6.70877 4.86502 6.835 4.99125 6.98701 5.07902C7.13903 5.16679 7.31147 5.213 7.487 5.213C7.66262 5.21361 7.83522 5.16735 7.987 5.079ZM18.018 22.379C18.2473 22.2461 18.4145 22.0275 18.4828 21.7713C18.551 21.5152 18.5148 21.2424 18.382 21.013L17.382 19.282C17.2452 19.0609 17.0277 18.9018 16.7756 18.8383C16.5234 18.7749 16.2565 18.8122 16.0314 18.9422C15.8062 19.0723 15.6406 19.2849 15.5696 19.535C15.4986 19.7851 15.5278 20.0531 15.651 20.282L16.651 22.013C16.7168 22.1267 16.8044 22.2263 16.9088 22.3061C17.0131 22.3859 17.1321 22.4444 17.2591 22.4782C17.386 22.512 17.5184 22.5205 17.6486 22.5031C17.7788 22.4858 17.9044 22.4429 18.018 22.377V22.379ZM20.287 8.349L22.018 7.349C22.2391 7.21221 22.3982 6.99469 22.4617 6.74255C22.5251 6.49042 22.4878 6.22349 22.3578 5.99836C22.2277 5.77323 22.0151 5.60761 21.765 5.5366C21.5149 5.4656 21.2469 5.49479 21.018 5.618L19.287 6.618C19.0659 6.75479 18.9068 6.97231 18.8433 7.22445C18.7799 7.47658 18.8172 7.74351 18.9472 7.96864C19.0773 8.19377 19.2899 8.35939 19.54 8.4304C19.7901 8.5014 20.0581 8.47221 20.287 8.349ZM2.987 18.379L4.718 17.379C4.9391 17.2422 5.09824 17.0247 5.16167 16.7726C5.2251 16.5204 5.18783 16.2535 5.05778 16.0284C4.92772 15.8032 4.7151 15.6376 4.46499 15.5666C4.21488 15.4956 3.94695 15.5248 3.718 15.648L1.987 16.648C1.79637 16.7581 1.64739 16.928 1.56315 17.1313C1.47892 17.3347 1.46415 17.5602 1.52112 17.7728C1.57809 17.9854 1.70363 18.1733 1.87827 18.3073C2.0529 18.4413 2.26687 18.514 2.487 18.514C2.66142 18.5147 2.83291 18.4691 2.984 18.382L2.987 18.379Z" fill="currentColor"/>
</g>
<defs>
<clipPath id="clip0_406_1874">
<rect width="24" height="24" fill="white"/>
</clipPath>
</defs>
</svg>
