<svg width="24" height="24" viewBox="0 0 24 24" fill="none" xmlns="http://www.w3.org/2000/svg">
<g clip-path="url(#clip0_406_2049)">
<path d="M19 18H23.54C23.1909 18.9254 22.6485 19.7658 21.949 20.465L20.465 21.95C19.7653 22.6487 18.9251 23.1907 18 23.54V19C18 18.7348 18.1054 18.4804 18.2929 18.2929C18.4804 18.1054 18.7348 18 19 18ZM24 5V15.515C24 15.678 23.987 15.839 23.976 16H19C18.2044 16 17.4413 16.3161 16.8787 16.8787C16.3161 17.4413 16 18.2044 16 19V23.976C15.839 23.987 15.678 24 15.515 24H5C3.67441 23.9984 2.40356 23.4711 1.46622 22.5338C0.528882 21.5964 0.00158786 20.3256 0 19L0 5C0.00158786 3.67441 0.528882 2.40356 1.46622 1.46622C2.40356 0.528882 3.67441 0.00158786 5 0L19 0C20.3256 0.00158786 21.5964 0.528882 22.5338 1.46622C23.4711 2.40356 23.9984 3.67441 24 5ZM7 7.75C7 7.55109 6.92098 7.36032 6.78033 7.21967C6.63968 7.07902 6.44891 7 6.25 7H5.5C5.36739 7 5.24021 7.05268 5.14645 7.14645C5.05268 7.24021 5 7.36739 5 7.5C5 7.63261 5.05268 7.75979 5.14645 7.85355C5.24021 7.94732 5.36739 8 5.5 8H5.749V8.084C5.74283 8.27939 5.66152 8.46487 5.52199 8.60179C5.38245 8.73872 5.19547 8.81652 5 8.819C4.90121 8.81994 4.80323 8.80114 4.7118 8.76371C4.62037 8.72627 4.53734 8.67096 4.46757 8.60101C4.39781 8.53106 4.34271 8.44788 4.30552 8.35635C4.26833 8.26482 4.2498 8.16679 4.251 8.068V6C4.24993 5.9013 4.26857 5.80337 4.30582 5.71196C4.34307 5.62055 4.39818 5.53749 4.46793 5.46764C4.53768 5.3978 4.62067 5.34257 4.71203 5.3052C4.80339 5.26783 4.90129 5.24906 5 5.25C5.13651 5.25416 5.26954 5.29413 5.38573 5.36592C5.50192 5.43771 5.59719 5.53878 5.662 5.659C5.70008 5.73188 5.75215 5.79655 5.81523 5.84931C5.8783 5.90208 5.95115 5.9419 6.02962 5.96651C6.10808 5.99111 6.19063 6.00002 6.27254 5.99273C6.35445 5.98544 6.43412 5.96208 6.507 5.924C6.57988 5.88592 6.64455 5.83385 6.69731 5.77077C6.75008 5.7077 6.7899 5.63485 6.81451 5.55638C6.83911 5.47792 6.84802 5.39537 6.84073 5.31346C6.83344 5.23155 6.81008 5.15188 6.772 5.079C6.60165 4.75586 6.34694 4.4849 6.03493 4.29491C5.72293 4.10493 5.36528 4.00301 5 4C4.73829 3.99882 4.47891 4.04924 4.2367 4.14839C3.99449 4.24755 3.77421 4.39348 3.58845 4.57784C3.40269 4.7622 3.25511 4.98138 3.15414 5.22284C3.05316 5.46429 3.00079 5.72328 3 5.985V8.085C3.00079 8.34672 3.05316 8.60571 3.15414 8.84716C3.25511 9.08862 3.40269 9.3078 3.58845 9.49216C3.77421 9.67652 3.99449 9.82245 4.2367 9.92161C4.47891 10.0208 4.73829 10.0712 5 10.07C5.52802 10.07 6.03461 9.86122 6.40929 9.48917C6.78396 9.11712 6.9963 8.612 7 8.084V7.75ZM10 4.625C10 4.45924 9.93415 4.30027 9.81694 4.18306C9.69973 4.06585 9.54076 4 9.375 4C9.20924 4 9.05027 4.06585 8.93306 4.18306C8.81585 4.30027 8.75 4.45924 8.75 4.625V9.444C8.75 9.60976 8.81585 9.76873 8.93306 9.88594C9.05027 10.0032 9.20924 10.069 9.375 10.069C9.54076 10.069 9.69973 10.0032 9.81694 9.88594C9.93415 9.76873 10 9.60976 10 9.444V4.625ZM13 6.388V5.25H14.388C14.5538 5.25 14.7127 5.18415 14.8299 5.06694C14.9472 4.94973 15.013 4.79076 15.013 4.625C15.013 4.45924 14.9472 4.30027 14.8299 4.18306C14.7127 4.06585 14.5538 4 14.388 4H12.375C12.2092 4 12.0503 4.06585 11.9331 4.18306C11.8158 4.30027 11.75 4.45924 11.75 4.625V9.436C11.75 9.60176 11.8158 9.76073 11.9331 9.87794C12.0503 9.99515 12.2092 10.061 12.375 10.061C12.5408 10.061 12.6997 9.99515 12.8169 9.87794C12.9342 9.76073 13 9.60176 13 9.436V7.636H14.239C14.4048 7.636 14.5637 7.57015 14.6809 7.45294C14.7982 7.33573 14.864 7.17676 14.864 7.011C14.864 6.84524 14.7982 6.68627 14.6809 6.56906C14.5637 6.45185 14.4048 6.386 14.239 6.386L13 6.388Z" fill="currentColor"/>
</g>
<defs>
<clipPath id="clip0_406_2049">
<rect width="24" height="24" fill="white"/>
</clipPath>
</defs>
</svg>
