<svg width="24" height="24" viewBox="0 0 24 24" fill="none" xmlns="http://www.w3.org/2000/svg">
<g clip-path="url(#clip0_406_1864)">
<path d="M20.732 4.792C21.1392 4.93532 21.5684 5.00573 22 5C22.2652 5 22.5196 4.89464 22.7071 4.70711C22.8946 4.51957 23 4.26522 23 4C23 3.73478 22.8946 3.48043 22.7071 3.29289C22.5196 3.10536 22.2652 3 22 3C21.215 3 21 2.785 21 2C21 1.73478 20.8946 1.48043 20.7071 1.29289C20.5196 1.10536 20.2652 1 20 1C19.7348 1 19.4804 1.10536 19.2929 1.29289C19.1054 1.48043 19 1.73478 19 2C18.9942 2.48663 19.0895 2.96916 19.28 3.417L18.574 4.201C16.9519 2.98027 15.0217 2.23576 13 2.051V1C13 0.734784 12.8946 0.48043 12.7071 0.292893C12.5196 0.105357 12.2652 0 12 0C11.7348 0 11.4804 0.105357 11.2929 0.292893C11.1054 0.48043 11 0.734784 11 1V2.051C8.97841 2.23546 7.04822 2.97963 5.42601 4.2L4.72001 3.417C4.91048 2.96916 5.00583 2.48663 5.00001 2C5.00001 1.73478 4.89465 1.48043 4.70711 1.29289C4.51958 1.10536 4.26522 1 4.00001 1C3.73479 1 3.48044 1.10536 3.2929 1.29289C3.10536 1.48043 3.00001 1.73478 3.00001 2C3.00001 2.785 2.78501 3 2.00001 3C1.73479 3 1.48044 3.10536 1.2929 3.29289C1.10536 3.48043 1.00001 3.73478 1.00001 4C1.00001 4.26522 1.10536 4.51957 1.2929 4.70711C1.48044 4.89464 1.73479 5 2.00001 5C2.43161 5.00573 2.86085 4.93532 3.26801 4.792L3.94001 5.539C2.483 7.10778 1.51547 9.06766 1.15608 11.1783C0.796696 13.2889 1.06107 15.4586 1.91677 17.4212C2.77248 19.3837 4.18232 21.0539 5.97342 22.2269C7.76451 23.3999 9.85899 24.0247 12 24.0247C14.141 24.0247 16.2355 23.3999 18.0266 22.2269C19.8177 21.0539 21.2275 19.3837 22.0832 17.4212C22.9389 15.4586 23.2033 13.2889 22.8439 11.1783C22.4845 9.06766 21.517 7.10778 20.06 5.539L20.732 4.792ZM12 15C11.5601 15.0015 11.1321 14.8575 10.7825 14.5904C10.433 14.3233 10.1816 13.9481 10.0675 13.5233C9.95341 13.0984 9.98298 12.6478 10.1516 12.2415C10.3203 11.8352 10.6186 11.4961 11 11.277V7C11 6.73478 11.1054 6.48043 11.2929 6.29289C11.4804 6.10536 11.7348 6 12 6C12.2652 6 12.5196 6.10536 12.7071 6.29289C12.8946 6.48043 13 6.73478 13 7V11.277C13.3814 11.4961 13.6797 11.8352 13.8484 12.2415C14.017 12.6478 14.0466 13.0984 13.9325 13.5233C13.8184 13.9481 13.567 14.3233 13.2175 14.5904C12.8679 14.8575 12.4399 15.0015 12 15Z" fill="currentColor"/>
</g>
<defs>
<clipPath id="clip0_406_1864">
<rect width="24" height="24" fill="white"/>
</clipPath>
</defs>
</svg>
