<svg width="24" height="24" viewBox="0 0 24 24" fill="none" xmlns="http://www.w3.org/2000/svg">
<g clip-path="url(#clip0_406_2141)">
<path d="M21.4998 2.00087H13.4998C12.8367 2.00087 12.2008 2.26426 11.732 2.7331C11.2632 3.20194 10.9998 3.83783 10.9998 4.50087V4.80087L9.73478 2.60687C9.57499 2.31163 9.35818 2.05106 9.09691 1.84026C8.83564 1.62946 8.53512 1.47263 8.21278 1.37887C7.67663 1.228 7.10546 1.26048 6.58987 1.47117C6.07429 1.68186 5.64383 2.05869 5.36678 2.54187L0.374788 11.1879C0.199664 11.4739 0.0829829 11.7919 0.0314898 12.1233C-0.0200034 12.4548 -0.00528679 12.7931 0.0747887 13.1189C0.212212 13.6575 0.525257 14.135 0.964435 14.4759C1.40361 14.8167 1.94387 15.0014 2.49979 15.0009H5.19978C4.89785 16.0539 4.84461 17.1627 5.04425 18.2398C5.2439 19.3169 5.69099 20.333 6.35027 21.2079C7.00955 22.0828 7.86302 22.7926 8.8434 23.2814C9.82379 23.7702 10.9043 24.0246 11.9998 24.0246C13.0953 24.0246 14.1758 23.7702 15.1561 23.2814C16.1365 22.7926 16.99 22.0828 17.6493 21.2079C18.3086 20.333 18.7556 19.3169 18.9553 18.2398C19.1549 17.1627 19.1017 16.0539 18.7998 15.0009H21.4998C21.8281 15.0009 22.1532 14.9362 22.4565 14.8106C22.7598 14.6849 23.0354 14.5008 23.2675 14.2686C23.4997 14.0365 23.6838 13.7609 23.8095 13.4576C23.9351 13.1543 23.9998 12.8292 23.9998 12.5009V4.50087C23.9998 4.17256 23.9351 3.84747 23.8095 3.54416C23.6838 3.24085 23.4997 2.96525 23.2675 2.7331C23.0354 2.50096 22.7598 2.31681 22.4565 2.19117C22.1532 2.06554 21.8281 2.00087 21.4998 2.00087ZM3.36978 12.0009L7.53178 4.79187L10.5418 10.0009C9.16486 10.2921 7.90656 10.9886 6.92878 12.0009H3.36978ZM11.9998 21.0008C11.194 21.0008 10.4063 20.7619 9.73638 20.3143C9.06642 19.8666 8.54424 19.2303 8.23589 18.4859C7.92754 17.7415 7.84686 16.9223 8.00406 16.1321C8.16126 15.3418 8.54927 14.6159 9.11903 14.0461C9.68878 13.4763 10.4147 13.0883 11.205 12.9311C11.9953 12.7739 12.8144 12.8546 13.5588 13.163C14.3033 13.4713 14.9395 13.9935 15.3872 14.6635C15.8348 15.3334 16.0738 16.1211 16.0738 16.9269C16.0724 18.0069 15.6428 19.0424 14.8791 19.8061C14.1153 20.5699 13.0799 20.9995 11.9998 21.0008ZM20.9998 12.0009H17.0708C16.2137 11.1398 15.1596 10.5007 13.9998 10.1389V5.00087H20.9998V12.0009Z" fill="currentColor"/>
</g>
<defs>
<clipPath id="clip0_406_2141">
<rect width="24" height="24" fill="white"/>
</clipPath>
</defs>
</svg>
