<svg width="24" height="24" viewBox="0 0 24 24" fill="none" xmlns="http://www.w3.org/2000/svg">
<g clip-path="url(#clip0_406_2131)">
<path d="M19.9999 6.99983V0.999826C19.9999 0.734609 20.1053 0.480255 20.2928 0.292719C20.4804 0.105182 20.7347 -0.000174412 20.9999 -0.000174412C21.2652 -0.000174412 21.5195 0.105182 21.7071 0.292719C21.8946 0.480255 21.9999 0.734609 21.9999 0.999826V6.99983C21.9999 7.26504 21.8946 7.5194 21.7071 7.70693C21.5195 7.89447 21.2652 7.99983 20.9999 7.99983C20.7347 7.99983 20.4804 7.89447 20.2928 7.70693C20.1053 7.5194 19.9999 7.26504 19.9999 6.99983ZM16.9999 7.99983C17.2652 7.99983 17.5195 7.89447 17.7071 7.70693C17.8946 7.5194 17.9999 7.26504 17.9999 6.99983V0.999826C17.9999 0.734609 17.8946 0.480255 17.7071 0.292719C17.5195 0.105182 17.2652 -0.000174412 16.9999 -0.000174412C16.7347 -0.000174412 16.4804 0.105182 16.2928 0.292719C16.1053 0.480255 15.9999 0.734609 15.9999 0.999826V6.99983C15.9999 7.26504 16.1053 7.5194 16.2928 7.70693C16.4804 7.89447 16.7347 7.99983 16.9999 7.99983ZM23.0939 16.7378C23.0639 16.7068 20.6569 14.8548 20.6569 14.8548C20.0793 14.3047 19.3118 13.9984 18.514 13.9997C17.7163 14.0011 16.9498 14.3098 16.3739 14.8618L14.4739 16.4678C12.917 15.8245 11.5026 14.8797 10.3121 13.6878C9.12162 12.496 8.17848 11.0805 7.53695 9.52283L9.13695 7.62283C9.6878 7.04684 9.99566 6.28082 9.99659 5.48383C9.99752 4.68683 9.69146 3.9201 9.14195 3.34283C9.14195 3.34283 7.29195 0.939826 7.25995 0.908826C6.68975 0.333661 5.91595 0.006232 5.10609 -0.00256467C4.29624 -0.0113613 3.5155 0.299182 2.93295 0.861826L1.78395 1.86183C-5.93705 10.0708 13.9839 30.0008 22.1839 22.1618L23.0959 21.1118C23.6737 20.5307 23.9978 19.7444 23.9974 18.9249C23.997 18.1054 23.6722 17.3195 23.0939 16.7388V16.7378Z" fill="currentColor"/>
</g>
<defs>
<clipPath id="clip0_406_2131">
<rect width="24" height="24" fill="white"/>
</clipPath>
</defs>
</svg>
