<svg width="24" height="24" viewBox="0 0 24 24" fill="none" xmlns="http://www.w3.org/2000/svg">
<g clip-path="url(#clip0_406_2142)">
<path d="M24 11.5069C23.998 10.9981 23.9308 10.4917 23.8 9.99994H2.67298C2.29836 9.99945 1.93131 10.1054 1.61458 10.3055C1.29785 10.5055 1.04448 10.7914 0.883979 11.1299C-0.647022 14.8389 -0.531021 23.9199 4.83298 23.9999H7.76298C8.074 23.9988 8.37697 23.9009 8.62994 23.72C8.88291 23.539 9.07338 23.2839 9.17498 22.9899C9.38932 22.4135 9.77484 21.9165 10.2798 21.5655C10.7848 21.2146 11.385 21.0265 12 21.0265C12.6149 21.0265 13.2152 21.2146 13.7201 21.5655C14.2251 21.9165 14.6106 22.4135 14.825 22.9899C14.9266 23.2839 15.117 23.539 15.37 23.72C15.623 23.9009 15.926 23.9988 16.237 23.9999H18.8C19.4716 24.0202 20.1404 23.9062 20.7673 23.6646C21.3943 23.423 21.9667 23.0587 22.451 22.593C22.9353 22.1273 23.3218 21.5696 23.5878 20.9527C23.8538 20.3357 23.9939 19.6718 24 18.9999V11.5069ZM6.99998 16.9999C6.46955 16.9999 5.96084 16.7892 5.58577 16.4142C5.21069 16.0391 4.99998 15.5304 4.99998 14.9999C4.99998 14.4695 5.21069 13.9608 5.58577 13.5857C5.96084 13.2107 6.46955 12.9999 6.99998 12.9999C7.53041 12.9999 8.03912 13.2107 8.41419 13.5857C8.78926 13.9608 8.99998 14.4695 8.99998 14.9999C8.99998 15.5304 8.78926 16.0391 8.41419 16.4142C8.03912 16.7892 7.53041 16.9999 6.99998 16.9999ZM18 18.9999C17.4695 18.9999 16.9608 18.7892 16.5858 18.4142C16.2107 18.0391 16 17.5304 16 16.9999C16 16.4695 16.2107 15.9608 16.5858 15.5857C16.9608 15.2107 17.4695 14.9999 18 14.9999C18.5304 14.9999 19.0391 15.2107 19.4142 15.5857C19.7893 15.9608 20 16.4695 20 16.9999C20 17.5304 19.7893 18.0391 19.4142 18.4142C19.0391 18.7892 18.5304 18.9999 18 18.9999ZM22.853 7.99994H2.67298C2.49565 8.00127 2.3186 8.0143 2.14298 8.03894C3.53821 5.25638 5.55737 2.83374 8.04298 0.959944C8.86704 0.355684 9.85759 0.0206356 10.8793 0.000588949C11.9009 -0.0194577 12.9039 0.276476 13.751 0.847944L17.951 3.97994L21.589 6.69994C22.0741 7.06637 22.5003 7.50476 22.853 7.99994Z" fill="currentColor"/>
</g>
<defs>
<clipPath id="clip0_406_2142">
<rect width="24" height="24" fill="white"/>
</clipPath>
</defs>
</svg>
