<svg width="24" height="24" viewBox="0 0 24 24" fill="none" xmlns="http://www.w3.org/2000/svg">
<g clip-path="url(#clip0_406_2215)">
<path d="M20.044 1.02C24.2 0.761 25.71 9.091 21.5 12.932C20.8908 13.5685 20.1622 14.0787 19.3558 14.4335C18.5493 14.7884 17.6809 14.9808 16.8 15C15.4995 15.0207 14.2078 14.7828 13 14.3V5.38C15.018 3.134 17.512 1.02 20.044 1.02ZM12 4C12.5305 4 13.0392 3.78929 13.4143 3.41421C13.7893 3.03914 14 2.53043 14 2C14 1.46957 13.7893 0.960859 13.4143 0.585786C13.0392 0.210714 12.5305 0 12 0C11.4696 0 10.9609 0.210714 10.5858 0.585786C10.2108 0.960859 10 1.46957 10 2C10 2.53043 10.2108 3.03914 10.5858 3.41421C10.9609 3.78929 11.4696 4 12 4ZM16.791 17C15.1414 17.0086 13.5085 16.6678 12 16C9.90004 17.11 4.80004 17.783 1.78704 14.975C1.3709 15.7569 1.11626 16.6146 1.03827 17.4969C0.960277 18.3792 1.06052 19.2682 1.33304 20.111C1.50139 20.6837 1.79514 21.2118 2.19296 21.6568C2.59079 22.1018 3.08272 22.4527 3.63304 22.684C4.16698 22.9125 4.74511 23.0192 5.32543 22.9963C5.90575 22.9735 6.4737 22.8217 6.98804 22.552C8.46668 21.7852 9.8196 20.7971 11 19.622V22C11 22.2652 11.1054 22.5196 11.2929 22.7071C11.4805 22.8946 11.7348 23 12 23C12.2653 23 12.5196 22.8946 12.7071 22.7071C12.8947 22.5196 13 22.2652 13 22V19.622C14.1823 20.7976 15.5373 21.7857 17.018 22.552C17.5324 22.8217 18.1003 22.9735 18.6807 22.9963C19.261 23.0192 19.8391 22.9125 20.373 22.684C20.9234 22.4527 21.4153 22.1018 21.8131 21.6568C22.2109 21.2118 22.5047 20.6837 22.673 20.111C22.9456 19.2682 23.0458 18.3792 22.9678 17.4969C22.8898 16.6146 22.6352 15.7569 22.219 14.975C20.6996 16.2596 18.7806 16.9755 16.791 17ZM7.20604 15C8.50451 15.0193 9.79394 14.7813 11 14.3V5.373C7.52004 1.116 0.239042 -2.567 0.00604248 7.284C0.0693187 9.42131 0.966664 11.4489 2.50604 12.933C3.74357 14.208 5.42991 14.9497 7.20604 15Z" fill="currentColor"/>
</g>
<defs>
<clipPath id="clip0_406_2215">
<rect width="24" height="24" fill="white"/>
</clipPath>
</defs>
</svg>
