<svg width="24" height="24" viewBox="0 0 24 24" fill="none" xmlns="http://www.w3.org/2000/svg">
<g clip-path="url(#clip0_406_2219)">
<path d="M12.9998 21.9999H5.68284C4.34957 21.9759 3.0646 21.4967 2.04124 20.6418C1.01787 19.7868 0.317662 18.6076 0.0568404 17.2999C-0.11299 16.1746 0.0739512 15.0244 0.591404 14.0109C1.10886 12.9973 1.93082 12.1713 2.94184 11.6489C2.07369 10.0703 1.79039 8.23591 2.14184 6.4689C2.48369 4.72123 3.39889 3.13758 4.74247 1.9688C6.08604 0.800028 7.78117 0.112951 9.55935 0.0164088C11.3375 -0.0801338 13.0971 0.419377 14.5593 1.43582C16.0215 2.45226 17.1028 3.92752 17.6318 5.6279C17.6822 5.79999 17.7744 5.95692 17.9002 6.08466C18.026 6.2124 18.1815 6.30697 18.3528 6.35991C19.4549 6.69741 20.4713 7.26836 21.3328 8.03391C21.2228 8.0259 21.1148 7.99991 20.9998 7.99991C19.8293 8.00148 18.6964 8.41293 17.7976 9.1628C16.8988 9.91268 16.2911 10.9536 16.0798 12.1049L15.2328 12.5289C14.5402 12.1802 13.7753 11.999 12.9998 11.9999C11.6738 11.9999 10.402 12.5267 9.46431 13.4644C8.52662 14.4021 7.99984 15.6738 7.99984 16.9999C7.99984 18.326 8.52662 19.5978 9.46431 20.5354C10.402 21.4731 11.6738 21.9999 12.9998 21.9999ZM20.9998 15.9999C21.5932 15.9999 22.1732 15.824 22.6665 15.4943C23.1599 15.1647 23.5444 14.6961 23.7715 14.148C23.9985 13.5998 24.058 12.9966 23.9422 12.4146C23.8264 11.8327 23.5407 11.2981 23.1212 10.8786C22.7016 10.459 22.1671 10.1733 21.5851 10.0575C21.0032 9.94179 20.4 10.0012 19.8518 10.2283C19.3036 10.4553 18.8351 10.8398 18.5054 11.3332C18.1758 11.8265 17.9998 12.4066 17.9998 12.9999C18.0045 13.1216 18.0169 13.2428 18.0368 13.3629L15.0768 14.8439C14.6535 14.4342 14.1188 14.1583 13.5396 14.0505C12.9604 13.9428 12.3623 14.0079 11.8199 14.2378C11.2775 14.4678 10.8148 14.8523 10.4895 15.3435C10.1642 15.8347 9.99078 16.4108 9.99078 16.9999C9.99078 17.589 10.1642 18.1651 10.4895 18.6563C10.8148 19.1475 11.2775 19.5321 11.8199 19.762C12.3623 19.9919 12.9604 20.0571 13.5396 19.9493C14.1188 19.8415 14.6535 19.5656 15.0768 19.1559L18.0368 20.6369C18.0169 20.757 18.0045 20.8783 17.9998 20.9999C17.9963 21.6957 18.2336 22.3713 18.6714 22.9121C19.1091 23.4529 19.7205 23.8256 20.4017 23.9671C21.083 24.1086 21.7922 24.0101 22.4091 23.6883C23.026 23.3665 23.5127 22.8413 23.7865 22.2016C24.0603 21.562 24.1045 20.8474 23.9115 20.1789C23.7186 19.5104 23.3003 18.9292 22.7277 18.5339C22.1551 18.1386 21.4635 17.9535 20.77 18.01C20.0765 18.0665 19.4239 18.3611 18.9228 18.8439L15.9628 17.3629C15.9828 17.2428 15.9951 17.1216 15.9998 16.9999C15.9951 16.8783 15.9828 16.757 15.9628 16.6369L18.9228 15.1559C19.4793 15.6963 20.2242 15.999 20.9998 15.9999Z" fill="currentColor"/>
</g>
<defs>
<clipPath id="clip0_406_2219">
<rect width="24" height="24" fill="white"/>
</clipPath>
</defs>
</svg>
