<svg width="24" height="24" viewBox="0 0 24 24" fill="none" xmlns="http://www.w3.org/2000/svg">
<g clip-path="url(#clip0_406_2294)">
<path d="M0 9V18C0.00158786 19.3256 0.528882 20.5964 1.46622 21.5338C2.40356 22.4711 3.67441 22.9984 5 23H19C20.3256 22.9984 21.5964 22.4711 22.5338 21.5338C23.4711 20.5964 23.9984 19.3256 24 18V9H0ZM14 19H6C5.73478 19 5.48043 18.8946 5.29289 18.7071C5.10536 18.5196 5 18.2652 5 18C5 17.7348 5.10536 17.4804 5.29289 17.2929C5.48043 17.1054 5.73478 17 6 17H14C14.2652 17 14.5196 17.1054 14.7071 17.2929C14.8946 17.4804 15 17.7348 15 18C15 18.2652 14.8946 18.5196 14.7071 18.7071C14.5196 18.8946 14.2652 19 14 19ZM18 15H6C5.73478 15 5.48043 14.8946 5.29289 14.7071C5.10536 14.5196 5 14.2652 5 14C5 13.7348 5.10536 13.4804 5.29289 13.2929C5.48043 13.1054 5.73478 13 6 13H18C18.2652 13 18.5196 13.1054 18.7071 13.2929C18.8946 13.4804 19 13.7348 19 14C19 14.2652 18.8946 14.5196 18.7071 14.7071C18.5196 14.8946 18.2652 15 18 15ZM24 7V6C23.9984 4.67441 23.4711 3.40356 22.5338 2.46622C21.5964 1.52888 20.3256 1.00159 19 1H5C3.67441 1.00159 2.40356 1.52888 1.46622 2.46622C0.528882 3.40356 0.00158786 4.67441 0 6L0 7H24ZM10 3C10.1978 3 10.3911 3.05865 10.5556 3.16853C10.72 3.27841 10.8482 3.43459 10.9239 3.61732C10.9996 3.80004 11.0194 4.00111 10.9808 4.19509C10.9422 4.38907 10.847 4.56725 10.7071 4.70711C10.5673 4.84696 10.3891 4.9422 10.1951 4.98079C10.0011 5.01937 9.80004 4.99957 9.61732 4.92388C9.43459 4.84819 9.27841 4.72002 9.16853 4.55557C9.05865 4.39112 9 4.19778 9 4C9 3.73478 9.10536 3.48043 9.29289 3.29289C9.48043 3.10536 9.73478 3 10 3ZM7 3C7.19778 3 7.39112 3.05865 7.55557 3.16853C7.72002 3.27841 7.84819 3.43459 7.92388 3.61732C7.99957 3.80004 8.01937 4.00111 7.98079 4.19509C7.9422 4.38907 7.84696 4.56725 7.70711 4.70711C7.56725 4.84696 7.38907 4.9422 7.19509 4.98079C7.00111 5.01937 6.80004 4.99957 6.61732 4.92388C6.43459 4.84819 6.27841 4.72002 6.16853 4.55557C6.05865 4.39112 6 4.19778 6 4C6 3.73478 6.10536 3.48043 6.29289 3.29289C6.48043 3.10536 6.73478 3 7 3ZM4 3C4.19778 3 4.39112 3.05865 4.55557 3.16853C4.72002 3.27841 4.84819 3.43459 4.92388 3.61732C4.99957 3.80004 5.01937 4.00111 4.98079 4.19509C4.9422 4.38907 4.84696 4.56725 4.70711 4.70711C4.56725 4.84696 4.38907 4.9422 4.19509 4.98079C4.00111 5.01937 3.80004 4.99957 3.61732 4.92388C3.43459 4.84819 3.27841 4.72002 3.16853 4.55557C3.05865 4.39112 3 4.19778 3 4C3 3.73478 3.10536 3.48043 3.29289 3.29289C3.48043 3.10536 3.73478 3 4 3Z" fill="currentColor"/>
</g>
<defs>
<clipPath id="clip0_406_2294">
<rect width="24" height="24" fill="white"/>
</clipPath>
</defs>
</svg>
