<svg width="24" height="24" viewBox="0 0 24 24" fill="none" xmlns="http://www.w3.org/2000/svg">
<g clip-path="url(#clip0_406_2186)">
<path d="M0.142 3.99939C0.363049 3.14324 0.861548 2.38447 1.55957 1.84169C2.25759 1.2989 3.11579 1.0027 4 0.99939H15C15.8842 1.0027 16.7424 1.2989 17.4404 1.84169C18.1385 2.38447 18.637 3.14324 18.858 3.99939H0.142ZM8.942 19.9994C8.97863 20.1636 8.99807 20.3312 9 20.4994C9 21.1624 8.73661 21.7983 8.26777 22.2672C7.79893 22.736 7.16304 22.9994 6.5 22.9994C5.83696 22.9994 5.20107 22.736 4.73223 22.2672C4.26339 21.7983 4 21.1624 4 20.4994C4.00193 20.3312 4.02137 20.1636 4.058 19.9994H8.942ZM19.942 19.9994C19.9786 20.1636 19.9981 20.3312 20 20.4994C20 21.1624 19.7366 21.7983 19.2678 22.2672C18.7989 22.736 18.163 22.9994 17.5 22.9994C16.837 22.9994 16.2011 22.736 15.7322 22.2672C15.2634 21.7983 15 21.1624 15 20.4994C15.0019 20.3312 15.0214 20.1636 15.058 19.9994H19.942ZM10 17.9994H13V5.99939H10V17.9994ZM19 9.99939V5.99939H15V9.99939H19ZM8 9.99939V5.99939H5V9.99939H8ZM20 11.9994H15V17.9994H22C22.5304 17.9994 23.0391 17.7887 23.4142 17.4136C23.7893 17.0385 24 16.5298 24 15.9994C24 14.9385 23.5786 13.9211 22.8284 13.171C22.0783 12.4208 21.0609 11.9994 20 11.9994ZM3 9.99939V5.99939H0V9.99939H3ZM8 11.9994H0V14.9994C0 15.795 0.31607 16.5581 0.87868 17.1207C1.44129 17.6833 2.20435 17.9994 3 17.9994H8V11.9994Z" fill="currentColor"/>
</g>
<defs>
<clipPath id="clip0_406_2186">
<rect width="24" height="24" fill="white"/>
</clipPath>
</defs>
</svg>
