<svg width="24" height="24" viewBox="0 0 24 24" fill="none" xmlns="http://www.w3.org/2000/svg">
<g clip-path="url(#clip0_403_3019)">
<path d="M14.9569 10.3555C14.958 10.6999 15.2375 10.9785 15.5819 10.9785C15.5819 10.9785 16.6538 10.9785 17.0678 10.9665C18.5999 10.9405 19.6998 9.60851 19.6998 7.80054C19.6998 5.90056 18.6198 4.62256 17.0138 4.62256H15.5708C15.2253 4.62368 14.9459 4.90404 14.9459 5.24956L14.9569 10.3555ZM17.0179 5.87248C18.0769 5.87248 18.4539 6.87246 18.4539 7.8005C18.4539 8.72853 18.0199 9.70048 17.0489 9.71651C16.8489 9.71651 16.5109 9.7235 16.2049 9.72551L16.1999 5.87253L17.0179 5.87248Z" fill="currentColor"/>
<path d="M12.122 7.25537C11.849 7.16237 11.566 7.11137 11.287 7.03839C11.0656 6.99372 10.8604 6.89008 10.693 6.73839C10.5259 6.57986 10.4665 6.33841 10.541 6.12039C10.6358 5.93251 10.8222 5.80806 11.032 5.79241C11.2383 5.77956 11.4451 5.80989 11.639 5.88142C11.9181 5.96851 12.1918 6.07169 12.459 6.19042C12.753 6.31942 13.1 6.39644 13.337 6.11641C13.5125 5.90603 13.5256 5.6042 13.369 5.37939C13.2655 5.22855 13.1255 5.10644 12.962 5.02441C12.23 4.59461 11.3564 4.47541 10.536 4.69342C10.1026 4.83058 9.73648 5.12533 9.50998 5.51941C9.40376 5.70634 9.33354 5.91156 9.30298 6.12442C9.2472 6.50725 9.33021 6.89744 9.53698 7.22444C9.77033 7.56606 10.1072 7.82369 10.498 7.95944C10.907 8.12744 11.316 8.29042 11.731 8.44244C11.9094 8.49911 12.0738 8.59319 12.213 8.71844C12.3688 8.86731 12.4266 9.0918 12.362 9.29744C12.2777 9.49445 12.1103 9.64389 11.905 9.70544C11.5928 9.82281 11.2508 9.83509 10.931 9.74045C10.6198 9.62781 10.3322 9.45827 10.083 9.24044C10.057 9.21944 9.97198 9.15545 9.956 9.14045C9.72298 8.97386 9.40465 8.99519 9.19601 9.19145C8.94031 9.42334 8.921 9.81859 9.15284 10.0743C9.15289 10.0743 9.15293 10.0744 9.15298 10.0745C9.74961 10.708 10.5828 11.0648 11.453 11.0595C12.4843 11.1048 13.4007 10.4068 13.631 9.40047C13.7281 8.79152 13.5006 8.17605 13.031 7.77648C12.7655 7.54427 12.4565 7.36717 12.122 7.25537Z" fill="currentColor"/>
<path d="M4.12097 5.16864V10.4306C4.12097 10.7758 4.40082 11.0556 4.74596 11.0556C5.0911 11.0556 5.37094 10.7758 5.37094 10.4306V8.76765H6.21094C7.37626 8.76765 8.32093 7.82298 8.32093 6.65767C8.32093 5.49236 7.37626 4.54769 6.21094 4.54769L6.20494 4.5437H4.73996C4.69754 4.54445 4.47385 4.55265 4.29699 4.73612C4.12782 4.91162 4.1213 5.1234 4.12097 5.16864ZM6.20494 7.51365H5.37296L5.36696 5.79367H6.20494C6.67993 5.79344 7.06515 6.17828 7.06538 6.65326C7.06562 7.12825 6.68077 7.51347 6.20579 7.5137C6.20555 7.51365 6.20523 7.51365 6.20494 7.51365Z" fill="currentColor"/>
<path d="M19 0H5.00002C2.23997 0.00332812 0.00332812 2.23997 0 5.00002V19C0.00332812 21.76 2.23997 23.9967 5.00002 24H16.343C17.6699 24.0038 18.9432 23.4766 19.879 22.536L22.535 19.878C23.4757 18.9426 24.0033 17.6697 24 16.343V5.00002C23.9967 2.23997 21.76 0.00332812 19 0ZM2.00002 19V5.00002C2.00002 3.34317 3.34317 2.00002 5.00002 2.00002H19C20.6569 2.00002 22 3.34317 22 5.00002V15H18C16.3432 15 15 16.3432 15 18V22H5.00002C3.34312 22 2.00002 20.6569 2.00002 19ZM18.465 21.122C18.063 21.523 17.5547 21.8006 17 21.922V18C17 17.4477 17.4477 17 18 17H21.925C21.8013 17.5535 21.524 18.0609 21.125 18.464L18.465 21.122Z" fill="currentColor"/>
</g>
<defs>
<clipPath id="clip0_403_3019">
<rect width="24" height="24" fill="white"/>
</clipPath>
</defs>
</svg>
