<svg width="24" height="24" viewBox="0 0 24 24" fill="none" xmlns="http://www.w3.org/2000/svg">
<g clip-path="url(#clip0_406_2068)">
<path d="M6.13904 8.51433H7.50204L6.82304 6.71533L6.13904 8.51433Z" fill="currentColor"/>
<path d="M19 0H5C3.67441 0.00158786 2.40356 0.528882 1.46622 1.46622C0.528882 2.40356 0.00158786 3.67441 0 5L0 19C0.00158786 20.3256 0.528882 21.5964 1.46622 22.5338C2.40356 23.4711 3.67441 23.9984 5 24H15.515C15.678 24 15.839 23.987 16 23.976V19C16 18.2044 16.3161 17.4413 16.8787 16.8787C17.4413 16.3161 18.2044 16 19 16H23.976C23.987 15.839 24 15.678 24 15.515V5C23.9984 3.67441 23.4711 2.40356 22.5338 1.46622C21.5964 0.528882 20.3256 0.00158786 19 0V0ZM9.114 11.016C8.95883 11.0741 8.78697 11.0683 8.63608 10.9998C8.48518 10.9314 8.36757 10.806 8.309 10.651L7.974 9.764H5.663L5.324 10.653C5.27839 10.7708 5.1982 10.8721 5.09397 10.9435C4.98973 11.0149 4.86634 11.053 4.74 11.053C4.66416 11.0526 4.58899 11.0387 4.518 11.012C4.44121 10.9828 4.37092 10.9388 4.31116 10.8824C4.2514 10.8261 4.20333 10.7585 4.16971 10.6835C4.13609 10.6086 4.11757 10.5277 4.11522 10.4456C4.11287 10.3635 4.12672 10.2818 4.156 10.205L6.131 5.021C6.18548 4.88085 6.28093 4.76037 6.40491 4.67528C6.52889 4.59019 6.67563 4.54444 6.826 4.544C6.97363 4.54446 7.11778 4.58882 7.24011 4.67145C7.36245 4.75407 7.45744 4.87123 7.513 5.008L9.477 10.208C9.50627 10.2849 9.52009 10.3668 9.51769 10.449C9.51528 10.5312 9.49669 10.6122 9.46298 10.6872C9.42926 10.7623 9.38109 10.8299 9.32121 10.8864C9.26133 10.9428 9.19092 10.9868 9.114 11.016ZM11.857 10.431C11.857 10.5968 11.7912 10.7557 11.6739 10.8729C11.5567 10.9902 11.3978 11.056 11.232 11.056C11.0662 11.056 10.9073 10.9902 10.7901 10.8729C10.6728 10.7557 10.607 10.5968 10.607 10.431V5.169C10.607 5.00324 10.6728 4.84427 10.7901 4.72706C10.9073 4.60985 11.0662 4.544 11.232 4.544C11.3978 4.544 11.5567 4.60985 11.6739 4.72706C11.7912 4.84427 11.857 5.00324 11.857 5.169V10.431Z" fill="currentColor"/>
<path d="M18 19V23.54C18.9251 23.1907 19.7653 22.6487 20.465 21.95L21.949 20.465C22.6485 19.7658 23.1909 18.9254 23.54 18H19C18.7348 18 18.4804 18.1054 18.2929 18.2929C18.1054 18.4804 18 18.7348 18 19Z" fill="currentColor"/>
</g>
<defs>
<clipPath id="clip0_406_2068">
<rect width="24" height="24" fill="white"/>
</clipPath>
</defs>
</svg>
