<svg width="24" height="24" viewBox="0 0 24 24" fill="none" xmlns="http://www.w3.org/2000/svg">
<g clip-path="url(#clip0_406_2047)">
<path d="M14.0001 7V0.46C14.9252 0.809335 15.7654 1.35131 16.4651 2.05L19.9491 5.536C20.6486 6.23488 21.191 7.07489 21.5401 8H15.0001C14.7349 8 14.4806 7.89464 14.293 7.70711C14.1055 7.51957 14.0001 7.26522 14.0001 7ZM21.9761 10H15.0001C14.2045 10 13.4414 9.68393 12.8788 9.12132C12.3162 8.55871 12.0001 7.79565 12.0001 7V0.024C11.8391 0.013 11.6781 0 11.5151 0H7.00012C5.67453 0.00158786 4.40368 0.528882 3.46634 1.46622C2.529 2.40356 2.00171 3.67441 2.00012 5V19C2.00171 20.3256 2.529 21.5964 3.46634 22.5338C4.40368 23.4711 5.67453 23.9984 7.00012 24H17.0001C18.3257 23.9984 19.5966 23.4711 20.5339 22.5338C21.4712 21.5964 21.9985 20.3256 22.0001 19V10.485C22.0001 10.322 21.9871 10.161 21.9761 10ZM14.0001 14H13.0001V18.5C13.0001 18.9945 12.8535 19.4778 12.5788 19.8889C12.3041 20.3 11.9136 20.6205 11.4568 20.8097C11 20.9989 10.4973 21.0484 10.0124 20.952C9.52744 20.8555 9.08199 20.6174 8.73236 20.2678C8.38272 19.9181 8.14462 19.4727 8.04816 18.9877C7.9517 18.5028 8.0012 18.0001 8.19042 17.5433C8.37964 17.0865 8.70007 16.696 9.1112 16.4213C9.52232 16.1466 10.0057 16 10.5001 16C10.668 16.0003 10.8355 16.0171 11.0001 16.05V14C11.0001 13.4696 11.2108 12.9609 11.5859 12.5858C11.961 12.2107 12.4697 12 13.0001 12H14.0001C14.2653 12 14.5197 12.1054 14.7072 12.2929C14.8948 12.4804 15.0001 12.7348 15.0001 13C15.0001 13.2652 14.8948 13.5196 14.7072 13.7071C14.5197 13.8946 14.2653 14 14.0001 14Z" fill="currentColor"/>
</g>
<defs>
<clipPath id="clip0_406_2047">
<rect width="24" height="24" fill="white"/>
</clipPath>
</defs>
</svg>
