<svg width="24" height="24" viewBox="0 0 24 24" fill="none" xmlns="http://www.w3.org/2000/svg">
<g clip-path="url(#clip0_403_3016)">
<path d="M22.3269 18.4224C23.0549 19.4564 23.9999 20.6514 23.9999 21.5004C23.9999 22.1635 23.7365 22.7993 23.2677 23.2682C22.7988 23.737 22.163 24.0004 21.4999 24.0004C20.8369 24.0004 20.201 23.737 19.7322 23.2682C19.2633 22.7993 18.9999 22.1635 18.9999 21.5004C18.9999 20.7254 19.9609 19.4924 20.6919 18.4314C20.7835 18.2999 20.9054 18.1923 21.0472 18.1177C21.1891 18.0431 21.3468 18.0037 21.5071 18.0028C21.6674 18.0019 21.8255 18.0396 21.9682 18.1126C22.1109 18.1856 22.2339 18.2919 22.3269 18.4224ZM21.4499 13.8644L12.7779 22.5364C11.8395 23.4726 10.568 23.9984 9.24242 23.9984C7.91684 23.9984 6.64538 23.4726 5.70692 22.5364L1.46492 18.2934C0.527259 17.3557 0.000488281 16.084 0.000488281 14.7579C0.000488281 13.4318 0.527259 12.1601 1.46492 11.2224L7.17392 5.51241L4.31792 2.62241C4.13654 2.43283 4.03693 2.17956 4.04057 1.91722C4.04421 1.65487 4.15081 1.40447 4.33738 1.22C4.52395 1.03552 4.77555 0.931766 5.03792 0.931095C5.30028 0.930424 5.55241 1.03289 5.73992 1.21641L8.58792 4.10041L10.1359 2.55041L9.29292 1.70741C9.11076 1.51881 9.00997 1.2662 9.01225 1.00401C9.01453 0.741809 9.1197 0.490997 9.3051 0.305589C9.49051 0.12018 9.74132 0.0150115 10.0035 0.0127331C10.2657 0.0104547 10.5183 0.111249 10.7069 0.293407L23.7069 13.2934C23.8024 13.3857 23.8786 13.496 23.931 13.618C23.9834 13.74 24.011 13.8712 24.0122 14.004C24.0133 14.1368 23.988 14.2685 23.9377 14.3914C23.8875 14.5143 23.8132 14.6259 23.7193 14.7198C23.6254 14.8137 23.5138 14.8879 23.3909 14.9382C23.268 14.9885 23.1363 15.0138 23.0035 15.0127C22.8707 15.0115 22.7395 14.9839 22.6175 14.9315C22.4955 14.8791 22.3852 14.8029 22.2929 14.7074L21.4499 13.8644ZM20.0359 12.4504L11.5499 3.96441L9.99292 5.52241L14.7109 10.3004C14.8133 10.3914 14.896 10.5024 14.9537 10.6266C15.0114 10.7508 15.043 10.8855 15.0465 11.0224C15.0501 11.1593 15.0254 11.2955 14.9741 11.4225C14.9229 11.5495 14.846 11.6646 14.7484 11.7607C14.6509 11.8568 14.5346 11.9318 14.4068 11.9811C14.279 12.0304 14.1424 12.0529 14.0056 12.0472C13.8688 12.0416 13.7345 12.0079 13.6113 11.9482C13.488 11.8886 13.3783 11.8042 13.2889 11.7004L8.57992 6.93541L2.87992 12.6354C2.60129 12.914 2.38027 13.2447 2.22947 13.6087C2.07868 13.9728 2.00106 14.3629 2.00106 14.7569C2.00106 15.1509 2.07868 15.5411 2.22947 15.9051C2.38027 16.2691 2.60129 16.5998 2.87992 16.8784L7.12192 21.1214C7.68519 21.6829 8.44809 21.9982 9.24342 21.9982C10.0388 21.9982 10.8017 21.6829 11.3649 21.1214L20.0359 12.4504Z" fill="currentColor"/>
</g>
<defs>
<clipPath id="clip0_403_3016">
<rect width="24" height="24" fill="white"/>
</clipPath>
</defs>
</svg>
