<svg width="24" height="24" viewBox="0 0 24 24" fill="none" xmlns="http://www.w3.org/2000/svg">
<g clip-path="url(#clip0_406_2040)">
<path d="M19.0511 0H5.05109C3.72549 0.00158786 2.45464 0.528882 1.51731 1.46622C0.579968 2.40356 0.0526743 3.67441 0.0510864 5V19C0.0526743 20.3256 0.579968 21.5964 1.51731 22.5338C2.45464 23.4711 3.72549 23.9984 5.05109 24H19.0511C20.3767 23.9984 21.6475 23.4711 22.5849 22.5338C23.5222 21.5964 24.0495 20.3256 24.0511 19V5C24.0495 3.67441 23.5222 2.40356 22.5849 1.46622C21.6475 0.528882 20.3767 0.00158786 19.0511 0V0ZM20.0511 11H22.0511V13H20.0511V11ZM20.0511 9V7H22.0511V9H20.0511ZM4.05109 13H2.05109V11H4.05109V13ZM6.00009 13V11H18.0001V13H6.00009ZM4.05109 9H2.05109V7H4.05109V9ZM2.05109 15H4.05109V17H2.05109V15ZM20.0511 15H22.0511V17H20.0511V15ZM22.0511 5H20.0511V2.184C20.634 2.39008 21.139 2.77123 21.497 3.2753C21.855 3.77937 22.0485 4.38174 22.0511 5ZM4.05109 2.184V5H2.05109C2.05365 4.38174 2.24717 3.77937 2.60517 3.2753C2.96318 2.77123 3.46818 2.39008 4.05109 2.184ZM2.05109 19H4.05109V21.816C3.46818 21.6099 2.96318 21.2288 2.60517 20.7247C2.24717 20.2206 2.05365 19.6183 2.05109 19ZM20.0511 21.816V19H22.0511C22.0485 19.6183 21.855 20.2206 21.497 20.7247C21.139 21.2288 20.634 21.6099 20.0511 21.816Z" fill="currentColor"/>
</g>
<defs>
<clipPath id="clip0_406_2040">
<rect width="24" height="24" fill="white"/>
</clipPath>
</defs>
</svg>
