<svg width="24" height="24" viewBox="0 0 24 24" fill="none" xmlns="http://www.w3.org/2000/svg">
<g clip-path="url(#clip0_403_3059)">
<path d="M10.2068 0.0684078H10.1998C9.97581 0.0177972 9.7412 0.0458376 9.53542 0.147817C9.32964 0.249796 9.16523 0.419499 9.06983 0.628408L0.374825 19.7594C0.167204 20.2164 0.0775454 20.7181 0.11406 21.2187C0.150575 21.7192 0.312096 22.2027 0.583832 22.6246C0.855567 23.0466 1.22883 23.3937 1.66944 23.634C2.11005 23.8744 2.60392 24.0004 3.10583 24.0004H9.99983C10.265 24.0004 10.5194 23.8951 10.7069 23.7075C10.8945 23.52 10.9998 23.2656 10.9998 23.0004V1.04641C10.9979 0.817685 10.9184 0.596382 10.7744 0.418716C10.6303 0.24105 10.4302 0.117543 10.2068 0.0684078ZM8.99983 22.0004H3.10583C2.93842 22.0005 2.77367 21.9586 2.62667 21.8785C2.47967 21.7984 2.35513 21.6827 2.26446 21.542C2.1738 21.4013 2.11991 21.2401 2.10775 21.0731C2.09558 20.9061 2.12552 20.7388 2.19483 20.5864L8.99983 5.61641V22.0004Z" fill="currentColor"/>
<path d="M23.6248 19.7589L14.9298 0.627929C14.8299 0.417823 14.6613 0.248106 14.4518 0.146829C14.2423 0.0455515 14.0046 0.0187765 13.7778 0.0709293C13.5569 0.12124 13.3595 0.245117 13.2182 0.422259C13.0768 0.599401 12.9999 0.819303 12.9998 1.04593V22.9999C12.9998 23.2651 13.1052 23.5195 13.2927 23.707C13.4803 23.8946 13.7346 23.9999 13.9998 23.9999H20.8938C21.3957 23.9999 21.8896 23.8739 22.3302 23.6336C22.7708 23.3932 23.1441 23.0461 23.4158 22.6242C23.6876 22.2022 23.8491 21.7188 23.8856 21.2182C23.9221 20.7176 23.8325 20.2159 23.6248 19.7589Z" fill="currentColor"/>
</g>
<defs>
<clipPath id="clip0_403_3059">
<rect width="24" height="24" fill="white"/>
</clipPath>
</defs>
</svg>
