<svg width="24" height="24" viewBox="0 0 24 24" fill="none" xmlns="http://www.w3.org/2000/svg">
<g clip-path="url(#clip0_403_3007)">
<path d="M23.5351 14.7255C23.328 14.4739 23.0623 14.2771 22.7614 14.1523C22.4605 14.0274 22.1335 13.9784 21.8091 14.0094C20.0668 14.1472 18.3756 14.6641 16.854 15.524C15.3323 16.3839 14.017 17.5659 13.0001 18.9874V13.9104C14.3967 13.6732 15.6644 12.9499 16.5793 11.8685C17.4943 10.787 17.9975 9.417 18.0001 8.00045C18.0001 5.20745 16.0571 2.84845 14.1561 0.90945C13.5798 0.346296 12.806 0.0310059 12.0001 0.0310059C11.1943 0.0310059 10.4205 0.346296 9.84414 0.90945C7.94314 2.84845 6.00014 5.20745 6.00014 8.00045C6.00277 9.417 6.50601 10.787 7.42094 11.8685C8.33587 12.9499 9.6036 13.6732 11.0001 13.9104V18.9874C9.98325 17.5659 8.66795 16.3839 7.14632 15.524C5.62468 14.6641 3.93349 14.1472 2.19114 14.0094C1.86683 13.9786 1.53989 14.0277 1.23897 14.1525C0.938059 14.2773 0.672352 14.4741 0.465138 14.7255C0.259251 14.9699 0.115898 15.2608 0.0474331 15.5729C-0.0210313 15.8851 -0.0125527 16.2093 0.0721381 16.5175C2.11114 23.8554 11.5911 24.0005 11.9941 24.0005H12.0061C12.4061 24.0005 21.8901 23.8554 23.9291 16.5175C24.0133 16.2092 24.0215 15.885 23.9529 15.5729C23.8842 15.2608 23.7409 14.97 23.5351 14.7255ZM8.00014 8.00045C8.00014 5.34645 11.3181 2.28145 11.3381 2.26445C10.9731 3.20045 8.69314 8.90045 11.0001 9.00045C11.2654 9.00045 11.5197 8.89509 11.7072 8.70756C11.8948 8.52002 12.0001 8.26567 12.0001 8.00045C12.0756 6.22189 12.5029 4.47592 13.2571 2.86345C14.6881 4.39345 16.0001 6.15445 16.0001 8.00045C16.0001 9.06132 15.5787 10.0787 14.8286 10.8289C14.0784 11.579 13.061 12.0005 12.0001 12.0005C10.9393 12.0005 9.92186 11.579 9.17171 10.8289C8.42157 10.0787 8.00014 9.06132 8.00014 8.00045ZM2.00614 16.0005C3.80787 16.1464 5.53915 16.7654 7.02499 17.7949C8.51083 18.8243 9.69856 20.2278 10.4681 21.8635C7.97114 21.5175 3.20014 20.3004 2.00614 16.0005ZM13.5451 21.8615C14.321 20.2304 15.5091 18.83 16.9919 17.7988C18.4747 16.7676 20.201 16.1411 22.0001 15.9815C20.8061 20.2835 16.0461 21.5114 13.5451 21.8615Z" fill="currentColor"/>
</g>
<defs>
<clipPath id="clip0_403_3007">
<rect width="24" height="24" fill="white"/>
</clipPath>
</defs>
</svg>
