<svg width="24" height="24" viewBox="0 0 24 24" fill="none" xmlns="http://www.w3.org/2000/svg">
<g clip-path="url(#clip0_403_3172)">
<path d="M24 11.1004C24.0086 10.3529 23.7418 9.62838 23.2505 9.06497C22.7592 8.50156 22.0777 8.13863 21.336 8.04536C21.636 7.50036 22.072 6.23236 21.99 3.04536C21.9841 2.72444 21.9044 2.40918 21.7572 2.12395C21.61 1.83872 21.3992 1.59115 21.141 1.40036C20.896 1.21787 20.6123 1.09397 20.3119 1.03815C20.0115 0.98233 19.7023 0.996087 19.408 1.07836C17.9192 1.49553 16.5245 2.19525 15.3 3.13936C14.8111 2.32749 14.2685 1.5491 13.676 0.809361C13.4689 0.56755 13.212 0.37343 12.9227 0.240337C12.6335 0.107244 12.3189 0.0383301 12.0005 0.0383301C11.6822 0.0383301 11.3676 0.107244 11.0783 0.240337C10.7891 0.37343 10.5321 0.56755 10.325 0.809361C9.73482 1.54768 9.1943 2.32439 8.70704 3.13436C7.47617 2.19301 6.07773 1.49396 4.58604 1.07436C4.2925 0.992164 3.98395 0.978818 3.68441 1.03536C3.38487 1.0919 3.10242 1.21681 2.85904 1.40036C2.60115 1.59068 2.39046 1.83774 2.24325 2.12245C2.09604 2.40716 2.01625 2.7219 2.01004 3.04236C1.92804 6.23036 2.36704 7.49736 2.66204 8.04236C1.92028 8.13635 1.23903 8.49997 0.748111 9.06392C0.25719 9.62787 -0.00907931 10.3527 4.37959e-05 11.1004C4.37959e-05 15.3904 6.38704 18.2854 9.47804 19.4354C9.01335 19.8527 8.61182 20.3354 8.28605 20.8684C8.10013 21.1793 8.00095 21.5344 7.99884 21.8967C7.99673 22.259 8.09176 22.6153 8.27404 22.9284C8.45989 23.2535 8.72826 23.5239 9.05204 23.7121C9.37581 23.9003 9.74353 23.9997 10.118 24.0004H13.882C14.257 23.9993 14.6249 23.8993 14.9487 23.7103C15.2726 23.5214 15.5407 23.2503 15.726 22.9244C15.9083 22.6115 16.0034 22.2555 16.0015 21.8934C15.9995 21.5313 15.9006 21.1763 15.715 20.8654C15.5268 20.5572 15.3099 20.2676 15.067 20.0004H16C16.5305 20.0004 17.0392 20.2111 17.4143 20.5861C17.7893 20.9612 18 21.4699 18 22.0004C18 22.2656 18.1054 22.5199 18.2929 22.7075C18.4805 22.895 18.7348 23.0004 19 23.0004C19.2653 23.0004 19.5196 22.895 19.7072 22.7075C19.8947 22.5199 20 22.2656 20 22.0004C19.9975 21.173 19.738 20.3669 19.2573 19.6935C18.7767 19.0201 18.0986 18.5126 17.317 18.2414C20.415 16.7404 24 14.3104 24 11.1004ZM16.372 4.88436C17.3993 3.98666 18.6222 3.3415 19.943 3.00036C19.943 3.00036 19.989 3.01936 19.991 3.09336C20.054 5.52736 19.777 6.81336 19.521 7.17636C19.3746 7.39148 19.1853 7.57409 18.965 7.71277C18.7448 7.85145 18.4983 7.94322 18.241 7.98236C17.9959 8.01698 17.7463 8.00038 17.5079 7.93359C17.2695 7.86681 17.0475 7.7513 16.856 7.59436C16.6412 7.45245 16.4575 7.26836 16.316 7.05327C16.1745 6.83818 16.0782 6.59658 16.033 6.34314C15.9877 6.0897 15.9944 5.8297 16.0527 5.57893C16.111 5.32817 16.2196 5.09186 16.372 4.88436ZM11.892 2.05236C11.905 2.03593 11.9214 2.02265 11.9402 2.01352C11.959 2.00438 11.9796 1.99964 12.0005 1.99964C12.0214 1.99964 12.0421 2.00438 12.0609 2.01352C12.0797 2.02265 12.0961 2.03593 12.109 2.05236C12.8711 2.96206 13.5186 3.96187 14.037 5.02936C14.0577 5.06428 14.0807 5.0977 14.106 5.12936C13.9933 5.6194 13.98 6.1271 14.067 6.62236C13.9011 7.01949 13.6244 7.36041 13.2698 7.60435C12.9152 7.8483 12.4979 7.98493 12.0677 7.9979C11.6375 8.01088 11.2127 7.89965 10.844 7.67752C10.4754 7.45539 10.1786 7.13177 9.98905 6.74536C9.96706 6.71343 9.94336 6.68272 9.91805 6.65336C10.012 6.16017 10.0058 5.65314 9.90004 5.16236C9.9053 5.15472 9.90998 5.1467 9.91404 5.13836C10.433 4.0262 11.0982 2.98835 11.892 2.05236ZM4.00904 3.09236C4.00862 3.07523 4.01178 3.05819 4.01832 3.04235C4.02487 3.0265 4.03465 3.0122 4.04704 3.00036C5.37675 3.34004 6.60922 3.98435 7.64704 4.88236C7.79481 5.09403 7.89859 5.3332 7.95223 5.58571C8.00587 5.83822 8.00828 6.09893 7.95932 6.35238C7.91037 6.60584 7.81103 6.8469 7.66721 7.06126C7.52339 7.27563 7.33801 7.45895 7.12205 7.60036C6.93268 7.75646 6.71292 7.87147 6.47673 7.93809C6.24053 8.00471 5.99307 8.02149 5.75004 7.98736C5.49384 7.94858 5.24848 7.857 5.02952 7.71843C4.81055 7.57986 4.62276 7.39731 4.47804 7.18236C4.22204 6.81436 3.94604 5.52736 4.00904 3.09236ZM13.882 22.0004H10.118C10.056 22.0004 10.018 21.9544 10.006 21.8844C10.5078 21.1254 11.18 20.4943 11.969 20.0414C12.7888 20.4954 13.4826 21.1463 13.988 21.9354C13.9777 21.9546 13.9624 21.9707 13.9438 21.9821C13.9252 21.9935 13.9039 21.9998 13.882 22.0004ZM14.676 17.2094C15.309 16.2901 15.7545 15.255 15.987 14.1634C16.0303 13.9016 15.9677 13.6334 15.8132 13.4177C15.6587 13.202 15.4248 13.0566 15.163 13.0134C14.9013 12.9701 14.6331 13.0327 14.4174 13.1872C14.2017 13.3417 14.0563 13.5756 14.013 13.8374C13.6321 15.1862 12.9481 16.4302 12.013 17.4744C11.0887 16.3958 10.3957 15.1388 9.97705 13.7814C9.94829 13.6532 9.89456 13.5319 9.81894 13.4245C9.74333 13.3171 9.64729 13.2257 9.53632 13.1554C9.42536 13.0851 9.30163 13.0373 9.17221 13.0148C9.0428 12.9924 8.91021 12.9956 8.78204 13.0244C8.65387 13.0531 8.53262 13.1068 8.42522 13.1825C8.31781 13.2581 8.22635 13.3541 8.15605 13.4651C8.08576 13.576 8.03801 13.6998 8.01553 13.8292C7.99305 13.9586 7.99628 14.0912 8.02504 14.2194C8.30555 15.2932 8.76498 16.3122 9.38404 17.2334C6.30004 15.9654 2.00004 13.6404 2.00004 11.1004C1.99557 10.9562 2.02036 10.8127 2.07292 10.6784C2.12548 10.5441 2.20472 10.4218 2.30585 10.319C2.40698 10.2162 2.5279 10.135 2.66131 10.0802C2.79472 10.0254 2.93785 9.99827 3.08204 10.0004H20.918C21.0622 9.99827 21.2054 10.0254 21.3388 10.0802C21.4722 10.135 21.5931 10.2162 21.6942 10.319C21.7954 10.4218 21.8746 10.5441 21.9272 10.6784C21.9797 10.8127 22.0045 10.9562 22 11.1004C22 13.6234 17.755 15.9354 14.676 17.2094Z" fill="currentColor"/>
</g>
<defs>
<clipPath id="clip0_403_3172">
<rect width="24" height="24" fill="white"/>
</clipPath>
</defs>
</svg>
