<svg width="24" height="24" viewBox="0 0 24 24" fill="none" xmlns="http://www.w3.org/2000/svg">
<g clip-path="url(#clip0_403_3133)">
<path d="M12.0001 16.0002C10.9392 16.0002 9.92178 15.5788 9.17163 14.8286C8.42148 14.0785 8.00006 13.0611 8.00006 12.0002C8.00006 10.9394 8.42148 9.92194 9.17163 9.17179C9.92178 8.42165 10.9392 8.00022 12.0001 8.00022C13.0609 8.00022 14.0783 8.42165 14.8285 9.17179C15.5786 9.92194 16.0001 10.9394 16.0001 12.0002C16.0001 13.0611 15.5786 14.0785 14.8285 14.8286C14.0783 15.5788 13.0609 16.0002 12.0001 16.0002ZM12.0001 10.0002C11.4696 10.0002 10.9609 10.2109 10.5858 10.586C10.2108 10.9611 10.0001 11.4698 10.0001 12.0002C10.0001 12.5307 10.2108 13.0394 10.5858 13.4144C10.9609 13.7895 11.4696 14.0002 12.0001 14.0002C12.5305 14.0002 13.0392 13.7895 13.4143 13.4144C13.7893 13.0394 14.0001 12.5307 14.0001 12.0002C14.0001 11.4698 13.7893 10.9611 13.4143 10.586C13.0392 10.2109 12.5305 10.0002 12.0001 10.0002ZM12.0001 24.0002C10.9092 23.9991 9.84859 23.6418 8.97946 22.9826C8.11034 22.3234 7.48026 21.3984 7.18506 20.3482C6.12973 20.5813 5.02756 20.4712 4.03912 20.0342C3.05067 19.5972 2.2276 18.8559 1.6898 17.9185C1.152 16.9811 0.927569 15.8964 1.04921 14.8225C1.17085 13.7486 1.6322 12.7416 2.36606 11.9482C-1.03394 8.43722 2.37506 2.34822 7.20006 3.59922C7.51129 2.56838 8.14611 1.66511 9.01059 1.0231C9.87506 0.381081 10.9233 0.0344238 12.0001 0.0344238C13.0769 0.0344238 14.1251 0.381081 14.9895 1.0231C15.854 1.66511 16.4888 2.56838 16.8001 3.59922C21.7001 2.38322 25.0001 8.41222 21.6291 11.9912C25.0371 15.5292 21.6401 21.4332 16.8151 20.3482C16.5199 21.3984 15.8898 22.3234 15.0207 22.9826C14.1515 23.6418 13.0909 23.9991 12.0001 24.0002ZM8.00006 18.0002C8.26527 18.0002 8.51963 18.1056 8.70716 18.2931C8.8947 18.4806 9.00006 18.735 9.00006 19.0002C9.00006 19.7959 9.31613 20.5589 9.87874 21.1215C10.4413 21.6842 11.2044 22.0002 12.0001 22.0002C12.7957 22.0002 13.5588 21.6842 14.1214 21.1215C14.684 20.5589 15.0001 19.7959 15.0001 19.0002C15 18.8241 15.0464 18.651 15.1347 18.4986C15.223 18.3461 15.35 18.2197 15.5029 18.1321C15.6557 18.0445 15.829 17.9989 16.0051 17.9998C16.1813 18.0007 16.3541 18.0481 16.5061 18.1372C19.9721 19.8122 22.9061 14.9552 19.5221 12.8782C19.3659 12.7909 19.2359 12.6635 19.1454 12.5091C19.0548 12.3548 19.0071 12.1791 19.0071 12.0002C19.0071 11.8213 19.0548 11.6456 19.1454 11.4913C19.2359 11.337 19.3659 11.2096 19.5221 11.1222C22.8351 9.11322 20.0441 3.90322 16.5031 5.86822C16.3508 5.95682 16.1779 6.00364 16.0017 6.00393C15.8256 6.00423 15.6525 5.95799 15.4999 5.8699C15.3474 5.78181 15.2208 5.65499 15.1331 5.50227C15.0453 5.34956 14.9994 5.17636 15.0001 5.00022C15.0001 4.20457 14.684 3.44151 14.1214 2.8789C13.5588 2.31629 12.7957 2.00022 12.0001 2.00022C11.2044 2.00022 10.4413 2.31629 9.87874 2.8789C9.31613 3.44151 9.00006 4.20457 9.00006 5.00022C9.0004 5.17592 8.95445 5.34862 8.86682 5.50091C8.7792 5.65321 8.65299 5.77972 8.50091 5.86773C8.34884 5.95573 8.17626 6.00211 8.00055 6.00219C7.82485 6.00228 7.65222 5.95607 7.50006 5.86822C4.00006 3.90822 1.13806 9.08022 4.47806 11.0702C4.63419 11.1577 4.76418 11.2852 4.85466 11.4396C4.94514 11.594 4.99283 11.7698 4.99283 11.9487C4.99283 12.1277 4.94514 12.3034 4.85466 12.4578C4.76418 12.6122 4.63419 12.7397 4.47806 12.8272C1.13006 14.9402 3.96406 19.8002 7.49406 18.1372C7.64754 18.0474 7.82221 18.0001 8.00006 18.0002Z" fill="currentColor"/>
</g>
<defs>
<clipPath id="clip0_403_3133">
<rect width="24" height="24" fill="white"/>
</clipPath>
</defs>
</svg>
