<svg width="24" height="24" viewBox="0 0 24 24" fill="none" xmlns="http://www.w3.org/2000/svg">
<g clip-path="url(#clip0_406_2033)">
<path d="M16.339 2.97492C16.975 2.11592 18.962 1.43892 20.383 1.04692C20.5705 0.994037 20.7678 0.984963 20.9594 1.02039C21.151 1.05582 21.3319 1.13481 21.4882 1.25125C21.6445 1.3677 21.7719 1.51849 21.8606 1.69199C21.9493 1.86549 21.997 2.05706 22 2.25192C22.028 3.74492 21.944 5.88092 21.3 6.74392C21.0583 7.07298 20.7536 7.35065 20.4036 7.56073C20.0535 7.77082 19.6651 7.90912 19.2611 7.96757C18.857 8.02602 18.4454 8.00346 18.0501 7.90119C17.6549 7.79893 17.284 7.619 16.959 7.37192C16.3001 6.8664 15.866 6.12247 15.7501 5.30016C15.6341 4.47786 15.8456 3.6429 16.339 2.97492ZM16.52 19.0529C17.48 19.1771 18.3622 19.6458 19.0024 20.3719C19.6425 21.098 19.9971 22.0319 20 22.9999C20 23.2651 19.8946 23.5195 19.7071 23.707C19.5196 23.8946 19.2652 23.9999 19 23.9999C18.7348 23.9999 18.4804 23.8946 18.2929 23.707C18.1053 23.5195 18 23.2651 18 22.9999C18 22.4695 17.7893 21.9608 17.4142 21.5857C17.0391 21.2106 16.5304 20.9999 16 20.9999H14.3C14.4827 21.2002 14.6457 21.4175 14.787 21.6489C14.9264 21.882 15.0007 22.1482 15.0021 22.4198C15.0035 22.6914 14.932 22.9584 14.795 23.1929C14.6561 23.4376 14.4548 23.6412 14.2117 23.7829C13.9687 23.9247 13.6924 23.9995 13.411 23.9999H10.589C10.3079 23.9992 10.0321 23.9241 9.78937 23.7824C9.54666 23.6407 9.34575 23.4373 9.20698 23.1929C9.06998 22.9584 8.99845 22.6914 8.99986 22.4198C9.00126 22.1482 9.07556 21.882 9.21498 21.6489C9.48172 21.2121 9.81623 20.8206 10.206 20.4889C6.63498 19.2779 -1.53648e-05 16.1199 -1.53648e-05 12.0769C-0.00499489 11.671 0.0713597 11.2683 0.224544 10.8924C0.377729 10.5165 0.604642 10.1751 0.891897 9.88827C1.17915 9.60148 1.52093 9.37513 1.89708 9.22255C2.27322 9.06998 2.67611 8.99428 3.08198 8.99992H20.918C21.3239 8.99428 21.7267 9.06998 22.1029 9.22255C22.479 9.37513 22.8208 9.60148 23.1081 9.88827C23.3953 10.1751 23.6222 10.5165 23.7754 10.8924C23.9286 11.2683 24.005 11.671 24 12.0769C24 15.3359 19.921 17.6999 16.52 19.0529ZM16.232 13.0289C15.9749 12.9687 15.7045 13.0127 15.4797 13.1511C15.2549 13.2895 15.0939 13.5113 15.032 13.7679C14.4377 15.6115 13.396 17.2791 12 18.6219C10.6058 17.2786 9.56583 15.611 8.97298 13.7679C8.91185 13.5097 8.75066 13.2864 8.52487 13.1471C8.29907 13.0077 8.02717 12.9638 7.76898 13.0249C7.5108 13.086 7.28747 13.2472 7.14813 13.473C7.00879 13.6988 6.96485 13.9707 7.02598 14.2289C7.05498 14.3519 7.52598 17.1209 11.194 20.6139C11.409 20.8333 11.6943 20.9699 12 20.9999C12.41 20.9999 13.325 20.1289 13.325 20.1289C14.9536 18.4492 16.1986 16.4363 16.974 14.2289C17.0341 13.9714 16.9897 13.7006 16.8507 13.4758C16.7116 13.2509 16.4892 13.0902 16.232 13.0289ZM12 7.99992C12.8707 7.99992 13.7057 7.65403 14.3214 7.03835C14.9371 6.42266 15.283 5.58762 15.283 4.71692C15.283 3.58792 14.011 1.74492 13.051 0.516915C12.9263 0.357496 12.767 0.22856 12.585 0.139886C12.4031 0.0512114 12.2034 0.00512695 12.001 0.00512695C11.7986 0.00512695 11.5989 0.0512114 11.4169 0.139886C11.235 0.22856 11.0757 0.357496 10.951 0.516915C9.99098 1.74892 8.71898 3.59192 8.71898 4.71692C8.71898 5.58727 9.0646 6.42202 9.67985 7.03764C10.2951 7.65326 11.1296 7.99938 12 7.99992ZM7.04098 7.37192C7.70069 6.86634 8.13537 6.12181 8.25134 5.29878C8.36731 4.47575 8.1553 3.64011 7.66098 2.97192C7.02498 2.11292 5.03798 1.43591 3.61698 1.04392C3.43014 0.992044 3.23391 0.983578 3.0433 1.01916C2.85268 1.05475 2.67272 1.13344 2.51718 1.24923C2.36163 1.36502 2.23462 1.51484 2.14585 1.68724C2.05708 1.85963 2.00889 2.05004 2.00498 2.24392C1.97698 3.73692 2.06098 5.87292 2.70498 6.73592C2.946 7.06487 3.25002 7.34263 3.59936 7.55301C3.9487 7.7634 4.33639 7.90222 4.73988 7.9614C5.14336 8.02059 5.55458 7.99895 5.94963 7.89775C6.34467 7.79655 6.71565 7.6178 7.04098 7.37192Z" fill="currentColor"/>
</g>
<defs>
<clipPath id="clip0_406_2033">
<rect width="24" height="24" fill="white"/>
</clipPath>
</defs>
</svg>
