<svg width="24" height="24" viewBox="0 0 24 24" fill="none" xmlns="http://www.w3.org/2000/svg">
<g clip-path="url(#clip0_403_3181)">
<path d="M10 9.99965C9.20435 9.99965 8.44129 10.3157 7.87868 10.8783C7.31607 11.4409 7 12.204 7 12.9997C7 13.7953 7.31607 14.5584 7.87868 15.121C8.44129 15.6836 9.20435 15.9997 10 15.9997H14C14.7956 15.9997 15.5587 15.6836 16.1213 15.121C16.6839 14.5584 17 13.7953 17 12.9997C17 12.204 16.6839 11.4409 16.1213 10.8783C15.5587 10.3157 14.7956 9.99965 14 9.99965H10ZM15 12.9997C15 13.2649 14.8946 13.5192 14.7071 13.7068C14.5196 13.8943 14.2652 13.9997 14 13.9997H10C9.73478 13.9997 9.48043 13.8943 9.29289 13.7068C9.10536 13.5192 9 13.2649 9 12.9997C9 12.7344 9.10536 12.4801 9.29289 12.2925C9.48043 12.105 9.73478 11.9997 10 11.9997H14C14.2652 11.9997 14.5196 12.105 14.7071 12.2925C14.8946 12.4801 15 12.7344 15 12.9997ZM17 18.9997C17 19.2649 16.8946 19.5192 16.7071 19.7068C16.5196 19.8943 16.2652 19.9997 16 19.9997H8C7.73478 19.9997 7.48043 19.8943 7.29289 19.7068C7.10536 19.5192 7 19.2649 7 18.9997C7 18.7344 7.10536 18.4801 7.29289 18.2925C7.48043 18.105 7.73478 17.9997 8 17.9997H16C16.2652 17.9997 16.5196 18.105 16.7071 18.2925C16.8946 18.4801 17 18.7344 17 18.9997ZM19.536 3.12065L17.878 1.46465C17.4149 0.9989 16.864 0.629611 16.2572 0.378147C15.6504 0.126683 14.9998 -0.00196419 14.343 -0.00035123H8C6.67441 0.00123663 5.40356 0.528531 4.46622 1.46587C3.52888 2.40321 3.00159 3.67405 3 4.99965V18.9997C3.00159 20.3252 3.52888 21.5961 4.46622 22.5334C5.40356 23.4708 6.67441 23.9981 8 23.9997H16C17.3256 23.9981 18.5964 23.4708 19.5338 22.5334C20.4711 21.5961 20.9984 20.3252 21 18.9997V6.65665C21.0019 5.99973 20.8735 5.34897 20.6222 4.74202C20.3709 4.13507 20.0017 3.58398 19.536 3.12065ZM18.122 4.53465C18.2627 4.67708 18.3893 4.83281 18.5 4.99965H16V2.49965C16.1671 2.60918 16.3226 2.7355 16.464 2.87665L18.122 4.53465ZM19 18.9997C19 19.7953 18.6839 20.5584 18.1213 21.121C17.5587 21.6836 16.7956 21.9997 16 21.9997H8C7.20435 21.9997 6.44129 21.6836 5.87868 21.121C5.31607 20.5584 5 19.7953 5 18.9997V4.99965C5 4.204 5.31607 3.44094 5.87868 2.87833C6.44129 2.31572 7.20435 1.99965 8 1.99965H14V4.99965C14 5.53008 14.2107 6.03879 14.5858 6.41386C14.9609 6.78894 15.4696 6.99965 16 6.99965H19V18.9997Z" fill="currentColor"/>
</g>
<defs>
<clipPath id="clip0_403_3181">
<rect width="24" height="24" fill="white"/>
</clipPath>
</defs>
</svg>
