<svg width="24" height="24" viewBox="0 0 24 24" fill="none" xmlns="http://www.w3.org/2000/svg">
<g clip-path="url(#clip0_406_2030)">
<path d="M-0.000116819 8.00823V2.00823C-0.000810047 1.70571 0.0671355 1.40697 0.198605 1.1345C0.330074 0.862037 0.521641 0.622947 0.758883 0.435231C0.994337 0.246088 1.2699 0.113255 1.56453 0.0468764C1.85916 -0.0195022 2.16507 -0.0176707 2.45888 0.0522312C3.39465 0.302741 4.25777 0.771354 4.97754 1.41969C5.69732 2.06803 6.25328 2.87764 6.59988 3.78223C8.36019 3.29723 10.1743 3.03452 11.9999 3.00023C13.8255 3.03452 15.6396 3.29723 17.3999 3.78223C17.7467 2.87726 18.3031 2.06738 19.0234 1.41901C19.7438 0.770645 20.6075 0.302248 21.5439 0.0522312C21.8378 -0.0156245 22.1433 -0.0162799 22.4375 0.0503136C22.7317 0.116907 23.0071 0.249033 23.2432 0.436847C23.4792 0.624662 23.6699 0.863323 23.8009 1.13505C23.9319 1.40678 23.9999 1.70457 23.9999 2.00623V8.00623C22.3506 8.04677 20.7266 8.42096 19.2259 9.10623C17.3039 9.92503 15.6779 11.3112 14.5653 13.0794C13.4526 14.8475 12.9065 16.9132 12.9999 19.0002C12.9999 19.2654 12.8945 19.5198 12.707 19.7073C12.5195 19.8949 12.2651 20.0002 11.9999 20.0002C11.7347 20.0002 11.4803 19.8949 11.2928 19.7073C11.1052 19.5198 10.9999 19.2654 10.9999 19.0002C11.0941 16.9123 10.5484 14.8454 9.43572 13.0762C8.32306 11.3069 6.69655 9.91974 4.77388 9.10023C3.27242 8.41816 1.64855 8.04672 -0.000116819 8.00823ZM19.9999 11.0002C19.8212 11.8373 19.3636 12.589 18.7019 13.132C18.0402 13.675 17.2138 13.9773 16.3579 13.9892C15.4194 15.4884 14.9468 17.2323 14.9999 19.0002C14.9999 19.7959 14.6838 20.5589 14.1212 21.1216C13.5586 21.6842 12.7955 22.0002 11.9999 22.0002C11.2042 22.0002 10.4412 21.6842 9.87856 21.1216C9.31595 20.5589 8.99988 19.7959 8.99988 19.0002C9.05299 17.2323 8.58038 15.4884 7.64188 13.9892C6.786 13.9773 5.95954 13.675 5.29788 13.132C4.63621 12.589 4.17856 11.8373 3.99988 11.0002C2.74822 10.4003 1.38686 10.0634 -0.000116819 10.0102C0.0313347 12.8762 1.18778 15.615 3.21988 17.6362L7.87688 22.2932C8.97421 23.3779 10.4549 23.9863 11.9979 23.9863C13.5408 23.9863 15.0216 23.3779 16.1189 22.2932L20.7759 17.6362C22.8095 15.6157 23.9674 12.8768 23.9999 10.0102C22.6129 10.0634 21.2515 10.4003 19.9999 11.0002Z" fill="currentColor"/>
</g>
<defs>
<clipPath id="clip0_406_2030">
<rect width="24" height="24" fill="white"/>
</clipPath>
</defs>
</svg>
