<svg width="24" height="24" viewBox="0 0 24 24" fill="none" xmlns="http://www.w3.org/2000/svg">
<g clip-path="url(#clip0_403_3255)">
<path d="M23.2411 0.435231C23.0056 0.246154 22.73 0.113363 22.4354 0.0469869C22.1408 -0.0193889 21.8349 -0.0175952 21.5411 0.0522312C20.6053 0.302666 19.7421 0.771253 19.0224 1.4196C18.3026 2.06795 17.7466 2.8776 17.4001 3.78223C15.6398 3.29723 13.8257 3.03452 12.0001 3.00023C10.1745 3.03452 8.36041 3.29723 6.6001 3.78223C6.2532 2.8773 5.69679 2.06747 4.97646 1.41911C4.25614 0.770746 3.39242 0.302322 2.4561 0.0522312C2.16229 -0.0176707 1.85638 -0.0195022 1.56175 0.0468764C1.26712 0.113255 0.991556 0.246088 0.756102 0.435231C0.519675 0.623039 0.32884 0.86194 0.19791 1.13402C0.0669797 1.4061 -0.000646945 1.70429 0.000101968 2.00623V9.85823C-0.00385339 11.3033 0.278883 12.7349 0.831943 14.07C1.385 15.4051 2.1974 16.6172 3.2221 17.6362L7.8791 22.2932C8.97643 23.3779 10.4572 23.9863 12.0001 23.9863C13.543 23.9863 15.0238 23.3779 16.1211 22.2932L20.7781 17.6362C21.8026 16.6171 22.6149 15.4049 23.168 14.0699C23.721 12.7348 24.0038 11.3033 24.0001 9.85823V2.00623C24.0009 1.70397 23.933 1.40547 23.8015 1.13331C23.6701 0.861147 23.4784 0.622439 23.2411 0.435231ZM5.0511 5.31623C5.13487 5.56772 5.31506 5.77567 5.55208 5.89437C5.7891 6.01306 6.06354 6.0328 6.3151 5.94923C8.15725 5.37217 10.0704 5.05281 12.0001 5.00023C13.9298 5.05293 15.8429 5.37229 17.6851 5.94923C17.9365 6.03249 18.2107 6.0126 18.4475 5.89392C18.6843 5.77525 18.8643 5.56749 18.9481 5.31623C19.5651 3.46723 20.6191 2.32123 22.0001 2.00623V8.17323C19.5721 8.73223 13.0001 10.9842 13.0001 19.0002V19.1842C12.355 18.9443 11.6452 18.9443 11.0001 19.1842V19.0002C11.0001 10.9852 4.4291 8.73223 2.0001 8.17323V2.00023C3.3811 2.32123 4.4351 3.46823 5.0511 5.31623ZM4.6361 16.2222C3.03532 14.6258 2.09971 12.4815 2.0181 10.2222C2.69964 10.4016 3.36314 10.6436 4.0001 10.9452V11.0002C4.17976 11.8282 4.63229 12.5718 5.28509 13.1118C5.9379 13.6518 6.75316 13.9569 7.6001 13.9782C8.56033 15.4737 9.04816 17.2236 9.0001 19.0002V20.5862L4.6361 16.2222ZM19.3641 16.2222L15.0001 20.5862V19.0002C14.9521 17.2236 15.4399 15.4737 16.4001 13.9782C17.247 13.9566 18.062 13.6513 18.7148 13.1114C19.3675 12.5714 19.8201 11.828 20.0001 11.0002V10.9452C20.6371 10.644 21.3006 10.4023 21.9821 10.2232C21.9002 12.4822 20.9647 14.626 19.3641 16.2222Z" fill="currentColor"/>
</g>
<defs>
<clipPath id="clip0_403_3255">
<rect width="24" height="24" fill="white"/>
</clipPath>
</defs>
</svg>
