<svg width="24" height="24" viewBox="0 0 24 24" fill="none" xmlns="http://www.w3.org/2000/svg">
<g clip-path="url(#clip0_403_3271)">
<path d="M23 20H14.816C14.6666 19.5818 14.4262 19.2019 14.1122 18.8879C13.7981 18.5738 13.4182 18.3334 13 18.184V15H17C18.0609 15 19.0783 14.5786 19.8284 13.8284C20.5786 13.0783 21 12.0609 21 11V6C21 4.93914 20.5786 3.92172 19.8284 3.17157C19.0783 2.42143 18.0609 2 17 2H12.621C12.4193 1.99997 12.2224 1.93897 12.056 1.825L10.17 0.528001C9.67003 0.183602 9.07711 -0.000549809 8.47 1.23306e-06H7C5.93913 1.23306e-06 4.92172 0.421429 4.17157 1.17157C3.42143 1.92172 3 2.93914 3 4V11C3 12.0609 3.42143 13.0783 4.17157 13.8284C4.92172 14.5786 5.93913 15 7 15H11V18.184C10.5818 18.3334 10.2019 18.5738 9.88785 18.8879C9.5738 19.2019 9.3334 19.5818 9.184 20H1C0.734784 20 0.48043 20.1054 0.292893 20.2929C0.105357 20.4804 0 20.7348 0 21C0 21.2652 0.105357 21.5196 0.292893 21.7071C0.48043 21.8946 0.734784 22 1 22H9.184C9.38765 22.5845 9.76816 23.0912 10.2727 23.4498C10.7773 23.8083 11.381 24.001 12 24.001C12.619 24.001 13.2227 23.8083 13.7273 23.4498C14.2318 23.0912 14.6124 22.5845 14.816 22H23C23.2652 22 23.5196 21.8946 23.7071 21.7071C23.8946 21.5196 24 21.2652 24 21C24 20.7348 23.8946 20.4804 23.7071 20.2929C23.5196 20.1054 23.2652 20 23 20ZM7 2H8.47C8.67246 1.99992 8.87017 2.06129 9.037 2.176L10.921 3.476C11.4206 3.82127 12.0137 4.00583 12.621 4.005H17C17.5304 4.005 18.0391 4.21572 18.4142 4.59079C18.7893 4.96586 19 5.47457 19 6.005H5V4C5 3.46957 5.21071 2.96086 5.58579 2.58579C5.96086 2.21072 6.46957 2 7 2ZM5 11V8H19V11C19 11.5304 18.7893 12.0391 18.4142 12.4142C18.0391 12.7893 17.5304 13 17 13H7C6.46957 13 5.96086 12.7893 5.58579 12.4142C5.21071 12.0391 5 11.5304 5 11ZM12 22C11.8022 22 11.6089 21.9414 11.4444 21.8315C11.28 21.7216 11.1518 21.5654 11.0761 21.3827C11.0004 21.2 10.9806 20.9989 11.0192 20.8049C11.0578 20.6109 11.153 20.4327 11.2929 20.2929C11.4327 20.153 11.6109 20.0578 11.8049 20.0192C11.9989 19.9806 12.2 20.0004 12.3827 20.0761C12.5654 20.1518 12.7216 20.28 12.8315 20.4444C12.9414 20.6089 13 20.8022 13 21C13 21.2652 12.8946 21.5196 12.7071 21.7071C12.5196 21.8946 12.2652 22 12 22Z" fill="currentColor"/>
</g>
<defs>
<clipPath id="clip0_403_3271">
<rect width="24" height="24" fill="white"/>
</clipPath>
</defs>
</svg>
