<svg width="24" height="24" viewBox="0 0 24 24" fill="none" xmlns="http://www.w3.org/2000/svg">
<path d="M22.2075 5.02918C21.3112 3.53541 19.7178 2.53955 17.9253 2.53955H5.97511C4.18256 2.53955 2.58923 3.53541 1.69294 5.02918C0.597516 7.0209 0 9.21179 0 11.5022C0 16.9794 2.19089 21.4607 4.97925 21.4607C6.47302 21.4607 7.66805 20.0665 8.5643 17.1786C8.66386 16.7802 9.0622 16.4815 9.56016 16.4815H14.4398C14.8382 16.4815 15.2365 16.7802 15.4357 17.1786C16.332 20.0665 17.527 21.4607 19.0208 21.4607C21.8091 21.4607 24 16.9794 24 11.5022C23.9004 9.21179 23.3029 7.0209 22.2075 5.02918ZM18.9211 19.469C18.6224 19.469 17.9253 18.6723 17.2282 16.5811C16.8299 15.2865 15.6348 14.4898 14.3402 14.4898H9.56016C8.26556 14.4898 7.07053 15.386 6.67219 16.5811C5.97511 18.6723 5.27798 19.469 4.97925 19.469C3.98339 19.469 1.99172 16.3819 1.99172 11.5022C1.99172 9.61013 2.48962 7.71802 3.38592 6.02508C3.98344 5.12883 4.9793 4.53132 5.97516 4.53132H17.9254C18.9212 4.53132 19.9171 5.12883 20.5146 6.02508C21.4109 7.71802 21.9088 9.61013 21.9088 11.5022C21.9087 16.3819 19.917 19.469 18.9211 19.469Z" fill="currentColor"/>
<path d="M9.00005 8.99996H8.00006V7.99998C8.00006 7.39998 7.60008 7 7.00008 7C6.40008 7 6.00009 7.39998 6.00009 7.99998V8.99996H5.00011C4.40011 8.99996 4.00012 9.39995 4.00012 9.99995C4.00012 10.5999 4.40011 10.9999 5.00011 10.9999H6.00005V12C6.00005 12.6 6.40003 12.9999 7.00003 12.9999C7.60003 12.9999 8.00002 12.6 8.00002 12V11H9.00005C9.60005 11 10 10.6 10 9.99999C10 9.39995 9.60005 8.99996 9.00005 8.99996Z" fill="currentColor"/>
<path d="M18.5 10C19.3284 10 20 9.32843 20 8.5C20 7.67157 19.3284 7 18.5 7C17.6716 7 17 7.67157 17 8.5C17 9.32843 17.6716 10 18.5 10Z" fill="currentColor"/>
<path d="M15.5 13C16.3284 13 17 12.3284 17 11.5C17 10.6716 16.3284 10 15.5 10C14.6716 10 14 10.6716 14 11.5C14 12.3284 14.6716 13 15.5 13Z" fill="currentColor"/>
</svg>
