<svg width="24" height="24" viewBox="0 0 24 24" fill="none" xmlns="http://www.w3.org/2000/svg">
<g clip-path="url(#clip0_403_3002)">
<path d="M23.681 3.267C23.4935 3.07953 23.2392 2.97421 22.974 2.97421C22.7088 2.97421 22.4545 3.07953 22.267 3.267L19.293 6.24C19.1054 6.42749 19.0001 6.68181 19 6.947V18C19 18.2652 18.8946 18.5196 18.7071 18.7071C18.5196 18.8946 18.2652 19 18 19H16V5C15.9984 3.67441 15.4711 2.40356 14.5338 1.46622C13.5964 0.528882 12.3256 0.00158786 11 0L5 0C3.67441 0.00158786 2.40356 0.528882 1.46622 1.46622C0.528882 2.40356 0.00158786 3.67441 0 5L0 19C0.00158786 20.3256 0.528882 21.5964 1.46622 22.5338C2.40356 23.4711 3.67441 23.9984 5 24H11C11.9718 23.9987 12.9221 23.7143 13.7348 23.1815C14.5475 22.6487 15.1873 21.8906 15.576 21H18C18.7956 21 19.5587 20.6839 20.1213 20.1213C20.6839 19.5587 21 18.7956 21 18V7.361L23.681 4.681C23.8685 4.49347 23.9738 4.23916 23.9738 3.974C23.9738 3.70884 23.8685 3.45453 23.681 3.267ZM5 2H11C11.7956 2 12.5587 2.31607 13.1213 2.87868C13.6839 3.44129 14 4.20435 14 5V9H12C11.9961 8.04289 11.6462 7.11946 11.015 6.4L11.707 5.707C11.8025 5.61475 11.8787 5.50441 11.9311 5.3824C11.9835 5.2604 12.0111 5.12918 12.0123 4.9964C12.0134 4.86362 11.9881 4.73194 11.9378 4.60905C11.8875 4.48615 11.8133 4.3745 11.7194 4.2806C11.6255 4.18671 11.5139 4.11246 11.391 4.06218C11.2681 4.0119 11.1364 3.9866 11.0036 3.98775C10.8708 3.9889 10.7396 4.01649 10.6176 4.0689C10.4956 4.12131 10.3852 4.19749 10.293 4.293L9.339 5.247C8.7369 5.02379 8.08957 4.95028 7.45275 5.03279C6.81593 5.11529 6.2087 5.35135 5.68337 5.72063C5.15803 6.08991 4.73032 6.58135 4.43708 7.15262C4.14383 7.7239 3.99383 8.35789 4 9H2V5C2 4.20435 2.31607 3.44129 2.87868 2.87868C3.44129 2.31607 4.20435 2 5 2ZM6 9C6 8.46957 6.21071 7.96086 6.58579 7.58579C6.96086 7.21071 7.46957 7 8 7C8.53043 7 9.03914 7.21071 9.41421 7.58579C9.78929 7.96086 10 8.46957 10 9H6ZM11 22H5C4.20435 22 3.44129 21.6839 2.87868 21.1213C2.31607 20.5587 2 19.7956 2 19V11H14V19C14 19.7956 13.6839 20.5587 13.1213 21.1213C12.5587 21.6839 11.7956 22 11 22Z" fill="currentColor"/>
</g>
<defs>
<clipPath id="clip0_403_3002">
<rect width="24" height="24" fill="white"/>
</clipPath>
</defs>
</svg>
