<svg width="24" height="24" viewBox="0 0 24 24" fill="none" xmlns="http://www.w3.org/2000/svg">
<g clip-path="url(#clip0_406_2024)">
<path d="M23.2999 22.5709L18.8419 23.9549C18.5886 24.0337 18.3144 24.0086 18.0796 23.8852C17.8448 23.7618 17.6687 23.5502 17.5899 23.2969C17.5111 23.0437 17.5362 22.7695 17.6596 22.5347C17.783 22.2999 17.9946 22.1237 18.2479 22.0449L19.4919 21.6589L18.5739 18.9589C18.3812 18.9837 18.1872 18.9971 17.9929 18.9989C16.902 18.9967 15.8417 18.6377 14.9738 17.9767C14.1059 17.3157 13.478 16.389 13.1859 15.3379L13.0589 14.9629L14.0589 11.9979H22.5999L22.7999 12.6049C23.1169 13.6818 23.0586 14.8344 22.6348 15.8738C22.2109 16.9132 21.4465 17.7778 20.4669 18.3259L21.3979 21.0629L22.6979 20.6629C22.9512 20.5842 23.2254 20.6092 23.4602 20.7326C23.695 20.856 23.8711 21.0676 23.9499 21.3209C24.0287 21.5742 24.0036 21.8484 23.8802 22.0832C23.7568 22.318 23.5452 22.4942 23.2919 22.5729L23.2999 22.5709ZM14.6559 9.99993H21.9229L20.9569 7.13193C20.7249 6.38448 20.2121 5.75612 19.5264 5.37902C18.8406 5.00191 18.0353 4.90545 17.2799 5.10993L13.7559 6.09193C13.8989 6.27326 14.0295 6.46403 14.1469 6.66293C14.7034 7.68088 14.8837 8.86234 14.6559 9.99993ZM10.5719 6.18393L6.71888 5.10993C5.96895 4.90307 5.16804 4.99479 4.4843 5.36585C3.80055 5.7369 3.28715 6.35842 3.05188 7.09993L2.07788 9.99993H12.6189L12.6389 9.94093C12.7543 9.55857 12.7922 9.15701 12.7504 8.75981C12.7086 8.3626 12.5879 7.97774 12.3954 7.62781C12.2028 7.27787 11.9424 6.9699 11.6292 6.72196C11.3161 6.47402 10.9566 6.2911 10.5719 6.18393ZM1.18488 12.6569C0.880902 13.7319 0.948984 14.8779 1.37809 15.9093C1.80719 16.9407 2.57215 17.7969 3.54888 18.3389L2.60488 21.0669L1.29988 20.6609C1.17447 20.6215 1.04253 20.6072 0.911584 20.6188C0.780642 20.6304 0.653265 20.6677 0.536728 20.7285C0.42019 20.7893 0.316774 20.8725 0.232383 20.9733C0.147992 21.0741 0.0842795 21.1905 0.0448829 21.3159C0.00548634 21.4413 -0.00882265 21.5733 0.00277292 21.7042C0.0143685 21.8352 0.0516415 21.9625 0.112464 22.0791C0.173286 22.1956 0.256467 22.299 0.357256 22.3834C0.458046 22.4678 0.574471 22.5315 0.699883 22.5709L5.15788 23.9549C5.41116 24.0337 5.68536 24.0086 5.92016 23.8852C6.15495 23.7618 6.33111 23.5502 6.40988 23.2969C6.48865 23.0437 6.46358 22.7695 6.34018 22.5347C6.21678 22.2999 6.00516 22.1237 5.75188 22.0449L4.51588 21.6599L5.45088 18.9599C5.63632 18.9837 5.82295 18.9971 6.00988 18.9999C7.09105 18.9973 8.14222 18.6442 9.00582 17.9937C9.86941 17.3432 10.4989 16.4304 10.7999 15.3919L11.9449 11.9999H1.40588L1.18488 12.6569ZM15.5529 3.89993C15.6709 3.95929 15.7996 3.99466 15.9314 4.004C16.0632 4.01334 16.1956 3.99646 16.3209 3.95434C16.4461 3.91222 16.5618 3.84569 16.6612 3.75859C16.7605 3.6715 16.8417 3.56557 16.8999 3.44693L17.8999 1.44693C18.0184 1.20956 18.0378 0.93482 17.9538 0.683146C17.8698 0.431472 17.6893 0.223481 17.4519 0.10493C17.2145 -0.0136223 16.9398 -0.0330241 16.6881 0.0509922C16.4364 0.135009 16.2284 0.315561 16.1099 0.55293L15.1099 2.55293C15.0502 2.67039 15.0143 2.7985 15.0042 2.92989C14.9942 3.06127 15.0102 3.19335 15.0514 3.31852C15.0925 3.4437 15.158 3.5595 15.2441 3.65928C15.3302 3.75906 15.4351 3.84084 15.5529 3.89993ZM7.10488 3.44693C7.22343 3.68496 7.43169 3.86615 7.68383 3.95063C7.80868 3.99247 7.94055 4.0093 8.0719 4.00017C8.20325 3.99104 8.33152 3.95613 8.44938 3.89743C8.56724 3.83873 8.67239 3.75739 8.75881 3.65805C8.84524 3.55872 8.91125 3.44333 8.95309 3.31848C8.99492 3.19363 9.01175 3.06177 9.00262 2.93041C8.9935 2.79906 8.95858 2.67079 8.89988 2.55293L7.89988 0.55293C7.84118 0.435396 7.75991 0.330576 7.6607 0.244454C7.56149 0.158331 7.44628 0.0925929 7.32167 0.0509922C7.06999 -0.0330241 6.79525 -0.0136223 6.55788 0.10493C6.32051 0.223481 6.13996 0.431472 6.05595 0.683146C5.97193 0.93482 5.99133 1.20956 6.10988 1.44693L7.10488 3.44693ZM11.9999 -7.04906e-05C11.7347 -7.04906e-05 11.4803 0.105286 11.2928 0.292823C11.1052 0.480359 10.9999 0.734713 10.9999 0.99993V2.99993C10.9999 3.26515 11.1052 3.5195 11.2928 3.70704C11.4803 3.89457 11.7347 3.99993 11.9999 3.99993C12.2651 3.99993 12.5195 3.89457 12.707 3.70704C12.8945 3.5195 12.9999 3.26515 12.9999 2.99993V0.99993C12.9999 0.734713 12.8945 0.480359 12.707 0.292823C12.5195 0.105286 12.2651 -7.04906e-05 11.9999 -7.04906e-05Z" fill="currentColor"/>
</g>
<defs>
<clipPath id="clip0_406_2024">
<rect width="24" height="24" fill="white"/>
</clipPath>
</defs>
</svg>
