<svg width="24" height="24" viewBox="0 0 24 24" fill="none" xmlns="http://www.w3.org/2000/svg">
<g clip-path="url(#clip0_406_2082)">
<path d="M12 0C9.62663 0 7.30655 0.703788 5.33316 2.02236C3.35977 3.34094 1.8217 5.21509 0.913451 7.4078C0.00519943 9.60051 -0.232441 12.0133 0.230582 14.3411C0.693605 16.6689 1.83649 18.8071 3.51472 20.4853C5.19295 22.1635 7.33115 23.3064 9.65892 23.7694C11.9867 24.2324 14.3995 23.9948 16.5922 23.0866C18.7849 22.1783 20.6591 20.6402 21.9776 18.6668C23.2962 16.6935 24 14.3734 24 12C23.9966 8.81846 22.7312 5.76821 20.4815 3.51852C18.2318 1.26883 15.1815 0.00344108 12 0V0ZM15.222 7H8.77801C9.62677 5.32427 10.7119 3.77916 12 2.412C13.2886 3.77877 14.3738 5.32396 15.222 7ZM16.022 9C16.3294 9.97068 16.4898 10.9819 16.498 12C16.4898 13.0181 16.3294 14.0293 16.022 15H7.97601C7.66866 14.0293 7.50821 13.0181 7.50001 12C7.50821 10.9819 7.66866 9.97068 7.97601 9H16.022ZM9.40001 2.356C8.24767 3.76578 7.29659 5.3287 6.57401 7H3.35301C4.67886 4.71643 6.85166 3.04775 9.40001 2.356ZM2.00001 12C1.99991 10.9824 2.15538 9.97067 2.46101 9H5.90001C5.64076 9.97915 5.50636 10.9871 5.50001 12C5.50636 13.0129 5.64076 14.0209 5.90001 15H2.46101C2.15538 14.0293 1.99991 13.0176 2.00001 12ZM3.35301 17H6.57401C7.29659 18.6713 8.24767 20.2342 9.40001 21.644C6.85166 20.9522 4.67886 19.2836 3.35301 17ZM8.77801 17H15.222C14.3732 18.6757 13.2882 20.2208 12 21.588C10.7114 20.2212 9.62625 18.676 8.77801 17ZM14.605 21.644C15.7556 20.2339 16.705 18.671 17.426 17H20.647C19.3223 19.2825 17.1515 20.9511 14.605 21.644ZM22 12C22.0001 13.0176 21.8446 14.0293 21.539 15H18.1C18.3592 14.0209 18.4936 13.0129 18.5 12C18.4936 10.9871 18.3592 9.97915 18.1 9H21.537C21.8433 9.97056 21.9995 10.9823 22 12ZM17.426 7C16.705 5.32899 15.7556 3.76609 14.605 2.356C17.1515 3.04893 19.3223 4.71747 20.647 7H17.426Z" fill="currentColor"/>
</g>
<defs>
<clipPath id="clip0_406_2082">
<rect width="24" height="24" fill="white"/>
</clipPath>
</defs>
</svg>
