<svg width="24" height="24" viewBox="0 0 24 24" fill="none" xmlns="http://www.w3.org/2000/svg">
<g clip-path="url(#clip0_406_2019)">
<path d="M12 9.99963C11.315 9.99963 10.651 10.0396 10 10.0996V16.9996C10 17.2648 9.89464 17.5192 9.70711 17.7067C9.51957 17.8943 9.26522 17.9996 9 17.9996C8.73478 17.9996 8.48043 17.8943 8.29289 17.7067C8.10536 17.5192 8 17.2648 8 16.9996L7.978 8.11462L12.987 6.03863C13.2921 5.88359 13.5523 5.65286 13.7428 5.3685C13.9332 5.08414 14.0475 4.75567 14.0747 4.41452C14.1019 4.07336 14.041 3.73094 13.8981 3.42001C13.7551 3.10907 13.5347 2.84003 13.258 2.63862C13.226 2.60962 8.9 0.211624 8.9 0.211624C8.59494 0.0579014 8.25558 -0.0151211 7.91429 -0.000481706C7.573 0.0141576 7.24114 0.115971 6.95036 0.295252C6.65958 0.474533 6.41957 0.725305 6.2532 1.02366C6.08684 1.32202 5.99967 1.65802 6 1.99962V10.9216C2.392 12.1146 0 14.3606 0 16.9996C0 20.9246 5.271 23.9996 12 23.9996C18.729 23.9996 24 20.9246 24 16.9996C24 13.0746 18.729 9.99963 12 9.99963ZM16 18.9996C15.6044 18.9996 15.2178 18.8823 14.8889 18.6626C14.56 18.4428 14.3036 18.1304 14.1522 17.765C14.0009 17.3995 13.9613 16.9974 14.0384 16.6094C14.1156 16.2215 14.3061 15.8651 14.5858 15.5854C14.8655 15.3057 15.2219 15.1152 15.6098 15.0381C15.9978 14.9609 16.3999 15.0005 16.7654 15.1519C17.1308 15.3032 17.4432 15.5596 17.6629 15.8885C17.8827 16.2174 18 16.6041 18 16.9996C18 17.5301 17.7893 18.0388 17.4142 18.4138C17.0391 18.7889 16.5304 18.9996 16 18.9996Z" fill="currentColor"/>
</g>
<defs>
<clipPath id="clip0_406_2019">
<rect width="24" height="24" fill="white"/>
</clipPath>
</defs>
</svg>
