<svg width="24" height="24" viewBox="0 0 24 24" fill="none" xmlns="http://www.w3.org/2000/svg">
<g clip-path="url(#clip0_406_2017)">
<path d="M23.9999 8.48042V20.0004C23.9999 20.2656 23.8946 20.52 23.7071 20.7075C23.5195 20.8951 23.2652 21.0004 22.9999 21.0004C22.7347 21.0004 22.4804 20.8951 22.2928 20.7075C22.1053 20.52 21.9999 20.2656 21.9999 20.0004V11.7524L14.5999 15.2884C13.8197 15.749 12.929 15.9888 12.0229 15.9824C11.0728 15.9839 10.1399 15.7286 9.32294 15.2434L1.94294 11.7304C1.36282 11.4185 0.876752 10.957 0.535163 10.3938C0.193574 9.8306 0.00891381 9.18628 0.000343083 8.52766C-0.00822764 7.86904 0.159603 7.22012 0.486422 6.64825C0.81324 6.07637 1.28714 5.60237 1.85894 5.27542C1.88594 5.25942 1.91494 5.24442 1.94294 5.23042L9.39994 1.67242C10.205 1.21009 11.1187 0.970552 12.047 0.978461C12.9754 0.98637 13.8849 1.24144 14.6819 1.71742L22.0569 5.23042C22.6389 5.55241 23.1252 6.02272 23.4665 6.59355C23.8077 7.16439 23.9918 7.8154 23.9999 8.48042ZM12.0219 17.9804C10.7425 17.9833 9.48507 17.6479 8.37694 17.0084L3.99994 14.9194V17.6194C4.00054 18.6869 4.34231 19.7263 4.97537 20.5859C5.60843 21.4454 6.49965 22.0802 7.51894 22.3974C8.97528 22.8156 10.4849 23.0187 11.9999 23.0004C13.5152 23.0174 15.0248 22.8129 16.4809 22.3934C17.5002 22.0762 18.3915 21.4415 19.0245 20.5819C19.6576 19.7223 19.9993 18.6829 19.9999 17.6154V14.9244L15.5409 17.0544C14.4706 17.6694 13.2563 17.9896 12.0219 17.9824V17.9804Z" fill="currentColor"/>
</g>
<defs>
<clipPath id="clip0_406_2017">
<rect width="24" height="24" fill="white"/>
</clipPath>
</defs>
</svg>
