<svg width="24" height="24" viewBox="0 0 24 24" fill="none" xmlns="http://www.w3.org/2000/svg">
<g clip-path="url(#clip0_406_2010)">
<path d="M14 11.0003C13.8022 11.0003 13.6089 10.9416 13.4445 10.8317C13.2801 10.7218 13.152 10.5657 13.0763 10.383C13.0006 10.2003 12.9808 9.99925 13.0194 9.8053C13.058 9.61135 13.1532 9.43318 13.293 9.29333L16.259 6.32733C15.1612 5.43579 13.7794 4.9687 12.3658 5.01129C10.9523 5.05388 9.60113 5.60332 8.559 6.55933C8.39923 6.7183 8.25055 6.88803 8.114 7.06733C7.93491 7.32552 7.70445 7.54396 7.43706 7.70897C7.16966 7.87399 6.87107 7.98203 6.56 8.02633C4.8634 8.14115 3.26537 8.86488 2.06 10.0643C-0.896004 13.0213 -0.640004 18.0893 2.635 21.3643C4.26505 23.0255 6.48679 23.9733 8.814 24.0003C9.7615 24.0129 10.7021 23.8374 11.5813 23.484C12.4605 23.1306 13.2608 22.6062 13.936 21.9413C15.1354 20.736 15.8592 19.1379 15.974 17.4413C16.0183 17.1303 16.1263 16.8317 16.2914 16.5643C16.4564 16.2969 16.6748 16.0664 16.933 15.8873C17.1123 15.7508 17.282 15.6021 17.441 15.4423C18.3959 14.3996 18.9445 13.0487 18.9871 11.6354C19.0297 10.2222 18.5634 8.84065 17.673 7.74233L14.707 10.7083C14.5193 10.8955 14.265 11.0005 14 11.0003ZM7.707 19.7073C7.51947 19.8948 7.26516 20.0001 7 20.0001C6.73483 20.0001 6.48052 19.8948 6.293 19.7073L4.293 17.7073C4.11084 17.5187 4.01004 17.2661 4.01232 17.0039C4.0146 16.7417 4.11977 16.4909 4.30518 16.3055C4.49059 16.1201 4.7414 16.0149 5.00359 16.0127C5.26579 16.0104 5.51839 16.1112 5.707 16.2933L7.707 18.2933C7.89447 18.4809 7.99978 18.7352 7.99978 19.0003C7.99978 19.2655 7.89447 19.5198 7.707 19.7073ZM10 17.0003C9.40665 17.0003 8.82663 16.8244 8.33329 16.4947C7.83994 16.1651 7.45542 15.6966 7.22836 15.1484C7.0013 14.6002 6.94188 13.997 7.05764 13.4151C7.1734 12.8331 7.45912 12.2986 7.87868 11.879C8.29823 11.4595 8.83278 11.1737 9.41473 11.058C9.99667 10.9422 10.5999 11.0016 11.148 11.2287C11.6962 11.4558 12.1648 11.8403 12.4944 12.3336C12.824 12.827 13 13.407 13 14.0003C13 14.796 12.6839 15.559 12.1213 16.1217C11.5587 16.6843 10.7956 17.0003 10 17.0003ZM11 14.0003C11 14.1981 10.9413 14.3915 10.8315 14.5559C10.7216 14.7204 10.5654 14.8485 10.3827 14.9242C10.2 14.9999 9.99889 15.0197 9.80491 14.9811C9.61092 14.9425 9.43274 14.8473 9.29289 14.7074C9.15304 14.5676 9.0578 14.3894 9.01921 14.1954C8.98063 14.0014 9.00043 13.8004 9.07612 13.6176C9.1518 13.4349 9.27998 13.2787 9.44443 13.1689C9.60887 13.059 9.80221 13.0003 10 13.0003C10.2652 13.0003 10.5196 13.1057 10.7071 13.2932C10.8946 13.4808 11 13.7351 11 14.0003ZM23.482 3.01833L23.268 3.23233C22.5397 3.95858 21.6378 4.48662 20.648 4.76633L17.673 7.74133C17.4785 7.46839 17.2639 7.21034 17.031 6.96933C16.79 6.73643 16.5319 6.52183 16.259 6.32733L19.234 3.35233C19.5137 2.36255 20.0418 1.46068 20.768 0.732332L20.982 0.518332C21.3153 0.195653 21.7621 0.0169219 22.2261 0.0206882C22.69 0.0244546 23.1338 0.210416 23.4619 0.538465C23.7899 0.866514 23.9759 1.31036 23.9796 1.77428C23.9834 2.23819 23.8047 2.685 23.482 3.01833Z" fill="currentColor"/>
</g>
<defs>
<clipPath id="clip0_406_2010">
<rect width="24" height="24" fill="white"/>
</clipPath>
</defs>
</svg>
