<svg width="24" height="24" viewBox="0 0 24 24" fill="none" xmlns="http://www.w3.org/2000/svg">
<g clip-path="url(#clip0_406_1994)">
<path d="M16.2431 10.7636C15.1179 9.63832 13.5918 9.00608 12.0004 9.00598C10.4091 9.00589 8.88291 9.63796 7.75759 10.7631C6.63228 11.8883 6.00003 13.4144 5.99994 15.0058C5.99985 16.5971 6.63191 18.1233 7.75709 19.2486L11.2641 22.6786C11.4608 22.8709 11.725 22.9786 12.0001 22.9786C12.2752 22.9786 12.5394 22.8709 12.7361 22.6786L16.2431 19.2486C17.3682 18.1234 18.0003 16.5974 18.0003 15.0061C18.0003 13.4149 17.3682 11.8888 16.2431 10.7636ZM12.0001 16.9936C11.6045 16.9936 11.2179 16.8763 10.889 16.6566C10.5601 16.4368 10.3037 16.1245 10.1523 15.759C10.001 15.3936 9.96135 14.9914 10.0385 14.6035C10.1157 14.2155 10.3062 13.8591 10.5859 13.5794C10.8656 13.2997 11.222 13.1092 11.6099 13.0321C11.9979 12.9549 12.4 12.9945 12.7655 13.1459C13.1309 13.2973 13.4433 13.5536 13.663 13.8825C13.8828 14.2114 14.0001 14.5981 14.0001 14.9936C14.0001 15.5241 13.7894 16.0328 13.4143 16.4078C13.0392 16.7829 12.5305 16.9936 12.0001 16.9936Z" fill="currentColor"/>
<path d="M21.7999 5.57914L14.7999 0.855143C13.974 0.2938 12.9985 -0.00634766 11.9999 -0.00634766C11.0013 -0.00634766 10.0258 0.2938 9.19991 0.855143L2.19991 5.57914C1.52163 6.03688 0.966242 6.6543 0.582617 7.37708C0.198991 8.09987 -0.00111251 8.90586 -8.76357e-05 9.72414V19.0001C0.00150022 20.3257 0.528794 21.5966 1.46613 22.5339C2.40347 23.4713 3.67432 23.9986 4.99991 24.0001H9.75391L6.35891 20.6791C5.60782 19.9389 5.01048 19.0575 4.60127 18.0856C4.19206 17.1136 3.97905 16.0704 3.97448 15.0159C3.96992 13.9613 4.1739 12.9163 4.57468 11.9408C4.97547 10.9654 5.56515 10.0788 6.30981 9.33213C7.05447 8.58543 7.93942 7.99332 8.91374 7.58986C9.88807 7.18641 10.9326 6.97957 11.9871 6.98124C13.0417 6.98292 14.0855 7.19307 15.0585 7.59962C16.0316 8.00616 16.9146 8.60108 17.6569 9.35014C19.157 10.8504 19.9997 12.8851 19.9997 15.0066C19.9997 17.1282 19.157 19.1629 17.6569 20.6631L14.2449 24.0001H18.9999C20.3255 23.9986 21.5964 23.4713 22.5337 22.5339C23.471 21.5966 23.9983 20.3257 23.9999 19.0001V9.72414C24.0003 8.90597 23.8 8.1002 23.4164 7.37752C23.0328 6.65483 22.4778 6.03732 21.7999 5.57914Z" fill="currentColor"/>
</g>
<defs>
<clipPath id="clip0_406_1994">
<rect width="24" height="24" fill="white"/>
</clipPath>
</defs>
</svg>
