<svg width="24" height="24" viewBox="0 0 24 24" fill="none" xmlns="http://www.w3.org/2000/svg">
<g clip-path="url(#clip0_406_1991)">
<path d="M16.5512 12C18.8562 10.1176 20.4177 7.47769 20.9572 4.551C21.0394 3.99066 21 3.41918 20.8416 2.87545C20.6832 2.33171 20.4095 1.82848 20.0392 1.4C19.663 0.961938 19.1968 0.610121 18.6724 0.368524C18.1479 0.126928 17.5776 0.00123104 17.0002 0L7.00517 0C6.42688 0.000313842 5.85549 0.125575 5.33011 0.36721C4.80473 0.608844 4.33776 0.961146 3.96117 1.4C3.58988 1.82928 3.31572 2.3337 3.15745 2.87876C2.99918 3.42381 2.96054 3.99663 3.04417 4.558C3.58108 7.4825 5.14113 10.1205 7.44517 12C5.1411 13.8801 3.58137 16.5189 3.04517 19.444C2.9617 20.005 3.00033 20.5774 3.15842 21.1221C3.31651 21.6667 3.59033 22.1709 3.96117 22.6C4.33776 23.0389 4.80473 23.3912 5.33011 23.6328C5.85549 23.8744 6.42688 23.9997 7.00517 24H17.0002C17.5784 23.9995 18.1497 23.8741 18.6751 23.6325C19.2005 23.3909 19.6674 23.0387 20.0442 22.6C20.4151 22.1709 20.6892 21.6668 20.8476 21.1222C21.006 20.5775 21.0451 20.0051 20.9622 19.444C20.4202 16.5184 18.857 13.8804 16.5512 12ZM17.8282 20.559C17.7367 20.6946 17.6134 20.8057 17.4691 20.8826C17.3247 20.9595 17.1637 20.9998 17.0002 21H7.00017C6.83646 21.0001 6.67524 20.96 6.53065 20.8832C6.38606 20.8065 6.26253 20.6954 6.1709 20.5597C6.07927 20.424 6.02235 20.268 6.00514 20.1052C5.98792 19.9424 6.01094 19.7778 6.07217 19.626C7.11191 17.3879 8.69285 15.444 10.6722 13.97L11.3722 13.411C11.5491 13.2702 11.7686 13.1936 11.9947 13.1936C12.2208 13.1936 12.4402 13.2702 12.6172 13.411L13.3072 13.962C15.2864 15.4412 16.8698 17.3861 17.9172 19.624C17.98 19.7752 18.0048 19.9396 17.9893 20.1026C17.9737 20.2656 17.9184 20.4224 17.8282 20.559ZM15.3492 19H8.64917C9.54765 17.6787 10.652 16.5099 11.9202 15.538L12.0002 15.472L12.0712 15.527C13.3389 16.5059 14.445 17.6779 15.3492 19Z" fill="currentColor"/>
</g>
<defs>
<clipPath id="clip0_406_1991">
<rect width="24" height="24" fill="white"/>
</clipPath>
</defs>
</svg>
