<svg width="24" height="24" viewBox="0 0 24 24" fill="none" xmlns="http://www.w3.org/2000/svg">
<g clip-path="url(#clip0_403_3260)">
<path d="M23 18.9996C22.7348 18.9996 22.4804 19.105 22.2929 19.2925C22.1054 19.4801 22 19.7344 22 19.9996C22 20.5301 21.7893 21.0388 21.4142 21.4139C21.0391 21.7889 20.5304 21.9996 20 21.9996H16V17.9996H18.1C19.1339 17.9983 20.1251 17.587 20.8563 16.8559C21.5874 16.1248 21.9987 15.1336 22 14.0996C21.9973 12.7134 21.5157 11.3707 20.6369 10.2987C19.758 9.22666 18.5358 8.49116 17.177 8.21664L13.3 7.43964C12.8903 7.35801 12.5165 7.15017 12.231 6.84528C11.9455 6.54039 11.7626 6.15376 11.708 5.73964L11.3 2.57564C11.2408 2.16129 11.0955 1.76392 10.8735 1.40907C10.6515 1.05423 10.3578 0.749761 10.0111 0.515244C9.66438 0.280727 9.27245 0.121352 8.86049 0.0473644C8.44852 -0.0266234 8.02563 -0.0135862 7.619 0.0856378L2.91 1.41964C2.07333 1.65915 1.33714 2.16403 0.812295 2.85823C0.28745 3.55243 0.00237401 4.39837 0 5.26864L0 13.9996C0 15.0605 0.421427 16.0779 1.17157 16.8281C1.92172 17.5782 2.93913 17.9996 4 17.9996H5V21.9996H1C0.734784 21.9996 0.48043 22.105 0.292893 22.2925C0.105357 22.4801 0 22.7344 0 22.9996C0 23.2649 0.105357 23.5192 0.292893 23.7067C0.48043 23.8943 0.734784 23.9996 1 23.9996H20C21.0609 23.9996 22.0783 23.5782 22.8284 22.8281C23.5786 22.0779 24 21.0605 24 19.9996C24 19.7344 23.8946 19.4801 23.7071 19.2925C23.5196 19.105 23.2652 18.9996 23 18.9996ZM2 13.9996V5.26864C2.00149 4.83352 2.14413 4.41063 2.4065 4.06351C2.66887 3.71639 3.03679 3.46378 3.455 3.34364L8.107 2.02364C8.17961 2.00786 8.25369 1.99982 8.328 1.99964C8.56647 2.00021 8.79688 2.08597 8.97768 2.24147C9.15847 2.39696 9.27775 2.61194 9.314 2.84764L9.466 3.99964H7C6.73478 3.99964 6.48043 4.10499 6.29289 4.29253C6.10536 4.48007 6 4.73442 6 4.99964C6 5.26485 6.10536 5.51921 6.29289 5.70674C6.48043 5.89428 6.73478 5.99964 7 5.99964H9.729C9.77374 6.31335 9.856 6.62054 9.974 6.91464L7.635 8.33764C7.40837 8.47542 7.24576 8.69758 7.18294 8.95526C7.15183 9.08284 7.14615 9.21531 7.16624 9.34509C7.18633 9.47487 7.23178 9.59942 7.3 9.71164C7.36822 9.82385 7.45788 9.92153 7.56385 9.9991C7.66982 10.0767 7.79003 10.1326 7.91762 10.1637C8.17529 10.2265 8.44737 10.1844 8.674 10.0466L11.14 8.54664C11.4039 8.76473 11.695 8.9476 12.006 9.09064L10.631 11.5036C10.4997 11.7341 10.4654 12.0073 10.5355 12.2631C10.6056 12.5189 10.7745 12.7364 11.005 12.8676C11.2355 12.9989 11.5087 13.0333 11.7645 12.9631C12.0203 12.893 12.2377 12.7241 12.369 12.4936L14.007 9.61964L16.784 10.1756C17.6902 10.3589 18.5052 10.8495 19.0912 11.5646C19.6773 12.2796 19.9983 13.1751 20 14.0996C20 14.6035 19.7998 15.0868 19.4435 15.4431C19.0872 15.7995 18.6039 15.9996 18.1 15.9996H4C3.46957 15.9996 2.96086 15.7889 2.58579 15.4139C2.21071 15.0388 2 14.5301 2 13.9996ZM7 17.9996H14V21.9996H7V17.9996Z" fill="currentColor"/>
</g>
<defs>
<clipPath id="clip0_403_3260">
<rect width="24" height="24" fill="white"/>
</clipPath>
</defs>
</svg>
