<svg width="24" height="24" viewBox="0 0 24 24" fill="none" xmlns="http://www.w3.org/2000/svg">
<g clip-path="url(#clip0_406_1976)">
<path d="M12 0C9.62663 0 7.30655 0.703788 5.33316 2.02236C3.35977 3.34094 1.8217 5.21509 0.913451 7.4078C0.00519943 9.60051 -0.232441 12.0133 0.230582 14.3411C0.693605 16.6689 1.83649 18.8071 3.51472 20.4853C5.19295 22.1635 7.33115 23.3064 9.65892 23.7694C11.9867 24.2324 14.3995 23.9948 16.5922 23.0866C18.7849 22.1783 20.6591 20.6402 21.9776 18.6668C23.2962 16.6935 24 14.3734 24 12C23.9966 8.81846 22.7312 5.76821 20.4815 3.51852C18.2318 1.26883 15.1815 0.00344108 12 0V0ZM12 20C11.8022 20 11.6089 19.9414 11.4444 19.8315C11.28 19.7216 11.1518 19.5654 11.0761 19.3827C11.0004 19.2 10.9806 18.9989 11.0192 18.8049C11.0578 18.6109 11.153 18.4327 11.2929 18.2929C11.4328 18.153 11.6109 18.0578 11.8049 18.0192C11.9989 17.9806 12.2 18.0004 12.3827 18.0761C12.5654 18.1518 12.7216 18.28 12.8315 18.4444C12.9414 18.6089 13 18.8022 13 19C13 19.2652 12.8946 19.5196 12.7071 19.7071C12.5196 19.8946 12.2652 20 12 20ZM13.93 12.506C13.6349 12.6905 13.3936 12.9495 13.2303 13.2569C13.0671 13.5642 12.9876 13.9092 13 14.257V15C13 15.2652 12.8946 15.5196 12.7071 15.7071C12.5196 15.8946 12.2652 16 12 16C11.7348 16 11.4804 15.8946 11.2929 15.7071C11.1054 15.5196 11 15.2652 11 15V14.257C10.9852 13.5514 11.1596 12.8548 11.5049 12.2393C11.8503 11.6238 12.3541 11.112 12.964 10.757C13.3335 10.5535 13.6292 10.2384 13.8088 9.85674C13.9884 9.47508 14.0427 9.0464 13.964 8.632C13.8861 8.2372 13.6922 7.87459 13.4073 7.59049C13.1223 7.30639 12.759 7.11369 12.364 7.037C12.0757 6.98364 11.7792 6.99431 11.4955 7.06826C11.2118 7.14221 10.9479 7.27762 10.7223 7.46492C10.4968 7.65221 10.3152 7.8868 10.1903 8.15207C10.0655 8.41735 10.0005 8.70683 10 9C10 9.26522 9.89465 9.51957 9.70711 9.70711C9.51958 9.89464 9.26522 10 9.00001 10C8.73479 10 8.48044 9.89464 8.2929 9.70711C8.10536 9.51957 8.00001 9.26522 8.00001 9C8.00026 8.29451 8.18709 7.60163 8.54156 6.99165C8.89603 6.38167 9.40552 5.8763 10.0184 5.52679C10.6312 5.17728 11.3256 4.99607 12.031 5.00154C12.7365 5.00701 13.428 5.19897 14.0353 5.55794C14.6427 5.91692 15.1442 6.43013 15.4892 7.04554C15.8342 7.66094 16.0102 8.35663 15.9995 9.06205C15.9889 9.76746 15.7918 10.4575 15.4283 11.0622C15.0649 11.6668 14.5479 12.1646 13.93 12.505V12.506Z" fill="currentColor"/>
</g>
<defs>
<clipPath id="clip0_406_1976">
<rect width="24" height="24" fill="white"/>
</clipPath>
</defs>
</svg>
