<svg width="24" height="24" viewBox="0 0 24 24" fill="none" xmlns="http://www.w3.org/2000/svg">
<g clip-path="url(#clip0_406_1971)">
<path d="M15.989 12.7002V10.0002C15.989 9.73497 16.0944 9.48062 16.2819 9.29308C16.4695 9.10555 16.7238 9.00019 16.989 9.00019H17.989C18.2543 9.00019 18.5086 8.89483 18.6961 8.70729C18.8837 8.51976 18.989 8.2654 18.989 8.00019V7.00019C18.989 6.73497 19.0944 6.48062 19.2819 6.29308C19.4695 6.10554 19.7238 6.00019 19.989 6.00019H22.674C22.8691 5.99924 23.0598 5.94216 23.2233 5.83576C23.3868 5.72937 23.5162 5.57815 23.596 5.40019C23.9338 4.65636 24.0637 3.83494 23.972 3.02319C23.8578 2.17802 23.4381 1.40391 22.7922 0.846979C22.1463 0.290051 21.3188 -0.0111653 20.466 0.000187529C19.2628 0.000263627 18.1088 0.478317 17.258 1.32919L9.35004 9.23519C8.07533 8.90404 6.73517 8.92061 5.46904 9.28319C3.7271 9.77577 2.22209 10.8818 1.23174 12.3971C0.24139 13.9124 -0.167472 15.7348 0.0806015 17.528C0.328675 19.3211 1.21694 20.9641 2.58149 22.1536C3.94604 23.3432 5.69479 23.999 7.50504 24.0002C7.7669 23.9999 8.02858 23.9863 8.28904 23.9592C9.7792 23.7969 11.187 23.1936 12.3322 22.2264C13.4774 21.2592 14.3078 19.9722 14.717 18.5302C15.0808 17.2645 15.097 15.9243 14.764 14.6502L15.414 14.0002C15.7597 13.6527 15.9645 13.1897 15.989 12.7002ZM5.50004 20.0002C5.20337 20.0002 4.91336 19.9122 4.66668 19.7474C4.42001 19.5826 4.22775 19.3483 4.11422 19.0742C4.00069 18.8001 3.97098 18.4985 4.02886 18.2076C4.08674 17.9166 4.2296 17.6493 4.43938 17.4395C4.64916 17.2297 4.91643 17.0869 5.2074 17.029C5.49838 16.9711 5.79998 17.0008 6.07406 17.1144C6.34815 17.2279 6.58242 17.4202 6.74724 17.6668C6.91207 17.9135 7.00004 18.2035 7.00004 18.5002C7.00004 18.898 6.842 19.2795 6.5607 19.5608C6.2794 19.8422 5.89786 20.0002 5.50004 20.0002Z" fill="currentColor"/>
</g>
<defs>
<clipPath id="clip0_406_1971">
<rect width="24" height="24" fill="white"/>
</clipPath>
</defs>
</svg>
