<svg width="24" height="24" viewBox="0 0 24 24" fill="none" xmlns="http://www.w3.org/2000/svg">
<g clip-path="url(#clip0_403_2961)">
<path d="M7.50504 23.9997C5.69479 23.9985 3.94604 23.3426 2.58149 22.1531C1.21694 20.9636 0.328675 19.3206 0.0806015 17.5274C-0.167472 15.7343 0.24139 13.9119 1.23174 12.3966C2.22209 10.8812 3.72709 9.77524 5.46904 9.28265C6.73516 8.92008 8.07533 8.9035 9.35004 9.23465L17.258 1.32865C17.6778 0.905936 18.1774 0.570787 18.7278 0.342649C19.2781 0.11451 19.8683 -0.00207601 20.464 -0.000347264C21.4016 0.000447168 22.3005 0.373244 22.9635 1.0362C23.6264 1.69916 23.9992 2.59809 24 3.53565C24.0016 4.13144 23.885 4.72163 23.6571 5.27209C23.4291 5.82256 23.0943 6.32238 22.672 6.74265L22 7.41465C21.624 7.78809 21.116 7.99828 20.586 7.99965H19V8.99965C19 9.53009 18.7893 10.0388 18.4143 10.4139C18.0392 10.7889 17.5305 10.9997 17 10.9997H16V12.5857C16.0008 12.8484 15.9493 13.1087 15.8487 13.3514C15.7481 13.5941 15.6004 13.8144 15.414 13.9997L14.764 14.6497C15.097 15.9237 15.0808 17.264 14.717 18.5297C14.3078 19.9717 13.4774 21.2587 12.3322 22.2259C11.187 23.1931 9.77919 23.7964 8.28904 23.9587C8.02858 23.9857 7.7669 23.9994 7.50504 23.9997ZM7.50504 10.9997C6.48119 10.9987 5.47739 11.2835 4.60663 11.822C3.73587 12.3606 3.03272 13.1315 2.57634 14.048C2.11996 14.9645 1.92847 15.9902 2.02341 17.0097C2.11836 18.0291 2.49598 19.0018 3.11376 19.8183C3.73154 20.6348 4.56496 21.2626 5.5202 21.6311C6.47543 21.9996 7.51457 22.0941 8.52063 21.9041C9.52668 21.714 10.4597 21.2469 11.2147 20.5554C11.9697 19.8638 12.5167 18.9752 12.794 17.9897C13.106 16.9062 13.0711 15.7522 12.694 14.6897C12.6325 14.5122 12.6222 14.321 12.6643 14.1379C12.7064 13.9549 12.7992 13.7874 12.932 13.6547L14 12.5857V10.9997C14 10.4692 14.2108 9.96051 14.5858 9.58544C14.9609 9.21037 15.4696 8.99965 16 8.99965H17V7.99965C17 7.46922 17.2108 6.96051 17.5858 6.58544C17.9609 6.21037 18.4696 5.99965 19 5.99965H20.586L21.258 5.32765C21.494 5.09281 21.6811 4.81352 21.8084 4.50593C21.9358 4.19834 22.0009 3.86856 22 3.53565C21.9998 3.12853 21.838 2.73815 21.5502 2.45018C21.2624 2.16221 20.8722 2.00018 20.465 1.99965C20.1319 1.99883 19.8019 2.06408 19.4941 2.19161C19.1864 2.31915 18.907 2.50644 18.672 2.74265L10.341 11.0727C10.2081 11.2055 10.0404 11.2983 9.85713 11.3402C9.67389 11.3821 9.48254 11.3715 9.30504 11.3097C8.72511 11.1055 8.11486 11.0007 7.50004 10.9997H7.50504ZM5.00004 17.9997C5.00004 18.1974 5.05869 18.3908 5.16857 18.5552C5.27845 18.7197 5.43463 18.8478 5.61736 18.9235C5.80008 18.9992 6.00115 19.019 6.19513 18.9804C6.38911 18.9419 6.56729 18.8466 6.70715 18.7068C6.847 18.5669 6.94224 18.3887 6.98082 18.1947C7.01941 18.0008 6.99961 17.7997 6.92392 17.617C6.84823 17.4342 6.72006 17.2781 6.55561 17.1682C6.39116 17.0583 6.19782 16.9997 6.00004 16.9997C5.73482 16.9997 5.48047 17.105 5.29293 17.2925C5.1054 17.4801 5.00004 17.7344 5.00004 17.9997Z" fill="currentColor"/>
</g>
<defs>
<clipPath id="clip0_403_2961">
<rect width="24" height="24" fill="white"/>
</clipPath>
</defs>
</svg>
