<svg width="24" height="24" viewBox="0 0 24 24" fill="none" xmlns="http://www.w3.org/2000/svg">
<g clip-path="url(#clip0_403_2954)">
<path d="M17.0001 13.184V10C17.0001 9.73479 16.8948 9.48044 16.7072 9.2929C16.5197 9.10537 16.2653 9.00001 16.0001 9.00001V2.41401C16.0002 2.00272 15.8951 1.59825 15.6947 1.23903C15.4944 0.879807 15.2056 0.577775 14.8557 0.361631C14.5058 0.145487 14.1064 0.022412 13.6955 0.00410093C13.2846 -0.0142101 12.8759 0.0728512 12.5081 0.257012L9.88612 1.56701C9.31832 1.84939 8.84081 2.28493 8.50753 2.82443C8.17426 3.36392 7.9985 3.98588 8.00012 4.62001V9.00001C7.73491 9.00001 7.48055 9.10537 7.29302 9.2929C7.10548 9.48044 7.00012 9.73479 7.00012 10V13.184C6.41721 13.3901 5.91221 13.7712 5.55421 14.2753C5.19621 14.7794 5.00269 15.3818 5.00012 16V19C5.00171 20.3256 5.529 21.5965 6.46634 22.5338C7.40368 23.4711 8.67453 23.9984 10.0001 24H14.0001C15.3257 23.9984 16.5966 23.4711 17.5339 22.5338C18.4712 21.5965 18.9985 20.3256 19.0001 19V16C18.9976 15.3818 18.804 14.7794 18.446 14.2753C18.088 13.7712 17.583 13.3901 17.0001 13.184ZM9.00012 13V11H15.0001V13H9.00012ZM10.0001 4.62001C9.99939 4.35743 10.0721 4.09989 10.2102 3.87651C10.3482 3.65314 10.546 3.47284 10.7811 3.35601L13.4001 2.04601C13.463 2.01345 13.5332 1.99768 13.604 2.00024C13.6748 2.0028 13.7437 2.0236 13.804 2.06062C13.8644 2.09764 13.9141 2.14963 13.9485 2.21155C13.9829 2.27346 14.0006 2.3432 14.0001 2.41401V9.00001H10.0001V4.62001ZM17.0001 19C17.0001 19.7957 16.6841 20.5587 16.1214 21.1213C15.5588 21.6839 14.7958 22 14.0001 22H10.0001C9.20447 22 8.44141 21.6839 7.8788 21.1213C7.31619 20.5587 7.00012 19.7957 7.00012 19V16C7.00012 15.7348 7.10548 15.4804 7.29302 15.2929C7.48055 15.1054 7.73491 15 8.00012 15H16.0001C16.2653 15 16.5197 15.1054 16.7072 15.2929C16.8948 15.4804 17.0001 15.7348 17.0001 16V19Z" fill="currentColor"/>
</g>
<defs>
<clipPath id="clip0_403_2954">
<rect width="24" height="24" fill="white"/>
</clipPath>
</defs>
</svg>
