<svg width="24" height="24" viewBox="0 0 24 24" fill="none" xmlns="http://www.w3.org/2000/svg">
<g clip-path="url(#clip0_406_2296)">
<path d="M19 8H17V5C17 3.67392 16.4732 2.40215 15.5355 1.46447C14.5979 0.526784 13.3261 0 12 0C10.6739 0 9.40215 0.526784 8.46447 1.46447C7.52678 2.40215 7 3.67392 7 5V8H5C3.67441 8.00159 2.40356 8.52888 1.46622 9.46622C0.528882 10.4036 0.00158786 11.6744 0 13L0 17C0.00127838 17.9718 0.285705 18.9221 0.818499 19.7348C1.35129 20.5475 2.10936 21.1873 3 21.576V23C3 23.2652 3.10536 23.5196 3.29289 23.7071C3.48043 23.8946 3.73478 24 4 24C4.26522 24 4.51957 23.8946 4.70711 23.7071C4.89464 23.5196 5 23.2652 5 23V22H19V23C19 23.2652 19.1054 23.5196 19.2929 23.7071C19.4804 23.8946 19.7348 24 20 24C20.2652 24 20.5196 23.8946 20.7071 23.7071C20.8946 23.5196 21 23.2652 21 23V21.576C21.8906 21.1873 22.6487 20.5475 23.1815 19.7348C23.7143 18.9221 23.9987 17.9718 24 17V13C23.9984 11.6744 23.4711 10.4036 22.5338 9.46622C21.5964 8.52888 20.3256 8.00159 19 8ZM9 5C9 4.20435 9.31607 3.44129 9.87868 2.87868C10.4413 2.31607 11.2044 2 12 2C12.7956 2 13.5587 2.31607 14.1213 2.87868C14.6839 3.44129 15 4.20435 15 5V8H9V5ZM16 13H8C7.73478 13 7.48043 12.8946 7.29289 12.7071C7.10536 12.5196 7 12.2652 7 12C7 11.7348 7.10536 11.4804 7.29289 11.2929C7.48043 11.1054 7.73478 11 8 11H16C16.2652 11 16.5196 11.1054 16.7071 11.2929C16.8946 11.4804 17 11.7348 17 12C17 12.2652 16.8946 12.5196 16.7071 12.7071C16.5196 12.8946 16.2652 13 16 13Z" fill="currentColor"/>
</g>
<defs>
<clipPath id="clip0_406_2296">
<rect width="24" height="24" fill="white"/>
</clipPath>
</defs>
</svg>
