<svg width="24" height="24" viewBox="0 0 24 24" fill="none" xmlns="http://www.w3.org/2000/svg">
<g clip-path="url(#clip0_406_1955)">
<path d="M12.8831 15.2157L4.94806 23.1507C4.68131 23.4308 4.36123 23.6547 4.00665 23.8092C3.65208 23.9637 3.27017 24.0458 2.88342 24.0505C2.49666 24.0552 2.11287 23.9825 1.75463 23.8367C1.39639 23.6908 1.07095 23.4748 0.79745 23.2013C0.523951 22.9278 0.307928 22.6024 0.162093 22.2441C0.0162578 21.8859 -0.0564412 21.5021 -0.0517253 21.1153C-0.0470095 20.7286 0.0350259 20.3467 0.189552 19.9921C0.344079 19.6375 0.567974 19.3175 0.848059 19.0507L8.78306 11.1157L12.8831 15.2157ZM17.1001 6.89971C16.548 6.37206 15.8137 6.07761 15.0501 6.07761C14.2864 6.07761 13.5521 6.37206 13.0001 6.89971L10.2001 9.69971L14.3001 13.7997L17.1001 10.9997C17.6435 10.4559 17.9488 9.71854 17.9488 8.94971C17.9488 8.18088 17.6435 7.44351 17.1001 6.89971ZM4.86306 5.14471L6.41306 5.58671L6.85506 7.13671C6.92627 7.38542 7.07652 7.60419 7.2831 7.75993C7.48968 7.91566 7.74135 7.9999 8.00006 7.9999C8.25877 7.9999 8.51044 7.91566 8.71702 7.75993C8.9236 7.60419 9.07386 7.38542 9.14506 7.13671L9.58706 5.58671L11.1371 5.14471C11.3858 5.0735 11.6045 4.92325 11.7603 4.71667C11.916 4.51009 12.0003 4.25841 12.0003 3.99971C12.0003 3.741 11.916 3.48933 11.7603 3.28275C11.6045 3.07617 11.3858 2.92591 11.1371 2.85471L9.58706 2.41271L9.14506 0.862707C9.07386 0.613991 8.9236 0.395224 8.71702 0.239487C8.51044 0.0837495 8.25877 -0.000488281 8.00006 -0.000488281C7.74135 -0.000488281 7.48968 0.0837495 7.2831 0.239487C7.07652 0.395224 6.92627 0.613991 6.85506 0.862707L6.41306 2.41271L4.86306 2.85471C4.61434 2.92591 4.39558 3.07617 4.23984 3.28275C4.0841 3.48933 3.99986 3.741 3.99986 3.99971C3.99986 4.25841 4.0841 4.51009 4.23984 4.71667C4.39558 4.92325 4.61434 5.0735 4.86306 5.14471ZM16.8631 17.1447L18.4131 17.5867L18.8551 19.1367C18.9263 19.3854 19.0765 19.6042 19.2831 19.7599C19.4897 19.9157 19.7414 19.9999 20.0001 19.9999C20.2588 19.9999 20.5104 19.9157 20.717 19.7599C20.9236 19.6042 21.0739 19.3854 21.1451 19.1367L21.5871 17.5867L23.1371 17.1447C23.3858 17.0735 23.6045 16.9232 23.7603 16.7167C23.916 16.5101 24.0003 16.2584 24.0003 15.9997C24.0003 15.741 23.916 15.4893 23.7603 15.2827C23.6045 15.0762 23.3858 14.9259 23.1371 14.8547L21.5871 14.4127L21.1451 12.8627C21.0739 12.614 20.9236 12.3952 20.717 12.2395C20.5104 12.0838 20.2588 11.9995 20.0001 11.9995C19.7414 11.9995 19.4897 12.0838 19.2831 12.2395C19.0765 12.3952 18.9263 12.614 18.8551 12.8627L18.4131 14.4127L16.8631 14.8547C16.6143 14.9259 16.3956 15.0762 16.2398 15.2827C16.0841 15.4893 15.9999 15.741 15.9999 15.9997C15.9999 16.2584 16.0841 16.5101 16.2398 16.7167C16.3956 16.9232 16.6143 17.0735 16.8631 17.1447ZM17.7561 4.49971L19.1111 4.88671L19.5001 6.24371C19.5634 6.45989 19.695 6.64973 19.8753 6.78479C20.0556 6.91985 20.2748 6.99285 20.5001 6.99285C20.7253 6.99285 20.9445 6.91985 21.1248 6.78479C21.3051 6.64973 21.4368 6.45989 21.5001 6.24371L21.8871 4.88871L23.2441 4.49971C23.4602 4.4364 23.6501 4.30473 23.7851 4.12445C23.9202 3.94417 23.9932 3.72497 23.9932 3.49971C23.9932 3.27444 23.9202 3.05525 23.7851 2.87496C23.6501 2.69468 23.4602 2.56302 23.2441 2.49971L21.8891 2.11271L21.5001 0.755707C21.4368 0.539524 21.3051 0.349679 21.1248 0.21462C20.9445 0.0795608 20.7253 0.00656181 20.5001 0.00656181C20.2748 0.00656181 20.0556 0.0795608 19.8753 0.21462C19.695 0.349679 19.5634 0.539524 19.5001 0.755707L19.1131 2.11071L17.7561 2.49971C17.5399 2.56302 17.35 2.69468 17.215 2.87496C17.0799 3.05525 17.0069 3.27444 17.0069 3.49971C17.0069 3.72497 17.0799 3.94417 17.215 4.12445C17.35 4.30473 17.5399 4.4364 17.7561 4.49971Z" fill="currentColor"/>
</g>
<defs>
<clipPath id="clip0_406_1955">
<rect width="24" height="24" fill="white"/>
</clipPath>
</defs>
</svg>
