<svg width="24" height="24" viewBox="0 0 24 24" fill="none" xmlns="http://www.w3.org/2000/svg">
<g clip-path="url(#clip0_403_2943)">
<path d="M8.1739 22.4536C10.2778 24.5117 13.6382 24.5202 15.7524 22.4725L19.7367 18.7906C24.0529 14.5319 24.0995 7.58054 19.8408 3.26434C15.5821 -1.05186 8.63074 -1.09846 4.31454 3.16028C4.27962 3.19473 4.24493 3.22942 4.21047 3.26434C-0.076713 7.55223 -0.0761504 14.5037 4.21174 18.7909C4.22065 18.7998 4.22951 18.8087 4.23846 18.8175L8.1739 22.4536ZM5.62179 4.67561C9.12208 1.15961 14.8099 1.14686 18.3259 4.64715C21.8419 8.14745 21.8547 13.8353 18.3544 17.3513L14.377 21.0263C13.0188 22.3045 10.8979 22.2966 9.54926 21.0083L5.62179 17.3792C2.11376 13.8713 2.11376 8.18368 5.62169 4.67565C5.62174 4.67565 5.62174 4.67565 5.62179 4.67561ZM6.98318 11.0275C6.98318 10.4762 7.43004 10.0293 7.98129 10.0293H15.966C16.5172 10.0293 16.9641 10.4762 16.9641 11.0275C16.9641 11.5787 16.5172 12.0256 15.966 12.0256H7.98129C7.43004 12.0255 6.98318 11.5787 6.98318 11.0275Z" fill="currentColor"/>
</g>
<defs>
<clipPath id="clip0_403_2943">
<rect width="24" height="24" fill="white"/>
</clipPath>
</defs>
</svg>
