<svg width="24" height="24" viewBox="0 0 24 24" fill="none" xmlns="http://www.w3.org/2000/svg">
<g clip-path="url(#clip0_406_2259)">
<path d="M11.9999 6.00009C11.011 6.00009 10.0443 6.29333 9.22205 6.84274C8.39981 7.39215 7.75894 8.17304 7.38051 9.08667C7.00207 10.0003 6.90305 11.0056 7.09598 11.9755C7.2889 12.9454 7.76511 13.8364 8.46437 14.5356C9.16363 15.2349 10.0545 15.7111 11.0245 15.904C11.9944 16.0969 12.9997 15.9979 13.9133 15.6195C14.827 15.241 15.6078 14.6002 16.1573 13.7779C16.7067 12.9557 16.9999 11.989 16.9999 11.0001C16.9983 9.67449 16.471 8.40365 15.5337 7.46631C14.5963 6.52897 13.3255 6.00168 11.9999 6.00009ZM13.7069 12.7071C13.5194 12.8946 13.2651 12.9999 12.9999 12.9999C12.7347 12.9999 12.4804 12.8946 12.2929 12.7071L11.2929 11.7071C11.1054 11.5196 11 11.2653 10.9999 11.0001V9.00009C10.9999 8.73487 11.1053 8.48052 11.2928 8.29298C11.4803 8.10545 11.7347 8.00009 11.9999 8.00009C12.2651 8.00009 12.5195 8.10545 12.707 8.29298C12.8945 8.48052 12.9999 8.73487 12.9999 9.00009V10.5861L13.7069 11.2931C13.8944 11.4806 13.9997 11.7349 13.9997 12.0001C13.9997 12.2653 13.8944 12.5196 13.7069 12.7071ZM19.7769 3.22209C18.7586 2.18059 17.5435 1.35171 16.2023 0.783555C14.861 0.215403 13.4203 -0.0807047 11.9637 -0.0875848C10.5071 -0.0944649 9.06364 0.18802 7.71708 0.743476C6.37053 1.29893 5.14771 2.1163 4.11958 3.14813C3.09145 4.17997 2.2785 5.40573 1.72789 6.75427C1.17729 8.10281 0.9 9.54728 0.912124 11.0039C0.924248 12.4604 1.22554 13.9001 1.79852 15.2393C2.37149 16.5785 3.20474 17.7905 4.2499 18.8051L8.1919 22.4481C9.20593 23.4396 10.5668 23.9964 11.985 23.9999C13.4033 24.0035 14.7669 23.4535 15.7859 22.4671L19.7769 18.7781C21.8397 16.7152 22.9986 13.9174 22.9986 11.0001C22.9986 8.08279 21.8397 5.28497 19.7769 3.22209ZM11.9999 18.0001C10.6154 18.0001 9.26206 17.5895 8.11091 16.8204C6.95977 16.0512 6.06256 14.958 5.53275 13.6789C5.00293 12.3998 4.86431 10.9923 5.13441 9.63446C5.4045 8.27659 6.07119 7.02931 7.05016 6.05034C8.02912 5.07137 9.2764 4.40469 10.6343 4.13459C11.9921 3.86449 13.3996 4.00312 14.6787 4.53293C15.9578 5.06274 17.051 5.95995 17.8202 7.1111C18.5894 8.26224 18.9999 9.61562 18.9999 11.0001C18.9978 12.856 18.2596 14.6352 16.9473 15.9475C15.635 17.2598 13.8558 17.998 11.9999 18.0001Z" fill="currentColor"/>
</g>
<defs>
<clipPath id="clip0_406_2259">
<rect width="24" height="24" fill="white"/>
</clipPath>
</defs>
</svg>
