<svg width="24" height="24" viewBox="0 0 24 24" fill="none" xmlns="http://www.w3.org/2000/svg">
<g clip-path="url(#clip0_406_1951)">
<path d="M20.9995 0H16.0107C15.4597 0 15.013 0.446719 15.013 0.997734C15.013 1.54875 15.4597 1.99547 16.0107 1.99547H20.5864L13.7698 8.81208C10.0806 5.90208 4.73098 6.53372 1.82098 10.2229C-1.08902 13.912 -0.45733 19.2617 3.23183 22.1717C6.92098 25.0817 12.2706 24.45 15.1806 20.7609C17.6179 17.671 17.6179 13.3128 15.1806 10.2229L21.9972 3.40631V7.98197C21.9972 8.53303 22.4439 8.9797 22.9949 8.9797C23.546 8.9797 23.9927 8.53298 23.9927 7.98197V2.99325C23.9927 1.34011 22.6526 0 20.9995 0Z" fill="currentColor"/>
</g>
<defs>
<clipPath id="clip0_406_1951">
<rect width="24" height="24" fill="white"/>
</clipPath>
</defs>
</svg>
