<svg width="24" height="24" viewBox="0 0 24 24" fill="none" xmlns="http://www.w3.org/2000/svg">
<g clip-path="url(#clip0_406_1952)">
<path d="M14.0001 11C14 9.49033 13.5086 8.0217 12.6001 6.816L16.0001 3.416V5C16.0001 5.26522 16.1054 5.51957 16.293 5.70711C16.4805 5.89464 16.7349 6 17.0001 6C17.2653 6 17.5196 5.89464 17.7072 5.70711C17.8947 5.51957 18.0001 5.26522 18.0001 5V2C18.0001 1.46957 17.7894 0.960859 17.4143 0.585786C17.0392 0.210714 16.5305 0 16.0001 0L13.0001 0C12.7349 0 12.4805 0.105357 12.293 0.292893C12.1054 0.48043 12.0001 0.734784 12.0001 1C12.0001 1.26522 12.1054 1.51957 12.293 1.70711C12.4805 1.89464 12.7349 2 13.0001 2H14.5861L11.1861 5.4C9.92377 4.45946 8.38098 3.97247 6.80747 4.01787C5.23395 4.06326 3.7218 4.63839 2.51583 5.65014C1.30985 6.66189 0.480631 8.05105 0.162409 9.59272C-0.155812 11.1344 0.0555903 12.7383 0.762394 14.1449C1.4692 15.5515 2.63003 16.6784 4.05697 17.3431C5.48391 18.0078 7.09343 18.1715 8.62497 17.8076C10.1565 17.4438 11.5204 16.5737 12.4959 15.3382C13.4714 14.1027 14.0014 12.5742 14.0001 11Z" fill="currentColor"/>
<path d="M22 6H19C18.7348 6 18.4804 6.10536 18.2929 6.29289C18.1054 6.48043 18 6.73478 18 7C18 7.26521 18.1054 7.51957 18.2929 7.7071C18.4804 7.89464 18.7348 8 19 8H20.586L17.173 11.413C16.8023 11.1284 16.404 10.8819 15.984 10.677C15.984 10.785 16 10.891 16 11C15.9974 13.3861 15.0483 15.6738 13.361 17.361C11.6738 19.0483 9.38614 19.9973 7 20C6.891 20 6.785 19.987 6.677 19.984C7.35393 21.4233 8.50126 22.589 9.92973 23.2886C11.3582 23.9882 12.9825 24.18 14.5346 23.8323C16.0867 23.4847 17.474 22.6184 18.4676 21.3763C19.4612 20.1342 20.0017 18.5906 20 17C19.997 15.4918 19.5016 14.0258 18.589 12.825L22 9.41399V11C22 11.2652 22.1054 11.5196 22.2929 11.7071C22.4804 11.8946 22.7348 12 23 12C23.2652 12 23.5196 11.8946 23.7071 11.7071C23.8946 11.5196 24 11.2652 24 11V8C24 7.46956 23.7893 6.96086 23.4142 6.58579C23.0391 6.21071 22.5304 6 22 6Z" fill="currentColor"/>
</g>
<defs>
<clipPath id="clip0_406_1952">
<rect width="24" height="24" fill="white"/>
</clipPath>
</defs>
</svg>
