<svg width="24" height="24" viewBox="0 0 24 24" fill="none" xmlns="http://www.w3.org/2000/svg">
<g clip-path="url(#clip0_406_2100)">
<path d="M15 23.9998C13.3195 23.9985 11.658 23.6449 10.1226 22.9618C8.58719 22.2787 7.21209 21.2812 6.08603 20.0338C4.95146 18.7849 4.09545 17.309 3.57478 15.7041C3.05411 14.0992 2.88069 12.4019 3.06603 10.7248C3.36483 8.1148 4.50343 5.67251 6.31039 3.76563C8.11736 1.85875 10.4949 0.590487 13.085 0.151782C14.7595 -0.106843 16.4682 -0.0372166 18.116 0.356782C18.5475 0.467641 18.9415 0.691786 19.2573 1.00602C19.5731 1.32026 19.7992 1.71317 19.9122 2.14411C20.0252 2.57504 20.021 3.02833 19.9 3.45709C19.779 3.88584 19.5456 4.27448 19.224 4.58278C14.664 8.74878 15.06 15.2268 20.031 18.9928C20.3825 19.2686 20.6536 19.6337 20.8162 20.0499C20.9787 20.4661 21.0268 20.9182 20.9553 21.3593C20.8839 21.8003 20.6955 22.2142 20.4098 22.5577C20.1242 22.9013 19.7516 23.162 19.331 23.3128C17.9328 23.7696 16.471 24.0015 15 23.9998Z" fill="currentColor"/>
</g>
<defs>
<clipPath id="clip0_406_2100">
<rect width="24" height="24" fill="white"/>
</clipPath>
</defs>
</svg>
