<svg width="24" height="24" viewBox="0 0 24 24" fill="none" xmlns="http://www.w3.org/2000/svg">
<g clip-path="url(#clip0_406_2098)">
<path d="M20.0001 8C18.9392 8 17.9218 7.57857 17.1717 6.82843C16.4215 6.07828 16.0001 5.06087 16.0001 4C16.0001 2.93913 16.4215 1.92172 17.1717 1.17157C17.9218 0.421427 18.9392 0 20.0001 0C21.061 0 22.0784 0.421427 22.8285 1.17157C23.5787 1.92172 24.0001 2.93913 24.0001 4C24.0001 5.06087 23.5787 6.07828 22.8285 6.82843C22.0784 7.57857 21.061 8 20.0001 8ZM21.4521 24H12.5891C12.1408 24.004 11.6993 23.8895 11.3094 23.6683C10.9194 23.4471 10.5947 23.1269 10.3681 22.74C10.146 22.3672 10.0264 21.9423 10.0213 21.5084C10.0162 21.0745 10.1258 20.6469 10.3391 20.269L14.7751 12.31C15.0035 11.9155 15.3316 11.588 15.7265 11.3604C16.1214 11.1327 16.5693 11.0129 17.0251 11.0129C17.4809 11.0129 17.9287 11.1327 18.3236 11.3604C18.7186 11.588 19.0467 11.9155 19.2751 12.31L23.7001 20.263C23.9138 20.6415 24.0237 21.0697 24.0188 21.5043C24.0139 21.9389 23.8943 22.3645 23.6721 22.738C23.4456 23.1249 23.1211 23.4452 22.7314 23.6668C22.3416 23.8883 21.9004 24.0033 21.4521 24ZM8.64408 23.754C8.24469 23.0817 8.0295 22.316 8.02019 21.5341C8.01089 20.7522 8.2078 19.9816 8.59108 19.3L13.0281 11.34C13.3904 10.6889 13.9081 10.1376 14.5351 9.735L12.9441 6.755C12.6575 6.22424 12.2327 5.78088 11.7147 5.47187C11.1967 5.16286 10.6048 4.99972 10.0016 4.99972C9.39841 4.99972 8.80646 5.16286 8.28845 5.47187C7.77044 5.78088 7.34565 6.22424 7.05908 6.755L0.406084 19.055C0.130187 19.5652 -0.0085649 20.1382 0.00339863 20.7181C0.0153622 21.298 0.177632 21.8649 0.474335 22.3632C0.771039 22.8616 1.19202 23.2744 1.69609 23.5613C2.20017 23.8482 2.77008 23.9994 3.35008 24H8.80009C8.74508 23.92 8.69308 23.838 8.64408 23.754Z" fill="currentColor"/>
</g>
<defs>
<clipPath id="clip0_406_2098">
<rect width="24" height="24" fill="white"/>
</clipPath>
</defs>
</svg>
