<svg width="24" height="24" viewBox="0 0 24 24" fill="none" xmlns="http://www.w3.org/2000/svg">
<g clip-path="url(#clip0_403_2920)">
<path d="M20.0001 8C18.9392 8 17.9218 7.57857 17.1717 6.82843C16.4215 6.07828 16.0001 5.06087 16.0001 4C16.0001 2.93913 16.4215 1.92172 17.1717 1.17157C17.9218 0.421427 18.9392 0 20.0001 0C21.061 0 22.0784 0.421427 22.8285 1.17157C23.5787 1.92172 24.0001 2.93913 24.0001 4C24.0001 5.06087 23.5787 6.07828 22.8285 6.82843C22.0784 7.57857 21.061 8 20.0001 8ZM20.0001 2C19.4697 2 18.9609 2.21071 18.5859 2.58579C18.2108 2.96086 18.0001 3.46957 18.0001 4C18.0001 4.53043 18.2108 5.03914 18.5859 5.41421C18.9609 5.78929 19.4697 6 20.0001 6C20.5305 6 21.0392 5.78929 21.4143 5.41421C21.7894 5.03914 22.0001 4.53043 22.0001 4C22.0001 3.46957 21.7894 2.96086 21.4143 2.58579C21.0392 2.21071 20.5305 2 20.0001 2ZM21.4521 24H12.5891C12.1408 24.004 11.6993 23.8895 11.3094 23.6683C10.9194 23.4471 10.5947 23.1269 10.3681 22.74C10.146 22.3672 10.0264 21.9423 10.0213 21.5084C10.0162 21.0745 10.1258 20.6469 10.3391 20.269L14.7751 12.31C15.0035 11.9155 15.3316 11.588 15.7265 11.3604C16.1214 11.1327 16.5693 11.0129 17.0251 11.0129C17.4809 11.0129 17.9287 11.1327 18.3236 11.3604C18.7186 11.588 19.0467 11.9155 19.2751 12.31L23.7001 20.263C23.9138 20.6415 24.0237 21.0697 24.0188 21.5043C24.0139 21.9389 23.8943 22.3645 23.6721 22.738C23.4456 23.1249 23.1211 23.4452 22.7314 23.6668C22.3416 23.8883 21.9004 24.0033 21.4521 24ZM17.0231 13C16.922 12.9976 16.8221 13.0227 16.734 13.0725C16.646 13.1223 16.5731 13.1951 16.5231 13.283L12.0871 21.242C12.0442 21.3159 12.0221 21.3999 12.0232 21.4853C12.0242 21.5707 12.0484 21.6542 12.0931 21.727C12.1443 21.8131 12.2177 21.8839 12.3057 21.932C12.3937 21.98 12.4929 22.0035 12.5931 22H21.4561C21.5564 22.003 21.6557 21.979 21.7436 21.9307C21.8315 21.8823 21.9049 21.8113 21.9561 21.725C22 21.651 22.0232 21.5665 22.0232 21.4805C22.0232 21.3945 22 21.31 21.9561 21.236L17.5241 13.284C17.4743 13.1956 17.4013 13.1224 17.3131 13.0724C17.2248 13.0223 17.1245 12.9973 17.0231 13ZM8.00008 23C8.00008 22.7348 7.89473 22.4804 7.70719 22.2929C7.51965 22.1054 7.2653 22 7.00008 22H3.35008C3.11622 21.9999 2.88641 21.9389 2.6832 21.8232C2.47999 21.7074 2.31037 21.5408 2.19097 21.3397C2.07156 21.1387 2.00649 20.91 2.00213 20.6762C1.99777 20.4423 2.05427 20.2114 2.16608 20.006L8.81808 7.706C8.93186 7.49161 9.10217 7.31246 9.31054 7.18801C9.51891 7.06355 9.75738 6.99853 10.0001 7C10.243 6.99801 10.4818 7.06281 10.6905 7.18731C10.8991 7.31181 11.0695 7.49124 11.1831 7.706L12.4101 9.973C12.4726 10.0886 12.5573 10.1907 12.6592 10.2735C12.7612 10.3564 12.8785 10.4183 13.0044 10.4558C13.1303 10.4934 13.2624 10.5057 13.3931 10.4922C13.5238 10.4786 13.6505 10.4395 13.7661 10.377C13.8816 10.3145 13.9838 10.2298 14.0666 10.1279C14.1495 10.0259 14.2114 9.90859 14.2489 9.78267C14.2864 9.65675 14.2988 9.52468 14.2853 9.39399C14.2717 9.26331 14.2326 9.13656 14.1701 9.021L12.9441 6.755C12.6575 6.22424 12.2327 5.78088 11.7147 5.47187C11.1967 5.16286 10.6048 4.99972 10.0016 4.99972C9.39841 4.99972 8.80646 5.16286 8.28845 5.47187C7.77044 5.78088 7.34565 6.22424 7.05908 6.755L0.406084 19.055C0.130187 19.5652 -0.0085649 20.1382 0.00339863 20.7181C0.0153622 21.298 0.177632 21.8649 0.474335 22.3632C0.771039 22.8616 1.19202 23.2744 1.69609 23.5613C2.20017 23.8482 2.77008 23.9994 3.35008 24H7.00008C7.2653 24 7.51965 23.8946 7.70719 23.7071C7.89473 23.5196 8.00008 23.2652 8.00008 23Z" fill="currentColor"/>
</g>
<defs>
<clipPath id="clip0_403_2920">
<rect width="24" height="24" fill="white"/>
</clipPath>
</defs>
</svg>
