<svg width="24" height="24" viewBox="0 0 24 24" fill="none" xmlns="http://www.w3.org/2000/svg">
<g clip-path="url(#clip0_406_2013)">
<path d="M22.554 0.923029C22.1026 0.546516 21.5733 0.274738 21.0042 0.127245C20.4352 -0.0202473 19.8405 -0.039788 19.263 0.0700288L10.079 1.79203C8.93274 2.00685 7.89762 2.6156 7.15274 3.51295C6.40787 4.4103 6.00011 5.5398 6 6.70603V16.556C5.39466 16.1961 4.70426 16.0042 4 16C3.20888 16 2.43552 16.2346 1.77772 16.6742C1.11992 17.1137 0.607234 17.7384 0.304484 18.4693C0.00173312 19.2002 -0.0774802 20.0045 0.0768607 20.7804C0.231202 21.5563 0.612165 22.269 1.17157 22.8285C1.73098 23.3879 2.44372 23.7688 3.21964 23.9232C3.99557 24.0775 4.79983 23.9983 5.53074 23.6955C6.26164 23.3928 6.88636 22.8801 7.32588 22.2223C7.76541 21.5645 8 20.7912 8 20V10.876C7.99997 10.4094 8.16309 9.95747 8.46113 9.59844C8.75916 9.23941 9.17335 8.99589 9.632 8.91003L20.815 6.81003C20.9601 6.78272 21.1094 6.78786 21.2522 6.82508C21.3951 6.86231 21.5279 6.9307 21.6412 7.02534C21.7545 7.11998 21.8454 7.23852 21.9074 7.37246C21.9695 7.50641 22.0011 7.65242 22 7.80003V13.56C21.3951 13.1987 20.7046 13.0054 20 13C19.2089 13 18.4355 13.2346 17.7777 13.6742C17.1199 14.1137 16.6072 14.7384 16.3045 15.4693C16.0017 16.2002 15.9225 17.0045 16.0769 17.7804C16.2312 18.5563 16.6122 19.269 17.1716 19.8285C17.731 20.3879 18.4437 20.7688 19.2196 20.9232C19.9956 21.0775 20.7998 20.9983 21.5307 20.6955C22.2616 20.3928 22.8864 19.8801 23.3259 19.2223C23.7654 18.5645 24 17.7912 24 17V4.00003C24.0007 3.41227 23.8714 2.83162 23.6214 2.29967C23.3714 1.76772 23.0069 1.29762 22.554 0.923029Z" fill="currentColor"/>
</g>
<defs>
<clipPath id="clip0_406_2013">
<rect width="24" height="24" fill="white"/>
</clipPath>
</defs>
</svg>
