<svg width="24" height="24" viewBox="0 0 24 24" fill="none" xmlns="http://www.w3.org/2000/svg">
<g clip-path="url(#clip0_406_1940)">
<path d="M15.643 8.35C15.7886 8.49261 15.8951 8.67021 15.9524 8.8658C16.0096 9.06138 16.0157 9.2684 15.97 9.467L13.322 16.51C13.271 16.6529 13.1772 16.7766 13.0534 16.8643C12.9296 16.952 12.7817 16.9994 12.63 17C12.4937 17.0046 12.3587 16.9718 12.2398 16.9052C12.1208 16.8386 12.0223 16.7406 11.955 16.622L11.047 13.646C10.9968 13.4809 10.9048 13.3317 10.7799 13.2127C10.6549 13.0937 10.5013 13.0091 10.334 12.967L7.51601 12.267C7.36769 12.2165 7.23853 12.1216 7.14613 11.9951C7.05372 11.8685 7.00256 11.7166 6.99961 11.56C6.99666 11.4033 7.04206 11.2496 7.12964 11.1197C7.21721 10.9898 7.34269 10.89 7.48901 10.834L14.549 8.034C14.7431 7.98777 14.9459 7.99258 15.1376 8.04795C15.3293 8.10333 15.5034 8.20739 15.643 8.35ZM24 12C24 14.3734 23.2962 16.6935 21.9776 18.6668C20.6591 20.6402 18.7849 22.1783 16.5922 23.0866C14.3995 23.9948 11.9867 24.2324 9.65892 23.7694C7.33115 23.3064 5.19295 22.1635 3.51472 20.4853C1.83649 18.8071 0.693605 16.6689 0.230582 14.3411C-0.232441 12.0133 0.00519943 9.60051 0.913451 7.4078C1.8217 5.21509 3.35977 3.34094 5.33316 2.02236C7.30655 0.703788 9.62663 0 12 0C15.1815 0.00344108 18.2318 1.26883 20.4815 3.51852C22.7312 5.76821 23.9966 8.81846 24 12ZM17.053 6.932C16.6599 6.53662 16.1693 6.25217 15.6309 6.10746C15.0924 5.96276 14.5253 5.96294 13.987 6.108C13.948 6.119 6.75901 8.972 6.75901 8.972C6.22449 9.18047 5.76822 9.55033 5.45367 10.0301C5.13911 10.51 4.9819 11.0759 5.0039 11.6492C5.0259 12.2225 5.22602 12.7747 5.57642 13.229C5.92682 13.6833 6.41008 14.0171 6.95901 14.184L9.30501 14.771L10.078 17.295C10.2837 17.7995 10.6351 18.2312 11.0874 18.5349C11.5396 18.8386 12.0722 19.0005 12.617 19H12.661C13.2141 18.9929 13.752 18.8184 14.204 18.4996C14.6559 18.1808 15.0007 17.7326 15.193 17.214C15.193 17.214 17.886 10.049 17.893 10.014C18.0373 9.47184 18.0356 8.90116 17.8881 8.35987C17.7406 7.81858 17.4524 7.32596 17.053 6.932Z" fill="currentColor"/>
</g>
<defs>
<clipPath id="clip0_406_1940">
<rect width="24" height="24" fill="white"/>
</clipPath>
</defs>
</svg>
