<svg width="24" height="24" viewBox="0 0 24 24" fill="none" xmlns="http://www.w3.org/2000/svg">
<g clip-path="url(#clip0_406_2213)">
<path d="M2.74798 23.9997C2.35334 23.9986 1.96354 23.9128 1.60496 23.748C1.24637 23.5832 0.927376 23.3433 0.66956 23.0445C0.411744 22.7457 0.221125 22.3951 0.110607 22.0162C8.90344e-05 21.6374 -0.0277493 21.2392 0.0289766 20.8487C0.287977 19.0427 1.16198 15.7147 2.40198 14.4747C3.34681 13.5301 4.62817 12.9995 5.96418 12.9997C7.30019 12.9999 8.58141 13.5308 9.52598 14.4757C10.4705 15.4205 11.0011 16.7019 11.0009 18.0379C11.0007 19.3739 10.4698 20.6551 9.52498 21.5997C8.28598 22.8387 4.95798 23.7127 3.15098 23.9717C3.01751 23.9909 2.88282 24.0003 2.74798 23.9997ZM23.1 0.899665C22.5163 0.343687 21.7411 0.0335693 20.935 0.0335693C20.1289 0.0335693 19.3537 0.343687 18.77 0.899665L8.26998 11.3997C9.27435 11.7454 10.1865 12.3159 10.9369 13.0676C11.6873 13.8194 12.2561 14.7327 12.6 15.7377L23.1 5.22966C23.6726 4.65466 23.9942 3.87619 23.9942 3.06466C23.9942 2.25314 23.6726 1.47466 23.1 0.899665Z" fill="currentColor"/>
</g>
<defs>
<clipPath id="clip0_406_2213">
<rect width="24" height="24" fill="white"/>
</clipPath>
</defs>
</svg>
