<svg width="24" height="24" viewBox="0 0 24 24" fill="none" xmlns="http://www.w3.org/2000/svg">
<g clip-path="url(#clip0_406_2243)">
<path d="M20.0569 16.7996L20.1569 16.8996C20.3839 17.1285 20.6652 17.2964 20.9745 17.3874C21.2837 17.4785 21.611 17.4899 21.9259 17.4206C22.2357 17.3556 22.5242 17.2137 22.7648 17.008C23.0054 16.8023 23.1905 16.5395 23.3029 16.2436C23.855 14.7939 24.119 13.2504 24.0799 11.6996C23.9674 8.65359 22.7145 5.76106 20.5697 3.59531C18.4249 1.42956 15.5447 0.148689 12.4999 0.00657659C10.8899 -0.0494051 9.2851 0.219367 7.78119 0.796869C6.27727 1.37437 4.90503 2.24878 3.74628 3.36796C2.58753 4.48714 1.66599 5.82819 1.03661 7.31114C0.407227 8.79409 0.082883 10.3886 0.0829163 11.9996C0.0866215 15.181 1.35209 18.2311 3.60173 20.4808C5.85136 22.7304 8.90146 23.9959 12.0829 23.9996C12.4209 23.9996 12.7529 23.9776 13.0829 23.9496C13.3333 23.9285 13.5666 23.8139 13.7363 23.6286C13.9061 23.4433 13.9998 23.2009 13.9989 22.9496L13.9669 19.3616C13.9588 18.6525 14.1622 17.9572 14.5512 17.3643C14.9401 16.7714 15.4969 16.3079 16.1505 16.0329C16.8041 15.758 17.5248 15.6841 18.2206 15.8206C18.9164 15.9572 19.5557 16.298 20.0569 16.7996ZM17.1149 8.04958C17.4016 7.97349 17.7045 7.98414 17.9852 8.08017C18.2659 8.17619 18.5118 8.35329 18.6918 8.58906C18.8718 8.82484 18.9779 9.1087 18.9966 9.40476C19.0154 9.70082 18.9459 9.99578 18.797 10.2524C18.648 10.5089 18.4264 10.7156 18.1601 10.8462C17.8937 10.9768 17.5946 11.0255 17.3006 10.9861C17.0065 10.9468 16.7308 10.8211 16.5082 10.625C16.2856 10.429 16.1261 10.1713 16.0499 9.88458C15.9993 9.69416 15.9867 9.49564 16.0129 9.30036C16.039 9.10508 16.1034 8.91686 16.2023 8.74646C16.3012 8.57605 16.4327 8.4268 16.5893 8.30723C16.7459 8.18766 16.9245 8.10011 17.1149 8.04958ZM7.88492 16.9496C7.59819 17.0257 7.29534 17.015 7.01466 16.919C6.73398 16.823 6.48807 16.6459 6.30804 16.4101C6.128 16.1743 6.02192 15.8905 6.0032 15.5944C5.98448 15.2983 6.05397 15.0034 6.20288 14.7468C6.35179 14.4902 6.57343 14.2836 6.83978 14.153C7.10613 14.0224 7.40523 13.9736 7.69926 14.013C7.99329 14.0524 8.26904 14.178 8.49165 14.3741C8.71427 14.5702 8.87374 14.8279 8.94992 15.1146C9.00051 15.305 9.01309 15.5035 8.98695 15.6988C8.9608 15.8941 8.89644 16.0823 8.79754 16.2527C8.69864 16.4231 8.56714 16.5723 8.41055 16.6919C8.25396 16.8115 8.07535 16.899 7.88492 16.9496ZM7.88492 10.9496C7.59819 11.0257 7.29534 11.015 7.01466 10.919C6.73398 10.823 6.48807 10.6459 6.30804 10.4101C6.128 10.1743 6.02192 9.89045 6.0032 9.59439C5.98448 9.29833 6.05397 9.00337 6.20288 8.7468C6.35179 8.49023 6.57343 8.28357 6.83978 8.15296C7.10613 8.02235 7.40523 7.97365 7.69926 8.01301C7.99329 8.05238 8.26904 8.17804 8.49165 8.37412C8.71427 8.57019 8.87374 8.82787 8.94992 9.11458C9.00051 9.30499 9.01309 9.50351 8.98695 9.69879C8.9608 9.89407 8.89644 10.0823 8.79754 10.2527C8.69864 10.4231 8.56714 10.5723 8.41055 10.6919C8.25396 10.8115 8.07535 10.899 7.88492 10.9496ZM12.8849 7.94958C12.5982 8.02566 12.2953 8.01501 12.0147 7.91899C11.734 7.82296 11.4881 7.64586 11.308 7.41009C11.128 7.17432 11.0219 6.89045 11.0032 6.59439C10.9845 6.29833 11.054 6.00337 11.2029 5.7468C11.3518 5.49023 11.5734 5.28357 11.8398 5.15296C12.1061 5.02235 12.4052 4.97365 12.6993 5.01301C12.9933 5.05238 13.269 5.17804 13.4917 5.37412C13.7143 5.57019 13.8737 5.82787 13.9499 6.11458C14.0005 6.30499 14.0131 6.50351 13.9869 6.69879C13.9608 6.89407 13.8964 7.08229 13.7975 7.2527C13.6986 7.4231 13.5671 7.57235 13.4106 7.69192C13.254 7.81149 13.0753 7.89905 12.8849 7.94958Z" fill="currentColor"/>
</g>
<defs>
<clipPath id="clip0_406_2243">
<rect width="24" height="24" fill="white"/>
</clipPath>
</defs>
</svg>
