<svg width="24" height="24" viewBox="0 0 24 24" fill="none" xmlns="http://www.w3.org/2000/svg">
<g clip-path="url(#clip0_403_3285)">
<path d="M8.1641 8.00015C7.58484 7.99108 7.02671 7.78112 6.5851 7.40615C5.66396 6.56137 5.10591 5.39258 5.0281 4.14515C4.7851 1.65215 6.1451 0.181146 7.6141 0.0171464C7.96805 -0.0220971 8.32628 0.0102677 8.66747 0.112314C9.00865 0.214361 9.32582 0.384004 9.6001 0.611146C10.0093 0.97998 10.3415 1.42607 10.5776 1.92377C10.8138 2.42146 10.9492 2.96093 10.9761 3.51115C11.2001 5.83515 10.1281 8.00015 8.1641 8.00015ZM7.8361 2.00015C7.2591 2.06415 6.9151 2.88315 7.0191 3.94615C7.04807 4.66028 7.34264 5.33786 7.8451 5.84615C7.94029 5.93965 8.06678 5.99453 8.2001 6.00015C8.5511 5.96115 9.1161 5.05915 8.9831 3.70015C8.6411 1.83415 7.8611 2.00015 7.8361 2.00515V2.00015ZM3.1641 14.0001C2.58484 13.9911 2.02671 13.7811 1.5851 13.4061C0.663963 12.5614 0.105914 11.3926 0.0281015 10.1451C-0.214899 7.65215 1.1451 6.18115 2.6141 6.01715C2.96803 5.97836 3.32615 6.01095 3.66727 6.11297C4.00839 6.215 4.32559 6.3844 4.6001 6.61115C5.00928 6.97998 5.34149 7.42607 5.57764 7.92377C5.81379 8.42146 5.9492 8.96093 5.9761 9.51115C6.2001 11.8351 5.0771 14.0001 3.1641 14.0001ZM2.8361 8.00015C2.2591 8.06415 1.9151 8.88315 2.0191 9.94615C2.04807 10.6603 2.34264 11.3379 2.8451 11.8461C2.94123 11.9383 3.06717 11.9929 3.2001 12.0001C3.5511 11.9611 4.1161 11.0591 3.9831 9.70015C3.7181 7.87215 2.8611 8.00015 2.8361 8.00515V8.00015ZM15.8361 8.00015C14.1281 8.01215 12.8021 5.83415 13.0291 3.50815C13.056 2.95793 13.1914 2.41846 13.4276 1.92077C13.6637 1.42307 13.9959 0.97698 14.4051 0.608146C14.6791 0.382366 14.9956 0.21375 15.3358 0.112246C15.676 0.0107422 16.0332 -0.0215935 16.3861 0.0171464C17.8551 0.181146 19.2151 1.65215 18.9721 4.14515C18.8945 5.39294 18.3365 6.56212 17.4151 7.40715C16.9734 7.78176 16.4152 7.99136 15.8361 8.00015ZM15.0201 3.70015C14.8871 5.05515 15.4521 5.95715 15.8031 6.00015C15.9339 5.995 16.0586 5.94362 16.1551 5.85515C16.6576 5.34686 16.9521 4.66928 16.9811 3.95515C17.1911 1.33415 15.2001 1.50515 15.0201 3.70015ZM20.8361 14.0001C18.9741 14.0001 17.8021 11.8341 18.0291 9.50815C18.056 8.95793 18.1914 8.41846 18.4276 7.92077C18.6637 7.42307 18.9959 6.97698 19.4051 6.60815C19.6787 6.38154 19.995 6.2122 20.3353 6.11016C20.6756 6.00813 21.0329 5.97548 21.3861 6.01415C22.8551 6.17815 24.2151 7.64915 23.9721 10.1421C23.8945 11.3899 23.3365 12.5591 22.4151 13.4041C21.9738 13.7798 21.4156 13.9905 20.8361 14.0001ZM20.0201 9.70015C19.8871 11.0551 20.4521 11.9571 20.8031 12.0001C20.9335 11.9933 21.0577 11.9421 21.1551 11.8551C21.6576 11.3469 21.9521 10.6693 21.9811 9.95515C22.0811 8.89215 21.7411 8.07315 21.1641 8.00915C21.1391 8.00015 20.1151 7.91115 20.0201 9.70015ZM16.0001 24.0001C15.1453 24.0172 14.3011 23.8082 13.5531 23.3941C13.0743 23.1419 12.5413 23.0101 12.0001 23.0101C11.4589 23.0101 10.9259 23.1419 10.4471 23.3941C7.4341 25.0831 3.9221 23.2271 4.0001 19.0001C4.0001 14.3651 8.5071 10.0001 12.0001 10.0001C15.4931 10.0001 20.0001 14.3641 20.0001 19.0001C20.0001 21.9441 18.3551 24.0001 16.0001 24.0001ZM12.0001 21.0001C12.8548 20.9833 13.6988 21.192 14.4471 21.6051C16.6841 22.8231 18.0351 21.1721 18.0001 19.0001C18.0001 15.6201 14.4791 12.0001 12.0001 12.0001C9.5211 12.0001 6.0001 15.6201 6.0001 19.0001C5.9681 21.1691 7.3081 22.8231 9.5531 21.6051C10.3015 21.192 11.1454 20.9833 12.0001 21.0001Z" fill="currentColor"/>
</g>
<defs>
<clipPath id="clip0_403_3285">
<rect width="24" height="24" fill="white"/>
</clipPath>
</defs>
</svg>
