<svg width="24" height="24" viewBox="0 0 24 24" fill="none" xmlns="http://www.w3.org/2000/svg">
<g clip-path="url(#clip0_403_2882)">
<path d="M19 24H5C3.67441 23.9984 2.40356 23.4711 1.46622 22.5338C0.528882 21.5964 0.00158786 20.3256 0 19L0 5C0.00158786 3.67441 0.528882 2.40356 1.46622 1.46622C2.40356 0.528882 3.67441 0.00158786 5 0L19 0C20.3256 0.00158786 21.5964 0.528882 22.5338 1.46622C23.4711 2.40356 23.9984 3.67441 24 5V19C23.9984 20.3256 23.4711 21.5964 22.5338 22.5338C21.5964 23.4711 20.3256 23.9984 19 24ZM5 2C4.20435 2 3.44129 2.31607 2.87868 2.87868C2.31607 3.44129 2 4.20435 2 5V19C2 19.7956 2.31607 20.5587 2.87868 21.1213C3.44129 21.6839 4.20435 22 5 22H19C19.7956 22 20.5587 21.6839 21.1213 21.1213C21.6839 20.5587 22 19.7956 22 19V5C22 4.20435 21.6839 3.44129 21.1213 2.87868C20.5587 2.31607 19.7956 2 19 2H5ZM9.342 17.005C8.92513 17.0036 8.51601 16.8922 8.156 16.682C7.80034 16.4784 7.50515 16.184 7.30063 15.8289C7.09611 15.4738 6.9896 15.0708 6.992 14.661V9.339C6.99166 8.92914 7.09911 8.52641 7.30358 8.1712C7.50805 7.81599 7.80234 7.52079 8.15692 7.31524C8.5115 7.10968 8.9139 7.00099 9.32376 7.00007C9.73361 6.99915 10.1365 7.10604 10.492 7.31L15.77 9.945C16.1366 10.1429 16.4436 10.4353 16.6592 10.7918C16.8748 11.1483 16.9912 11.556 16.9962 11.9726C17.0012 12.3892 16.8946 12.7995 16.6877 13.1611C16.4807 13.5227 16.1808 13.8223 15.819 14.029L10.443 16.716C10.1077 16.9073 9.728 17.0069 9.342 17.005ZM9.317 9.005C9.26189 9.00498 9.20774 9.01946 9.16 9.047C9.10814 9.07585 9.0651 9.11826 9.0355 9.1697C9.00591 9.22114 8.99087 9.27966 8.992 9.339V14.661C8.99234 14.7195 9.00788 14.7768 9.03709 14.8274C9.0663 14.8781 9.10818 14.9202 9.15861 14.9498C9.20905 14.9794 9.2663 14.9953 9.32475 14.996C9.3832 14.9968 9.44084 14.9823 9.492 14.954L14.868 12.266C14.908 12.2347 14.9399 12.1941 14.9608 12.1478C14.9817 12.1015 14.991 12.0507 14.988 12C14.9893 11.9405 14.9742 11.8818 14.9444 11.8304C14.9146 11.7789 14.8712 11.7365 14.819 11.708L9.545 9.073C9.47624 9.03082 9.39763 9.00737 9.317 9.005Z" fill="currentColor"/>
</g>
<defs>
<clipPath id="clip0_403_2882">
<rect width="24" height="24" fill="white"/>
</clipPath>
</defs>
</svg>
