<svg width="24" height="24" viewBox="0 0 24 24" fill="none" xmlns="http://www.w3.org/2000/svg">
<g clip-path="url(#clip0_406_1921)">
<path d="M19.0002 4C19.0002 2.93913 18.5787 1.92172 17.8286 1.17157C17.0784 0.421427 16.061 0 15.0002 0L9.00015 0C7.93929 0 6.92187 0.421427 6.17173 1.17157C5.42158 1.92172 5.00015 2.93913 5.00015 4V5H19.0002V4Z" fill="currentColor"/>
<path d="M16.0002 15H8.00015C6.3433 15 5.00015 16.3431 5.00015 18V21C5.00015 22.6569 6.3433 24 8.00015 24H16.0002C17.657 24 19.0002 22.6569 19.0002 21V18C19.0002 16.3431 17.657 15 16.0002 15Z" fill="currentColor"/>
<path d="M19 7.00031H5C3.67441 7.00189 2.40356 7.52919 1.46622 8.46653C0.528882 9.40386 0.00158786 10.6747 0 12.0003L0 16.0003C0.00127838 16.9721 0.285705 17.9224 0.818499 18.7351C1.35129 19.5478 2.10936 20.1876 3 20.5763V18.0003C3.00159 16.6747 3.52888 15.4039 4.46622 14.4665C5.40356 13.5292 6.67441 13.0019 8 13.0003H16C17.3256 13.0019 18.5964 13.5292 19.5338 14.4665C20.4711 15.4039 20.9984 16.6747 21 18.0003V20.5763C21.8906 20.1876 22.6487 19.5478 23.1815 18.7351C23.7143 17.9224 23.9987 16.9721 24 16.0003V12.0003C23.9984 10.6747 23.4711 9.40386 22.5338 8.46653C21.5964 7.52919 20.3256 7.00189 19 7.00031ZM18 11.0003H16C15.7348 11.0003 15.4804 10.8949 15.2929 10.7074C15.1054 10.5199 15 10.2655 15 10.0003C15 9.73509 15.1054 9.48074 15.2929 9.2932C15.4804 9.10566 15.7348 9.00031 16 9.00031H18C18.2652 9.00031 18.5196 9.10566 18.7071 9.2932C18.8946 9.48074 19 9.73509 19 10.0003C19 10.2655 18.8946 10.5199 18.7071 10.7074C18.5196 10.8949 18.2652 11.0003 18 11.0003Z" fill="currentColor"/>
</g>
<defs>
<clipPath id="clip0_406_1921">
<rect width="24" height="24" fill="white"/>
</clipPath>
</defs>
</svg>
