<svg width="24" height="24" viewBox="0 0 24 24" fill="none" xmlns="http://www.w3.org/2000/svg">
<g clip-path="url(#clip0_403_2874)">
<path d="M8 3.99939H4C2.93913 3.99939 1.92172 4.42082 1.17157 5.17096C0.421427 5.92111 0 6.93852 0 7.99939L0 11.9994C0 12.5298 0.210714 13.0385 0.585786 13.4136C0.960859 13.7887 1.46957 13.9994 2 13.9994H7.91C7.67273 15.3959 6.94948 16.6637 5.86803 17.5786C4.78658 18.4935 3.41655 18.9968 2 18.9994C1.73478 18.9994 1.48043 19.1047 1.29289 19.2923C1.10536 19.4798 1 19.7342 1 19.9994C1 20.2646 1.10536 20.519 1.29289 20.7065C1.48043 20.894 1.73478 20.9994 2 20.9994C4.121 20.997 6.15445 20.1534 7.65422 18.6536C9.154 17.1538 9.99762 15.1204 10 12.9994V5.99939C10 5.46896 9.78929 4.96025 9.41421 4.58518C9.03914 4.2101 8.53043 3.99939 8 3.99939Z" fill="currentColor"/>
<path d="M22.0001 3.99939H18.0001C16.9393 3.99939 15.9218 4.42082 15.1717 5.17096C14.4215 5.92111 14.0001 6.93852 14.0001 7.99939V11.9994C14.0001 12.5298 14.2108 13.0385 14.5859 13.4136C14.961 13.7887 15.4697 13.9994 16.0001 13.9994H21.9101C21.6729 15.3959 20.9496 16.6637 19.8682 17.5786C18.7867 18.4935 17.4167 18.9968 16.0001 18.9994C15.7349 18.9994 15.4806 19.1047 15.293 19.2923C15.1055 19.4798 15.0001 19.7342 15.0001 19.9994C15.0001 20.2646 15.1055 20.519 15.293 20.7065C15.4806 20.894 15.7349 20.9994 16.0001 20.9994C18.1211 20.997 20.1546 20.1534 21.6543 18.6536C23.1541 17.1538 23.9977 15.1204 24.0001 12.9994V5.99939C24.0001 5.46896 23.7894 4.96025 23.4143 4.58518C23.0393 4.2101 22.5306 3.99939 22.0001 3.99939Z" fill="currentColor"/>
</g>
<defs>
<clipPath id="clip0_403_2874">
<rect width="24" height="24" fill="white"/>
</clipPath>
</defs>
</svg>
