<svg width="24" height="24" viewBox="0 0 24 24" fill="none" xmlns="http://www.w3.org/2000/svg">
<g clip-path="url(#clip0_406_1915)">
<path d="M12.9998 23.9992C11.409 23.9976 9.8838 23.3649 8.75893 22.24C7.63406 21.1152 7.00141 19.59 6.99982 17.9992C6.99982 16.4392 8.19982 13.9542 10.5518 10.6112C10.8311 10.2222 11.1989 9.90528 11.625 9.68668C12.051 9.46808 12.523 9.35406 13.0018 9.35406C13.4807 9.35406 13.9526 9.46808 14.3787 9.68668C14.8047 9.90528 15.1726 10.2222 15.4518 10.6112C17.8048 13.9542 18.9998 16.4392 18.9998 17.9992C18.9982 19.59 18.3656 21.1152 17.2407 22.24C16.1158 23.3649 14.5906 23.9976 12.9998 23.9992Z" fill="currentColor"/>
<path d="M5 11C3.67441 10.9984 2.40356 10.4711 1.46622 9.53374C0.528882 8.5964 0.00158786 7.32555 0 5.99996C0 4.73995 0.842 3.14496 2.574 1.12295C2.87441 0.773705 3.24669 0.493436 3.66538 0.301303C4.08408 0.10917 4.53932 0.00970459 5 0.00970459C5.46068 0.00970459 5.91592 0.10917 6.33462 0.301303C6.75331 0.493436 7.12559 0.773705 7.426 1.12295C9.158 3.14295 10 4.73796 10 5.99996C9.99841 7.32555 9.47112 8.5964 8.53378 9.53374C7.59644 10.4711 6.32559 10.9984 5 11Z" fill="currentColor"/>
<path d="M19.5 9.9641C18.3069 9.96278 17.1631 9.48825 16.3195 8.64462C15.4759 7.80099 15.0013 6.65717 15 5.4641C15 4.3731 15.7 2.9581 17.146 1.1381C17.429 0.78596 17.7874 0.501799 18.1948 0.306552C18.6022 0.111306 19.0482 0.00994873 19.5 0.00994873C19.9518 0.00994873 20.3978 0.111306 20.8052 0.306552C21.2126 0.501799 21.571 0.78596 21.854 1.1381C23.3 2.9581 24 4.3731 24 5.4641C23.9987 6.65717 23.5241 7.80099 22.6805 8.64462C21.8369 9.48825 20.6931 9.96278 19.5 9.9641Z" fill="currentColor"/>
</g>
<defs>
<clipPath id="clip0_406_1915">
<rect width="24" height="24" fill="white"/>
</clipPath>
</defs>
</svg>
