<svg width="24" height="24" viewBox="0 0 24 24" fill="none" xmlns="http://www.w3.org/2000/svg">
<g clip-path="url(#clip0_406_2257)">
<path d="M12 0C9.62663 0 7.30655 0.703788 5.33316 2.02236C3.35977 3.34094 1.8217 5.21509 0.913451 7.4078C0.00519943 9.60051 -0.232441 12.0133 0.230582 14.3411C0.693605 16.6689 1.83649 18.8071 3.51472 20.4853C5.19295 22.1635 7.33115 23.3064 9.65892 23.7694C11.9867 24.2324 14.3995 23.9948 16.5922 23.0866C18.7849 22.1783 20.6591 20.6402 21.9776 18.6668C23.2962 16.6935 24 14.3734 24 12C23.9966 8.81846 22.7312 5.76821 20.4815 3.51852C18.2318 1.26883 15.1815 0.00344108 12 0V0ZM12 16C11.2089 16 10.4355 15.7654 9.77773 15.3259C9.11993 14.8864 8.60724 14.2616 8.30449 13.5307C8.00174 12.7998 7.92252 11.9956 8.07686 11.2196C8.2312 10.4437 8.61217 9.73098 9.17158 9.17157C9.73099 8.61216 10.4437 8.2312 11.2196 8.07686C11.9956 7.92252 12.7998 8.00173 13.5307 8.30448C14.2616 8.60723 14.8864 9.11992 15.3259 9.77772C15.7654 10.4355 16 11.2089 16 12C16 13.0609 15.5786 14.0783 14.8284 14.8284C14.0783 15.5786 13.0609 16 12 16ZM13 12C13 12.1978 12.9414 12.3911 12.8315 12.5556C12.7216 12.72 12.5654 12.8482 12.3827 12.9239C12.2 12.9996 11.9989 13.0194 11.8049 12.9808C11.6109 12.9422 11.4328 12.847 11.2929 12.7071C11.153 12.5673 11.0578 12.3891 11.0192 12.1951C10.9806 12.0011 11.0004 11.8 11.0761 11.6173C11.1518 11.4346 11.28 11.2784 11.4444 11.1685C11.6089 11.0587 11.8022 11 12 11C12.2652 11 12.5196 11.1054 12.7071 11.2929C12.8946 11.4804 13 11.7348 13 12Z" fill="currentColor"/>
</g>
<defs>
<clipPath id="clip0_406_2257">
<rect width="24" height="24" fill="white"/>
</clipPath>
</defs>
</svg>
