<svg width="24" height="24" viewBox="0 0 24 24" fill="none" xmlns="http://www.w3.org/2000/svg">
<g clip-path="url(#clip0_403_2917)">
<path d="M19 3H5C3.67392 3 2.40215 3.52678 1.46447 4.46447C0.526784 5.40215 0 6.67392 0 8L0 16C0 17.3261 0.526784 18.5979 1.46447 19.5355C2.40215 20.4732 3.67392 21 5 21H19C19.6566 21 20.3068 20.8707 20.9134 20.6194C21.52 20.3681 22.0712 19.9998 22.5355 19.5355C22.9998 19.0712 23.3681 18.52 23.6194 17.9134C23.8707 17.3068 24 16.6566 24 16V8C24 7.34339 23.8707 6.69321 23.6194 6.08658C23.3681 5.47995 22.9998 4.92876 22.5355 4.46447C22.0712 4.00017 21.52 3.63188 20.9134 3.3806C20.3068 3.12933 19.6566 3 19 3ZM22 16C22 16.7956 21.6839 17.5587 21.1213 18.1213C20.5587 18.6839 19.7956 19 19 19H5C4.20435 19 3.44129 18.6839 2.87868 18.1213C2.31607 17.5587 2 16.7956 2 16V8C2 7.20435 2.31607 6.44129 2.87868 5.87868C3.44129 5.31607 4.20435 5 5 5H19C19.7956 5 20.5587 5.31607 21.1213 5.87868C21.6839 6.44129 22 7.20435 22 8V16Z" fill="currentColor"/>
</g>
<defs>
<clipPath id="clip0_403_2917">
<rect width="24" height="24" fill="white"/>
</clipPath>
</defs>
</svg>
