<svg width="24" height="24" viewBox="0 0 24 24" fill="none" xmlns="http://www.w3.org/2000/svg">
<g clip-path="url(#clip0_403_2913)">
<path d="M10.3569 2.92019L8.94091 5.22019C8.79507 5.4304 8.57419 5.57672 8.32374 5.62903C8.07329 5.68134 7.81232 5.63567 7.59452 5.5014C7.37673 5.36714 7.21868 5.1545 7.1529 4.90724C7.08712 4.65999 7.11862 4.39692 7.24091 4.17219L8.65691 1.87219C9.01199 1.3052 9.50533 0.837742 10.0906 0.513698C10.6759 0.189655 11.3339 0.0196533 12.0029 0.0196533C12.6719 0.0196533 13.3299 0.189655 13.9152 0.513698C14.5005 0.837742 14.9938 1.3052 15.3489 1.87219L19.5489 8.70619L19.9899 6.34119C20.0384 6.08035 20.1886 5.84947 20.4074 5.69935C20.6261 5.54922 20.8956 5.49215 21.1564 5.54069C21.4173 5.58922 21.6481 5.73939 21.7983 5.95815C21.9484 6.17691 22.0054 6.44635 21.9569 6.70719L21.4569 9.37719C21.329 10.0645 20.965 10.6856 20.4278 11.1331C19.8907 11.5806 19.2141 11.8265 18.5149 11.8282C18.3199 11.8282 15.2979 11.2522 15.2979 11.2522C15.0421 11.1966 14.8183 11.0429 14.6745 10.8241C14.5308 10.6053 14.4786 10.3388 14.5291 10.082C14.5796 9.82509 14.7289 9.59828 14.9448 9.45024C15.1607 9.3022 15.4261 9.24473 15.6839 9.29019L17.8169 9.71119L13.6429 2.92019C13.4694 2.64071 13.2274 2.41013 12.9399 2.25024C12.6524 2.09035 12.3289 2.00643 11.9999 2.00643C11.6709 2.00643 11.3474 2.09035 11.0599 2.25024C10.7724 2.41013 10.5305 2.64071 10.3569 2.92019ZM23.4089 14.9792L22.4409 13.4072C22.376 13.2878 22.2874 13.183 22.1806 13.099C22.0737 13.015 21.9509 12.9537 21.8196 12.9188C21.6883 12.8838 21.5513 12.876 21.4168 12.8958C21.2824 12.9156 21.1534 12.9626 21.0378 13.0339C20.9221 13.1052 20.8222 13.1993 20.7441 13.3105C20.666 13.4217 20.6114 13.5477 20.5837 13.6807C20.5559 13.8137 20.5555 13.951 20.5825 14.0841C20.6096 14.2173 20.6635 14.3435 20.7409 14.4552L21.7089 16.0272C21.8936 16.3229 21.9949 16.663 22.0021 17.0115C22.0093 17.3601 21.9222 17.7041 21.7499 18.0072C21.5842 18.3095 21.3399 18.5613 21.0427 18.7359C20.7455 18.9106 20.4066 19.0015 20.0619 18.9992H12.6759L13.9469 17.7302C14.1294 17.5418 14.2305 17.2894 14.2286 17.0272C14.2267 16.765 14.1219 16.514 13.9368 16.3283C13.7516 16.1426 13.5009 16.0371 13.2387 16.0345C12.9765 16.0318 12.7238 16.1323 12.5349 16.3142L10.8429 17.9992C10.3149 18.5243 10.0124 19.2346 9.99991 19.9792C9.99991 19.9792 9.99991 19.9892 9.99991 19.9932C9.99991 19.9972 9.99991 20.0062 9.99991 20.0132C9.99706 20.398 10.0712 20.7794 10.2181 21.1351C10.3649 21.4908 10.5814 21.8135 10.8549 22.0842L12.5369 23.7362C12.6296 23.8328 12.7407 23.9098 12.8637 23.9627C12.9867 24.0155 13.1191 24.0431 13.2529 24.0439C13.3868 24.0446 13.5195 24.0185 13.643 23.967C13.7666 23.9156 13.8786 23.8398 13.9724 23.7442C14.0661 23.6487 14.1397 23.5353 14.1888 23.4107C14.2379 23.2862 14.2615 23.153 14.2582 23.0192C14.2549 22.8854 14.2248 22.7536 14.1696 22.6316C14.1144 22.5096 14.0353 22.4 13.9369 22.3092L12.6089 20.9992H20.0619C20.7635 20.9968 21.4517 20.8075 22.0558 20.4508C22.6599 20.094 23.158 19.5828 23.4989 18.9696C23.8398 18.3565 24.0112 17.6636 23.9953 16.9622C23.9795 16.2608 23.7771 15.5763 23.4089 14.9792ZM6.77991 7.21219C6.45219 6.98901 6.08327 6.83338 5.69471 6.7544C5.30616 6.67542 4.90576 6.67467 4.51691 6.75219L1.88791 7.27019C1.75695 7.29327 1.6319 7.34225 1.5201 7.41426C1.40829 7.48626 1.31197 7.57984 1.23677 7.68952C1.16157 7.7992 1.10901 7.92277 1.08215 8.05302C1.05529 8.18326 1.05467 8.31755 1.08034 8.44804C1.10602 8.57852 1.15745 8.70257 1.23165 8.81293C1.30585 8.92329 1.40131 9.01775 1.51245 9.09077C1.6236 9.16378 1.74819 9.2139 1.87894 9.23818C2.00968 9.26247 2.14396 9.26043 2.27391 9.23219L4.38191 8.81719L0.590913 14.9792C0.222764 15.5763 0.0203466 16.2607 0.00448828 16.962C-0.0113701 17.6632 0.159903 18.3561 0.500685 18.9692C0.841467 19.5823 1.33945 20.0936 1.9434 20.4504C2.54735 20.8072 3.23545 20.9966 3.93691 20.9992H7.07991C7.34513 20.9992 7.59948 20.8938 7.78702 20.7063C7.97456 20.5188 8.07991 20.2644 8.07991 19.9992C8.07991 19.734 7.97456 19.4796 7.78702 19.2921C7.59948 19.1045 7.34513 18.9992 7.07991 18.9992H3.93691C3.5929 19.0008 3.25483 18.9095 2.95842 18.7349C2.662 18.5603 2.41825 18.3089 2.25291 18.0072C2.08066 17.7041 1.99353 17.3601 2.00075 17.0115C2.00796 16.663 2.10926 16.3229 2.29391 16.0272L6.13191 9.78919L6.57791 12.1832C6.62671 12.444 6.77713 12.6748 6.99608 12.8247C7.21503 12.9747 7.48457 13.0315 7.74541 12.9827C8.00625 12.9339 8.23702 12.7835 8.38696 12.5645C8.53689 12.3456 8.59371 12.076 8.54491 11.8152L8.04491 9.14519C7.97306 8.7551 7.82419 8.38325 7.60699 8.05135C7.38979 7.71946 7.10862 7.43418 6.77991 7.21219Z" fill="currentColor"/>
</g>
<defs>
<clipPath id="clip0_403_2913">
<rect width="24" height="24" fill="white"/>
</clipPath>
</defs>
</svg>
