<svg width="24" height="24" viewBox="0 0 24 24" fill="none" xmlns="http://www.w3.org/2000/svg">
<g clip-path="url(#clip0_403_3216)">
<path d="M10.4201 20.656C9.61649 20.6553 8.83411 20.3977 8.18714 19.921L1.54614 15.051C1.06743 14.6995 0.678189 14.2402 0.409901 13.7103C0.141614 13.1805 0.0018158 12.5949 0.0018158 12.001C0.0018158 11.4071 0.141614 10.8215 0.409901 10.2917C0.678189 9.76179 1.06743 9.30252 1.54614 8.951L8.18714 4.081C8.73181 3.68075 9.37378 3.43374 10.0463 3.36567C10.7188 3.2976 11.3972 3.41095 12.011 3.69392C12.6249 3.9769 13.1517 4.41918 13.5367 4.97475C13.9216 5.53031 14.1507 6.17888 14.2001 6.853L17.9821 4.079C18.546 3.66655 19.2131 3.41825 19.9094 3.36161C20.6057 3.30498 21.3041 3.44221 21.9272 3.75812C22.5503 4.07403 23.0738 4.55627 23.4397 5.15141C23.8056 5.74656 23.9996 6.43138 24.0001 7.13V16.87C24 17.5691 23.8061 18.2545 23.4401 18.8502C23.074 19.4458 22.5502 19.9284 21.9265 20.2444C21.3029 20.5604 20.6039 20.6975 19.9071 20.6404C19.2104 20.5833 18.543 20.3343 17.9791 19.921L14.2001 17.147C14.1293 18.1005 13.7006 18.9919 13.0002 19.6426C12.2997 20.2934 11.3792 20.6553 10.4231 20.656H10.4201ZM13.2071 14.181C13.4201 14.181 13.6275 14.2489 13.7991 14.375L19.1621 18.308C19.428 18.5026 19.7425 18.6199 20.0708 18.6467C20.3992 18.6735 20.7286 18.6089 21.0225 18.46C21.3164 18.3111 21.5633 18.0837 21.7358 17.8031C21.9084 17.5224 21.9999 17.1995 22.0001 16.87V7.13C21.9997 6.80052 21.908 6.4776 21.7353 6.19701C21.5626 5.91641 21.3156 5.68909 21.0217 5.54021C20.7278 5.39133 20.3984 5.32671 20.07 5.3535C19.7416 5.38029 19.427 5.49745 19.1611 5.692L13.8001 9.625C13.6511 9.73444 13.4747 9.80044 13.2905 9.81566C13.1062 9.83089 12.9214 9.79474 12.7564 9.71123C12.5915 9.62773 12.4529 9.50014 12.3562 9.34263C12.2594 9.18512 12.2081 9.00387 12.2081 8.819V7.13C12.208 6.80037 12.1166 6.47722 11.944 6.1964C11.7714 5.91558 11.5243 5.68808 11.2303 5.53913C10.9362 5.39019 10.6066 5.32562 10.2781 5.35261C9.94957 5.37959 9.63495 5.49707 9.36914 5.692L2.72914 10.562C2.50324 10.7276 2.31954 10.9441 2.19291 11.1939C2.06628 11.4438 2.00029 11.7199 2.00029 12C2.00029 12.2801 2.06628 12.5562 2.19291 12.8061C2.31954 13.0559 2.50324 13.2724 2.72914 13.438L9.36914 18.308C9.63495 18.5026 9.94947 18.6199 10.2778 18.6467C10.6062 18.6735 10.9356 18.6089 11.2295 18.46C11.5234 18.3111 11.7703 18.0837 11.9428 17.8031C12.1154 17.5224 12.2069 17.1995 12.2071 16.87V15.181C12.2071 14.9158 12.3125 14.6614 12.5 14.4739C12.6876 14.2864 12.9419 14.181 13.2071 14.181Z" fill="currentColor"/>
</g>
<defs>
<clipPath id="clip0_403_3216">
<rect width="24" height="24" fill="white"/>
</clipPath>
</defs>
</svg>
