<svg width="24" height="24" viewBox="0 0 24 24" fill="none" xmlns="http://www.w3.org/2000/svg">
<g clip-path="url(#clip0_403_2868)">
<path d="M21.4601 4.13388C21.2579 2.97513 20.653 1.92498 19.7522 1.16866C18.8513 0.412327 17.7123 -0.00159756 16.5361 -0.000116295H7.45108C6.2739 -0.0019061 5.13396 0.41237 4.2326 1.16954C3.33125 1.92671 2.72647 2.97806 2.52508 4.13788L0.0760857 18.1379C-0.049678 18.8565 -0.016685 19.5938 0.17275 20.2983C0.362185 21.0028 0.703473 21.6572 1.17267 22.2158C1.64187 22.7744 2.2276 23.2235 2.88879 23.5317C3.54998 23.8399 4.27059 23.9997 5.00008 23.9999H19.0001C19.73 24 20.4512 23.8402 21.1128 23.5318C21.7745 23.2235 22.3606 22.774 22.8299 22.2149C23.2993 21.6559 23.6406 21.0008 23.8298 20.2958C24.019 19.5907 24.0515 18.8528 23.9251 18.1339L21.4601 4.13388ZM21.3001 20.9289C21.0182 21.2646 20.6662 21.5345 20.2689 21.7195C19.8715 21.9045 19.4384 22.0002 19.0001 21.9999H5.00008C4.56226 21.9999 4.12974 21.9041 3.73289 21.7191C3.33603 21.5342 2.98447 21.2647 2.70287 20.9294C2.42127 20.5942 2.21647 20.2013 2.10283 19.7785C1.9892 19.3557 1.96949 18.9131 2.04508 18.4819L4.49408 4.48188C4.61601 3.78631 4.97941 3.15605 5.5203 2.70205C6.06119 2.24804 6.7449 1.9994 7.45108 1.99988H16.5361C17.2414 2.00002 17.9242 2.2487 18.4644 2.70225C19.0047 3.15579 19.3678 3.78519 19.4901 4.47988L21.9531 18.4799C22.0295 18.911 22.0107 19.3537 21.8979 19.7767C21.7851 20.1998 21.581 20.5931 21.3001 20.9289ZM13.0001 4.99988V6.99988C13.0001 7.2651 12.8947 7.51945 12.7072 7.70699C12.5196 7.89453 12.2653 7.99988 12.0001 7.99988C11.7349 7.99988 11.4805 7.89453 11.293 7.70699C11.1054 7.51945 11.0001 7.2651 11.0001 6.99988V4.99988C11.0001 4.73467 11.1054 4.48031 11.293 4.29278C11.4805 4.10524 11.7349 3.99988 12.0001 3.99988C12.2653 3.99988 12.5196 4.10524 12.7072 4.29278C12.8947 4.48031 13.0001 4.73467 13.0001 4.99988ZM13.0001 10.9999V12.9999C13.0001 13.2651 12.8947 13.5195 12.7072 13.707C12.5196 13.8945 12.2653 13.9999 12.0001 13.9999C11.7349 13.9999 11.4805 13.8945 11.293 13.707C11.1054 13.5195 11.0001 13.2651 11.0001 12.9999V10.9999C11.0001 10.7347 11.1054 10.4803 11.293 10.2928C11.4805 10.1052 11.7349 9.99988 12.0001 9.99988C12.2653 9.99988 12.5196 10.1052 12.7072 10.2928C12.8947 10.4803 13.0001 10.7347 13.0001 10.9999ZM13.0001 16.9999V18.9999C13.0001 19.2651 12.8947 19.5195 12.7072 19.707C12.5196 19.8945 12.2653 19.9999 12.0001 19.9999C11.7349 19.9999 11.4805 19.8945 11.293 19.707C11.1054 19.5195 11.0001 19.2651 11.0001 18.9999V16.9999C11.0001 16.7347 11.1054 16.4803 11.293 16.2928C11.4805 16.1052 11.7349 15.9999 12.0001 15.9999C12.2653 15.9999 12.5196 16.1052 12.7072 16.2928C12.8947 16.4803 13.0001 16.7347 13.0001 16.9999Z" fill="currentColor"/>
</g>
<defs>
<clipPath id="clip0_403_2868">
<rect width="24" height="24" fill="white"/>
</clipPath>
</defs>
</svg>
