<svg width="24" height="24" viewBox="0 0 24 24" fill="none" xmlns="http://www.w3.org/2000/svg">
<g clip-path="url(#clip0_406_2120)">
<path d="M23.351 0.648301C23.0559 0.349986 22.6812 0.142825 22.2716 0.0515144C21.8621 -0.0397965 21.4349 -0.0114063 21.041 0.133301L20.825 0.210301C15.9881 1.78355 11.5845 4.4628 7.964 8.0353C7.05539 8.96793 6.22867 9.97698 5.493 11.0513C4.093 13.0513 3.827 15.2403 5.547 16.9613L5.586 16.9993L3.293 19.2923C3.10553 19.4798 3.00021 19.7341 3.00021 19.9993C3.00021 20.2645 3.10553 20.5188 3.293 20.7063C3.48053 20.8938 3.73484 20.9991 4 20.9991C4.26516 20.9991 4.51947 20.8938 4.707 20.7063L7 18.4133L7.038 18.4523C8.759 20.1723 10.953 19.9043 12.948 18.5063C14.0223 17.7706 15.0314 16.9439 15.964 16.0353C19.5366 12.4145 22.2159 8.01059 23.789 3.1733L23.866 2.9573C24.0107 2.56359 24.0392 2.13654 23.9478 1.72711C23.8565 1.31769 23.6493 0.943191 23.351 0.648301ZM11 13.9993C10.8022 13.9993 10.6089 13.9407 10.4444 13.8308C10.28 13.7209 10.1518 13.5647 10.0761 13.382C10.0004 13.1993 9.98063 12.9982 10.0192 12.8042C10.0578 12.6102 10.153 12.432 10.2929 12.2922C10.4327 12.1523 10.6109 12.0571 10.8049 12.0185C10.9989 11.9799 11.2 11.9997 11.3827 12.0754C11.5654 12.1511 11.7216 12.2793 11.8315 12.4437C11.9414 12.6082 12 12.8015 12 12.9993C12 13.2645 11.8946 13.5189 11.7071 13.7064C11.5196 13.8939 11.2652 13.9993 11 13.9993ZM14 10.9993C13.8022 10.9993 13.6089 10.9407 13.4444 10.8308C13.28 10.7209 13.1518 10.5647 13.0761 10.382C13.0004 10.1993 12.9806 9.99819 13.0192 9.80421C13.0578 9.61023 13.153 9.43205 13.2929 9.2922C13.4327 9.15234 13.6109 9.0571 13.8049 9.01852C13.9989 8.97993 14.2 8.99973 14.3827 9.07542C14.5654 9.15111 14.7216 9.27928 14.8315 9.44373C14.9414 9.60818 15 9.80152 15 9.9993C15 10.2645 14.8946 10.5189 14.7071 10.7064C14.5196 10.8939 14.2652 10.9993 14 10.9993ZM17 7.9993C16.8022 7.9993 16.6089 7.94065 16.4444 7.83077C16.28 7.72089 16.1518 7.56471 16.0761 7.38199C16.0004 7.19926 15.9806 6.99819 16.0192 6.80421C16.0578 6.61023 16.153 6.43205 16.2929 6.2922C16.4327 6.15234 16.6109 6.0571 16.8049 6.01852C16.9989 5.97993 17.2 5.99973 17.3827 6.07542C17.5654 6.15111 17.7216 6.27928 17.8315 6.44373C17.9414 6.60818 18 6.80152 18 6.9993C18 7.26452 17.8946 7.51887 17.7071 7.70641C17.5196 7.89394 17.2652 7.9993 17 7.9993ZM2.363 13.0373C2.05273 13.0374 1.74548 12.9764 1.45879 12.8578C1.17211 12.7392 0.911605 12.5652 0.692167 12.3458C0.472729 12.1265 0.298656 11.8661 0.179892 11.5794C0.061128 11.2928 -2.78064e-08 10.9856 0 10.6753C0.00241739 10.0593 0.240336 9.46754 0.665 9.0213C2.37335 7.26515 4.67884 6.21448 7.125 6.0773C6.934 6.2593 6.739 6.4323 6.55 6.6213C5.55966 7.63496 4.65803 8.73164 3.855 9.8993C3.17969 10.8349 2.70945 11.9025 2.475 13.0323L2.363 13.0373ZM11 21.5243C12.1299 21.2903 13.1976 20.82 14.133 20.1443C15.3026 19.3417 16.401 18.4401 17.416 17.4493C17.606 17.2603 17.778 17.0653 17.961 16.8743C17.823 19.3205 16.772 21.6258 15.016 23.3343C14.5702 23.759 13.9787 23.9969 13.363 23.9993C12.7363 23.9993 12.1353 23.7503 11.6921 23.3072C11.249 22.864 11 22.263 11 21.6363V21.5243Z" fill="currentColor"/>
</g>
<defs>
<clipPath id="clip0_406_2120">
<rect width="24" height="24" fill="white"/>
</clipPath>
</defs>
</svg>
