<svg width="24" height="24" viewBox="0 0 24 24" fill="none" xmlns="http://www.w3.org/2000/svg">
<g clip-path="url(#clip0_406_2116)">
<path d="M24 21.9997C24 22.2649 23.8946 22.5192 23.7071 22.7068C23.5196 22.8943 23.2652 22.9997 23 22.9997H1C0.734784 22.9997 0.48043 22.8943 0.292893 22.7068C0.105357 22.5192 0 22.2649 0 21.9997C0 21.7344 0.105357 21.4801 0.292893 21.2925C0.48043 21.105 0.734784 20.9997 1 20.9997H23C23.2652 20.9997 23.5196 21.105 23.7071 21.2925C23.8946 21.4801 24 21.7344 24 21.9997ZM2 18.9997H22C22.2652 18.9997 22.5196 18.8943 22.7071 18.7068C22.8946 18.5192 23 18.2649 23 17.9997V16.9997C22.9964 14.257 21.9692 11.6144 20.1196 9.58927C18.27 7.56413 15.7311 6.30225 13 6.05065V4.72265C13.3813 4.50252 13.6793 4.16272 13.8478 3.75597C14.0162 3.34921 14.0458 2.89823 13.9319 2.47296C13.8179 2.0477 13.5668 1.67191 13.2175 1.40389C12.8682 1.13588 12.4403 0.990601 12 0.990601C11.5597 0.990601 11.1318 1.13588 10.7825 1.40389C10.4332 1.67191 10.1821 2.0477 10.0681 2.47296C9.9542 2.89823 9.98376 3.34921 10.1522 3.75597C10.3207 4.16272 10.6187 4.50252 11 4.72265V6.05065C8.26889 6.30225 5.73002 7.56413 3.88041 9.58927C2.0308 11.6144 1.00363 14.257 1 16.9997V17.9997C1 18.2649 1.10536 18.5192 1.29289 18.7068C1.48043 18.8943 1.73478 18.9997 2 18.9997Z" fill="currentColor"/>
</g>
<defs>
<clipPath id="clip0_406_2116">
<rect width="24" height="24" fill="white"/>
</clipPath>
</defs>
</svg>
