<svg width="24" height="24" viewBox="0 0 24 24" fill="none" xmlns="http://www.w3.org/2000/svg">
<g clip-path="url(#clip0_406_1897)">
<path d="M24 15.0001C24 20.0771 17 24.0001 15 24.0001H9C7 24.0001 0 20.0771 0 15.0001C0.00842079 14.2022 0.331028 13.4398 0.897865 12.8782C1.4647 12.3166 2.23007 12.0011 3.028 12.0001H20.972C21.7698 12.0016 22.5348 12.3173 23.1016 12.8788C23.6683 13.4402 23.9911 14.2023 24 15.0001ZM19.714 3.02006C19.366 3.06806 18.987 3.13606 18.599 3.21306C18.894 2.33706 19.599 0.113059 17.999 5.88428e-05C17.7338 5.88428e-05 17.4794 0.105416 17.2919 0.292952C17.1044 0.480488 16.999 0.734842 16.999 1.00006C17.0107 1.57019 16.8997 2.13618 16.6735 2.65966C16.4473 3.18313 16.1112 3.65186 15.688 4.03406C14.8119 4.32384 14.002 4.78438 13.305 5.38906C12.7134 5.98068 12.3001 6.72683 12.1125 7.54223C11.9248 8.35762 11.9704 9.20935 12.244 10.0001H13.586L16.293 7.29306C16.4816 7.1109 16.7342 7.01011 16.9964 7.01239C17.2586 7.01466 17.5094 7.11983 17.6948 7.30524C17.8802 7.49065 17.9854 7.74146 17.9877 8.00366C17.99 8.26586 17.8892 8.51846 17.707 8.70706L16.414 10.0001H20.665C21.2857 8.48565 21.7273 6.90394 21.981 5.28706C22.0243 4.97924 21.9955 4.66557 21.8969 4.37078C21.7983 4.07599 21.6325 3.80813 21.4127 3.58833C21.1929 3.36853 20.9251 3.20278 20.6303 3.10417C20.3355 3.00555 20.0218 2.97676 19.714 3.02006ZM10 10.0001C9.866 4.72306 2.133 4.72706 2 10.0001H10ZM10.5 6.06806C10.8704 5.1923 11.4239 4.40592 12.1233 3.76172C12.8227 3.11751 13.6518 2.63039 14.555 2.33306C14.8111 2.01901 14.9622 1.63253 14.987 1.22806C14.5433 0.765178 13.9952 0.415249 13.3885 0.207526C12.7819 -0.000196635 12.1343 -0.0596765 11.5 0.0340588C10.7737 0.0923599 10.0794 0.358255 9.5 0.800059C8.84525 0.307389 8.05313 0.0312294 7.234 0.0100588C6.19391 -0.0904381 5.15632 0.224864 4.348 0.887059C3.81074 1.3584 3.41105 1.96637 3.19133 2.64647C2.97161 3.32658 2.94005 4.05347 3.1 4.75006C4.29911 4.094 5.68629 3.86703 7.03196 4.1067C8.37763 4.34638 9.60114 5.03833 10.5 6.06806Z" fill="currentColor"/>
</g>
<defs>
<clipPath id="clip0_406_1897">
<rect width="24" height="24" fill="white"/>
</clipPath>
</defs>
</svg>
