<svg width="24" height="24" viewBox="0 0 24 24" fill="none" xmlns="http://www.w3.org/2000/svg">
<g clip-path="url(#clip0_406_2104)">
<path d="M19 3H5C3.67441 3.00159 2.40356 3.52888 1.46622 4.46622C0.528882 5.40356 0.00158786 6.67441 0 8L0 14C0.00158786 15.3256 0.528882 16.5964 1.46622 17.5338C2.40356 18.4711 3.67441 18.9984 5 19H11V20H8C7.73478 20 7.48043 20.1054 7.29289 20.2929C7.10536 20.4804 7 20.7348 7 21C7 21.2652 7.10536 21.5196 7.29289 21.7071C7.48043 21.8946 7.73478 22 8 22H16C16.2652 22 16.5196 21.8946 16.7071 21.7071C16.8946 21.5196 17 21.2652 17 21C17 20.7348 16.8946 20.4804 16.7071 20.2929C16.5196 20.1054 16.2652 20 16 20H13V19H19C20.3256 18.9984 21.5964 18.4711 22.5338 17.5338C23.4711 16.5964 23.9984 15.3256 24 14V8C23.9984 6.67441 23.4711 5.40356 22.5338 4.46622C21.5964 3.52888 20.3256 3.00159 19 3Z" fill="currentColor"/>
</g>
<defs>
<clipPath id="clip0_406_2104">
<rect width="24" height="24" fill="white"/>
</clipPath>
</defs>
</svg>
