<svg width="24" height="24" viewBox="0 0 24 24" fill="none" xmlns="http://www.w3.org/2000/svg">
<g clip-path="url(#clip0_406_2208)">
<path d="M10.9999 17.5C11.0012 16.2264 11.3765 14.9813 12.0794 13.9192C12.7822 12.8572 13.7816 12.025 14.9533 11.526C16.1251 11.0271 17.4176 10.8833 18.6704 11.1127C19.9231 11.342 21.0809 11.9343 21.9999 12.816V3C21.9999 2.20435 21.6838 1.44129 21.1212 0.87868C20.5586 0.31607 19.7956 0 18.9999 0L6.99991 0C5.67431 0.00158786 4.40347 0.528882 3.46613 1.46622C2.52879 2.40356 2.0015 3.67441 1.99991 5V19C2.0015 20.3256 2.52879 21.5964 3.46613 22.5338C4.40347 23.4711 5.67431 23.9984 6.99991 24H17.4999C15.776 24 14.1227 23.3152 12.9037 22.0962C11.6847 20.8772 10.9999 19.2239 10.9999 17.5ZM6.99991 7C6.99991 6.73478 7.10527 6.48043 7.2928 6.29289C7.48034 6.10536 7.73469 6 7.99991 6H15.9999C16.2651 6 16.5195 6.10536 16.707 6.29289C16.8946 6.48043 16.9999 6.73478 16.9999 7C16.9999 7.26522 16.8946 7.51957 16.707 7.70711C16.5195 7.89464 16.2651 8 15.9999 8H7.99991C7.73469 8 7.48034 7.89464 7.2928 7.70711C7.10527 7.51957 6.99991 7.26522 6.99991 7ZM23.7069 23.707C23.5194 23.8945 23.2651 23.9998 22.9999 23.9998C22.7347 23.9998 22.4804 23.8945 22.2929 23.707L19.8859 21.3C19.1731 21.755 18.3455 21.9977 17.4999 22C16.6099 22 15.7399 21.7361 14.9998 21.2416C14.2598 20.7471 13.683 20.0443 13.3425 19.2221C13.0019 18.3998 12.9127 17.495 13.0864 16.6221C13.26 15.7492 13.6886 14.9474 14.3179 14.318C14.9473 13.6887 15.7491 13.2601 16.622 13.0865C17.4949 12.9128 18.3997 13.0019 19.222 13.3425C20.0443 13.6831 20.7471 14.2599 21.2415 14.9999C21.736 15.74 21.9999 16.61 21.9999 17.5C21.9977 18.3456 21.7549 19.1732 21.2999 19.886L23.7069 22.293C23.8944 22.4805 23.9997 22.7348 23.9997 23C23.9997 23.2652 23.8944 23.5195 23.7069 23.707Z" fill="currentColor"/>
</g>
<defs>
<clipPath id="clip0_406_2208">
<rect width="24" height="24" fill="white"/>
</clipPath>
</defs>
</svg>
