<svg width="24" height="24" viewBox="0 0 24 24" fill="none" xmlns="http://www.w3.org/2000/svg">
<g clip-path="url(#clip0_406_2123)">
<path d="M1.00123 4.75073H3.73695C4.2769 6.73737 6.32509 7.91016 8.31173 7.37022C9.58768 7.02342 10.5844 6.02668 10.9312 4.75073H22.999C23.5512 4.75073 23.9989 4.30307 23.9989 3.75084C23.9989 3.19862 23.5512 2.75096 22.999 2.75096H10.9312C10.3913 0.764267 8.34309 -0.408523 6.35644 0.131424C5.08049 0.478217 4.08375 1.47496 3.73695 2.75091H1.00123C0.449001 2.75091 0.00134277 3.19857 0.00134277 3.7508C0.00134277 4.30302 0.449001 4.75073 1.00123 4.75073Z" fill="currentColor"/>
<path d="M22.999 11.0006H20.2633C19.7244 9.01419 17.6774 7.84074 15.691 8.37957C14.414 8.72598 13.4164 9.72353 13.07 11.0006H1.00123C0.449001 11.0006 0.00134277 11.4482 0.00134277 12.0004C0.00134277 12.5527 0.449001 13.0003 1.00123 13.0003H13.07C13.6089 14.9867 15.6559 16.1601 17.6423 15.6213C18.9193 15.2749 19.9169 14.2774 20.2633 13.0003H22.999C23.5512 13.0003 23.9989 12.5527 23.9989 12.0004C23.9989 11.4482 23.5512 11.0006 22.999 11.0006Z" fill="currentColor"/>
<path d="M22.999 19.2493H10.9312C10.3913 17.2627 8.34309 16.0899 6.35644 16.6298C5.08049 16.9766 4.08375 17.9734 3.73695 19.2493H1.00123C0.449001 19.2493 0.00134277 19.697 0.00134277 20.2492C0.00134277 20.8014 0.449001 21.2491 1.00123 21.2491H3.73695C4.2769 23.2357 6.32509 24.4085 8.31173 23.8686C9.58768 23.5218 10.5844 22.525 10.9312 21.2491H22.999C23.5512 21.2491 23.9989 20.8014 23.9989 20.2492C23.9989 19.697 23.5512 19.2493 22.999 19.2493Z" fill="currentColor"/>
</g>
<defs>
<clipPath id="clip0_406_2123">
<rect width="24" height="24" fill="white"/>
</clipPath>
</defs>
</svg>
