<svg width="24" height="24" viewBox="0 0 24 24" fill="none" xmlns="http://www.w3.org/2000/svg">
<g clip-path="url(#clip0_406_1927)">
<path d="M0.000113863 11.986C-0.0100923 14.5504 2.0605 16.6376 4.62493 16.6478C5.80595 16.6524 6.94441 16.2069 7.80852 15.4018L14.728 18.526C14.6799 18.7847 14.6536 19.047 14.6491 19.3101C14.641 21.8922 16.7275 23.9919 19.3096 24.0001C21.8916 24.0083 23.9914 21.9217 23.9996 19.3397C24.0078 16.7576 21.9212 14.6578 19.3392 14.6496C17.7965 14.6448 16.3507 15.4012 15.4751 16.6713L8.97409 13.7359C9.43585 12.6209 9.43763 11.3685 8.9791 10.2522L15.4711 7.30177C16.933 9.41609 19.8321 9.94494 21.9464 8.48307C24.0607 7.02119 24.5895 4.12216 23.1277 2.00784C21.6658 -0.106488 18.7667 -0.635338 16.6524 0.826538C15.3932 1.69716 14.6427 3.13122 14.6451 4.66206C14.6493 4.92555 14.676 5.18815 14.725 5.4471L7.8235 8.58321C5.95366 6.82741 3.0145 6.91988 1.25871 8.78972C0.446097 9.65519 -0.00428698 10.7989 0.000113863 11.986Z" fill="currentColor"/>
</g>
<defs>
<clipPath id="clip0_406_1927">
<rect width="24" height="24" fill="white"/>
</clipPath>
</defs>
</svg>
