<svg width="24" height="24" viewBox="0 0 24 24" fill="none" xmlns="http://www.w3.org/2000/svg">
<g clip-path="url(#clip0_406_1895)">
<path d="M18.5811 2.14067L12.3161 0.0516681C12.111 -0.016653 11.8893 -0.016653 11.6841 0.0516681L5.41812 2.14067C4.42222 2.47172 3.55594 3.10817 2.94236 3.95961C2.32878 4.81105 1.99909 5.83418 2.00012 6.88367V12.0007C2.00012 19.5637 11.2001 23.7407 11.5941 23.9147C11.7219 23.9715 11.8603 24.0008 12.0001 24.0008C12.14 24.0008 12.2783 23.9715 12.4061 23.9147C12.8001 23.7407 22.0001 19.5637 22.0001 12.0007V6.88367C22.0011 5.83406 21.6713 4.81083 21.0575 3.95938C20.4437 3.10793 19.5772 2.47155 18.5811 2.14067ZM12.0001 19.0007C11.8023 19.0007 11.609 18.942 11.4446 18.8321C11.2801 18.7223 11.1519 18.5661 11.0762 18.3834C11.0006 18.2006 10.9808 17.9996 11.0193 17.8056C11.0579 17.6116 11.1532 17.4334 11.293 17.2936C11.4329 17.1537 11.6111 17.0585 11.805 17.0199C11.999 16.9813 12.2001 17.0011 12.3828 17.0768C12.5655 17.1525 12.7217 17.2806 12.8316 17.4451C12.9415 17.6095 13.0001 17.8029 13.0001 18.0007C13.0001 18.2659 12.8948 18.5202 12.7072 18.7078C12.5197 18.8953 12.2653 19.0007 12.0001 19.0007ZM13.9281 12.5577C13.6755 12.7136 13.461 12.9241 13.3004 13.1739C13.1398 13.4236 13.0372 13.7061 13.0001 14.0007C13.0001 14.2659 12.8948 14.5202 12.7072 14.7078C12.5197 14.8953 12.2653 15.0007 12.0001 15.0007C11.7349 15.0007 11.4806 14.8953 11.293 14.7078C11.1055 14.5202 11.0001 14.2659 11.0001 14.0007C11.0373 13.3472 11.2361 12.7132 11.5787 12.1556C11.9213 11.5979 12.397 11.1341 12.9631 10.8057C13.3331 10.6029 13.6291 10.2881 13.8088 9.90643C13.9885 9.52478 14.0425 9.09597 13.9631 8.68167C13.8861 8.28596 13.6927 7.92226 13.4076 7.6372C13.1225 7.35214 12.7588 7.15869 12.3631 7.08167C12.0743 7.02835 11.7772 7.03932 11.493 7.1138C11.2089 7.18828 10.9446 7.32444 10.719 7.51259C10.4935 7.70075 10.3121 7.93629 10.1879 8.20247C10.0636 8.46864 9.99951 8.75892 10.0001 9.05267C10.0001 9.31789 9.89477 9.57224 9.70723 9.75978C9.51969 9.94731 9.26534 10.0527 9.00012 10.0527C8.73491 10.0527 8.48055 9.94731 8.29302 9.75978C8.10548 9.57224 8.00012 9.31789 8.00012 9.05267C8.00002 8.46842 8.12791 7.89125 8.37479 7.36173C8.62167 6.8322 8.98155 6.36319 9.42912 5.98767C9.85688 5.63007 10.3547 5.36585 10.8905 5.21195C11.4264 5.05805 11.9885 5.01788 12.5409 5.09401C13.0932 5.17014 13.6235 5.36089 14.0977 5.65403C14.572 5.94716 14.9797 6.3362 15.2948 6.79619C15.6098 7.25617 15.8253 7.77694 15.9272 8.32508C16.0292 8.87321 16.0154 9.43661 15.8868 9.97911C15.7582 10.5216 15.5176 11.0313 15.1805 11.4753C14.8434 11.9194 14.4171 12.288 13.9291 12.5577H13.9281Z" fill="currentColor"/>
</g>
<defs>
<clipPath id="clip0_406_1895">
<rect width="24" height="24" fill="white"/>
</clipPath>
</defs>
</svg>
