<svg width="24" height="24" viewBox="0 0 24 24" fill="none" xmlns="http://www.w3.org/2000/svg">
<g clip-path="url(#clip0_403_2863)">
<path d="M19.989 12.0006H18.653C17.69 9.7337 16.2074 7.72498 14.325 6.13661C13.4278 5.40304 12.3049 5.00176 11.146 5.00061H8.818L8.11 2.31561C8.00593 1.92099 7.82515 1.55073 7.57798 1.22597C7.33082 0.901217 7.0221 0.628323 6.66947 0.422874C6.31684 0.217424 5.9272 0.0834419 5.52279 0.0285771C5.11838 -0.0262878 4.70712 -0.000960901 4.3125 0.103112C3.91788 0.207184 3.54762 0.387964 3.22286 0.63513C2.89811 0.882296 2.62521 1.19101 2.41976 1.54364C2.21431 1.89627 2.08033 2.28591 2.02547 2.69032C1.9706 3.09473 1.99593 3.50599 2.1 3.90061L2.394 5.00061H1C0.734784 5.00061 0.48043 5.10597 0.292893 5.29351C0.105357 5.48104 0 5.7354 0 6.00061C0 6.26583 0.105357 6.52018 0.292893 6.70772C0.48043 6.89525 0.734784 7.00061 1 7.00061H11.146C11.8438 7.00244 12.5195 7.24511 13.059 7.68761C14.4732 8.87819 15.626 10.3483 16.445 12.0056H15.625C15.0239 12.0012 14.4351 12.1752 13.933 12.5056L11.949 13.8276C11.7871 13.9382 11.5961 13.9984 11.4 14.0006H1C0.734784 14.0006 0.48043 14.106 0.292893 14.2935C0.105357 14.481 0 14.7354 0 15.0006C0 15.2658 0.105357 15.5202 0.292893 15.7077C0.48043 15.8953 0.734784 16.0006 1 16.0006H11.4C11.9919 16.0022 12.571 15.8282 13.064 15.5006L15.047 14.1786C15.2152 14.0621 15.4166 14.0032 15.621 14.0106H19.99C20.3294 14.0094 20.6636 14.0946 20.961 14.2582C21.2584 14.4217 21.5093 14.6583 21.69 14.9456C21.8734 15.2267 21.9811 15.5505 22.0027 15.8855C22.0242 16.2204 21.9589 16.5553 21.813 16.8576C21.0792 18.3963 19.9249 19.6958 18.4836 20.6059C17.0422 21.516 15.3727 21.9996 13.668 22.0006H1C0.734784 22.0006 0.48043 22.106 0.292893 22.2935C0.105357 22.481 0 22.7354 0 23.0006C0 23.2658 0.105357 23.5202 0.292893 23.7077C0.48043 23.8953 0.734784 24.0006 1 24.0006H13.668C15.7517 23.9963 17.7917 23.4024 19.552 22.2876C21.3124 21.1728 22.7214 19.5825 23.616 17.7006C23.9025 17.0905 24.0301 16.4179 23.9871 15.7453C23.9441 15.0727 23.7318 14.4219 23.3699 13.8532C23.0081 13.2846 22.5085 12.8166 21.9174 12.4927C21.3263 12.1688 20.663 11.9996 19.989 12.0006ZM4.037 3.38861C3.97168 3.10807 4.01828 2.81311 4.16691 2.56636C4.31555 2.31962 4.5545 2.14053 4.83304 2.06712C5.11158 1.99371 5.40777 2.03177 5.6587 2.1732C5.90964 2.31463 6.09557 2.54831 6.177 2.82461L6.75 5.00061H4.462L4.037 3.38861ZM0 10.0006C0 9.73539 0.105357 9.48104 0.292893 9.2935C0.48043 9.10597 0.734784 9.00061 1 9.00061H10C10.2652 9.00061 10.5196 9.10597 10.7071 9.2935C10.8946 9.48104 11 9.73539 11 10.0006C11 10.2658 10.8946 10.5202 10.7071 10.7077C10.5196 10.8953 10.2652 11.0006 10 11.0006H1C0.734784 11.0006 0.48043 10.8953 0.292893 10.7077C0.105357 10.5202 0 10.2658 0 10.0006ZM4 20.0006C3.80222 20.0006 3.60888 19.942 3.44443 19.8321C3.27998 19.7222 3.15181 19.566 3.07612 19.3833C3.00043 19.2006 2.98063 18.9995 3.01922 18.8055C3.0578 18.6115 3.15304 18.4334 3.29289 18.2935C3.43275 18.1537 3.61093 18.0584 3.80491 18.0198C3.99889 17.9812 4.19996 18.001 4.38268 18.0767C4.56541 18.1524 4.72159 18.2806 4.83147 18.445C4.94135 18.6095 5 18.8028 5 19.0006C5 19.2658 4.89464 19.5202 4.70711 19.7077C4.51957 19.8953 4.26522 20.0006 4 20.0006ZM8 20.0006C7.80222 20.0006 7.60888 19.942 7.44443 19.8321C7.27998 19.7222 7.15181 19.566 7.07612 19.3833C7.00043 19.2006 6.98063 18.9995 7.01922 18.8055C7.0578 18.6115 7.15304 18.4334 7.29289 18.2935C7.43275 18.1537 7.61093 18.0584 7.80491 18.0198C7.99889 17.9812 8.19996 18.001 8.38268 18.0767C8.56541 18.1524 8.72159 18.2806 8.83147 18.445C8.94135 18.6095 9 18.8028 9 19.0006C9 19.2658 8.89464 19.5202 8.70711 19.7077C8.51957 19.8953 8.26522 20.0006 8 20.0006ZM12 20.0006C11.8022 20.0006 11.6089 19.942 11.4444 19.8321C11.28 19.7222 11.1518 19.566 11.0761 19.3833C11.0004 19.2006 10.9806 18.9995 11.0192 18.8055C11.0578 18.6115 11.153 18.4334 11.2929 18.2935C11.4327 18.1537 11.6109 18.0584 11.8049 18.0198C11.9989 17.9812 12.2 18.001 12.3827 18.0767C12.5654 18.1524 12.7216 18.2806 12.8315 18.445C12.9414 18.6095 13 18.8028 13 19.0006C13 19.2658 12.8946 19.5202 12.7071 19.7077C12.5196 19.8953 12.2652 20.0006 12 20.0006Z" fill="currentColor"/>
</g>
<defs>
<clipPath id="clip0_403_2863">
<rect width="24" height="24" fill="white"/>
</clipPath>
</defs>
</svg>
