<svg width="24" height="24" viewBox="0 0 24 24" fill="none" xmlns="http://www.w3.org/2000/svg">
<g clip-path="url(#clip0_406_2165)">
<path d="M24 21C24 22.626 22.282 24 20.25 24C19.2432 24.0064 18.2675 23.6516 17.5 23C16.7278 23.6414 15.7563 23.9937 14.7525 23.9962C13.7487 23.9988 12.7754 23.6515 12 23.014C11.2274 23.6521 10.256 24 9.25397 23.9974C8.25194 23.9949 7.28233 23.642 6.513 23C5.7419 23.6542 4.76118 24.0091 3.75 24C1.718 24 0 22.626 0 21C0 20.7348 0.105357 20.4804 0.292893 20.2929C0.48043 20.1054 0.734784 20 1 20C1.26522 20 1.51957 20.1054 1.70711 20.2929C1.89464 20.4804 2 20.7348 2 21C2 21.306 2.661 22 3.75 22C4.05095 22.0135 4.35107 21.959 4.62807 21.8406C4.90507 21.7222 5.15182 21.5429 5.35 21.316C5.3094 21.2505 5.26499 21.1873 5.217 21.127C3.5766 19.4193 2.46916 17.2708 2.03 14.944C1.8996 14.2323 2.0308 13.4975 2.39943 12.8749C2.76806 12.2523 3.34928 11.7839 4.036 11.556L11 9.279V19C11 19.2652 11.1054 19.5196 11.2929 19.7071C11.4804 19.8946 11.7348 20 12 20C12.2652 20 12.5196 19.8946 12.7071 19.7071C12.8946 19.5196 13 19.2652 13 19V9.279L19.931 11.554C20.6159 11.7841 21.195 12.2532 21.5622 12.8754C21.9295 13.4975 22.0604 14.2312 21.931 14.942C21.5026 17.266 20.4058 19.4147 18.775 21.125C18.7288 21.1838 18.6861 21.2452 18.647 21.309C18.8457 21.5365 19.0927 21.7167 19.3701 21.8363C19.6475 21.9559 19.9482 22.0118 20.25 22C21.318 22 22 21.344 22 21C22 20.7348 22.1054 20.4804 22.2929 20.2929C22.4804 20.1054 22.7348 20 23 20C23.2652 20 23.5196 20.1054 23.7071 20.2929C23.8946 20.4804 24 20.7348 24 21ZM12 7C12.5566 7.04766 13.1035 7.17496 13.624 7.378L20 9.471V7.4C20 6.49826 19.6418 5.63346 19.0042 4.99584C18.3665 4.35821 17.5017 4 16.6 4H15V3C15 2.20435 14.6839 1.44129 14.1213 0.87868C13.5587 0.31607 12.7956 0 12 0C11.2044 0 10.4413 0.31607 9.87868 0.87868C9.31607 1.44129 9 2.20435 9 3V4H7.4C6.49826 4 5.63346 4.35821 4.99584 4.99584C4.35821 5.63346 4 6.49826 4 7.4V9.463L10.379 7.378C10.8982 7.17409 11.4442 7.04675 12 7Z" fill="currentColor"/>
</g>
<defs>
<clipPath id="clip0_406_2165">
<rect width="24" height="24" fill="white"/>
</clipPath>
</defs>
</svg>
