<svg width="24" height="24" viewBox="0 0 24 24" fill="none" xmlns="http://www.w3.org/2000/svg">
<g clip-path="url(#clip0_406_1889)">
<path d="M18 12C16.9464 12.0012 15.9111 11.7247 14.9984 11.1982C14.0858 10.6717 13.328 9.91396 12.8016 9.00128C12.2752 8.08859 11.9987 7.05326 12 5.99965C12.0013 4.94604 12.2803 3.91139 12.809 3H4.242L4.2 2.648C4.11382 1.9186 3.76306 1.24615 3.21419 0.758104C2.66532 0.270054 1.95647 0.000312836 1.222 0L1 0C0.734784 0 0.48043 0.105357 0.292893 0.292893C0.105357 0.48043 0 0.734784 0 1C0 1.26522 0.105357 1.51957 0.292893 1.70711C0.48043 1.89464 0.734784 2 1 2H1.222C1.46693 2.00003 1.70334 2.08996 1.88637 2.25272C2.06941 2.41547 2.18634 2.63975 2.215 2.883L3.591 14.583C3.73385 15.7998 4.31848 16.9218 5.23391 17.736C6.14934 18.5502 7.33185 19 8.557 19H19C19.2652 19 19.5196 18.8946 19.7071 18.7071C19.8946 18.5196 20 18.2652 20 18C20 17.7348 19.8946 17.4804 19.7071 17.2929C19.5196 17.1054 19.2652 17 19 17H8.557C7.93788 16.9985 7.33441 16.8054 6.82934 16.4473C6.32428 16.0893 5.94237 15.5837 5.736 15H17.657C18.8293 15.0001 19.9643 14.5882 20.8638 13.8364C21.7633 13.0846 22.37 12.0407 22.578 10.887L22.816 9.568C22.2597 10.3222 21.5341 10.9351 20.6976 11.3576C19.8611 11.78 18.9371 12 18 12Z" fill="currentColor"/>
<path d="M6.99994 24.0006C8.1045 24.0006 8.99993 23.1052 8.99993 22.0006C8.99993 20.896 8.1045 20.0006 6.99994 20.0006C5.89537 20.0006 4.99994 20.896 4.99994 22.0006C4.99994 23.1052 5.89537 24.0006 6.99994 24.0006Z" fill="currentColor"/>
<path d="M17 24.0006C18.1046 24.0006 19 23.1052 19 22.0006C19 20.896 18.1046 20.0006 17 20.0006C15.8954 20.0006 15 20.896 15 22.0006C15 23.1052 15.8954 24.0006 17 24.0006Z" fill="currentColor"/>
<path d="M15.7331 8.94571C15.9051 9.13146 16.1129 9.2804 16.3441 9.38353C16.5753 9.48666 16.825 9.54183 17.0781 9.54571H17.1111C17.3591 9.54653 17.6049 9.49806 17.8341 9.40313C18.0632 9.3082 18.2713 9.16869 18.4461 8.99271L22.7181 4.72071C22.9065 4.53267 23.0125 4.27748 23.0128 4.01127C23.0131 3.74506 22.9076 3.48964 22.7196 3.30121C22.5315 3.11277 22.2763 3.00675 22.0101 3.00647C21.7439 3.00619 21.4885 3.11167 21.3001 3.29971L17.1131 7.49371L15.8791 6.16971C15.6979 5.9757 15.4471 5.8616 15.1819 5.85251C14.9166 5.84341 14.6586 5.94007 14.4646 6.12121C14.2706 6.30235 14.1565 6.55314 14.1474 6.81841C14.1383 7.08368 14.2349 7.3417 14.4161 7.53571L15.7331 8.94571Z" fill="currentColor"/>
</g>
<defs>
<clipPath id="clip0_406_1889">
<rect width="24" height="24" fill="white"/>
</clipPath>
</defs>
</svg>
