<svg width="24" height="24" viewBox="0 0 24 24" fill="none" xmlns="http://www.w3.org/2000/svg">
<g clip-path="url(#clip0_403_3117)">
<path d="M23.4212 16.5822L20.1302 13.2912C20.0385 13.1935 19.928 13.1152 19.8055 13.0611C19.6829 13.0069 19.5507 12.9779 19.4167 12.9758C19.2828 12.9737 19.1497 12.9986 19.0256 13.049C18.9014 13.0993 18.7886 13.1741 18.6939 13.2689C18.5991 13.3636 18.5244 13.4765 18.4742 13.6007C18.4239 13.7249 18.3992 13.858 18.4013 13.9919C18.4035 14.1259 18.4326 14.2581 18.4869 14.3806C18.5411 14.5031 18.6194 14.6135 18.7172 14.7052L21.0072 16.9992C19.7623 17.002 18.5295 16.7557 17.3812 16.2748C16.233 15.794 15.1925 15.0882 14.3212 14.1992C14.2244 14.1101 14.1108 14.0413 13.9869 13.997C13.8631 13.9526 13.7316 13.9336 13.6003 13.9411C13.4689 13.9486 13.3404 13.9823 13.2224 14.0404C13.1044 14.0985 12.9992 14.1797 12.9132 14.2792L12.9002 14.2992C12.7321 14.4947 12.646 14.7477 12.66 15.0052C12.674 15.2628 12.7869 15.5049 12.9752 15.6812C14.025 16.7429 15.2769 17.5835 16.6569 18.1533C18.0369 18.7232 19.5172 19.0108 21.0102 18.9992L18.7172 21.2922C18.6127 21.382 18.5279 21.4925 18.4682 21.6167C18.4084 21.7409 18.375 21.8761 18.3699 22.0138C18.3649 22.1516 18.3884 22.2888 18.439 22.4171C18.4895 22.5453 18.566 22.6617 18.6637 22.7589C18.7613 22.8562 18.878 22.9322 19.0065 22.9822C19.1349 23.0322 19.2723 23.0551 19.41 23.0495C19.5477 23.0439 19.6827 23.0098 19.8067 22.9496C19.9306 22.8893 20.0408 22.804 20.1302 22.6992L23.4212 19.4082C23.7955 19.0332 24.0057 18.525 24.0057 17.9952C24.0057 17.4653 23.7955 16.9571 23.4212 16.5822Z" fill="currentColor"/>
<path d="M21.007 6.99953L18.717 9.28953C18.6976 9.31585 18.6795 9.34323 18.663 9.37153C18.5017 9.56828 18.4221 9.81952 18.4407 10.0733C18.4594 10.3271 18.5748 10.564 18.7632 10.735C18.9516 10.9061 19.1985 10.9982 19.4529 10.9924C19.7073 10.9865 19.9497 10.8831 20.13 10.7035L21.836 8.99953L23.422 7.41453C23.6902 7.14429 23.8756 6.80313 23.9566 6.43113C24.0375 6.05914 24.0106 5.67177 23.879 5.31453C23.7819 5.04108 23.6255 4.79248 23.421 4.58653L20.13 1.29953C20.0388 1.20034 19.9283 1.12063 19.8055 1.0652C19.6826 1.00977 19.5498 0.979753 19.415 0.97696C19.2802 0.974168 19.1462 0.998656 19.0212 1.04895C18.8961 1.09925 18.7825 1.17431 18.6872 1.26964C18.5918 1.36496 18.5168 1.47858 18.4665 1.60365C18.4162 1.72873 18.3917 1.86268 18.3945 1.99746C18.3973 2.13224 18.4273 2.26506 18.4827 2.38795C18.5382 2.51083 18.6179 2.62124 18.717 2.71253L21.01 5.00453C16.0771 5.01653 13.3731 7.67853 10.9211 10.4785C8.66906 7.93653 6.00007 5.39953 1.48707 5.04553L1.00607 4.99953C0.740856 4.99953 0.486502 5.10489 0.298966 5.29243C0.11143 5.47996 0.006073 5.73432 0.006073 5.99953C0.0111931 6.26315 0.118194 6.51454 0.304631 6.70097C0.491069 6.88741 0.742459 6.99441 1.00607 6.99953C1.07807 6.99953 1.29307 7.03253 1.29307 7.03253C5.18907 7.32753 7.42507 9.52153 9.60006 11.9995C7.43807 14.4655 5.21707 16.6995 1.35307 16.9595L0.953072 16.9805C0.689845 16.997 0.443931 17.1173 0.269429 17.3151C0.0949262 17.5128 0.00612958 17.7718 0.022573 18.035C0.0390164 18.2983 0.159353 18.5442 0.35711 18.7187C0.554867 18.8932 0.813845 18.982 1.07707 18.9655C1.23307 18.9585 1.48707 18.9525 1.61207 18.9425C6.63206 18.5555 9.35506 15.3425 11.7831 12.5335C14.2351 9.69953 16.5511 7.01753 21.007 6.99953Z" fill="currentColor"/>
</g>
<defs>
<clipPath id="clip0_403_3117">
<rect width="24" height="24" fill="white"/>
</clipPath>
</defs>
</svg>
