<svg width="24" height="24" viewBox="0 0 24 24" fill="none" xmlns="http://www.w3.org/2000/svg">
<g clip-path="url(#clip0_403_2847)">
<path d="M17.0001 7.964V7C16.9975 6.38174 16.804 5.77937 16.446 5.2753C16.088 4.77123 15.583 4.39008 15.0001 4.184V2H19.0001C19.2653 2 19.5196 1.89464 19.7072 1.70711C19.8947 1.51957 20.0001 1.26522 20.0001 1C20.0001 0.734784 19.8947 0.48043 19.7072 0.292893C19.5196 0.105357 19.2653 0 19.0001 0L12.0001 0C11.2044 0 10.4414 0.31607 9.87875 0.87868C9.31614 1.44129 9.00007 2.20435 9.00007 3V4.184C8.41716 4.39008 7.91216 4.77123 7.55415 5.2753C7.19615 5.77937 7.00263 6.38174 7.00007 7V7.964C5.49838 8.70167 4.23374 9.84579 3.34987 11.2663C2.466 12.6869 1.99835 14.3269 2.00007 16V18C2.00165 19.5908 2.63431 21.116 3.75918 22.2409C4.88405 23.3658 6.40925 23.9984 8.00007 24H16.0001C17.5909 23.9984 19.1161 23.3658 20.241 22.2409C21.3658 21.116 21.9985 19.5908 22.0001 18V16C22.0018 14.3269 21.5341 12.6869 20.6503 11.2663C19.7664 9.84579 18.5017 8.70167 17.0001 7.964ZM11.0001 3C11.0001 2.73478 11.1054 2.48043 11.293 2.29289C11.4805 2.10536 11.7348 2 12.0001 2H13.0001V4H11.0001V3ZM9.00007 7C9.00007 6.73478 9.10542 6.48043 9.29296 6.29289C9.4805 6.10536 9.73485 6 10.0001 6H14.0001C14.2653 6 14.5196 6.10536 14.7072 6.29289C14.8947 6.48043 15.0001 6.73478 15.0001 7V8H9.00007V7ZM20.0001 18C20.0001 19.0609 19.5786 20.0783 18.8285 20.8284C18.0783 21.5786 17.0609 22 16.0001 22H8.00007C6.9392 22 5.92178 21.5786 5.17164 20.8284C4.42149 20.0783 4.00007 19.0609 4.00007 18V16C3.99688 14.7914 4.30809 13.6028 4.90313 12.5509C5.49817 11.499 6.35658 10.6199 7.39407 10H16.6061C17.6435 10.6199 18.502 11.499 19.097 12.5509C19.692 13.6028 20.0033 14.7914 20.0001 16V18ZM15.0001 14H9.00007C8.20442 14 7.44135 14.3161 6.87875 14.8787C6.31614 15.4413 6.00007 16.2044 6.00007 17C6.00007 17.7956 6.31614 18.5587 6.87875 19.1213C7.44135 19.6839 8.20442 20 9.00007 20H15.0001C15.7957 20 16.5588 19.6839 17.1214 19.1213C17.684 18.5587 18.0001 17.7956 18.0001 17C18.0001 16.2044 17.684 15.4413 17.1214 14.8787C16.5588 14.3161 15.7957 14 15.0001 14ZM15.0001 18H9.00007C8.73485 18 8.4805 17.8946 8.29296 17.7071C8.10542 17.5196 8.00007 17.2652 8.00007 17C8.00007 16.7348 8.10542 16.4804 8.29296 16.2929C8.4805 16.1054 8.73485 16 9.00007 16H15.0001C15.2653 16 15.5196 16.1054 15.7072 16.2929C15.8947 16.4804 16.0001 16.7348 16.0001 17C16.0001 17.2652 15.8947 17.5196 15.7072 17.7071C15.5196 17.8946 15.2653 18 15.0001 18Z" fill="currentColor"/>
</g>
<defs>
<clipPath id="clip0_403_2847">
<rect width="24" height="24" fill="white"/>
</clipPath>
</defs>
</svg>
