<svg width="24" height="24" viewBox="0 0 24 24" fill="none" xmlns="http://www.w3.org/2000/svg">
<g clip-path="url(#clip0_406_1806)">
<path d="M23.7072 22.2931L17.7412 16.3281C19.3648 14.3417 20.1629 11.8073 19.9704 9.24899C19.7778 6.69071 18.6094 4.30429 16.7068 2.58328C14.8042 0.862265 12.3129 -0.0616709 9.74821 0.0025578C7.18351 0.0667865 4.74159 1.11427 2.9275 2.92836C1.11341 4.74244 0.065932 7.18436 0.00170331 9.74907C-0.0625254 12.3138 0.861411 14.8051 2.58242 16.7077C4.30343 18.6103 6.68986 19.7787 9.24813 19.9712C11.8064 20.1638 14.3408 19.3657 16.3272 17.7421L22.2932 23.7071C22.4818 23.8892 22.7344 23.99 22.9966 23.9877C23.2588 23.9855 23.5096 23.8803 23.695 23.6949C23.8804 23.5095 23.9856 23.2587 23.9879 22.9965C23.9902 22.7343 23.8894 22.4817 23.7072 22.2931ZM13.0002 11.0001H7.0002C6.73499 11.0001 6.48063 10.8947 6.2931 10.7072C6.10556 10.5196 6.0002 10.2653 6.0002 10.0001C6.0002 9.73484 6.10556 9.48049 6.2931 9.29295C6.48063 9.10542 6.73499 9.00006 7.0002 9.00006H13.0002C13.2654 9.00006 13.5198 9.10542 13.7073 9.29295C13.8948 9.48049 14.0002 9.73484 14.0002 10.0001C14.0002 10.2653 13.8948 10.5196 13.7073 10.7072C13.5198 10.8947 13.2654 11.0001 13.0002 11.0001Z" fill="currentColor"/>
</g>
<defs>
<clipPath id="clip0_406_1806">
<rect width="24" height="24" fill="white"/>
</clipPath>
</defs>
</svg>
