<svg width="24" height="24" viewBox="0 0 24 24" fill="none" xmlns="http://www.w3.org/2000/svg">
<path d="M17.792 7.21196C17.3476 5.30124 16.2167 3.62041 14.6142 2.48895C13.0116 1.35748 11.0492 0.854279 9.09996 1.07498C7.1507 1.29568 5.35048 2.22489 4.04148 3.686C2.73248 5.14712 2.00596 7.03826 2.00002 8.99996C1.99916 10.2784 2.30796 11.5379 2.90002 12.671C1.82115 13.2491 0.966422 14.1712 0.471641 15.2908C-0.0231397 16.4103 -0.129593 17.6631 0.169193 18.8501C0.46798 20.0371 1.15487 21.0902 2.12073 21.8421C3.08658 22.594 4.27601 23.0015 5.50002 23H16C17.9591 22.9909 19.8468 22.2632 21.3051 20.955C22.7634 19.6468 23.6909 17.8489 23.9119 15.9023C24.1328 13.9557 23.6318 11.9957 22.5038 10.3939C21.3758 8.79209 19.6992 7.65989 17.792 7.21196Z" fill="currentColor"/>
</svg>
