<svg width="24" height="24" viewBox="0 0 24 24" fill="none" xmlns="http://www.w3.org/2000/svg">
<g clip-path="url(#clip0_406_2083)">
<path d="M20.7998 4.29277C20.609 4.12273 20.3604 4.03217 20.105 4.03968C19.8495 4.04719 19.6067 4.15219 19.4262 4.33314C19.2458 4.51409 19.1415 4.75725 19.1347 5.0127C19.1279 5.26814 19.2192 5.5165 19.3898 5.70677C21.056 7.37725 21.9917 9.64036 21.9917 11.9998C21.9917 14.3592 21.056 16.6223 19.3898 18.2928C19.2882 18.3833 19.2062 18.4936 19.1488 18.6169C19.0913 18.7402 19.0596 18.8739 19.0556 19.0099C19.0516 19.1458 19.0754 19.2812 19.1255 19.4077C19.1756 19.5341 19.251 19.649 19.3471 19.7453C19.4431 19.8417 19.5578 19.9174 19.6841 19.9679C19.8105 20.0183 19.9457 20.0425 20.0817 20.0389C20.2177 20.0353 20.3515 20.004 20.475 19.9469C20.5984 19.8898 20.709 19.8081 20.7998 19.7068C22.8409 17.6612 23.9873 14.8895 23.9873 11.9998C23.9873 9.11003 22.8409 6.3383 20.7998 4.29277Z" fill="currentColor"/>
<path d="M18.0931 7.29381C18.0009 7.1983 17.8905 7.12212 17.7685 7.06971C17.6465 7.0173 17.5153 6.98972 17.3825 6.98856C17.2498 6.98741 17.1181 7.01271 16.9952 7.06299C16.8723 7.11327 16.7606 7.18753 16.6667 7.28142C16.5728 7.37531 16.4986 7.48696 16.4483 7.60986C16.398 7.73275 16.3727 7.86443 16.3739 7.99721C16.375 8.12999 16.4026 8.26121 16.455 8.38322C16.5074 8.50522 16.5836 8.61556 16.6791 8.70781C17.5508 9.58207 18.0403 10.7663 18.0403 12.0008C18.0403 13.2354 17.5508 14.4195 16.6791 15.2938C16.5836 15.386 16.5074 15.4964 16.455 15.6184C16.4026 15.7404 16.375 15.8716 16.3739 16.0044C16.3727 16.1372 16.398 16.2689 16.4483 16.3918C16.4986 16.5146 16.5728 16.6263 16.6667 16.7202C16.7606 16.8141 16.8723 16.8883 16.9952 16.9386C17.1181 16.9889 17.2498 17.0142 17.3825 17.0131C17.5153 17.0119 17.6465 16.9843 17.7685 16.9319C17.8905 16.8795 18.0009 16.8033 18.0931 16.7078C19.3395 15.4584 20.0394 13.7656 20.0394 12.0008C20.0394 10.236 19.3395 8.54326 18.0931 7.29381Z" fill="currentColor"/>
<path d="M13.819 0.206214C10.7805 0.776539 8.0773 2.49242 6.268 4.99921H5C3.67441 5.0008 2.40356 5.5281 1.46622 6.46543C0.528882 7.40277 0.00158786 8.67362 0 9.99921L0 13.9992C0.00158786 15.3248 0.528882 16.5957 1.46622 17.533C2.40356 18.4703 3.67441 18.9976 5 18.9992H6.269C8.07777 21.5061 10.7807 23.222 13.819 23.7922C13.9632 23.8188 14.1115 23.8133 14.2533 23.7761C14.3951 23.739 14.5271 23.6711 14.6397 23.5773C14.7524 23.4835 14.8431 23.3661 14.9054 23.2334C14.9676 23.1006 14.9999 22.9558 15 22.8092V1.18921C14.9999 1.0426 14.9676 0.897797 14.9054 0.765059C14.8431 0.632321 14.7524 0.514896 14.6397 0.421103C14.5271 0.327309 14.3951 0.259441 14.2533 0.222306C14.1115 0.185171 13.9632 0.179677 13.819 0.206214Z" fill="currentColor"/>
</g>
<defs>
<clipPath id="clip0_406_2083">
<rect width="24" height="24" fill="white"/>
</clipPath>
</defs>
</svg>
