<svg width="24" height="24" viewBox="0 0 24 24" fill="none" xmlns="http://www.w3.org/2000/svg">
<g clip-path="url(#clip0_403_2834)">
<path d="M23.9669 10.4164C23.6652 8.19371 22.7486 6.09946 21.3203 4.36979C19.8921 2.64013 18.0091 1.34384 15.8836 0.627073C13.758 -0.0896919 11.4746 -0.19843 9.29055 0.31312C7.10654 0.824669 5.10887 1.93616 3.52274 3.52229C1.93662 5.10841 0.825126 7.10609 0.313577 9.2901C-0.197972 11.4741 -0.0892342 13.7576 0.627531 15.8831C1.3443 18.0086 2.64058 19.8916 4.37025 21.3199C6.09991 22.7481 8.19417 23.6647 10.4169 23.9664C10.579 23.9876 10.7424 23.9983 10.9059 23.9984C11.9606 23.9897 12.969 23.5641 13.7109 22.8144L22.8109 13.7144C23.2429 13.2897 23.5718 12.7715 23.7722 12.1998C23.9726 11.628 24.0392 11.018 23.9669 10.4164ZM2.06691 10.8904C2.33586 8.51717 3.44258 6.31768 5.18811 4.68736C6.93363 3.05705 9.20346 2.10286 11.5895 1.99633C13.9756 1.8898 16.3215 2.63792 18.2053 4.10619C20.0892 5.57446 21.3875 7.66658 21.8669 10.0064C18.7346 10.0443 15.7411 11.3049 13.5253 13.5192C11.3095 15.7335 10.0469 18.7261 10.0069 21.8584C7.5471 21.3624 5.36412 19.9587 3.89218 17.9264C2.42024 15.8941 1.76718 13.3823 2.06291 10.8904H2.06691ZM12.2999 21.3994C12.2137 21.4821 12.1207 21.5574 12.0219 21.6244C12.119 19.1077 13.1622 16.7203 14.943 14.9393C16.7239 13.1583 19.1112 12.1148 21.6279 12.0174C21.5615 12.1168 21.4866 12.2102 21.4039 12.2964L12.2999 21.3994Z" fill="currentColor"/>
</g>
<defs>
<clipPath id="clip0_403_2834">
<rect width="24" height="24" fill="white"/>
</clipPath>
</defs>
</svg>
