<svg width="24" height="24" viewBox="0 0 24 24" fill="none" xmlns="http://www.w3.org/2000/svg">
<g clip-path="url(#clip0_403_3053)">
<path d="M-7.57165e-07 12C-7.57165e-07 11.7348 0.105356 11.4804 0.292892 11.2929C0.480429 11.1054 0.734783 11 0.999999 11H5.079C5.15805 10.451 5.3038 9.9137 5.513 9.4L1.982 7.349C1.86412 7.28557 1.76018 7.19911 1.67634 7.09476C1.5925 6.99041 1.53046 6.87029 1.4939 6.74152C1.45734 6.61275 1.44701 6.47794 1.46351 6.34511C1.48002 6.21227 1.52303 6.08409 1.58999 5.96818C1.65695 5.85228 1.7465 5.75099 1.85333 5.67033C1.96016 5.58967 2.0821 5.53129 2.21192 5.49863C2.34173 5.46597 2.47678 5.45971 2.60906 5.48021C2.74134 5.50072 2.86816 5.54757 2.982 5.618L6.517 7.666C6.85551 7.24148 7.24171 6.85729 7.668 6.521L5.618 2.984C5.49479 2.75505 5.4656 2.48712 5.5366 2.23701C5.60761 1.9869 5.77323 1.77428 5.99836 1.64422C6.22349 1.51417 6.49042 1.4769 6.74255 1.54033C6.99469 1.60376 7.21221 1.7629 7.349 1.984L9.4 5.513C9.91399 5.3049 10.4512 5.15952 11 5.08V1C11 0.734784 11.1054 0.48043 11.2929 0.292893C11.4804 0.105357 11.7348 0 12 0C12.2652 0 12.5196 0.105357 12.7071 0.292893C12.8946 0.48043 13 0.734784 13 1V5.08C13.5488 5.15952 14.086 5.3049 14.6 5.513L16.647 1.981C16.7838 1.7599 17.0013 1.60076 17.2534 1.53733C17.5056 1.4739 17.7725 1.51117 17.9976 1.64122C18.2228 1.77128 18.3884 1.9839 18.4594 2.23401C18.5304 2.48412 18.5012 2.75205 18.378 2.981L16.328 6.517C16.7541 6.85345 17.1406 7.23725 17.48 7.661L21.011 5.614C21.2399 5.49079 21.5079 5.4616 21.758 5.5326C22.0081 5.60361 22.2207 5.76923 22.3508 5.99436C22.4808 6.21949 22.5181 6.48642 22.4547 6.73855C22.3912 6.99069 22.2321 7.20821 22.011 7.345L18.49 9.394C18.7015 9.91227 18.8496 10.4542 18.931 11.008L23 11C23.2652 11 23.5196 11.1054 23.7071 11.2929C23.8946 11.4804 24 11.7348 24 12C24 12.2652 23.8946 12.5196 23.7071 12.7071C23.5196 12.8946 23.2652 13 23 13H18.922C18.4428 12.9983 17.9802 12.8247 17.6183 12.5107C17.2564 12.1966 17.0192 11.7631 16.95 11.289C16.767 10.1075 16.1675 9.03033 15.2596 8.25227C14.3518 7.47421 13.1956 7.04654 12 7.04654C10.8044 7.04654 9.64818 7.47421 8.74036 8.25227C7.83254 9.03033 7.23297 10.1075 7.05 11.289C6.98079 11.763 6.74378 12.1963 6.38207 12.5103C6.02036 12.8243 5.55798 12.9981 5.079 13H0.999999C0.734783 13 0.480429 12.8946 0.292892 12.7071C0.105356 12.5196 -7.57165e-07 12.2652 -7.57165e-07 12ZM23.744 16.565C23.5668 16.3677 23.3185 16.2489 23.0537 16.2346C22.7889 16.2204 22.5293 16.3119 22.332 16.489C22.0685 16.6997 21.7604 16.8474 21.4311 16.9208C21.1018 16.9942 20.7601 16.9914 20.4321 16.9125C20.104 16.8337 19.7984 16.681 19.5384 16.466C19.2784 16.251 19.071 15.9794 18.932 15.672C18.8853 15.5308 18.8069 15.402 18.703 15.2956C18.599 15.1892 18.4721 15.108 18.332 15.058C18.0822 14.9699 17.8076 14.9846 17.5685 15.0988C17.3295 15.2129 17.1455 15.4173 17.057 15.667C16.8716 16.0573 16.5794 16.387 16.2143 16.618C15.8492 16.8491 15.4261 16.972 14.9941 16.9725C14.562 16.973 14.1386 16.8512 13.773 16.621C13.4073 16.3908 13.1144 16.0618 12.928 15.672C12.8811 15.5307 12.8028 15.4019 12.6988 15.2954C12.5949 15.1889 12.4681 15.1073 12.328 15.057C12.2042 15.0133 12.0729 14.9943 11.9418 15.0013C11.8106 15.0083 11.6821 15.0411 11.5637 15.0977C11.4452 15.1544 11.339 15.2338 11.2512 15.3315C11.1634 15.4291 11.0957 15.5432 11.052 15.667C10.8665 16.057 10.5743 16.3865 10.2093 16.6173C9.84433 16.8482 9.42144 16.971 8.98958 16.9715C8.55771 16.972 8.13452 16.8502 7.76898 16.6203C7.40344 16.3903 7.11048 16.0615 6.924 15.672C6.87714 15.5307 6.79877 15.4019 6.69483 15.2954C6.59088 15.1889 6.46408 15.1073 6.324 15.057C6.20016 15.0133 6.06892 14.9943 5.93778 15.0013C5.80663 15.0083 5.67814 15.0411 5.55965 15.0977C5.44116 15.1544 5.33499 15.2338 5.2472 15.3315C5.15941 15.4291 5.09172 15.5432 5.048 15.667C4.91126 15.975 4.7056 16.2474 4.44689 16.4633C4.18818 16.6792 3.88332 16.8328 3.55585 16.9123C3.22838 16.9917 2.88703 16.9948 2.55815 16.9214C2.22927 16.8481 1.92164 16.7001 1.659 16.489C1.45865 16.3355 1.20767 16.2634 0.956405 16.2873C0.705139 16.3111 0.472175 16.429 0.304251 16.6175C0.136327 16.8059 0.0458634 17.0508 0.0510099 17.3032C0.0561564 17.5555 0.156532 17.7966 0.331999 17.978C1.12986 18.663 2.15689 19.0216 3.20774 18.9821C4.25858 18.9426 5.2558 18.508 6 17.765C6.80446 18.5438 7.88029 18.9793 9 18.9793C10.1197 18.9793 11.1955 18.5438 12 17.765C12.8043 18.5441 13.8802 18.9797 15 18.9797C16.1198 18.9797 17.1957 18.5441 18 17.765C18.7441 18.5081 19.7412 18.943 20.7921 18.9826C21.8429 19.0223 22.87 18.6639 23.668 17.979C23.766 17.8912 23.8457 17.785 23.9026 17.6664C23.9594 17.5478 23.9923 17.4191 23.9994 17.2878C24.0064 17.1564 23.9875 17.025 23.9437 16.9009C23.8999 16.7769 23.832 16.6628 23.744 16.565ZM23.744 21.565C23.5668 21.3677 23.3185 21.2489 23.0537 21.2346C22.7889 21.2204 22.5293 21.3119 22.332 21.489C22.0685 21.6997 21.7604 21.8474 21.4311 21.9208C21.1018 21.9942 20.7601 21.9914 20.4321 21.9125C20.104 21.8337 19.7984 21.681 19.5384 21.466C19.2784 21.251 19.071 20.9794 18.932 20.672C18.8853 20.5308 18.8069 20.402 18.703 20.2956C18.599 20.1892 18.4721 20.108 18.332 20.058C18.0822 19.9699 17.8076 19.9846 17.5685 20.0988C17.3295 20.2129 17.1455 20.4173 17.057 20.667C16.8711 21.057 16.5785 21.3864 16.2132 21.617C15.8478 21.8476 15.4246 21.97 14.9925 21.97C14.5604 21.97 14.1372 21.8476 13.7718 21.617C13.4065 21.3864 13.1139 21.057 12.928 20.667C12.8811 20.5257 12.8028 20.3969 12.6988 20.2904C12.5949 20.1839 12.4681 20.1023 12.328 20.052C12.2042 20.0083 12.0729 19.9893 11.9418 19.9963C11.8106 20.0033 11.6821 20.0361 11.5637 20.0927C11.4452 20.1494 11.339 20.2288 11.2512 20.3265C11.1634 20.4241 11.0957 20.5382 11.052 20.662C10.866 21.0518 10.5734 21.3809 10.2082 21.6113C9.8429 21.8417 9.41986 21.964 8.988 21.964C8.55613 21.964 8.1331 21.8417 7.76783 21.6113C7.40257 21.3809 7.11001 21.0518 6.924 20.662C6.87714 20.5207 6.79877 20.3919 6.69483 20.2854C6.59088 20.1789 6.46408 20.0973 6.324 20.047C6.20016 20.0033 6.06892 19.9843 5.93778 19.9913C5.80663 19.9983 5.67814 20.0311 5.55965 20.0877C5.44116 20.1444 5.33499 20.2238 5.2472 20.3215C5.15941 20.4191 5.09172 20.5332 5.048 20.657C4.91126 20.965 4.7056 21.2374 4.44689 21.4533C4.18818 21.6692 3.88332 21.8228 3.55585 21.9023C3.22838 21.9817 2.88703 21.9848 2.55815 21.9114C2.22927 21.8381 1.92164 21.6901 1.659 21.479C1.46022 21.303 1.19968 21.2132 0.934688 21.2294C0.669699 21.2455 0.42197 21.3662 0.245999 21.565C0.0700281 21.7638 -0.0197708 22.0243 -0.00364264 22.2893C0.0124855 22.5543 0.133219 22.802 0.331999 22.978C1.12986 23.663 2.15689 24.0216 3.20774 23.9821C4.25858 23.9426 5.2558 23.508 6 22.765C6.80446 23.5438 7.88029 23.9793 9 23.9793C10.1197 23.9793 11.1955 23.5438 12 22.765C12.8043 23.5441 13.8802 23.9797 15 23.9797C16.1198 23.9797 17.1957 23.5441 18 22.765C18.7441 23.5081 19.7412 23.943 20.7921 23.9826C21.8429 24.0223 22.87 23.6639 23.668 22.979C23.766 22.8912 23.8457 22.785 23.9026 22.6664C23.9594 22.5478 23.9923 22.4191 23.9994 22.2878C24.0064 22.1564 23.9875 22.025 23.9437 21.9009C23.8999 21.7769 23.832 21.6628 23.744 21.565Z" fill="currentColor"/>
</g>
<defs>
<clipPath id="clip0_403_3053">
<rect width="24" height="24" fill="white"/>
</clipPath>
</defs>
</svg>
