<svg width="24" height="24" viewBox="0 0 24 24" fill="none" xmlns="http://www.w3.org/2000/svg">
<g clip-path="url(#clip0_406_1861)">
<path d="M0 12C0 11.7348 0.105357 11.4804 0.292893 11.2929C0.48043 11.1054 0.734784 11 1 11H5.071C5.15059 10.4482 5.2963 9.90798 5.505 9.391L1.982 7.349C1.86412 7.28557 1.76018 7.19911 1.67634 7.09476C1.5925 6.99041 1.53046 6.87029 1.4939 6.74152C1.45734 6.61275 1.44701 6.47794 1.46351 6.34511C1.48002 6.21227 1.52303 6.08409 1.58999 5.96818C1.65695 5.85228 1.7465 5.75099 1.85333 5.67033C1.96016 5.58967 2.0821 5.53129 2.21192 5.49863C2.34173 5.46597 2.47678 5.45971 2.60907 5.48021C2.74135 5.50072 2.86816 5.54757 2.982 5.618L6.51 7.662C6.84821 7.23479 7.23479 6.84821 7.662 6.51L5.618 2.984C5.49479 2.75505 5.4656 2.48712 5.5366 2.23701C5.60761 1.9869 5.77323 1.77428 5.99836 1.64422C6.22349 1.51417 6.49042 1.4769 6.74255 1.54033C6.99469 1.60376 7.21221 1.7629 7.349 1.984L9.39 5.505C9.90728 5.29618 10.4478 5.15046 11 5.071V1C11 0.734784 11.1054 0.48043 11.2929 0.292893C11.4804 0.105357 11.7348 0 12 0C12.2652 0 12.5196 0.105357 12.7071 0.292893C12.8946 0.48043 13 0.734784 13 1V5.071C13.5518 5.15059 14.092 5.2963 14.609 5.505L16.651 1.981C16.7878 1.7599 17.0053 1.60076 17.2574 1.53733C17.5096 1.4739 17.7765 1.51117 18.0016 1.64122C18.2268 1.77128 18.3924 1.9839 18.4634 2.23401C18.5344 2.48412 18.5052 2.75205 18.382 2.981L16.338 6.51C16.7652 6.84821 17.1518 7.23479 17.49 7.662L21.015 5.618C21.2439 5.49479 21.5119 5.4656 21.762 5.5366C22.0121 5.60761 22.2247 5.77323 22.3548 5.99836C22.4848 6.22349 22.5221 6.49042 22.4587 6.74255C22.3952 6.99469 22.2361 7.21221 22.015 7.349L18.5 9.391C18.707 9.9082 18.851 10.4484 18.929 11H23C23.2652 11 23.5196 11.1054 23.7071 11.2929C23.8946 11.4804 24 11.7348 24 12C24 12.2652 23.8946 12.5196 23.7071 12.7071C23.5196 12.8946 23.2652 13 23 13H1C0.734784 13 0.48043 12.8946 0.292893 12.7071C0.105357 12.5196 0 12.2652 0 12ZM22.332 21.489C22.0701 21.6997 21.7635 21.8475 21.4356 21.9212C21.1077 21.9949 20.7673 21.9926 20.4405 21.9143C20.1136 21.8359 19.8091 21.6838 19.5502 21.4695C19.2913 21.2552 19.085 20.9844 18.947 20.678C18.8799 20.4815 18.7533 20.3107 18.5848 20.1893C18.4162 20.068 18.2141 20.0022 18.0064 20.001C17.7987 19.9998 17.5958 20.0632 17.4259 20.1826C17.2559 20.3019 17.1274 20.4712 17.058 20.667C16.874 21.0571 16.5828 21.3868 16.2185 21.6177C15.8542 21.8487 15.4318 21.9713 15.0005 21.9713C14.5692 21.9713 14.1468 21.8487 13.7825 21.6177C13.4182 21.3868 13.127 21.0571 12.943 20.667C12.8739 20.4722 12.7462 20.3037 12.5775 20.1844C12.4087 20.0652 12.2071 20.0012 12.0005 20.0012C11.7939 20.0012 11.5923 20.0652 11.4235 20.1844C11.2548 20.3037 11.1271 20.4722 11.058 20.667C10.8741 21.0571 10.5831 21.3869 10.2189 21.6179C9.85468 21.8489 9.43229 21.9716 9.001 21.9716C8.56971 21.9716 8.14732 21.8489 7.7831 21.6179C7.41889 21.3869 7.12787 21.0571 6.944 20.667C6.87494 20.4722 6.74725 20.3037 6.57847 20.1844C6.4097 20.0652 6.20814 20.0012 6.0015 20.0012C5.79486 20.0012 5.5933 20.0652 5.42453 20.1844C5.25575 20.3037 5.12806 20.4722 5.059 20.667C4.92226 20.975 4.7166 21.2474 4.45789 21.4633C4.19918 21.6792 3.89432 21.8328 3.56685 21.9123C3.23938 21.9917 2.89803 21.9948 2.56915 21.9214C2.24027 21.8481 1.93264 21.7001 1.67 21.489C1.57223 21.4011 1.45812 21.3334 1.33417 21.2897C1.21022 21.2459 1.07887 21.227 0.947614 21.234C0.816358 21.241 0.687768 21.2738 0.569187 21.3305C0.450606 21.3872 0.344354 21.4667 0.2565 21.5645C0.168646 21.6623 0.100909 21.7764 0.0571565 21.9003C0.0134043 22.0243 -0.00550626 22.1556 0.00150457 22.2869C0.00851539 22.4181 0.0413103 22.5467 0.0980168 22.6653C0.154723 22.7839 0.234231 22.8901 0.332 22.978C1.12986 23.6618 2.15574 24.0204 3.20583 23.9826C4.25592 23.9448 5.25336 23.5134 6 22.774C6.80697 23.548 7.88185 23.9801 9 23.9801C10.1181 23.9801 11.193 23.548 12 22.774C12.807 23.548 13.8819 23.9801 15 23.9801C16.1181 23.9801 17.193 23.548 18 22.774C18.7472 23.5128 19.7449 23.9435 20.795 23.9805C21.845 24.0176 22.8706 23.6583 23.668 22.974C23.8655 22.7968 23.9844 22.5485 23.9988 22.2836C24.0131 22.0187 23.9217 21.759 23.7445 21.5615C23.5673 21.364 23.319 21.2451 23.0541 21.2307C22.7892 21.2164 22.5295 21.3078 22.332 21.485V21.489ZM22.332 16.489C22.0701 16.6997 21.7635 16.8475 21.4356 16.9212C21.1077 16.9949 20.7673 16.9926 20.4405 16.9143C20.1136 16.8359 19.8091 16.6838 19.5502 16.4695C19.2913 16.2552 19.085 15.9844 18.947 15.678C18.8799 15.4815 18.7533 15.3107 18.5848 15.1893C18.4162 15.068 18.2141 15.0022 18.0064 15.001C17.7987 14.9998 17.5958 15.0632 17.4259 15.1826C17.2559 15.3019 17.1274 15.4712 17.058 15.667C16.874 16.0571 16.5828 16.3868 16.2185 16.6177C15.8542 16.8487 15.4318 16.9713 15.0005 16.9713C14.5692 16.9713 14.1468 16.8487 13.7825 16.6177C13.4182 16.3868 13.127 16.0571 12.943 15.667C12.8739 15.4722 12.7462 15.3037 12.5775 15.1844C12.4087 15.0652 12.2071 15.0012 12.0005 15.0012C11.7939 15.0012 11.5923 15.0652 11.4235 15.1844C11.2548 15.3037 11.1271 15.4722 11.058 15.667C10.8741 16.0571 10.5831 16.3869 10.2189 16.6179C9.85468 16.8489 9.43229 16.9716 9.001 16.9716C8.56971 16.9716 8.14732 16.8489 7.7831 16.6179C7.41889 16.3869 7.12787 16.0571 6.944 15.667C6.87494 15.4722 6.74725 15.3037 6.57847 15.1844C6.4097 15.0652 6.20814 15.0012 6.0015 15.0012C5.79486 15.0012 5.5933 15.0652 5.42453 15.1844C5.25575 15.3037 5.12806 15.4722 5.059 15.667C4.92226 15.975 4.7166 16.2474 4.45789 16.4633C4.19918 16.6792 3.89432 16.8328 3.56685 16.9123C3.23938 16.9917 2.89803 16.9948 2.56915 16.9214C2.24027 16.8481 1.93264 16.7001 1.67 16.489C1.57223 16.4011 1.45812 16.3334 1.33417 16.2897C1.21022 16.2459 1.07887 16.227 0.947614 16.234C0.816358 16.241 0.687768 16.2738 0.569187 16.3305C0.450606 16.3872 0.344354 16.4667 0.2565 16.5645C0.168646 16.6623 0.100909 16.7764 0.0571565 16.9003C0.0134043 17.0243 -0.00550626 17.1556 0.00150457 17.2869C0.00851539 17.4181 0.0413103 17.5467 0.0980168 17.6653C0.154723 17.7839 0.234231 17.8901 0.332 17.978C1.12986 18.6618 2.15574 19.0204 3.20583 18.9826C4.25592 18.9448 5.25336 18.5134 6 17.774C6.80697 18.548 7.88185 18.9801 9 18.9801C10.1181 18.9801 11.193 18.548 12 17.774C12.807 18.548 13.8819 18.9801 15 18.9801C16.1181 18.9801 17.193 18.548 18 17.774C18.7472 18.5128 19.7449 18.9435 20.795 18.9805C21.845 19.0176 22.8706 18.6583 23.668 17.974C23.8655 17.7968 23.9844 17.5485 23.9988 17.2836C24.0131 17.0187 23.9217 16.759 23.7445 16.5615C23.5673 16.364 23.319 16.2451 23.0541 16.2307C22.7892 16.2164 22.5295 16.3078 22.332 16.485V16.489Z" fill="currentColor"/>
</g>
<defs>
<clipPath id="clip0_406_1861">
<rect width="24" height="24" fill="white"/>
</clipPath>
</defs>
</svg>
