<svg width="24" height="24" viewBox="0 0 24 24" fill="none" xmlns="http://www.w3.org/2000/svg">
<g clip-path="url(#clip0_406_1857)">
<path d="M13.0001 19.9994C13.0001 20.2646 12.8948 20.519 12.7072 20.7065C12.5197 20.894 12.2653 20.9994 12.0001 20.9994C11.7349 20.9994 11.4806 20.894 11.293 20.7065C11.1055 20.519 11.0001 20.2646 11.0001 19.9994V18.9994H2.00012C2.00171 20.325 2.529 21.5958 3.46634 22.5332C4.40368 23.4705 5.67453 23.9978 7.00012 23.9994H17.0001C18.3257 23.9978 19.5966 23.4705 20.5339 22.5332C21.4712 21.5958 21.9985 20.325 22.0001 18.9994H13.0001V19.9994Z" fill="currentColor"/>
<path d="M17.0001 0H7.00012C5.67453 0.00158786 4.40368 0.528882 3.46634 1.46622C2.529 2.40356 2.00171 3.67441 2.00012 5V17H22.0001V5C21.9985 3.67441 21.4712 2.40356 20.5339 1.46622C19.5966 0.528882 18.3257 0.00158786 17.0001 0V0Z" fill="currentColor"/>
</g>
<defs>
<clipPath id="clip0_406_1857">
<rect width="24" height="24" fill="white"/>
</clipPath>
</defs>
</svg>
