<svg width="24" height="24" viewBox="0 0 24 24" fill="none" xmlns="http://www.w3.org/2000/svg">
<g clip-path="url(#clip0_406_1856)">
<path d="M21.0001 13.0001C20.7349 13.0001 20.4805 12.8947 20.293 12.7072C20.1054 12.5197 20.0001 12.2653 20.0001 12.0001C20.0001 11.7349 20.1054 11.4805 20.293 11.293C20.4805 11.1054 20.7349 11.0001 21.0001 11.0001H23.9491C23.7097 8.17643 22.4793 5.52845 20.4755 3.52466C18.4717 1.52087 15.8237 0.290444 13.0001 0.0510864V3.03909C13.0001 3.3043 12.8947 3.55866 12.7072 3.74619C12.5197 3.93373 12.2653 4.03909 12.0001 4.03909C11.7349 4.03909 11.4805 3.93373 11.293 3.74619C11.1054 3.55866 11.0001 3.3043 11.0001 3.03909V0.0510864C8.17643 0.290444 5.52845 1.52087 3.52466 3.52466C1.52087 5.52845 0.290444 8.17643 0.0510864 11.0001H3.00009C3.2653 11.0001 3.51966 11.1054 3.70719 11.293C3.89473 11.4805 4.00009 11.7349 4.00009 12.0001C4.00009 12.2653 3.89473 12.5197 3.70719 12.7072C3.51966 12.8947 3.2653 13.0001 3.00009 13.0001H0.0510864C0.290444 15.8237 1.52087 18.4717 3.52466 20.4755C5.52845 22.4793 8.17643 23.7097 11.0001 23.9491V21.0001C11.0001 20.7349 11.1054 20.4805 11.293 20.293C11.4805 20.1054 11.7349 20.0001 12.0001 20.0001C12.2653 20.0001 12.5197 20.1054 12.7072 20.293C12.8947 20.4805 13.0001 20.7349 13.0001 21.0001V23.9491C15.8237 23.7097 18.4717 22.4793 20.4755 20.4755C22.4793 18.4717 23.7097 15.8237 23.9491 13.0001H21.0001ZM15.0001 13.0001H13.0001V15.0001C13.0001 15.2653 12.8947 15.5197 12.7072 15.7072C12.5197 15.8947 12.2653 16.0001 12.0001 16.0001C11.7349 16.0001 11.4805 15.8947 11.293 15.7072C11.1054 15.5197 11.0001 15.2653 11.0001 15.0001V13.0001H9.00009C8.73487 13.0001 8.48052 12.8947 8.29298 12.7072C8.10544 12.5197 8.00009 12.2653 8.00009 12.0001C8.00009 11.7349 8.10544 11.4805 8.29298 11.293C8.48052 11.1054 8.73487 11.0001 9.00009 11.0001H11.0001V9.00009C11.0001 8.73487 11.1054 8.48052 11.293 8.29298C11.4805 8.10544 11.7349 8.00009 12.0001 8.00009C12.2653 8.00009 12.5197 8.10544 12.7072 8.29298C12.8947 8.48052 13.0001 8.73487 13.0001 9.00009V11.0001H15.0001C15.2653 11.0001 15.5197 11.1054 15.7072 11.293C15.8947 11.4805 16.0001 11.7349 16.0001 12.0001C16.0001 12.2653 15.8947 12.5197 15.7072 12.7072C15.5197 12.8947 15.2653 13.0001 15.0001 13.0001Z" fill="currentColor"/>
</g>
<defs>
<clipPath id="clip0_406_1856">
<rect width="24" height="24" fill="white"/>
</clipPath>
</defs>
</svg>
