<svg width="24" height="24" viewBox="0 0 24 24" fill="none" xmlns="http://www.w3.org/2000/svg">
<g clip-path="url(#clip0_406_1848)">
<path d="M18.9998 17.0005C19.0014 18.149 18.7204 19.2803 18.1816 20.2946C17.6427 21.3089 16.8625 22.1751 15.9099 22.8166C14.9572 23.4582 13.8613 23.8554 12.7188 23.9734C11.5763 24.0914 10.4224 23.9264 9.35869 23.4931C8.29502 23.0597 7.35433 22.3713 6.61957 21.4885C5.88482 20.6057 5.37857 19.5557 5.14548 18.431C4.91239 17.3064 4.95962 16.1416 5.283 15.0396C5.60639 13.9375 6.19599 12.9319 6.99981 12.1115V5.00049C7.21081 -1.6085 16.7908 -1.5995 16.9998 5.00049V12.1115C18.2787 13.4178 18.9965 15.1723 18.9998 17.0005ZM14.9998 17.0005C14.9997 16.3802 14.8073 15.7751 14.4492 15.2687C14.091 14.7622 13.5846 14.3792 12.9998 14.1725V8.00049C12.9998 7.73527 12.8945 7.48092 12.7069 7.29338C12.5194 7.10584 12.265 7.00049 11.9998 7.00049C11.7346 7.00049 11.4802 7.10584 11.2927 7.29338C11.1052 7.48092 10.9998 7.73527 10.9998 8.00049V14.1725C10.4813 14.3558 10.0231 14.6782 9.67536 15.1043C9.32765 15.5305 9.10379 16.0441 9.02824 16.5889C8.9527 17.1337 9.02838 17.6887 9.24702 18.1934C9.46565 18.6981 9.81883 19.133 10.2679 19.4505C10.717 19.768 11.2448 19.956 11.7935 19.9938C12.3422 20.0316 12.8908 19.9179 13.3792 19.665C13.8676 19.4121 14.2771 19.0298 14.5629 18.5599C14.8488 18.0899 14.9999 17.5505 14.9998 17.0005Z" fill="currentColor"/>
</g>
<defs>
<clipPath id="clip0_406_1848">
<rect width="24" height="24" fill="white"/>
</clipPath>
</defs>
</svg>
