<svg width="24" height="24" viewBox="0 0 24 24" fill="none" xmlns="http://www.w3.org/2000/svg">
<g clip-path="url(#clip0_403_3044)">
<path d="M23.7068 16.3241C23.5193 16.1366 23.265 16.0313 22.9998 16.0313C22.7347 16.0313 22.4804 16.1366 22.2928 16.3241L16.6658 21.9521L13.9778 19.2991C13.7922 19.1088 13.5385 19.0001 13.2727 18.9968C13.0069 18.9935 12.7506 19.0959 12.5603 19.2816C12.37 19.4672 12.2613 19.7209 12.258 19.9867C12.2547 20.2526 12.3572 20.5088 12.5428 20.6991L15.2868 23.3991C15.459 23.5847 15.6668 23.7335 15.898 23.8366C16.1291 23.9397 16.3788 23.995 16.6318 23.9991H16.6648C16.9129 23.9999 17.1586 23.9515 17.3878 23.8565C17.617 23.7616 17.825 23.6221 17.9998 23.4461L23.7068 17.7381C23.8943 17.5506 23.9996 17.2963 23.9996 17.0311C23.9996 16.7659 23.8943 16.5116 23.7068 16.3241Z" fill="currentColor"/>
<path d="M11.09 21.9582C9.15904 21.7817 7.32103 21.0477 5.79973 19.8454C4.27842 18.6432 3.13945 17.0246 2.52147 15.1867C1.9035 13.3488 1.83317 11.3709 2.31906 9.49379C2.80494 7.61665 3.82608 5.92126 5.25816 4.61402C6.69024 3.30677 8.47147 2.44406 10.385 2.13092C12.2986 1.81777 14.2619 2.0677 16.036 2.85027C17.81 3.63285 19.3183 4.91431 20.3772 6.53865C21.4361 8.163 21.9999 10.0602 22 11.9992C22 12.3062 21.985 12.6102 21.959 12.9102C21.9468 13.0413 21.9605 13.1735 21.9995 13.2993C22.0385 13.4251 22.102 13.5419 22.1863 13.6431C22.2706 13.7443 22.374 13.8278 22.4906 13.8889C22.6073 13.95 22.7348 13.9875 22.866 13.9992C22.9971 14.0123 23.1295 13.9992 23.2554 13.9605C23.3813 13.9219 23.4982 13.8584 23.5993 13.7739C23.7004 13.6894 23.7836 13.5856 23.844 13.4685C23.9043 13.3514 23.9407 13.2235 23.951 13.0922C23.983 12.7292 24 12.3662 24 11.9992C23.9999 9.67227 23.3233 7.3956 22.0525 5.44635C20.7817 3.49709 18.9717 1.95934 16.8427 1.02031C14.7137 0.0812752 12.3576 -0.218524 10.0613 0.157409C7.76496 0.533342 5.62746 1.56879 3.90904 3.13769C2.19062 4.70658 0.965399 6.74125 0.382551 8.99396C-0.200297 11.2467 -0.115628 13.6202 0.62625 15.8257C1.36813 18.0312 2.73521 19.9733 4.56105 21.4158C6.38689 22.8583 8.59273 23.7388 10.91 23.9502H11.001C11.2662 23.962 11.5253 23.8679 11.7211 23.6887C11.917 23.5095 12.0337 23.2599 12.0455 22.9947C12.0573 22.7294 11.9633 22.4704 11.7841 22.2745C11.6049 22.0786 11.3552 21.962 11.09 21.9502V21.9582Z" fill="currentColor"/>
<path d="M11.0002 7V11.586L8.2932 14.293C8.19769 14.3852 8.12151 14.4956 8.0691 14.6176C8.01669 14.7396 7.98911 14.8708 7.98795 15.0036C7.9868 15.1364 8.0121 15.268 8.06238 15.3909C8.11266 15.5138 8.18692 15.6255 8.28081 15.7194C8.3747 15.8133 8.48635 15.8875 8.60925 15.9378C8.73214 15.9881 8.86382 16.0134 8.9966 16.0122C9.12938 16.0111 9.2606 15.9835 9.3826 15.9311C9.50461 15.8787 9.61495 15.8025 9.7072 15.707L12.7072 12.707C12.8947 12.5195 13.0001 12.2652 13.0002 12V7C13.0002 6.73478 12.8948 6.48043 12.7073 6.29289C12.5198 6.10536 12.2654 6 12.0002 6C11.735 6 11.4806 6.10536 11.2931 6.29289C11.1056 6.48043 11.0002 6.73478 11.0002 7Z" fill="currentColor"/>
</g>
<defs>
<clipPath id="clip0_403_3044">
<rect width="24" height="24" fill="white"/>
</clipPath>
</defs>
</svg>
