<svg width="24" height="24" viewBox="0 0 24 24" fill="none" xmlns="http://www.w3.org/2000/svg">
<g clip-path="url(#clip0_403_3162)">
<path d="M21 15C20.2044 15 19.4413 15.3161 18.8787 15.8787C18.3161 16.4413 18 17.2044 18 18V21C18 21.7956 18.3161 22.5587 18.8787 23.1213C19.4413 23.6839 20.2044 24 21 24C21.7956 24 22.5587 23.6839 23.1213 23.1213C23.6839 22.5587 24 21.7956 24 21V18C24 17.2044 23.6839 16.4413 23.1213 15.8787C22.5587 15.3161 21.7956 15 21 15ZM22 21C22 21.2652 21.8946 21.5196 21.7071 21.7071C21.5196 21.8946 21.2652 22 21 22C20.7348 22 20.4804 21.8946 20.2929 21.7071C20.1054 21.5196 20 21.2652 20 21V18C20 17.7348 20.1054 17.4804 20.2929 17.2929C20.4804 17.1054 20.7348 17 21 17C21.2652 17 21.5196 17.1054 21.7071 17.2929C21.8946 17.4804 22 17.7348 22 18V21Z" fill="currentColor"/>
<path d="M12.9998 12V7C12.9998 6.73478 12.8945 6.48043 12.7069 6.29289C12.5194 6.10536 12.265 6 11.9998 6C11.7346 6 11.4802 6.10536 11.2927 6.29289C11.1052 6.48043 10.9998 6.73478 10.9998 7V11H7.99982C7.7346 11 7.48025 11.1054 7.29271 11.2929C7.10517 11.4804 6.99982 11.7348 6.99982 12C6.99982 12.2652 7.10517 12.5196 7.29271 12.7071C7.48025 12.8946 7.7346 13 7.99982 13H11.9998C12.265 13 12.5194 12.8946 12.7069 12.7071C12.8945 12.5196 12.9998 12.2652 12.9998 12Z" fill="currentColor"/>
<path d="M23.0002 2.00023C22.735 2.00023 22.4806 2.10559 22.2931 2.29312C22.1055 2.48066 22.0002 2.73502 22.0002 3.00023V5.37423C20.9582 3.80181 19.5603 2.49715 17.9198 1.56613C16.2792 0.635116 14.4423 0.103956 12.5581 0.0157521C10.6738 -0.072452 8.79533 0.284784 7.075 1.05848C5.35467 1.83217 3.84096 3.00052 2.65669 4.46874C1.47242 5.93695 0.650953 7.66367 0.258942 9.50879C-0.133069 11.3539 -0.0845825 13.2655 0.400467 15.0883C0.885517 16.9112 1.79347 18.5941 3.05065 20.0004C4.30783 21.4066 5.87882 22.4968 7.63617 23.1822C7.75231 23.227 7.87569 23.2501 8.00017 23.2502C8.23353 23.2506 8.45967 23.1693 8.63942 23.0205C8.81917 22.8717 8.94122 22.6647 8.98442 22.4354C9.02763 22.2061 8.98927 21.9688 8.876 21.7648C8.76272 21.5608 8.58166 21.4028 8.36417 21.3182C6.87219 20.7413 5.54039 19.8149 4.48055 18.6167C3.42072 17.4186 2.66378 15.9837 2.27328 14.4324C1.88278 12.8812 1.87011 11.2589 2.23634 9.70177C2.60257 8.14463 3.33702 6.69806 4.37802 5.4835C5.41901 4.26895 6.73619 3.32185 8.21898 2.72171C9.70176 2.12156 11.3069 1.88589 12.8996 2.03448C14.4923 2.18306 16.0261 2.71157 17.3723 3.57562C18.7185 4.43968 19.8378 5.61408 20.6362 7.00023H18.0002C17.735 7.00023 17.4806 7.10559 17.2931 7.29313C17.1055 7.48066 17.0002 7.73502 17.0002 8.00023C17.0002 8.26545 17.1055 8.5198 17.2931 8.70734C17.4806 8.89487 17.735 9.00023 18.0002 9.00023H21.0002C21.7958 9.00023 22.5589 8.68416 23.1215 8.12155C23.6841 7.55894 24.0002 6.79588 24.0002 6.00023V3.00023C24.0002 2.73502 23.8948 2.48066 23.7073 2.29312C23.5197 2.10559 23.2654 2.00023 23.0002 2.00023Z" fill="currentColor"/>
<path d="M15.3831 15.0755C15.2003 14.9998 14.9992 14.98 14.8052 15.0186C14.6112 15.0573 14.4329 15.1526 14.2931 15.2925L11.2931 18.2925C11.1109 18.4811 11.0101 18.7337 11.0124 18.9959C11.0147 19.2581 11.1199 19.5089 11.3053 19.6943C11.4907 19.8797 11.7415 19.9849 12.0037 19.9872C12.2659 19.9895 12.5185 19.8887 12.7071 19.7065L14.0001 18.4135V22.9995C14.0001 23.2647 14.1055 23.5191 14.293 23.7066C14.4805 23.8942 14.7349 23.9995 15.0001 23.9995C15.2653 23.9995 15.5197 23.8942 15.7072 23.7066C15.8947 23.5191 16.0001 23.2647 16.0001 22.9995V15.9995C16.0002 15.8017 15.9416 15.6084 15.8317 15.4439C15.7219 15.2795 15.5658 15.1513 15.3831 15.0755Z" fill="currentColor"/>
</g>
<defs>
<clipPath id="clip0_403_3162">
<rect width="24" height="24" fill="white"/>
</clipPath>
</defs>
</svg>
