<svg width="24" height="24" viewBox="0 0 24 24" fill="none" xmlns="http://www.w3.org/2000/svg">
<g clip-path="url(#clip0_406_1833)">
<path d="M14.181 0.207464C14.0369 0.180927 13.8886 0.186421 13.7468 0.223556C13.6049 0.260691 13.473 0.328559 13.3603 0.422352C13.2476 0.516146 13.1569 0.633571 13.0947 0.766309C13.0324 0.899047 13.0001 1.04385 13 1.19046V4.06946C11.7893 3.90883 10.5578 4.02919 9.40099 4.42122C8.24423 4.81324 7.19328 5.4664 6.32963 6.33005C5.46598 7.1937 4.81282 8.24464 4.4208 9.40141C4.02877 10.5582 3.90841 11.7897 4.06905 13.0005H1.19005C1.04343 13.0005 0.89863 13.0328 0.765891 13.0951C0.633153 13.1574 0.515729 13.248 0.421935 13.3607C0.328141 13.4734 0.260273 13.6053 0.223138 13.7472C0.186003 13.889 0.18051 14.0373 0.207047 14.1815C0.603057 16.333 1.57968 18.3353 3.03132 19.9719C4.48295 21.6086 6.35437 22.8172 8.44322 23.4673C10.5321 24.1173 12.7589 24.1839 14.8829 23.66C17.0068 23.136 18.9472 22.0414 20.4941 20.4945C22.041 18.9476 23.1356 17.0073 23.6595 14.8833C24.1835 12.7593 24.1169 10.5325 23.4668 8.44364C22.8168 6.35479 21.6081 4.48337 19.9715 3.03173C18.3349 1.5801 16.3326 0.603474 14.181 0.207464ZM12 14.0005C11.6504 13.9995 11.3071 13.9066 11.0047 13.7311C10.7023 13.5555 10.4514 13.3036 10.277 13.0005H8.00005C7.73483 13.0005 7.48048 12.8951 7.29294 12.7076C7.1054 12.52 7.00005 12.2657 7.00005 12.0005C7.00005 11.7352 7.1054 11.4809 7.29294 11.2934C7.48048 11.1058 7.73483 11.0005 8.00005 11.0005H10.277C10.4513 10.7009 10.7005 10.4517 11 10.2775V7.00046C11 6.73525 11.1054 6.48089 11.2929 6.29336C11.4805 6.10582 11.7348 6.00046 12 6.00046C12.2653 6.00046 12.5196 6.10582 12.7072 6.29336C12.8947 6.48089 13 6.73525 13 7.00046V10.2775C13.3815 10.4966 13.6798 10.8357 13.8484 11.242C14.0171 11.6482 14.0466 12.0989 13.9325 12.5237C13.8184 12.9486 13.567 13.3237 13.2175 13.5908C12.868 13.8579 12.4399 14.002 12 14.0005ZM9.97205 0.100464C10.1698 0.100464 10.3632 0.159113 10.5276 0.268994C10.6921 0.378876 10.8202 0.535054 10.8959 0.71778C10.9716 0.900506 10.9914 1.10157 10.9528 1.29555C10.9142 1.48954 10.819 1.66772 10.6792 1.80757C10.5393 1.94742 10.3611 2.04266 10.1671 2.08125C9.97316 2.11983 9.77209 2.10003 9.58936 2.02434C9.40664 1.94866 9.25046 1.82048 9.14058 1.65603C9.0307 1.49159 8.97205 1.29825 8.97205 1.10046C8.97205 0.835247 9.0774 0.580893 9.26494 0.393357C9.45248 0.205821 9.70683 0.100464 9.97205 0.100464ZM5.87205 1.85646C6.06983 1.85646 6.26317 1.91511 6.42762 2.02499C6.59207 2.13488 6.72024 2.29105 6.79593 2.47378C6.87161 2.65651 6.89142 2.85757 6.85283 3.05155C6.81425 3.24554 6.71901 3.42372 6.57915 3.56357C6.4393 3.70342 6.26112 3.79866 6.06714 3.83725C5.87316 3.87583 5.67209 3.85603 5.48936 3.78034C5.30664 3.70466 5.15046 3.57648 5.04058 3.41203C4.9307 3.24759 4.87205 3.05425 4.87205 2.85646C4.87152 2.59142 4.97623 2.33701 5.16317 2.14912C5.35012 1.96124 5.604 1.85526 5.86905 1.85446L5.87205 1.85646ZM2.77905 4.84146C2.97683 4.84146 3.17017 4.90011 3.33462 5.00999C3.49907 5.11988 3.62724 5.27605 3.70293 5.45878C3.77861 5.64151 3.79842 5.84257 3.75983 6.03655C3.72125 6.23054 3.62601 6.40872 3.48615 6.54857C3.3463 6.68842 3.16812 6.78366 2.97414 6.82225C2.78016 6.86083 2.57909 6.84103 2.39636 6.76534C2.21364 6.68966 2.05746 6.56148 1.94758 6.39703C1.8377 6.23258 1.77905 6.03925 1.77905 5.84146C1.77905 5.57625 1.8844 5.32189 2.07194 5.13436C2.25948 4.94682 2.51383 4.84146 2.77905 4.84146ZM1.17905 9.00846C1.37683 9.00846 1.57017 9.06711 1.73462 9.17699C1.89907 9.28688 2.02724 9.44305 2.10293 9.62578C2.17861 9.80851 2.19842 10.0096 2.15983 10.2036C2.12125 10.3975 2.02601 10.5757 1.88615 10.7156C1.7463 10.8554 1.56812 10.9507 1.37414 10.9892C1.18016 11.0278 0.979089 11.008 0.796363 10.9323C0.613637 10.8567 0.457458 10.7285 0.347577 10.564C0.237696 10.3996 0.179047 10.2062 0.179047 10.0085C0.179046 9.74359 0.284128 9.48954 0.471232 9.30206C0.658336 9.11458 0.912177 9.00899 1.17705 9.00846H1.17905Z" fill="currentColor"/>
</g>
<defs>
<clipPath id="clip0_406_1833">
<rect width="24" height="24" fill="white"/>
</clipPath>
</defs>
</svg>
