<svg width="24" height="24" viewBox="0 0 24 24" fill="none" xmlns="http://www.w3.org/2000/svg">
<g clip-path="url(#clip0_403_3086)">
<path d="M14.6002 21.3002C14.3002 21.5262 13.9812 21.7642 13.7102 22.0002H16.0002C16.2654 22.0002 16.5197 22.1056 16.7073 22.2931C16.8948 22.4807 17.0002 22.735 17.0002 23.0002C17.0002 23.2654 16.8948 23.5198 16.7073 23.7073C16.5197 23.8949 16.2654 24.0002 16.0002 24.0002H12.0002C11.735 24.0002 11.4806 23.8949 11.2931 23.7073C11.1055 23.5198 11.0002 23.2654 11.0002 23.0002C11.0002 21.5002 12.2752 20.5442 13.4002 19.7002C14.1502 19.1382 15.0002 18.5002 15.0002 18.0002C15.0002 17.735 14.8948 17.4807 14.7073 17.2931C14.5197 17.1056 14.2654 17.0002 14.0002 17.0002C13.735 17.0002 13.4806 17.1056 13.2931 17.2931C13.1055 17.4807 13.0002 17.735 13.0002 18.0002C13.0002 18.2654 12.8948 18.5198 12.7073 18.7073C12.5197 18.8949 12.2654 19.0002 12.0002 19.0002C11.735 19.0002 11.4806 18.8949 11.2931 18.7073C11.1055 18.5198 11.0002 18.2654 11.0002 18.0002C11.0002 17.2046 11.3162 16.4415 11.8788 15.8789C12.4415 15.3163 13.2045 15.0002 14.0002 15.0002C14.7958 15.0002 15.5589 15.3163 16.1215 15.8789C16.6841 16.4415 17.0002 17.2046 17.0002 18.0002C17.0002 19.5002 15.7252 20.4562 14.6002 21.3002ZM23.0002 15.0002C22.735 15.0002 22.4806 15.1056 22.2931 15.2931C22.1055 15.4807 22.0002 15.735 22.0002 16.0002V19.0002H21.0002C20.735 19.0002 20.4806 18.8949 20.2931 18.7073C20.1055 18.5198 20.0002 18.2654 20.0002 18.0002V16.0002C20.0002 15.735 19.8948 15.4807 19.7073 15.2931C19.5197 15.1056 19.2654 15.0002 19.0002 15.0002C18.735 15.0002 18.4806 15.1056 18.2931 15.2931C18.1055 15.4807 18.0002 15.735 18.0002 16.0002V18.0002C18.0002 18.7959 18.3162 19.5589 18.8788 20.1216C19.4415 20.6842 20.2045 21.0002 21.0002 21.0002H22.0002V23.0002C22.0002 23.2654 22.1055 23.5198 22.2931 23.7073C22.4806 23.8949 22.735 24.0002 23.0002 24.0002C23.2654 24.0002 23.5197 23.8949 23.7073 23.7073C23.8948 23.5198 24.0002 23.2654 24.0002 23.0002V16.0002C24.0002 15.735 23.8948 15.4807 23.7073 15.2931C23.5197 15.1056 23.2654 15.0002 23.0002 15.0002ZM13.0002 12.0002V7.00023C13.0002 6.73502 12.8948 6.48066 12.7073 6.29313C12.5197 6.10559 12.2654 6.00023 12.0002 6.00023C11.735 6.00023 11.4806 6.10559 11.2931 6.29313C11.1055 6.48066 11.0002 6.73502 11.0002 7.00023V11.0002H8.00017C7.73495 11.0002 7.4806 11.1056 7.29306 11.2931C7.10553 11.4807 7.00017 11.735 7.00017 12.0002C7.00017 12.2654 7.10553 12.5198 7.29306 12.7073C7.4806 12.8949 7.73495 13.0002 8.00017 13.0002H12.0002C12.2654 13.0002 12.5197 12.8949 12.7073 12.7073C12.8948 12.5198 13.0002 12.2654 13.0002 12.0002ZM23.0002 2.00023C22.735 2.00023 22.4806 2.10559 22.2931 2.29312C22.1055 2.48066 22.0002 2.73502 22.0002 3.00023V5.37423C20.9582 3.80181 19.5603 2.49715 17.9198 1.56613C16.2792 0.635116 14.4423 0.103956 12.5581 0.0157521C10.6738 -0.072452 8.79533 0.284784 7.075 1.05848C5.35467 1.83217 3.84096 3.00052 2.65669 4.46874C1.47242 5.93695 0.650953 7.66367 0.258942 9.50879C-0.133069 11.3539 -0.0845825 13.2655 0.400467 15.0883C0.885517 16.9112 1.79347 18.5941 3.05065 20.0004C4.30783 21.4066 5.87882 22.4968 7.63617 23.1822C7.75231 23.227 7.87569 23.2501 8.00017 23.2502C8.23353 23.2506 8.45967 23.1693 8.63942 23.0205C8.81917 22.8717 8.94122 22.6647 8.98442 22.4354C9.02763 22.2061 8.98927 21.9688 8.876 21.7648C8.76272 21.5608 8.58166 21.4028 8.36417 21.3182C6.87219 20.7413 5.54039 19.8149 4.48055 18.6167C3.42072 17.4186 2.66378 15.9837 2.27328 14.4324C1.88278 12.8812 1.87011 11.2589 2.23634 9.70177C2.60257 8.14463 3.33702 6.69806 4.37802 5.4835C5.41901 4.26895 6.73619 3.32185 8.21898 2.72171C9.70176 2.12156 11.3069 1.88589 12.8996 2.03448C14.4923 2.18306 16.0261 2.71157 17.3723 3.57562C18.7185 4.43968 19.8378 5.61408 20.6362 7.00023H18.0002C17.735 7.00023 17.4806 7.10559 17.2931 7.29313C17.1055 7.48066 17.0002 7.73502 17.0002 8.00023C17.0002 8.26545 17.1055 8.5198 17.2931 8.70734C17.4806 8.89487 17.735 9.00023 18.0002 9.00023H21.0002C21.7958 9.00023 22.5589 8.68416 23.1215 8.12155C23.6841 7.55894 24.0002 6.79588 24.0002 6.00023V3.00023C24.0002 2.73502 23.8948 2.48066 23.7073 2.29312C23.5197 2.10559 23.2654 2.00023 23.0002 2.00023Z" fill="currentColor"/>
</g>
<defs>
<clipPath id="clip0_403_3086">
<rect width="24" height="24" fill="white"/>
</clipPath>
</defs>
</svg>
