<svg width="24" height="24" viewBox="0 0 24 24" fill="none" xmlns="http://www.w3.org/2000/svg">
<path d="M20.4672 17.2999C20.4462 17.2699 18.9102 15.4849 18.9102 15.4849C19.4683 15.0737 19.8446 14.4616 19.9595 13.7781C20.0745 13.0945 19.9191 12.393 19.5262 11.8219C19.5012 11.7859 17.6412 9.73088 17.6412 9.73088C18.1064 9.49625 18.4858 9.12075 18.7252 8.65788C18.9311 8.2614 19.0236 7.8158 18.9925 7.37012C18.9615 6.92445 18.8081 6.49598 18.5492 6.13188C18.5282 6.09988 13.8862 0.845884 13.8862 0.845884C13.6427 0.591075 13.35 0.388265 13.026 0.249703C12.7019 0.111142 12.3531 0.0397034 12.0007 0.0397034C11.6482 0.0397034 11.2994 0.111142 10.9754 0.249703C10.6513 0.388265 10.3587 0.591075 10.1152 0.845884C10.1152 0.845884 5.47217 6.09988 5.45117 6.12988C5.19228 6.49398 5.03886 6.92245 5.00781 7.36812C4.97676 7.8138 5.06927 8.2594 5.27517 8.65588C5.51453 9.11875 5.89389 9.49425 6.35917 9.72888C6.35917 9.72888 4.50017 11.7839 4.47417 11.8199C4.08126 12.391 3.92586 13.0925 4.04082 13.7761C4.15577 14.4596 4.53208 15.0717 5.09017 15.4829C5.09017 15.4829 3.55417 17.2679 3.53317 17.2999C3.22361 17.75 3.04283 18.2761 3.01032 18.8214C2.97781 19.3667 3.09481 19.9105 3.3487 20.3942C3.60258 20.8779 3.98371 21.283 4.45098 21.566C4.91824 21.849 5.4539 21.999 6.00017 21.9999H11.0002V22.9999C11.0002 23.2651 11.1055 23.5195 11.2931 23.707C11.4806 23.8945 11.735 23.9999 12.0002 23.9999C12.2654 23.9999 12.5197 23.8945 12.7073 23.707C12.8948 23.5195 13.0002 23.2651 13.0002 22.9999V21.9999H18.0002C18.5468 21.9997 19.083 21.8502 19.5508 21.5676C20.0186 21.2849 20.4003 20.8798 20.6547 20.3959C20.9091 19.9121 21.0264 19.368 20.9941 18.8224C20.9617 18.2767 20.7809 17.7503 20.4712 17.2999H20.4672ZM18.8822 19.4669C18.7987 19.6285 18.6721 19.7639 18.5164 19.8579C18.3608 19.952 18.1821 20.0011 18.0002 19.9999H6.00017C5.82165 20.0001 5.64631 19.9526 5.49237 19.8622C5.33844 19.7718 5.21151 19.6418 5.12477 19.4858C5.03802 19.3297 4.99463 19.1533 4.9991 18.9749C5.00357 18.7964 5.05573 18.6224 5.15017 18.4709L7.28517 15.9999H13.0002C13.2654 15.9999 13.5197 15.8945 13.7073 15.707C13.8948 15.5195 14.0002 15.2651 14.0002 14.9999C14.0002 14.7347 13.8948 14.4803 13.7073 14.2928C13.5197 14.1052 13.2654 13.9999 13.0002 13.9999H6.67017C6.55313 13.9999 6.43814 13.9691 6.33677 13.9106C6.23539 13.8521 6.15119 13.768 6.09262 13.6667C6.03405 13.5653 6.00317 13.4504 6.00309 13.3333C6.00302 13.2163 6.03373 13.1013 6.09217 12.9999L8.81417 9.99988H12.0002C12.2654 9.99988 12.5197 9.89453 12.7073 9.70699C12.8948 9.51945 13.0002 9.2651 13.0002 8.99988C13.0002 8.73467 12.8948 8.48031 12.7073 8.29278C12.5197 8.10524 12.2654 7.99988 12.0002 7.99988H7.50017C7.4077 8.00316 7.3162 7.98008 7.23635 7.93334C7.1565 7.8866 7.09158 7.81812 7.04917 7.73588C7.01379 7.67153 6.99608 7.59895 6.99784 7.52554C6.99959 7.45212 7.02075 7.38047 7.05917 7.31788L11.6112 2.16888C11.6589 2.11297 11.7181 2.06807 11.7848 2.03729C11.8516 2.0065 11.9242 1.99055 11.9977 1.99055C12.0712 1.99055 12.1438 2.0065 12.2105 2.03729C12.2772 2.06807 12.3365 2.11297 12.3842 2.16888L16.9342 7.31688C16.9728 7.37935 16.9942 7.45096 16.9962 7.5244C16.9981 7.59784 16.9805 7.67047 16.9452 7.73488C16.9033 7.81636 16.8394 7.88443 16.7607 7.93129C16.682 7.97815 16.5917 8.00192 16.5002 7.99988H15.6322C15.4397 8.00254 15.252 8.06037 15.0914 8.1665C14.9308 8.27263 14.804 8.42261 14.7261 8.59864C14.6482 8.77467 14.6225 8.96936 14.6519 9.15959C14.6813 9.34983 14.7647 9.52763 14.8922 9.67188L17.9082 12.9999C17.9666 13.1013 17.9973 13.2163 17.9972 13.3333C17.9972 13.4504 17.9663 13.5653 17.9077 13.6667C17.8491 13.768 17.7649 13.8521 17.6636 13.9106C17.5622 13.9691 17.4472 13.9999 17.3302 13.9999H17.1732C16.9829 14.0028 16.7974 14.0595 16.6381 14.1635C16.4788 14.2675 16.3522 14.4145 16.273 14.5875C16.1938 14.7605 16.1652 14.9523 16.1905 15.1409C16.2159 15.3294 16.2941 15.507 16.4162 15.6529L18.8462 18.4709C18.9404 18.6182 18.9935 18.7882 18.9998 18.963C19.0061 19.1378 18.9655 19.3111 18.8822 19.4649V19.4669Z" fill="currentColor"/>
</svg>
