<svg width="24" height="24" viewBox="0 0 24 24" fill="none" xmlns="http://www.w3.org/2000/svg">
<path d="M20.4399 16.8543L18.9589 14.6333C19.2015 14.4724 19.4099 14.2653 19.5723 14.0237C19.7347 13.7822 19.8479 13.511 19.9054 13.2257C19.9629 12.9403 19.9636 12.6465 19.9074 12.3609C19.8512 12.0753 19.7392 11.8036 19.5779 11.5613L17.4869 8.42632C17.67 8.2596 17.8241 8.06359 17.9429 7.84632C18.133 7.49745 18.2255 7.1038 18.2107 6.70679C18.1959 6.30978 18.0744 5.92409 17.8589 5.59032C17.8339 5.55232 13.6779 0.69933 13.6779 0.69933C13.453 0.476454 13.1858 0.300717 12.892 0.182413C12.5983 0.0641096 12.2838 0.00561939 11.9672 0.010369C11.6506 0.0151187 11.338 0.0830128 11.048 0.210074C10.7579 0.337134 10.4961 0.520807 10.2779 0.75033C10.2779 0.75033 6.15192 5.55032 6.12792 5.58232C5.84046 6.025 5.72076 6.55588 5.79045 7.07908C5.86013 7.60228 6.11461 8.08332 6.50792 8.43532L4.42192 11.5613C4.26061 11.8036 4.14865 12.0753 4.09246 12.3609C4.03626 12.6465 4.03693 12.9403 4.09442 13.2257C4.15192 13.511 4.26511 13.7822 4.42752 14.0237C4.58993 14.2653 4.79837 14.4724 5.04092 14.6333L3.55992 16.8543C3.22762 17.3526 3.03678 17.9317 3.00774 18.5299C2.9787 19.1281 3.11255 19.7229 3.39503 20.251C3.6775 20.7791 4.098 21.2206 4.6117 21.5285C5.1254 21.8364 5.71302 21.9991 6.31192 21.9993H10.9999V22.9993C10.9999 23.2645 11.1053 23.5189 11.2928 23.7064C11.4804 23.8939 11.7347 23.9993 11.9999 23.9993C12.2651 23.9993 12.5195 23.8939 12.707 23.7064C12.8946 23.5189 12.9999 23.2645 12.9999 22.9993V21.9993H17.6869C18.2859 21.9993 18.8737 21.8367 19.3875 21.5289C19.9013 21.2211 20.322 20.7796 20.6046 20.2515C20.8872 19.7233 21.0211 19.1284 20.9921 18.5301C20.9631 17.9318 20.7723 17.3526 20.4399 16.8543ZM11.9999 3.99933C12.1977 3.99933 12.391 4.05798 12.5555 4.16786C12.7199 4.27774 12.8481 4.43392 12.9238 4.61664C12.9995 4.79937 13.0193 5.00043 12.9807 5.19442C12.9421 5.3884 12.8469 5.56658 12.707 5.70643C12.5672 5.84628 12.389 5.94152 12.195 5.98011C12.001 6.01869 11.8 5.99889 11.6172 5.9232C11.4345 5.84752 11.2783 5.71934 11.1685 5.55489C11.0586 5.39045 10.9999 5.19711 10.9999 4.99933C10.9999 4.73411 11.1053 4.47976 11.2928 4.29222C11.4804 4.10468 11.7347 3.99933 11.9999 3.99933ZM7.99992 18.9993C7.80214 18.9993 7.6088 18.9407 7.44435 18.8308C7.2799 18.7209 7.15173 18.5647 7.07604 18.382C7.00036 18.1993 6.98055 17.9982 7.01914 17.8042C7.05772 17.6102 7.15296 17.4321 7.29282 17.2922C7.43267 17.1523 7.61085 17.0571 7.80483 17.0185C7.99881 16.9799 8.19988 16.9997 8.38261 17.0754C8.56533 17.1511 8.72151 17.2793 8.83139 17.4437C8.94127 17.6082 8.99992 17.8015 8.99992 17.9993C8.99992 18.2645 8.89457 18.5189 8.70703 18.7064C8.51949 18.894 8.26514 18.9993 7.99992 18.9993ZM7.99992 13.9993C7.80214 13.9993 7.6088 13.9407 7.44435 13.8308C7.2799 13.7209 7.15173 13.5647 7.07604 13.382C7.00036 13.1993 6.98055 12.9982 7.01914 12.8042C7.05772 12.6102 7.15296 12.4321 7.29282 12.2922C7.43267 12.1524 7.61085 12.0571 7.80483 12.0185C7.99881 11.9799 8.19988 11.9997 8.38261 12.0754C8.56533 12.1511 8.72151 12.2793 8.83139 12.4437C8.94127 12.6082 8.99992 12.8015 8.99992 12.9993C8.99992 13.2645 8.89457 13.5189 8.70703 13.7064C8.51949 13.894 8.26514 13.9993 7.99992 13.9993ZM11.9999 9.99932C11.8021 9.99932 11.6088 9.94067 11.4444 9.83079C11.2799 9.72091 11.1517 9.56473 11.076 9.382C11.0004 9.19928 10.9806 8.99821 11.0191 8.80423C11.0577 8.61025 11.153 8.43207 11.2928 8.29221C11.4327 8.15236 11.6109 8.05712 11.8048 8.01854C11.9988 7.97995 12.1999 7.99975 12.3826 8.07544C12.5653 8.15113 12.7215 8.2793 12.8314 8.44375C12.9413 8.6082 12.9999 8.80154 12.9999 8.99932C12.9999 9.26454 12.8946 9.51889 12.707 9.70643C12.5195 9.89396 12.2651 9.99932 11.9999 9.99932ZM15.9999 11.9993C15.8021 11.9993 15.6088 11.9407 15.4444 11.8308C15.2799 11.7209 15.1517 11.5647 15.076 11.382C15.0004 11.1993 14.9806 10.9982 15.0191 10.8042C15.0577 10.6102 15.153 10.4321 15.2928 10.2922C15.4327 10.1524 15.6109 10.0571 15.8048 10.0185C15.9988 9.97995 16.1999 9.99975 16.3826 10.0754C16.5653 10.1511 16.7215 10.2793 16.8314 10.4437C16.9413 10.6082 16.9999 10.8015 16.9999 10.9993C16.9999 11.2645 16.8946 11.5189 16.707 11.7064C16.5195 11.894 16.2651 11.9993 15.9999 11.9993ZM15.9999 17.9993C15.8021 17.9993 15.6088 17.9407 15.4444 17.8308C15.2799 17.7209 15.1517 17.5647 15.076 17.382C15.0004 17.1993 14.9806 16.9982 15.0191 16.8042C15.0577 16.6102 15.153 16.4321 15.2928 16.2922C15.4327 16.1524 15.6109 16.0571 15.8048 16.0185C15.9988 15.9799 16.1999 15.9997 16.3826 16.0754C16.5653 16.1511 16.7215 16.2793 16.8314 16.4437C16.9413 16.6082 16.9999 16.8015 16.9999 16.9993C16.9999 17.2645 16.8946 17.5189 16.707 17.7064C16.5195 17.894 16.2651 17.9993 15.9999 17.9993ZM11.9999 15.9993C11.8021 15.9993 11.6088 15.9407 11.4444 15.8308C11.2799 15.7209 11.1517 15.5647 11.076 15.382C11.0004 15.1993 10.9806 14.9982 11.0191 14.8042C11.0577 14.6102 11.153 14.4321 11.2928 14.2922C11.4327 14.1524 11.6109 14.0571 11.8048 14.0185C11.9988 13.9799 12.1999 13.9997 12.3826 14.0754C12.5653 14.1511 12.7215 14.2793 12.8314 14.4437C12.9413 14.6082 12.9999 14.8015 12.9999 14.9993C12.9999 15.2645 12.8946 15.5189 12.707 15.7064C12.5195 15.894 12.2651 15.9993 11.9999 15.9993Z" fill="currentColor"/>
</svg>
