<svg width="24" height="24" viewBox="0 0 24 24" fill="none" xmlns="http://www.w3.org/2000/svg">
<g clip-path="url(#clip0_403_3124)">
<path d="M19 4.99936H16.9C16.6679 3.87077 16.0538 2.85671 15.1613 2.12808C14.2687 1.39945 13.1522 1.00081 12 0.999359H5C3.67441 1.00095 2.40356 1.52824 1.46622 2.46558C0.528882 3.40292 0.00158786 4.67376 0 5.99936L0 14.9994C0.0025138 15.895 0.305538 16.7639 0.860536 17.4668C1.41553 18.1698 2.19039 18.6661 3.061 18.8764C2.96676 19.3768 2.98287 19.8918 3.10819 20.3854C3.23351 20.879 3.46503 21.3392 3.7866 21.7341C4.10816 22.129 4.51202 22.4489 4.96999 22.6716C5.42796 22.8943 5.92901 23.0144 6.43817 23.0235C6.94733 23.0326 7.45234 22.9304 7.91796 22.7242C8.38357 22.518 8.79858 22.2126 9.13401 21.8294C9.46944 21.4463 9.71722 20.9945 9.86006 20.5057C10.0029 20.0169 10.0373 19.5028 9.961 18.9994H14.043C14.0173 19.1648 14.0036 19.3319 14.002 19.4994C14.002 20.4276 14.3707 21.3179 15.0271 21.9742C15.6835 22.6306 16.5737 22.9994 17.502 22.9994C18.4303 22.9994 19.3205 22.6306 19.9769 21.9742C20.6333 21.3179 21.002 20.4276 21.002 19.4994C21.0009 19.2903 20.9804 19.0817 20.941 18.8764C21.8112 18.6657 22.5856 18.1692 23.1403 17.4663C23.6949 16.7634 23.9976 15.8947 24 14.9994V9.99936C23.9984 8.67377 23.4711 7.40292 22.5338 6.46558C21.5964 5.52824 20.3256 5.00095 19 4.99936ZM22 9.99936V10.9994H17V6.99936H19C19.7956 6.99936 20.5587 7.31543 21.1213 7.87804C21.6839 8.44065 22 9.20371 22 9.99936ZM2 14.9994V5.99936C2 5.20371 2.31607 4.44065 2.87868 3.87804C3.44129 3.31543 4.20435 2.99936 5 2.99936H12C12.7956 2.99936 13.5587 3.31543 14.1213 3.87804C14.6839 4.44065 15 5.20371 15 5.99936V16.9994H4C3.46957 16.9994 2.96086 16.7886 2.58579 16.4136C2.21071 16.0385 2 15.5298 2 14.9994ZM8 19.4994C8 19.8972 7.84196 20.2787 7.56066 20.56C7.27936 20.8413 6.89782 20.9994 6.5 20.9994C6.10218 20.9994 5.72064 20.8413 5.43934 20.56C5.15804 20.2787 5 19.8972 5 19.4994C5.00061 19.3285 5.03212 19.1591 5.093 18.9994H7.907C7.96788 19.1591 7.99939 19.3285 8 19.4994ZM17.5 20.9994C17.1022 20.9994 16.7206 20.8413 16.4393 20.56C16.158 20.2787 16 19.8972 16 19.4994C16.0004 19.3284 16.0319 19.159 16.093 18.9994H18.907C18.9681 19.159 18.9996 19.3284 19 19.4994C19 19.8972 18.842 20.2787 18.5607 20.56C18.2794 20.8413 17.8978 20.9994 17.5 20.9994ZM20 16.9994H17V12.9994H22V14.9994C22 15.5298 21.7893 16.0385 21.4142 16.4136C21.0391 16.7886 20.5304 16.9994 20 16.9994Z" fill="currentColor"/>
</g>
<defs>
<clipPath id="clip0_403_3124">
<rect width="24" height="24" fill="white"/>
</clipPath>
</defs>
</svg>
