<svg width="24" height="24" viewBox="0 0 24 24" fill="none" xmlns="http://www.w3.org/2000/svg">
<g clip-path="url(#clip0_406_1820)">
<path d="M15 17.9994H4C2.93913 17.9994 1.92172 17.5779 1.17157 16.8278C0.421427 16.0776 0 15.0602 0 13.9994V5.99936C0 4.67328 0.526784 3.40151 1.46447 2.46383C2.40215 1.52614 3.67392 0.999359 5 0.999359H10C10.6566 0.999359 11.3068 1.12869 11.9134 1.37996C12.52 1.63124 13.0712 1.99953 13.5355 2.46383C13.9998 2.92812 14.3681 3.47931 14.6194 4.08594C14.8707 4.69257 15 5.34275 15 5.99936V17.9994ZM24 10.9994V9.99936C24 9.34275 23.8707 8.69257 23.6194 8.08594C23.3681 7.47931 22.9998 6.92812 22.5355 6.46383C22.0712 5.99953 21.52 5.63124 20.9134 5.37996C20.3068 5.12869 19.6566 4.99936 19 4.99936H17V10.9994H24ZM17 12.9994V17.9994H20C21.0609 17.9994 22.0783 17.5779 22.8284 16.8278C23.5786 16.0776 24 15.0602 24 13.9994V12.9994H17ZM4.058 19.9994C4.02137 20.1636 4.00193 20.3311 4 20.4994C4 21.1624 4.26339 21.7983 4.73223 22.2671C5.20107 22.736 5.83696 22.9994 6.5 22.9994C7.16304 22.9994 7.79893 22.736 8.26777 22.2671C8.73661 21.7983 9 21.1624 9 20.4994C8.99807 20.3311 8.97863 20.1636 8.942 19.9994H4.058ZM15.058 19.9994C15.0214 20.1636 15.0019 20.3311 15 20.4994C15 21.1624 15.2634 21.7983 15.7322 22.2671C16.2011 22.736 16.837 22.9994 17.5 22.9994C18.163 22.9994 18.7989 22.736 19.2678 22.2671C19.7366 21.7983 20 21.1624 20 20.4994C19.9981 20.3311 19.9786 20.1636 19.942 19.9994H15.058Z" fill="currentColor"/>
</g>
<defs>
<clipPath id="clip0_406_1820">
<rect width="24" height="24" fill="white"/>
</clipPath>
</defs>
</svg>
