<svg width="24" height="24" viewBox="0 0 24 24" fill="none" xmlns="http://www.w3.org/2000/svg">
<g clip-path="url(#clip0_406_1817)">
<path d="M15 6.99933H10.17V5.41333C10.1699 5.01783 10.0526 4.63123 9.83278 4.30241C9.61302 3.97359 9.30069 3.71731 8.93529 3.56597C8.56989 3.41464 8.16782 3.37503 7.77992 3.45216C7.39201 3.5293 7.03568 3.71971 6.75598 3.99933L0.875979 9.87832C0.313566 10.4409 -0.00238037 11.2038 -0.00238037 11.9993C-0.00238037 12.7948 0.313566 13.5577 0.875979 14.1203L6.75598 19.9993C7.03568 20.2789 7.39201 20.4693 7.77992 20.5465C8.16782 20.6236 8.56989 20.584 8.93529 20.4327C9.30069 20.2813 9.61302 20.025 9.83278 19.6962C10.0526 19.3674 10.1699 18.9808 10.17 18.5853V16.9993H16C17.5908 17.0009 19.116 17.6336 20.2409 18.7584C21.3657 19.8833 21.9984 21.4085 22 22.9993C22 23.2645 22.1053 23.5189 22.2929 23.7064C22.4804 23.8939 22.7348 23.9993 23 23.9993C23.2652 23.9993 23.5196 23.8939 23.7071 23.7064C23.8946 23.5189 24 23.2645 24 22.9993V15.9993C23.9973 13.6132 23.0483 11.3255 21.361 9.63829C19.6738 7.95103 17.3861 7.00197 15 6.99933Z" fill="currentColor"/>
</g>
<defs>
<clipPath id="clip0_406_1817">
<rect width="24" height="24" fill="white"/>
</clipPath>
</defs>
</svg>
