<svg width="24" height="24" viewBox="0 0 24 24" fill="none" xmlns="http://www.w3.org/2000/svg">
<g clip-path="url(#clip0_406_1816)">
<path d="M16.9993 8.00219H7.00085V7.00235C7.0001 4.24136 9.23772 2.00248 11.9987 2.00173C13.8179 2.00122 15.4937 2.98896 16.3744 4.58073C16.6425 5.06361 17.2513 5.23778 17.7342 4.96969C18.2171 4.70161 18.3913 4.09279 18.1232 3.60991C16.2509 0.228249 11.9916 -0.995333 8.60992 0.876995C6.38233 2.11033 5.00029 4.45616 5.00114 7.0024V8.4262C3.18144 9.22038 2.00421 11.0161 2.00159 13.0015V19.0006C2.00491 21.7602 4.24122 23.9965 7.00085 23.9999H16.9993C19.759 23.9966 21.9953 21.7602 21.9986 19.0006V13.0015C21.9953 10.2418 19.759 8.00547 16.9993 8.00219ZM12.9999 17.0008C12.9999 17.553 12.5523 18.0007 12.0001 18.0007C11.4479 18.0007 11.0003 17.553 11.0003 17.0008V15.0011C11.0003 14.4489 11.4479 14.0013 12.0001 14.0013C12.5523 14.0013 12.9999 14.4489 12.9999 15.0011V17.0008Z" fill="currentColor"/>
</g>
<defs>
<clipPath id="clip0_406_1816">
<rect width="24" height="24" fill="white"/>
</clipPath>
</defs>
</svg>
