<svg width="24" height="24" viewBox="0 0 24 24" fill="none" xmlns="http://www.w3.org/2000/svg">
<g clip-path="url(#clip0_403_2903)">
<path d="M17.0002 8.00087H7.00015V7.00087C6.99985 5.89228 7.36798 4.81501 8.04667 3.93845C8.72536 3.06188 9.67613 2.43573 10.7495 2.15843C11.8228 1.88113 12.9579 1.96842 13.9763 2.40656C14.9946 2.8447 15.8385 3.60885 16.3752 4.57887C16.4389 4.69371 16.5247 4.79487 16.6275 4.87657C16.7304 4.95827 16.8483 5.01892 16.9746 5.05504C17.1009 5.09116 17.233 5.10205 17.3635 5.0871C17.494 5.07214 17.6203 5.03163 17.7352 4.96787C17.85 4.90412 17.9512 4.81836 18.0329 4.71551C18.1146 4.61266 18.1752 4.49473 18.2113 4.36844C18.2474 4.24215 18.2583 4.10998 18.2434 3.97949C18.2284 3.84899 18.1879 3.72271 18.1242 3.60787C17.3724 2.25019 16.1909 1.18079 14.7652 0.567786C13.3395 -0.04522 11.7505 -0.167078 10.248 0.221368C8.74553 0.609813 7.41472 1.48654 6.46478 2.71372C5.51484 3.94091 4.99964 5.44898 5.00015 7.00087V8.42487C4.10951 8.81358 3.35145 9.4534 2.81865 10.2661C2.28586 11.0788 2.00143 12.0291 2.00015 13.0009V19.0009C2.00174 20.3265 2.52903 21.5973 3.46637 22.5347C4.40371 23.472 5.67456 23.9993 7.00015 24.0009H17.0002C18.3257 23.9993 19.5966 23.472 20.5339 22.5347C21.4713 21.5973 21.9986 20.3265 22.0002 19.0009V13.0009C21.9986 11.6753 21.4713 10.4044 20.5339 9.46709C19.5966 8.52975 18.3257 8.00246 17.0002 8.00087ZM20.0002 19.0009C20.0002 19.7965 19.6841 20.5596 19.1215 21.1222C18.5589 21.6848 17.7958 22.0009 17.0002 22.0009H7.00015C6.2045 22.0009 5.44144 21.6848 4.87883 21.1222C4.31622 20.5596 4.00015 19.7965 4.00015 19.0009V13.0009C4.00015 12.2052 4.31622 11.4422 4.87883 10.8796C5.44144 10.3169 6.2045 10.0009 7.00015 10.0009H17.0002C17.7958 10.0009 18.5589 10.3169 19.1215 10.8796C19.6841 11.4422 20.0002 12.2052 20.0002 13.0009V19.0009Z" fill="currentColor"/>
<path d="M12.0002 14.0006C11.7349 14.0006 11.4806 14.106 11.293 14.2935C11.1055 14.481 11.0002 14.7354 11.0002 15.0006V17.0006C11.0002 17.2658 11.1055 17.5202 11.293 17.7077C11.4806 17.8952 11.7349 18.0006 12.0002 18.0006C12.2654 18.0006 12.5197 17.8952 12.7073 17.7077C12.8948 17.5202 13.0002 17.2658 13.0002 17.0006V15.0006C13.0002 14.7354 12.8948 14.481 12.7073 14.2935C12.5197 14.106 12.2654 14.0006 12.0002 14.0006Z" fill="currentColor"/>
</g>
<defs>
<clipPath id="clip0_403_2903">
<rect width="24" height="24" fill="white"/>
</clipPath>
</defs>
</svg>
