<svg width="24" height="24" viewBox="0 0 24 24" fill="none" xmlns="http://www.w3.org/2000/svg">
<g clip-path="url(#clip0_406_1813)">
<path d="M3 6C3 4.81332 3.35189 3.65328 4.01118 2.66658C4.67047 1.67989 5.60754 0.910851 6.7039 0.456726C7.80026 0.00259972 9.00666 -0.11622 10.1705 0.115291C11.3344 0.346802 12.4035 0.918247 13.2426 1.75736C14.0818 2.59648 14.6532 3.66558 14.8847 4.82946C15.1162 5.99335 14.9974 7.19975 14.5433 8.2961C14.0892 9.39246 13.3201 10.3295 12.3334 10.9888C11.3467 11.6481 10.1867 12 9 12C7.40919 11.9984 5.88399 11.3658 4.75911 10.2409C3.63424 9.11602 3.00159 7.59082 3 6ZM9 14C6.61386 14.0027 4.32622 14.9517 2.63896 16.639C0.951708 18.3262 0.00264685 20.6139 0 23C0 23.2652 0.105357 23.5196 0.292893 23.7071C0.48043 23.8946 0.734784 24 1 24H17C17.2652 24 17.5196 23.8946 17.7071 23.7071C17.8946 23.5196 18 23.2652 18 23C17.9974 20.6139 17.0483 18.3262 15.361 16.639C13.6738 14.9517 11.3861 14.0027 9 14ZM21.414 12L23.707 9.707C23.8892 9.5184 23.99 9.2658 23.9877 9.0036C23.9854 8.74141 23.8802 8.49059 23.6948 8.30519C23.5094 8.11978 23.2586 8.01461 22.9964 8.01233C22.7342 8.01005 22.4816 8.11085 22.293 8.293L20 10.586L17.707 8.293C17.5184 8.11085 17.2658 8.01005 17.0036 8.01233C16.7414 8.01461 16.4906 8.11978 16.3052 8.30519C16.1198 8.49059 16.0146 8.74141 16.0123 9.0036C16.01 9.2658 16.1108 9.5184 16.293 9.707L18.586 12L16.293 14.293C16.1975 14.3853 16.1213 14.4956 16.0689 14.6176C16.0165 14.7396 15.9889 14.8708 15.9877 15.0036C15.9866 15.1364 16.0119 15.2681 16.0622 15.391C16.1125 15.5139 16.1867 15.6255 16.2806 15.7194C16.3745 15.8133 16.4862 15.8875 16.609 15.9378C16.7319 15.9881 16.8636 16.0134 16.9964 16.0123C17.1292 16.0111 17.2604 15.9835 17.3824 15.9311C17.5044 15.8787 17.6148 15.8025 17.707 15.707L20 13.414L22.293 15.707C22.4816 15.8892 22.7342 15.99 22.9964 15.9877C23.2586 15.9854 23.5094 15.8802 23.6948 15.6948C23.8802 15.5094 23.9854 15.2586 23.9877 14.9964C23.99 14.7342 23.8892 14.4816 23.707 14.293L21.414 12Z" fill="currentColor"/>
</g>
<defs>
<clipPath id="clip0_406_1813">
<rect width="24" height="24" fill="white"/>
</clipPath>
</defs>
</svg>
