<svg width="24" height="24" viewBox="0 0 24 24" fill="none" xmlns="http://www.w3.org/2000/svg">
<g clip-path="url(#clip0_403_2801)">
<path d="M17 24C16.7348 24 16.4804 23.8946 16.2929 23.7071C16.1054 23.5196 16 23.2652 16 23C16 21.1435 15.2625 19.363 13.9497 18.0503C12.637 16.7375 10.8565 16 9 16C7.14348 16 5.36301 16.7375 4.05025 18.0503C2.7375 19.363 2 21.1435 2 23C2 23.2652 1.89464 23.5196 1.70711 23.7071C1.51957 23.8946 1.26522 24 1 24C0.734784 24 0.48043 23.8946 0.292893 23.7071C0.105357 23.5196 0 23.2652 0 23C0 20.6131 0.948212 18.3239 2.63604 16.636C4.32387 14.9482 6.61305 14 9 14C11.3869 14 13.6761 14.9482 15.364 16.636C17.0518 18.3239 18 20.6131 18 23C18 23.2652 17.8946 23.5196 17.7071 23.7071C17.5196 23.8946 17.2652 24 17 24ZM23 13H17C16.7348 13 16.4804 12.8946 16.2929 12.7071C16.1054 12.5196 16 12.2652 16 12C16 11.7348 16.1054 11.4804 16.2929 11.2929C16.4804 11.1054 16.7348 11 17 11H23C23.2652 11 23.5196 11.1054 23.7071 11.2929C23.8946 11.4804 24 11.7348 24 12C24 12.2652 23.8946 12.5196 23.7071 12.7071C23.5196 12.8946 23.2652 13 23 13ZM9 12C7.81331 12 6.65327 11.6481 5.66658 10.9888C4.67988 10.3295 3.91085 9.39246 3.45672 8.2961C3.0026 7.19975 2.88378 5.99335 3.11529 4.82946C3.3468 3.66558 3.91824 2.59648 4.75736 1.75736C5.59647 0.918247 6.66557 0.346802 7.82946 0.115291C8.99334 -0.11622 10.1997 0.00259972 11.2961 0.456726C12.3925 0.910851 13.3295 1.67989 13.9888 2.66658C14.6481 3.65328 15 4.81332 15 6C14.9984 7.59082 14.3658 9.11602 13.2409 10.2409C12.116 11.3658 10.5908 11.9984 9 12ZM9 2C8.20887 2 7.43552 2.2346 6.77772 2.67412C6.11992 3.11365 5.60723 3.73837 5.30448 4.46927C5.00173 5.20017 4.92252 6.00444 5.07686 6.78036C5.2312 7.55629 5.61216 8.26902 6.17157 8.82843C6.73098 9.38784 7.44371 9.7688 8.21964 9.92315C8.99556 10.0775 9.79983 9.99827 10.5307 9.69552C11.2616 9.39277 11.8864 8.88008 12.3259 8.22228C12.7654 7.56449 13 6.79113 13 6C13 4.93914 12.5786 3.92172 11.8284 3.17158C11.0783 2.42143 10.0609 2 9 2Z" fill="currentColor"/>
</g>
<defs>
<clipPath id="clip0_403_2801">
<rect width="24" height="24" fill="white"/>
</clipPath>
</defs>
</svg>
