<svg width="24" height="24" viewBox="0 0 24 24" fill="none" xmlns="http://www.w3.org/2000/svg">
<g clip-path="url(#clip0_406_2114)">
<path d="M11.0001 20.0003C11.0001 20.2655 10.8947 20.5198 10.7072 20.7074C10.5197 20.8949 10.2653 21.0003 10.0001 21.0003H8.00008V23.0003C8.00008 23.2655 7.89473 23.5198 7.70719 23.7074C7.51965 23.8949 7.2653 24.0003 7.00008 24.0003C6.73487 24.0003 6.48051 23.8949 6.29298 23.7074C6.10544 23.5198 6.00008 23.2655 6.00008 23.0003V21.0003H4.00008C3.73487 21.0003 3.48051 20.8949 3.29298 20.7074C3.10544 20.5198 3.00008 20.2655 3.00008 20.0003C3.00008 19.735 3.10544 19.4807 3.29298 19.2932C3.48051 19.1056 3.73487 19.0003 4.00008 19.0003H6.00008V14.8493C4.9845 14.6449 4.02228 14.2323 3.17407 13.6375C2.32586 13.0427 1.61007 12.2787 1.07181 11.3936C0.533554 10.5084 0.184504 9.52137 0.0466656 8.49463C-0.0911725 7.46789 -0.0148093 6.42373 0.270941 5.42796C0.556692 4.4322 1.04563 3.50644 1.70694 2.70902C2.36825 1.91161 3.18759 1.25985 4.1133 0.794819C5.03901 0.32979 6.05102 0.0615803 7.08554 0.00709754C8.12006 -0.0473852 9.15464 0.113041 10.1241 0.478262C9.14072 1.36473 8.3545 2.44785 7.81636 3.65749C7.27822 4.86713 7.00014 6.17632 7.00014 7.50026C7.00014 8.82421 7.27822 10.1334 7.81636 11.343C8.3545 12.5527 9.14072 13.6358 10.1241 14.5223C9.44183 14.7759 8.72637 14.9292 8.00008 14.9773V19.0003H10.0001C10.2653 19.0003 10.5197 19.1056 10.7072 19.2932C10.8947 19.4807 11.0001 19.735 11.0001 20.0003ZM24.0001 7.50026C24.0017 6.03785 23.5757 4.60687 22.7746 3.38341C21.9735 2.15994 20.8322 1.19738 19.4911 0.614169C18.15 0.0309559 16.6677 -0.147461 15.2265 0.100873C13.7853 0.349206 12.4482 1.01346 11.3797 2.01188C10.3111 3.01031 9.55776 4.29935 9.21232 5.72038C8.86688 7.14141 8.94443 8.63242 9.43541 10.01C9.92639 11.3875 10.8094 12.5914 11.9757 13.4736C13.1421 14.3558 14.5409 14.8778 16.0001 14.9753V19.0003H14.0001C13.7349 19.0003 13.4805 19.1056 13.293 19.2932C13.1054 19.4807 13.0001 19.735 13.0001 20.0003C13.0001 20.2655 13.1054 20.5198 13.293 20.7074C13.4805 20.8949 13.7349 21.0003 14.0001 21.0003H16.0001V23.0003C16.0001 23.2655 16.1054 23.5198 16.293 23.7074C16.4805 23.8949 16.7349 24.0003 17.0001 24.0003C17.2653 24.0003 17.5197 23.8949 17.7072 23.7074C17.8947 23.5198 18.0001 23.2655 18.0001 23.0003V21.0003H20.0001C20.2653 21.0003 20.5197 20.8949 20.7072 20.7074C20.8947 20.5198 21.0001 20.2655 21.0001 20.0003C21.0001 19.735 20.8947 19.4807 20.7072 19.2932C20.5197 19.1056 20.2653 19.0003 20.0001 19.0003H18.0001V14.8493C19.6928 14.5012 21.2139 13.5803 22.3068 12.2416C23.3997 10.903 23.9978 9.22842 24.0001 7.50026Z" fill="currentColor"/>
</g>
<defs>
<clipPath id="clip0_406_2114">
<rect width="24" height="24" fill="white"/>
</clipPath>
</defs>
</svg>
