<svg width="24" height="24" viewBox="0 0 24 24" fill="none" xmlns="http://www.w3.org/2000/svg">
<g clip-path="url(#clip0_406_1812)">
<path d="M9.99993 19H7.99993V16.683C7.03861 15.8265 6.27315 14.7729 5.75567 13.594C5.23819 12.415 4.98084 11.1384 5.00115 9.85101C5.02145 8.56364 5.31894 7.29577 5.87335 6.13372C6.42776 4.97168 7.22608 3.94275 8.21393 3.117C7.81343 3.04282 7.40723 3.00368 6.99993 3C5.2396 3.01356 3.54901 3.68987 2.26503 4.89418C0.981057 6.09849 0.197977 7.74235 0.0718378 9.49821C-0.0543013 11.2541 0.485762 12.993 1.58441 14.3685C2.68306 15.7439 4.25962 16.655 5.99993 16.92V19H3.99993C3.73472 19 3.48036 19.1054 3.29283 19.2929C3.10529 19.4804 2.99993 19.7348 2.99993 20C2.99993 20.2652 3.10529 20.5196 3.29283 20.7071C3.48036 20.8946 3.73472 21 3.99993 21H5.99993V23C5.99993 23.2652 6.10529 23.5196 6.29283 23.7071C6.48036 23.8946 6.73472 24 6.99993 24C7.26515 24 7.5195 23.8946 7.70704 23.7071C7.89458 23.5196 7.99993 23.2652 7.99993 23V21H9.99993C10.2652 21 10.5195 20.8946 10.707 20.7071C10.8946 20.5196 10.9999 20.2652 10.9999 20C10.9999 19.7348 10.8946 19.4804 10.707 19.2929C10.5195 19.1054 10.2652 19 9.99993 19Z" fill="currentColor"/>
<path d="M21.9998 0H17.9998C17.7346 0 17.4802 0.105357 17.2927 0.292893C17.1051 0.48043 16.9998 0.734784 16.9998 1C16.9998 1.26522 17.1051 1.51957 17.2927 1.70711C17.4802 1.89464 17.7346 2 17.9998 2H20.5858L18.1858 4.4C16.7638 3.33408 14.9908 2.84643 13.2238 3.03522C11.4567 3.224 9.82678 4.07521 8.66211 5.41748C7.49743 6.75974 6.88449 8.49339 6.94669 10.2694C7.00889 12.0455 7.7416 13.732 8.99733 14.9895C10.253 16.247 11.9385 16.9821 13.7145 17.0468C15.4904 17.1115 17.2249 16.501 18.5688 15.3382C19.9127 14.1754 20.7662 12.5467 20.9575 10.7799C21.1488 9.01313 20.6637 7.23947 19.5998 5.816L21.9998 3.416V6C21.9998 6.26522 22.1051 6.51957 22.2927 6.70711C22.4802 6.89464 22.7345 7 22.9998 7C23.265 7 23.5193 6.89464 23.7069 6.70711C23.8944 6.51957 23.9998 6.26522 23.9998 6V2C23.9998 1.46957 23.789 0.960859 23.414 0.585786C23.0389 0.210714 22.5302 0 21.9998 0V0Z" fill="currentColor"/>
</g>
<defs>
<clipPath id="clip0_406_1812">
<rect width="24" height="24" fill="white"/>
</clipPath>
</defs>
</svg>
