<svg width="24" height="24" viewBox="0 0 24 24" fill="none" xmlns="http://www.w3.org/2000/svg">
<g clip-path="url(#clip0_406_1811)">
<path d="M23.992 12.1591C23.9682 13.9096 23.5585 15.6332 22.792 17.2071C22.7184 17.2064 22.6449 17.2141 22.573 17.2301C20.7552 17.7646 18.8676 18.0238 16.973 17.9991C14.9335 18.0562 12.8981 17.7861 10.944 17.1991C10.7117 17.1203 10.5026 16.985 10.3356 16.8052C10.1687 16.6254 10.0491 16.4069 9.98766 16.1694C9.92625 15.9318 9.92493 15.6828 9.98382 15.4446C10.0427 15.2064 10.16 14.9867 10.325 14.8051C10.6617 14.4304 11.0218 14.0774 11.403 13.7481C11.5997 13.5898 11.8341 13.4851 12.0833 13.4443C12.3325 13.4034 12.5881 13.4279 12.825 13.5151C14.1035 13.9416 15.4423 14.1598 16.79 14.1611C19.3244 14.135 21.8077 13.4447 23.992 12.1591ZM15.248 12.0231C15.4747 12.0599 15.7068 12.0437 15.9261 11.9759C16.1455 11.908 16.3462 11.7903 16.5125 11.6319C16.6788 11.4736 16.8061 11.2789 16.8846 11.0631C16.9632 10.8473 16.9907 10.6163 16.965 10.3881C16.502 6.60878 14.7922 3.09167 12.106 0.393127C12.0039 0.282402 11.9286 0.149637 11.886 0.00512695C10.3041 0.0167231 8.7403 0.343417 7.28602 0.966127C8.80389 2.09861 10.0746 3.52903 11.0203 5.16977C11.9661 6.81052 12.5669 8.62706 12.786 10.5081C12.8272 10.7976 12.9531 11.0684 13.1477 11.2865C13.3424 11.5046 13.5971 11.6604 13.88 11.7341C14.3292 11.8605 14.7862 11.957 15.248 12.0231ZM20.922 11.3801C21.9383 11.0071 22.9064 10.5143 23.806 9.91213C23.3935 7.59543 22.31 5.45079 20.6899 3.74423C19.0697 2.03768 16.9842 0.844299 14.692 0.312127C17.0297 3.12236 18.5071 6.54727 18.947 10.1761C18.9739 10.397 19.0505 10.609 19.1711 10.7961C19.2916 10.9832 19.4529 11.1406 19.643 11.2564C19.833 11.3723 20.0468 11.4436 20.2683 11.465C20.4898 11.4864 20.7133 11.4574 20.922 11.3801ZM16.8 19.9991C14.3369 20.04 11.8859 19.647 9.55902 18.8381C9.37171 18.7697 9.17222 18.7409 8.97319 18.7535C8.77417 18.7662 8.57994 18.8201 8.40282 18.9117C8.2257 19.0034 8.06955 19.1308 7.94427 19.286C7.81899 19.4412 7.7273 19.6207 7.67502 19.8131C7.40715 20.8685 7.28635 21.9557 7.31602 23.0441C9.69559 24.0556 12.3385 24.2704 14.8502 23.6564C17.3618 23.0423 19.6075 21.6324 21.252 19.6371C19.785 19.9152 18.2927 20.0365 16.8 19.9991ZM10.8 10.8301C10.7365 10.2402 10.6286 9.65583 10.477 9.08213C10.4115 8.84394 10.2869 8.62616 10.1147 8.44903C9.94252 8.27189 9.72837 8.14113 9.49213 8.06891C9.25589 7.99668 9.00523 7.98532 8.76343 8.03588C8.52163 8.08645 8.29652 8.19729 8.10902 8.35813C5.22621 10.8888 3.17062 14.2276 2.20902 17.9411C2.16016 18.2195 2.1291 18.5008 2.11602 18.7831C2.97441 20.0314 4.05995 21.1071 5.31602 21.9541C5.42282 20.0594 5.91607 18.2066 6.76544 16.5096C7.61481 14.8125 8.80235 13.3072 10.255 12.0861C10.4417 11.9374 10.5891 11.7451 10.6841 11.5261C10.7791 11.3071 10.8189 11.0681 10.8 10.8301ZM7.76702 4.10813C7.04291 3.31143 6.21283 2.61796 5.30002 2.04713C3.08341 3.52787 1.42621 5.70796 0.592541 8.23996C-0.241127 10.772 -0.20329 13.5101 0.700023 16.0181C1.99559 12.1481 4.3837 8.73575 7.57602 6.19313C7.72997 6.07192 7.8576 5.92061 7.95112 5.74843C8.04464 5.57625 8.10209 5.38683 8.11996 5.19171C8.13783 4.99659 8.11576 4.79987 8.05508 4.61357C7.9944 4.42727 7.89638 4.25529 7.76702 4.10813Z" fill="currentColor"/>
</g>
<defs>
<clipPath id="clip0_406_1811">
<rect width="24" height="24" fill="white"/>
</clipPath>
</defs>
</svg>
