<svg width="24" height="24" viewBox="0 0 24 24" fill="none" xmlns="http://www.w3.org/2000/svg">
<g clip-path="url(#clip0_403_2796)">
<path d="M20.8068 4.29052C20.7139 4.19761 20.6036 4.12391 20.4822 4.07363C20.3608 4.02335 20.2307 3.99747 20.0993 3.99747C19.9679 3.99747 19.8378 4.02335 19.7164 4.07363C19.595 4.12391 19.4847 4.19761 19.3918 4.29052C19.2989 4.38343 19.2252 4.49373 19.1749 4.61513C19.1246 4.73652 19.0988 4.86663 19.0988 4.99802C19.0988 5.12942 19.1246 5.25953 19.1749 5.38092C19.2252 5.50231 19.2989 5.61261 19.3918 5.70552C21.0588 7.37643 21.9949 9.64029 21.9949 12.0005C21.9949 14.3608 21.0588 16.6246 19.3918 18.2955C19.2042 18.4832 19.0988 18.7377 19.0988 19.003C19.0988 19.2684 19.2042 19.5229 19.3918 19.7105C19.5795 19.8982 19.8339 20.0036 20.0993 20.0036C20.3647 20.0036 20.6192 19.8982 20.8068 19.7105C22.8486 17.6641 23.9953 14.8913 23.9953 12.0005C23.9953 9.10972 22.8486 6.33695 20.8068 4.29052Z" fill="currentColor"/>
<path d="M18.1002 7.2908C18.0073 7.19756 17.8969 7.12353 17.7754 7.07295C17.6539 7.02236 17.5236 6.99621 17.392 6.99597C17.2603 6.99574 17.13 7.02144 17.0083 7.07159C16.8866 7.12175 16.7759 7.19539 16.6827 7.2883C16.5895 7.38121 16.5154 7.49157 16.4649 7.61309C16.4143 7.73461 16.3881 7.8649 16.3879 7.99653C16.3876 8.12815 16.4133 8.25854 16.4635 8.38023C16.5137 8.50193 16.5873 8.61256 16.6802 8.70579C17.553 9.57988 18.0431 10.7646 18.0431 11.9998C18.0431 13.235 17.553 14.4197 16.6802 15.2938C16.5873 15.387 16.5137 15.4976 16.4635 15.6193C16.4133 15.741 16.3876 15.8714 16.3879 16.0031C16.3881 16.1347 16.4143 16.265 16.4649 16.3865C16.5154 16.508 16.5895 16.6184 16.6827 16.7113C16.871 16.8989 17.1261 17.0041 17.392 17.0036C17.5236 17.0034 17.6539 16.9772 17.7754 16.9266C17.8969 16.876 18.0073 16.802 18.1002 16.7088C19.3475 15.459 20.0481 13.7655 20.0481 11.9998C20.0481 10.2341 19.3475 8.54054 18.1002 7.2908Z" fill="currentColor"/>
<path d="M13.82 0.200203C10.7793 0.77147 8.07468 2.49005 6.266 5.0002H5C3.67457 5.00232 2.40403 5.52978 1.4668 6.46701C0.529579 7.40423 0.00211562 8.67477 0 10.0002L0 14.0002C0.00211562 15.3256 0.529579 16.5962 1.4668 17.5334C2.40403 18.4706 3.67457 18.9981 5 19.0002H6.266C8.07504 21.51 10.7795 23.2284 13.82 23.8002C13.8796 23.8118 13.9403 23.8175 14.001 23.8172C14.2662 23.8172 14.5206 23.7118 14.7081 23.5243C14.8956 23.3368 15.001 23.0824 15.001 22.8172V1.1862C15.0014 1.03934 14.9694 0.894192 14.9073 0.761085C14.8453 0.627978 14.7546 0.510175 14.6419 0.41605C14.5292 0.321926 14.3971 0.253789 14.255 0.216484C14.113 0.179178 13.9644 0.17362 13.82 0.200203ZM13 21.5352C10.7944 20.8321 8.89788 19.3914 7.629 17.4552C7.53834 17.3157 7.41432 17.2011 7.26817 17.1216C7.12201 17.0422 6.95835 17.0004 6.792 17.0002H5C4.20435 17.0002 3.44129 16.6841 2.87868 16.1215C2.31607 15.5589 2 14.7959 2 14.0002V10.0002C2 9.20455 2.31607 8.44149 2.87868 7.87888C3.44129 7.31627 4.20435 7.0002 5 7.0002H6.8C6.96617 7.00018 7.12971 6.95875 7.27585 6.87966C7.42198 6.80057 7.54611 6.68631 7.637 6.5472C8.90329 4.61144 10.7969 3.17015 13 2.4652V21.5352Z" fill="currentColor"/>
</g>
<defs>
<clipPath id="clip0_403_2796">
<rect width="24" height="24" fill="white"/>
</clipPath>
</defs>
</svg>
