<svg width="24" height="24" viewBox="0 0 24 24" fill="none" xmlns="http://www.w3.org/2000/svg">
<g clip-path="url(#clip0_403_3146)">
<path d="M18.0001 0H8.00012C7.02836 0.00127838 6.07802 0.285705 5.26533 0.818499C4.45265 1.35129 3.81283 2.10936 3.42412 3H2.00012C1.73491 3 1.48055 3.10536 1.29302 3.29289C1.10548 3.48043 1.00012 3.73478 1.00012 4C1.00012 4.26522 1.10548 4.51957 1.29302 4.70711C1.48055 4.89464 1.73491 5 2.00012 5H3.00012V7H2.00012C1.73491 7 1.48055 7.10536 1.29302 7.29289C1.10548 7.48043 1.00012 7.73478 1.00012 8C1.00012 8.26522 1.10548 8.51957 1.29302 8.70711C1.48055 8.89464 1.73491 9 2.00012 9H3.00012V11H2.00012C1.73491 11 1.48055 11.1054 1.29302 11.2929C1.10548 11.4804 1.00012 11.7348 1.00012 12C1.00012 12.2652 1.10548 12.5196 1.29302 12.7071C1.48055 12.8946 1.73491 13 2.00012 13H3.00012V15H2.00012C1.73491 15 1.48055 15.1054 1.29302 15.2929C1.10548 15.4804 1.00012 15.7348 1.00012 16C1.00012 16.2652 1.10548 16.5196 1.29302 16.7071C1.48055 16.8946 1.73491 17 2.00012 17H3.00012V19H2.00012C1.73491 19 1.48055 19.1054 1.29302 19.2929C1.10548 19.4804 1.00012 19.7348 1.00012 20C1.00012 20.2652 1.10548 20.5196 1.29302 20.7071C1.48055 20.8946 1.73491 21 2.00012 21H3.42412C3.81283 21.8906 4.45265 22.6487 5.26533 23.1815C6.07802 23.7143 7.02836 23.9987 8.00012 24H18.0001C19.3257 23.9984 20.5966 23.4711 21.5339 22.5338C22.4712 21.5964 22.9985 20.3256 23.0001 19V5C22.9985 3.67441 22.4712 2.40356 21.5339 1.46622C20.5966 0.528882 19.3257 0.00158786 18.0001 0V0ZM21.0001 19C21.0001 19.7956 20.6841 20.5587 20.1214 21.1213C19.5588 21.6839 18.7958 22 18.0001 22H8.00012C7.20447 22 6.44141 21.6839 5.8788 21.1213C5.31619 20.5587 5.00012 19.7956 5.00012 19V5C5.00012 4.20435 5.31619 3.44129 5.8788 2.87868C6.44141 2.31607 7.20447 2 8.00012 2H18.0001C18.7958 2 19.5588 2.31607 20.1214 2.87868C20.6841 3.44129 21.0001 4.20435 21.0001 5V19ZM13.0001 12C13.7958 12 14.5588 11.6839 15.1214 11.1213C15.6841 10.5587 16.0001 9.79565 16.0001 9C16.0001 8.20435 15.6841 7.44129 15.1214 6.87868C14.5588 6.31607 13.7958 6 13.0001 6C12.2045 6 11.4414 6.31607 10.8788 6.87868C10.3162 7.44129 10.0001 8.20435 10.0001 9C10.0001 9.79565 10.3162 10.5587 10.8788 11.1213C11.4414 11.6839 12.2045 12 13.0001 12ZM18.0001 18C18.0001 18.2652 17.8948 18.5196 17.7072 18.7071C17.5197 18.8946 17.2653 19 17.0001 19C16.7349 19 16.4806 18.8946 16.293 18.7071C16.1055 18.5196 16.0001 18.2652 16.0001 18C16.0001 17.2044 15.6841 16.4413 15.1214 15.8787C14.5588 15.3161 13.7958 15 13.0001 15C12.2045 15 11.4414 15.3161 10.8788 15.8787C10.3162 16.4413 10.0001 17.2044 10.0001 18C10.0001 18.2652 9.89476 18.5196 9.70723 18.7071C9.51969 18.8946 9.26534 19 9.00012 19C8.73491 19 8.48055 18.8946 8.29302 18.7071C8.10548 18.5196 8.00012 18.2652 8.00012 18C8.21112 11.392 17.7911 11.394 18.0001 18Z" fill="currentColor"/>
</g>
<defs>
<clipPath id="clip0_403_3146">
<rect width="24" height="24" fill="white"/>
</clipPath>
</defs>
</svg>
