<svg width="24" height="24" viewBox="0 0 24 24" fill="none" xmlns="http://www.w3.org/2000/svg">
<path d="M10.48 19.0001C10.2177 18.999 9.9663 18.8948 9.78004 18.7101L5.19004 14.1201C4.62824 13.5576 4.31268 12.7951 4.31268 12.0001C4.31268 11.2051 4.62824 10.4426 5.19004 9.88006L9.78004 5.29006C9.96741 5.10381 10.2209 4.99927 10.485 4.99927C10.7492 4.99927 11.0027 5.10381 11.19 5.29006C11.2838 5.38302 11.3582 5.49362 11.4089 5.61548C11.4597 5.73734 11.4858 5.86805 11.4858 6.00006C11.4858 6.13207 11.4597 6.26278 11.4089 6.38464C11.3582 6.5065 11.2838 6.6171 11.19 6.71006L6.60004 11.2901C6.50632 11.383 6.43192 11.4936 6.38115 11.6155C6.33038 11.7373 6.30425 11.868 6.30425 12.0001C6.30425 12.1321 6.33038 12.2628 6.38115 12.3846C6.43192 12.5065 6.50632 12.6171 6.60004 12.7101L11.19 17.2901C11.2838 17.383 11.3582 17.4936 11.4089 17.6155C11.4597 17.7373 11.4858 17.868 11.4858 18.0001C11.4858 18.1321 11.4597 18.2628 11.4089 18.3846C11.3582 18.5065 11.2838 18.6171 11.19 18.7101C11.0966 18.8027 10.9858 18.8761 10.864 18.9258C10.7421 18.9756 10.6117 19.0008 10.48 19.0001Z" fill="currentColor"/>
<path d="M17.4799 19.0001C17.2175 18.999 16.9661 18.8948 16.7799 18.7101L10.7799 12.7101C10.6861 12.6171 10.6117 12.5065 10.561 12.3846C10.5102 12.2628 10.4841 12.1321 10.4841 12.0001C10.4841 11.868 10.5102 11.7373 10.561 11.6155C10.6117 11.4936 10.6861 11.383 10.7799 11.2901L16.7799 5.29006C16.9672 5.10381 17.2207 4.99927 17.4849 4.99927C17.749 4.99927 18.0025 5.10381 18.1899 5.29006C18.2836 5.38302 18.358 5.49362 18.4087 5.61548C18.4595 5.73734 18.4857 5.86805 18.4857 6.00006C18.4857 6.13207 18.4595 6.26278 18.4087 6.38464C18.358 6.5065 18.2836 6.6171 18.1899 6.71006L12.8999 12.0001L18.1899 17.2901C18.2836 17.383 18.358 17.4936 18.4087 17.6155C18.4595 17.7373 18.4857 17.868 18.4857 18.0001C18.4857 18.1321 18.4595 18.2628 18.4087 18.3846C18.358 18.5065 18.2836 18.6171 18.1899 18.7101C18.0964 18.8027 17.9856 18.8761 17.8638 18.9258C17.7419 18.9756 17.6115 19.0008 17.4799 19.0001Z" fill="currentColor"/>
</svg>
