<svg width="24" height="24" viewBox="0 0 24 24" fill="none" xmlns="http://www.w3.org/2000/svg">
<g clip-path="url(#clip0_403_3261)">
<path d="M17.246 6.19301C18.24 5.10476 18.8501 3.72086 18.983 2.25301C19.0215 1.95033 18.9903 1.64284 18.8917 1.35408C18.7931 1.06532 18.6298 0.80295 18.4142 0.587049C18.1986 0.371148 17.9364 0.207442 17.6478 0.108464C17.3592 0.0094849 17.0517 -0.0221426 16.749 0.0160022C15.8385 0.087504 14.9544 0.355535 14.1575 0.801628C13.3606 1.24772 12.6699 1.86127 12.133 2.60001C11.793 1.74937 11.3123 0.962039 10.711 0.271003C10.5244 0.0860312 10.2725 -0.0180701 10.0097 -0.018795C9.74699 -0.0195199 9.49452 0.0831899 9.30691 0.267129C9.11929 0.451068 9.0116 0.701456 9.00712 0.964161C9.00265 1.22687 9.10174 1.48078 9.28298 1.671C10.2743 2.90543 10.8545 4.4192 10.942 6.00001H8.49998C6.18088 6.07088 3.98434 7.05774 2.39125 8.74455C0.798158 10.4313 -0.0616804 12.6807 -2.07468e-05 15C-0.161021 20.6 5.64398 25.773 10.75 23.385C11.1399 23.1371 11.5932 23.007 12.0553 23.0103C12.5174 23.0137 12.9687 23.1504 13.355 23.404C14.0078 23.7815 14.746 23.9866 15.5 24C25.764 23.716 27.066 8.58201 17.246 6.19301ZM14.223 3.16801C14.9987 2.4897 15.9727 2.08004 17 2C16.918 3.02517 16.5089 3.99689 15.833 4.77201C15.0566 5.44989 14.0825 5.85948 13.055 5.94001C13.1362 4.91448 13.5458 3.94243 14.223 3.16801ZM15.5 22C15.0593 21.9831 14.6306 21.8518 14.256 21.619C13.5695 21.2226 12.7926 21.0094 12 21C11.2495 21.0175 10.5151 21.2212 9.86298 21.593C6.00498 23.261 1.89998 19.141 1.99998 15C1.93831 13.211 2.58745 11.4704 3.80548 10.1587C5.02351 8.84697 6.71135 8.07085 8.49998 8.00001H15.5C24.1 8.32101 24.1 21.682 15.5 22Z" fill="currentColor"/>
</g>
<defs>
<clipPath id="clip0_403_3261">
<rect width="24" height="24" fill="white"/>
</clipPath>
</defs>
</svg>
