<svg width="24" height="24" viewBox="0 0 24 24" fill="none" xmlns="http://www.w3.org/2000/svg">
<g clip-path="url(#clip0_403_3058)">
<path d="M7 0H4C2.93913 0 1.92172 0.421427 1.17157 1.17157C0.421427 1.92172 0 2.93913 0 4L0 7C0 8.06087 0.421427 9.07828 1.17157 9.82843C1.92172 10.5786 2.93913 11 4 11H7C8.06087 11 9.07828 10.5786 9.82843 9.82843C10.5786 9.07828 11 8.06087 11 7V4C11 2.93913 10.5786 1.92172 9.82843 1.17157C9.07828 0.421427 8.06087 0 7 0V0ZM9 7C9 7.53043 8.78929 8.03914 8.41421 8.41421C8.03914 8.78929 7.53043 9 7 9H4C3.46957 9 2.96086 8.78929 2.58579 8.41421C2.21071 8.03914 2 7.53043 2 7V4C2 3.46957 2.21071 2.96086 2.58579 2.58579C2.96086 2.21071 3.46957 2 4 2H7C7.53043 2 8.03914 2.21071 8.41421 2.58579C8.78929 2.96086 9 3.46957 9 4V7Z" fill="currentColor"/>
<path d="M19.9999 0H16.9999C15.939 0 14.9216 0.421428 14.1714 1.17157C13.4213 1.92172 12.9999 2.93914 12.9999 4V7C12.9999 8.06087 13.4213 9.07829 14.1714 9.82843C14.9216 10.5786 15.939 11 16.9999 11H19.9999C21.0607 11 22.0781 10.5786 22.8283 9.82843C23.5784 9.07829 23.9999 8.06087 23.9999 7V4C23.9999 2.93914 23.5784 1.92172 22.8283 1.17157C22.0781 0.421428 21.0607 0 19.9999 0V0ZM21.9999 7C21.9999 7.53044 21.7892 8.03915 21.4141 8.41422C21.039 8.78929 20.5303 9.00001 19.9999 9.00001H16.9999C16.4694 9.00001 15.9607 8.78929 15.5857 8.41422C15.2106 8.03915 14.9999 7.53044 14.9999 7V4C14.9999 3.46957 15.2106 2.96086 15.5857 2.58579C15.9607 2.21072 16.4694 2 16.9999 2H19.9999C20.5303 2 21.039 2.21072 21.4141 2.58579C21.7892 2.96086 21.9999 3.46957 21.9999 4V7Z" fill="currentColor"/>
<path d="M7 13H4C2.93913 13 1.92172 13.4214 1.17157 14.1716C0.421427 14.9217 0 15.9391 0 17L0 20C0 21.0609 0.421427 22.0783 1.17157 22.8284C1.92172 23.5786 2.93913 24 4 24H7C8.06087 24 9.07828 23.5786 9.82843 22.8284C10.5786 22.0783 11 21.0609 11 20V17C11 15.9391 10.5786 14.9217 9.82843 14.1716C9.07828 13.4214 8.06087 13 7 13ZM9 20C9 20.5304 8.78929 21.0392 8.41421 21.4142C8.03914 21.7893 7.53043 22 7 22H4C3.46957 22 2.96086 21.7893 2.58579 21.4142C2.21071 21.0392 2 20.5304 2 20V17C2 16.4696 2.21071 15.9609 2.58579 15.5858C2.96086 15.2107 3.46957 15 4 15H7C7.53043 15 8.03914 15.2107 8.41421 15.5858C8.78929 15.9609 9 16.4696 9 17V20Z" fill="currentColor"/>
<path d="M19.9999 13H16.9999C15.939 13 14.9216 13.4214 14.1714 14.1716C13.4213 14.9217 12.9999 15.9391 12.9999 17V20C12.9999 21.0609 13.4213 22.0783 14.1714 22.8284C14.9216 23.5786 15.939 24 16.9999 24H19.9999C21.0607 24 22.0781 23.5786 22.8283 22.8284C23.5784 22.0783 23.9999 21.0609 23.9999 20V17C23.9999 15.9391 23.5784 14.9217 22.8283 14.1716C22.0781 13.4214 21.0607 13 19.9999 13ZM21.9999 20C21.9999 20.5304 21.7892 21.0392 21.4141 21.4142C21.039 21.7893 20.5303 22 19.9999 22H16.9999C16.4694 22 15.9607 21.7893 15.5857 21.4142C15.2106 21.0392 14.9999 20.5304 14.9999 20V17C14.9999 16.4696 15.2106 15.9609 15.5857 15.5858C15.9607 15.2107 16.4694 15 16.9999 15H19.9999C20.5303 15 21.039 15.2107 21.4141 15.5858C21.7892 15.9609 21.9999 16.4696 21.9999 17V20Z" fill="currentColor"/>
</g>
<defs>
<clipPath id="clip0_403_3058">
<rect width="24" height="24" fill="white"/>
</clipPath>
</defs>
</svg>
