<svg width="24" height="24" viewBox="0 0 24 24" fill="none" xmlns="http://www.w3.org/2000/svg">
<g clip-path="url(#clip0_406_2034)">
<path d="M17.0001 0H7.00012C5.67404 0 4.40227 0.526785 3.46459 1.46447C2.52691 2.40215 2.00012 3.67392 2.00012 5V11H22.0001V5C22.0001 3.67392 21.4733 2.40215 20.5357 1.46447C19.598 0.526785 18.3262 0 17.0001 0V0ZM13.0001 7H11.0001C10.7349 7 10.4806 6.89465 10.293 6.70711C10.1055 6.51957 10.0001 6.26522 10.0001 6C10.0001 5.73479 10.1055 5.48043 10.293 5.2929C10.4806 5.10536 10.7349 5 11.0001 5H13.0001C13.2653 5 13.5197 5.10536 13.7072 5.2929C13.8948 5.48043 14.0001 5.73479 14.0001 6C14.0001 6.26522 13.8948 6.51957 13.7072 6.70711C13.5197 6.89465 13.2653 7 13.0001 7Z" fill="currentColor"/>
<path d="M2.00012 19C2.00012 19.6566 2.12945 20.3068 2.38072 20.9134C2.632 21.5201 3.0003 22.0713 3.46459 22.5355C4.40227 23.4732 5.67404 24 7.00012 24H17.0001C17.6567 24 18.3069 23.8707 18.9135 23.6194C19.5202 23.3681 20.0714 22.9998 20.5357 22.5355C20.9999 22.0713 21.3682 21.5201 21.6195 20.9134C21.8708 20.3068 22.0001 19.6566 22.0001 19V13H2.00012V19ZM11.0001 17H13.0001C13.2653 17 13.5197 17.1054 13.7072 17.2929C13.8948 17.4804 14.0001 17.7348 14.0001 18C14.0001 18.2652 13.8948 18.5196 13.7072 18.7071C13.5197 18.8947 13.2653 19 13.0001 19H11.0001C10.7349 19 10.4806 18.8947 10.293 18.7071C10.1055 18.5196 10.0001 18.2652 10.0001 18C10.0001 17.7348 10.1055 17.4804 10.293 17.2929C10.4806 17.1054 10.7349 17 11.0001 17Z" fill="currentColor"/>
</g>
<defs>
<clipPath id="clip0_406_2034">
<rect width="24" height="24" fill="white"/>
</clipPath>
</defs>
</svg>
