<svg width="24" height="24" viewBox="0 0 24 24" fill="none" xmlns="http://www.w3.org/2000/svg">
<g clip-path="url(#clip0_406_1892)">
<path d="M21.4998 14.119L18.0168 12L21.4998 9.881C21.8622 9.66399 22.1776 9.37699 22.4279 9.03676C22.6781 8.69653 22.8581 8.30987 22.9573 7.89935C23.0565 7.48882 23.073 7.06265 23.0058 6.64569C22.9385 6.22873 22.789 5.82934 22.5657 5.4708C22.3425 5.11227 22.0501 4.80177 21.7056 4.55744C21.3612 4.3131 20.9715 4.1398 20.5593 4.04767C20.1471 3.95553 19.7207 3.9464 19.305 4.0208C18.8892 4.09519 18.4925 4.25164 18.1378 4.481L14.9998 6.49V3C14.9998 2.20435 14.6838 1.44129 14.1212 0.87868C13.5586 0.31607 12.7955 0 11.9998 0C11.2042 0 10.4411 0.31607 9.87852 0.87868C9.31591 1.44129 8.99984 2.20435 8.99984 3V6.588L5.86184 4.481C5.14622 4.05238 4.29086 3.92201 3.48004 4.11797C2.66922 4.31394 1.96782 4.82056 1.52694 5.5287C1.08605 6.23684 0.940976 7.08982 1.12295 7.9039C1.30493 8.71797 1.7994 9.42799 2.49984 9.881L5.98284 12L2.49984 14.119C1.7994 14.572 1.30493 15.282 1.12295 16.0961C0.940976 16.9102 1.08605 17.7632 1.52694 18.4713C1.96782 19.1794 2.66922 19.6861 3.48004 19.882C4.29086 20.078 5.14622 19.9476 5.86184 19.519L8.99984 17.481V21C8.99984 21.7956 9.31591 22.5587 9.87852 23.1213C10.4411 23.6839 11.2042 24 11.9998 24C12.7955 24 13.5586 23.6839 14.1212 23.1213C14.6838 22.5587 14.9998 21.7956 14.9998 21V17.42L18.1378 19.52C18.8535 19.9486 19.7088 20.079 20.5196 19.883C21.3305 19.6871 22.0319 19.1804 22.4727 18.4723C22.9136 17.7642 23.0587 16.9112 22.8767 16.0971C22.6947 15.283 22.2003 14.573 21.4998 14.12V14.119Z" fill="currentColor"/>
</g>
<defs>
<clipPath id="clip0_406_1892">
<rect width="24" height="24" fill="white"/>
</clipPath>
</defs>
</svg>
