<svg width="24" height="24" viewBox="0 0 24 24" fill="none" xmlns="http://www.w3.org/2000/svg">
<g clip-path="url(#clip0_403_3170)">
<path d="M18.8482 11.53C19.5073 10.4632 19.895 9.25123 19.9772 8C19.9772 7.73478 19.8719 7.48043 19.6843 7.29289C19.4968 7.10536 19.2424 7 18.9772 7C18.712 7 18.4577 7.10536 18.2701 7.29289C18.0826 7.48043 17.9772 7.73478 17.9772 8C17.8961 8.87587 17.6138 9.72117 17.1522 10.47C17.0826 10.5816 17.0357 10.7059 17.0141 10.8356C16.9925 10.9654 16.9967 11.0981 17.0264 11.2263C17.0561 11.3544 17.1108 11.4754 17.1873 11.5825C17.2638 11.6895 17.3606 11.7804 17.4722 11.85C17.5839 11.9196 17.7081 11.9665 17.8379 11.9881C17.9676 12.0097 18.1004 12.0055 18.2285 11.9758C18.4873 11.9158 18.7117 11.7554 18.8522 11.53H18.8482Z" fill="currentColor"/>
<path d="M8.97685 7C8.71163 7 8.45728 7.10536 8.26975 7.29289C8.08221 7.48043 7.97685 7.73478 7.97685 8C7.89571 8.87587 7.61337 9.72117 7.15185 10.47C7.01129 10.6954 6.96604 10.9675 7.02605 11.2263C7.08606 11.4851 7.24642 11.7094 7.47185 11.85C7.69729 11.9906 7.96933 12.0358 8.22813 11.9758C8.48693 11.9158 8.71129 11.7554 8.85185 11.53C9.50953 10.4629 9.89578 9.25089 9.97685 8C9.97685 7.73478 9.87149 7.48043 9.68395 7.29289C9.49642 7.10536 9.24207 7 8.97685 7Z" fill="currentColor"/>
<path d="M19.4999 18.589C18.8179 18.227 18.1139 17.852 18.0159 17.427C17.9699 17.234 17.9909 16.799 18.5309 15.954C21.6999 15.5 23.9999 11.025 23.9999 7.00003C24.0279 6.20458 23.8918 5.41188 23.6001 4.67129C23.3085 3.9307 22.8676 3.25806 22.3047 2.69524C21.7419 2.13242 21.0693 1.69147 20.3287 1.39982C19.5881 1.10818 18.7954 0.972096 17.9999 1.00003C17.0329 0.973547 16.0744 1.18678 15.2098 1.62073C14.3453 2.05467 13.6015 2.69583 13.0449 3.48703C12.2731 2.15546 11.0836 1.11566 9.66084 0.528793C8.23804 -0.0580785 6.66139 -0.159247 5.17526 0.240967C3.68912 0.641181 2.3765 1.52043 1.44083 2.74243C0.505155 3.96444 -0.0013051 5.46095 -5.87403e-05 7.00003C-5.87403e-05 10.971 2.25694 15.485 5.38994 16.685C5.17317 17.046 5.03991 17.4509 4.99994 17.87C4.99994 19.441 6.48894 20.137 7.57594 20.646C8.17594 20.926 8.99994 21.311 8.99994 21.609C8.91847 21.9196 8.77266 22.2095 8.57194 22.46C8.50103 22.5706 8.45259 22.6941 8.42939 22.8234C8.40618 22.9527 8.40868 23.0852 8.43672 23.2136C8.46476 23.3419 8.51781 23.4635 8.59283 23.5713C8.66785 23.6791 8.76337 23.7711 8.87394 23.842C9.09725 23.9852 9.36831 24.0339 9.62749 23.9773C9.75582 23.9492 9.87737 23.8962 9.9852 23.8211C10.093 23.7461 10.185 23.6506 10.2559 23.54C10.6804 22.979 10.9382 22.3098 10.9999 21.609C10.9999 20.038 9.51094 19.342 8.42394 18.834C7.82394 18.553 6.99994 18.168 6.99094 17.969C7.14297 17.6108 7.33341 17.2702 7.55894 16.953C9.91094 16.647 11.8899 14.453 13.0109 11.753C13.6406 13.4204 14.8531 14.8031 16.4239 15.645C16.0514 16.3279 15.9256 17.1183 16.0679 17.883C16.3739 19.193 17.5869 19.838 18.5619 20.357C19.1779 20.685 19.8749 21.057 19.9809 21.425C20.0072 21.8104 19.8956 22.1925 19.6659 22.503C19.5992 22.6168 19.5557 22.7426 19.5378 22.8733C19.52 23.004 19.5281 23.1369 19.5618 23.2644C19.5956 23.3919 19.6541 23.5114 19.7343 23.6162C19.8144 23.721 19.9144 23.8089 20.0286 23.8748C20.1428 23.9407 20.2689 23.9834 20.3997 24.0004C20.5305 24.0174 20.6634 24.0084 20.7906 23.9738C20.9179 23.9393 21.0371 23.8799 21.1413 23.7991C21.2455 23.7183 21.3328 23.6177 21.3979 23.503C21.6594 23.124 21.8393 22.6948 21.9264 22.2426C22.0135 21.7904 22.0059 21.3251 21.9039 20.876C21.6813 20.3505 21.353 19.8763 20.9395 19.4829C20.5259 19.0895 20.0359 18.7852 19.4999 18.589ZM6.99994 15C4.35394 15 1.99994 10.526 1.99994 7.00003C1.99994 5.67395 2.52673 4.40218 3.46441 3.4645C4.40209 2.52682 5.67386 2.00003 6.99994 2.00003C8.32602 2.00003 9.59779 2.52682 10.5355 3.4645C11.4732 4.40218 11.9999 5.67395 11.9999 7.00003C11.9999 10.526 9.64594 15 6.99994 15ZM13.9999 7.00003C13.9698 6.46685 14.0526 5.93331 14.243 5.43435C14.4333 4.93539 14.7269 4.48226 15.1045 4.10464C15.4822 3.72702 15.9353 3.43342 16.4343 3.24306C16.9332 3.0527 17.4668 2.96989 17.9999 3.00003C18.5331 2.96989 19.0667 3.0527 19.5656 3.24306C20.0646 3.43342 20.5177 3.72702 20.8953 4.10464C21.273 4.48226 21.5666 4.93539 21.7569 5.43435C21.9473 5.93331 22.0301 6.46685 21.9999 7.00003C21.9999 10.4 19.9439 14 17.9999 14C16.0559 14 13.9999 10.4 13.9999 7.00003Z" fill="currentColor"/>
</g>
<defs>
<clipPath id="clip0_403_3170">
<rect width="24" height="24" fill="white"/>
</clipPath>
</defs>
</svg>
