<svg width="24" height="24" viewBox="0 0 24 24" fill="none" xmlns="http://www.w3.org/2000/svg">
<g clip-path="url(#clip0_406_2282)">
<path d="M24 12.0001C24.0012 14.8654 22.9719 17.6356 21.1 19.8051C19.5887 18.7574 18.4135 17.294 17.717 15.5921L19.375 14.9291C19.497 14.8803 19.6082 14.8081 19.7023 14.7164C19.7964 14.6247 19.8714 14.5153 19.9233 14.3946C19.9751 14.2739 20.0026 14.1442 20.0043 14.0128C20.006 13.8814 19.9817 13.751 19.933 13.6291C19.8843 13.5071 19.812 13.3958 19.7203 13.3018C19.6286 13.2077 19.5193 13.1326 19.3986 13.0808C19.2779 13.029 19.1481 13.0015 19.0168 12.9998C18.8854 12.9981 18.755 13.0223 18.633 13.0711L17.167 13.6581C17.0625 13.1114 17.0066 12.5566 17 12.0001C17.0053 11.4437 17.0598 10.8888 17.163 10.3421L18.629 10.9291C18.8754 11.0274 19.1508 11.0239 19.3946 10.9193C19.6384 10.8146 19.8306 10.6174 19.929 10.3711C20.0274 10.1247 20.0239 9.84928 19.9193 9.60549C19.8146 9.36169 19.6174 9.16945 19.371 9.07105L17.713 8.40805C18.4115 6.70743 19.5879 5.24577 21.1 4.20005C22.9708 6.36817 24 9.13641 24 12.0001ZM15.857 16.3341L14.371 16.9291C14.249 16.9778 14.1186 17.002 13.9873 17.0003C13.8559 16.9986 13.7262 16.9711 13.6055 16.9193C13.4847 16.8675 13.3754 16.7924 13.2837 16.6983C13.192 16.6043 13.1197 16.4931 13.071 16.3711C13.0223 16.2491 12.9981 16.1187 12.9998 15.9873C13.0014 15.8559 13.029 15.7262 13.0808 15.6055C13.1326 15.4848 13.2077 15.3754 13.3017 15.2837C13.3958 15.192 13.507 15.1198 13.629 15.0711L15.273 14.4141C15.0974 13.6212 15.0059 12.8121 15 12.0001C15.0059 11.188 15.0974 10.3789 15.273 9.58605L13.629 8.92905C13.507 8.88033 13.3958 8.80806 13.3017 8.71636C13.2077 8.62466 13.1326 8.51533 13.0808 8.39462C13.029 8.2739 13.0014 8.14416 12.9998 8.0128C12.9981 7.88145 13.0223 7.75105 13.071 7.62905C13.1197 7.50705 13.192 7.39585 13.2837 7.30178C13.3754 7.20771 13.4847 7.13263 13.6055 7.08081C13.7262 7.029 13.8559 7.00147 13.9873 6.99979C14.1186 6.99812 14.249 7.02233 14.371 7.07105L15.857 7.67105C16.6536 5.72275 17.971 4.03131 19.665 2.78205C17.5173 0.989826 14.8096 0.00641093 12.0123 0.00257474C9.21501 -0.00126145 6.50469 0.974723 4.35202 2.76105C6.04186 4.01726 7.35594 5.71173 8.15202 7.66105L9.63302 7.06805C9.75502 7.01933 9.88542 6.99512 10.0168 6.99679C10.1481 6.99847 10.2779 7.026 10.3986 7.07781C10.5193 7.12963 10.6286 7.20471 10.7203 7.29878C10.812 7.39285 10.8843 7.50405 10.933 7.62605C10.9817 7.74805 11.006 7.87845 11.0043 8.0098C11.0026 8.14116 10.9751 8.2709 10.9233 8.39162C10.8714 8.51233 10.7964 8.62166 10.7023 8.71336C10.6082 8.80506 10.497 8.87733 10.375 8.92605L8.73202 9.58305C8.90579 10.3771 8.99562 11.1872 9.00002 12.0001C8.99409 12.812 8.90293 13.6211 8.72802 14.4141L10.371 15.0711C10.6174 15.1694 10.8146 15.3617 10.9193 15.6055C11.0239 15.8493 11.0274 16.1247 10.929 16.3711C10.8306 16.6174 10.6384 16.8146 10.3946 16.9193C10.1508 17.0239 9.87541 17.0275 9.62902 16.9291L8.14802 16.3361C7.35194 18.2854 6.03786 19.9798 4.34802 21.2361C6.50011 23.0231 9.2101 24 12.0074 23.997C14.8047 23.9941 17.5127 23.0116 19.661 21.2201C17.9689 19.9711 16.6529 18.2808 15.857 16.3341ZM6.29102 15.5941L4.62902 14.9291C4.50702 14.8803 4.39582 14.8081 4.30175 14.7164C4.20768 14.6247 4.1326 14.5153 4.08078 14.3946C4.02897 14.2739 4.00144 14.1442 3.99976 14.0128C3.99809 13.8814 4.0223 13.751 4.07102 13.6291C4.11974 13.5071 4.19201 13.3958 4.28371 13.3018C4.37541 13.2077 4.48474 13.1326 4.60546 13.0808C4.72617 13.029 4.85591 13.0015 4.98727 12.9998C5.11862 12.9981 5.24902 13.0223 5.37102 13.0711L6.83802 13.6581C6.94039 13.1112 6.99459 12.5564 7.00002 12.0001C6.99459 11.4437 6.94039 10.8889 6.83802 10.3421L5.37102 10.9291C5.24902 10.9778 5.11862 11.002 4.98727 11.0003C4.85591 10.9986 4.72617 10.9711 4.60546 10.9193C4.48474 10.8675 4.37541 10.7924 4.28371 10.6983C4.19201 10.6043 4.11974 10.4931 4.07102 10.3711C4.0223 10.2491 3.99809 10.1187 3.99976 9.9873C4.00144 9.85594 4.02897 9.7262 4.08078 9.60549C4.1326 9.48477 4.20768 9.37544 4.30175 9.28374C4.39582 9.19204 4.50702 9.11977 4.62902 9.07105L6.29102 8.40605C5.59786 6.70154 4.42689 5.23365 2.91902 4.17905C1.03643 6.34977 0 9.1267 0 12.0001C0 14.8734 1.03643 17.6503 2.91902 19.8211C4.42689 18.7665 5.59786 17.2986 6.29102 15.5941Z" fill="currentColor"/>
</g>
<defs>
<clipPath id="clip0_406_2282">
<rect width="24" height="24" fill="white"/>
</clipPath>
</defs>
</svg>
