<svg width="24" height="24" viewBox="0 0 24 24" fill="none" xmlns="http://www.w3.org/2000/svg">
<g clip-path="url(#clip0_406_2254)">
<path d="M9 9.5C9 9.99445 8.85338 10.4778 8.57867 10.8889C8.30397 11.3 7.91352 11.6205 7.45671 11.8097C6.99989 11.9989 6.49723 12.0484 6.01227 11.952C5.52732 11.8555 5.08186 11.6174 4.73223 11.2678C4.3826 10.9181 4.1445 10.4727 4.04804 9.98773C3.95157 9.50277 4.00108 9.00011 4.1903 8.54329C4.37952 8.08648 4.69995 7.69603 5.11107 7.42133C5.5222 7.14662 6.00555 7 6.5 7C7.16304 7 7.79893 7.26339 8.26777 7.73223C8.73661 8.20107 9 8.83696 9 9.5ZM24 12V10C24 8.93913 23.5786 7.92172 22.8284 7.17157C22.0783 6.42143 21.0609 6 20 6H15C13.9391 6 12.9217 6.42143 12.1716 7.17157C11.4214 7.92172 11 8.93913 11 10V12H24ZM2 14V3C2 2.73478 1.89464 2.48043 1.70711 2.29289C1.51957 2.10536 1.26522 2 1 2C0.734784 2 0.48043 2.10536 0.292893 2.29289C0.105357 2.48043 0 2.73478 0 3L0 21C0 21.2652 0.105357 21.5196 0.292893 21.7071C0.48043 21.8946 0.734784 22 1 22C1.26522 22 1.51957 21.8946 1.70711 21.7071C1.89464 21.5196 2 21.2652 2 21V19H22V21C22 21.2652 22.1054 21.5196 22.2929 21.7071C22.4804 21.8946 22.7348 22 23 22C23.2652 22 23.5196 21.8946 23.7071 21.7071C23.8946 21.5196 24 21.2652 24 21V14H2Z" fill="currentColor"/>
</g>
<defs>
<clipPath id="clip0_406_2254">
<rect width="24" height="24" fill="white"/>
</clipPath>
</defs>
</svg>
