<svg width="24" height="24" viewBox="0 0 24 24" fill="none" xmlns="http://www.w3.org/2000/svg">
<g clip-path="url(#clip0_403_3112)">
<path d="M19.4998 9.00003H18.9998V7.00003C18.9998 6.73481 18.8945 6.48046 18.7069 6.29292C18.5194 6.10538 18.265 6.00003 17.9998 6.00003C18.0125 5.29071 17.8315 4.59135 17.4763 3.97727C17.1211 3.36318 16.605 2.85762 15.9838 2.51503C15.2655 2.11525 14.4435 1.94102 13.6248 2.01503C13.5232 2.02763 13.4201 2.01372 13.3254 1.97464C13.2308 1.93556 13.1479 1.87265 13.0848 1.79203C12.6496 1.22183 12.0846 0.763715 11.4367 0.455715C10.7889 0.147716 10.0769 -0.00127452 9.35993 0.0211188C8.64295 0.0435122 7.94166 0.236643 7.31431 0.58447C6.68695 0.932298 6.15163 1.42478 5.75282 2.02103C4.73836 2.08211 3.78537 2.52771 3.08805 3.26703C2.39072 4.00634 2.00154 4.98374 1.99982 6.00003C1.7346 6.00003 1.48025 6.10538 1.29271 6.29292C1.10517 6.48046 0.999817 6.73481 0.999817 7.00003V19C1.0014 20.3256 1.5287 21.5965 2.46604 22.5338C3.40337 23.4711 4.67422 23.9984 5.99982 24H13.9998C15.3254 23.9984 16.5963 23.4711 17.5336 22.5338C18.4709 21.5965 18.9982 20.3256 18.9998 19H19.4998C20.4281 19 21.3183 18.6313 21.9747 17.9749C22.6311 17.3185 22.9998 16.4283 22.9998 15.5V12.5C22.9998 11.5718 22.6311 10.6815 21.9747 10.0252C21.3183 9.36878 20.4281 9.00003 19.4998 9.00003ZM5.99982 4.00003C6.05733 4.0019 6.11456 4.00893 6.17082 4.02103C6.38632 4.05607 6.60738 4.01961 6.80022 3.91723C6.99307 3.81485 7.14711 3.65217 7.23882 3.45403C7.42165 3.06588 7.7013 2.73133 8.05086 2.48254C8.40041 2.23376 8.80811 2.07913 9.23473 2.03353C9.66135 1.98792 10.0925 2.05288 10.4868 2.22215C10.881 2.39142 11.2251 2.6593 11.4858 3.00003C11.7538 3.35599 12.1096 3.63635 12.5183 3.81372C12.927 3.9911 13.3748 4.05943 13.8178 4.01203C14.245 3.97838 14.6725 4.07273 15.0458 4.28303C15.3434 4.45827 15.5887 4.70984 15.7565 5.01171C15.9242 5.31358 16.0082 5.65479 15.9998 6.00003H11.9998C11.2042 6.00003 10.4411 6.3161 9.8785 6.87871C9.31589 7.44132 8.99982 8.20438 8.99982 9.00003V12C8.99982 12.2652 8.89446 12.5196 8.70692 12.7071C8.51939 12.8947 8.26503 13 7.99982 13C7.7346 13 7.48025 12.8947 7.29271 12.7071C7.10517 12.5196 6.99982 12.2652 6.99982 12V9.00003C6.99982 8.20438 6.68375 7.44132 6.12114 6.87871C5.55853 6.3161 4.79547 6.00003 3.99982 6.00003C3.99982 5.46959 4.21053 4.96089 4.5856 4.58581C4.96068 4.21074 5.46938 4.00003 5.99982 4.00003ZM16.9998 19C16.9998 19.7957 16.6837 20.5587 16.1211 21.1213C15.5585 21.684 14.7955 22 13.9998 22H5.99982C5.20417 22 4.44111 21.684 3.8785 21.1213C3.31589 20.5587 2.99982 19.7957 2.99982 19V8.00003H3.99982C4.26503 8.00003 4.51939 8.10538 4.70692 8.29292C4.89446 8.48046 4.99982 8.73481 4.99982 9.00003V12C4.99982 12.7957 5.31589 13.5587 5.8785 14.1213C6.44111 14.684 7.20417 15 7.99982 15C8.79547 15 9.55853 14.684 10.1211 14.1213C10.6837 13.5587 10.9998 12.7957 10.9998 12V9.00003C10.9998 8.73481 11.1052 8.48046 11.2927 8.29292C11.4802 8.10538 11.7346 8.00003 11.9998 8.00003H16.9998V19ZM20.9998 15.5C20.9998 15.8979 20.8418 16.2794 20.5605 16.5607C20.2792 16.842 19.8976 17 19.4998 17H18.9998V11H19.4998C19.8976 11 20.2792 11.1581 20.5605 11.4394C20.8418 11.7207 20.9998 12.1022 20.9998 12.5V15.5Z" fill="currentColor"/>
</g>
<defs>
<clipPath id="clip0_403_3112">
<rect width="24" height="24" fill="white"/>
</clipPath>
</defs>
</svg>
