<svg width="24" height="24" viewBox="0 0 24 24" fill="none" xmlns="http://www.w3.org/2000/svg">
<g clip-path="url(#clip0_406_2127)">
<path d="M21 6.99992C20.2043 6.99992 19.4413 7.31599 18.8786 7.8786C18.316 8.44121 18 9.20427 18 9.99992C18 10.7956 18.316 11.5586 18.8786 12.1212C19.4413 12.6838 20.2043 12.9999 21 12.9999C21.2112 12.9994 21.4217 12.9763 21.628 12.9309C21.0748 15.1847 19.8898 17.2338 18.2123 18.8375C16.5348 20.4411 14.4344 21.5327 12.158 21.9839C12.0186 22.0098 11.8752 22.0041 11.7383 21.9673C11.6014 21.9304 11.4745 21.8633 11.367 21.7709C11.2522 21.6757 11.1599 21.5563 11.0964 21.4213C11.033 21.2863 11.0001 21.1391 11 20.9899V19.9289C12.6641 19.7617 14.2596 19.1797 15.6406 18.2363C17.0217 17.293 18.144 16.0183 18.905 14.5289C18.0381 14.132 17.3035 13.4944 16.7884 12.6921C16.2734 11.8897 15.9996 10.9563 15.9996 10.0029C15.9996 9.04949 16.2734 8.11612 16.7884 7.31378C17.3035 6.51144 18.0381 5.87388 18.905 5.47692C18.1199 3.92785 16.9449 2.60994 15.4958 1.65293C14.0466 0.695923 12.3732 0.132815 10.6402 0.0190434C8.90731 -0.0947283 7.17463 0.244759 5.61277 1.00408C4.05092 1.76341 2.71373 2.91639 1.73286 4.34952C0.751994 5.78265 0.161256 7.44651 0.0188075 9.17731C-0.123641 10.9081 0.187111 12.6462 0.920471 14.2204C1.65383 15.7946 2.78451 17.1507 4.20121 18.1552C5.6179 19.1596 7.27176 19.7778 8.99996 19.9489V20.9899C8.99987 21.4319 9.09703 21.8685 9.28453 22.2688C9.47204 22.669 9.74531 23.0231 10.085 23.3059C10.4175 23.5861 10.8079 23.7893 11.2282 23.901C11.6484 24.0127 12.0882 24.0301 12.516 23.9519C15.7462 23.3089 18.6546 21.5683 20.7478 19.0253C22.8409 16.4823 23.9899 13.2935 24 9.99992C24 9.20427 23.6839 8.44121 23.1213 7.8786C22.5587 7.31599 21.7956 6.99992 21 6.99992ZM9.99996 7.99992C10.3955 7.99992 10.7822 8.11722 11.1111 8.33698C11.44 8.55674 11.6963 8.8691 11.8477 9.23455C11.9991 9.6 12.0387 10.0021 11.9615 10.3901C11.8844 10.7781 11.6939 11.1344 11.4142 11.4141C11.1345 11.6938 10.7781 11.8843 10.3901 11.9615C10.0022 12.0387 9.60005 11.9991 9.2346 11.8477C8.86915 11.6963 8.55679 11.44 8.33703 11.1111C8.11726 10.7822 7.99996 10.3955 7.99996 9.99992C7.99996 9.46948 8.21068 8.96078 8.58575 8.5857C8.96082 8.21063 9.46953 7.99992 9.99996 7.99992Z" fill="currentColor"/>
</g>
<defs>
<clipPath id="clip0_406_2127">
<rect width="24" height="24" fill="white"/>
</clipPath>
</defs>
</svg>
