<svg width="24" height="24" viewBox="0 0 24 24" fill="none" xmlns="http://www.w3.org/2000/svg">
<g clip-path="url(#clip0_406_2248)">
<path d="M2.84902 23.55C3.39507 23.7834 3.99877 23.8467 4.58137 23.7319C5.16398 23.617 5.69843 23.3292 6.11502 22.906L12 17.053L17.885 22.906C18.1594 23.1844 18.4863 23.4056 18.8468 23.5568C19.2072 23.7081 19.5941 23.7863 19.985 23.787C20.3868 23.7858 20.7844 23.7053 21.155 23.55C21.7055 23.3272 22.1761 22.9436 22.5052 22.4493C22.8344 21.9549 23.0068 21.3728 23 20.779V5C22.9984 3.67441 22.4711 2.40356 21.5338 1.46622C20.5965 0.528882 19.3256 0.00158786 18 0L6.00002 0C4.67443 0.00158786 3.40358 0.528882 2.46624 1.46622C1.5289 2.40356 1.00161 3.67441 1.00002 5V20.779C0.993568 21.3733 1.1666 21.9557 1.49649 22.4501C1.82637 22.9445 2.29776 23.3278 2.84902 23.55Z" fill="currentColor"/>
</g>
<defs>
<clipPath id="clip0_406_2248">
<rect width="24" height="24" fill="white"/>
</clipPath>
</defs>
</svg>
