<svg width="24" height="24" viewBox="0 0 24 24" fill="none" xmlns="http://www.w3.org/2000/svg">
<g clip-path="url(#clip0_403_2873)">
<path d="M19 1.00012H5C3.67441 1.00171 2.40356 1.529 1.46622 2.46634C0.528882 3.40368 0.00158786 4.67453 0 6.00012L0 18.0001C0.00158786 19.3257 0.528882 20.5966 1.46622 21.5339C2.40356 22.4712 3.67441 22.9985 5 23.0001H19C20.3256 22.9985 21.5964 22.4712 22.5338 21.5339C23.4711 20.5966 23.9984 19.3257 24 18.0001V6.00012C23.9984 4.67453 23.4711 3.40368 22.5338 2.46634C21.5964 1.529 20.3256 1.00171 19 1.00012ZM5 3.00012H19C19.7956 3.00012 20.5587 3.31619 21.1213 3.8788C21.6839 4.44141 22 5.20447 22 6.00012V7.00012H2V6.00012C2 5.20447 2.31607 4.44141 2.87868 3.8788C3.44129 3.31619 4.20435 3.00012 5 3.00012ZM19 21.0001H5C4.20435 21.0001 3.44129 20.6841 2.87868 20.1214C2.31607 19.5588 2 18.7958 2 18.0001V9.00012H22V18.0001C22 18.7958 21.6839 19.5588 21.1213 20.1214C20.5587 20.6841 19.7956 21.0001 19 21.0001ZM19 13.0001C19 13.2653 18.8946 13.5197 18.7071 13.7072C18.5196 13.8948 18.2652 14.0001 18 14.0001H6C5.73478 14.0001 5.48043 13.8948 5.29289 13.7072C5.10536 13.5197 5 13.2653 5 13.0001C5 12.7349 5.10536 12.4806 5.29289 12.293C5.48043 12.1055 5.73478 12.0001 6 12.0001H18C18.2652 12.0001 18.5196 12.1055 18.7071 12.293C18.8946 12.4806 19 12.7349 19 13.0001ZM15 17.0001C15 17.2653 14.8946 17.5197 14.7071 17.7072C14.5196 17.8948 14.2652 18.0001 14 18.0001H6C5.73478 18.0001 5.48043 17.8948 5.29289 17.7072C5.10536 17.5197 5 17.2653 5 17.0001C5 16.7349 5.10536 16.4806 5.29289 16.293C5.48043 16.1055 5.73478 16.0001 6 16.0001H14C14.2652 16.0001 14.5196 16.1055 14.7071 16.293C14.8946 16.4806 15 16.7349 15 17.0001ZM3 5.00012C3 4.80234 3.05865 4.609 3.16853 4.44455C3.27841 4.2801 3.43459 4.15193 3.61732 4.07624C3.80004 4.00055 4.00111 3.98075 4.19509 4.01934C4.38907 4.05792 4.56725 4.15316 4.70711 4.29302C4.84696 4.43287 4.9422 4.61105 4.98079 4.80503C5.01937 4.99901 4.99957 5.20008 4.92388 5.38281C4.84819 5.56553 4.72002 5.72171 4.55557 5.83159C4.39112 5.94147 4.19778 6.00012 4 6.00012C3.73478 6.00012 3.48043 5.89476 3.29289 5.70723C3.10536 5.51969 3 5.26534 3 5.00012ZM6 5.00012C6 4.80234 6.05865 4.609 6.16853 4.44455C6.27841 4.2801 6.43459 4.15193 6.61732 4.07624C6.80004 4.00055 7.00111 3.98075 7.19509 4.01934C7.38907 4.05792 7.56725 4.15316 7.70711 4.29302C7.84696 4.43287 7.9422 4.61105 7.98079 4.80503C8.01937 4.99901 7.99957 5.20008 7.92388 5.38281C7.84819 5.56553 7.72002 5.72171 7.55557 5.83159C7.39112 5.94147 7.19778 6.00012 7 6.00012C6.73478 6.00012 6.48043 5.89476 6.29289 5.70723C6.10536 5.51969 6 5.26534 6 5.00012ZM9 5.00012C9 4.80234 9.05865 4.609 9.16853 4.44455C9.27841 4.2801 9.43459 4.15193 9.61732 4.07624C9.80004 4.00055 10.0011 3.98075 10.1951 4.01934C10.3891 4.05792 10.5673 4.15316 10.7071 4.29302C10.847 4.43287 10.9422 4.61105 10.9808 4.80503C11.0194 4.99901 10.9996 5.20008 10.9239 5.38281C10.8482 5.56553 10.72 5.72171 10.5556 5.83159C10.3911 5.94147 10.1978 6.00012 10 6.00012C9.73478 6.00012 9.48043 5.89476 9.29289 5.70723C9.10536 5.51969 9 5.26534 9 5.00012Z" fill="currentColor"/>
</g>
<defs>
<clipPath id="clip0_403_2873">
<rect width="24" height="24" fill="white"/>
</clipPath>
</defs>
</svg>
