<svg width="24" height="24" viewBox="0 0 24 24" fill="none" xmlns="http://www.w3.org/2000/svg">
<g clip-path="url(#clip0_406_2203)">
<path d="M17.0001 7C17.0001 7.26522 16.8947 7.51957 16.7072 7.70711C16.5196 7.89464 16.2653 8 16.0001 8H8.00006C7.73484 8 7.48049 7.89464 7.29295 7.70711C7.10542 7.51957 7.00006 7.26522 7.00006 7C7.00006 6.73478 7.10542 6.48043 7.29295 6.29289C7.48049 6.10536 7.73484 6 8.00006 6H16.0001C16.2653 6 16.5196 6.10536 16.7072 6.29289C16.8947 6.48043 17.0001 6.73478 17.0001 7ZM23.0001 5V19C22.9985 20.3256 22.4712 21.5964 21.5338 22.5338C20.5965 23.4711 19.3257 23.9984 18.0001 24H6.00006C4.67447 23.9984 3.40362 23.4711 2.46628 22.5338C1.52894 21.5964 1.00165 20.3256 1.00006 19V5C1.00165 3.67441 1.52894 2.40356 2.46628 1.46622C3.40362 0.528882 4.67447 0.00158786 6.00006 0L18.0001 0C19.3257 0.00158786 20.5965 0.528882 21.5338 1.46622C22.4712 2.40356 22.9985 3.67441 23.0001 5ZM7.00006 18C7.00006 17.8022 6.94141 17.6089 6.83153 17.4444C6.72165 17.28 6.56547 17.1518 6.38274 17.0761C6.20002 17.0004 5.99895 16.9806 5.80497 17.0192C5.61099 17.0578 5.43281 17.153 5.29295 17.2929C5.1531 17.4327 5.05786 17.6109 5.01928 17.8049C4.98069 17.9989 5.00049 18.2 5.07618 18.3827C5.15187 18.5654 5.28004 18.7216 5.44449 18.8315C5.60894 18.9414 5.80228 19 6.00006 19C6.26528 19 6.51963 18.8946 6.70717 18.7071C6.8947 18.5196 7.00006 18.2652 7.00006 18ZM7.00006 14C7.00006 13.8022 6.94141 13.6089 6.83153 13.4444C6.72165 13.28 6.56547 13.1518 6.38274 13.0761C6.20002 13.0004 5.99895 12.9806 5.80497 13.0192C5.61099 13.0578 5.43281 13.153 5.29295 13.2929C5.1531 13.4327 5.05786 13.6109 5.01928 13.8049C4.98069 13.9989 5.00049 14.2 5.07618 14.3827C5.15187 14.5654 5.28004 14.7216 5.44449 14.8315C5.60894 14.9414 5.80228 15 6.00006 15C6.26528 15 6.51963 14.8946 6.70717 14.7071C6.8947 14.5196 7.00006 14.2652 7.00006 14ZM11.0001 18C11.0001 17.8022 10.9414 17.6089 10.8315 17.4444C10.7216 17.28 10.5655 17.1518 10.3827 17.0761C10.2 17.0004 9.99895 16.9806 9.80497 17.0192C9.61099 17.0578 9.43281 17.153 9.29295 17.2929C9.1531 17.4327 9.05786 17.6109 9.01928 17.8049C8.98069 17.9989 9.00049 18.2 9.07618 18.3827C9.15187 18.5654 9.28004 18.7216 9.44449 18.8315C9.60894 18.9414 9.80228 19 10.0001 19C10.2653 19 10.5196 18.8946 10.7072 18.7071C10.8947 18.5196 11.0001 18.2652 11.0001 18ZM11.0001 14C11.0001 13.8022 10.9414 13.6089 10.8315 13.4444C10.7216 13.28 10.5655 13.1518 10.3827 13.0761C10.2 13.0004 9.99895 12.9806 9.80497 13.0192C9.61099 13.0578 9.43281 13.153 9.29295 13.2929C9.1531 13.4327 9.05786 13.6109 9.01928 13.8049C8.98069 13.9989 9.00049 14.2 9.07618 14.3827C9.15187 14.5654 9.28004 14.7216 9.44449 14.8315C9.60894 14.9414 9.80228 15 10.0001 15C10.2653 15 10.5196 14.8946 10.7072 14.7071C10.8947 14.5196 11.0001 14.2652 11.0001 14ZM19.0001 18C19.0001 17.7348 18.8947 17.4804 18.7072 17.2929C18.5196 17.1054 18.2653 17 18.0001 17H14.0001C13.7348 17 13.4805 17.1054 13.293 17.2929C13.1054 17.4804 13.0001 17.7348 13.0001 18C13.0001 18.2652 13.1054 18.5196 13.293 18.7071C13.4805 18.8946 13.7348 19 14.0001 19H18.0001C18.2653 19 18.5196 18.8946 18.7072 18.7071C18.8947 18.5196 19.0001 18.2652 19.0001 18ZM14.0001 15C14.1978 15 14.3912 14.9414 14.5556 14.8315C14.7201 14.7216 14.8483 14.5654 14.9239 14.3827C14.9996 14.2 15.0194 13.9989 14.9808 13.8049C14.9423 13.6109 14.847 13.4327 14.7072 13.2929C14.5673 13.153 14.3891 13.0578 14.1952 13.0192C14.0012 12.9806 13.8001 13.0004 13.6174 13.0761C13.4347 13.1518 13.2785 13.28 13.1686 13.4444C13.0587 13.6089 13.0001 13.8022 13.0001 14C13.0001 14.2652 13.1054 14.5196 13.293 14.7071C13.4805 14.8946 13.7348 15 14.0001 15ZM19.0001 14C19.0001 13.8022 18.9414 13.6089 18.8315 13.4444C18.7216 13.28 18.5655 13.1518 18.3827 13.0761C18.2 13.0004 17.999 12.9806 17.805 13.0192C17.611 13.0578 17.4328 13.153 17.293 13.2929C17.1531 13.4327 17.0579 13.6109 17.0193 13.8049C16.9807 13.9989 17.0005 14.2 17.0762 14.3827C17.1519 14.5654 17.28 14.7216 17.4445 14.8315C17.6089 14.9414 17.8023 15 18.0001 15C18.2653 15 18.5196 14.8946 18.7072 14.7071C18.8947 14.5196 19.0001 14.2652 19.0001 14ZM19.0001 7C19.0001 6.20435 18.684 5.44129 18.1214 4.87868C17.5588 4.31607 16.7957 4 16.0001 4H8.00006C7.20441 4 6.44135 4.31607 5.87874 4.87868C5.31613 5.44129 5.00006 6.20435 5.00006 7C5.00006 7.79565 5.31613 8.55871 5.87874 9.12132C6.44135 9.68393 7.20441 10 8.00006 10H16.0001C16.7957 10 17.5588 9.68393 18.1214 9.12132C18.684 8.55871 19.0001 7.79565 19.0001 7Z" fill="currentColor"/>
</g>
<defs>
<clipPath id="clip0_406_2203">
<rect width="24" height="24" fill="white"/>
</clipPath>
</defs>
</svg>
