<svg width="24" height="24" viewBox="0 0 24 24" fill="none" xmlns="http://www.w3.org/2000/svg">
<g clip-path="url(#clip0_403_3240)">
<path d="M3.00014 7.00012V3.00012C3.00014 2.46969 3.21085 1.96098 3.58592 1.58591C3.961 1.21084 4.46971 1.00012 5.00014 1.00012H9.00014C9.26536 1.00012 9.51971 1.10548 9.70725 1.29302C9.89478 1.48055 10.0001 1.73491 10.0001 2.00012C10.0001 2.26534 9.89478 2.51969 9.70725 2.70723C9.51971 2.89477 9.26536 3.00012 9.00014 3.00012H6.43914L12.3451 8.92612C12.3657 8.94683 12.3902 8.96323 12.4171 8.97439C12.4441 8.98555 12.473 8.99124 12.5021 8.99112C12.5311 8.99135 12.5598 8.9858 12.5866 8.97482C12.6134 8.96383 12.6377 8.94761 12.6581 8.92712L19.5421 2.04312C19.7307 1.86096 19.9833 1.76017 20.2455 1.76245C20.5077 1.76473 20.7586 1.8699 20.944 2.0553C21.1294 2.24071 21.2345 2.49152 21.2368 2.75372C21.2391 3.01592 21.1383 3.26852 20.9561 3.45712L14.0721 10.3411C13.8666 10.5481 13.622 10.7122 13.3524 10.8238C13.0829 10.9354 12.7939 10.9923 12.5021 10.9911C12.2099 10.9918 11.9205 10.9345 11.6506 10.8224C11.3808 10.7103 11.1359 10.5457 10.9301 10.3381L5.00014 4.38912V7.00012C5.00014 7.26534 4.89478 7.51969 4.70724 7.70723C4.51971 7.89477 4.26535 8.00012 4.00014 8.00012C3.73492 8.00012 3.48057 7.89477 3.29303 7.70723C3.10549 7.51969 3.00014 7.26534 3.00014 7.00012ZM24.0001 20.1071L23.9151 21.3711C23.9005 22.0807 23.6077 22.7561 23.0999 23.252C22.5921 23.7478 21.9099 24.0244 21.2001 24.0221C21.1561 24.0221 18.6781 23.7001 18.6781 23.7001C17.9809 23.6807 17.3176 23.3946 16.8248 22.9009C16.3321 22.4072 16.0473 21.7434 16.0291 21.0461L15.8741 19.7541C14.6382 19.2736 13.3261 19.0182 12.0001 19.0001C10.6775 19.0068 9.36763 19.2591 8.13714 19.7441L7.98014 21.0441C7.96243 21.7426 7.67719 22.4076 7.18331 22.9019C6.68943 23.3962 6.02462 23.6819 5.32614 23.7001C5.32614 23.7001 2.84814 24.0221 2.80414 24.0221C2.08255 24.0213 1.39077 23.7343 0.880624 23.2239C0.370481 22.7136 0.0836672 22.0217 0.0831378 21.3001L0.000137831 20.1761C-0.00596792 19.4747 0.128582 18.7791 0.395836 18.1306C0.663091 17.482 1.05763 16.8936 1.55614 16.4001C6.04714 11.9121 17.9561 11.9131 22.4431 16.4001C22.935 16.8843 23.3259 17.4612 23.5932 18.0976C23.8604 18.7339 23.9988 19.4169 24.0001 20.1071ZM22.0001 20.0371C21.9792 19.198 21.6294 18.4007 21.0261 17.8171C17.0441 13.8321 6.39914 14.3881 2.96914 17.8171C2.66435 18.1155 2.42177 18.4713 2.25544 18.8641C2.08911 19.2568 2.00234 19.6786 2.00014 20.1051L2.08114 21.2321C2.06932 21.4249 2.13259 21.6147 2.25769 21.7618C2.38279 21.9089 2.56 22.0018 2.75214 22.0211C2.75214 22.0211 5.21014 21.7011 5.25214 21.7011C5.44346 21.7006 5.6268 21.6244 5.76209 21.4891C5.89737 21.3538 5.97361 21.1704 5.97414 20.9791C5.97414 20.9391 6.21314 18.9291 6.21314 18.9291C6.23371 18.7575 6.29842 18.5941 6.40095 18.455C6.50348 18.3158 6.64032 18.2056 6.79814 18.1351C8.41303 17.3966 10.1664 17.0097 11.9421 17.0001H12.0051C13.7898 17.0262 15.5512 17.4097 17.1851 18.1281C17.3466 18.1971 17.487 18.3073 17.5923 18.4477C17.6976 18.5882 17.7641 18.7538 17.7851 18.9281C17.7851 18.9281 18.0241 20.9381 18.0241 20.9781C18.0247 21.1694 18.1009 21.3528 18.2362 21.4881C18.3715 21.6234 18.5548 21.6996 18.7461 21.7001C18.7901 21.7001 21.2461 22.0201 21.2461 22.0201C21.4278 22.0068 21.5977 21.9252 21.7217 21.7919C21.8458 21.6586 21.9149 21.4833 21.9151 21.3011L22.0001 20.0371Z" fill="currentColor"/>
</g>
<defs>
<clipPath id="clip0_403_3240">
<rect width="24" height="24" fill="white"/>
</clipPath>
</defs>
</svg>
