<svg width="24" height="24" viewBox="0 0 24 24" fill="none" xmlns="http://www.w3.org/2000/svg">
<g clip-path="url(#clip0_406_2121)">
<path d="M20.657 14.8581C20.0794 14.3082 19.3121 14.0022 18.5146 14.0035C17.7172 14.0048 16.9509 14.3134 16.375 14.8651L14.4691 16.4711C12.9132 15.827 11.4999 14.8819 10.3103 13.69C9.12071 12.4982 8.17826 11.0831 7.53706 9.52608L9.13706 7.62608C9.68834 7.05017 9.99656 6.28401 9.99768 5.48678C9.9988 4.68955 9.69273 3.92253 9.14306 3.34508C9.14306 3.34508 7.29206 0.942078 7.26106 0.911078C6.6906 0.336287 5.91677 0.00920429 5.107 0.000595627C4.29722 -0.00801304 3.51662 0.302544 2.93407 0.865078L1.78407 1.86508C-5.93592 10.0731 13.9841 30.0031 22.184 22.1651L23.096 21.1151C23.6749 20.534 24 19.7473 24 18.9271C24 18.1069 23.6749 17.3201 23.096 16.7391C23.064 16.7101 20.657 14.8581 20.657 14.8581ZM22.565 12.5751C27.556 5.22908 18.765 -3.54792 11.4271 1.43908C11.2096 1.59091 11.0613 1.82292 11.0149 2.08407C10.9685 2.34521 11.0277 2.6141 11.1796 2.83158C11.3314 3.04906 11.5634 3.19731 11.8245 3.24372C12.0857 3.29014 12.3546 3.23091 12.5721 3.07908C18.044 -0.678922 24.682 5.96208 20.925 11.4311C20.8467 11.5386 20.7906 11.6607 20.7601 11.7902C20.7295 11.9197 20.7251 12.0539 20.7471 12.1852C20.7691 12.3164 20.8171 12.4419 20.8882 12.5543C20.9593 12.6667 21.0521 12.7639 21.1613 12.84C21.2704 12.9161 21.3936 12.9697 21.5237 12.9976C21.6537 13.0255 21.7881 13.0271 21.9188 13.0025C22.0495 12.9778 22.174 12.9273 22.285 12.8539C22.396 12.7805 22.4912 12.6857 22.565 12.5751ZM18.707 10.7101C18.8945 10.5226 18.9998 10.2682 18.9998 10.0031C18.9998 9.73791 18.8945 9.48361 18.707 9.29608L17 7.58908V5.00008C17 4.73486 16.8947 4.48051 16.7072 4.29297C16.5196 4.10543 16.2653 4.00008 16 4.00008C15.7348 4.00008 15.4805 4.10543 15.2929 4.29297C15.1054 4.48051 15.0001 4.73486 15.0001 5.00008V8.00008C15.0001 8.26527 15.1055 8.51959 15.2931 8.70708L17.293 10.7071C17.4806 10.8945 17.7349 10.9999 18 10.9999C18.2652 10.9999 18.5195 10.8945 18.707 10.7071V10.7101Z" fill="currentColor"/>
</g>
<defs>
<clipPath id="clip0_406_2121">
<rect width="24" height="24" fill="white"/>
</clipPath>
</defs>
</svg>
