<svg width="24" height="24" viewBox="0 0 24 24" fill="none" xmlns="http://www.w3.org/2000/svg">
<g clip-path="url(#clip0_403_3288)">
<path d="M14.9802 7.02303V3.02303C14.9802 2.75781 15.0855 2.50346 15.2731 2.31592C15.4606 2.12839 15.715 2.02303 15.9802 2.02303C16.2454 2.02303 16.4998 2.12839 16.6873 2.31592C16.8748 2.50346 16.9802 2.75781 16.9802 3.02303V5.63403C17.6102 5.00003 21.6812 0.90803 22.2732 0.31603C22.3654 0.22052 22.4758 0.144338 22.5978 0.091929C22.7198 0.03952 22.851 0.0119338 22.9838 0.0107799C23.1166 0.00962613 23.2482 0.0349278 23.3711 0.0852087C23.494 0.13549 23.6057 0.209743 23.6996 0.303635C23.7935 0.397528 23.8677 0.50918 23.918 0.632076C23.9683 0.754973 23.9936 0.886652 23.9924 1.01943C23.9913 1.15221 23.9637 1.28343 23.9113 1.40543C23.8589 1.52744 23.7827 1.63778 23.6872 1.73003C23.0952 2.32203 19.0452 6.39503 18.4192 7.02303H20.9802C21.2454 7.02303 21.4998 7.12839 21.6873 7.31592C21.8748 7.50346 21.9802 7.75781 21.9802 8.02303C21.9802 8.28825 21.8748 8.5426 21.6873 8.73014C21.4998 8.91767 21.2454 9.02303 20.9802 9.02303H16.9802C16.4497 9.02303 15.941 8.81232 15.566 8.43724C15.1909 8.06217 14.9802 7.55346 14.9802 7.02303ZM23.0752 16.762C23.6547 17.3431 23.9801 18.1303 23.9801 18.951C23.9801 19.7717 23.6547 20.5589 23.0752 21.14L22.1632 22.19C13.9722 30.028 -5.95582 10.106 1.76318 1.89003L2.91318 0.89003C3.49482 0.326576 4.27491 0.0147693 5.08468 0.0220679C5.89445 0.0293665 6.66879 0.355184 7.24018 0.92903C7.27118 0.95903 9.12318 3.36703 9.12318 3.36703C9.6711 3.94557 9.97597 4.71241 9.97485 5.50923C9.97374 6.30605 9.66672 7.07203 9.11718 7.64903L7.95918 9.10503C8.60017 10.6621 9.54244 12.0771 10.7319 13.2689C11.9213 14.4608 13.3345 15.4059 14.8902 16.05L16.3552 14.885C16.931 14.334 17.697 14.026 18.494 14.0249C19.291 14.0238 20.0578 14.3297 20.6352 14.879C20.6352 14.879 23.0442 16.732 23.0752 16.762ZM21.7002 18.216C21.7002 18.216 19.3072 16.374 19.2762 16.344C19.0702 16.1398 18.7918 16.0252 18.5017 16.0252C18.2116 16.0252 17.9332 16.1398 17.7272 16.344C17.7002 16.37 15.6832 17.978 15.6832 17.978C15.5473 18.0862 15.3855 18.1571 15.2138 18.1838C15.0422 18.2104 14.8665 18.1919 14.7042 18.13C12.6876 17.3798 10.8559 16.2047 9.33327 14.6845C7.81064 13.1642 6.63265 11.3344 5.87918 9.31903C5.81238 9.15449 5.7906 8.97512 5.81609 8.79937C5.84157 8.62362 5.9134 8.45783 6.02418 8.31903C6.02418 8.31903 7.63218 6.30503 7.65918 6.27903C7.86345 6.07302 7.97806 5.79465 7.97806 5.50453C7.97806 5.21441 7.86345 4.93604 7.65918 4.73003C7.62918 4.70003 5.78718 2.30503 5.78718 2.30503C5.57808 2.11754 5.30519 2.01713 5.02443 2.02438C4.74367 2.03163 4.47633 2.14599 4.27718 2.34403L3.12718 3.34403C-2.51482 10.127 14.7572 26.441 20.7002 20.827L21.6122 19.776C21.8272 19.5787 21.9567 19.3053 21.9731 19.0139C21.9896 18.7225 21.8916 18.4363 21.7002 18.216Z" fill="currentColor"/>
</g>
<defs>
<clipPath id="clip0_403_3288">
<rect width="24" height="24" fill="white"/>
</clipPath>
</defs>
</svg>
