<svg width="24" height="24" viewBox="0 0 24 24" fill="none" xmlns="http://www.w3.org/2000/svg">
<g clip-path="url(#clip0_406_2032)">
<path d="M17.7209 3L16.3079 1.168C16.0264 0.805806 15.6662 0.512417 15.2545 0.310054C14.8429 0.107691 14.3906 0.00166304 13.9319 0L10.0679 0C9.60915 0.00166304 9.15684 0.107691 8.74519 0.310054C8.33353 0.512417 7.97333 0.805806 7.69185 1.168L6.27885 3H17.7209Z" fill="currentColor"/>
<path d="M12.0001 18.0001C14.2093 18.0001 16.0001 16.2092 16.0001 14.0001C16.0001 11.791 14.2093 10.0001 12.0001 10.0001C9.79101 10.0001 8.00015 11.791 8.00015 14.0001C8.00015 16.2092 9.79101 18.0001 12.0001 18.0001Z" fill="currentColor"/>
<path d="M19 4.99988H5C3.67441 5.00147 2.40356 5.52876 1.46622 6.4661C0.528882 7.40343 0.00158786 8.67428 0 9.99987L0 18.9999C0.00158786 20.3254 0.528882 21.5963 1.46622 22.5336C2.40356 23.471 3.67441 23.9983 5 23.9998H19C20.3256 23.9983 21.5964 23.471 22.5338 22.5336C23.4711 21.5963 23.9984 20.3254 24 18.9999V9.99987C23.9984 8.67428 23.4711 7.40343 22.5338 6.4661C21.5964 5.52876 20.3256 5.00147 19 4.99988ZM12 19.9999C10.8133 19.9999 9.65327 19.648 8.66658 18.9887C7.67988 18.3294 6.91085 17.3923 6.45672 16.296C6.0026 15.1996 5.88378 13.9932 6.11529 12.8293C6.3468 11.6654 6.91824 10.5963 7.75736 9.75723C8.59647 8.91812 9.66557 8.34667 10.8295 8.11516C11.9933 7.88365 13.1997 8.00247 14.2961 8.4566C15.3925 8.91072 16.3295 9.67975 16.9888 10.6664C17.6481 11.6531 18 12.8132 18 13.9999C17.9984 15.5907 17.3658 17.1159 16.2409 18.2407C15.116 19.3656 13.5908 19.9983 12 19.9999Z" fill="currentColor"/>
</g>
<defs>
<clipPath id="clip0_406_2032">
<rect width="24" height="24" fill="white"/>
</clipPath>
</defs>
</svg>
