<svg width="24" height="24" viewBox="0 0 24 24" fill="none" xmlns="http://www.w3.org/2000/svg">
<g clip-path="url(#clip0_403_3143)">
<path d="M19 4H18.492L16.308 1.168C16.0265 0.805806 15.6663 0.512417 15.2547 0.310054C14.843 0.107691 14.3907 0.00166304 13.932 0L10.068 0C9.6093 0.00166304 9.15699 0.107691 8.74533 0.310054C8.33368 0.512417 7.97347 0.805806 7.692 1.168L5.508 4H5C3.67441 4.00159 2.40356 4.52888 1.46622 5.46622C0.528882 6.40356 0.00158786 7.67441 0 9L0 19C0.00158786 20.3256 0.528882 21.5964 1.46622 22.5338C2.40356 23.4711 3.67441 23.9984 5 24H19C20.3256 23.9984 21.5964 23.4711 22.5338 22.5338C23.4711 21.5964 23.9984 20.3256 24 19V9C23.9984 7.67441 23.4711 6.40356 22.5338 5.46622C21.5964 4.52888 20.3256 4.00159 19 4ZM9.276 2.39C9.36967 2.26905 9.48969 2.17106 9.62693 2.10348C9.76418 2.0359 9.91502 2.00051 10.068 2H13.932C14.085 2.00066 14.2357 2.03611 14.373 2.10368C14.5102 2.17125 14.6302 2.26916 14.724 2.39L15.966 4H8.034L9.276 2.39ZM22 19C22 19.7956 21.6839 20.5587 21.1213 21.1213C20.5587 21.6839 19.7956 22 19 22H5C4.20435 22 3.44129 21.6839 2.87868 21.1213C2.31607 20.5587 2 19.7956 2 19V9C2 8.20435 2.31607 7.44129 2.87868 6.87868C3.44129 6.31607 4.20435 6 5 6H19C19.7956 6 20.5587 6.31607 21.1213 6.87868C21.6839 7.44129 22 8.20435 22 9V19Z" fill="currentColor"/>
<path d="M11.9999 7.99988C10.8133 7.99988 9.65322 8.35177 8.66652 9.01106C7.67983 9.67035 6.91079 10.6074 6.45666 11.7038C6.00254 12.8001 5.88372 14.0065 6.11523 15.1704C6.34674 16.3343 6.91819 17.4034 7.7573 18.2425C8.59642 19.0816 9.66551 19.6531 10.8294 19.8846C11.9933 20.1161 13.1997 19.9973 14.296 19.5432C15.3924 19.089 16.3295 18.32 16.9888 17.3333C17.648 16.3466 17.9999 15.1866 17.9999 13.9999C17.9984 12.4091 17.3657 10.8839 16.2408 9.75899C15.116 8.63412 13.5908 8.00147 11.9999 7.99988ZM11.9999 17.9999C11.2088 17.9999 10.4355 17.7653 9.77766 17.3258C9.11987 16.8862 8.60717 16.2615 8.30442 15.5306C8.00167 14.7997 7.92246 13.9954 8.0768 13.2195C8.23114 12.4436 8.6121 11.7309 9.17151 11.1715C9.73093 10.612 10.4437 10.2311 11.2196 10.0767C11.9955 9.9224 12.7998 10.0016 13.5307 10.3044C14.2616 10.6071 14.8863 11.1198 15.3258 11.7776C15.7653 12.4354 15.9999 13.2088 15.9999 13.9999C15.9999 15.0607 15.5785 16.0782 14.8284 16.8283C14.0782 17.5785 13.0608 17.9999 11.9999 17.9999Z" fill="currentColor"/>
</g>
<defs>
<clipPath id="clip0_403_3143">
<rect width="24" height="24" fill="white"/>
</clipPath>
</defs>
</svg>
