<svg width="24" height="24" viewBox="0 0 24 24" fill="none" xmlns="http://www.w3.org/2000/svg">
<g clip-path="url(#clip0_406_2246)">
<path d="M23.0001 5H20.4141L22.7071 2.707C22.8893 2.5184 22.9901 2.2658 22.9878 2.0036C22.9855 1.7414 22.8803 1.49059 22.6949 1.30518C22.5095 1.11977 22.2587 1.0146 21.9965 1.01233C21.7343 1.01005 21.4817 1.11084 21.2931 1.293L19.0001 3.586V1C19.0001 0.734784 18.8947 0.48043 18.7072 0.292893C18.5197 0.105357 18.2653 0 18.0001 0C17.7349 0 17.4805 0.105357 17.293 0.292893C17.1055 0.48043 17.0001 0.734784 17.0001 1V5.456C16.1815 4.58461 15.2153 3.86486 14.1461 3.33C13.4034 3.00206 12.5745 2.92372 11.7835 3.10672C10.9926 3.28972 10.2823 3.7242 9.7591 4.345L12.7071 7.293C12.8893 7.4816 12.99 7.7342 12.9878 7.9964C12.9855 8.2586 12.8803 8.50941 12.6949 8.69482C12.5095 8.88023 12.2587 8.9854 11.9965 8.98767C11.7343 8.98995 11.4817 8.88916 11.2931 8.707L8.5211 5.936C7.3841 7.605 5.8601 10.2 4.3341 12.92L6.7071 15.293C6.88926 15.4816 6.99005 15.7342 6.98777 15.9964C6.98549 16.2586 6.88032 16.5094 6.69492 16.6948C6.50951 16.8802 6.2587 16.9854 5.9965 16.9877C5.7343 16.99 5.4817 16.8892 5.2931 16.707L3.3221 14.736C2.2151 16.742 1.1561 18.712 0.300097 20.319C0.0570869 20.792 -0.0295128 21.3298 0.0527749 21.8552C0.135063 22.3805 0.38199 22.8661 0.75798 23.2421C1.13397 23.6181 1.61961 23.865 2.14494 23.9473C2.67026 24.0296 3.20815 23.943 3.6811 23.7C6.5061 22.2 10.4431 20.067 13.7361 18.15L11.2931 15.707C11.1109 15.5184 11.0101 15.2658 11.0124 15.0036C11.0147 14.7414 11.1199 14.4906 11.3053 14.3052C11.4907 14.1198 11.7415 14.0146 12.0037 14.0123C12.2659 14.01 12.5185 14.1108 12.7071 14.293L15.5121 17.1C16.966 16.2881 18.3418 15.3438 19.6221 14.279C20.2547 13.7568 20.6995 13.0422 20.8888 12.2441C21.0782 11.4459 21.0017 10.6077 20.6711 9.857C20.1357 8.78693 19.4157 7.81975 18.5441 7H23.0001C23.2653 7 23.5197 6.89464 23.7072 6.70711C23.8947 6.51957 24.0001 6.26522 24.0001 6C24.0001 5.73478 23.8947 5.48043 23.7072 5.29289C23.5197 5.10536 23.2653 5 23.0001 5Z" fill="currentColor"/>
</g>
<defs>
<clipPath id="clip0_406_2246">
<rect width="24" height="24" fill="white"/>
</clipPath>
</defs>
</svg>
