<svg width="24" height="24" viewBox="0 0 24 24" fill="none" xmlns="http://www.w3.org/2000/svg">
<g clip-path="url(#clip0_403_3171)">
<path d="M22.9999 5H20.4139L22.7069 2.707C22.889 2.5184 22.9898 2.2658 22.9875 2.0036C22.9852 1.7414 22.8801 1.49059 22.6947 1.30518C22.5093 1.11977 22.2585 1.0146 21.9963 1.01233C21.7341 1.01005 21.4815 1.11084 21.2929 1.293L18.9999 3.586V1C18.9999 0.734784 18.8945 0.48043 18.707 0.292893C18.5194 0.105357 18.2651 0 17.9999 0C17.7346 0 17.4803 0.105357 17.2927 0.292893C17.1052 0.48043 16.9999 0.734784 16.9999 1V5.456C16.1813 4.58461 15.2151 3.86486 14.1459 3.33C13.3951 2.99886 12.5568 2.92204 11.7584 3.11122C10.9599 3.3004 10.2452 3.74522 9.72285 4.378C7.96485 6.136 3.06485 15.121 0.299853 20.319C0.0568427 20.792 -0.029757 21.3298 0.0525308 21.8552C0.134819 22.3805 0.381745 22.8661 0.757735 23.2421C1.13373 23.6181 1.61937 23.865 2.14469 23.9473C2.67002 24.0296 3.2079 23.943 3.68085 23.7C8.88085 20.936 17.8639 16.035 19.6219 14.277C20.2544 13.7548 20.6992 13.0402 20.8886 12.2421C21.0779 11.4439 21.0015 10.6057 20.6709 9.855C20.1353 8.78564 19.4153 7.81916 18.5439 7H22.9999C23.2651 7 23.5194 6.89464 23.707 6.70711C23.8945 6.51957 23.9999 6.26522 23.9999 6C23.9999 5.73478 23.8945 5.48043 23.707 5.29289C23.5194 5.10536 23.2651 5 22.9999 5ZM18.2079 12.863C17.4929 13.4747 16.7256 14.0225 15.9149 14.5L13.7069 12.293C13.5183 12.1108 13.2656 12.01 13.0035 12.0123C12.7413 12.0146 12.4904 12.1198 12.305 12.3052C12.1196 12.4906 12.0145 12.7414 12.0122 13.0036C12.0099 13.2658 12.1107 13.5184 12.2929 13.707L14.1629 15.576C11.4169 17.219 7.47385 19.418 2.74185 21.934C2.64733 21.9841 2.53922 22.0026 2.43341 21.9868C2.3276 21.9709 2.22967 21.9215 2.15401 21.8458C2.07835 21.7702 2.02896 21.6723 2.01309 21.5664C1.99723 21.4606 2.01572 21.3525 2.06585 21.258C3.58785 18.397 4.98885 15.834 6.22585 13.64L8.29285 15.707C8.48146 15.8892 8.73406 15.99 8.99625 15.9877C9.25845 15.9854 9.50926 15.8802 9.69467 15.6948C9.88008 15.5094 9.98525 15.2586 9.98753 14.9964C9.98981 14.7342 9.88901 14.4816 9.70685 14.293L7.25085 11.837C8.34085 9.948 9.25685 8.437 9.95985 7.374L12.2929 9.707C12.4815 9.88916 12.7341 9.98995 12.9963 9.98767C13.2585 9.9854 13.5093 9.88023 13.6947 9.69482C13.8801 9.50941 13.9852 9.2586 13.9875 8.9964C13.9898 8.7342 13.889 8.4816 13.7069 8.293L11.1739 5.76C12.0209 4.971 12.5399 4.838 13.3569 5.168C14.4909 5.8152 15.5078 6.64887 16.3649 7.634C17.3504 8.49132 18.1844 9.50856 18.8319 10.643C19.0809 11.223 19.1779 11.894 18.2079 12.863Z" fill="currentColor"/>
</g>
<defs>
<clipPath id="clip0_403_3171">
<rect width="24" height="24" fill="white"/>
</clipPath>
</defs>
</svg>
