<svg width="24" height="24" viewBox="0 0 24 24" fill="none" xmlns="http://www.w3.org/2000/svg">
<g clip-path="url(#clip0_403_3119)">
<path d="M20.0001 12.0001C19.3866 12 18.7814 12.1412 18.2313 12.4128C17.6812 12.6844 17.201 13.079 16.8281 13.5661L16.7581 13.5361C17.0331 12.6841 17.0744 11.7739 16.8775 10.9006C16.6806 10.0272 16.2528 9.22274 15.6388 8.57116C15.0249 7.91959 14.2472 7.44481 13.3871 7.19643C12.527 6.94804 11.6159 6.93515 10.7491 7.15911L10.6581 6.98711C11.3845 6.34083 11.8503 5.45184 11.9681 4.48675C12.086 3.52166 11.8478 2.5467 11.2984 1.74461C10.7489 0.942516 9.92573 0.368336 8.98321 0.129678C8.0407 -0.108979 7.0435 0.00426647 6.1785 0.448193C5.3135 0.892119 4.64007 1.63625 4.28443 2.54114C3.92879 3.44602 3.91535 4.44954 4.24662 5.36363C4.57789 6.27772 5.23113 7.03963 6.08393 7.50657C6.93673 7.97351 7.93054 8.11343 8.87911 7.90011L8.95211 8.03711C7.95216 8.80443 7.2795 9.92162 7.06916 11.1644C6.85882 12.4071 7.12637 13.6835 7.81811 14.7371L5.93311 16.5001C5.08108 16.0294 4.08662 15.8855 3.1361 16.0954C2.18558 16.3053 1.34423 16.8547 0.769707 17.6405C0.195187 18.4263 -0.0730692 19.3946 0.0152078 20.364C0.103485 21.3334 0.542236 22.2374 1.24924 22.9065C1.95625 23.5756 2.88299 23.9639 3.85579 23.9987C4.8286 24.0335 5.78071 23.7124 6.5337 23.0954C7.28668 22.4785 7.78888 21.6082 7.94616 20.6476C8.10345 19.687 7.90504 18.7019 7.38811 17.8771L9.22611 16.1591C10.2356 16.8338 11.4564 17.1176 12.6599 16.9573C13.8635 16.797 14.9674 16.2036 15.7651 15.2881L16.0441 15.4071C15.9231 16.2146 16.052 17.0397 16.4136 17.7718C16.7753 18.5038 17.3523 19.1076 18.0671 19.5021C18.7819 19.8967 19.6004 20.063 20.4125 19.9788C21.2246 19.8946 21.9915 19.5638 22.6102 19.031C23.2289 18.4982 23.6697 17.7888 23.8734 16.9982C24.0771 16.2075 24.034 15.3735 23.7499 14.608C23.4657 13.8426 22.9541 13.1824 22.2838 12.7162C21.6135 12.25 20.8166 12.0001 20.0001 12.0001ZM6.00011 4.00011C6.00011 3.60454 6.11741 3.21786 6.33717 2.88897C6.55693 2.56007 6.86929 2.30372 7.23474 2.15235C7.6002 2.00097 8.00233 1.96137 8.39029 2.03854C8.77825 2.11571 9.13462 2.30619 9.41432 2.58589C9.69403 2.8656 9.88451 3.22196 9.96168 3.60993C10.0389 3.99789 9.99925 4.40002 9.84787 4.76547C9.6965 5.13093 9.44015 5.44328 9.11125 5.66305C8.78235 5.88281 8.39567 6.00011 8.00011 6.00011C7.46968 6.00011 6.96097 5.78939 6.5859 5.41432C6.21082 5.03925 6.00011 4.53054 6.00011 4.00011ZM4.00011 22.0001C3.60455 22.0001 3.21787 21.8828 2.88897 21.663C2.56007 21.4433 2.30373 21.1309 2.15235 20.7655C2.00098 20.4 1.96137 19.9979 2.03854 19.6099C2.11571 19.222 2.30619 18.8656 2.5859 18.5859C2.8656 18.3062 3.22197 18.1157 3.60993 18.0385C3.99789 17.9614 4.40002 18.001 4.76548 18.1523C5.13093 18.3037 5.44329 18.5601 5.66305 18.889C5.88281 19.2179 6.00011 19.6045 6.00011 20.0001C6.00011 20.5305 5.7894 21.0392 5.41432 21.4143C5.03925 21.7894 4.53054 22.0001 4.00011 22.0001ZM12.0001 15.0001C11.3508 14.9988 10.7194 14.7869 10.2008 14.3962C9.68221 14.0055 9.30436 13.4571 9.12402 12.8334C8.94367 12.2096 8.97057 11.5441 9.20067 10.937C9.43077 10.3298 9.85166 9.81368 10.4001 9.46611L10.8071 9.24911C11.2161 9.07121 11.6595 8.98674 12.1053 9.00183C12.551 9.01691 12.9877 9.13119 13.3837 9.33633C13.7797 9.54147 14.125 9.83232 14.3944 10.1877C14.6638 10.5431 14.8506 10.9541 14.9412 11.3908C15.0318 11.8274 15.0239 12.2788 14.9181 12.712C14.8122 13.1453 14.6111 13.5495 14.3294 13.8952C14.0477 14.2409 13.6924 14.5195 13.2895 14.7106C12.8866 14.9018 12.4461 15.0007 12.0001 15.0001ZM20.0001 18.0001C19.6045 18.0001 19.2179 17.8828 18.889 17.663C18.5601 17.4433 18.3037 17.1309 18.1524 16.7655C18.001 16.4 17.9614 15.9979 18.0385 15.6099C18.1157 15.222 18.3062 14.8656 18.5859 14.5859C18.8656 14.3062 19.222 14.1157 19.6099 14.0385C19.9979 13.9614 20.4 14.001 20.7655 14.1523C21.1309 14.3037 21.4433 14.5601 21.663 14.889C21.8828 15.2179 22.0001 15.6045 22.0001 16.0001C22.0001 16.5305 21.7894 17.0392 21.4143 17.4143C21.0393 17.7894 20.5305 18.0001 20.0001 18.0001Z" fill="currentColor"/>
</g>
<defs>
<clipPath id="clip0_403_3119">
<rect width="24" height="24" fill="white"/>
</clipPath>
</defs>
</svg>
