<svg width="24" height="24" viewBox="0 0 24 24" fill="none" xmlns="http://www.w3.org/2000/svg">
<g clip-path="url(#clip0_406_2239)">
<path d="M22.0001 18.184V18C21.9985 16.6744 21.4712 15.4035 20.5339 14.4662C19.5966 13.5289 18.3257 13.0016 17.0001 13H13.0001V11.91C14.4835 11.6592 15.8186 10.8604 16.7408 9.67171C17.6629 8.48304 18.1049 6.99131 17.9791 5.49214C17.8533 3.99297 17.1689 2.59577 16.0615 1.57742C14.9541 0.559071 13.5046 -0.00610352 12.0001 -0.00610352C10.4957 -0.00610352 9.04615 0.559071 7.93876 1.57742C6.83137 2.59577 6.14696 3.99297 6.02115 5.49214C5.89533 6.99131 6.33731 8.48304 7.25948 9.67171C8.18166 10.8604 9.51673 11.6592 11.0001 11.91V13H7.00013C5.67453 13.0016 4.40369 13.5289 3.46635 14.4662C2.52901 15.4035 2.00172 16.6744 2.00013 18V18.184C1.33291 18.4199 0.770574 18.884 0.412497 19.4945C0.0544196 20.1049 -0.0763387 20.8222 0.0433326 21.5197C0.163004 22.2172 0.525399 22.8499 1.06647 23.3061C1.60754 23.7622 2.29244 24.0124 3.00013 24.0124C3.70782 24.0124 4.39272 23.7622 4.93379 23.3061C5.47486 22.8499 5.83725 22.2172 5.95692 21.5197C6.0766 20.8222 5.94584 20.1049 5.58776 19.4945C5.22968 18.884 4.66734 18.4199 4.00013 18.184V18C4.00013 17.2043 4.3162 16.4413 4.87881 15.8787C5.44142 15.316 6.20448 15 7.00013 15H11.0001V18.184C10.3329 18.4199 9.77057 18.884 9.4125 19.4945C9.05442 20.1049 8.92366 20.8222 9.04333 21.5197C9.163 22.2172 9.5254 22.8499 10.0665 23.3061C10.6075 23.7622 11.2924 24.0124 12.0001 24.0124C12.7078 24.0124 13.3927 23.7622 13.9338 23.3061C14.4749 22.8499 14.8373 22.2172 14.9569 21.5197C15.0766 20.8222 14.9458 20.1049 14.5878 19.4945C14.2297 18.884 13.6673 18.4199 13.0001 18.184V15H17.0001C17.7958 15 18.5588 15.316 19.1214 15.8787C19.6841 16.4413 20.0001 17.2043 20.0001 18V18.184C19.3329 18.4199 18.7706 18.884 18.4125 19.4945C18.0544 20.1049 17.9237 20.8222 18.0433 21.5197C18.163 22.2172 18.5254 22.8499 19.0665 23.3061C19.6075 23.7622 20.2924 24.0124 21.0001 24.0124C21.7078 24.0124 22.3927 23.7622 22.9338 23.3061C23.4749 22.8499 23.8373 22.2172 23.9569 21.5197C24.0766 20.8222 23.9458 20.1049 23.5878 19.4945C23.2297 18.884 22.6673 18.4199 22.0001 18.184Z" fill="currentColor"/>
</g>
<defs>
<clipPath id="clip0_406_2239">
<rect width="24" height="24" fill="white"/>
</clipPath>
</defs>
</svg>
