<svg width="24" height="24" viewBox="0 0 24 24" fill="none" xmlns="http://www.w3.org/2000/svg">
<g clip-path="url(#clip0_403_3106)">
<path d="M22.4998 3.97607H19.4138C19.2161 3.97612 19.0228 4.03479 18.8584 4.14467C18.694 4.25456 18.5658 4.41072 18.4902 4.59342C18.4145 4.77612 18.3947 4.97715 18.4333 5.17111C18.4718 5.36506 18.567 5.54322 18.7068 5.68307L19.7928 6.76907L16.2068 10.3541C16.0163 10.5362 15.7629 10.6378 15.4993 10.6378C15.2358 10.6378 14.9824 10.5362 14.7918 10.3541L14.6218 10.1831C14.0505 9.63715 13.2906 9.3325 12.5003 9.3325C11.7101 9.3325 10.9502 9.63715 10.3788 10.1831L5.27885 15.2831C5.09094 15.4715 4.98559 15.7269 4.98596 15.993C4.98634 16.2591 5.09241 16.5142 5.28085 16.7021C5.46928 16.89 5.72465 16.9953 5.99076 16.995C6.25688 16.9946 6.51194 16.8885 6.69985 16.7001L11.7998 11.6001C11.9903 11.4178 12.2437 11.316 12.5073 11.316C12.771 11.316 13.0244 11.4178 13.2148 11.6001L13.3848 11.7711C13.9565 12.3165 14.7162 12.6209 15.5063 12.6209C16.2965 12.6209 17.0562 12.3165 17.6278 11.7711L21.2138 8.18508L22.2998 9.27107C22.4402 9.40862 22.6179 9.50178 22.8109 9.53892C23.0038 9.57606 23.2034 9.55553 23.3848 9.47989C23.5661 9.40426 23.7212 9.27687 23.8306 9.11364C23.94 8.95041 23.9988 8.75857 23.9998 8.56208V5.47607C23.9998 5.07825 23.8418 4.69672 23.5605 4.41541C23.2792 4.13411 22.8977 3.97607 22.4998 3.97607Z" fill="currentColor"/>
<path d="M23 21.976H5C4.20435 21.976 3.44129 21.6599 2.87868 21.0973C2.31607 20.5347 2 19.7716 2 18.976V1C2 0.734784 1.89464 0.48043 1.70711 0.292893C1.51957 0.105357 1.26522 0 1 0C0.734784 0 0.48043 0.105357 0.292893 0.292893C0.105357 0.48043 0 0.734784 0 1L0 18.976C0.00158786 20.3016 0.528882 21.5724 1.46622 22.5098C2.40356 23.4471 3.67441 23.9744 5 23.976H23C23.2652 23.976 23.5196 23.8706 23.7071 23.6831C23.8946 23.4956 24 23.2412 24 22.976C24 22.7108 23.8946 22.4564 23.7071 22.2689C23.5196 22.0814 23.2652 21.976 23 21.976Z" fill="currentColor"/>
</g>
<defs>
<clipPath id="clip0_403_3106">
<rect width="24" height="24" fill="white"/>
</clipPath>
</defs>
</svg>
