<svg width="24" height="24" viewBox="0 0 24 24" fill="none" xmlns="http://www.w3.org/2000/svg">
<g clip-path="url(#clip0_406_2036)">
<path d="M18.7132 11.9999H14.0002C12.8957 11.9999 12.0002 11.1045 12.0002 9.99992V5.27394C12.003 4.3416 11.5721 3.46091 10.8342 2.89096C10.135 2.33727 9.21823 2.13992 8.3532 2.35696C2.47367 3.81646 -1.1095 9.76597 0.350046 15.6455C1.37834 19.788 4.71622 22.9578 8.90623 23.771C14.6301 24.8666 20.2152 21.3078 21.6402 15.6569C21.8581 14.7908 21.6611 13.8726 21.1072 13.172C20.5307 12.4354 19.6486 12.0035 18.7132 11.9999Z" fill="currentColor"/>
<path d="M23.6508 7.44605C23.4225 6.59752 23.0826 5.78306 22.6398 5.02406C21.3081 2.73947 19.1327 1.06899 16.5818 0.372049C16.4138 0.326721 16.0378 0.300049 16.0378 0.300049C15.9034 0.300096 15.3248 0.300049 14.8668 0.671064C14.1936 1.2008 14.0878 1.80305 14.0778 1.85006C14.0429 1.99753 14.0247 2.14852 14.0238 2.30006V7.00008C14.0238 8.65692 15.367 10.0001 17.0238 10.0001H21.7428C22.3689 10.0019 22.9581 9.70463 23.3288 9.20006C23.603 8.83045 23.744 8.37895 23.7288 7.91906C23.7209 7.75894 23.6947 7.60022 23.6508 7.44605Z" fill="currentColor"/>
</g>
<defs>
<clipPath id="clip0_406_2036">
<rect width="24" height="24" fill="white"/>
</clipPath>
</defs>
</svg>
