<svg width="24" height="24" viewBox="0 0 24 24" fill="none" xmlns="http://www.w3.org/2000/svg">
<g clip-path="url(#clip0_406_2255)">
<path d="M11.9674 9.7305C13.9785 8.21157 16.5795 7.70916 19.0116 8.36982C19.0286 8.17074 19.0475 7.98165 19.0475 7.78355C19.0479 3.86232 15.8695 0.683208 11.9483 0.682739C8.0271 0.682271 4.84799 3.86068 4.84747 7.78186V7.78355C4.84747 7.98263 4.86641 8.18171 4.88432 8.38079C7.32697 7.70893 9.94307 8.2074 11.9674 9.7305Z" fill="currentColor"/>
<path d="M11.2188 13.8356C11.7148 13.895 12.2163 13.893 12.7119 13.8296C12.5171 13.3648 12.266 12.9255 11.9644 12.5217C11.6632 12.9277 11.4128 13.3689 11.2188 13.8356Z" fill="currentColor"/>
<path d="M21.0448 10.4724C20.6549 10.1915 20.2375 9.95097 19.799 9.75452C19.1749 12.201 17.4502 14.2188 15.1307 15.2161C15.1727 15.5393 15.1946 15.8647 15.1964 16.1906C15.2007 18.3699 14.3203 20.4576 12.7567 21.9757C15.9332 24.2643 20.3637 23.5446 22.6524 20.368C24.9411 17.1916 24.2214 12.7611 21.0448 10.4724Z" fill="currentColor"/>
<path d="M8.74036 16.1905C8.74162 15.871 8.76258 15.5519 8.80308 15.2349C6.47198 14.2531 4.73184 12.2407 4.09697 9.79224C0.544592 11.4409 -0.998627 15.6571 0.65006 19.2095C2.2987 22.7618 6.51497 24.305 10.0673 22.6564C10.4647 22.4719 10.8442 22.251 11.2009 21.9965C9.62437 20.4769 8.73576 18.3802 8.74036 16.1905Z" fill="currentColor"/>
<path d="M13.1908 15.7826C12.3809 15.9083 11.5567 15.9107 10.7462 15.7896C10.7362 15.924 10.7312 16.0583 10.7312 16.1877C10.7279 17.5179 11.1628 18.8122 11.9685 19.8706C12.7743 18.8123 13.2091 17.518 13.2058 16.1877C13.2057 16.0563 13.2007 15.919 13.1908 15.7826Z" fill="currentColor"/>
<path d="M9.28483 13.2802C9.58333 12.503 10 11.7764 10.5201 11.1262C9.28084 10.2801 7.77395 9.91877 6.28577 10.111C6.86383 11.4988 7.93094 12.6265 9.28483 13.2802Z" fill="currentColor"/>
<path d="M13.4156 11.1262C13.9323 11.7713 14.3466 12.4921 14.6439 13.2633C15.9786 12.6045 17.0292 11.4841 17.6012 10.11C16.1288 9.92751 14.6404 10.2889 13.4156 11.1262Z" fill="currentColor"/>
</g>
<defs>
<clipPath id="clip0_406_2255">
<rect width="24" height="24" fill="white"/>
</clipPath>
</defs>
</svg>
