<svg width="24" height="24" viewBox="0 0 24 24" fill="none" xmlns="http://www.w3.org/2000/svg">
<path d="M17.792 7.21208C17.3476 5.30137 16.2167 3.62053 14.6142 2.48907C13.0116 1.35761 11.0492 0.854401 9.09996 1.0751C7.1507 1.2958 5.35048 2.22502 4.04148 3.68613C2.73248 5.14724 2.00596 7.03838 2.00002 9.00008C1.99916 10.2785 2.30796 11.5381 2.90002 12.6711C1.82115 13.2492 0.966422 14.1713 0.471641 15.2909C-0.0231397 16.4104 -0.129593 17.6632 0.169193 18.8502C0.46798 20.0372 1.15487 21.0903 2.12073 21.8422C3.08658 22.5941 4.27601 23.0016 5.50002 23.0001H16C17.9591 22.991 19.8468 22.2633 21.3051 20.9551C22.7634 19.6469 23.6909 17.849 23.9119 15.9024C24.1328 13.9558 23.6318 11.9958 22.5038 10.394C21.3758 8.79221 19.6992 7.66002 17.792 7.21208ZM16 21.0001H5.50002C4.64845 21.0026 3.82531 20.6938 3.18554 20.1318C2.54577 19.5697 2.13351 18.7932 2.02634 17.9484C1.91917 17.1036 2.12449 16.2488 2.60366 15.5448C3.08282 14.8408 3.80278 14.3363 4.62802 14.1261C4.78673 14.0852 4.93297 14.006 5.05387 13.8953C5.17476 13.7847 5.26661 13.646 5.32133 13.4916C5.37605 13.3371 5.39197 13.1715 5.36768 13.0094C5.34338 12.8474 5.27963 12.6937 5.18202 12.5621C4.41317 11.5338 3.99844 10.284 4.00002 9.00008C4.01143 7.48607 4.59481 6.03234 5.63316 4.93044C6.67152 3.82854 8.08807 3.15993 9.59874 3.05871C11.1094 2.9575 12.6025 3.43115 13.7786 4.38468C14.9546 5.33822 15.7267 6.70112 15.94 8.20008C15.9688 8.41774 16.0684 8.61988 16.2235 8.7753C16.3785 8.93073 16.5804 9.0308 16.798 9.06009C18.2968 9.27332 19.6596 10.0453 20.6132 11.2211C21.5667 12.397 22.0405 13.8898 21.9396 15.4004C21.8386 16.9109 21.1704 18.3274 20.0688 19.366C18.9673 20.4045 17.5139 20.9882 16 21.0001Z" fill="currentColor"/>
</svg>
