<svg width="24" height="24" viewBox="0 0 24 24" fill="none" xmlns="http://www.w3.org/2000/svg">
<g clip-path="url(#clip0_406_2133)">
<path d="M18.3561 7.36003C18.1847 7.30709 18.0292 7.21252 17.9034 7.08478C17.7776 6.95704 17.6854 6.80011 17.6351 6.62803C17.106 4.92764 16.0247 3.45238 14.5625 2.43594C13.1003 1.4195 11.3407 0.919988 9.56256 1.01653C7.78438 1.11307 6.08925 1.80015 4.74568 2.96893C3.4021 4.1377 2.48691 5.72135 2.14505 7.46903C1.7936 9.23603 2.0769 11.0704 2.94505 12.649C1.93348 13.171 1.11089 13.9968 0.592875 15.0104C0.0748643 16.024 -0.112522 17.1744 0.057051 18.3C0.317873 19.6078 1.01808 20.787 2.04145 21.6419C3.06482 22.4968 4.34978 22.976 5.68305 23H14.7831C19.8561 23 23.6351 19.972 23.9731 15.638C24.1241 13.824 23.649 12.013 22.627 10.5067C21.6049 9.00044 20.0975 7.88987 18.3561 7.36003ZM19.2281 14.707L13.8131 20.121C13.2505 20.6834 12.4875 20.9994 11.6921 20.9994C10.8966 20.9994 10.1336 20.6834 9.57105 20.121L6.18405 16.7C6.07736 16.6106 5.99051 16.4999 5.92905 16.375C5.8676 16.2501 5.8329 16.1138 5.82718 15.9747C5.82146 15.8356 5.84484 15.6968 5.89582 15.5673C5.94681 15.4378 6.02427 15.3203 6.12326 15.2224C6.22225 15.1246 6.34058 15.0485 6.47068 14.9989C6.60078 14.9494 6.73979 14.9276 6.8788 14.9349C7.01781 14.9422 7.15376 14.9785 7.27796 15.0414C7.40216 15.1042 7.51186 15.1923 7.60005 15.3L10.9841 18.714C11.1745 18.8947 11.427 18.9955 11.6896 18.9955C11.9521 18.9955 12.2046 18.8947 12.3951 18.714L17.8091 13.3C17.9966 13.1124 18.2509 13.0069 18.5162 13.0068C18.7815 13.0067 19.0359 13.112 19.2236 13.2995C19.4112 13.487 19.5167 13.7414 19.5168 14.0067C19.5168 14.2719 19.4116 14.5264 19.2241 14.714L19.2281 14.707Z" fill="currentColor"/>
</g>
<defs>
<clipPath id="clip0_406_2133">
<rect width="24" height="24" fill="white"/>
</clipPath>
</defs>
</svg>
