<svg width="24" height="24" viewBox="0 0 24 24" fill="none" xmlns="http://www.w3.org/2000/svg">
<g clip-path="url(#clip0_403_3118)">
<path d="M23.517 2.087C23.1719 1.45559 22.6633 0.928655 22.0445 0.561458C21.4257 0.19426 20.7195 0.000328576 20 0L3.99999 0C3.28045 0.000328576 2.57424 0.19426 1.95545 0.561458C1.33665 0.928655 0.82805 1.45559 0.482991 2.087C0.135083 2.7086 -0.0364951 3.41341 -0.0132329 4.12537C0.0100293 4.83733 0.227249 5.52943 0.614991 6.127C1.78707 7.82675 3.33195 9.2363 5.13174 10.2481C6.93154 11.2598 8.93868 11.8471 11 11.965V22H6.99999C6.73478 22 6.48042 22.1054 6.29289 22.2929C6.10535 22.4804 5.99999 22.7348 5.99999 23C5.99999 23.2652 6.10535 23.5196 6.29289 23.7071C6.48042 23.8946 6.73478 24 6.99999 24H17C17.2652 24 17.5196 23.8946 17.7071 23.7071C17.8946 23.5196 18 23.2652 18 23C18 22.7348 17.8946 22.4804 17.7071 22.2929C17.5196 22.1054 17.2652 22 17 22H13V11.965C15.0613 11.8471 17.0684 11.2598 18.8682 10.2481C20.668 9.2363 22.2129 7.82675 23.385 6.127C23.7727 5.52943 23.99 4.83733 24.0132 4.12537C24.0365 3.41341 23.8649 2.7086 23.517 2.087ZM3.99999 2H20C20.5304 2 21.0391 2.21071 21.4142 2.58579C21.7893 2.96086 22 3.46957 22 4H1.99999C1.99999 3.46957 2.21071 2.96086 2.58578 2.58579C2.96085 2.21071 3.46956 2 3.99999 2ZM12 10C10.3042 10.0059 8.6263 9.65253 7.07693 8.96308C5.52756 8.27363 4.14183 7.26377 3.01099 6H20.989C19.8584 7.26406 18.4727 8.27413 16.9233 8.96361C15.3739 9.65308 13.6959 10.0063 12 10Z" fill="currentColor"/>
</g>
<defs>
<clipPath id="clip0_403_3118">
<rect width="24" height="24" fill="white"/>
</clipPath>
</defs>
</svg>
