<svg width="24" height="24" viewBox="0 0 24 24" fill="none" xmlns="http://www.w3.org/2000/svg">
<g clip-path="url(#clip0_406_1900)">
<path d="M24.0089 4H-0.00909424C-0.0059197 2.93855 0.417761 1.92162 1.16917 1.1719C1.92057 0.422184 2.93845 0.000788962 3.99991 0L19.9999 0C21.0614 0.000788962 22.0792 0.422184 22.8306 1.1719C23.5821 1.92162 24.0057 2.93855 24.0089 4ZM23.4539 6H0.533906C1.71471 7.72008 3.26979 9.15035 5.08244 10.1834C6.89508 11.2165 8.91819 11.8256 10.9999 11.965V22H6.99991C6.73469 22 6.48034 22.1054 6.2928 22.2929C6.10526 22.4804 5.99991 22.7348 5.99991 23C5.99991 23.2652 6.10526 23.5196 6.2928 23.7071C6.48034 23.8946 6.73469 24 6.99991 24H16.9999C17.2651 24 17.5195 23.8946 17.707 23.7071C17.8946 23.5196 17.9999 23.2652 17.9999 23C17.9999 22.7348 17.8946 22.4804 17.707 22.2929C17.5195 22.1054 17.2651 22 16.9999 22H12.9999V11.965C15.0798 11.8249 17.1009 11.2154 18.9115 10.1823C20.7221 9.14916 22.2751 7.71928 23.4539 6Z" fill="currentColor"/>
</g>
<defs>
<clipPath id="clip0_406_1900">
<rect width="24" height="24" fill="white"/>
</clipPath>
</defs>
</svg>
