<svg width="24" height="24" viewBox="0 0 24 24" fill="none" xmlns="http://www.w3.org/2000/svg">
<g clip-path="url(#clip0_403_3032)">
<path d="M14.4998 6.99997C13.5682 6.98548 12.6689 7.34158 11.9998 7.98997C11.4854 7.50959 10.8403 7.19214 10.1458 7.07759C9.45136 6.96304 8.73851 7.05651 8.09705 7.34624C7.45559 7.63597 6.91418 8.109 6.54098 8.70578C6.16779 9.30256 5.9795 9.99641 5.99981 10.7C5.99981 13.956 10.8738 17.436 11.4298 17.821C11.5972 17.9371 11.7961 17.9993 11.9998 17.9993C12.2035 17.9993 12.4024 17.9371 12.5698 17.821C13.1258 17.436 17.9998 13.956 17.9998 10.7C18.0246 9.74568 17.6701 8.82047 17.0141 8.12698C16.3581 7.43348 15.454 7.02823 14.4998 6.99997ZM11.9998 15.762C10.2588 14.432 7.99981 12.202 7.99981 10.7C7.92381 8.69397 10.9128 8.29997 10.9998 10.454V11C10.9998 11.2652 11.1052 11.5195 11.2927 11.7071C11.4802 11.8946 11.7346 12 11.9998 12C12.265 12 12.5194 11.8946 12.7069 11.7071C12.8945 11.5195 12.9998 11.2652 12.9998 11V10.454C13.0868 8.30197 16.0758 8.69397 15.9998 10.7C15.9998 12.2 13.7408 14.432 11.9998 15.762ZM12.8358 0.0279724C11.1215 -0.0918197 9.40154 0.157974 7.79216 0.760454C6.18278 1.36293 4.72158 2.30405 3.5074 3.52012C2.29322 4.7362 1.35439 6.19887 0.754421 7.80919C0.154453 9.4195 -0.0926559 11.1399 0.0298112 12.854C0.469811 19.208 6.08181 24 13.0828 24H18.9998C20.3254 23.9984 21.5963 23.4711 22.5336 22.5338C23.4709 21.5964 23.9982 20.3256 23.9998 19V12.34C24.0369 9.25749 22.9066 6.27506 20.8359 3.99139C18.7651 1.70772 15.9072 0.291838 12.8358 0.0279724ZM21.9998 19C21.9998 19.7956 21.6837 20.5587 21.1211 21.1213C20.5585 21.6839 19.7955 22 18.9998 22H13.0828C7.04881 22 2.39981 18.1 2.02481 12.716C1.92215 11.287 2.12774 9.8526 2.62766 8.50998C3.12758 7.16735 3.91016 5.94782 4.92241 4.93395C5.93466 3.92009 7.15295 3.13557 8.49478 2.63351C9.83661 2.13146 11.2707 1.92358 12.6998 2.02397C15.2663 2.25101 17.6517 3.44088 19.3769 5.35453C21.1021 7.26817 22.0391 9.76379 21.9998 12.34V19Z" fill="currentColor"/>
</g>
<defs>
<clipPath id="clip0_403_3032">
<rect width="24" height="24" fill="white"/>
</clipPath>
</defs>
</svg>
