<svg width="24" height="24" viewBox="0 0 24 24" fill="none" xmlns="http://www.w3.org/2000/svg">
<g clip-path="url(#clip0_406_2046)">
<path d="M23.6298 3.845C23.4428 3.584 23.1963 3.37125 22.9108 3.22432C22.6253 3.07739 22.3089 3.0005 21.9878 3H18.4628C18.9708 2.152 19.5388 0.1 17.9998 0C17.7346 0 17.4803 0.105357 17.2927 0.292893C17.1052 0.48043 16.9998 0.734784 16.9998 1C16.9998 1.53043 16.7891 2.03914 16.4141 2.41421C16.039 2.78929 15.5303 3 14.9998 3H8.99985C8.46942 3 7.96071 2.78929 7.58563 2.41421C7.21056 2.03914 6.99985 1.53043 6.99985 1C6.99985 0.734784 6.89449 0.48043 6.70695 0.292893C6.51942 0.105357 6.26506 0 5.99985 0C4.45985 0.105 5.02985 2.151 5.53685 3H2.01285C1.69769 3.00089 1.38716 3.076 1.10643 3.21923C0.825692 3.36246 0.582632 3.56979 0.396932 3.82443C0.211233 4.07907 0.0881122 4.37387 0.0375415 4.68495C-0.0130292 4.99603 0.0103712 5.31465 0.105848 5.615C0.424823 6.50763 0.932333 7.32108 1.59385 8C2.11885 7.491 3.28085 6.4 4.69985 5.228C4.90459 5.05932 5.16796 4.97889 5.43201 5.00439C5.69607 5.0299 5.93917 5.15925 6.10785 5.364C6.27653 5.56875 6.35696 5.83212 6.33145 6.09617C6.30595 6.36022 6.1766 6.60332 5.97185 6.772C5.45385 7.198 4.97185 7.618 4.53785 8H5.99985C7.32544 8.00159 8.59629 8.52888 9.53363 9.46622C10.471 10.4036 10.9983 11.6744 10.9998 13V17C10.9998 17.2652 10.8945 17.5196 10.707 17.7071C10.5194 17.8946 10.2651 18 9.99985 18C9.73463 18 9.48028 17.8946 9.29274 17.7071C9.10521 17.5196 8.99985 17.2652 8.99985 17V13C9.00013 12.6472 8.93783 12.2971 8.81585 11.966C8.57099 12.0185 8.31689 12.0088 8.07672 11.9379C7.83655 11.867 7.61796 11.737 7.44089 11.56C7.26382 11.3829 7.13389 11.1643 7.06297 10.9241C6.99204 10.684 6.98238 10.4299 7.03485 10.185C6.70352 10.0626 6.35308 9.99992 5.99985 10H3.22085L5.99985 21.135C6.03462 21.907 6.36598 22.6358 6.92487 23.1696C7.48375 23.7033 8.22705 24.0008 8.99985 24H14.9998C15.7727 24.0008 16.5159 23.7033 17.0748 23.1696C17.6337 22.6358 17.9651 21.907 17.9998 21.135L20.7798 10H17.9998C17.647 9.99972 17.2969 10.062 16.9658 10.184C17.0183 10.4289 17.0087 10.683 16.9377 10.9231C16.8668 11.1633 16.7369 11.3819 16.5598 11.559C16.3827 11.736 16.1641 11.866 15.924 11.9369C15.6838 12.0078 15.4297 12.0175 15.1848 11.965C15.0624 12.2963 14.9998 12.6468 14.9998 13V17C14.9998 17.2652 14.8945 17.5196 14.707 17.7071C14.5194 17.8946 14.2651 18 13.9998 18C13.7346 18 13.4803 17.8946 13.2927 17.7071C13.1052 17.5196 12.9998 17.2652 12.9998 17V13C13.0014 11.6744 13.5287 10.4036 14.4661 9.46622C15.4034 8.52888 16.6743 8.00159 17.9998 8H19.4628C19.0328 7.618 18.5468 7.2 18.0288 6.772C17.8279 6.60229 17.7018 6.36023 17.6781 6.09825C17.6543 5.83627 17.7347 5.57548 17.9019 5.37238C18.0691 5.16929 18.3096 5.04025 18.5712 5.01322C18.8329 4.9862 19.0947 5.06336 19.2998 5.228C20.7198 6.4 21.8818 7.491 22.4068 8C23.0698 7.32127 23.579 6.50787 23.8998 5.615C24.0006 5.32002 24.0286 5.00508 23.9816 4.69693C23.9346 4.38879 23.8139 4.09654 23.6298 3.845ZM14.9998 20C15.2651 20 15.5194 20.1054 15.707 20.2929C15.8945 20.4804 15.9998 20.7348 15.9998 21C15.9998 21.2652 15.8945 21.5196 15.707 21.7071C15.5194 21.8946 15.2651 22 14.9998 22H8.99985C8.73463 22 8.48028 21.8946 8.29274 21.7071C8.10521 21.5196 7.99985 21.2652 7.99985 21C7.99985 20.7348 8.10521 20.4804 8.29274 20.2929C8.48028 20.1054 8.73463 20 8.99985 20H14.9998Z" fill="currentColor"/>
</g>
<defs>
<clipPath id="clip0_406_2046">
<rect width="24" height="24" fill="white"/>
</clipPath>
</defs>
</svg>
