<svg width="24" height="24" viewBox="0 0 24 24" fill="none" xmlns="http://www.w3.org/2000/svg">
<g clip-path="url(#clip0_406_2021)">
<path d="M21 17.0001H10V19.0001C10 19.2653 9.89464 19.5197 9.70711 19.7072C9.51957 19.8948 9.26522 20.0001 9 20.0001C8.73478 20.0001 8.48043 19.8948 8.29289 19.7072C8.10536 19.5197 8 19.2653 8 19.0001V17.0001H6V19.0001C6 19.2653 5.89464 19.5197 5.70711 19.7072C5.51957 19.8948 5.26522 20.0001 5 20.0001C4.73478 20.0001 4.48043 19.8948 4.29289 19.7072C4.10536 19.5197 4 19.2653 4 19.0001V17.0001H3C2.20435 17.0001 1.44129 17.3162 0.87868 17.8788C0.31607 18.4414 0 19.2045 0 20.0001C0 20.7958 0.31607 21.5588 0.87868 22.1214C1.44129 22.6841 2.20435 23.0001 3 23.0001H21C21.7956 23.0001 22.5587 22.6841 23.1213 22.1214C23.6839 21.5588 24 20.7958 24 20.0001C24 19.2045 23.6839 18.4414 23.1213 17.8788C22.5587 17.3162 21.7956 17.0001 21 17.0001Z" fill="currentColor"/>
<path d="M21 9H10V11C10 11.2652 9.89464 11.5196 9.70711 11.7071C9.51957 11.8946 9.26522 12 9 12C8.73478 12 8.48043 11.8946 8.29289 11.7071C8.10536 11.5196 8 11.2652 8 11V9H6V11C6 11.2652 5.89464 11.5196 5.70711 11.7071C5.51957 11.8946 5.26522 12 5 12C4.73478 12 4.48043 11.8946 4.29289 11.7071C4.10536 11.5196 4 11.2652 4 11V9H3C2.20435 9 1.44129 9.31607 0.87868 9.87868C0.31607 10.4413 0 11.2044 0 12C0 12.7956 0.31607 13.5587 0.87868 14.1213C1.44129 14.6839 2.20435 15 3 15H21C21.7956 15 22.5587 14.6839 23.1213 14.1213C23.6839 13.5587 24 12.7956 24 12C24 11.2044 23.6839 10.4413 23.1213 9.87868C22.5587 9.31607 21.7956 9 21 9Z" fill="currentColor"/>
<path d="M21 0.999878H10V2.99988C10 3.26509 9.89464 3.51945 9.70711 3.70698C9.51957 3.89452 9.26522 3.99988 9 3.99988C8.73478 3.99988 8.48043 3.89452 8.29289 3.70698C8.10536 3.51945 8 3.26509 8 2.99988V0.999878H6V2.99988C6 3.26509 5.89464 3.51945 5.70711 3.70698C5.51957 3.89452 5.26522 3.99988 5 3.99988C4.73478 3.99988 4.48043 3.89452 4.29289 3.70698C4.10536 3.51945 4 3.26509 4 2.99988V0.999878H3C2.20435 0.999878 1.44129 1.31595 0.87868 1.87856C0.31607 2.44117 0 3.20423 0 3.99988C0 4.79553 0.31607 5.55859 0.87868 6.1212C1.44129 6.68381 2.20435 6.99988 3 6.99988H21C21.7956 6.99988 22.5587 6.68381 23.1213 6.1212C23.6839 5.55859 24 4.79553 24 3.99988C24 3.20423 23.6839 2.44117 23.1213 1.87856C22.5587 1.31595 21.7956 0.999878 21 0.999878Z" fill="currentColor"/>
</g>
<defs>
<clipPath id="clip0_406_2021">
<rect width="24" height="24" fill="white"/>
</clipPath>
</defs>
</svg>
