<svg width="24" height="24" viewBox="0 0 24 24" fill="none" xmlns="http://www.w3.org/2000/svg">
<g clip-path="url(#clip0_406_2088)">
<path d="M19 0H5C3.67441 0.00158786 2.40356 0.528882 1.46622 1.46622C0.528882 2.40356 0.00158786 3.67441 0 5L0 19C0.00158786 20.3256 0.528882 21.5964 1.46622 22.5338C2.40356 23.4711 3.67441 23.9984 5 24H19C20.3256 23.9984 21.5964 23.4711 22.5338 22.5338C23.4711 21.5964 23.9984 20.3256 24 19V5C23.9984 3.67441 23.4711 2.40356 22.5338 1.46622C21.5964 0.528882 20.3256 0.00158786 19 0V0ZM7 18C6.80222 18 6.60888 17.9414 6.44443 17.8315C6.27998 17.7216 6.15181 17.5654 6.07612 17.3827C6.00043 17.2 5.98063 16.9989 6.01921 16.8049C6.0578 16.6109 6.15304 16.4327 6.29289 16.2929C6.43275 16.153 6.61093 16.0578 6.80491 16.0192C6.99889 15.9806 7.19996 16.0004 7.38268 16.0761C7.56541 16.1518 7.72159 16.28 7.83147 16.4444C7.94135 16.6089 8 16.8022 8 17C8 17.2652 7.89464 17.5196 7.70711 17.7071C7.51957 17.8946 7.26522 18 7 18ZM7 8C6.80222 8 6.60888 7.94135 6.44443 7.83147C6.27998 7.72159 6.15181 7.56541 6.07612 7.38268C6.00043 7.19996 5.98063 6.99889 6.01921 6.80491C6.0578 6.61093 6.15304 6.43275 6.29289 6.29289C6.43275 6.15304 6.61093 6.0578 6.80491 6.01921C6.99889 5.98063 7.19996 6.00043 7.38268 6.07612C7.56541 6.15181 7.72159 6.27998 7.83147 6.44443C7.94135 6.60888 8 6.80222 8 7C8 7.26522 7.89464 7.51957 7.70711 7.70711C7.51957 7.89464 7.26522 8 7 8ZM12 13C11.8022 13 11.6089 12.9414 11.4444 12.8315C11.28 12.7216 11.1518 12.5654 11.0761 12.3827C11.0004 12.2 10.9806 11.9989 11.0192 11.8049C11.0578 11.6109 11.153 11.4327 11.2929 11.2929C11.4327 11.153 11.6109 11.0578 11.8049 11.0192C11.9989 10.9806 12.2 11.0004 12.3827 11.0761C12.5654 11.1518 12.7216 11.28 12.8315 11.4444C12.9414 11.6089 13 11.8022 13 12C13 12.2652 12.8946 12.5196 12.7071 12.7071C12.5196 12.8946 12.2652 13 12 13ZM17 18C16.8022 18 16.6089 17.9414 16.4444 17.8315C16.28 17.7216 16.1518 17.5654 16.0761 17.3827C16.0004 17.2 15.9806 16.9989 16.0192 16.8049C16.0578 16.6109 16.153 16.4327 16.2929 16.2929C16.4327 16.153 16.6109 16.0578 16.8049 16.0192C16.9989 15.9806 17.2 16.0004 17.3827 16.0761C17.5654 16.1518 17.7216 16.28 17.8315 16.4444C17.9414 16.6089 18 16.8022 18 17C18 17.2652 17.8946 17.5196 17.7071 17.7071C17.5196 17.8946 17.2652 18 17 18ZM17 8C16.8022 8 16.6089 7.94135 16.4444 7.83147C16.28 7.72159 16.1518 7.56541 16.0761 7.38268C16.0004 7.19996 15.9806 6.99889 16.0192 6.80491C16.0578 6.61093 16.153 6.43275 16.2929 6.29289C16.4327 6.15304 16.6109 6.0578 16.8049 6.01921C16.9989 5.98063 17.2 6.00043 17.3827 6.07612C17.5654 6.15181 17.7216 6.27998 17.8315 6.44443C17.9414 6.60888 18 6.80222 18 7C18 7.26522 17.8946 7.51957 17.7071 7.70711C17.5196 7.89464 17.2652 8 17 8Z" fill="currentColor"/>
</g>
<defs>
<clipPath id="clip0_406_2088">
<rect width="24" height="24" fill="white"/>
</clipPath>
</defs>
</svg>
