<svg width="24" height="24" viewBox="0 0 24 24" fill="none" xmlns="http://www.w3.org/2000/svg">
<g clip-path="url(#clip0_406_2074)">
<path d="M14.0002 7V0.46C14.9252 0.809335 15.7654 1.35131 16.4652 2.05L19.9492 5.536C20.6486 6.23488 21.191 7.07489 21.5402 8H15.0002C14.7349 8 14.4806 7.89464 14.293 7.70711C14.1055 7.51957 14.0002 7.26522 14.0002 7ZM22.0002 10.485V19C21.9986 20.3256 21.4713 21.5964 20.5339 22.5338C19.5966 23.4711 18.3257 23.9984 17.0002 24H7.00015C5.67456 23.9984 4.40371 23.4711 3.46637 22.5338C2.52903 21.5964 2.00174 20.3256 2.00015 19V5C2.00174 3.67441 2.52903 2.40356 3.46637 1.46622C4.40371 0.528882 5.67456 0.00158786 7.00015 0L11.5152 0C11.6782 0 11.8392 0.013 12.0002 0.024V7C12.0002 7.79565 12.3162 8.55871 12.8788 9.12132C13.4414 9.68393 14.2045 10 15.0002 10H21.9762C21.9872 10.161 22.0002 10.322 22.0002 10.485ZM14.0002 19C14.0002 18.7348 13.8948 18.4804 13.7073 18.2929C13.5197 18.1054 13.2654 18 13.0002 18H8.00015C7.73494 18 7.48058 18.1054 7.29305 18.2929C7.10551 18.4804 7.00015 18.7348 7.00015 19C7.00015 19.2652 7.10551 19.5196 7.29305 19.7071C7.48058 19.8946 7.73494 20 8.00015 20H13.0002C13.2654 20 13.5197 19.8946 13.7073 19.7071C13.8948 19.5196 14.0002 19.2652 14.0002 19ZM17.0002 15C17.0002 14.7348 16.8948 14.4804 16.7073 14.2929C16.5197 14.1054 16.2654 14 16.0002 14H8.00015C7.73494 14 7.48058 14.1054 7.29305 14.2929C7.10551 14.4804 7.00015 14.7348 7.00015 15C7.00015 15.2652 7.10551 15.5196 7.29305 15.7071C7.48058 15.8946 7.73494 16 8.00015 16H16.0002C16.2654 16 16.5197 15.8946 16.7073 15.7071C16.8948 15.5196 17.0002 15.2652 17.0002 15Z" fill="currentColor"/>
</g>
<defs>
<clipPath id="clip0_406_2074">
<rect width="24" height="24" fill="white"/>
</clipPath>
</defs>
</svg>
