<svg width="24" height="24" viewBox="0 0 24 24" fill="none" xmlns="http://www.w3.org/2000/svg">
<g clip-path="url(#clip0_403_3031)">
<path d="M13.9322 4C14.7456 4.00079 15.5255 4.32428 16.1007 4.89947C16.6759 5.47466 16.9994 6.25456 17.0002 7.068C17.0002 7.33322 17.1055 7.58757 17.293 7.77511C17.4806 7.96264 17.7349 8.068 18.0002 8.068C18.2654 8.068 18.5197 7.96264 18.7073 7.77511C18.8948 7.58757 19.0002 7.33322 19.0002 7.068V7C19.0002 6.981 19.0002 6.964 19.0002 6.945C18.9668 5.62273 18.4183 4.36578 17.4716 3.44206C16.5249 2.51833 15.2548 2.00088 13.9322 2H13.0002V1C13.0002 0.734784 12.8948 0.48043 12.7073 0.292893C12.5197 0.105357 12.2654 0 12.0002 0C11.7349 0 11.4806 0.105357 11.293 0.292893C11.1055 0.48043 11.0002 0.734784 11.0002 1V2H10.0682C8.86547 2.00128 7.70244 2.43023 6.78695 3.21018C5.87145 3.99012 5.26316 5.07022 5.07081 6.25742C4.87845 7.44462 5.11456 8.66154 5.73694 9.69066C6.35933 10.7198 7.32741 11.494 8.46815 11.875L11.0002 12.72V20H10.0682C9.25471 19.9992 8.47482 19.6757 7.89963 19.1005C7.32444 18.5253 7.00095 17.7454 7.00015 16.932C7.00015 16.6668 6.8948 16.4124 6.70726 16.2249C6.51972 16.0374 6.26537 15.932 6.00015 15.932C5.73494 15.932 5.48058 16.0374 5.29305 16.2249C5.10551 16.4124 5.00015 16.6668 5.00015 16.932V17C5.00015 17.019 5.00015 17.036 5.00015 17.055C5.03353 18.3773 5.58202 19.6342 6.52872 20.5579C7.47542 21.4817 8.74546 21.9991 10.0682 22H11.0002V23C11.0002 23.2652 11.1055 23.5196 11.293 23.7071C11.4806 23.8946 11.7349 24 12.0002 24C12.2654 24 12.5197 23.8946 12.7073 23.7071C12.8948 23.5196 13.0002 23.2652 13.0002 23V22H13.9322C15.1348 21.9987 16.2979 21.5698 17.2134 20.7898C18.1289 20.0099 18.7371 18.9298 18.9295 17.7426C19.1219 16.5554 18.8857 15.3385 18.2634 14.3093C17.641 13.2802 16.6729 12.506 15.5322 12.125L13.0002 11.28V4H13.9322ZM14.9022 14.021C15.5936 14.2511 16.1805 14.7198 16.5579 15.3432C16.9352 15.9666 17.0784 16.704 16.9617 17.4233C16.845 18.1426 16.4761 18.7969 15.921 19.269C15.3659 19.7411 14.6609 20.0003 13.9322 20H13.0002V13.387L14.9022 14.021ZM11.0002 10.613L9.10015 9.979C8.40889 9.74893 7.82206 9.28037 7.44469 8.65718C7.06731 8.034 6.92402 7.29685 7.04045 6.57768C7.15689 5.8585 7.52545 5.20422 8.08018 4.73194C8.63492 4.25966 9.33961 4.00021 10.0682 4H11.0002V10.613Z" fill="currentColor"/>
</g>
<defs>
<clipPath id="clip0_403_3031">
<rect width="24" height="24" fill="white"/>
</clipPath>
</defs>
</svg>
