<svg width="24" height="24" viewBox="0 0 24 24" fill="none" xmlns="http://www.w3.org/2000/svg">
<g clip-path="url(#clip0_403_3028)">
<path d="M19 0.999878H5C3.67441 1.00147 2.40356 1.52876 1.46622 2.4661C0.528882 3.40344 0.00158786 4.67428 0 5.99988L0 17.9999C0.00158786 19.3255 0.528882 20.5963 1.46622 21.5337C2.40356 22.471 3.67441 22.9983 5 22.9999H19C20.3256 22.9983 21.5964 22.471 22.5338 21.5337C23.4711 20.5963 23.9984 19.3255 24 17.9999V5.99988C23.9984 4.67428 23.4711 3.40344 22.5338 2.4661C21.5964 1.52876 20.3256 1.00147 19 0.999878ZM5 2.99988H19C19.5988 3.00106 20.1835 3.18139 20.679 3.51768C21.1744 3.85397 21.5579 4.33082 21.78 4.88688L14.122 12.5459C13.5584 13.1072 12.7954 13.4223 12 13.4223C11.2046 13.4223 10.4416 13.1072 9.878 12.5459L2.22 4.88688C2.44215 4.33082 2.82561 3.85397 3.32105 3.51768C3.81648 3.18139 4.40121 3.00106 5 2.99988ZM19 20.9999H5C4.20435 20.9999 3.44129 20.6838 2.87868 20.1212C2.31607 19.5586 2 18.7955 2 17.9999V7.49988L8.464 13.9599C9.40263 14.8961 10.6743 15.4219 12 15.4219C13.3257 15.4219 14.5974 14.8961 15.536 13.9599L22 7.49988V17.9999C22 18.7955 21.6839 19.5586 21.1213 20.1212C20.5587 20.6838 19.7956 20.9999 19 20.9999Z" fill="currentColor"/>
</g>
<defs>
<clipPath id="clip0_403_3028">
<rect width="24" height="24" fill="white"/>
</clipPath>
</defs>
</svg>
