<svg width="24" height="24" viewBox="0 0 24 24" fill="none" xmlns="http://www.w3.org/2000/svg">
<g clip-path="url(#clip0_403_3025)">
<path d="M23.9999 11C23.9969 10.2339 23.7009 9.498 23.1726 8.94316C22.6444 8.38832 21.9239 8.0566 21.1589 8.016C20.1567 5.69436 18.3055 3.84321 15.9839 2.841C15.9433 2.07598 15.6116 1.35548 15.0567 0.827234C14.5019 0.298983 13.766 0.0030094 12.9999 0H10.9999C10.2338 0.0030094 9.49788 0.298983 8.94304 0.827234C8.3882 1.35548 8.05647 2.07598 8.01588 2.841C5.69441 3.84346 3.84334 5.69453 2.84088 8.016C2.1329 8.05055 1.46032 8.3359 0.943504 8.821C0.426684 9.3061 0.099353 9.95927 0.0200872 10.6636C-0.0591785 11.368 0.114795 12.0776 0.510874 12.6654C0.906953 13.2533 1.49929 13.681 2.18188 13.872C2.46565 15.3815 3.09457 16.805 4.01952 18.0313C4.94447 19.2576 6.14039 20.2534 7.51388 20.941L7.03388 22.741C6.96549 22.9972 7.00166 23.2701 7.13443 23.4996C7.2672 23.7291 7.4857 23.8965 7.74188 23.965C7.82601 23.9877 7.91273 23.9995 7.99988 24C8.22013 24 8.43421 23.9272 8.60889 23.7931C8.78356 23.6589 8.90905 23.4708 8.96588 23.258L9.39988 21.652C11.1059 22.116 12.9049 22.116 14.6109 21.652L15.0389 23.258C15.1108 23.5103 15.279 23.7242 15.5071 23.8536C15.7353 23.9831 16.0052 24.0177 16.2586 23.95C16.512 23.8823 16.7287 23.7177 16.862 23.4918C16.9952 23.2658 17.0343 22.9965 16.9709 22.742L16.4909 20.942C17.8642 20.2538 19.06 19.2577 19.9851 18.0313C20.9101 16.805 21.5394 15.3815 21.8239 13.872C22.4492 13.6944 22.9997 13.3181 23.3923 12.8C23.7848 12.2819 23.9981 11.65 23.9999 11ZM10.9999 2H12.9999C13.2651 2 13.5194 2.10536 13.707 2.29289C13.8945 2.48043 13.9999 2.73478 13.9999 3C13.9999 3.26522 13.8945 3.51957 13.707 3.70711C13.5194 3.89464 13.2651 4 12.9999 4H10.9999C10.7347 4 10.4803 3.89464 10.2928 3.70711C10.1052 3.51957 9.99988 3.26522 9.99988 3C9.99988 2.73478 10.1052 2.48043 10.2928 2.29289C10.4803 2.10536 10.7347 2 10.9999 2ZM2.99988 10H4.99988C5.26509 10 5.51945 10.1054 5.70698 10.2929C5.89452 10.4804 5.99988 10.7348 5.99988 11C5.99988 11.2652 5.89452 11.5196 5.70698 11.7071C5.51945 11.8946 5.26509 12 4.99988 12H2.99988C2.73466 12 2.48031 11.8946 2.29277 11.7071C2.10523 11.5196 1.99988 11.2652 1.99988 11C1.99988 10.7348 2.10523 10.4804 2.29277 10.2929C2.48031 10.1054 2.73466 10 2.99988 10ZM11.9999 20C11.2939 19.999 10.5912 19.9049 9.90988 19.72L11.6099 13.356C11.6328 13.2691 11.6839 13.1923 11.755 13.1375C11.8262 13.0827 11.9135 13.053 12.0034 13.053C12.0932 13.053 12.1805 13.0827 12.2517 13.1375C12.3229 13.1923 12.3739 13.2691 12.3969 13.356L14.0969 19.72C13.4133 19.9054 12.7082 19.9995 11.9999 20ZM15.9549 18.951L14.3249 12.841C14.1925 12.3263 13.8916 11.8708 13.4703 11.5469C13.0489 11.223 12.5313 11.0495 11.9999 11.054C11.4683 11.0493 10.9504 11.2227 10.5289 11.5466C10.1073 11.8705 9.80631 12.3261 9.67388 12.841L8.04488 18.951C7.11347 18.4227 6.2982 17.7119 5.64784 16.8612C4.99749 16.0105 4.52542 15.0374 4.25988 14H4.99988C5.76914 13.972 6.49822 13.6495 7.03629 13.099C7.57436 12.5485 7.88023 11.8122 7.89064 11.0425C7.90104 10.2728 7.61518 9.52858 7.09219 8.96375C6.5692 8.39892 5.8491 8.05674 5.08088 8.008C5.89763 6.5998 7.11975 5.47037 8.58788 4.767C8.86442 5.14793 9.22704 5.45816 9.64618 5.67243C10.0653 5.88669 10.5291 5.99893 10.9999 6H12.9999C13.4706 5.99901 13.9345 5.88681 14.3536 5.67254C14.7728 5.45827 15.1354 5.14799 15.4119 4.767C16.8798 5.47023 18.1017 6.59971 18.9179 8.008C18.1496 8.05684 17.4296 8.39913 16.9066 8.96405C16.3837 9.52896 16.0979 10.2733 16.1085 11.043C16.119 11.8127 16.425 12.549 16.9632 13.0993C17.5014 13.6497 18.2306 13.9722 18.9999 14H19.7399C19.474 15.0372 19.0018 16.0102 18.3515 16.8609C17.7012 17.7116 16.8861 18.4224 15.9549 18.951ZM20.9999 12H18.9999C18.7347 12 18.4803 11.8946 18.2928 11.7071C18.1052 11.5196 17.9999 11.2652 17.9999 11C17.9999 10.7348 18.1052 10.4804 18.2928 10.2929C18.4803 10.1054 18.7347 10 18.9999 10H20.9999C21.2651 10 21.5194 10.1054 21.707 10.2929C21.8945 10.4804 21.9999 10.7348 21.9999 11C21.9999 11.2652 21.8945 11.5196 21.707 11.7071C21.5194 11.8946 21.2651 12 20.9999 12Z" fill="currentColor"/>
</g>
<defs>
<clipPath id="clip0_403_3025">
<rect width="24" height="24" fill="white"/>
</clipPath>
</defs>
</svg>
