<svg width="24" height="24" viewBox="0 0 24 24" fill="none" xmlns="http://www.w3.org/2000/svg">
<g clip-path="url(#clip0_406_2059)">
<path d="M18.9999 0H5.00001C2.23996 0.00332812 0.00332812 2.23996 0 5.00001V19C0.00332812 21.76 2.23996 23.9967 5.00001 24H15.515C15.678 24 15.839 23.987 16 23.976V18.9999C16 17.3431 17.3432 16 19 16H23.976C23.987 15.8389 24 15.678 24 15.5149V4.99996C23.9967 2.23996 21.76 0.00332812 18.9999 0ZM6.8 7.175C7.14519 7.175 7.42498 7.45484 7.42498 7.79998C7.42498 8.14517 7.14514 8.42497 6.8 8.42497H5.39099V9.78195H6.962C7.30719 9.78195 7.58699 10.0618 7.58699 10.4069C7.58699 10.7521 7.30714 11.0319 6.962 11.0319H4.76202C4.41683 11.0319 4.13704 10.7521 4.13704 10.4069V5.19299C4.13704 4.8478 4.41688 4.56801 4.76202 4.56801H6.962C7.30719 4.56801 7.58699 4.84785 7.58699 5.19299C7.58699 5.53813 7.30714 5.81797 6.962 5.81797H5.39099V7.17495H6.8V7.175ZM9.476 4.54401H10.94C12.1053 4.54401 13.05 5.48868 13.05 6.65399C13.05 7.8193 12.1053 8.76397 10.94 8.76397H10.939H10.1V10.4269C10.1 10.7721 9.82015 11.0519 9.47501 11.0519C9.12987 11.0519 8.85003 10.7721 8.85003 10.4269V5.16899C8.85186 5.12258 8.8655 4.90185 9.04817 4.7256C9.22062 4.55924 9.42626 4.54584 9.476 4.54401ZM18.366 9.39997C18.1342 10.4066 17.2158 11.1035 16.184 11.056C15.3138 11.0613 14.4806 10.7044 13.884 10.071C13.652 9.81537 13.6712 9.42012 13.9268 9.18814C13.9269 9.18809 13.9269 9.18804 13.927 9.188C14.1357 8.99173 14.454 8.9704 14.687 9.137C14.703 9.14801 14.787 9.21401 14.814 9.23698C15.0632 9.45481 15.3507 9.62436 15.662 9.737C15.9833 9.83192 16.3268 9.81893 16.64 9.70001C16.8448 9.641 17.0131 9.49461 17.1 9.30003C17.1648 9.09425 17.1066 8.86944 16.95 8.72103C16.8111 8.59536 16.6466 8.50123 16.468 8.44503C16.053 8.29301 15.645 8.13003 15.2359 7.96203C14.8451 7.82628 14.5083 7.56866 14.275 7.22703C14.0682 6.90003 13.9852 6.50989 14.041 6.12702C14.0715 5.91416 14.1417 5.70899 14.248 5.522C14.4745 5.12793 14.8406 4.83313 15.274 4.69602C16.0944 4.47801 16.9679 4.59721 17.7 5.02701C17.8633 5.10927 18.0032 5.23138 18.107 5.38199C18.2629 5.60699 18.2498 5.90835 18.075 6.119C17.837 6.39899 17.4909 6.31902 17.196 6.19302C16.9292 6.0741 16.6558 5.97093 16.377 5.88402C16.183 5.81249 15.9763 5.78216 15.77 5.795C15.5601 5.81066 15.3738 5.93511 15.279 6.12299C15.2044 6.341 15.2638 6.58246 15.431 6.74099C15.5981 6.89305 15.8035 6.99674 16.025 7.04099C16.304 7.11397 16.587 7.16497 16.86 7.25797C17.1934 7.37009 17.5013 7.54719 17.766 7.77898C18.2346 8.17794 18.4619 8.79205 18.366 9.39997Z" fill="currentColor"/>
<path d="M19 17.9999C18.4477 17.9999 18 18.4476 18 18.9999V23.5399C18.925 23.1906 19.7653 22.6486 20.465 21.9499L21.949 20.4649C22.6485 19.7657 23.1909 18.9253 23.54 17.9999H19V17.9999Z" fill="currentColor"/>
<path d="M10.9389 5.79358H10.0999V7.51759H10.9318C11.4068 7.51783 11.792 7.13298 11.7923 6.658C11.7925 6.18302 11.4077 5.7978 10.9327 5.79756C10.9324 5.79756 10.9321 5.79756 10.9318 5.79756L10.9389 5.79358Z" fill="currentColor"/>
</g>
<defs>
<clipPath id="clip0_406_2059">
<rect width="24" height="24" fill="white"/>
</clipPath>
</defs>
</svg>
