<svg width="24" height="24" viewBox="0 0 24 24" fill="none" xmlns="http://www.w3.org/2000/svg">
<g clip-path="url(#clip0_403_3040)">
<path d="M19 0H5C3.67441 0.00158786 2.40356 0.528882 1.46622 1.46622C0.528882 2.40356 0.00158786 3.67441 0 5L0 19C0.00158786 20.3256 0.528882 21.5964 1.46622 22.5338C2.40356 23.4711 3.67441 23.9984 5 24H16.343C17 24.0017 17.6508 23.8731 18.2577 23.6216C18.8647 23.3702 19.4157 23.0008 19.879 22.535L22.535 19.879C23.0008 19.4157 23.3702 18.8647 23.6216 18.2577C23.8731 17.6508 24.0017 17 24 16.343V5C23.9984 3.67441 23.4711 2.40356 22.5338 1.46622C21.5964 0.528882 20.3256 0.00158786 19 0V0ZM2 19V5C2 4.20435 2.31607 3.44129 2.87868 2.87868C3.44129 2.31607 4.20435 2 5 2H19C19.7956 2 20.5587 2.31607 21.1213 2.87868C21.6839 3.44129 22 4.20435 22 5V15H18C17.2044 15 16.4413 15.3161 15.8787 15.8787C15.3161 16.4413 15 17.2044 15 18V22H5C4.20435 22 3.44129 21.6839 2.87868 21.1213C2.31607 20.5587 2 19.7956 2 19ZM18.465 21.121C18.0628 21.5218 17.5546 21.7993 17 21.921V18C17 17.7348 17.1054 17.4804 17.2929 17.2929C17.4804 17.1054 17.7348 17 18 17H21.922C21.8003 17.5546 21.5228 18.0628 21.122 18.465L18.465 21.121ZM8 8.75V9.084C7.99578 9.61166 7.7832 10.1163 7.40859 10.4879C7.03397 10.8595 6.52767 11.068 6 11.068C5.73837 11.0692 5.47907 11.0188 5.23693 10.9197C4.99479 10.8206 4.77455 10.6748 4.5888 10.4905C4.40306 10.3063 4.25545 10.0872 4.15442 9.84586C4.05339 9.60452 4.00092 9.34563 4 9.084V6.984C4.00092 6.72237 4.05339 6.46348 4.15442 6.22214C4.25545 5.98081 4.40306 5.76175 4.5888 5.57749C4.77455 5.39323 4.99479 5.24739 5.23693 5.1483C5.47907 5.04921 5.73837 4.99882 6 5C6.36528 5.00301 6.72293 5.10493 7.03493 5.29491C7.34694 5.4849 7.60165 5.75586 7.772 6.079C7.81008 6.15188 7.83344 6.23155 7.84073 6.31346C7.84802 6.39537 7.83911 6.47792 7.81451 6.55638C7.7899 6.63485 7.75008 6.7077 7.69731 6.77077C7.64455 6.83385 7.57988 6.88592 7.507 6.924C7.43412 6.96208 7.35445 6.98544 7.27254 6.99273C7.19063 7.00002 7.10808 6.99111 7.02962 6.96651C6.95115 6.9419 6.8783 6.90208 6.81523 6.84931C6.75215 6.79655 6.70008 6.73188 6.662 6.659C6.59719 6.53878 6.50192 6.43771 6.38573 6.36592C6.26954 6.29413 6.13651 6.25416 6 6.25C5.90129 6.24906 5.80339 6.26783 5.71203 6.3052C5.62067 6.34257 5.53768 6.3978 5.46793 6.46764C5.39818 6.53749 5.34307 6.62055 5.30582 6.71196C5.26857 6.80337 5.24993 6.9013 5.251 7V9.068C5.2498 9.16679 5.26833 9.26482 5.30552 9.35635C5.34271 9.44788 5.39781 9.53106 5.46757 9.60101C5.53734 9.67096 5.62037 9.72627 5.7118 9.76371C5.80323 9.80114 5.90121 9.81994 6 9.819C6.19565 9.81678 6.38288 9.73909 6.52262 9.60214C6.66237 9.46519 6.74383 9.27956 6.75 9.084V9H6.5C6.36739 9 6.24021 8.94732 6.14645 8.85355C6.05268 8.75979 6 8.63261 6 8.5C6 8.36739 6.05268 8.24021 6.14645 8.14645C6.24021 8.05268 6.36739 8 6.5 8H7.25C7.44891 8 7.63968 8.07902 7.78033 8.21967C7.92098 8.36032 8 8.55109 8 8.75ZM14 8.638V10.438C14 10.6038 13.9342 10.7627 13.8169 10.8799C13.6997 10.9972 13.5408 11.063 13.375 11.063C13.2092 11.063 13.0503 10.9972 12.9331 10.8799C12.8158 10.7627 12.75 10.6038 12.75 10.438V5.625C12.75 5.45924 12.8158 5.30027 12.9331 5.18306C13.0503 5.06585 13.2092 5 13.375 5H15.388C15.5538 5 15.7127 5.06585 15.8299 5.18306C15.9472 5.30027 16.013 5.45924 16.013 5.625C16.013 5.79076 15.9472 5.94973 15.8299 6.06694C15.7127 6.18415 15.5538 6.25 15.388 6.25H14V7.388H15.239C15.4048 7.388 15.5637 7.45385 15.6809 7.57106C15.7982 7.68827 15.864 7.84724 15.864 8.013C15.864 8.17876 15.7982 8.33773 15.6809 8.45494C15.5637 8.57215 15.4048 8.638 15.239 8.638H14ZM11 5.625V10.444C11 10.6098 10.9342 10.7687 10.8169 10.8859C10.6997 11.0032 10.5408 11.069 10.375 11.069C10.2092 11.069 10.0503 11.0032 9.93306 10.8859C9.81585 10.7687 9.75 10.6098 9.75 10.444V5.625C9.75 5.45924 9.81585 5.30027 9.93306 5.18306C10.0503 5.06585 10.2092 5 10.375 5C10.5408 5 10.6997 5.06585 10.8169 5.18306C10.9342 5.30027 11 5.45924 11 5.625Z" fill="currentColor"/>
</g>
<defs>
<clipPath id="clip0_403_3040">
<rect width="24" height="24" fill="white"/>
</clipPath>
</defs>
</svg>
