<svg width="24" height="24" viewBox="0 0 24 24" fill="none" xmlns="http://www.w3.org/2000/svg">
<g clip-path="url(#clip0_406_2044)">
<path d="M6.20493 5.79358H5.36694L5.37294 7.51759H6.20493C6.67991 7.51783 7.06513 7.13298 7.06537 6.658C7.0656 6.18302 6.68076 5.7978 6.20577 5.79756C6.20549 5.79756 6.20521 5.79756 6.20493 5.79756V5.79358Z" fill="currentColor"/>
<path d="M17.0179 5.87244H16.1999V9.72542C16.5059 9.72542 16.8489 9.72542 17.0439 9.71642C18.0149 9.70044 18.4489 8.74241 18.4489 7.80041C18.4489 6.85841 18.0769 5.87244 17.0179 5.87244Z" fill="currentColor"/>
<path d="M18 18.9999V23.5399C18.925 23.1906 19.7653 22.6486 20.465 21.9499L21.949 20.4649C22.6485 19.7657 23.1909 18.9253 23.54 17.9999H19C18.4477 17.9999 18 18.4476 18 18.9999Z" fill="currentColor"/>
<path d="M18.9999 0H5.00001C2.23996 0.00332812 0.00332812 2.23996 0 5.00001V19C0.00332812 21.76 2.23996 23.9967 5.00001 24H15.515C15.678 24 15.839 23.987 16 23.976V18.9999C16 17.3431 17.3432 16 19 16H23.976C23.987 15.8389 24 15.678 24 15.5149V4.99996C23.9967 2.23996 21.76 0.00332812 18.9999 0ZM4.73399 4.54401H6.20497C7.37028 4.54401 8.31495 5.48868 8.31495 6.65399C8.31495 7.8193 7.37028 8.76397 6.20497 8.76397H5.36497V10.4269C5.36497 10.7721 5.08513 11.0519 4.73999 11.0519C4.39485 11.0519 4.11501 10.7721 4.11501 10.4269V5.16899C4.11318 5.13294 4.1053 4.89529 4.29398 4.71168C4.47341 4.53707 4.69612 4.54246 4.73399 4.54401ZM13.631 9.39997C13.3992 10.4066 12.4809 11.1035 11.449 11.056C10.5788 11.0613 9.74562 10.7044 9.149 10.071C8.91922 9.8134 8.94176 9.41829 9.19939 9.18851C9.19958 9.18833 9.19981 9.18814 9.2 9.18795C9.40868 8.99168 9.72696 8.97036 9.95998 9.13695C9.97596 9.14797 10.06 9.21397 10.087 9.23693C10.3362 9.45476 10.6237 9.62431 10.935 9.73695C11.2548 9.83164 11.5968 9.81931 11.909 9.70193C12.1143 9.64039 12.2816 9.49095 12.366 9.29393C12.4306 9.08829 12.3728 8.86381 12.217 8.71494C12.0777 8.58969 11.9134 8.49561 11.7349 8.43894C11.32 8.28692 10.9109 8.12394 10.5019 7.95594C10.1112 7.82019 9.77426 7.56256 9.54097 7.22094C9.3342 6.89394 9.25118 6.5038 9.30697 6.12093C9.33753 5.90807 9.40775 5.70285 9.51397 5.51591C9.74047 5.12183 10.1066 4.82704 10.54 4.68993C11.3604 4.47182 12.234 4.59102 12.966 5.02091C13.1295 5.10294 13.2695 5.2251 13.373 5.3759C13.5296 5.60071 13.5165 5.90249 13.341 6.11291C13.104 6.39289 12.757 6.31293 12.463 6.18693C12.1958 6.06819 11.922 5.96502 11.643 5.87793C11.449 5.8064 11.2423 5.77607 11.036 5.78891C10.8265 5.80489 10.6407 5.92935 10.546 6.11689C10.4707 6.33467 10.5297 6.57641 10.697 6.73489C10.8641 6.88695 11.0695 6.99064 11.291 7.03489C11.57 7.10788 11.853 7.15888 12.126 7.25188C12.4594 7.364 12.7673 7.54109 13.032 7.77289C13.5023 8.17334 13.7294 8.79022 13.631 9.39997ZM17.07 10.966C16.656 10.974 15.584 10.978 15.584 10.978C15.2396 10.978 14.9601 10.6993 14.959 10.3549L14.948 5.249C14.948 4.90349 15.2275 4.62313 15.573 4.62201H17.02C18.624 4.62201 19.6999 5.9 19.6999 7.79998C19.7 9.608 18.6 10.94 17.07 10.966Z" fill="currentColor"/>
</g>
<defs>
<clipPath id="clip0_406_2044">
<rect width="24" height="24" fill="white"/>
</clipPath>
</defs>
</svg>
