<svg width="24" height="24" viewBox="0 0 24 24" fill="none" xmlns="http://www.w3.org/2000/svg">
<g clip-path="url(#clip0_406_2041)">
<path d="M21.4499 13.864L12.7779 22.536C11.8395 23.4722 10.568 23.9979 9.24242 23.9979C7.91684 23.9979 6.64538 23.4722 5.70692 22.536L1.46492 18.293C0.527259 17.3553 0.000488281 16.0835 0.000488281 14.7575C0.000488281 13.4314 0.527259 12.1597 1.46492 11.222L7.36492 5.32199L4.51092 2.42899C4.40852 2.33804 4.32589 2.22702 4.26815 2.10283C4.21042 1.97863 4.17882 1.8439 4.1753 1.70698C4.17178 1.57007 4.19642 1.43389 4.2477 1.30689C4.29898 1.17989 4.3758 1.06478 4.47339 0.968697C4.57099 0.872609 4.68729 0.797595 4.81507 0.748303C4.94285 0.699011 5.0794 0.676494 5.21624 0.682146C5.35308 0.687799 5.48731 0.721501 5.61059 0.781163C5.73387 0.840826 5.84358 0.925176 5.93292 1.02899L14.9029 10.11L14.9119 10.123C15.1042 10.295 15.3558 10.3856 15.6136 10.3757C15.8714 10.3658 16.1153 10.2561 16.2938 10.0699C16.4723 9.88357 16.5714 9.63523 16.5704 9.37723C16.5693 9.11924 16.468 8.87175 16.2879 8.68699L9.07792 1.38699C8.98839 1.17333 8.97581 0.935208 9.04234 0.713305C9.10887 0.491402 9.25038 0.299482 9.44269 0.170326C9.63501 0.0411702 9.8662 -0.0172078 10.0968 0.00516359C10.3274 0.027535 10.543 0.129268 10.7069 0.292985L23.7069 13.293C23.8024 13.3852 23.8786 13.4956 23.931 13.6176C23.9834 13.7396 24.011 13.8708 24.0122 14.0036C24.0133 14.1364 23.988 14.268 23.9377 14.3909C23.8875 14.5138 23.8132 14.6255 23.7193 14.7194C23.6254 14.8133 23.5138 14.8875 23.3909 14.9378C23.268 14.9881 23.1363 15.0134 23.0035 15.0122C22.8707 15.0111 22.7395 14.9835 22.6175 14.9311C22.4955 14.8787 22.3852 14.8025 22.2929 14.707L21.4499 13.864ZM20.6919 18.431C19.9609 19.492 18.9999 20.725 18.9999 21.5C18.9999 22.163 19.2633 22.7989 19.7322 23.2678C20.201 23.7366 20.8369 24 21.4999 24C22.163 24 22.7988 23.7366 23.2677 23.2678C23.7365 22.7989 23.9999 22.163 23.9999 21.5C23.9999 20.651 23.0549 19.456 22.3269 18.422C22.2339 18.2915 22.1109 18.1852 21.9682 18.1122C21.8255 18.0392 21.6674 18.0015 21.5071 18.0024C21.3468 18.0033 21.1891 18.0427 21.0472 18.1173C20.9054 18.1919 20.7835 18.2994 20.6919 18.431Z" fill="currentColor"/>
</g>
<defs>
<clipPath id="clip0_406_2041">
<rect width="24" height="24" fill="white"/>
</clipPath>
</defs>
</svg>
