<svg width="24" height="24" viewBox="0 0 24 24" fill="none" xmlns="http://www.w3.org/2000/svg">
<g clip-path="url(#clip0_403_3012)">
<path d="M5.972 22.284C5.75341 22.2839 5.54087 22.2122 5.3669 22.0799C5.19292 21.9475 5.0671 21.7618 5.00869 21.5512C4.95027 21.3406 4.96248 21.1166 5.04345 20.9135C5.12441 20.7105 5.26967 20.5396 5.457 20.427C9 18.299 9 13.729 9 10.999C9 10.2033 9.31607 9.44024 9.87868 8.87763C10.4413 8.31502 11.2044 7.99895 12 7.99895C12.7956 7.99895 13.5587 8.31502 14.1213 8.87763C14.6839 9.44024 15 10.2033 15 10.999C15 11.2642 14.8946 11.5185 14.7071 11.7061C14.5196 11.8936 14.2652 11.999 14 11.999C13.7348 11.999 13.4804 11.8936 13.2929 11.7061C13.1054 11.5185 13 11.2642 13 10.999C13 10.7337 12.8946 10.4794 12.7071 10.2918C12.5196 10.1043 12.2652 9.99895 12 9.99895C11.7348 9.99895 11.4804 10.1043 11.2929 10.2918C11.1054 10.4794 11 10.7337 11 10.999C11 13.946 11 19.433 6.486 22.142C6.33068 22.2349 6.15303 22.284 5.972 22.284ZM10.935 23.705C13.217 21.405 14.55 18.171 14.896 14.084C14.9077 13.9529 14.8933 13.8207 14.8538 13.6952C14.8143 13.5696 14.7504 13.4531 14.6658 13.3523C14.5811 13.2515 14.4774 13.1684 14.3606 13.1078C14.2438 13.0471 14.1161 13.0102 13.985 12.999C13.8538 12.9855 13.7212 12.9986 13.5951 13.0375C13.4691 13.0763 13.3521 13.1401 13.2513 13.2252C13.1504 13.3102 13.0677 13.4146 13.008 13.5322C12.9483 13.6499 12.913 13.7783 12.904 13.91C12.593 17.567 11.485 20.31 9.516 22.291C9.32902 22.4791 9.22445 22.7339 9.2253 22.9991C9.22614 23.2644 9.33233 23.5185 9.5205 23.7055C9.70867 23.8924 9.96341 23.997 10.2287 23.9962C10.494 23.9953 10.748 23.8891 10.935 23.701V23.705ZM16.135 23.519C16.7416 22.5111 17.2467 21.4455 17.643 20.338C17.7258 20.0902 17.7085 19.82 17.5946 19.5849C17.4808 19.3498 17.2794 19.1686 17.0337 19.08C16.788 18.9915 16.5174 19.0026 16.2797 19.1109C16.0421 19.2193 15.8562 19.4164 15.762 19.66C15.4099 20.642 14.9617 21.5869 14.424 22.481C14.3558 22.5933 14.3105 22.718 14.2905 22.8478C14.2705 22.9777 14.2763 23.1103 14.3076 23.2379C14.3388 23.3655 14.3949 23.4858 14.4726 23.5917C14.5503 23.6977 14.6482 23.7873 14.7605 23.8555C14.9874 23.9931 15.2597 24.035 15.5174 23.9719C15.6451 23.9406 15.7653 23.8845 15.8713 23.8068C15.9772 23.7291 16.0668 23.6313 16.135 23.519ZM18.5 17.19C18.8705 15.1478 19.038 13.0741 19 10.999C18.9991 9.58225 18.5683 8.19918 17.7646 7.03251C16.9609 5.86585 15.8221 4.9705 14.4987 4.46479C13.1753 3.95909 11.7297 3.86683 10.3528 4.20021C8.97584 4.53359 7.73248 5.27691 6.787 6.33195C6.69492 6.42896 6.62323 6.54345 6.57618 6.66864C6.52913 6.79384 6.50768 6.92721 6.51308 7.06085C6.51849 7.19449 6.55065 7.32568 6.60766 7.44667C6.66467 7.56766 6.74537 7.67598 6.84499 7.76523C6.94461 7.85448 7.06111 7.92283 7.18762 7.96626C7.31412 8.00968 7.44805 8.02728 7.58148 8.01802C7.7149 8.00877 7.84512 7.97284 7.96441 7.91236C8.08371 7.85189 8.18966 7.7681 8.276 7.66595C8.95128 6.91223 9.83937 6.38116 10.8229 6.14292C11.8064 5.90468 12.8391 5.97049 13.7845 6.33166C14.7298 6.69282 15.5433 7.33234 16.1174 8.16568C16.6916 8.99903 16.9993 9.98698 17 10.999C17.0369 12.9458 16.8821 14.8915 16.538 16.808C16.4875 17.0681 16.5423 17.3377 16.6905 17.5574C16.8386 17.7772 17.0679 17.9292 17.328 17.98C17.3915 17.9927 17.4562 17.999 17.521 17.999C17.7526 17.9984 17.9769 17.9174 18.1554 17.7698C18.334 17.6223 18.4558 17.4173 18.5 17.19ZM7 10.999C6.99971 10.7198 7.02279 10.4412 7.069 10.166C7.09886 10.0334 7.10141 9.89624 7.0765 9.76271C7.05158 9.62918 6.99972 9.50212 6.92409 9.3893C6.84845 9.27647 6.75062 9.18024 6.63657 9.10646C6.52251 9.03269 6.39462 8.98293 6.2607 8.96021C6.12678 8.9375 5.98963 8.9423 5.85763 8.97433C5.72563 9.00637 5.60154 9.06496 5.49293 9.14653C5.38431 9.2281 5.29346 9.33095 5.2259 9.44879C5.15835 9.56664 5.11551 9.69701 5.1 9.83195C5.03399 10.2175 5.00054 10.6078 5 10.999C5 15.644 3.654 17.999 1 17.999C0.734784 17.999 0.48043 18.1043 0.292893 18.2918C0.105357 18.4794 0 18.7337 0 18.999C0 19.2642 0.105357 19.5185 0.292893 19.7061C0.48043 19.8936 0.734784 19.999 1 19.999C4.869 19.999 7 16.799 7 10.999ZM20.7 23.413C22.3457 19.4871 23.13 15.2538 23 10.999C23.0046 9.33788 22.6283 7.69786 21.9 6.20495C21.8425 6.08676 21.7624 5.98105 21.6641 5.89384C21.5658 5.80663 21.4512 5.73965 21.327 5.6967C21.2028 5.65375 21.0714 5.63569 20.9402 5.64354C20.809 5.65139 20.6807 5.685 20.5625 5.74245C20.4443 5.79991 20.3386 5.88008 20.2514 5.97839C20.1642 6.07669 20.0972 6.19122 20.0542 6.31542C20.0113 6.43961 19.9932 6.57106 20.0011 6.70224C20.0089 6.83342 20.0425 6.96176 20.1 7.07995C20.695 8.30052 21.0029 9.64107 21 10.999C21.1259 14.9677 20.4035 18.9177 18.881 22.585C18.8268 22.7047 18.7967 22.834 18.7925 22.9653C18.7883 23.0967 18.8101 23.2276 18.8565 23.3506C18.9029 23.4736 18.9732 23.5862 19.0632 23.682C19.1532 23.7778 19.2612 23.8549 19.381 23.909C19.5105 23.9685 19.6514 23.9992 19.794 23.999C19.9852 23.9981 20.1722 23.9425 20.3328 23.8386C20.4934 23.7348 20.6208 23.587 20.7 23.413ZM3 13.999V10.999C3.00265 8.61282 3.95171 6.32517 5.63896 4.63792C7.32622 2.95066 9.61386 2.0016 12 1.99895C13.9484 1.99246 15.8452 2.62473 17.4 3.79895C17.6122 3.95808 17.8789 4.02641 18.1414 3.9889C18.404 3.9514 18.6409 3.81113 18.8 3.59895C18.9591 3.38678 19.0275 3.12008 18.99 2.85753C18.9524 2.59498 18.8122 2.35808 18.6 2.19895C16.6994 0.764374 14.3812 -0.00833344 12 -0.00104758C9.08367 0.00239289 6.28778 1.16242 4.22563 3.22458C2.16347 5.28673 1.00344 8.08263 1 10.999V13.999C1 14.2642 1.10536 14.5185 1.29289 14.7061C1.48043 14.8936 1.73478 14.999 2 14.999C2.26522 14.999 2.51957 14.8936 2.70711 14.7061C2.89464 14.5185 3 14.2642 3 13.999Z" fill="currentColor"/>
</g>
<defs>
<clipPath id="clip0_403_3012">
<rect width="24" height="24" fill="white"/>
</clipPath>
</defs>
</svg>
