<svg width="24" height="24" viewBox="0 0 24 24" fill="none" xmlns="http://www.w3.org/2000/svg">
<g clip-path="url(#clip0_406_2173)">
<path d="M1 24C0.734784 24 0.48043 23.8946 0.292893 23.7071C0.105357 23.5196 0 23.2652 0 23V4C0 2.93913 0.421427 1.92172 1.17157 1.17157C1.92172 0.421427 2.93913 0 4 0L11 0C12.0609 0 13.0783 0.421427 13.8284 1.17157C14.5786 1.92172 15 2.93913 15 4V9C15 10.0609 14.5786 11.0783 13.8284 11.8284C13.0783 12.5786 12.0609 13 11 13H2V23C2 23.2652 1.89464 23.5196 1.70711 23.7071C1.51957 23.8946 1.26522 24 1 24ZM20 4H17V9C16.9984 10.5908 16.3658 12.116 15.2409 13.2409C14.116 14.3658 12.5908 14.9984 11 15H10.556C10.9044 15.606 11.4059 16.1098 12.0104 16.4608C12.6149 16.8118 13.301 16.9978 14 17H20C21.0609 17 22.0783 16.5786 22.8284 15.8284C23.5786 15.0783 24 14.0609 24 13V8C24 6.93913 23.5786 5.92172 22.8284 5.17157C22.0783 4.42143 21.0609 4 20 4Z" fill="currentColor"/>
</g>
<defs>
<clipPath id="clip0_406_2173">
<rect width="24" height="24" fill="white"/>
</clipPath>
</defs>
</svg>
