<svg width="24" height="24" viewBox="0 0 24 24" fill="none" xmlns="http://www.w3.org/2000/svg">
<g clip-path="url(#clip0_406_2279)">
<path d="M20.8002 11.9998C25.7392 9.01083 21.5732 1.54683 16.4002 4.36783C16.2272 -1.40617 7.77117 -1.40317 7.60017 4.36783C2.46717 1.55083 -1.76183 8.98583 3.20017 11.9438C-1.74883 14.9788 2.40017 22.1548 7.60017 19.6358C7.78017 25.4058 16.2222 25.4008 16.4002 19.6358C21.5622 22.1528 25.7722 14.9998 20.8002 11.9998ZM12.0002 15.9998C10.9393 15.9998 9.92189 15.5784 9.17175 14.8283C8.4216 14.0781 8.00017 13.0607 8.00017 11.9998C8.00017 10.939 8.4216 9.92155 9.17175 9.1714C9.92189 8.42125 10.9393 7.99983 12.0002 7.99983C13.061 7.99983 14.0785 8.42125 14.8286 9.1714C15.5787 9.92155 16.0002 10.939 16.0002 11.9998C16.0002 13.0607 15.5787 14.0781 14.8286 14.8283C14.0785 15.5784 13.061 15.9998 12.0002 15.9998ZM14.0002 11.9998C14.0002 12.5303 13.7895 13.039 13.4144 13.414C13.0393 13.7891 12.5306 13.9998 12.0002 13.9998C11.4697 13.9998 10.961 13.7891 10.586 13.414C10.2109 13.039 10.0002 12.5303 10.0002 11.9998C10.0002 11.4694 10.2109 10.9607 10.586 10.5856C10.961 10.2105 11.4697 9.99983 12.0002 9.99983C12.5306 9.99983 13.0393 10.2105 13.4144 10.5856C13.7895 10.9607 14.0002 11.4694 14.0002 11.9998Z" fill="currentColor"/>
</g>
<defs>
<clipPath id="clip0_406_2279">
<rect width="24" height="24" fill="white"/>
</clipPath>
</defs>
</svg>
