<svg width="24" height="24" viewBox="0 0 24 24" fill="none" xmlns="http://www.w3.org/2000/svg">
<g clip-path="url(#clip0_403_3006)">
<path d="M16 15.0002C16 15.2655 15.8946 15.5198 15.7071 15.7074C15.5196 15.8949 15.2652 16.0002 15 16.0002H13V18.0002C13 18.2655 12.8946 18.5198 12.7071 18.7074C12.5196 18.8949 12.2652 19.0002 12 19.0002C11.7348 19.0002 11.4804 18.8949 11.2929 18.7074C11.1054 18.5198 11 18.2655 11 18.0002V16.0002H9C8.73478 16.0002 8.48043 15.8949 8.29289 15.7074C8.10536 15.5198 8 15.2655 8 15.0002C8 14.735 8.10536 14.4807 8.29289 14.2931C8.48043 14.1056 8.73478 14.0002 9 14.0002H11V12.0002C11 11.735 11.1054 11.4807 11.2929 11.2931C11.4804 11.1056 11.7348 11.0002 12 11.0002C12.2652 11.0002 12.5196 11.1056 12.7071 11.2931C12.8946 11.4807 13 11.735 13 12.0002V14.0002H15C15.2652 14.0002 15.5196 14.1056 15.7071 14.2931C15.8946 14.4807 16 14.735 16 15.0002ZM24 8.00024V18.0002C23.9984 19.3258 23.4711 20.5967 22.5338 21.534C21.5964 22.4714 20.3256 22.9987 19 23.0002H5C3.67441 22.9987 2.40356 22.4714 1.46622 21.534C0.528882 20.5967 0.00158786 19.3258 0 18.0002L0 6.00024C0.00158786 4.67465 0.528882 3.4038 1.46622 2.46646C2.40356 1.52913 3.67441 1.00183 5 1.00024H7.528C7.9934 1.00063 8.45239 1.10879 8.869 1.31624L12.025 2.90024C12.1644 2.96717 12.3173 3.00137 12.472 3.00024H19C20.3256 3.00183 21.5964 3.52913 22.5338 4.46646C23.4711 5.4038 23.9984 6.67465 24 8.00024ZM2 6.00024V7.00024H21.816C21.6099 6.41734 21.2288 5.91234 20.7247 5.55433C20.2206 5.19633 19.6183 5.00281 19 5.00024H12.472C12.0066 4.99986 11.5476 4.8917 11.131 4.68424L7.975 3.10524C7.83596 3.03659 7.68306 3.00068 7.528 3.00024H5C4.20435 3.00024 3.44129 3.31631 2.87868 3.87892C2.31607 4.44153 2 5.20459 2 6.00024ZM22 18.0002V9.00024H2V18.0002C2 18.7959 2.31607 19.559 2.87868 20.1216C3.44129 20.6842 4.20435 21.0002 5 21.0002H19C19.7956 21.0002 20.5587 20.6842 21.1213 20.1216C21.6839 19.559 22 18.7959 22 18.0002Z" fill="currentColor"/>
</g>
<defs>
<clipPath id="clip0_403_3006">
<rect width="24" height="24" fill="white"/>
</clipPath>
</defs>
</svg>
