<svg width="24" height="24" viewBox="0 0 24 24" fill="none" xmlns="http://www.w3.org/2000/svg">
<g clip-path="url(#clip0_406_2087)">
<path d="M16 0.3C16.7058 0.541978 17.348 0.939823 17.879 1.464L19.535 3.122C20.0598 3.65229 20.458 4.29426 20.7 5H16V0.3ZM14 12H10C9.73478 12 9.48043 12.1054 9.29289 12.2929C9.10536 12.4804 9 12.7348 9 13C9 13.2652 9.10536 13.5196 9.29289 13.7071C9.48043 13.8946 9.73478 14 10 14H14C14.2652 14 14.5196 13.8946 14.7071 13.7071C14.8946 13.5196 15 13.2652 15 13C15 12.7348 14.8946 12.4804 14.7071 12.2929C14.5196 12.1054 14.2652 12 14 12ZM16 7C15.4696 7 14.9609 6.78929 14.5858 6.41421C14.2107 6.03914 14 5.53043 14 5V0H8C6.67441 0.00158786 5.40356 0.528882 4.46622 1.46622C3.52888 2.40356 3.00159 3.67441 3 5V19C3.00159 20.3256 3.52888 21.5964 4.46622 22.5338C5.40356 23.4711 6.67441 23.9984 8 24H16C17.3256 23.9984 18.5964 23.4711 19.5338 22.5338C20.4711 21.5964 20.9984 20.3256 21 19V7H16ZM16 20H8C7.73478 20 7.48043 19.8946 7.29289 19.7071C7.10536 19.5196 7 19.2652 7 19C7 18.7348 7.10536 18.4804 7.29289 18.2929C7.48043 18.1054 7.73478 18 8 18H16C16.2652 18 16.5196 18.1054 16.7071 18.2929C16.8946 18.4804 17 18.7348 17 19C17 19.2652 16.8946 19.5196 16.7071 19.7071C16.5196 19.8946 16.2652 20 16 20ZM14 16H10C9.20435 16 8.44129 15.6839 7.87868 15.1213C7.31607 14.5587 7 13.7956 7 13C7 12.2044 7.31607 11.4413 7.87868 10.8787C8.44129 10.3161 9.20435 10 10 10H14C14.7956 10 15.5587 10.3161 16.1213 10.8787C16.6839 11.4413 17 12.2044 17 13C17 13.7956 16.6839 14.5587 16.1213 15.1213C15.5587 15.6839 14.7956 16 14 16Z" fill="currentColor"/>
</g>
<defs>
<clipPath id="clip0_406_2087">
<rect width="24" height="24" fill="white"/>
</clipPath>
</defs>
</svg>
