<svg width="24" height="24" viewBox="0 0 24 24" fill="none" xmlns="http://www.w3.org/2000/svg">
<g clip-path="url(#clip0_403_3175)">
<path d="M3.787 20.6562C2.78296 20.6557 1.82018 20.2567 1.11013 19.5468C0.400068 18.8369 0.000794959 17.8742 1.34638e-07 16.8702V7.1302C-0.000186396 6.43093 0.193447 5.74529 0.559399 5.14942C0.92535 4.55356 1.4493 4.07078 2.07306 3.7547C2.69682 3.43863 3.39598 3.30162 4.0929 3.35891C4.78982 3.41619 5.45722 3.66552 6.021 4.0792L9.8 6.8532C9.8494 6.17942 10.0783 5.53116 10.463 4.97578C10.8477 4.42041 11.3741 3.97818 11.9875 3.69506C12.6009 3.41193 13.2789 3.29824 13.9511 3.36579C14.6233 3.43335 15.2652 3.67968 15.81 4.0792L22.451 8.9492C22.9297 9.30073 23.3189 9.76 23.5872 10.2899C23.8555 10.8197 23.9953 11.4053 23.9953 11.9992C23.9953 12.5931 23.8555 13.1787 23.5872 13.7085C23.3189 14.2384 22.9297 14.6977 22.451 15.0492L15.81 19.9192C15.2653 20.3187 14.6237 20.565 13.9516 20.6327C13.2796 20.7003 12.6017 20.5868 11.9883 20.3039C11.375 20.021 10.8485 19.579 10.4637 19.0239C10.0789 18.4688 9.84973 17.8208 9.8 17.1472L6.021 19.9212C5.37359 20.3978 4.59093 20.6553 3.787 20.6562ZM10.793 14.1812C11.0582 14.1812 11.3126 14.2866 11.5001 14.4741C11.6876 14.6616 11.793 14.916 11.793 15.1812V16.8702C11.7933 17.1997 11.8847 17.5226 12.0573 17.8033C12.2299 18.0839 12.4768 18.3113 12.7707 18.4602C13.0645 18.6091 13.3939 18.6738 13.7223 18.6469C14.0507 18.6201 14.3652 18.5029 14.631 18.3082L21.271 13.4382C21.4969 13.2726 21.6806 13.0561 21.8072 12.8063C21.9339 12.5564 21.9998 12.2803 21.9998 12.0002C21.9998 11.7201 21.9339 11.444 21.8072 11.1941C21.6806 10.9443 21.4969 10.7278 21.271 10.5622L14.631 5.6922C14.3652 5.49755 14.0507 5.38032 13.7223 5.35348C13.3939 5.32665 13.0645 5.39127 12.7707 5.54018C12.4768 5.68909 12.2299 5.91648 12.0573 6.19713C11.8847 6.47778 11.7933 6.80074 11.793 7.1302V8.8192C11.7929 9.00391 11.7416 9.18497 11.6449 9.34231C11.5481 9.49965 11.4097 9.62712 11.2449 9.71059C11.0802 9.79406 10.8955 9.83027 10.7114 9.8152C10.5273 9.80012 10.351 9.73436 10.202 9.6252L4.838 5.6922C4.57219 5.49755 4.25766 5.38032 3.9293 5.35348C3.60093 5.32665 3.27155 5.39127 2.97766 5.54018C2.68377 5.68909 2.43686 5.91648 2.26429 6.19713C2.09173 6.47778 2.00025 6.80074 2 7.1302V16.8702C2.00025 17.1997 2.09173 17.5226 2.26429 17.8033C2.43686 18.0839 2.68377 18.3113 2.97766 18.4602C3.27155 18.6091 3.60093 18.6738 3.9293 18.6469C4.25766 18.6201 4.57219 18.5029 4.838 18.3082L10.2 14.3752C10.3719 14.2489 10.5797 14.181 10.793 14.1812Z" fill="currentColor"/>
</g>
<defs>
<clipPath id="clip0_403_3175">
<rect width="24" height="24" fill="white"/>
</clipPath>
</defs>
</svg>
