<svg width="24" height="24" viewBox="0 0 24 24" fill="none" xmlns="http://www.w3.org/2000/svg">
<g clip-path="url(#clip0_406_2152)">
<path d="M6 9.00024H9.99999C9.99999 8.46981 9.78928 7.9611 9.41421 7.58603C9.03913 7.21096 8.53043 7.00024 8 7.00024C7.46956 7.00024 6.96086 7.21096 6.58579 7.58603C6.21071 7.9611 6 8.46981 6 9.00024Z" fill="currentColor"/>
<path d="M8 5C8.45722 5.00463 8.91022 5.08819 9.339 5.247L11.293 3.293C11.3852 3.19749 11.4956 3.12131 11.6176 3.0689C11.7396 3.01649 11.8708 2.9889 12.0036 2.98775C12.1364 2.9866 12.2681 3.0119 12.391 3.06218C12.5139 3.11246 12.6255 3.18671 12.7194 3.28061C12.8133 3.3745 12.8875 3.48615 12.9378 3.60905C12.9881 3.73194 13.0134 3.86362 13.0123 3.9964C13.0111 4.12918 12.9835 4.2604 12.9311 4.3824C12.8787 4.50441 12.8025 4.61475 12.707 4.707L11.014 6.4C11.6459 7.11913 11.9962 8.04269 12 9H16V5C15.9984 3.67441 15.4711 2.40356 14.5338 1.46622C13.5964 0.528882 12.3256 0.00158786 11 0L5 0C3.67441 0.00158786 2.40356 0.528882 1.46622 1.46622C0.528882 2.40356 0.00158786 3.67441 0 5L0 9H4C4 7.93913 4.42143 6.92172 5.17157 6.17157C5.92172 5.42143 6.93913 5 8 5Z" fill="currentColor"/>
<path d="M23.681 3.26666C23.4935 3.07919 23.2392 2.97388 22.974 2.97388C22.7088 2.97388 22.4545 3.07919 22.267 3.26666L19.293 6.23966C19.1054 6.42715 19.0001 6.68146 19 6.94666V17.9996C19 18.2649 18.8946 18.5192 18.7071 18.7067C18.5196 18.8943 18.2652 18.9996 18 18.9996H16V10.9997H0V18.9996C0.00158786 20.3252 0.528882 21.5961 1.46622 22.5334C2.40356 23.4708 3.67441 23.998 5 23.9996H11C11.9718 23.9984 12.9221 23.7139 13.7348 23.1811C14.5475 22.6483 15.1873 21.8903 15.576 20.9996H18C18.7956 20.9996 19.5587 20.6836 20.1213 20.121C20.6839 19.5584 21 18.7953 21 17.9996V7.36066L23.681 4.68066C23.8685 4.49313 23.9738 4.23883 23.9738 3.97366C23.9738 3.7085 23.8685 3.45419 23.681 3.26666Z" fill="currentColor"/>
</g>
<defs>
<clipPath id="clip0_406_2152">
<rect width="24" height="24" fill="white"/>
</clipPath>
</defs>
</svg>
