<svg width="24" height="24" viewBox="0 0 24 24" fill="none" xmlns="http://www.w3.org/2000/svg">
<g clip-path="url(#clip0_403_2994)">
<path d="M13 15.9996C14.5822 15.9996 16.1289 15.5304 17.4445 14.6514C18.7601 13.7723 19.7855 12.5229 20.391 11.0611C20.9965 9.59928 21.1549 7.99075 20.8463 6.4389C20.5376 4.88705 19.7757 3.46159 18.6568 2.34277C17.538 1.22395 16.1126 0.462019 14.5607 0.153337C13.0089 -0.155344 11.4003 0.00308233 9.93851 0.608583C8.4767 1.21408 7.22727 2.23946 6.34822 3.55506C5.46917 4.87065 4.99998 6.41737 4.99998 7.99962C5.00236 10.1206 5.84598 12.1541 7.34576 13.6538C8.84553 15.1536 10.879 15.9972 13 15.9996ZM13 1.99962C14.1867 1.99962 15.3467 2.35151 16.3334 3.0108C17.3201 3.67009 18.0891 4.60716 18.5433 5.70352C18.9974 6.79988 19.1162 8.00628 18.8847 9.17016C18.6532 10.334 18.0817 11.4031 17.2426 12.2423C16.4035 13.0814 15.3344 13.6528 14.1705 13.8843C13.0066 14.1158 11.8002 13.997 10.7039 13.5429C9.60752 13.0888 8.67045 12.3197 8.01116 11.333C7.35187 10.3463 6.99998 9.18631 6.99998 7.99962C7.00157 6.40881 7.63422 4.88361 8.75909 3.75873C9.88397 2.63386 11.4092 2.00121 13 1.99962ZM22.907 14.7726C21.8991 16.2411 20.5768 17.4667 19.0362 18.3602C17.4955 19.2538 15.7751 19.793 14 19.9386V21.9996H18C18.2652 21.9996 18.5196 22.105 18.7071 22.2925C18.8946 22.48 19 22.7344 19 22.9996C19 23.2648 18.8946 23.5192 18.7071 23.7067C18.5196 23.8943 18.2652 23.9996 18 23.9996H7.99998C7.73476 23.9996 7.48041 23.8943 7.29287 23.7067C7.10534 23.5192 6.99998 23.2648 6.99998 22.9996C6.99998 22.7344 7.10534 22.48 7.29287 22.2925C7.48041 22.105 7.73476 21.9996 7.99998 21.9996H12V19.9486C9.81742 19.767 7.72624 18.9913 5.95326 17.7056C4.18027 16.4199 2.79316 14.6733 1.94238 12.6552C1.0916 10.6371 0.809624 8.42457 1.12704 6.2576C1.44445 4.09063 2.34914 2.05192 3.74298 0.36262C3.91192 0.158138 4.15517 0.0291432 4.41923 0.00401331C4.68328 -0.0211166 4.9465 0.0596768 5.15098 0.22862C5.35546 0.397563 5.48446 0.640816 5.50958 0.904867C5.53471 1.16892 5.45392 1.43214 5.28498 1.63662C4.42653 2.67913 3.78813 3.88472 3.40829 5.18068C3.02846 6.47663 2.91505 7.83609 3.07492 9.17707C3.23478 10.518 3.6646 11.8127 4.33846 12.9831C5.01232 14.1534 5.91624 15.1751 6.99572 15.9866C8.07519 16.7981 9.30785 17.3825 10.6193 17.7047C11.9308 18.0268 13.294 18.0799 14.6266 17.8609C15.9592 17.6418 17.2336 17.1552 18.373 16.4302C19.5123 15.7052 20.4931 14.7569 21.256 13.6426C21.4058 13.4237 21.6365 13.2732 21.8973 13.2244C22.158 13.1755 22.4275 13.2323 22.6465 13.3821C22.8654 13.532 23.0159 13.7626 23.0647 14.0234C23.1136 14.2842 23.0568 14.5537 22.907 14.7726Z" fill="currentColor"/>
</g>
<defs>
<clipPath id="clip0_403_2994">
<rect width="24" height="24" fill="white"/>
</clipPath>
</defs>
</svg>
