<svg width="24" height="24" viewBox="0 0 24 24" fill="none" xmlns="http://www.w3.org/2000/svg">
<g clip-path="url(#clip0_406_2016)">
<path d="M19 4.00024H9V20.0002H19C20.3256 19.9987 21.5964 19.4714 22.5338 18.534C23.4711 17.5967 23.9984 16.3258 24 15.0002V9.00024C23.9984 7.67465 23.4711 6.4038 22.5338 5.46646C21.5964 4.52913 20.3256 4.00183 19 4.00024Z" fill="currentColor"/>
<path d="M2 9.00024V11.0002H1C0.734784 11.0002 0.48043 11.1056 0.292893 11.2931C0.105357 11.4807 0 11.735 0 12.0002C0 12.2655 0.105357 12.5198 0.292893 12.7074C0.48043 12.8949 0.734784 13.0002 1 13.0002H2V15.0002C2.00159 16.3258 2.52888 17.5967 3.46622 18.534C4.40356 19.4714 5.67441 19.9987 7 20.0002V4.00024C5.67441 4.00183 4.40356 4.52913 3.46622 5.46646C2.52888 6.4038 2.00159 7.67465 2 9.00024Z" fill="currentColor"/>
</g>
<defs>
<clipPath id="clip0_406_2016">
<rect width="24" height="24" fill="white"/>
</clipPath>
</defs>
</svg>
