<svg width="24" height="24" viewBox="0 0 24 24" fill="none" xmlns="http://www.w3.org/2000/svg">
<g clip-path="url(#clip0_403_2986)">
<path d="M4.5 17.5004H2C1.46957 17.5004 0.960859 17.7111 0.585786 18.0862C0.210714 18.4612 0 18.9699 0 19.5004L0 22.0004C0 22.5308 0.210714 23.0395 0.585786 23.4146C0.960859 23.7896 1.46957 24.0004 2 24.0004H4.5C5.03043 24.0004 5.53914 23.7896 5.91421 23.4146C6.28929 23.0395 6.5 22.5308 6.5 22.0004V19.5004C6.5 18.9699 6.28929 18.4612 5.91421 18.0862C5.53914 17.7111 5.03043 17.5004 4.5 17.5004ZM4.5 22.0004H2V19.5004H4.5V22.0004Z" fill="currentColor"/>
<path d="M22.0001 17.5004H19.5001C18.9697 17.5004 18.461 17.7111 18.0859 18.0862C17.7108 18.4612 17.5001 18.9699 17.5001 19.5004V22.0004C17.5001 22.5308 17.7108 23.0395 18.0859 23.4146C18.461 23.7896 18.9697 24.0004 19.5001 24.0004H22.0001C22.5305 24.0004 23.0392 23.7896 23.4143 23.4146C23.7894 23.0395 24.0001 22.5308 24.0001 22.0004V19.5004C24.0001 18.9699 23.7894 18.4612 23.4143 18.0862C23.0392 17.7111 22.5305 17.5004 22.0001 17.5004ZM22.0001 22.0004H19.5001V19.5004H22.0001V22.0004Z" fill="currentColor"/>
<path d="M4.5 8.74976H2C1.46957 8.74976 0.960859 8.96047 0.585786 9.33554C0.210714 9.71061 0 10.2193 0 10.7498L0 13.2497C0 13.7802 0.210714 14.2889 0.585786 14.664C0.960859 15.039 1.46957 15.2497 2 15.2497H4.5C5.03043 15.2497 5.53914 15.039 5.91421 14.664C6.28929 14.2889 6.5 13.7802 6.5 13.2497V10.7498C6.5 10.2193 6.28929 9.71061 5.91421 9.33554C5.53914 8.96047 5.03043 8.74976 4.5 8.74976ZM4.5 13.2497H2V10.7498H4.5V13.2497Z" fill="currentColor"/>
<path d="M22.0001 8.74976H19.5001C18.9697 8.74976 18.461 8.96047 18.0859 9.33554C17.7108 9.71061 17.5001 10.2193 17.5001 10.7498V13.2497C17.5001 13.7802 17.7108 14.2889 18.0859 14.664C18.461 15.039 18.9697 15.2497 19.5001 15.2497H22.0001C22.5305 15.2497 23.0392 15.039 23.4143 14.664C23.7894 14.2889 24.0001 13.7802 24.0001 13.2497V10.7498C24.0001 10.2193 23.7894 9.71061 23.4143 9.33554C23.0392 8.96047 22.5305 8.74976 22.0001 8.74976ZM22.0001 13.2497H19.5001V10.7498H22.0001V13.2497Z" fill="currentColor"/>
<path d="M4.5 0H2C1.46957 0 0.960859 0.210714 0.585786 0.585786C0.210714 0.960859 0 1.46957 0 2L0 4.5C0 5.03043 0.210714 5.53914 0.585786 5.91421C0.960859 6.28929 1.46957 6.5 2 6.5H4.5C5.03043 6.5 5.53914 6.28929 5.91421 5.91421C6.28929 5.53914 6.5 5.03043 6.5 4.5V2C6.5 1.46957 6.28929 0.960859 5.91421 0.585786C5.53914 0.210714 5.03043 0 4.5 0V0ZM4.5 4.5H2V2H4.5V4.5Z" fill="currentColor"/>
<path d="M13.2499 17.5004H10.7499C10.2194 17.5004 9.71074 17.7111 9.33566 18.0862C8.96059 18.4612 8.74988 18.9699 8.74988 19.5004V22.0004C8.74988 22.5308 8.96059 23.0395 9.33566 23.4146C9.71074 23.7896 10.2194 24.0004 10.7499 24.0004H13.2499C13.7803 24.0004 14.289 23.7896 14.6641 23.4146C15.0391 23.0395 15.2499 22.5308 15.2499 22.0004V19.5004C15.2499 18.9699 15.0391 18.4612 14.6641 18.0862C14.289 17.7111 13.7803 17.5004 13.2499 17.5004ZM13.2499 22.0004H10.7499V19.5004H13.2499V22.0004Z" fill="currentColor"/>
<path d="M13.2499 8.74976H10.7499C10.2194 8.74976 9.71074 8.96047 9.33566 9.33554C8.96059 9.71061 8.74988 10.2193 8.74988 10.7498V13.2497C8.74988 13.7802 8.96059 14.2889 9.33566 14.664C9.71074 15.039 10.2194 15.2497 10.7499 15.2497H13.2499C13.7803 15.2497 14.289 15.039 14.6641 14.664C15.0391 14.2889 15.2499 13.7802 15.2499 13.2497V10.7498C15.2499 10.2193 15.0391 9.71061 14.6641 9.33554C14.289 8.96047 13.7803 8.74976 13.2499 8.74976ZM13.2499 13.2497H10.7499V10.7498H13.2499V13.2497Z" fill="currentColor"/>
<path d="M13.2499 0H10.7499C10.2194 0 9.71074 0.210714 9.33566 0.585786C8.96059 0.960859 8.74988 1.46957 8.74988 2V4.5C8.74988 5.03043 8.96059 5.53914 9.33566 5.91421C9.71074 6.28929 10.2194 6.5 10.7499 6.5H13.2499C13.7803 6.5 14.289 6.28929 14.6641 5.91421C15.0391 5.53914 15.2499 5.03043 15.2499 4.5V2C15.2499 1.46957 15.0391 0.960859 14.6641 0.585786C14.289 0.210714 13.7803 0 13.2499 0V0ZM13.2499 4.5H10.7499V2H13.2499V4.5Z" fill="currentColor"/>
<path d="M22.0001 0H19.5001C18.9697 0 18.461 0.210714 18.0859 0.585786C17.7108 0.960859 17.5001 1.46957 17.5001 2V4.5C17.5001 5.03043 17.7108 5.53914 18.0859 5.91421C18.461 6.28929 18.9697 6.5 19.5001 6.5H22.0001C22.5305 6.5 23.0392 6.28929 23.4143 5.91421C23.7894 5.53914 24.0001 5.03043 24.0001 4.5V2C24.0001 1.46957 23.7894 0.960859 23.4143 0.585786C23.0392 0.210714 22.5305 0 22.0001 0V0ZM22.0001 4.5H19.5001V2H22.0001V4.5Z" fill="currentColor"/>
</g>
<defs>
<clipPath id="clip0_403_2986">
<rect width="24" height="24" fill="white"/>
</clipPath>
</defs>
</svg>
