<svg width="24" height="24" viewBox="0 0 24 24" fill="none" xmlns="http://www.w3.org/2000/svg">
<g clip-path="url(#clip0_406_2014)">
<path d="M0 7H5V11H0V7ZM5 13H0V17H5V13ZM11 13H7V17H11V13ZM11 11V7H7V11H11ZM13 11H17V7H13V11ZM19 11H24V7H19V11ZM7 5H11V0H7V5ZM13 0V5H17V0H13ZM11 24V19H7V24H11ZM5 0C3.67441 0.00158786 2.40356 0.528882 1.46622 1.46622C0.528882 2.40356 0.00158786 3.67441 0 5H5V0ZM17 19H13V24H17V19ZM19 24C20.3256 23.9984 21.5964 23.4711 22.5338 22.5338C23.4711 21.5964 23.9984 20.3256 24 19H19V24ZM5 19H0C0.00158786 20.3256 0.528882 21.5964 1.46622 22.5338C2.40356 23.4711 3.67441 23.9984 5 24V19ZM13 13V17H17V13H13ZM19 5H24C23.9984 3.67441 23.4711 2.40356 22.5338 1.46622C21.5964 0.528882 20.3256 0.00158786 19 0V5ZM24 13H19V17H24V13Z" fill="currentColor"/>
</g>
<defs>
<clipPath id="clip0_406_2014">
<rect width="24" height="24" fill="white"/>
</clipPath>
</defs>
</svg>
