<svg width="24" height="24" viewBox="0 0 24 24" fill="none" xmlns="http://www.w3.org/2000/svg">
<g clip-path="url(#clip0_406_2012)">
<path d="M2.00002 17.5H4.5C5.60456 17.5 6.50002 18.3954 6.50002 19.5V22C6.50002 23.1046 5.60456 24 4.5 24H2.00002C0.895453 24 0 23.1046 0 22V19.5C0 18.3955 0.895453 17.5 2.00002 17.5Z" fill="currentColor"/>
<path d="M23.118 17.8419C22.7881 17.6184 22.3985 17.4992 22 17.4999H19.5C18.3955 17.4999 17.5 18.3953 17.5 19.4999V21.9999C17.5 23.1045 18.3955 23.9999 19.5 23.9999H22C23.1046 23.9999 24 23.1045 24 21.9999V19.4999C23.9999 18.835 23.6694 18.2136 23.118 17.8419Z" fill="currentColor"/>
<path d="M2.00002 8.75H4.5C5.60456 8.75 6.50002 9.64545 6.50002 10.75V13.25C6.50002 14.3546 5.60456 15.25 4.5 15.25H2.00002C0.895453 15.25 0 14.3546 0 13.25V10.75C0 9.64541 0.895453 8.75 2.00002 8.75Z" fill="currentColor"/>
<path d="M23.118 9.092C22.7881 8.8685 22.3985 8.74935 22 8.75H19.5C18.3955 8.75 17.5 9.64546 17.5 10.75V13.25C17.5 14.3546 18.3955 15.25 19.5 15.25H22C23.1046 15.25 24 14.3546 24 13.25V10.75C23.9999 10.0851 23.6694 9.46368 23.118 9.092Z" fill="currentColor"/>
<path d="M2.00002 0H4.5C5.60456 0 6.50002 0.895453 6.50002 2.00002V4.5C6.50002 5.60456 5.60456 6.50002 4.5 6.50002H2.00002C0.895453 6.50002 0 5.60456 0 4.5V2.00002C0 0.895453 0.895453 0 2.00002 0Z" fill="currentColor"/>
<path d="M14.368 17.8419C14.0381 17.6184 13.6485 17.4992 13.25 17.4999H10.75C9.64545 17.4999 8.75 18.3953 8.75 19.4999V21.9999C8.75 23.1044 9.64545 23.9999 10.75 23.9999H13.25C14.3546 23.9999 15.25 23.1045 15.25 21.9999V19.4999C15.2499 18.835 14.9194 18.2136 14.368 17.8419Z" fill="currentColor"/>
<path d="M14.368 9.092C14.0381 8.8685 13.6485 8.74935 13.25 8.75H10.75C9.64545 8.75 8.75 9.64546 8.75 10.75V13.25C8.75 14.3546 9.64545 15.25 10.75 15.25H13.25C14.3546 15.25 15.25 14.3546 15.25 13.25V10.75C15.2499 10.0851 14.9194 9.46368 14.368 9.092Z" fill="currentColor"/>
<path d="M14.368 0.342003C14.0381 0.118503 13.6485 -0.000653554 13.25 2.69618e-06H10.75C9.64545 2.69618e-06 8.75 0.895456 8.75 2.00002V4.5C8.75 5.60457 9.64545 6.50002 10.75 6.50002H13.25C14.3546 6.50002 15.25 5.60457 15.25 4.5V2.00002C15.2499 1.3351 14.9194 0.713675 14.368 0.342003Z" fill="currentColor"/>
<path d="M23.658 0.882C23.2863 0.330656 22.6649 9.375e-05 22 0H19.5C18.3955 0 17.5 0.895453 17.5 2.00002V4.5C17.5 5.60456 18.3955 6.50002 19.5 6.50002H22C23.1046 6.50002 24 5.60456 24 4.5V2.00002C24.0007 1.60148 23.8815 1.21195 23.658 0.882Z" fill="currentColor"/>
</g>
<defs>
<clipPath id="clip0_406_2012">
<rect width="24" height="24" fill="white"/>
</clipPath>
</defs>
</svg>
