<svg width="24" height="24" viewBox="0 0 24 24" fill="none" xmlns="http://www.w3.org/2000/svg">
<g clip-path="url(#clip0_406_2291)">
<path d="M22.9381 17.884C22.7217 19.5722 21.8982 21.1238 20.6215 22.2493C19.3448 23.3748 17.702 23.9971 16.0001 24H8.00008C6.32718 23.9979 4.71033 23.3968 3.44239 22.3055C2.17444 21.2142 1.33925 19.7049 1.08808 18.051C1.17708 18.073 1.26008 18.106 1.35208 18.122C2.79429 18.369 4.14113 19.0068 5.24608 19.966C6.00729 20.6355 6.98632 21.0048 8.00008 21.0048C9.01383 21.0048 9.99286 20.6355 10.7541 19.966C12.2095 18.702 14.0724 18.006 16.0001 18.006H22.0001C22.3165 18.0029 22.6314 17.9619 22.9381 17.884ZM7.54837e-05 14.1C-0.00407487 14.5858 0.163044 15.0576 0.472094 15.4325C0.781144 15.8074 1.21237 16.0614 1.69008 16.15C3.49241 16.4593 5.17543 17.2569 6.55608 18.456C6.95545 18.8065 7.46869 18.9998 8.00008 18.9998C8.53146 18.9998 9.04471 18.8065 9.44408 18.456C11.263 16.8763 13.591 16.0063 16.0001 16.006H22.0001C22.5305 16.006 23.0392 15.7953 23.4143 15.4202C23.7894 15.0451 24.0001 14.5364 24.0001 14.006C24.0001 13.4756 23.7894 12.9669 23.4143 12.5918C23.0392 12.2167 22.5305 12.006 22.0001 12.006H2.09408C1.53871 12.006 1.0061 12.2266 0.613394 12.6193C0.220693 13.012 7.54837e-05 13.5446 7.54837e-05 14.1ZM23.0001 10V10.148C22.6741 10.0584 22.3381 10.0107 22.0001 10.006H2.09408C1.72342 10.0115 1.35529 10.068 1.00008 10.174V10C1.00299 7.34873 2.05749 4.80688 3.93222 2.93215C5.80696 1.05742 8.3488 0.0029116 11.0001 0L13.0001 0C15.6513 0.0029116 18.1932 1.05742 20.0679 2.93215C21.9427 4.80688 22.9972 7.34873 23.0001 10ZM7.00008 7C7.00008 6.73478 6.89472 6.48043 6.70718 6.29289C6.51965 6.10536 6.26529 6 6.00008 6C5.73486 6 5.4805 6.10536 5.29297 6.29289C5.10543 6.48043 5.00008 6.73478 5.00008 7C5.00008 7.26522 5.10543 7.51957 5.29297 7.70711C5.4805 7.89464 5.73486 8 6.00008 8C6.26529 8 6.51965 7.89464 6.70718 7.70711C6.89472 7.51957 7.00008 7.26522 7.00008 7ZM10.0001 4C10.0001 3.73478 9.89472 3.48043 9.70718 3.29289C9.51965 3.10536 9.26529 3 9.00008 3C8.73486 3 8.4805 3.10536 8.29297 3.29289C8.10543 3.48043 8.00008 3.73478 8.00008 4C8.00008 4.26522 8.10543 4.51957 8.29297 4.70711C8.4805 4.89464 8.73486 5 9.00008 5C9.26529 5 9.51965 4.89464 9.70718 4.70711C9.89472 4.51957 10.0001 4.26522 10.0001 4Z" fill="currentColor"/>
</g>
<defs>
<clipPath id="clip0_406_2291">
<rect width="24" height="24" fill="white"/>
</clipPath>
</defs>
</svg>
