<svg width="24" height="24" viewBox="0 0 24 24" fill="none" xmlns="http://www.w3.org/2000/svg">
<g clip-path="url(#clip0_406_2005)">
<path d="M16 2.75C16 4.913 13.18 7.601 11.775 8.728C11.5551 8.90426 11.2818 9.00031 11 9.00031C10.7182 9.00031 10.4449 8.90426 10.225 8.728C8.82 7.6 6 4.913 6 2.75C5.96846 2.05422 6.21378 1.37427 6.6823 0.858905C7.15081 0.343541 7.80437 0.0347185 8.5 0C9.19563 0.0347185 9.84919 0.343541 10.3177 0.858905C10.7862 1.37427 11.0315 2.05422 11 2.75C10.9685 2.05422 11.2138 1.37427 11.6823 0.858905C12.1508 0.343541 12.8044 0.0347185 13.5 0C14.1956 0.0347185 14.8492 0.343541 15.3177 0.858905C15.7862 1.37427 16.0315 2.05422 16 2.75ZM23.338 12.35L15.638 20.759C14.7005 21.7812 13.5607 22.5972 12.2908 23.1552C11.021 23.7131 9.649 24.0008 8.262 24H4C2.93913 24 1.92172 23.5786 1.17157 22.8284C0.421427 22.0783 0 21.0609 0 20V15C0 13.9391 0.421427 12.9217 1.17157 12.1716C1.92172 11.4214 2.93913 11 4 11H11.787C12.1176 11.0006 12.4438 11.0752 12.7418 11.2181C13.0399 11.361 13.3022 11.5688 13.5097 11.8262C13.7171 12.0835 13.8644 12.384 13.9407 12.7056C14.0171 13.0272 14.0206 13.3619 13.951 13.685C13.8427 14.137 13.5989 14.5452 13.2522 14.8547C12.9054 15.1643 12.4724 15.3605 12.011 15.417L7.848 16C7.58562 16.0376 7.34892 16.1779 7.18991 16.39C7.0309 16.6021 6.96259 16.8686 7 17.131C7.0374 17.3936 7.17757 17.6305 7.38967 17.7897C7.60177 17.949 7.86844 18.0174 8.131 17.98L12.383 17.38C13.3845 17.2325 14.3 16.7311 14.9635 15.9666C15.6271 15.2022 15.9948 14.2253 16 13.213C15.9951 12.999 15.9734 12.7856 15.935 12.575L19.477 8.838C19.9441 8.33224 20.5923 8.03186 21.2801 8.00244C21.9679 7.97302 22.6394 8.21697 23.148 8.681C23.654 9.14472 23.9575 9.7887 23.993 10.4741C24.0285 11.1595 23.7933 11.8314 23.338 12.345V12.35Z" fill="currentColor"/>
</g>
<defs>
<clipPath id="clip0_406_2005">
<rect width="24" height="24" fill="white"/>
</clipPath>
</defs>
</svg>
