<svg width="24" height="24" viewBox="0 0 24 24" fill="none" xmlns="http://www.w3.org/2000/svg">
<g clip-path="url(#clip0_406_2001)">
<path d="M12.9998 10.9997C12.9998 11.3952 12.8825 11.7819 12.6628 12.1108C12.443 12.4397 12.1306 12.696 11.7652 12.8474C11.3997 12.9988 10.9976 13.0384 10.6096 12.9612C10.2217 12.8841 9.86532 12.6936 9.58561 12.4139C9.30591 12.1342 9.11543 11.7778 9.03825 11.3898C8.96108 11.0019 9.00069 10.5997 9.15207 10.2343C9.30344 9.86883 9.55979 9.55648 9.88869 9.33671C10.2176 9.11695 10.6043 8.99965 10.9998 8.99965C11.5303 8.99965 12.039 9.21037 12.414 9.58544C12.7891 9.96051 12.9998 10.4692 12.9998 10.9997ZM23.9998 12.9997C24.0054 13.2638 23.9575 13.5264 23.859 13.7716C23.7604 14.0168 23.6133 14.2395 23.4265 14.4263C23.2396 14.6132 23.0169 14.7603 22.7718 14.8588C22.5266 14.9573 22.264 15.0052 21.9998 14.9997H21.6698L21.4508 16.6547C21.2891 17.8556 20.698 18.9574 19.7867 19.7562C18.8754 20.555 17.7056 20.9967 16.4938 20.9997H15.9998C15.9998 21.7953 15.6838 22.5584 15.1211 23.121C14.5585 23.6836 13.7955 23.9997 12.9998 23.9997H5.99983C5.20418 23.9997 4.44111 23.6836 3.87851 23.121C3.3159 22.5584 2.99983 21.7953 2.99983 20.9997V20.0287C3.01567 19.1841 2.75589 18.3574 2.25983 17.6737C1.37436 16.5232 0.725552 15.2087 0.350851 13.8061C-0.0238498 12.4035 -0.117019 10.9406 0.0767215 9.50181C0.270462 8.06302 0.747275 6.67685 1.47963 5.42333C2.21199 4.16982 3.18539 3.07378 4.34364 2.19849C5.50188 1.3232 6.82203 0.686007 8.22786 0.323686C9.6337 -0.0386345 11.0974 -0.118903 12.5344 0.0875149C13.9714 0.293933 15.3533 0.782948 16.6004 1.52633C17.8474 2.26971 18.9348 3.25274 19.7998 4.41865C21.0678 5.98465 23.9998 11.5797 23.9998 12.9997ZM14.8408 9.94665L15.8338 9.37565C16.0638 9.24304 16.2316 9.02452 16.3004 8.76816C16.3693 8.5118 16.3334 8.23859 16.2008 8.00865C16.0682 7.77871 15.8497 7.61086 15.5933 7.54204C15.337 7.47321 15.0638 7.50904 14.8338 7.64165L13.8518 8.20565C13.3425 7.68943 12.7023 7.32162 11.9998 7.14165V5.99965C11.9998 5.73444 11.8945 5.48008 11.7069 5.29255C11.5194 5.10501 11.265 4.99965 10.9998 4.99965C10.7346 4.99965 10.4803 5.10501 10.2927 5.29255C10.1052 5.48008 9.99983 5.73444 9.99983 5.99965V7.14165C9.29627 7.32111 8.65495 7.68897 8.14483 8.20565L7.16283 7.64165C7.04897 7.57599 6.9233 7.5334 6.79298 7.51631C6.66266 7.49921 6.53026 7.50796 6.40332 7.54204C6.27638 7.57612 6.1574 7.63486 6.05316 7.71493C5.94893 7.79499 5.86149 7.8948 5.79583 8.00865C5.73016 8.12251 5.68757 8.24818 5.67048 8.3785C5.65339 8.50882 5.66213 8.64122 5.69621 8.76816C5.73029 8.8951 5.78904 9.01408 5.8691 9.11831C5.94916 9.22255 6.04897 9.30999 6.16283 9.37565L7.15583 9.94665C7.05641 10.289 7.00393 10.6432 6.99983 10.9997C7.0049 11.3562 7.05839 11.7105 7.15883 12.0527L6.16583 12.6237C5.93588 12.7563 5.76804 12.9748 5.69921 13.2311C5.63038 13.4875 5.66622 13.7607 5.79883 13.9907C5.93143 14.2206 6.14995 14.3884 6.40632 14.4573C6.66268 14.5261 6.93588 14.4903 7.16583 14.3577L8.14783 13.7937C8.65712 14.3099 9.29735 14.6777 9.99983 14.8577V15.9997C9.99983 16.2649 10.1052 16.5192 10.2927 16.7068C10.4803 16.8943 10.7346 16.9997 10.9998 16.9997C11.265 16.9997 11.5194 16.8943 11.7069 16.7068C11.8945 16.5192 11.9998 16.2649 11.9998 15.9997V14.8577C12.7034 14.6782 13.3447 14.3103 13.8548 13.7937L14.8368 14.3577C14.9507 14.4233 15.0764 14.4659 15.2067 14.483C15.337 14.5001 15.4694 14.4913 15.5963 14.4573C15.7233 14.4232 15.8423 14.3644 15.9465 14.2844C16.0507 14.2043 16.1382 14.1045 16.2038 13.9907C16.2695 13.8768 16.3121 13.7511 16.3292 13.6208C16.3463 13.4905 16.3375 13.3581 16.3034 13.2311C16.2694 13.1042 16.2106 12.9852 16.1306 12.881C16.0505 12.7768 15.9507 12.6893 15.8368 12.6237L14.8438 12.0527C14.9432 11.7103 14.9957 11.3561 14.9998 10.9997C14.9947 10.6431 14.9413 10.2888 14.8408 9.94665Z" fill="currentColor"/>
</g>
<defs>
<clipPath id="clip0_406_2001">
<rect width="24" height="24" fill="white"/>
</clipPath>
</defs>
</svg>
