<svg width="24" height="24" viewBox="0 0 24 24" fill="none" xmlns="http://www.w3.org/2000/svg">
<g clip-path="url(#clip0_406_2275)">
<path d="M12 9.00007C11.2087 8.99985 10.4351 9.23432 9.77709 9.67383C9.11908 10.1133 8.60622 10.7381 8.30337 11.4692C8.00053 12.2002 7.92131 13.0047 8.07575 13.7807C8.23018 14.5568 8.61133 15.2697 9.17097 15.8291L11.458 18.0651C11.6034 18.2053 11.7975 18.2837 11.9995 18.2837C12.2015 18.2837 12.3956 18.2053 12.541 18.0651L14.841 15.8211C15.3986 15.2605 15.7776 14.5473 15.9301 13.7714C16.0825 12.9956 16.0017 12.192 15.6977 11.4621C15.3937 10.7322 14.8801 10.1088 14.222 9.67059C13.5639 9.23238 12.7906 8.99905 12 9.00007ZM12 13.9921C11.8022 13.9921 11.6089 13.9334 11.4444 13.8235C11.28 13.7137 11.1518 13.5575 11.0761 13.3748C11.0004 13.192 10.9806 12.991 11.0192 12.797C11.0578 12.603 11.153 12.4248 11.2929 12.285C11.4327 12.1451 11.6109 12.0499 11.8049 12.0113C11.9989 11.9727 12.1999 11.9925 12.3827 12.0682C12.5654 12.1439 12.7216 12.2721 12.8314 12.4365C12.9413 12.601 13 12.7943 13 12.9921C13 13.2573 12.8946 13.5116 12.7071 13.6992C12.5195 13.8867 12.2652 13.9921 12 13.9921ZM21.8 5.57907L14.8 0.855073C13.9742 0.29347 12.9986 -0.00683594 12 -0.00683594C11.0013 -0.00683594 10.0257 0.29347 9.19997 0.855073L2.19997 5.57907C1.52212 6.03725 0.967067 6.65476 0.583495 7.37745C0.199922 8.10013 -0.000444936 8.9059 -2.9874e-05 9.72407V19.0001C0.00155798 20.3257 0.528852 21.5965 1.46619 22.5339C2.40353 23.4712 3.67438 23.9985 4.99997 24.0001H19C20.3256 23.9985 21.5964 23.4712 22.5338 22.5339C23.4711 21.5965 23.9984 20.3257 24 19.0001V9.72407C24.0004 8.9059 23.8 8.10013 23.4164 7.37745C23.0329 6.65476 22.4778 6.03725 21.8 5.57907ZM16.243 17.2431L13.94 19.5001C13.4196 20.0035 12.724 20.285 12 20.285C11.276 20.285 10.5803 20.0035 10.06 19.5001L7.75997 17.2551C6.63373 16.1308 6.00022 14.6052 5.99882 13.0139C5.99741 11.4225 6.62822 9.89581 7.75247 8.76957C8.87672 7.64333 10.4023 7.00983 11.9937 7.00842C13.585 7.00701 15.1117 7.63782 16.238 8.76207C17.3606 9.88749 17.9915 11.4119 17.9924 13.0015C17.9933 14.5911 17.3643 16.1163 16.243 17.2431Z" fill="currentColor"/>
</g>
<defs>
<clipPath id="clip0_406_2275">
<rect width="24" height="24" fill="white"/>
</clipPath>
</defs>
</svg>
