<svg width="24" height="24" viewBox="0 0 24 24" fill="none" xmlns="http://www.w3.org/2000/svg">
<g clip-path="url(#clip0_403_2966)">
<path d="M16.5 17C15.806 17.0008 15.1279 17.2079 14.5519 17.595C13.9759 17.9821 13.5279 18.5317 13.265 19.174C12.4376 18.942 11.5624 18.942 10.735 19.174C10.4158 18.4 9.82922 17.7664 9.08215 17.3885C8.33508 17.0106 7.47714 16.9135 6.6645 17.1149C5.85187 17.3163 5.13856 17.8028 4.65442 18.4858C4.17028 19.1689 3.9475 20.003 4.02662 20.8365C4.10575 21.67 4.48152 22.4473 5.08554 23.0271C5.68956 23.6068 6.48167 23.9504 7.31768 23.9953C8.1537 24.0402 8.97804 23.7834 9.64065 23.2716C10.3033 22.7599 10.7601 22.0272 10.928 21.207C11.2724 21.0827 11.6341 21.0128 12 21C12.3659 21.0127 12.7276 21.0826 13.072 21.207C13.2057 21.8553 13.5205 22.4524 13.9799 22.929C14.4393 23.4056 15.0244 23.7421 15.6673 23.8996C16.3103 24.057 16.9847 24.0289 17.6123 23.8185C18.2399 23.6081 18.795 23.224 19.2131 22.7109C19.6313 22.1977 19.8953 21.5765 19.9746 20.9193C20.0539 20.2622 19.9453 19.596 19.6612 18.9981C19.3772 18.4002 18.9294 17.8951 18.3698 17.5414C17.8103 17.1878 17.1619 17 16.5 17ZM7.5 22C7.20333 22 6.91332 21.912 6.66664 21.7472C6.41997 21.5824 6.22771 21.3481 6.11418 21.074C6.00065 20.7999 5.97094 20.4983 6.02882 20.2074C6.0867 19.9164 6.22956 19.6491 6.43934 19.4393C6.64912 19.2296 6.91639 19.0867 7.20736 19.0288C7.49834 18.9709 7.79994 19.0007 8.07403 19.1142C8.34811 19.2277 8.58238 19.42 8.7472 19.6666C8.91203 19.9133 9 20.2033 9 20.5C9 20.8978 8.84196 21.2794 8.56066 21.5607C8.27936 21.842 7.89782 22 7.5 22ZM16.5 22C16.2033 22 15.9133 21.912 15.6666 21.7472C15.42 21.5824 15.2277 21.3481 15.1142 21.074C15.0006 20.7999 14.9709 20.4983 15.0288 20.2074C15.0867 19.9164 15.2296 19.6491 15.4393 19.4393C15.6491 19.2296 15.9164 19.0867 16.2074 19.0288C16.4983 18.9709 16.7999 19.0007 17.074 19.1142C17.3481 19.2277 17.5824 19.42 17.7472 19.6666C17.912 19.9133 18 20.2033 18 20.5C18 20.8978 17.842 21.2794 17.5607 21.5607C17.2794 21.842 16.8978 22 16.5 22ZM19.975 8.675C19.709 0.612001 15.3 0.026 15.105 0.006C15.0701 0.00200813 15.0351 4.88201e-06 15 0C14.1327 0.0344489 13.2938 0.318482 12.584 0.818C12.4129 0.93765 12.2092 1.00182 12.0005 1.00182C11.7918 1.00182 11.5881 0.93765 11.417 0.818C10.7068 0.318556 9.86757 0.03454 9 0C8.96658 0.000190203 8.9332 0.00219315 8.9 0.006C8.706 0.026 4.3 0.612001 4.03 8.675C2.693 9.122 0 10.243 0 12C0 15.69 6.194 16 12 16C17.806 16 24 15.69 24 12C24 10.243 21.307 9.122 19.975 8.675ZM9.055 2.005C9.49135 2.05201 9.90902 2.20739 10.27 2.457C10.7777 2.81091 11.3816 3.00065 12.0005 3.00065C12.6194 3.00065 13.2233 2.81091 13.731 2.457C14.0895 2.20908 14.5038 2.0538 14.937 2.005C15.382 2.111 17.846 2.969 17.993 8.863C16.1114 9.70446 14.059 10.0938 12 10C9.94108 10.0938 7.88877 9.70476 6.007 8.864C6.155 2.92 8.658 2.1 9.055 2.005ZM12 14C3.735 14 2 12.912 1.988 12.082C2.77879 11.3048 3.76826 10.7602 4.848 10.508C7.06641 11.6052 9.52793 12.1187 12 12C14.4721 12.1187 16.9336 11.6052 19.152 10.508C20.2065 10.7716 21.1829 11.2831 22 12C22 12.912 20.265 14 12 14Z" fill="currentColor"/>
</g>
<defs>
<clipPath id="clip0_403_2966">
<rect width="24" height="24" fill="white"/>
</clipPath>
</defs>
</svg>
