<svg width="24" height="24" viewBox="0 0 24 24" fill="none" xmlns="http://www.w3.org/2000/svg">
<g clip-path="url(#clip0_403_2965)">
<path d="M1 6.00024H23C23.2652 6.00024 23.5196 5.89488 23.7071 5.70735C23.8946 5.51981 24 5.26546 24 5.00024C24 4.73503 23.8946 4.48067 23.7071 4.29314C23.5196 4.1056 23.2652 4.00024 23 4.00024H1C0.734784 4.00024 0.48043 4.1056 0.292893 4.29314C0.105357 4.48067 0 4.73503 0 5.00024C0 5.26546 0.105357 5.51981 0.292893 5.70735C0.48043 5.89488 0.734784 6.00024 1 6.00024Z" fill="currentColor"/>
<path d="M23.0001 9H9.00012C8.73491 9 8.48055 9.10536 8.29302 9.29289C8.10548 9.48043 8.00012 9.73478 8.00012 10C8.00012 10.2652 8.10548 10.5196 8.29302 10.7071C8.48055 10.8946 8.73491 11 9.00012 11H23.0001C23.2653 11 23.5197 10.8946 23.7072 10.7071C23.8948 10.5196 24.0001 10.2652 24.0001 10C24.0001 9.73478 23.8948 9.48043 23.7072 9.29289C23.5197 9.10536 23.2653 9 23.0001 9Z" fill="currentColor"/>
<path d="M23 19.0004H1C0.734784 19.0004 0.48043 19.1057 0.292893 19.2933C0.105357 19.4808 0 19.7352 0 20.0004C0 20.2656 0.105357 20.5199 0.292893 20.7075C0.48043 20.895 0.734784 21.0004 1 21.0004H23C23.2652 21.0004 23.5196 20.895 23.7071 20.7075C23.8946 20.5199 24 20.2656 24 20.0004C24 19.7352 23.8946 19.4808 23.7071 19.2933C23.5196 19.1057 23.2652 19.0004 23 19.0004Z" fill="currentColor"/>
<path d="M23.0001 13.9996H9.00012C8.73491 13.9996 8.48055 14.105 8.29302 14.2925C8.10548 14.4801 8.00012 14.7344 8.00012 14.9996C8.00012 15.2649 8.10548 15.5192 8.29302 15.7068C8.48055 15.8943 8.73491 15.9996 9.00012 15.9996H23.0001C23.2653 15.9996 23.5197 15.8943 23.7072 15.7068C23.8948 15.5192 24.0001 15.2649 24.0001 14.9996C24.0001 14.7344 23.8948 14.4801 23.7072 14.2925C23.5197 14.105 23.2653 13.9996 23.0001 13.9996Z" fill="currentColor"/>
<path d="M1.707 16.2449L4.681 13.2709C4.88508 13.0663 4.99968 12.789 4.99968 12.4999C4.99968 12.2109 4.88508 11.9336 4.681 11.7289L1.707 8.75495C1.56709 8.61508 1.38883 8.51985 1.19479 8.48131C1.00074 8.44278 0.799624 8.46266 0.616884 8.53846C0.434143 8.61425 0.27799 8.74255 0.168182 8.90711C0.0583736 9.07167 -0.00015534 9.26511 3.09641e-07 9.46295V15.5369C-0.00015534 15.7348 0.0583736 15.9282 0.168182 16.0928C0.27799 16.2573 0.434143 16.3856 0.616884 16.4614C0.799624 16.5372 1.00074 16.5571 1.19479 16.5186C1.38883 16.48 1.56709 16.3848 1.707 16.2449Z" fill="currentColor"/>
</g>
<defs>
<clipPath id="clip0_403_2965">
<rect width="24" height="24" fill="white"/>
</clipPath>
</defs>
</svg>
