<svg width="24" height="24" viewBox="0 0 24 24" fill="none" xmlns="http://www.w3.org/2000/svg">
<g clip-path="url(#clip0_406_1977)">
<path d="M23.7191 22.3047L22.6416 21.2271L20.9107 19.4992L23.7011 16.7088C24.0915 16.3177 24.091 15.6843 23.7 15.2938C23.5969 15.191 23.4727 15.1118 23.3359 15.0619L14.3623 11.8063C13.323 11.4307 12.1759 11.9687 11.8003 13.008C11.6415 13.4473 11.6414 13.9283 11.8 14.3676L15.0647 23.3412C15.1812 23.6625 15.4536 23.9021 15.7871 23.9766C15.8584 23.9921 15.9312 23.9998 16.0042 23.9996C16.2695 23.9996 16.524 23.8941 16.7116 23.7064L19.499 20.911L21.2269 22.6389L22.3044 23.7165C22.7019 24.1004 23.3353 24.0893 23.7192 23.6919C24.0936 23.3041 24.0936 22.6895 23.7192 22.3017L23.7191 22.3047Z" fill="currentColor"/>
<path d="M10.0051 20.0107C4.47946 20.0107 0 15.5313 0 10.0056C0 4.48 4.47946 0.000488281 10.0051 0.000488281C15.5307 0.000488281 20.0103 4.47995 20.0103 10.0056C20.0103 10.5582 19.5623 11.0061 19.0098 11.0061C18.4572 11.0061 18.0092 10.5582 18.0092 10.0056C18.0092 5.58508 14.4257 2.00153 10.0051 2.00153C5.58454 2.00153 2.00104 5.58508 2.00104 10.0056C2.00104 14.4262 5.58459 18.0098 10.0052 18.0098C10.5577 18.0098 11.0056 18.4577 11.0056 19.0102C11.0056 19.5628 10.5577 20.0107 10.0051 20.0107Z" fill="currentColor"/>
<path d="M8.08818 15.6283C7.95668 15.6284 7.82649 15.6025 7.70497 15.5522C4.64318 14.2805 3.19198 10.7676 4.46365 7.70571C5.73531 4.64387 9.24832 3.19272 12.3101 4.46439C13.7797 5.07478 14.9468 6.24368 15.555 7.7142C15.7749 8.22113 15.5422 8.81032 15.0353 9.03023C14.5284 9.25014 13.9392 9.01748 13.7193 8.51059C13.7147 8.49999 13.7103 8.48935 13.7061 8.47861C12.8591 6.43705 10.5175 5.46868 8.47594 6.31568C6.43443 7.16267 5.46602 9.50429 6.31301 11.5458C6.71864 12.5235 7.4951 13.3007 8.47243 13.7073C8.98302 13.9186 9.22562 14.5038 9.0143 15.0143C8.8593 15.3889 8.49358 15.6329 8.08823 15.6323L8.08818 15.6283Z" fill="currentColor"/>
</g>
<defs>
<clipPath id="clip0_406_1977">
<rect width="24" height="24" fill="white"/>
</clipPath>
</defs>
</svg>
