<svg width="24" height="24" viewBox="0 0 24 24" fill="none" xmlns="http://www.w3.org/2000/svg">
<g clip-path="url(#clip0_403_3003)">
<path d="M23.7072 22.2925L22.6302 21.2155L20.9002 19.4885L23.6892 16.6995C23.8079 16.5806 23.8948 16.4337 23.9417 16.2724C23.9887 16.1111 23.9942 15.9405 23.9579 15.7765C23.9215 15.6124 23.8444 15.4602 23.7336 15.3339C23.6229 15.2075 23.4821 15.1111 23.3242 15.0535L14.3552 11.7995C13.998 11.6704 13.6113 11.6457 13.2405 11.7283C12.8697 11.8109 12.5301 11.9974 12.2615 12.2659C11.9928 12.5345 11.8062 12.874 11.7234 13.2448C11.6407 13.6155 11.6652 14.0022 11.7942 14.3595L15.0572 23.3285C15.1145 23.4865 15.2107 23.6275 15.3369 23.7385C15.4631 23.8495 15.6152 23.9269 15.7792 23.9635C15.8505 23.979 15.9233 23.9867 15.9962 23.9865C16.2614 23.9864 16.5157 23.8811 16.7032 23.6935L19.4892 20.8995L21.2162 22.6265L22.2932 23.7035C22.4818 23.8857 22.7344 23.9865 22.9966 23.9842C23.2588 23.9819 23.5096 23.8767 23.6951 23.6913C23.8805 23.5059 23.9856 23.2551 23.9879 22.9929C23.9902 22.7307 23.8894 22.4781 23.7072 22.2895V22.2925ZM16.4002 21.1645L13.6762 13.6745L21.1662 16.3985L16.4002 21.1645Z" fill="currentColor"/>
<path d="M10 20C8.02219 20 6.08879 19.4135 4.4443 18.3147C2.79981 17.2159 1.51809 15.6541 0.761209 13.8268C0.00433284 11.9996 -0.193701 9.98891 0.192152 8.0491C0.578004 6.10929 1.53041 4.32746 2.92894 2.92894C4.32746 1.53041 6.10929 0.578004 8.0491 0.192152C9.98891 -0.193701 11.9996 0.00433284 13.8268 0.761209C15.6541 1.51809 17.2159 2.79981 18.3147 4.4443C19.4135 6.08879 20 8.02219 20 10C20 10.2652 19.8946 10.5196 19.7071 10.7071C19.5196 10.8946 19.2652 11 19 11C18.7348 11 18.4804 10.8946 18.2929 10.7071C18.1054 10.5196 18 10.2652 18 10C18 8.41775 17.5308 6.87104 16.6518 5.55544C15.7727 4.23985 14.5233 3.21447 13.0615 2.60897C11.5997 2.00347 9.99113 1.84504 8.43928 2.15372C6.88743 2.4624 5.46197 3.22433 4.34315 4.34315C3.22433 5.46197 2.4624 6.88743 2.15372 8.43928C1.84504 9.99113 2.00347 11.5997 2.60897 13.0615C3.21447 14.5233 4.23985 15.7727 5.55544 16.6518C6.87104 17.5308 8.41775 18 10 18C10.2652 18 10.5196 18.1054 10.7071 18.2929C10.8946 18.4804 11 18.7348 11 19C11 19.2652 10.8946 19.5196 10.7071 19.7071C10.5196 19.8946 10.2652 20 10 20Z" fill="currentColor"/>
<path d="M8.08391 15.6202C7.95249 15.6203 7.82234 15.5945 7.70091 15.5442C6.78977 15.1658 5.986 14.5685 5.3608 13.8053C4.73559 13.0421 4.30825 12.1365 4.1166 11.1686C3.92496 10.2008 3.97493 9.20068 4.2621 8.25679C4.54926 7.3129 5.06476 6.45439 5.76293 5.75729C6.4611 5.06018 7.3204 4.546 8.26473 4.26028C9.20906 3.97456 10.2093 3.92612 11.1768 4.11925C12.1443 4.31237 13.0493 4.7411 13.8116 5.36747C14.5738 5.99384 15.1699 6.79852 15.5469 7.71025C15.5998 7.83205 15.6278 7.96317 15.6295 8.09594C15.6311 8.22871 15.6063 8.36047 15.5564 8.48355C15.5066 8.60662 15.4328 8.71854 15.3392 8.81277C15.2457 8.907 15.1343 8.98166 15.0116 9.03239C14.8889 9.08312 14.7573 9.1089 14.6245 9.10824C14.4917 9.10757 14.3604 9.08047 14.2382 9.02852C14.116 8.97656 14.0054 8.90079 13.9128 8.80563C13.8202 8.71046 13.7475 8.59781 13.6989 8.47424C13.447 7.86698 13.0492 7.33118 12.5409 6.91425C12.0326 6.49732 11.4293 6.21212 10.7845 6.08388C10.1396 5.95565 9.47314 5.98833 8.84395 6.17904C8.21477 6.36975 7.64229 6.71261 7.17718 7.17728C6.71207 7.64194 6.36866 8.21409 6.17735 8.84309C5.98604 9.47209 5.95272 10.1385 6.08034 10.7835C6.20796 11.4284 6.49258 12.032 6.90902 12.5407C7.32547 13.0495 7.86089 13.4477 8.46791 13.7002C8.68184 13.7888 8.85842 13.9488 8.96752 14.153C9.07663 14.3572 9.1115 14.5929 9.06618 14.82C9.02087 15.047 8.89818 15.2513 8.71904 15.398C8.53991 15.5446 8.31543 15.6246 8.08391 15.6242V15.6202Z" fill="currentColor"/>
</g>
<defs>
<clipPath id="clip0_403_3003">
<rect width="24" height="24" fill="white"/>
</clipPath>
</defs>
</svg>
