<svg width="24" height="24" viewBox="0 0 24 24" fill="none" xmlns="http://www.w3.org/2000/svg">
<g clip-path="url(#clip0_403_2960)">
<path d="M19 5.99963H13V2.99963C13 2.73442 12.8946 2.48006 12.7071 2.29253C12.5196 2.10499 12.2652 1.99963 12 1.99963C11.7348 1.99963 11.4804 2.10499 11.2929 2.29253C11.1054 2.48006 11 2.73442 11 2.99963V5.99963H5C3.67441 6.00122 2.40356 6.52852 1.46622 7.46585C0.528882 8.40319 0.00158786 9.67404 0 10.9996L0 14.9996C0.00158786 16.3252 0.528882 17.5961 1.46622 18.5334C2.40356 19.4708 3.67441 19.998 5 19.9996H19C20.3256 19.998 21.5964 19.4708 22.5338 18.5334C23.4711 17.5961 23.9984 16.3252 24 14.9996V10.9996C23.9984 9.67404 23.4711 8.40319 22.5338 7.46585C21.5964 6.52852 20.3256 6.00122 19 5.99963ZM22 14.9996C22 15.7953 21.6839 16.5583 21.1213 17.121C20.5587 17.6836 19.7956 17.9996 19 17.9996H5C4.20435 17.9996 3.44129 17.6836 2.87868 17.121C2.31607 16.5583 2 15.7953 2 14.9996V10.9996C2 10.204 2.31607 9.44092 2.87868 8.87831C3.44129 8.3157 4.20435 7.99963 5 7.99963H19C19.7956 7.99963 20.5587 8.3157 21.1213 8.87831C21.6839 9.44092 22 10.204 22 10.9996V14.9996Z" fill="currentColor"/>
<path d="M15.0001 13.9996H9.00012C8.7349 13.9996 8.48055 14.105 8.29301 14.2925C8.10548 14.4801 8.00012 14.7344 8.00012 14.9996C8.00012 15.2649 8.10548 15.5192 8.29301 15.7068C8.48055 15.8943 8.7349 15.9996 9.00012 15.9996H15.0001C15.2653 15.9996 15.5197 15.8943 15.7072 15.7068C15.8948 15.5192 16.0001 15.2649 16.0001 14.9996C16.0001 14.7344 15.8948 14.4801 15.7072 14.2925C15.5197 14.105 15.2653 13.9996 15.0001 13.9996Z" fill="currentColor"/>
<path d="M10 12.0002H11C11.2652 12.0002 11.5196 11.8949 11.7071 11.7073C11.8946 11.5198 12 11.2655 12 11.0002C12 10.735 11.8946 10.4807 11.7071 10.2931C11.5196 10.1056 11.2652 10.0002 11 10.0002H10C9.73478 10.0002 9.48043 10.1056 9.29289 10.2931C9.10536 10.4807 9 10.735 9 11.0002C9 11.2655 9.10536 11.5198 9.29289 11.7073C9.48043 11.8949 9.73478 12.0002 10 12.0002Z" fill="currentColor"/>
<path d="M19.0001 10.0002H15.0001C14.7349 10.0002 14.4806 10.1056 14.293 10.2931C14.1055 10.4807 14.0001 10.735 14.0001 11.0002C14.0001 11.2655 14.1055 11.5198 14.293 11.7073C14.4806 11.8949 14.7349 12.0002 15.0001 12.0002H19.0001C19.2653 12.0002 19.5197 11.8949 19.7072 11.7073C19.8948 11.5198 20.0001 11.2655 20.0001 11.0002C20.0001 10.735 19.8948 10.4807 19.7072 10.2931C19.5197 10.1056 19.2653 10.0002 19.0001 10.0002Z" fill="currentColor"/>
<path d="M6.00006 10.0002H5.00006C4.73484 10.0002 4.48049 10.1056 4.29295 10.2931C4.10542 10.4807 4.00006 10.735 4.00006 11.0002C4.00006 11.2655 4.10542 11.5198 4.29295 11.7073C4.48049 11.8949 4.73484 12.0002 5.00006 12.0002H6.00006C6.26528 12.0002 6.51963 11.8949 6.70717 11.7073C6.8947 11.5198 7.00006 11.2655 7.00006 11.0002C7.00006 10.735 6.8947 10.4807 6.70717 10.2931C6.51963 10.1056 6.26528 10.0002 6.00006 10.0002Z" fill="currentColor"/>
<path d="M5.00006 15.9996C5.55234 15.9996 6.00006 15.5519 6.00006 14.9996C6.00006 14.4474 5.55234 13.9996 5.00006 13.9996C4.44778 13.9996 4.00006 14.4474 4.00006 14.9996C4.00006 15.5519 4.44778 15.9996 5.00006 15.9996Z" fill="currentColor"/>
<path d="M19 15.9996C19.5523 15.9996 20 15.5519 20 14.9996C20 14.4474 19.5523 13.9996 19 13.9996C18.4477 13.9996 18 14.4474 18 14.9996C18 15.5519 18.4477 15.9996 19 15.9996Z" fill="currentColor"/>
</g>
<defs>
<clipPath id="clip0_403_2960">
<rect width="24" height="24" fill="white"/>
</clipPath>
</defs>
</svg>
