<svg width="24" height="24" viewBox="0 0 24 24" fill="none" xmlns="http://www.w3.org/2000/svg">
<g clip-path="url(#clip0_406_1966)">
<path d="M12.5871 7L4.10007 15.485L7.24207 3.712C7.37836 3.20827 7.59298 2.72909 7.87807 2.292L12.5871 7ZM17.2871 13.757C17.7908 13.6207 18.27 13.4061 18.7071 13.121L14.0001 8.415L5.52007 16.9L17.2871 13.757ZM20.1291 11.715C20.6918 10.8937 20.9952 9.92254 21.0001 8.927V5C20.9997 4.02076 20.7103 3.06341 20.1681 2.248L15.4151 7L20.1291 11.715ZM16.0001 3.96908e-08H12.0731C11.0773 0.00440329 10.1057 0.307469 9.28407 0.87L14.0001 5.587L18.7541 0.834C17.9386 0.290081 16.9803 -0.000123913 16.0001 3.96908e-08ZM24.0001 21.5V23C24.0001 23.2652 23.8947 23.5196 23.7072 23.7071C23.5196 23.8946 23.2653 24 23.0001 24C22.7349 24 22.4805 23.8946 22.293 23.7071C22.1054 23.5196 22.0001 23.2652 22.0001 23V21.4C22.0159 20.5821 21.7316 19.7868 21.201 19.1642C20.6704 18.5417 19.9301 18.135 19.1201 18.021C18.6255 17.964 18.1244 18.0221 17.656 18.1909C17.1876 18.3597 16.7646 18.6346 16.4201 18.994C15.0506 20.5156 13.3869 21.7437 11.5294 22.6041C9.67191 23.4645 7.65926 23.9394 5.61307 24H3.62707C2.96735 24.0599 2.3044 23.9272 1.71864 23.6178C1.13288 23.3084 0.649481 22.8357 0.327073 22.257C0.0332913 21.6736 -0.0674911 21.012 0.039277 20.3676C0.146045 19.7232 0.454839 19.1294 0.921073 18.672L3.29807 16.293C3.39096 16.1999 3.50132 16.126 3.62281 16.0756C3.7443 16.0252 3.87454 15.9992 4.00607 15.9992C4.13761 15.9992 4.26785 16.0252 4.38934 16.0756C4.51083 16.126 4.62118 16.1999 4.71407 16.293C4.90093 16.4804 5.00586 16.7343 5.00586 16.999C5.00586 17.2637 4.90093 17.5176 4.71407 17.705L2.33007 20.086C2.17316 20.2428 2.06629 20.4426 2.02298 20.6601C1.97967 20.8777 2.00187 21.1032 2.08677 21.3081C2.17167 21.513 2.31546 21.6881 2.49993 21.8113C2.6844 21.9345 2.90126 22.0001 3.12307 22H4.27407C8.35512 21.9282 12.2527 20.2919 15.1621 17.429C15.6601 16.9561 16.2468 16.5863 16.8883 16.3411C17.5298 16.0958 18.2136 15.9799 18.9001 16C20.2878 16.1028 21.5851 16.7272 22.5312 17.7475C23.4773 18.7678 24.0021 20.1085 24.0001 21.5Z" fill="currentColor"/>
</g>
<defs>
<clipPath id="clip0_406_1966">
<rect width="24" height="24" fill="white"/>
</clipPath>
</defs>
</svg>
