<svg width="24" height="24" viewBox="0 0 24 24" fill="none" xmlns="http://www.w3.org/2000/svg">
<g clip-path="url(#clip0_403_2991)">
<path d="M20.4572 4.55504L12.4862 0.126041C12.3375 0.043381 12.1702 0 12.0002 0C11.8301 0 11.6628 0.043381 11.5142 0.126041L3.54315 4.55504C3.07556 4.81483 2.68593 5.19492 2.41463 5.65594C2.14333 6.11695 2.00023 6.64212 2.00015 7.17704V19C2.00174 20.3256 2.52903 21.5965 3.46637 22.5338C4.40371 23.4712 5.67456 23.9985 7.00015 24H17.0002C18.3257 23.9985 19.5966 23.4712 20.5339 22.5338C21.4713 21.5965 21.9986 20.3256 22.0002 19V7.17704C22.0001 6.64212 21.857 6.11695 21.5857 5.65594C21.3144 5.19492 20.9247 4.81483 20.4572 4.55504ZM20.0002 19C20.0002 19.7957 19.6841 20.5588 19.1215 21.1214C18.5589 21.684 17.7958 22 17.0002 22H7.00015C6.2045 22 5.44144 21.684 4.87883 21.1214C4.31622 20.5588 4.00015 19.7957 4.00015 19V7.17704C3.99971 6.99816 4.04726 6.82243 4.13784 6.66818C4.22842 6.51393 4.35872 6.3868 4.51515 6.30004L12.0002 2.14404L19.4862 6.30004C19.6424 6.38693 19.7725 6.51412 19.8629 6.66836C19.9533 6.8226 20.0007 6.99826 20.0002 7.17704V19Z" fill="currentColor"/>
<path d="M12 8.50024C12.8284 8.50024 13.5 7.82867 13.5 7.00024C13.5 6.17182 12.8284 5.50024 12 5.50024C11.1716 5.50024 10.5 6.17182 10.5 7.00024C10.5 7.82867 11.1716 8.50024 12 8.50024Z" fill="currentColor"/>
</g>
<defs>
<clipPath id="clip0_403_2991">
<rect width="24" height="24" fill="white"/>
</clipPath>
</defs>
</svg>
