<svg width="24" height="24" viewBox="0 0 24 24" fill="none" xmlns="http://www.w3.org/2000/svg">
<g clip-path="url(#clip0_406_1964)">
<path d="M15.848 16.0004C15.5573 16.0003 15.2701 16.0636 15.0064 16.1859C14.7427 16.3082 14.5088 16.4865 14.321 16.7084L14.074 17.0004H9.925L9.679 16.7084C9.49111 16.4863 9.25705 16.308 8.99315 16.1857C8.72925 16.0634 8.44185 16.0002 8.151 16.0004H2.5C1.83696 16.0004 1.20107 16.2638 0.732233 16.7326C0.263392 17.2014 0 17.8373 0 18.5004H0C0 19.1634 0.263392 19.7993 0.732233 20.2681C1.20107 20.737 1.83696 21.0004 2.5 21.0004H21.5C21.8283 21.0004 22.1534 20.9357 22.4567 20.8101C22.76 20.6844 23.0356 20.5003 23.2678 20.2681C23.4999 20.036 23.6841 19.7604 23.8097 19.4571C23.9353 19.1538 24 18.8287 24 18.5004C24 18.1721 23.9353 17.847 23.8097 17.5437C23.6841 17.2403 23.4999 16.9647 23.2678 16.7326C23.0356 16.5005 22.76 16.3163 22.4567 16.1907C22.1534 16.065 21.8283 16.0004 21.5 16.0004H15.848Z" fill="currentColor"/>
<path d="M3.00015 14H8.15115C9.12666 13.9986 10.0689 14.3543 10.8002 15H13.2002C13.9312 14.3553 14.8725 13.9997 15.8472 14H21.0002C21.3364 14.0023 21.6715 14.0392 22.0002 14.11V8C21.9986 6.67441 21.4713 5.40356 20.5339 4.46622C19.5966 3.52888 18.3257 3.00159 17.0002 3H7.00015C5.67456 3.00159 4.40371 3.52888 3.46637 4.46622C2.52903 5.40356 2.00174 6.67441 2.00015 8V14.11C2.32884 14.0392 2.66393 14.0023 3.00015 14Z" fill="currentColor"/>
</g>
<defs>
<clipPath id="clip0_406_1964">
<rect width="24" height="24" fill="white"/>
</clipPath>
</defs>
</svg>
