<svg width="24" height="24" viewBox="0 0 24 24" fill="none" xmlns="http://www.w3.org/2000/svg">
<g clip-path="url(#clip0_403_3277)">
<path d="M12 24C9.62663 24 7.30655 23.2962 5.33316 21.9776C3.35977 20.6591 1.8217 18.7849 0.913451 16.5922C0.00519943 14.3995 -0.232441 11.9867 0.230582 9.65892C0.693605 7.33115 1.83649 5.19295 3.51472 3.51472C5.19295 1.83649 7.33115 0.693605 9.65892 0.230582C11.9867 -0.232441 14.3995 0.00519943 16.5922 0.913451C18.7849 1.8217 20.6591 3.35977 21.9776 5.33316C23.2962 7.30655 24 9.62663 24 12C23.9966 15.1815 22.7312 18.2318 20.4815 20.4815C18.2318 22.7312 15.1815 23.9966 12 24ZM12 2.00001C10.0222 2.00001 8.08879 2.5865 6.4443 3.68531C4.79981 4.78412 3.51809 6.34591 2.76121 8.17317C2.00433 10.0004 1.8063 12.0111 2.19215 13.9509C2.578 15.8907 3.53041 17.6725 4.92894 19.0711C6.32746 20.4696 8.10929 21.422 10.0491 21.8079C11.9889 22.1937 13.9996 21.9957 15.8268 21.2388C17.6541 20.4819 19.2159 19.2002 20.3147 17.5557C21.4135 15.9112 22 13.9778 22 12C21.9971 9.34873 20.9426 6.80689 19.0679 4.93215C17.1931 3.05742 14.6513 2.00292 12 2.00001ZM8.00001 14C7.84394 13.9993 7.68988 14.0351 7.55015 14.1047C7.41042 14.1742 7.2889 14.2754 7.19531 14.4003C7.10171 14.5252 7.03865 14.6702 7.01116 14.8239C6.98368 14.9775 6.99253 15.1354 7.03701 15.285C7.3953 16.3325 8.06136 17.2475 8.94809 17.9103C9.83482 18.5731 10.9009 18.9529 12.007 19C13.1135 18.9564 14.1808 18.5778 15.0675 17.9145C15.9542 17.2511 16.6187 16.3342 16.973 15.285C17.013 15.1356 17.0186 14.9791 16.9893 14.8273C16.96 14.6754 16.8966 14.5322 16.8038 14.4084C16.7111 14.2847 16.5914 14.1836 16.4539 14.1129C16.3164 14.0421 16.1646 14.0035 16.01 14H8.00001ZM6.00001 10C6.00001 11 6.89501 11 8.00001 11C9.10501 11 10 11 10 10C10 9.46957 9.78929 8.96087 9.41422 8.58579C9.03915 8.21072 8.53044 8.00001 8.00001 8.00001C7.46957 8.00001 6.96086 8.21072 6.58579 8.58579C6.21072 8.96087 6.00001 9.46957 6.00001 10ZM14 10C14 11 14.895 11 16 11C17.105 11 18 11 18 10C18 9.46957 17.7893 8.96087 17.4142 8.58579C17.0391 8.21072 16.5304 8.00001 16 8.00001C15.4696 8.00001 14.9609 8.21072 14.5858 8.58579C14.2107 8.96087 14 9.46957 14 10Z" fill="currentColor"/>
</g>
<defs>
<clipPath id="clip0_403_3277">
<rect width="24" height="24" fill="white"/>
</clipPath>
</defs>
</svg>
