<svg width="24" height="24" viewBox="0 0 24 24" fill="none" xmlns="http://www.w3.org/2000/svg">
<g clip-path="url(#clip0_406_2160)">
<path d="M23.1189 0.871547C22.8064 0.559735 22.4286 0.321137 22.0127 0.172943C21.5968 0.0247496 21.1533 -0.0293485 20.7139 0.0145469C17.921 0.284547 8.52796 1.44755 4.89997 5.07155C3.16574 6.8105 2.13737 9.13037 2.01344 11.5832C1.88952 14.0359 2.67884 16.4477 4.22897 18.3525L15.289 7.29255C15.4776 7.11039 15.7302 7.0096 15.9924 7.01187C16.2546 7.01415 16.5054 7.11932 16.6908 7.30473C16.8762 7.49014 16.9813 7.74095 16.9836 8.00315C16.9859 8.26534 16.8851 8.51795 16.703 8.70655L5.64697 19.7665C7.55119 21.3176 9.96271 22.1079 12.4156 21.9847C14.8685 21.8615 17.1887 20.8336 18.9279 19.0995C22.6039 15.4225 23.7279 6.05855 23.9869 3.27655C24.0293 2.83642 23.9734 2.39238 23.8233 1.97648C23.6732 1.56058 23.4326 1.18319 23.1189 0.871547ZM4.89997 19.0995C5.13863 19.3375 5.3863 19.5612 5.64297 19.7705L1.70297 23.7105C1.51387 23.8922 1.26096 23.9924 0.998728 23.9894C0.736499 23.9864 0.485938 23.8805 0.301027 23.6946C0.116116 23.5086 0.0116549 23.2574 0.0101484 22.9952C0.00864182 22.733 0.110211 22.4806 0.292973 22.2925L4.23297 18.3525C4.4423 18.6085 4.66463 18.8575 4.89997 19.0995Z" fill="currentColor"/>
</g>
<defs>
<clipPath id="clip0_406_2160">
<rect width="24" height="24" fill="white"/>
</clipPath>
</defs>
</svg>
