<svg width="24" height="24" viewBox="0 0 24 24" fill="none" xmlns="http://www.w3.org/2000/svg">
<g clip-path="url(#clip0_403_2996)">
<path d="M21.1549 19.7413C22.9915 17.5802 23.9999 14.8364 23.9999 12.0003C23.9999 9.16419 22.9915 6.42045 21.1549 4.2593L22.0149 3.3993C22.2024 3.21166 22.3077 2.95722 22.3076 2.69195C22.3075 2.42668 22.2021 2.17231 22.0144 1.9848C21.8268 1.79729 21.5724 1.69201 21.3071 1.6921C21.0418 1.69219 20.7874 1.79766 20.5999 1.9853L19.7399 2.8453C17.5788 1.00873 14.8351 0.000366211 11.9989 0.000366211C9.16282 0.000366211 6.41909 1.00873 4.25794 2.8453L3.39794 1.9853C3.20921 1.80327 2.95653 1.70265 2.69433 1.70512C2.43214 1.70758 2.1814 1.81292 1.99612 1.99847C1.81084 2.18401 1.70585 2.4349 1.70376 2.6971C1.70166 2.9593 1.80264 3.21183 1.98494 3.4003L2.84494 4.2603C1.00836 6.42145 0 9.16519 0 12.0013C0 14.8374 1.00836 17.5812 2.84494 19.7423L1.98494 20.6023C1.88949 20.6946 1.81339 20.805 1.76107 20.9271C1.70875 21.0491 1.68126 21.1803 1.6802 21.3131C1.67914 21.4459 1.70454 21.5776 1.7549 21.7004C1.80527 21.8233 1.8796 21.9349 1.97356 22.0287C2.06752 22.1225 2.17922 22.1967 2.30215 22.2469C2.42508 22.2971 2.55678 22.3223 2.68956 22.321C2.82233 22.3198 2.95353 22.2921 3.0755 22.2396C3.19747 22.1871 3.30776 22.1109 3.39994 22.0153L4.25994 21.1553C6.42109 22.9919 9.16482 24.0002 12.0009 24.0002C14.8371 24.0002 17.5808 22.9919 19.7419 21.1553L20.6019 22.0153C20.7907 22.1973 21.0433 22.298 21.3055 22.2955C21.5677 22.293 21.8185 22.1877 22.0038 22.0021C22.189 21.8166 22.294 21.5657 22.2961 21.3035C22.2982 21.0413 22.1972 20.7888 22.0149 20.6003L21.1549 19.7413ZM21.9999 12.0003C22.0018 14.3068 21.2022 16.5422 19.7379 18.3243L16.1669 14.7533C16.7101 13.9379 16.9999 12.98 16.9999 12.0003C16.9999 11.0206 16.7101 10.0627 16.1669 9.2473L19.7379 5.6763C21.2022 7.45838 22.0018 9.69383 21.9999 12.0003ZM8.99994 12.0003C8.99994 11.407 9.17588 10.8269 9.50553 10.3336C9.83517 9.84025 10.3037 9.45573 10.8519 9.22866C11.4001 9.0016 12.0033 8.94219 12.5852 9.05795C13.1672 9.1737 13.7017 9.45942 14.1213 9.87898C14.5408 10.2985 14.8265 10.8331 14.9423 11.415C15.058 11.997 14.9986 12.6002 14.7716 13.1484C14.5445 13.6965 14.16 14.1651 13.6666 14.4947C13.1733 14.8244 12.5933 15.0003 11.9999 15.0003C11.2043 15.0003 10.4412 14.6842 9.87862 14.1216C9.31601 13.559 8.99994 12.796 8.99994 12.0003ZM11.9999 2.0003C14.3064 1.99846 16.5419 2.79805 18.3239 4.2623L14.7529 7.8333C13.9375 7.29016 12.9797 7.00036 11.9999 7.00036C11.0202 7.00036 10.0623 7.29016 9.24694 7.8333L5.67594 4.2623C7.45801 2.79805 9.69347 1.99846 11.9999 2.0003ZM1.99994 12.0003C1.9981 9.69383 2.79769 7.45838 4.26194 5.6763L7.83294 9.2473C7.2898 10.0627 6.99999 11.0206 6.99999 12.0003C6.99999 12.98 7.2898 13.9379 7.83294 14.7533L4.26194 18.3243C2.79769 16.5422 1.9981 14.3068 1.99994 12.0003ZM11.9999 22.0003C9.69347 22.0021 7.45801 21.2026 5.67594 19.7383L9.24694 16.1673C10.0623 16.7104 11.0202 17.0002 11.9999 17.0002C12.9797 17.0002 13.9375 16.7104 14.7529 16.1673L18.3239 19.7383C16.5419 21.2026 14.3064 22.0021 11.9999 22.0003Z" fill="currentColor"/>
</g>
<defs>
<clipPath id="clip0_403_2996">
<rect width="24" height="24" fill="white"/>
</clipPath>
</defs>
</svg>
