<svg width="24" height="24" viewBox="0 0 24 24" fill="none" xmlns="http://www.w3.org/2000/svg">
<g clip-path="url(#clip0_403_2953)">
<path d="M3.99987 6.00018C3.60562 6.00121 3.21508 5.92406 2.85084 5.77318C2.48661 5.6223 2.1559 5.40069 1.87787 5.12118L0.333868 3.74718C0.135751 3.57054 0.0159167 3.32244 0.000726292 3.05745C-0.0144642 2.79246 0.076234 2.53229 0.252868 2.33418C0.429502 2.13606 0.677604 2.01623 0.942593 2.00104C1.20758 1.98584 1.46775 2.07654 1.66587 2.25318L3.25087 3.66718C3.3416 3.76907 3.45223 3.85132 3.57595 3.90887C3.69966 3.96641 3.83384 3.99803 3.97023 4.00177C4.10661 4.00552 4.24233 3.98132 4.36901 3.93065C4.4957 3.87999 4.61067 3.80394 4.70687 3.70718L8.31087 0.276177C8.50466 0.103647 8.75793 0.0131959 9.01717 0.0239279C9.27642 0.0346599 9.52134 0.145735 9.70021 0.333692C9.87908 0.521649 9.97789 0.771771 9.97578 1.03123C9.97366 1.29069 9.87078 1.53916 9.68887 1.72418L6.09987 5.13818C5.82364 5.4128 5.49599 5.63028 5.13566 5.77818C4.77533 5.92609 4.38937 6.00153 3.99987 6.00018ZM23.9999 4.00018C23.9999 3.73496 23.8945 3.48061 23.707 3.29307C23.5194 3.10553 23.2651 3.00018 22.9999 3.00018H12.9999C12.7347 3.00018 12.4803 3.10553 12.2928 3.29307C12.1052 3.48061 11.9999 3.73496 11.9999 4.00018C11.9999 4.26539 12.1052 4.51975 12.2928 4.70728C12.4803 4.89482 12.7347 5.00018 12.9999 5.00018H22.9999C23.2651 5.00018 23.5194 4.89482 23.707 4.70728C23.8945 4.51975 23.9999 4.26539 23.9999 4.00018ZM6.09987 13.1382L9.68887 9.72418C9.78904 9.635 9.87025 9.52658 9.92766 9.40537C9.98508 9.28416 10.0175 9.15265 10.0231 9.01864C10.0286 8.88464 10.0072 8.75089 9.95995 8.62535C9.91276 8.49982 9.84078 8.38506 9.74833 8.2879C9.65587 8.19075 9.54481 8.11318 9.42177 8.05983C9.29872 8.00647 9.1662 7.97841 9.03208 7.97732C8.89797 7.97622 8.76501 8.00212 8.64111 8.05346C8.51721 8.1048 8.4049 8.18054 8.31087 8.27618L4.71087 11.7072C4.5205 11.8892 4.26726 11.9908 4.00387 11.9908C3.74048 11.9908 3.48724 11.8892 3.29687 11.7072L1.70687 10.1222C1.51827 9.94002 1.26566 9.83922 1.00347 9.8415C0.74127 9.84378 0.490458 9.94895 0.30505 10.1344C0.119641 10.3198 0.0144726 10.5706 0.0121941 10.8328C0.00991571 11.095 0.11071 11.3476 0.292868 11.5362L1.87787 13.1212C2.43754 13.681 3.19578 13.9969 3.98737 14.0001C4.77895 14.0033 5.53971 13.6935 6.10387 13.1382H6.09987ZM23.9999 12.0002C23.9999 11.735 23.8945 11.4806 23.707 11.2931C23.5194 11.1055 23.2651 11.0002 22.9999 11.0002H12.9999C12.7347 11.0002 12.4803 11.1055 12.2928 11.2931C12.1052 11.4806 11.9999 11.735 11.9999 12.0002C11.9999 12.2654 12.1052 12.5197 12.2928 12.7073C12.4803 12.8948 12.7347 13.0002 12.9999 13.0002H22.9999C23.2651 13.0002 23.5194 12.8948 23.707 12.7073C23.8945 12.5197 23.9999 12.2654 23.9999 12.0002ZM6.09987 21.1382L9.68487 17.7242C9.78504 17.635 9.86625 17.5266 9.92366 17.4054C9.98108 17.2842 10.0135 17.1526 10.0191 17.0186C10.0246 16.8846 10.0032 16.7509 9.95595 16.6254C9.90875 16.4998 9.83678 16.3851 9.74433 16.2879C9.65187 16.1907 9.54081 16.1132 9.41777 16.0598C9.29472 16.0065 9.1622 15.9784 9.02808 15.9773C8.89397 15.9762 8.76101 16.0021 8.63711 16.0535C8.51321 16.1048 8.4009 16.1805 8.30687 16.2762L4.70687 19.7072C4.61067 19.8039 4.4957 19.88 4.36901 19.9307C4.24233 19.9813 4.10661 20.0055 3.97023 20.0018C3.83384 19.998 3.69966 19.9664 3.57595 19.9089C3.45223 19.8513 3.3416 19.7691 3.25087 19.6672L1.66587 18.2532C1.46775 18.0765 1.20758 17.9858 0.942593 18.001C0.677604 18.0162 0.429502 18.1361 0.252868 18.3342C0.076234 18.5323 -0.0144642 18.7925 0.000726292 19.0575C0.0159167 19.3224 0.135751 19.5705 0.333868 19.7472L1.87787 21.1212C2.43754 21.681 3.19578 21.9969 3.98737 22.0001C4.77895 22.0033 5.53971 21.6935 6.10387 21.1382H6.09987ZM23.9999 20.0002C23.9999 19.735 23.8945 19.4806 23.707 19.2931C23.5194 19.1055 23.2651 19.0002 22.9999 19.0002H12.9999C12.7347 19.0002 12.4803 19.1055 12.2928 19.2931C12.1052 19.4806 11.9999 19.735 11.9999 20.0002C11.9999 20.2654 12.1052 20.5198 12.2928 20.7073C12.4803 20.8948 12.7347 21.0002 12.9999 21.0002H22.9999C23.2651 21.0002 23.5194 20.8948 23.707 20.7073C23.8945 20.5198 23.9999 20.2654 23.9999 20.0002Z" fill="currentColor"/>
</g>
<defs>
<clipPath id="clip0_403_2953">
<rect width="24" height="24" fill="white"/>
</clipPath>
</defs>
</svg>
