<svg width="24" height="24" viewBox="0 0 24 24" fill="none" xmlns="http://www.w3.org/2000/svg">
<g clip-path="url(#clip0_406_1954)">
<path d="M6.4 23.9999C4.70318 23.998 3.07639 23.3231 1.87656 22.1233C0.676732 20.9235 0.00185286 19.2967 0 17.5999C0 14.5409 3.952 13.2729 6.286 13.0069C6.43559 12.9889 6.58732 13.0053 6.72961 13.0548C6.8719 13.1044 7.00098 13.1858 7.107 13.2929L10.707 16.8929C10.8134 16.9992 10.8945 17.1281 10.9442 17.2701C10.9939 17.412 11.0109 17.5634 10.994 17.7129C10.727 20.0479 9.458 23.9999 6.4 23.9999ZM10.16 9.22787L7.88 11.2369L12.763 16.1199L14.772 13.8399L10.16 9.22787ZM23.284 0.715869C22.8446 0.279332 22.2563 0.0252433 21.6373 0.00465253C21.0183 -0.0159382 20.4144 0.198495 19.947 0.604869L11.664 7.89987L16.1 12.3359L23.4 4.04987C23.8053 3.58223 24.0186 2.97854 23.9971 2.36008C23.9756 1.74162 23.7208 1.15421 23.284 0.715869Z" fill="currentColor"/>
</g>
<defs>
<clipPath id="clip0_406_1954">
<rect width="24" height="24" fill="white"/>
</clipPath>
</defs>
</svg>
