<svg width="24" height="24" viewBox="0 0 24 24" fill="none" xmlns="http://www.w3.org/2000/svg">
<g clip-path="url(#clip0_406_1990)">
<path d="M24 11.5004C24 12.3884 23.6623 13.2432 23.0555 13.8916C22.4487 14.54 21.6181 14.9335 20.732 14.9924C19.7215 17.1068 18.0642 18.8447 16 19.9544V23.0004C16 23.2656 15.8947 23.52 15.7071 23.7075C15.5196 23.895 15.2653 24.0004 15 24.0004H9.00004C8.73483 24.0004 8.48047 23.895 8.29294 23.7075C8.1054 23.52 8.00004 23.2656 8.00004 23.0004V19.9534C6.07308 18.9043 4.49446 17.3152 3.45804 15.3814C3.33604 15.1459 3.3126 14.8716 3.39286 14.6188C3.47313 14.366 3.65053 14.1554 3.88604 14.0334C4.12156 13.9114 4.39589 13.8879 4.64868 13.9682C4.90148 14.0485 5.11204 14.2259 5.23404 14.4614C6.40004 16.7174 9.10004 19.0004 12 19.0004C15.129 19.0004 18.212 16.2214 19.128 13.6244C19.206 13.4005 19.3614 13.2119 19.5662 13.0925C19.7711 12.9731 20.0118 12.9309 20.245 12.9734C20.3292 12.9892 20.4145 12.9982 20.5 13.0004C20.8713 12.996 21.2276 12.854 21.5003 12.602C21.7729 12.3501 21.9424 12.0059 21.976 11.6362C22.0096 11.2665 21.9048 10.8975 21.6821 10.6005C21.4593 10.3035 21.1344 10.0997 20.77 10.0284C20.5574 9.98985 20.363 9.88348 20.2159 9.7252C20.0688 9.56692 19.9769 9.36526 19.954 9.15039C19.8218 7.88548 19.3884 6.67066 18.6902 5.60763C17.992 4.5446 17.0493 3.66429 15.941 3.04039C15.6584 3.92583 15.2802 4.77786 14.813 5.58139C13.515 7.42153 11.8217 8.94783 9.85704 10.0484C10.1566 10.1217 10.4263 10.2857 10.6293 10.5178C10.8324 10.75 10.9589 11.039 10.9918 11.3457C11.0246 11.6524 10.9621 11.9617 10.8128 12.2316C10.6634 12.5014 10.4346 12.7187 10.1573 12.8538C9.88005 12.9889 9.56789 13.0352 9.26334 12.9865C8.95879 12.9378 8.67667 12.7964 8.45539 12.5815C8.23411 12.3667 8.08444 12.0889 8.02676 11.7859C7.96907 11.4829 8.00619 11.1695 8.13304 10.8884C5.83387 11.8194 3.34785 12.1962 0.876043 11.9884C0.670015 11.9608 0.477712 11.8696 0.32588 11.7277C0.174048 11.5857 0.0702335 11.3999 0.0288746 11.1962C-0.0124843 10.9925 0.0106684 10.781 0.0951127 10.591C0.179557 10.4011 0.321095 10.2422 0.500043 10.1364C1.10458 9.4505 1.55443 8.64254 1.81904 7.76739C3.12404 4.67439 5.10004 0.000390711 12 0.000390711C14.3544 -0.00482513 16.6348 0.822909 18.4376 2.33714C20.2404 3.85137 21.4496 5.95449 21.851 8.27439C22.4872 8.54059 23.0306 8.98879 23.4129 9.56273C23.7952 10.1367 23.9995 10.8108 24 11.5004ZM16 11.5004C16 11.2037 15.9121 10.9137 15.7472 10.667C15.5824 10.4204 15.3482 10.2281 15.0741 10.1146C14.8 10.001 14.4984 9.97134 14.2074 10.0292C13.9164 10.0871 13.6492 10.23 13.4394 10.4397C13.2296 10.6495 13.0867 10.9168 13.0289 11.2078C12.971 11.4987 13.0007 11.8003 13.1142 12.0744C13.2278 12.3485 13.42 12.5828 13.6667 12.7476C13.9134 12.9124 14.2034 13.0004 14.5 13.0004C14.8979 13.0004 15.2794 12.8424 15.5607 12.5611C15.842 12.2797 16 11.8982 16 11.5004Z" fill="currentColor"/>
</g>
<defs>
<clipPath id="clip0_406_1990">
<rect width="24" height="24" fill="white"/>
</clipPath>
</defs>
</svg>
