<svg width="24" height="24" viewBox="0 0 24 24" fill="none" xmlns="http://www.w3.org/2000/svg">
<path d="M19.788 3.28077C15.5416 -1.03862 8.59769 -1.09787 4.2783 3.14849C-0.0410893 7.39485 -0.100339 14.3388 4.14602 18.6582C4.1988 18.7118 4.25215 18.765 4.306 18.8176L8.23732 22.4498C10.3391 24.5058 13.6958 24.5142 15.8078 22.4687L19.788 18.7907C24.0708 14.5077 24.0708 7.56379 19.788 3.28077ZM16.0212 12.0328H8.0449C7.49426 12.0328 7.04786 11.5864 7.04786 11.0357C7.04786 10.4851 7.49426 10.0387 8.0449 10.0387H16.0212C16.5718 10.0387 17.0182 10.4851 17.0182 11.0357C17.0182 11.5864 16.5718 12.0328 16.0212 12.0328Z" fill="currentColor"/>
</svg>
