<svg width="24" height="24" viewBox="0 0 24 24" fill="none" xmlns="http://www.w3.org/2000/svg">
<g clip-path="url(#clip0_403_2944)">
<path d="M12.0002 0C9.82122 4.93792e-05 7.69139 0.647215 5.88078 1.85942C4.07017 3.07162 2.66036 4.79425 1.83015 6.80882C0.999943 8.82339 0.78674 11.0391 1.21758 13.175C1.64843 15.311 2.7039 17.2708 4.25015 18.806L8.19315 22.447C9.20664 23.4391 10.5674 23.9963 11.9856 24C13.4038 24.0038 14.7675 23.4537 15.7862 22.467L19.7782 18.778C21.3165 17.2396 22.3641 15.2796 22.7885 13.1459C23.2129 11.0122 22.995 8.80047 22.1625 6.79053C21.33 4.78059 19.9201 3.06265 18.1112 1.85395C16.3024 0.645245 14.1757 6.9059e-05 12.0002 0V0ZM18.3922 17.337L14.4082 21.018C13.7531 21.6352 12.8861 21.9774 11.9861 21.9741C11.086 21.9707 10.2216 21.6221 9.57115 21L5.63615 17.364C4.5896 16.3174 3.81731 15.0289 3.38768 13.6126C2.95805 12.1963 2.88434 10.6959 3.17309 9.24424C3.46184 7.79263 4.10412 6.43463 5.04306 5.29053C5.982 4.14644 7.1886 3.25156 8.55599 2.68517C9.92338 2.11877 11.4094 1.89835 12.8823 2.04341C14.3552 2.18848 15.7696 2.69456 17.0002 3.51683C18.2309 4.33909 19.2397 5.45217 19.9374 6.75745C20.6351 8.06274 21.0001 9.51995 21.0002 11C21.0045 12.176 20.7764 13.3413 20.3288 14.4289C19.8812 15.5164 19.2231 16.5047 18.3922 17.337ZM16.7102 7.663L13.7102 5.582C13.2075 5.23469 12.6111 5.04867 12.0002 5.04867C11.3892 5.04867 10.7928 5.23469 10.2902 5.582L7.29015 7.663C6.89206 7.93917 6.56678 8.30765 6.34213 8.73692C6.11748 9.1662 6.00014 9.6435 6.00015 10.128V13.5C6.00015 14.163 6.26354 14.7989 6.73239 15.2678C7.20123 15.7366 7.83711 16 8.50015 16H15.5002C16.1632 16 16.7991 15.7366 17.2679 15.2678C17.7368 14.7989 18.0002 14.163 18.0002 13.5V10.128C18.0002 9.6435 17.8828 9.1662 17.6582 8.73692C17.4335 8.30765 17.1082 7.93917 16.7102 7.663ZM16.0002 13.5C16.0002 13.6326 15.9475 13.7598 15.8537 13.8536C15.7599 13.9473 15.6328 14 15.5002 14H14.0002V12C14.0002 11.7348 13.8948 11.4804 13.7073 11.2929C13.5197 11.1054 13.2654 11 13.0002 11H11.0002C10.7349 11 10.4806 11.1054 10.293 11.2929C10.1055 11.4804 10.0002 11.7348 10.0002 12V14H8.50015C8.36754 14 8.24037 13.9473 8.1466 13.8536C8.05283 13.7598 8.00015 13.6326 8.00015 13.5V10.128C8.00009 9.96644 8.03918 9.80728 8.11407 9.66412C8.18895 9.52097 8.29741 9.39809 8.43015 9.306L11.4302 7.225C11.5979 7.10968 11.7966 7.04794 12.0002 7.04794C12.2037 7.04794 12.4024 7.10968 12.5702 7.225L15.5702 9.306C15.7029 9.39809 15.8114 9.52097 15.8862 9.66412C15.9611 9.80728 16.0002 9.96644 16.0002 10.128V13.5Z" fill="currentColor"/>
</g>
<defs>
<clipPath id="clip0_403_2944">
<rect width="24" height="24" fill="white"/>
</clipPath>
</defs>
</svg>
