<svg width="24" height="24" viewBox="0 0 24 24" fill="none" xmlns="http://www.w3.org/2000/svg">
<g clip-path="url(#clip0_403_2939)">
<path d="M20.68 1.16719L20.659 1.16019L17.944 0.260188C17.0062 -0.0511556 15.9974 -0.0786382 15.044 0.181188L9.468 1.80019C8.78525 1.98112 8.06072 1.91744 7.42 1.62019L6.92 1.38819C6.16059 1.07236 5.335 0.948745 4.51639 1.02829C3.69779 1.10784 2.91144 1.3881 2.22705 1.84423C1.54266 2.30036 0.981356 2.91827 0.592883 3.64321C0.204411 4.36815 0.000767286 5.17772 0 6.00018L0 18.0752C0.0021016 19.1565 0.353792 20.2082 1.00259 21.0732C1.65139 21.9383 2.56251 22.5704 3.6 22.8752L6.469 23.7752C6.95302 23.9256 7.45713 24.0015 7.964 24.0002C8.41581 24.0059 8.866 23.9449 9.3 23.8192L15.1 22.2192C15.63 22.0754 16.1893 22.0799 16.717 22.2322L19.06 22.9082C19.6482 23.0504 20.261 23.0573 20.8523 22.9283C21.4436 22.7994 21.9979 22.5379 22.4735 22.1637C22.9491 21.7895 23.3336 21.3123 23.598 20.7679C23.8624 20.2236 23.9999 19.6263 24 19.0212V5.87618C23.9985 4.84502 23.6788 3.83944 23.0847 2.99668C22.4905 2.15392 21.6507 1.51502 20.68 1.16719ZM4.176 20.9592C3.55031 20.7782 3.00009 20.3994 2.6078 19.8795C2.2155 19.3595 2.00225 18.7265 2 18.0752V6.00018C1.99514 5.50486 2.11496 5.01628 2.34842 4.5794C2.58189 4.14253 2.9215 3.7714 3.336 3.50018C3.8292 3.17303 4.40816 2.99906 5 3.00019C5.38166 3.00029 5.75955 3.07573 6.112 3.22218C6.112 3.22218 6.857 3.54118 6.999 3.59218V21.8422L4.176 20.9592ZM9 21.8272V3.87918C9.33966 3.86116 9.67667 3.80924 10.006 3.72418L15 2.27319V20.2002L9 21.8272ZM22 19.0212C22.0002 19.3207 21.9331 19.6165 21.8037 19.8866C21.6743 20.1568 21.4859 20.3944 21.2524 20.582C21.0188 20.7695 20.7461 20.9022 20.4544 20.9703C20.1627 21.0383 19.8594 21.04 19.567 20.9752L17 20.2522V2.07519L20.018 3.05418C20.598 3.26434 21.0993 3.64786 21.4539 4.15271C21.8085 4.65755 21.9991 5.25926 22 5.87618V19.0212Z" fill="currentColor"/>
</g>
<defs>
<clipPath id="clip0_403_2939">
<rect width="24" height="24" fill="white"/>
</clipPath>
</defs>
</svg>
