<svg width="24" height="24" viewBox="0 0 24 24" fill="none" xmlns="http://www.w3.org/2000/svg">
<g clip-path="url(#clip0_406_1950)">
<path d="M22.5138 10.972C22.106 10.6072 21.6247 10.3342 21.1023 10.1714C20.5799 10.0085 20.0287 9.95962 19.4858 10.028C17.2987 10.2924 15.1406 10.7577 13.0388 11.418C13.3588 8.913 15.7498 8 17.9998 8C18.7955 8 19.5585 7.68393 20.1212 7.12132C20.6838 6.55871 20.9998 5.79565 20.9998 5C20.9998 4.20435 20.6838 3.44129 20.1212 2.87868C19.5585 2.31607 18.7955 2 17.9998 2C17.0676 1.99978 16.1448 2.18649 15.286 2.54908C14.4272 2.91166 13.6498 3.44277 12.9998 4.111V1C12.9998 0.734784 12.8945 0.48043 12.7069 0.292893C12.5194 0.105357 12.265 0 11.9998 0C11.7346 0 11.4803 0.105357 11.2927 0.292893C11.1052 0.48043 10.9998 0.734784 10.9998 1V4.11C10.3496 3.44214 9.57216 2.91133 8.71339 2.54893C7.85462 2.18653 6.93194 1.99988 5.99983 2C5.20418 2 4.44112 2.31607 3.87851 2.87868C3.3159 3.44129 2.99983 4.20435 2.99983 5C2.99983 5.79565 3.3159 6.55871 3.87851 7.12132C4.44112 7.68393 5.20418 8 5.99983 8C8.24983 8 10.6408 8.913 10.9608 11.418C8.85905 10.7578 6.70094 10.2925 4.51383 10.028C3.97098 9.96001 3.41985 10.0091 2.89755 10.1719C2.37525 10.3348 1.89388 10.6076 1.48583 10.972C1.01516 11.4032 0.640964 11.929 0.387796 12.5149C0.134629 13.1009 0.00820946 13.7337 0.0168316 14.372C0.0168316 23.062 4.85183 24 6.93083 24C8.05975 23.9395 9.14092 23.5249 10.0208 22.815C10.5808 22.3407 11.2702 22.0453 11.9998 21.967C12.7295 22.0453 13.4189 22.3407 13.9788 22.815C14.8588 23.5247 15.94 23.9393 17.0688 24C19.1478 24 23.9828 23.062 23.9828 14.375C23.9916 13.7363 23.8653 13.1029 23.6121 12.5165C23.359 11.93 22.9847 11.4037 22.5138 10.972ZM6.15583 19.272C4.88783 19.624 4.40983 18.308 4.02083 16.158C3.9765 15.9717 3.97873 15.7773 4.0273 15.592C4.07588 15.4067 4.16932 15.2362 4.29937 15.0956C4.42943 14.9549 4.5921 14.8485 4.77303 14.7856C4.95396 14.7227 5.14759 14.7053 5.33683 14.735C7.2713 15.2043 9.16503 15.828 10.9998 16.6C8.69983 16.839 7.36383 18.939 6.15583 19.274V19.272ZM19.9788 16.16C19.5898 18.31 19.1118 19.626 17.8438 19.274C16.6358 18.939 15.2998 16.839 12.9998 16.6C14.8348 15.8304 16.7286 15.2091 18.6628 14.742C18.8516 14.7126 19.0446 14.73 19.225 14.7927C19.4055 14.8553 19.5678 14.9613 19.6977 15.1013C19.8276 15.2413 19.9212 15.411 19.9702 15.5956C20.0192 15.7802 20.0222 15.974 19.9788 16.16Z" fill="currentColor"/>
</g>
<defs>
<clipPath id="clip0_406_1950">
<rect width="24" height="24" fill="white"/>
</clipPath>
</defs>
</svg>
