<svg width="24" height="24" viewBox="0 0 24 24" fill="none" xmlns="http://www.w3.org/2000/svg">
<g clip-path="url(#clip0_403_2928)">
<path d="M11.9998 20C14.1208 19.9976 16.1543 19.154 17.6541 17.6542C19.1538 16.1544 19.9975 14.121 19.9998 12V8C19.9998 5.87827 19.157 3.84344 17.6567 2.34315C16.1564 0.842855 14.1216 0 11.9998 0C9.87812 0 7.84328 0.842855 6.34299 2.34315C4.8427 3.84344 3.99985 5.87827 3.99985 8V12C4.00223 14.121 4.84585 16.1544 6.34562 17.6542C7.8454 19.154 9.87885 19.9976 11.9998 20ZM11.9998 2C13.4164 2.00263 14.7864 2.50587 15.8679 3.4208C16.9493 4.33573 17.6726 5.60346 17.9098 7H14.9998C14.7346 7 14.4803 7.10536 14.2927 7.29289C14.1052 7.48043 13.9998 7.73478 13.9998 8C13.9998 8.26522 14.1052 8.51957 14.2927 8.70711C14.4803 8.89464 14.7346 9 14.9998 9H17.9998V11H14.9998C14.7346 11 14.4803 11.1054 14.2927 11.2929C14.1052 11.4804 13.9998 11.7348 13.9998 12C13.9998 12.2652 14.1052 12.5196 14.2927 12.7071C14.4803 12.8946 14.7346 13 14.9998 13H17.9098C17.6748 14.3975 16.9522 15.6665 15.8702 16.5817C14.7882 17.4969 13.417 17.999 11.9998 17.999C10.5827 17.999 9.21146 17.4969 8.12949 16.5817C7.04753 15.6665 6.32488 14.3975 6.08985 13H8.99985C9.26506 13 9.51942 12.8946 9.70695 12.7071C9.89449 12.5196 9.99985 12.2652 9.99985 12C9.99985 11.7348 9.89449 11.4804 9.70695 11.2929C9.51942 11.1054 9.26506 11 8.99985 11H5.99985V9H8.99985C9.26506 9 9.51942 8.89464 9.70695 8.70711C9.89449 8.51957 9.99985 8.26522 9.99985 8C9.99985 7.73478 9.89449 7.48043 9.70695 7.29289C9.51942 7.10536 9.26506 7 8.99985 7H6.08985C6.32712 5.60346 7.05037 4.33573 8.13182 3.4208C9.21326 2.50587 10.5833 2.00263 11.9998 2Z" fill="currentColor"/>
<path d="M23 12C22.7348 12 22.4804 12.1054 22.2929 12.2929C22.1054 12.4804 22 12.7348 22 13C21.9974 15.3861 21.0483 17.6738 19.361 19.361C17.6738 21.0483 15.3861 21.9974 13 22H11C8.61395 21.9971 6.32645 21.0479 4.63925 19.3607C2.95206 17.6735 2.00291 15.3861 2 13C2 12.7348 1.89464 12.4804 1.70711 12.2929C1.51957 12.1054 1.26522 12 1 12C0.734784 12 0.48043 12.1054 0.292893 12.2929C0.105357 12.4804 0 12.7348 0 13C0.00344047 15.9163 1.16347 18.7122 3.22563 20.7744C5.28778 22.8365 8.08367 23.9966 11 24H13C15.9163 23.9966 18.7122 22.8365 20.7744 20.7744C22.8365 18.7122 23.9966 15.9163 24 13C24 12.7348 23.8946 12.4804 23.7071 12.2929C23.5196 12.1054 23.2652 12 23 12Z" fill="currentColor"/>
</g>
<defs>
<clipPath id="clip0_403_2928">
<rect width="24" height="24" fill="white"/>
</clipPath>
</defs>
</svg>
