<svg width="24" height="24" viewBox="0 0 24 24" fill="none" xmlns="http://www.w3.org/2000/svg">
<g clip-path="url(#clip0_406_1960)">
<path d="M16 10.5107C17.3807 10.5107 18.5 9.39139 18.5 8.01068C18.5 6.62997 17.3807 5.51068 16 5.51068C14.6193 5.51068 13.5 6.62997 13.5 8.01068C13.5 9.39139 14.6193 10.5107 16 10.5107Z" fill="currentColor"/>
<path d="M22.9998 16.0003C22.7346 16.0003 22.4803 16.1057 22.2927 16.2932C22.1052 16.4807 21.9998 16.7351 21.9998 17.0003V19.0003C21.9998 19.7959 21.6838 20.559 21.1212 21.1216C20.5586 21.6842 19.7955 22.0003 18.9998 22.0003H16.9998C16.7346 22.0003 16.4803 22.1056 16.2927 22.2932C16.1052 22.4807 15.9998 22.7351 15.9998 23.0003C15.9998 23.2655 16.1052 23.5199 16.2927 23.7074C16.4803 23.8949 16.7346 24.0003 16.9998 24.0003H18.9998C20.3254 23.9987 21.5963 23.4714 22.5336 22.5341C23.471 21.5967 23.9982 20.3259 23.9998 19.0003V17.0003C23.9998 16.7351 23.8945 16.4807 23.7069 16.2932C23.5194 16.1057 23.265 16.0003 22.9998 16.0003Z" fill="currentColor"/>
<path d="M1 8C1.26522 8 1.51957 7.89464 1.70711 7.70711C1.89464 7.51957 2 7.26522 2 7V5C2 4.20435 2.31607 3.44129 2.87868 2.87868C3.44129 2.31607 4.20435 2 5 2H7C7.26522 2 7.51957 1.89464 7.70711 1.70711C7.89464 1.51957 8 1.26522 8 1C8 0.734784 7.89464 0.48043 7.70711 0.292893C7.51957 0.105357 7.26522 0 7 0L5 0C3.67441 0.00158786 2.40356 0.528882 1.46622 1.46622C0.528882 2.40356 0.00158786 3.67441 0 5L0 7C0 7.26522 0.105357 7.51957 0.292893 7.70711C0.48043 7.89464 0.734784 8 1 8Z" fill="currentColor"/>
<path d="M7 22.0003H5C4.20435 22.0003 3.44129 21.6842 2.87868 21.1216C2.31607 20.559 2 19.7959 2 19.0003V17.0003C2 16.7351 1.89464 16.4807 1.70711 16.2932C1.51957 16.1057 1.26522 16.0003 1 16.0003C0.734784 16.0003 0.48043 16.1057 0.292893 16.2932C0.105357 16.4807 0 16.7351 0 17.0003L0 19.0003C0.00158786 20.3259 0.528882 21.5967 1.46622 22.5341C2.40356 23.4714 3.67441 23.9987 5 24.0003H7C7.26522 24.0003 7.51957 23.8949 7.70711 23.7074C7.89464 23.5199 8 23.2655 8 23.0003C8 22.7351 7.89464 22.4807 7.70711 22.2932C7.51957 22.1056 7.26522 22.0003 7 22.0003Z" fill="currentColor"/>
<path d="M18.9998 0H16.9998C16.7346 0 16.4803 0.105357 16.2927 0.292893C16.1052 0.48043 15.9998 0.734784 15.9998 1C15.9998 1.26522 16.1052 1.51957 16.2927 1.70711C16.4803 1.89464 16.7346 2 16.9998 2H18.9998C19.7955 2 20.5586 2.31607 21.1212 2.87868C21.6838 3.44129 21.9998 4.20435 21.9998 5V7C21.9998 7.26522 22.1052 7.51957 22.2927 7.70711C22.4803 7.89464 22.7346 8 22.9998 8C23.265 8 23.5194 7.89464 23.7069 7.70711C23.8945 7.51957 23.9998 7.26522 23.9998 7V5C23.9982 3.67441 23.471 2.40356 22.5336 1.46622C21.5963 0.528882 20.3254 0.00158786 18.9998 0V0Z" fill="currentColor"/>
<path d="M18.7068 17.2926L11.1208 9.7066C10.5583 9.14419 9.79534 8.82825 8.99985 8.82825C8.20435 8.82825 7.44143 9.14419 6.87885 9.7066L4.58585 11.9996C4.21075 12.3746 3.99996 12.8832 3.99985 13.4136V15.9996C3.99985 16.7952 4.31592 17.5583 4.87853 18.1209C5.44114 18.6835 6.2042 18.9996 6.99985 18.9996H17.9998C18.1976 18.9995 18.3909 18.9409 18.5553 18.831C18.7197 18.7211 18.8479 18.5649 18.9235 18.3822C18.9992 18.1995 19.019 17.9985 18.9804 17.8046C18.9419 17.6106 18.8467 17.4324 18.7068 17.2926Z" fill="currentColor"/>
</g>
<defs>
<clipPath id="clip0_406_1960">
<rect width="24" height="24" fill="white"/>
</clipPath>
</defs>
</svg>
