<svg width="24" height="24" viewBox="0 0 24 24" fill="none" xmlns="http://www.w3.org/2000/svg">
<g clip-path="url(#clip0_406_2096)">
<path d="M13.0001 3V1C13.0001 0.734784 12.8948 0.48043 12.7072 0.292893C12.5197 0.105357 12.2653 0 12.0001 0C11.7349 0 11.4806 0.105357 11.293 0.292893C11.1055 0.48043 11.0001 0.734784 11.0001 1V3C9.14426 3.00212 7.36501 3.7403 6.05271 5.05259C4.74042 6.36489 4.00224 8.14413 4.00012 10V16C4.00012 18.1217 4.84298 20.1566 6.34327 21.6569C7.84356 23.1571 9.87839 24 12.0001 24C14.1219 24 16.1567 23.1571 17.657 21.6569C19.1573 20.1566 20.0001 18.1217 20.0001 16V10C19.998 8.14413 19.2598 6.36489 17.9475 5.05259C16.6352 3.7403 14.856 3.00212 13.0001 3ZM13.0001 10C13.0001 10.2652 12.8948 10.5196 12.7072 10.7071C12.5197 10.8946 12.2653 11 12.0001 11C11.7349 11 11.4806 10.8946 11.293 10.7071C11.1055 10.5196 11.0001 10.2652 11.0001 10V8C11.0001 7.73478 11.1055 7.48043 11.293 7.29289C11.4806 7.10536 11.7349 7 12.0001 7C12.2653 7 12.5197 7.10536 12.7072 7.29289C12.8948 7.48043 13.0001 7.73478 13.0001 8V10Z" fill="currentColor"/>
</g>
<defs>
<clipPath id="clip0_406_2096">
<rect width="24" height="24" fill="white"/>
</clipPath>
</defs>
</svg>
