<svg width="24" height="24" viewBox="0 0 24 24" fill="none" xmlns="http://www.w3.org/2000/svg">
<g clip-path="url(#clip0_406_1941)">
<path d="M19 23C19 23.2652 18.8946 23.5196 18.7071 23.7071C18.5196 23.8947 18.2652 24 18 24H1C0.734784 24 0.48043 23.8947 0.292893 23.7071C0.105357 23.5196 0 23.2652 0 23C0 22.7348 0.105357 22.4805 0.292893 22.2929C0.48043 22.1054 0.734784 22 1 22H18C18.2652 22 18.5196 22.1054 18.7071 22.2929C18.8946 22.4805 19 22.7348 19 23ZM24 8.00003C24 10.774 21.815 14 19 14H17.388L17.088 15.821C16.8966 16.9908 16.2945 18.054 15.3899 18.8199C14.4853 19.5858 13.3373 20.0042 12.152 20H6.852C5.6674 20.0032 4.52039 19.5844 3.6166 18.8186C2.7128 18.0528 2.11133 16.9901 1.92 15.821L0.056 4.65703C-0.0393862 4.08418 -0.00889222 3.49743 0.145363 2.93755C0.299618 2.37768 0.573934 1.8581 0.949249 1.41494C1.32456 0.971773 1.79188 0.615647 2.31871 0.371306C2.84554 0.126966 3.41926 0.000272017 4 2.88453e-05H15C15.525 -0.00197309 16.0453 0.100248 16.5305 0.300769C17.0158 0.50129 17.4564 0.796123 17.8269 1.16818C18.1974 1.54024 18.4903 1.98213 18.6888 2.46823C18.8872 2.95434 18.9872 3.47499 18.983 4.00003H19C22.131 4.00003 24 5.50003 24 8.00003ZM22 8.00003C22 7.50003 22 6.00003 19 6.00003H18.721L17.721 12H19C20.545 12 22 9.74603 22 8.00003Z" fill="currentColor"/>
</g>
<defs>
<clipPath id="clip0_406_1941">
<rect width="24" height="24" fill="white"/>
</clipPath>
</defs>
</svg>
