<svg width="24" height="24" viewBox="0 0 24 24" fill="none" xmlns="http://www.w3.org/2000/svg">
<g clip-path="url(#clip0_403_2912)">
<path d="M13.987 6.108C13.948 6.119 6.75901 8.972 6.75901 8.972C6.22449 9.18047 5.76822 9.55033 5.45367 10.0301C5.13911 10.51 4.9819 11.0759 5.0039 11.6492C5.0259 12.2225 5.22602 12.7747 5.57642 13.229C5.92682 13.6833 6.41008 14.0171 6.95901 14.184L9.30501 14.771L10.078 17.295C10.2837 17.7995 10.6351 18.2312 11.0874 18.5349C11.5396 18.8386 12.0722 19.0005 12.617 19H12.661C13.2141 18.9929 13.752 18.8184 14.204 18.4996C14.6559 18.1808 15.0007 17.7326 15.193 17.214C15.193 17.214 17.886 10.049 17.893 10.014C18.0348 9.47336 18.0326 8.90501 17.8864 8.36552C17.7403 7.82603 17.4554 7.33422 17.0602 6.93904C16.6649 6.54387 16.173 6.25913 15.6335 6.11315C15.094 5.96717 14.5256 5.96505 13.985 6.107L13.987 6.108ZM15.97 9.467L13.322 16.51C13.271 16.6529 13.1772 16.7766 13.0534 16.8643C12.9296 16.952 12.7817 16.9994 12.63 17C12.53 16.988 12.105 16.974 11.955 16.622L11.047 13.646C10.9968 13.4809 10.9048 13.3317 10.7799 13.2127C10.6549 13.0937 10.5013 13.0091 10.334 12.967L7.51601 12.267C7.36769 12.2165 7.23853 12.1216 7.14613 11.9951C7.05372 11.8685 7.00256 11.7166 6.99961 11.56C6.99666 11.4033 7.04206 11.2496 7.12964 11.1197C7.21721 10.9898 7.34269 10.89 7.48901 10.834L14.549 8.034C14.7434 7.98757 14.9466 7.99266 15.1385 8.04878C15.3303 8.1049 15.5042 8.2101 15.643 8.354C15.7879 8.49621 15.8941 8.67314 15.9513 8.86796C16.0085 9.06277 16.015 9.269 15.97 9.467ZM12 0C9.62663 0 7.30655 0.703788 5.33316 2.02236C3.35977 3.34094 1.8217 5.21509 0.913451 7.4078C0.00519943 9.60051 -0.232441 12.0133 0.230582 14.3411C0.693605 16.6689 1.83649 18.8071 3.51472 20.4853C5.19295 22.1635 7.33115 23.3064 9.65892 23.7694C11.9867 24.2324 14.3995 23.9948 16.5922 23.0866C18.7849 22.1783 20.6591 20.6402 21.9776 18.6668C23.2962 16.6935 24 14.3734 24 12C23.9966 8.81846 22.7312 5.76821 20.4815 3.51852C18.2318 1.26883 15.1815 0.00344108 12 0V0ZM12 22C10.0222 22 8.08879 21.4135 6.4443 20.3147C4.79981 19.2159 3.51809 17.6541 2.76121 15.8268C2.00433 13.9996 1.8063 11.9889 2.19215 10.0491C2.578 8.10929 3.53041 6.32746 4.92894 4.92893C6.32746 3.53041 8.10929 2.578 10.0491 2.19215C11.9889 1.8063 13.9996 2.00433 15.8268 2.7612C17.6541 3.51808 19.2159 4.79981 20.3147 6.4443C21.4135 8.08879 22 10.0222 22 12C21.9971 14.6513 20.9426 17.1931 19.0679 19.0679C17.1931 20.9426 14.6513 21.9971 12 22Z" fill="currentColor"/>
</g>
<defs>
<clipPath id="clip0_403_2912">
<rect width="24" height="24" fill="white"/>
</clipPath>
</defs>
</svg>
