<svg width="24" height="24" viewBox="0 0 24 24" fill="none" xmlns="http://www.w3.org/2000/svg">
<g clip-path="url(#clip0_406_1939)">
<path d="M24 21C24 21.2652 23.8946 21.5196 23.7071 21.7071C23.5196 21.8946 23.2652 22 23 22H14.816C14.6124 22.5845 14.2318 23.0912 13.7273 23.4498C13.2227 23.8083 12.619 24.0009 12 24.0009C11.381 24.0009 10.7773 23.8083 10.2727 23.4498C9.76816 23.0912 9.38765 22.5845 9.184 22H1C0.734784 22 0.48043 21.8946 0.292893 21.7071C0.105357 21.5196 0 21.2652 0 21C0 20.7348 0.105357 20.4804 0.292893 20.2929C0.48043 20.1054 0.734784 20 1 20H9.184C9.3334 19.5818 9.5738 19.2019 9.88785 18.8878C10.2019 18.5738 10.5818 18.3334 11 18.184V14H5C4.20435 14 3.44129 13.6839 2.87868 13.1213C2.31607 12.5587 2 11.7956 2 11C2 10.7348 2.10536 10.4804 2.29289 10.2929C2.48043 10.1054 2.73478 10 3 10H8.586L9 10.414C9.18521 10.6004 9.40556 10.7481 9.64828 10.8487C9.891 10.9493 10.1513 11.0007 10.414 11H13.586C13.8487 11.0007 14.109 10.9493 14.3517 10.8487C14.5944 10.7481 14.8148 10.6004 15 10.414L15.414 10H21C21.2652 10 21.5196 10.1054 21.7071 10.2929C21.8946 10.4804 22 10.7348 22 11C22 11.7956 21.6839 12.5587 21.1213 13.1213C20.5587 13.6839 19.7956 14 19 14H13V18.184C13.4182 18.3334 13.7981 18.5738 14.1122 18.8878C14.4262 19.2019 14.6666 19.5818 14.816 20H23C23.2652 20 23.5196 20.1054 23.7071 20.2929C23.8946 20.4804 24 20.7348 24 21ZM10 8.586L10.414 9H13.586L14 8.586C14.1852 8.39965 14.4056 8.2519 14.6483 8.15131C14.891 8.05072 15.1513 7.99929 15.414 8H21V4C21 2.93913 20.5786 1.92172 19.8284 1.17157C19.0783 0.421427 18.0609 0 17 0L7 0C5.93913 0 4.92172 0.421427 4.17157 1.17157C3.42143 1.92172 3 2.93913 3 4V8H8.586C8.84874 7.99929 9.109 8.05072 9.35172 8.15131C9.59444 8.2519 9.81479 8.39965 10 8.586Z" fill="currentColor"/>
</g>
<defs>
<clipPath id="clip0_406_1939">
<rect width="24" height="24" fill="white"/>
</clipPath>
</defs>
</svg>
