<svg width="24" height="24" viewBox="0 0 24 24" fill="none" xmlns="http://www.w3.org/2000/svg">
<g clip-path="url(#clip0_406_2217)">
<path d="M24 11V23C24 23.2652 23.8946 23.5196 23.7071 23.7071C23.5196 23.8946 23.2652 24 23 24C22.7348 24 22.4804 23.8946 22.2929 23.7071C22.1054 23.5196 22 23.2652 22 23V18H2V23C2 23.2652 1.89464 23.5196 1.70711 23.7071C1.51957 23.8946 1.26522 24 1 24C0.734784 24 0.48043 23.8946 0.292893 23.7071C0.105357 23.5196 0 23.2652 0 23V12.5C0 11.0413 0.579463 9.64237 1.61091 8.61092C2.64236 7.57946 4.04131 7 5.5 7C6.95869 7 8.35764 7.57946 9.38909 8.61092C10.4205 9.64237 11 11.0413 11 12.5V16H14V11C14 10.2044 14.3161 9.44129 14.8787 8.87868C15.4413 8.31607 16.2044 8 17 8H18V10C18 10.2652 18.1054 10.5196 18.2929 10.7071C18.4804 10.8946 18.7348 11 19 11C19.2652 11 19.5196 10.8946 19.7071 10.7071C19.8946 10.5196 20 10.2652 20 10V8H21C21.7956 8 22.5587 8.31607 23.1213 8.87868C23.6839 9.44129 24 10.2044 24 11ZM9 3.5C9 2.80777 8.79473 2.13108 8.41014 1.55551C8.02556 0.979934 7.47893 0.53133 6.83939 0.266423C6.19985 0.00151652 5.49612 -0.0677952 4.81718 0.0672531C4.13825 0.202301 3.51461 0.535644 3.02513 1.02513C2.53564 1.51461 2.2023 2.13825 2.06725 2.81719C1.9322 3.49612 2.00151 4.19985 2.26642 4.83939C2.53133 5.47894 2.97993 6.02556 3.5555 6.41015C4.13108 6.79473 4.80777 7 5.5 7C6.42826 7 7.3185 6.63125 7.97487 5.97488C8.63125 5.3185 9 4.42826 9 3.5Z" fill="currentColor"/>
</g>
<defs>
<clipPath id="clip0_406_2217">
<rect width="24" height="24" fill="white"/>
</clipPath>
</defs>
</svg>
