<svg width="24" height="24" viewBox="0 0 24 24" fill="none" xmlns="http://www.w3.org/2000/svg">
<g clip-path="url(#clip0_406_1938)">
<path d="M8.16375 7.99958C7.58433 7.99134 7.02593 7.78128 6.58475 7.40558C5.66353 6.56086 5.10546 5.39204 5.02775 4.14458C4.78475 1.65058 6.14475 0.180577 7.61375 0.016577C7.96771 -0.0228967 8.32599 0.00935756 8.66721 0.111414C9.00843 0.213471 9.32559 0.383237 9.59975 0.610577C10.009 0.97934 10.3413 1.42542 10.5774 1.92313C10.8136 2.42083 10.949 2.96034 10.9757 3.51058C11.1997 5.83358 9.96175 7.99958 8.16375 7.99958ZM2.85276 13.9996C2.32064 13.9874 1.8126 13.7753 1.42976 13.4056C0.583251 12.5242 0.0857315 11.3653 0.029759 10.1446C-0.190241 7.65058 1.03576 6.18058 2.36076 6.01658C2.68374 5.97968 3.01089 6.01371 3.31936 6.11631C3.62784 6.2189 3.91021 6.38758 4.14675 6.61058C4.90753 7.3887 5.35014 8.42299 5.38775 9.51058C5.58875 11.8336 4.35875 13.9996 2.85276 13.9996ZM15.8357 7.99958C14.0257 7.99958 12.8017 5.83358 13.0287 3.50758C13.0555 2.95734 13.1909 2.41783 13.4271 1.92013C13.6632 1.42242 13.9955 0.97634 14.4047 0.607577C14.6786 0.381551 14.9951 0.212783 15.3353 0.111267C15.6756 0.00975084 16.0328 -0.0224481 16.3857 0.016577C17.8547 0.180577 19.2147 1.65058 18.9717 4.14458C18.894 5.39231 18.3359 6.56143 17.4147 7.40658C16.9732 7.78162 16.415 7.99129 15.8357 7.99958ZM21.0527 13.9996C19.1667 13.9996 18.2257 11.8336 18.4377 9.50758C18.4798 8.41304 18.938 7.3758 19.7187 6.60758C19.9665 6.38292 20.2593 6.21372 20.5776 6.11129C20.896 6.00885 21.2325 5.97554 21.5647 6.01358C22.9327 6.17758 24.1997 7.64758 23.9737 10.1416C23.9102 11.371 23.3932 12.5332 22.5227 13.4036C22.1223 13.7757 21.5992 13.9878 21.0527 13.9996ZM15.9997 23.9996C15.1451 24.0164 14.3011 23.8077 13.5527 23.3946C13.0739 23.1423 12.5409 23.0105 11.9997 23.0105C11.4586 23.0105 10.9255 23.1423 10.4467 23.3946C7.43375 25.0816 3.92175 23.2266 3.99975 18.9996C3.99975 14.3636 8.50675 9.99958 11.9997 9.99958C15.4927 9.99958 19.9997 14.3636 19.9997 18.9996C19.9997 21.9436 18.3547 23.9996 15.9997 23.9996Z" fill="currentColor"/>
</g>
<defs>
<clipPath id="clip0_406_1938">
<rect width="24" height="24" fill="white"/>
</clipPath>
</defs>
</svg>
