<svg width="24" height="24" viewBox="0 0 24 24" fill="none" xmlns="http://www.w3.org/2000/svg">
<g clip-path="url(#clip0_406_1935)">
<path d="M23.7068 1.71071L1.70685 23.7107C1.61374 23.8036 1.50326 23.8771 1.38171 23.9273C1.26016 23.9774 1.12992 24.0032 0.998431 24.003C0.732879 24.0026 0.478353 23.8967 0.290845 23.7087C0.103337 23.5207 -0.0017933 23.2658 -0.00141822 23.0003C-0.00104315 22.7347 0.104806 22.4802 0.292845 22.2927L5.33584 17.2517C1.14684 12.5937 -2.23616 6.31671 1.78385 1.86771L2.93385 0.867708C3.51596 0.305083 4.29613 -0.00581907 5.10566 0.00222759C5.91519 0.0102742 6.68903 0.336623 7.25985 0.910708C7.29085 0.940708 9.14384 3.34771 9.14384 3.34771C9.69338 3.92529 9.99927 4.69238 9.99797 5.48961C9.99666 6.28685 9.68827 7.05293 9.13684 7.62871L7.53685 9.52871C8.07635 10.7593 8.78777 11.9071 9.64984 12.9377L22.2928 0.299708C22.4829 0.127143 22.732 0.0342683 22.9886 0.0403126C23.2453 0.0463569 23.4897 0.150858 23.6714 0.332178C23.8532 0.513499 23.9582 0.757752 23.9648 1.01437C23.9714 1.27098 23.879 1.5203 23.7068 1.71071ZM20.6558 14.8577C20.0784 14.308 19.3114 14.002 18.5141 14.0031C17.7169 14.0042 16.9508 14.3124 16.3748 14.8637L14.4688 16.4697C14.0688 16.2997 13.6838 16.1107 13.3118 15.9077C13.1248 15.8082 12.9107 15.7718 12.7013 15.8039C12.4919 15.8359 12.2985 15.9348 12.1498 16.0857L9.08884 19.1467C8.98682 19.2475 8.90768 19.3692 8.8568 19.5033C8.80593 19.6374 8.78451 19.7809 8.79399 19.9241C8.80348 20.0672 8.84365 20.2066 8.91178 20.3329C8.97991 20.4591 9.0744 20.5692 9.18884 20.6557C13.5968 23.6317 18.2998 25.6977 22.1788 22.1657L23.0888 21.1177C23.6681 20.5366 23.9933 19.7497 23.9933 18.9292C23.9933 18.1088 23.6681 17.3218 23.0888 16.7407C23.0618 16.7087 20.6558 14.8577 20.6558 14.8577Z" fill="currentColor"/>
</g>
<defs>
<clipPath id="clip0_406_1935">
<rect width="24" height="24" fill="white"/>
</clipPath>
</defs>
</svg>
