<svg width="24" height="24" viewBox="0 0 24 24" fill="none" xmlns="http://www.w3.org/2000/svg">
<g clip-path="url(#clip0_406_2190)">
<path d="M23.0001 10.9996C22.7348 10.9996 22.4805 10.8942 22.2929 10.7067C22.1054 10.5191 22.0001 10.2648 22.0001 9.99956C21.9979 7.87848 21.1544 5.84488 19.6546 4.34505C18.1547 2.84522 16.1211 2.00168 14.0001 1.99956C13.7348 1.99956 13.4805 1.89421 13.2929 1.70667C13.1054 1.51913 13.0001 1.26478 13.0001 0.999563C13.0001 0.734346 13.1054 0.479992 13.2929 0.292456C13.4805 0.104919 13.7348 -0.0004376 14.0001 -0.0004376C16.6513 0.002474 19.1932 1.05698 21.0679 2.93171C22.9426 4.80644 23.9971 7.34829 24.0001 9.99956C24.0001 10.2648 23.8947 10.5191 23.7072 10.7067C23.5196 10.8942 23.2653 10.9996 23.0001 10.9996ZM20.0001 9.99956C20.0001 8.40826 19.3679 6.88214 18.2427 5.75692C17.1175 4.6317 15.5914 3.99956 14.0001 3.99956C13.7348 3.99956 13.4805 4.10492 13.2929 4.29246C13.1054 4.47999 13.0001 4.73435 13.0001 4.99956C13.0001 5.26478 13.1054 5.51913 13.2929 5.70667C13.4805 5.89421 13.7348 5.99956 14.0001 5.99956C15.0609 5.99956 16.0783 6.42099 16.8285 7.17114C17.5786 7.92128 18.0001 8.9387 18.0001 9.99956C18.0001 10.2648 18.1054 10.5191 18.2929 10.7067C18.4805 10.8942 18.7348 10.9996 19.0001 10.9996C19.2653 10.9996 19.5196 10.8942 19.7072 10.7067C19.8947 10.5191 20.0001 10.2648 20.0001 9.99956ZM22.1831 22.1636L23.0931 21.1146C23.6723 20.5335 23.9975 19.7465 23.9975 18.9261C23.9975 18.1056 23.6723 17.3186 23.0931 16.7376C23.0621 16.7066 20.6561 14.8556 20.6561 14.8556C20.0786 14.3059 19.3116 13.9998 18.5143 14.0009C17.7171 14.0021 16.951 14.3103 16.3751 14.8616L14.4691 16.4676C12.9132 15.8237 11.4999 14.8787 10.3103 13.6871C9.12074 12.4954 8.17827 11.0805 7.53705 9.52356L9.13705 7.62356C9.68877 7.04774 9.99735 6.28144 9.99865 5.48397C9.99996 4.68649 9.69388 3.91919 9.14405 3.34156C9.14405 3.34156 7.29105 0.938563 7.26005 0.907562C6.6895 0.333311 5.91593 0.00658442 5.10648 -0.00202282C4.29702 -0.01063 3.51668 0.299573 2.93405 0.861562L1.78405 1.86156C-5.00995 9.74356 9.62005 24.2606 17.7621 23.9996C18.5842 24.0043 19.399 23.8443 20.1584 23.529C20.9177 23.2136 21.6061 22.7494 22.1831 22.1636Z" fill="currentColor"/>
</g>
<defs>
<clipPath id="clip0_406_2190">
<rect width="24" height="24" fill="white"/>
</clipPath>
</defs>
</svg>
