<svg width="24" height="24" viewBox="0 0 24 24" fill="none" xmlns="http://www.w3.org/2000/svg">
<g clip-path="url(#clip0_403_3121)">
<path d="M19.9811 7.0227V1.0227C19.9811 0.757479 20.0864 0.503125 20.274 0.315589C20.4615 0.128052 20.7158 0.0226955 20.9811 0.0226955C21.2463 0.0226955 21.5006 0.128052 21.6882 0.315589C21.8757 0.503125 21.9811 0.757479 21.9811 1.0227V7.0227C21.9811 7.28791 21.8757 7.54227 21.6882 7.7298C21.5006 7.91734 21.2463 8.0227 20.9811 8.0227C20.7158 8.0227 20.4615 7.91734 20.274 7.7298C20.0864 7.54227 19.9811 7.28791 19.9811 7.0227ZM16.9811 8.0227C17.2463 8.0227 17.5006 7.91734 17.6882 7.7298C17.8757 7.54227 17.9811 7.28791 17.9811 7.0227V1.0227C17.9811 0.757479 17.8757 0.503125 17.6882 0.315589C17.5006 0.128052 17.2463 0.0226955 16.9811 0.0226955C16.7158 0.0226955 16.4615 0.128052 16.274 0.315589C16.0864 0.503125 15.9811 0.757479 15.9811 1.0227V7.0227C15.9811 7.28791 16.0864 7.54227 16.274 7.7298C16.4615 7.91734 16.7158 8.0227 16.9811 8.0227ZM23.0761 21.1387L22.1641 22.1887C13.9741 30.0287 -5.95594 10.1047 1.76406 1.8887L2.91406 0.888696C3.49589 0.32496 4.27639 0.0131551 5.08648 0.0208293C5.89658 0.0285035 6.67103 0.355039 7.24206 0.929696C7.27307 0.959696 9.12406 3.3667 9.12406 3.3667C9.67387 3.94402 9.98012 4.71096 9.97919 5.5082C9.97826 6.30543 9.67022 7.07166 9.11907 7.6477L7.95906 9.0997C8.5999 10.6572 9.54221 12.0727 10.7318 13.2649C11.9215 14.4571 13.3349 15.4025 14.8911 16.0467L16.3551 14.8817C16.9309 14.33 17.6972 14.0214 18.4947 14.0201C19.2921 14.0188 20.0594 14.3249 20.6371 14.8747C20.6371 14.8747 23.0441 16.7277 23.0751 16.7587C23.6553 17.3398 23.9813 18.1273 23.9815 18.9485C23.9817 19.7697 23.6561 20.5574 23.0761 21.1387ZM21.7001 18.2157C21.7001 18.2157 19.3001 16.3737 19.2751 16.3437C19.0665 16.1444 18.7891 16.0331 18.5006 16.0331C18.2121 16.0331 17.9346 16.1444 17.7261 16.3437C17.7001 16.3707 15.6821 17.9787 15.6821 17.9787C15.546 18.0867 15.3842 18.1575 15.2126 18.1839C15.0409 18.2104 14.8653 18.1917 14.7031 18.1297C12.6865 17.3796 10.8548 16.2044 9.33247 14.684C7.81012 13.1635 6.63268 11.3334 5.88006 9.3177C5.81435 9.15373 5.79324 8.97528 5.81889 8.80051C5.84453 8.62574 5.91602 8.46087 6.02606 8.3227C6.02606 8.3227 7.63306 6.3057 7.66106 6.2787C7.86564 6.07264 7.98044 5.79406 7.98044 5.5037C7.98044 5.21334 7.86564 4.93475 7.66106 4.7287C7.62906 4.6997 5.78806 2.3057 5.78806 2.3057C5.57909 2.11807 5.30627 2.01748 5.02551 2.02455C4.74476 2.03161 4.47734 2.1458 4.27806 2.3437L3.12706 3.3487C-2.51293 10.1277 14.7581 26.4417 20.7001 20.8257L21.6121 19.7757C21.8266 19.5781 21.9558 19.3047 21.9722 19.0135C21.9887 18.7223 21.891 18.4362 21.7001 18.2157Z" fill="currentColor"/>
</g>
<defs>
<clipPath id="clip0_403_3121">
<rect width="24" height="24" fill="white"/>
</clipPath>
</defs>
</svg>
