<svg width="24" height="24" viewBox="0 0 24 24" fill="none" xmlns="http://www.w3.org/2000/svg">
<g clip-path="url(#clip0_403_3226)">
<path d="M22.5629 1.43735C20.1889 -0.936649 16.6439 -0.357649 11.9999 3.13735C7.35693 -0.357649 3.81293 -0.937649 1.43693 1.43735C-0.939074 3.81235 -0.358073 7.35634 3.13693 12.0003C-0.358073 16.6433 -0.938074 20.1883 1.43693 22.5633C1.88222 23.0251 2.41732 23.3907 3.00927 23.6379C3.60123 23.885 4.23751 24.0084 4.87893 24.0003C6.84993 24.0003 9.22993 22.9483 11.9999 20.8643C14.7689 22.9483 17.1489 24.0003 19.1209 24.0003C19.7623 24.0084 20.3986 23.885 20.9906 23.6379C21.5825 23.3907 22.1176 23.0251 22.5629 22.5633C24.9379 20.1883 24.3629 16.6443 20.8629 12.0003C24.3579 7.35634 24.9379 3.81235 22.5629 1.43735ZM19.0849 2.02835C19.4671 2.01684 19.8476 2.08355 20.203 2.22439C20.5584 2.36523 20.8814 2.57722 21.1519 2.84735C22.8979 4.59434 21.6079 7.56034 19.5639 10.3863C18.7259 9.39834 17.7819 8.37134 16.7059 7.29434C15.6299 6.21734 14.5999 5.27334 13.6119 4.43434C15.5099 3.06135 17.4719 2.02835 19.0849 2.02835ZM18.3109 12.0003C17.2999 13.2203 16.2289 14.3613 15.2949 15.3003C14.3609 16.2393 13.2199 17.3003 11.9999 18.3113C10.7799 17.3003 9.63893 16.2293 8.70493 15.3003C7.77093 14.3713 6.69993 13.2203 5.68893 12.0003C6.69993 10.7803 7.77093 9.63834 8.70493 8.70534C9.63893 7.77234 10.7799 6.70034 11.9999 5.68834C13.2199 6.69834 14.3609 7.77134 15.2999 8.70534C16.2389 9.63934 17.2999 10.7803 18.3109 12.0003ZM2.84793 2.84835C3.11819 2.57775 3.44103 2.36538 3.79653 2.22435C4.15203 2.08332 4.53265 2.01662 4.91493 2.02835C6.52793 2.02835 8.48993 3.06135 10.3879 4.43434C9.39993 5.27334 8.37193 6.21734 7.29393 7.29434C6.21593 8.37134 5.27393 9.39434 4.43493 10.3863C2.39193 7.56034 1.09993 4.59434 2.84793 2.84835ZM2.84793 21.1483C1.10193 19.4023 2.39193 16.4353 4.43493 13.6103C5.27393 14.5983 6.21793 15.6253 7.29393 16.7023C8.36993 17.7793 9.39393 18.7253 10.3829 19.5633C7.55793 21.6093 4.59193 22.9003 2.84793 21.1523V21.1483ZM21.1479 21.1483C19.4029 22.8923 16.4379 21.6053 13.6129 19.5633C14.5989 18.7253 15.6269 17.7763 16.7019 16.7023C17.7769 15.6283 18.7219 14.6023 19.5599 13.6103C21.6079 16.4403 22.8999 19.4063 21.1519 21.1523L21.1479 21.1483Z" fill="currentColor"/>
<path d="M11.9998 14.0003C13.1044 14.0003 13.9998 13.1049 13.9998 12.0003C13.9998 10.8957 13.1044 10.0003 11.9998 10.0003C10.8952 10.0003 9.99982 10.8957 9.99982 12.0003C9.99982 13.1049 10.8952 14.0003 11.9998 14.0003Z" fill="currentColor"/>
</g>
<defs>
<clipPath id="clip0_403_3226">
<rect width="24" height="24" fill="white"/>
</clipPath>
</defs>
</svg>
