<svg width="24" height="24" viewBox="0 0 24 24" fill="none" xmlns="http://www.w3.org/2000/svg">
<g clip-path="url(#clip0_406_2105)">
<path d="M10.9999 4.50009C10.9997 3.28248 10.6547 2.08983 10.0049 1.06009C11.8188 0.118505 13.8837 -0.226117 15.905 0.075394C17.9264 0.376905 19.8008 1.30914 21.2609 2.73909C22.1765 3.65719 22.8924 4.75459 23.3637 5.96245C23.835 7.17031 24.0516 8.46255 23.9999 9.75809C23.9081 12.4423 22.7912 14.9892 20.8789 16.8751C20.1054 17.6543 19.2217 18.3157 18.2559 18.8381L8.78694 9.37309C9.48154 8.76526 10.0383 8.01608 10.4199 7.17569C10.8016 6.3353 10.9993 5.42308 10.9999 4.50009ZM8.99994 4.50009C8.99994 3.61007 8.73602 2.74004 8.24156 2.00002C7.74709 1.26 7.04428 0.683222 6.22202 0.342628C5.39975 0.00203333 4.49495 -0.0870817 3.62203 0.0865518C2.74912 0.260185 1.9473 0.688769 1.31796 1.31811C0.688624 1.94744 0.260041 2.74926 0.0864072 3.62218C-0.0872263 4.49509 0.00188875 5.39989 0.342483 6.22216C0.683078 7.04443 1.25985 7.74723 1.99988 8.2417C2.7399 8.73617 3.60993 9.00009 4.49994 9.00009C5.69301 8.99876 6.83683 8.52423 7.68046 7.6806C8.52409 6.83698 8.99862 5.69315 8.99994 4.50009ZM7.05894 10.4731C6.25071 10.8211 5.37992 11.0005 4.49994 11.0001C4.34194 11.0001 4.18594 10.9871 4.03094 10.9761C4.07963 11.8437 4.24788 12.7005 4.53094 13.5221C4.67443 14.0287 4.85835 14.5229 5.08094 15.0001C5.13234 15.0921 5.15224 15.1984 5.13762 15.3027C5.12299 15.4071 5.07464 15.5038 4.99994 15.5781L1.18594 18.2421V18.2561C0.832167 18.546 0.543839 18.9076 0.339948 19.3171C0.136058 19.7266 0.0212325 20.1746 0.0030359 20.6316C-0.0151607 21.0887 0.0636844 21.5444 0.234378 21.9688C0.405071 22.3931 0.663738 22.7765 0.993342 23.0937C1.32294 23.4108 1.716 23.6546 2.14663 23.8088C2.57725 23.963 3.03567 24.0243 3.49168 23.9885C3.94769 23.9528 4.39095 23.8208 4.79226 23.6013C5.19357 23.3818 5.54382 23.0798 5.81994 22.7151L5.82994 22.7211L8.39994 19.0001C8.47267 18.9166 8.57104 18.8597 8.67962 18.8381C8.78821 18.8166 8.90087 18.8317 8.99994 18.8811C10.3974 19.5983 11.9432 19.9791 13.5139 19.9931C14.4341 20.0148 15.3524 19.9002 16.2389 19.6531L7.05894 10.4731Z" fill="currentColor"/>
</g>
<defs>
<clipPath id="clip0_406_2105">
<rect width="24" height="24" fill="white"/>
</clipPath>
</defs>
</svg>
