<svg width="24" height="24" viewBox="0 0 24 24" fill="none" xmlns="http://www.w3.org/2000/svg">
<g clip-path="url(#clip0_403_2887)">
<path d="M21.2611 2.73891C19.5446 1.07944 17.2831 0.100969 14.8983 -0.0140279C12.5135 -0.129025 10.1684 0.627306 8.30012 2.11391C7.89474 1.46341 7.32956 0.927545 6.65842 0.557357C5.98727 0.187168 5.23252 -0.00500903 4.46606 -0.000866318C3.6996 0.00327639 2.94697 0.203601 2.27987 0.581023C1.61276 0.958445 1.05341 1.50039 0.655091 2.15523C0.256774 2.81008 0.0327628 3.556 0.00439842 4.32195C-0.023966 5.08789 0.144261 5.84834 0.493054 6.53085C0.841846 7.21336 1.35959 7.79519 1.99695 8.22092C2.63431 8.64665 3.37006 8.90209 4.13411 8.96291C3.81905 10.8938 4.11335 12.875 4.97611 14.6309C5.02308 14.7209 5.04154 14.8231 5.02904 14.9238C5.01654 15.0246 4.97366 15.1191 4.90612 15.1949L2.00011 16.9449C1.26063 17.3342 0.672716 17.9599 0.330024 18.7221C-0.0126684 19.4843 -0.0904201 20.3393 0.109155 21.1508C0.308731 21.9623 0.774152 22.6837 1.43127 23.2001C2.08839 23.7164 2.89941 23.998 3.73512 23.9999C3.88785 23.9999 4.04044 23.9909 4.19211 23.9729C4.74785 23.9082 5.28172 23.7185 5.75367 23.418C6.22562 23.1176 6.62338 22.7141 6.91712 22.2379L8.98512 19.1109C9.05969 19.0379 9.15522 18.9901 9.25834 18.9742C9.36145 18.9582 9.46697 18.9749 9.56012 19.0219C11.4268 19.9257 13.5348 20.2049 15.5724 19.8183C17.6101 19.4317 19.4692 18.3997 20.8751 16.8749C22.7888 14.9897 23.9072 12.4427 24.0001 9.75791C24.0518 8.46238 23.8352 7.17014 23.3639 5.96228C22.8925 4.75442 22.1766 3.65701 21.2611 2.73891ZM2.00011 4.49991C2.00011 4.00546 2.14674 3.52211 2.42144 3.11099C2.69614 2.69986 3.08659 2.37943 3.54341 2.19021C4.00022 2.001 4.50289 1.95149 4.98784 2.04795C5.47279 2.14441 5.91825 2.38251 6.26788 2.73215C6.61751 3.08178 6.85562 3.52724 6.95208 4.01219C7.04854 4.49714 6.99903 4.99981 6.80981 5.45662C6.62059 5.91344 6.30016 6.30388 5.88904 6.57859C5.47792 6.85329 4.99457 6.99991 4.50011 6.99991C3.83707 6.99991 3.20119 6.73652 2.73235 6.26768C2.26351 5.79884 2.00011 5.16295 2.00011 4.49991ZM10.4401 17.2259C9.93915 16.9779 9.3694 16.9054 8.82229 17.02C8.27517 17.1346 7.78243 17.4297 7.42312 17.8579C7.39912 17.8869 7.37712 17.9169 7.35612 17.9479L5.22912 21.1659C5.01946 21.5087 4.69776 21.7685 4.31851 21.9012C3.93926 22.0339 3.52579 22.0315 3.14814 21.8943C2.77049 21.757 2.45188 21.4935 2.24631 21.1482C2.04073 20.803 1.96082 20.3973 2.02011 19.9999C2.06296 19.7201 2.17269 19.4547 2.33999 19.2263C2.50729 18.9979 2.72722 18.8132 2.98111 18.6879L6.02212 16.8569C6.06648 16.8304 6.10862 16.8003 6.14812 16.7669C6.57519 16.4069 6.86881 15.9138 6.98181 15.3668C7.0948 14.8198 7.02059 14.2507 6.77112 13.7509C6.11808 12.4329 5.87662 10.949 6.07812 9.49191L14.5111 17.9249C13.1151 18.0881 11.7017 17.8454 10.4401 17.2259ZM19.4611 15.4609C18.6754 16.2484 17.7487 16.881 16.7291 17.3259C16.7201 17.3159 16.7171 17.3029 16.7071 17.2929L7.36012 7.94491C7.87058 7.52714 8.28233 7.00163 8.56586 6.40605C8.84939 5.81046 8.99768 5.15954 9.00012 4.49991C9.00012 4.38091 8.97412 4.26891 8.96512 4.15291C10.4456 2.78255 12.3887 2.02132 14.4061 2.02132C16.4235 2.02132 18.3666 2.78255 19.8471 4.15291C20.5692 4.879 21.1332 5.74663 21.5037 6.70125C21.8743 7.65587 22.0433 8.67682 22.0001 9.69991C21.9218 11.8743 21.0131 13.936 19.4611 15.4609Z" fill="currentColor"/>
</g>
<defs>
<clipPath id="clip0_403_2887">
<rect width="24" height="24" fill="white"/>
</clipPath>
</defs>
</svg>
