<svg width="24" height="24" viewBox="0 0 24 24" fill="none" xmlns="http://www.w3.org/2000/svg">
<g clip-path="url(#clip0_403_2885)">
<path d="M23.1999 0.800232C22.8291 0.426245 22.3575 0.168144 21.8426 0.0573547C21.3278 -0.0534347 20.7918 -0.0121326 20.2999 0.176232L3.15496 6.92923C2.03459 7.37231 1.11302 8.20682 0.561305 9.27788C0.00959331 10.3489 -0.134787 11.5838 0.154963 12.7532C0.881995 15.407 2.28715 17.8259 4.23228 19.7721C6.17742 21.7183 8.59555 23.1248 11.2489 23.8532C12.4196 24.1412 13.6549 23.9949 14.726 23.4416C15.7971 22.8884 16.6313 21.9656 17.0739 20.8442L23.8319 3.67223C24.0142 3.18347 24.0515 2.6525 23.9394 2.14305C23.8273 1.63361 23.5705 1.16735 23.1999 0.800232ZM11.7459 21.9112C9.43699 21.2775 7.33264 20.054 5.63968 18.3609C3.94671 16.6677 2.7234 14.5633 2.08996 12.2542C1.94388 11.6584 1.98723 11.0319 2.21397 10.462C2.44071 9.89197 2.83956 9.40688 3.35496 9.07423C3.45833 12.1099 4.7103 14.9932 6.85782 17.1413C9.00535 19.2894 11.8883 20.5421 14.9239 20.6462C14.5916 21.1615 14.1069 21.5602 13.5373 21.787C12.9676 22.0137 12.3414 22.0572 11.7459 21.9112ZM15.7729 18.6842C9.58195 18.5842 5.41796 14.4192 5.31696 8.22723L21.0099 2.04723C21.141 1.997 21.2839 1.98633 21.4209 2.01655C21.558 2.04677 21.6832 2.11655 21.7809 2.21723C21.8807 2.31051 21.951 2.43094 21.9831 2.56367C22.0153 2.6964 22.0079 2.83564 21.9619 2.96423L21.2999 4.64523C15.5419 2.66523 12.3579 10.8542 17.8869 13.3132L15.7729 18.6842ZM18.6199 11.4522C17.9927 11.1757 17.4969 10.6673 17.2361 10.0334C16.9753 9.39947 16.97 8.68926 17.2211 8.05147C17.4722 7.41369 17.9603 6.89778 18.5832 6.6118C19.2062 6.32581 19.9156 6.29192 20.5629 6.51723L18.6199 11.4522Z" fill="currentColor"/>
<path d="M11 9C10.4696 9 9.96086 9.21071 9.58579 9.58579C9.21071 9.96086 9 10.4696 9 11C9 11.5304 9.21071 12.0391 9.58579 12.4142C9.96086 12.7893 10.4696 13 11 13C11.5304 13 12.0391 12.7893 12.4142 12.4142C12.7893 12.0391 13 11.5304 13 11C13 10.4696 12.7893 9.96086 12.4142 9.58579C12.0391 9.21071 11.5304 9 11 9Z" fill="currentColor"/>
</g>
<defs>
<clipPath id="clip0_403_2885">
<rect width="24" height="24" fill="white"/>
</clipPath>
</defs>
</svg>
