<svg width="24" height="24" viewBox="0 0 24 24" fill="none" xmlns="http://www.w3.org/2000/svg">
<g clip-path="url(#clip0_403_2883)">
<path d="M21 9.99994H17.693L13.4459 1.56294C13.1878 1.08983 12.8069 0.695012 12.3434 0.419974C11.8799 0.144936 11.3509 -0.000158283 10.8119 -5.85269e-05H10.6299C10.2218 -0.000622143 9.81917 0.0938053 9.45384 0.275752C9.08851 0.457698 8.77055 0.72217 8.5251 1.04824C8.27965 1.37431 8.11345 1.75303 8.03966 2.15443C7.96587 2.55583 7.98651 2.9689 8.09995 3.36094L10.0279 9.99994H7.64395C7.2497 10.001 6.85916 9.92382 6.49492 9.77294C6.13069 9.62207 5.79998 9.40046 5.52195 9.12094L4.10495 7.69994C3.74277 7.33813 3.27474 7.1011 2.76876 7.02325C2.26278 6.94539 1.74514 7.03075 1.29095 7.26694C1.00991 7.41194 0.76149 7.61288 0.560972 7.85743C0.360454 8.10197 0.212072 8.38494 0.124948 8.68894C0.0285895 9.01511 -0.000884354 9.35738 0.038295 9.69521C0.0774744 10.033 0.184499 10.3595 0.352948 10.6549L1.96695 13.4799C2.40511 14.2445 3.03712 14.8801 3.79925 15.3225C4.56139 15.765 5.4267 15.9986 6.30795 15.9999H10.0189L8.35095 20.4469C8.20163 20.8447 8.15093 21.2727 8.20319 21.6943C8.25545 22.116 8.40911 22.5186 8.65103 22.8679C8.89294 23.2172 9.2159 23.5026 9.59224 23.6997C9.96858 23.8969 10.3871 23.9999 10.8119 23.9999C11.3416 24.0028 11.8624 23.864 12.3204 23.598C12.7784 23.3319 13.1569 22.9484 13.4169 22.4869L17.464 15.9999H21C21.7956 15.9999 22.5587 15.6839 23.1213 15.1213C23.6839 14.5587 24 13.7956 24 12.9999C24 12.2043 23.6839 11.4412 23.1213 10.8786C22.5587 10.316 21.7956 9.99994 21 9.99994ZM10.0249 2.80494C9.99782 2.71112 9.99287 2.61228 10.0105 2.51622C10.0281 2.42016 10.0679 2.32951 10.1265 2.25144C10.1852 2.17337 10.2612 2.11001 10.3486 2.06636C10.436 2.02271 10.5323 1.99997 10.6299 1.99994H10.8119C10.9863 1.99844 11.158 2.04307 11.3095 2.12929C11.4611 2.21552 11.5872 2.34029 11.6749 2.49094L15.4549 9.99994H12.1099L10.0249 2.80494ZM21 13.9999H16.909C16.7393 14 16.5724 14.0433 16.424 14.1257C16.2757 14.2081 16.1507 14.3269 16.061 14.4709L11.6899 21.4789C11.6039 21.6366 11.4769 21.7683 11.3224 21.8599C11.1679 21.9516 10.9916 22 10.8119 21.9999C10.7103 22 10.6101 21.9754 10.5201 21.9283C10.43 21.8811 10.3528 21.8128 10.2949 21.7292C10.2371 21.6456 10.2004 21.5492 10.1881 21.4483C10.1757 21.3474 10.188 21.245 10.2239 21.1499L12.3979 15.3499C12.4545 15.1987 12.4735 15.0359 12.4534 14.8757C12.4334 14.7154 12.3748 14.5624 12.2827 14.4298C12.1906 14.2971 12.0678 14.1887 11.9247 14.1138C11.7816 14.039 11.6225 13.9999 11.4609 13.9999H6.30795C5.77984 13.9991 5.26131 13.8588 4.80478 13.5933C4.34825 13.3278 3.96989 12.9465 3.70795 12.4879L2.08895 9.66194C2.05507 9.60168 2.03347 9.53531 2.0254 9.46665C2.01733 9.39799 2.02296 9.32841 2.04195 9.26194C2.05197 9.21764 2.07122 9.17595 2.09844 9.13959C2.12567 9.10323 2.16026 9.07303 2.19995 9.05094C2.26159 9.01822 2.33017 9.00073 2.39995 8.99994C2.50727 9.00068 2.61014 9.04298 2.68695 9.11794L4.10395 10.5349C4.5678 11.0011 5.11953 11.3706 5.72718 11.6221C6.33483 11.8736 6.98632 12.002 7.64395 11.9999H21C21.2652 11.9999 21.5195 12.1053 21.7071 12.2928C21.8946 12.4804 22 12.7347 22 12.9999C22 13.2652 21.8946 13.5195 21.7071 13.7071C21.5195 13.8946 21.2652 13.9999 21 13.9999Z" fill="currentColor"/>
</g>
<defs>
<clipPath id="clip0_403_2883">
<rect width="24" height="24" fill="white"/>
</clipPath>
</defs>
</svg>
