<svg width="24" height="24" viewBox="0 0 24 24" fill="none" xmlns="http://www.w3.org/2000/svg">
<g clip-path="url(#clip0_403_3183)">
<path d="M23 14H22V5C21.9984 3.67441 21.4711 2.40356 20.5338 1.46622C19.5964 0.528882 18.3256 0.00158786 17 0L7 0C5.67441 0.00158786 4.40356 0.528882 3.46622 1.46622C2.52888 2.40356 2.00159 3.67441 2 5V14H1C0.734784 14 0.48043 14.1054 0.292893 14.2929C0.105357 14.4804 0 14.7348 0 15C0 15.2652 0.105357 15.5196 0.292893 15.7071C0.48043 15.8946 0.734784 16 1 16H11V20H9C8.20435 20 7.44129 20.3161 6.87868 20.8787C6.31607 21.4413 6 22.2044 6 23C6 23.2652 6.10536 23.5196 6.29289 23.7071C6.48043 23.8946 6.73478 24 7 24C7.26522 24 7.51957 23.8946 7.70711 23.7071C7.89464 23.5196 8 23.2652 8 23C8 22.7348 8.10536 22.4804 8.29289 22.2929C8.48043 22.1054 8.73478 22 9 22H15C15.2652 22 15.5196 22.1054 15.7071 22.2929C15.8946 22.4804 16 22.7348 16 23C16 23.2652 16.1054 23.5196 16.2929 23.7071C16.4804 23.8946 16.7348 24 17 24C17.2652 24 17.5196 23.8946 17.7071 23.7071C17.8946 23.5196 18 23.2652 18 23C18 22.2044 17.6839 21.4413 17.1213 20.8787C16.5587 20.3161 15.7956 20 15 20H13V16H23C23.2652 16 23.5196 15.8946 23.7071 15.7071C23.8946 15.5196 24 15.2652 24 15C24 14.7348 23.8946 14.4804 23.7071 14.2929C23.5196 14.1054 23.2652 14 23 14ZM4 5C4 4.20435 4.31607 3.44129 4.87868 2.87868C5.44129 2.31607 6.20435 2 7 2H17C17.7956 2 18.5587 2.31607 19.1213 2.87868C19.6839 3.44129 20 4.20435 20 5V14H4V5Z" fill="currentColor"/>
</g>
<defs>
<clipPath id="clip0_403_3183">
<rect width="24" height="24" fill="white"/>
</clipPath>
</defs>
</svg>
