<svg width="24" height="24" viewBox="0 0 24 24" fill="none" xmlns="http://www.w3.org/2000/svg">
<g clip-path="url(#clip0_406_1920)">
<path d="M21.977 11.264C21.613 5.724 16.474 1.041 10.731 1C10.5556 0.696116 10.3032 0.443739 9.9994 0.268212C9.69557 0.0926844 9.35089 0.00018439 9 0L7 0C5.93913 0 4.92172 0.421427 4.17157 1.17157C3.42143 1.92172 3 2.93913 3 4V5H5C5.26522 5 5.51957 5.10536 5.70711 5.29289C5.89464 5.48043 6 5.73478 6 6C6 6.26522 5.89464 6.51957 5.70711 6.70711C5.51957 6.89464 5.26522 7 5 7H3V9H5C5.26522 9 5.51957 9.10536 5.70711 9.29289C5.89464 9.48043 6 9.73478 6 10C6 10.2652 5.89464 10.5196 5.70711 10.7071C5.51957 10.8946 5.26522 11 5 11H3V13H5C5.26522 13 5.51957 13.1054 5.70711 13.2929C5.89464 13.4804 6 13.7348 6 14C6 14.2652 5.89464 14.5196 5.70711 14.7071C5.51957 14.8946 5.26522 15 5 15H3V17H5C5.26522 17 5.51957 17.1054 5.70711 17.2929C5.89464 17.4804 6 17.7348 6 18C6 18.2652 5.89464 18.5196 5.70711 18.7071C5.51957 18.8946 5.26522 19 5 19H3V20C3 21.0609 3.42143 22.0783 4.17157 22.8284C4.92172 23.5786 5.93913 24 7 24H9C9.35089 23.9998 9.69557 23.9073 9.9994 23.7318C10.3032 23.5563 10.5556 23.3039 10.731 23H11C12.5047 22.9974 13.993 22.6873 15.3736 22.0887C16.7541 21.4901 17.9977 20.6157 19.028 19.519C20.0634 18.4216 20.86 17.1214 21.3676 15.7006C21.8752 14.2797 22.0827 12.7691 21.977 11.264ZM10.947 15.989C10.693 15.9755 10.4536 15.8657 10.2777 15.682C10.1017 15.4983 10.0024 15.2544 10 15V9C10 8.73478 10.1054 8.48043 10.2929 8.29289C10.4804 8.10536 10.7348 8 11 8C11.5585 7.99995 12.1107 8.11684 12.6213 8.34315C13.1318 8.56946 13.5893 8.90016 13.9644 9.31398C14.3394 9.7278 14.6236 10.2156 14.7987 10.7459C14.9738 11.2762 15.0359 11.8372 14.981 12.393C14.8588 13.3796 14.3824 14.2882 13.6403 14.9497C12.8982 15.6112 11.9411 15.9805 10.947 15.989Z" fill="currentColor"/>
</g>
<defs>
<clipPath id="clip0_406_1920">
<rect width="24" height="24" fill="white"/>
</clipPath>
</defs>
</svg>
