<svg width="24" height="24" viewBox="0 0 24 24" fill="none" xmlns="http://www.w3.org/2000/svg">
<g clip-path="url(#clip0_406_1912)">
<path d="M8 0C6.67441 0.00158786 5.40356 0.528882 4.46622 1.46622C3.52888 2.40356 3.00159 3.67441 3 5V23C3.00014 23.1819 3.04989 23.3603 3.14388 23.516C3.23788 23.6717 3.37256 23.7989 3.53344 23.8837C3.69431 23.9686 3.87529 24.008 4.05688 23.9976C4.23847 23.9873 4.4138 23.9276 4.564 23.825L6.67 22.386L8.776 23.825C8.94239 23.9389 9.13934 23.9999 9.341 23.9999C9.54266 23.9999 9.73961 23.9389 9.906 23.825L12.006 22.386L14.106 23.825C14.2725 23.9392 14.4696 24.0003 14.6715 24.0003C14.8734 24.0003 15.0705 23.9392 15.237 23.825L17.337 22.387L19.437 23.824C19.5871 23.9263 19.7623 23.9857 19.9436 23.996C20.125 24.0062 20.3057 23.9669 20.4664 23.8821C20.627 23.7974 20.7616 23.6706 20.8556 23.5151C20.9496 23.3597 20.9996 23.1816 21 23V5C20.9984 3.67441 20.4711 2.40356 19.5338 1.46622C18.5964 0.528882 17.3256 0.00158786 16 0L8 0ZM14 14H8C7.73478 14 7.48043 13.8946 7.29289 13.7071C7.10536 13.5196 7 13.2652 7 13C7 12.7348 7.10536 12.4804 7.29289 12.2929C7.48043 12.1054 7.73478 12 8 12H14C14.2652 12 14.5196 12.1054 14.7071 12.2929C14.8946 12.4804 15 12.7348 15 13C15 13.2652 14.8946 13.5196 14.7071 13.7071C14.5196 13.8946 14.2652 14 14 14ZM17 9C17 9.26522 16.8946 9.51957 16.7071 9.70711C16.5196 9.89464 16.2652 10 16 10H8C7.73478 10 7.48043 9.89464 7.29289 9.70711C7.10536 9.51957 7 9.26522 7 9C7 8.73478 7.10536 8.48043 7.29289 8.29289C7.48043 8.10536 7.73478 8 8 8H16C16.2652 8 16.5196 8.10536 16.7071 8.29289C16.8946 8.48043 17 8.73478 17 9Z" fill="currentColor"/>
</g>
<defs>
<clipPath id="clip0_406_1912">
<rect width="24" height="24" fill="white"/>
</clipPath>
</defs>
</svg>
