<svg width="24" height="24" viewBox="0 0 24 24" fill="none" xmlns="http://www.w3.org/2000/svg">
<g clip-path="url(#clip0_403_2905)">
<path d="M19 5.00061H5C3.67392 5.00061 2.40215 5.52739 1.46447 6.46508C0.526784 7.40276 0 8.67453 0 10.0006L0 14.0006C0 15.3267 0.526784 16.5985 1.46447 17.5361C2.40215 18.4738 3.67392 19.0006 5 19.0006H19C19.6566 19.0006 20.3068 18.8713 20.9134 18.62C21.52 18.3687 22.0712 18.0004 22.5355 17.5361C22.9998 17.0719 23.3681 16.5207 23.6194 15.914C23.8707 15.3074 24 14.6572 24 14.0006V10.0006C24 9.344 23.8707 8.69382 23.6194 8.08719C23.3681 7.48057 22.9998 6.92937 22.5355 6.46508C22.0712 6.00078 21.52 5.63249 20.9134 5.38121C20.3068 5.12994 19.6566 5.00061 19 5.00061ZM22 14.0006C22 14.7963 21.6839 15.5593 21.1213 16.1219C20.5587 16.6845 19.7956 17.0006 19 17.0006H5C4.20435 17.0006 3.44129 16.6845 2.87868 16.1219C2.31607 15.5593 2 14.7963 2 14.0006V10.0006C2 9.20496 2.31607 8.4419 2.87868 7.87929C3.44129 7.31668 4.20435 7.00061 5 7.00061H19C19.7956 7.00061 20.5587 7.31668 21.1213 7.87929C21.6839 8.4419 22 9.20496 22 10.0006V14.0006Z" fill="currentColor"/>
</g>
<defs>
<clipPath id="clip0_403_2905">
<rect width="24" height="24" fill="white"/>
</clipPath>
</defs>
</svg>
