<svg width="24" height="24" viewBox="0 0 24 24" fill="none" xmlns="http://www.w3.org/2000/svg">
<g clip-path="url(#clip0_406_1905)">
<path d="M17.244 3.99933C16.9643 3.71971 16.608 3.5293 16.2201 3.45216C15.8322 3.37503 15.4301 3.41464 15.0647 3.56597C14.6993 3.71731 14.387 3.97359 14.1672 4.30241C13.9474 4.63123 13.8301 5.01783 13.83 5.41333V6.99933H9C6.61386 7.00197 4.32622 7.95103 2.63896 9.63829C0.951708 11.3255 0.00264685 13.6132 0 15.9993L0 22.9993C0 23.2645 0.105357 23.5189 0.292893 23.7064C0.48043 23.8939 0.734784 23.9993 1 23.9993C1.26522 23.9993 1.51957 23.8939 1.70711 23.7064C1.89464 23.5189 2 23.2645 2 22.9993C2.00159 21.4085 2.63424 19.8833 3.75911 18.7584C4.88399 17.6336 6.40919 17.0009 8 16.9993H13.83V18.5853C13.8301 18.9808 13.9474 19.3674 14.1672 19.6962C14.387 20.025 14.6993 20.2813 15.0647 20.4327C15.4301 20.584 15.8322 20.6236 16.2201 20.5465C16.608 20.4693 16.9643 20.2789 17.244 19.9993L23.123 14.1203C23.6854 13.5577 24.0014 12.7948 24.0014 11.9993C24.0014 11.2038 23.6854 10.4409 23.123 9.87832L17.244 3.99933Z" fill="currentColor"/>
</g>
<defs>
<clipPath id="clip0_406_1905">
<rect width="24" height="24" fill="white"/>
</clipPath>
</defs>
</svg>
