<svg width="24" height="24" viewBox="0 0 24 24" fill="none" xmlns="http://www.w3.org/2000/svg">
<g clip-path="url(#clip0_406_1901)">
<path d="M11 18H13V19C12.9984 20.3256 12.4711 21.5964 11.5338 22.5338C10.5964 23.4711 9.32559 23.9984 8 24H5C3.67441 23.9984 2.40356 23.4711 1.46622 22.5338C0.528882 21.5964 0.00158786 20.3256 0 19L0 16C0.00158786 14.6744 0.528882 13.4036 1.46622 12.4662C2.40356 11.5289 3.67441 11.0016 5 11H6V13C6.00159 14.3256 6.52888 15.5964 7.46622 16.5338C8.40356 17.4711 9.67441 17.9984 11 18ZM8 13C8 13.7956 8.31607 14.5587 8.87868 15.1213C9.44129 15.6839 10.2044 16 11 16C11 15.2044 10.6839 14.4413 10.1213 13.8787C9.55871 13.3161 8.79565 13 8 13ZM19 0H11C9.67441 0.00158786 8.40356 0.528882 7.46622 1.46622C6.52888 2.40356 6.00159 3.67441 6 5V11H8C8.97972 11.0002 9.93752 11.29 10.753 11.833L16.586 6H14C13.7348 6 13.4804 5.89464 13.2929 5.70711C13.1054 5.51957 13 5.26522 13 5C13 4.73478 13.1054 4.48043 13.2929 4.29289C13.4804 4.10536 13.7348 4 14 4H17C17.7956 4 18.5587 4.31607 19.1213 4.87868C19.6839 5.44129 20 6.20435 20 7V10C20 10.2652 19.8946 10.5196 19.7071 10.7071C19.5196 10.8946 19.2652 11 19 11C18.7348 11 18.4804 10.8946 18.2929 10.7071C18.1054 10.5196 18 10.2652 18 10V7.414L12.167 13.247C12.71 14.0625 12.9998 15.0203 13 16V18H19C20.3256 17.9984 21.5964 17.4711 22.5338 16.5338C23.4711 15.5964 23.9984 14.3256 24 13V5C23.9984 3.67441 23.4711 2.40356 22.5338 1.46622C21.5964 0.528882 20.3256 0.00158786 19 0V0Z" fill="currentColor"/>
</g>
<defs>
<clipPath id="clip0_406_1901">
<rect width="24" height="24" fill="white"/>
</clipPath>
</defs>
</svg>
