<svg width="24" height="24" viewBox="0 0 24 24" fill="none" xmlns="http://www.w3.org/2000/svg">
<g clip-path="url(#clip0_403_3179)">
<path d="M23 18.9997V16.9997C22.9964 14.257 21.9692 11.6144 20.1196 9.58927C18.27 7.56413 15.7311 6.30225 13 6.05065V4.72265C13.3813 4.50252 13.6793 4.16272 13.8478 3.75597C14.0162 3.34921 14.0458 2.89823 13.9319 2.47296C13.8179 2.0477 13.5668 1.67191 13.2175 1.40389C12.8682 1.13588 12.4403 0.990601 12 0.990601C11.5597 0.990601 11.1318 1.13588 10.7825 1.40389C10.4332 1.67191 10.1821 2.0477 10.0681 2.47296C9.9542 2.89823 9.98376 3.34921 10.1522 3.75597C10.3207 4.16272 10.6187 4.50252 11 4.72265V6.05065C8.26889 6.30225 5.73002 7.56413 3.88041 9.58927C2.0308 11.6144 1.00363 14.257 1 16.9997V18.9997C0.734784 18.9997 0.48043 19.105 0.292893 19.2925C0.105357 19.4801 0 19.7344 0 19.9997C0 20.2649 0.105357 20.5192 0.292893 20.7068C0.48043 20.8943 0.734784 20.9997 1 20.9997H23C23.2652 20.9997 23.5196 20.8943 23.7071 20.7068C23.8946 20.5192 24 20.2649 24 19.9997C24 19.7344 23.8946 19.4801 23.7071 19.2925C23.5196 19.105 23.2652 18.9997 23 18.9997ZM3 16.9997C3.473 5.06565 20.531 5.07465 21 16.9997V18.9997H3V16.9997Z" fill="currentColor"/>
</g>
<defs>
<clipPath id="clip0_403_3179">
<rect width="24" height="24" fill="white"/>
</clipPath>
</defs>
</svg>
