<svg width="24" height="24" viewBox="0 0 24 24" fill="none" xmlns="http://www.w3.org/2000/svg">
<g clip-path="url(#clip0_403_3284)">
<path d="M22.0998 1.90052C18.6638 -1.53048 9.37181 -0.0664764 4.65181 4.65252C-0.0681901 9.37152 -1.53119 18.6645 1.89981 22.1005C3.5064 23.4499 5.57362 24.1238 7.66681 23.9805C12.0009 23.9422 16.1653 22.2908 19.3478 19.3485C24.0658 14.6295 25.5308 5.33652 22.0998 1.90052ZM16.3328 2.00052C17.8968 1.87517 19.4506 2.34441 20.6838 3.31452C21.6998 4.33152 22.1108 6.30052 21.9588 8.54552L15.4588 2.04552C15.7538 2.02652 16.0498 2.00052 16.3328 2.00052ZM3.31581 20.6845C2.29981 19.6695 1.88881 17.7005 2.04081 15.4555L8.54081 21.9555C6.29981 22.1105 4.33081 21.7005 3.31581 20.6845ZM17.9338 17.9345C15.9979 19.7585 13.603 21.0225 11.0048 21.5915L2.40481 12.9915C2.97511 10.3941 4.24053 8.00048 6.06581 6.06652C8.00483 4.24311 10.4041 2.98261 13.0058 2.42052L21.5918 11.0065C21.0229 13.6047 19.7585 15.9994 17.9338 17.9345ZM17.7068 11.7075C17.5193 11.895 17.265 12.0003 16.9998 12.0003C16.7346 12.0003 16.4803 11.895 16.2928 11.7075L14.9998 10.4145L13.4138 12.0005L14.7068 13.2935C14.8023 13.3858 14.8785 13.4961 14.9309 13.6181C14.9833 13.7401 15.0109 13.8713 15.0121 14.0041C15.0132 14.1369 14.9879 14.2686 14.9376 14.3915C14.8874 14.5144 14.8131 14.626 14.7192 14.7199C14.6253 14.8138 14.5137 14.8881 14.3908 14.9383C14.2679 14.9886 14.1362 15.0139 14.0034 15.0128C13.8706 15.0116 13.7394 14.984 13.6174 14.9316C13.4954 14.8792 13.3851 14.803 13.2928 14.7075L11.9998 13.4145L10.4138 15.0005L11.7068 16.2935C11.8023 16.3858 11.8785 16.4961 11.9309 16.6181C11.9833 16.7401 12.0109 16.8713 12.0121 17.0041C12.0132 17.1369 11.9879 17.2686 11.9376 17.3915C11.8874 17.5144 11.8131 17.626 11.7192 17.7199C11.6253 17.8138 11.5137 17.8881 11.3908 17.9383C11.2679 17.9886 11.1362 18.0139 11.0034 18.0128C10.8706 18.0116 10.7394 17.984 10.6174 17.9316C10.4954 17.8792 10.3851 17.803 10.2928 17.7075L6.29281 13.7075C6.11065 13.5189 6.00986 13.2663 6.01214 13.0041C6.01441 12.7419 6.11958 12.4911 6.30499 12.3057C6.4904 12.1203 6.74121 12.0151 7.00341 12.0129C7.2656 12.0106 7.51821 12.1114 7.70681 12.2935L8.99981 13.5865L10.5858 12.0005L9.29281 10.7075C9.11065 10.5189 9.00986 10.2663 9.01214 10.0041C9.01441 9.74193 9.11958 9.49111 9.30499 9.30571C9.4904 9.1203 9.74121 9.01513 10.0034 9.01285C10.2656 9.01057 10.5182 9.11137 10.7068 9.29352L11.9998 10.5865L13.5858 9.00052L12.2928 7.70752C12.1107 7.51892 12.0099 7.26632 12.0121 7.00412C12.0144 6.74193 12.1196 6.49111 12.305 6.30571C12.4904 6.1203 12.7412 6.01513 13.0034 6.01285C13.2656 6.01057 13.5182 6.11137 13.7068 6.29352L17.7068 10.2935C17.8943 10.4811 17.9996 10.7354 17.9996 11.0005C17.9996 11.2657 17.8943 11.52 17.7068 11.7075Z" fill="currentColor"/>
</g>
<defs>
<clipPath id="clip0_403_3284">
<rect width="24" height="24" fill="white"/>
</clipPath>
</defs>
</svg>
