<svg width="24" height="24" viewBox="0 0 24 24" fill="none" xmlns="http://www.w3.org/2000/svg">
<g clip-path="url(#clip0_406_1930)">
<path d="M4.343 10.9997H0C0.00158786 9.67408 0.528882 8.40324 1.46622 7.4659C2.40356 6.52856 3.67441 6.00127 5 5.99968H11V1.63568C11.0002 1.36041 11.0698 1.08963 11.2023 0.848385C11.3349 0.607141 11.5262 0.403221 11.7584 0.255487C11.9907 0.107753 12.2565 0.0209756 12.5312 0.00318044C12.8059 -0.0146148 13.0806 0.0371471 13.33 0.153679L16.53 1.65368C16.6747 1.74336 16.7941 1.86851 16.8769 2.01725C16.9598 2.166 17.0032 2.33343 17.0032 2.50368C17.0032 2.67393 16.9598 2.84135 16.8769 2.9901C16.7941 3.13885 16.6747 3.264 16.53 3.35368L13 4.99968V5.99968H19C20.3256 6.00127 21.5964 6.52856 22.5338 7.4659C23.4711 8.40324 23.9984 9.67408 24 10.9997H19.657C18.8757 10.9999 18.1252 10.6953 17.565 10.1507L14.829 7.17168C14.0643 6.43419 13.0418 6.02458 11.9794 6.03019C10.917 6.03579 9.89888 6.45616 9.142 7.20168L6.464 10.1207C5.90047 10.6818 5.13821 10.9977 4.343 10.9997ZM12 18.9997C11.7348 18.9997 11.4804 19.105 11.2929 19.2926C11.1054 19.4801 11 19.7345 11 19.9997V23.9997H13V19.9997C13 19.7345 12.8946 19.4801 12.7071 19.2926C12.5196 19.105 12.2652 18.9997 12 18.9997ZM19.657 12.9997H24V20.9997C24 21.7953 23.6839 22.5584 23.1213 23.121C22.5587 23.6836 21.7956 23.9997 21 23.9997H15V19.9997C15 19.204 14.6839 18.441 14.1213 17.8784C13.5587 17.3158 12.7956 16.9997 12 16.9997C11.2044 16.9997 10.4413 17.3158 9.87868 17.8784C9.31607 18.441 9 19.204 9 19.9997V23.9997H3C2.20435 23.9997 1.44129 23.6836 0.87868 23.121C0.31607 22.5584 0 21.7953 0 20.9997L0 12.9997H4.343C5.00676 12.9999 5.66391 12.8678 6.27602 12.6111C6.88814 12.3544 7.44294 11.9783 7.908 11.5047L10.586 8.58568C10.9641 8.2309 11.4617 8.03095 11.9802 8.0254C12.4986 8.01984 13.0003 8.20908 13.386 8.55568L16.124 11.5347C16.5869 12.0002 17.1375 12.3693 17.7439 12.6208C18.3503 12.8723 19.0005 13.001 19.657 12.9997ZM6 20.9997C6 20.7345 5.89464 20.4801 5.70711 20.2926C5.51957 20.105 5.26522 19.9997 5 19.9997H4C3.73478 19.9997 3.48043 20.105 3.29289 20.2926C3.10536 20.4801 3 20.7345 3 20.9997C3 21.2649 3.10536 21.5193 3.29289 21.7068C3.48043 21.8943 3.73478 21.9997 4 21.9997H5C5.26522 21.9997 5.51957 21.8943 5.70711 21.7068C5.89464 21.5193 6 21.2649 6 20.9997ZM6 16.9997C6 16.7345 5.89464 16.4801 5.70711 16.2926C5.51957 16.105 5.26522 15.9997 5 15.9997H4C3.73478 15.9997 3.48043 16.105 3.29289 16.2926C3.10536 16.4801 3 16.7345 3 16.9997C3 17.2649 3.10536 17.5193 3.29289 17.7068C3.48043 17.8943 3.73478 17.9997 4 17.9997H5C5.26522 17.9997 5.51957 17.8943 5.70711 17.7068C5.89464 17.5193 6 17.2649 6 16.9997ZM14 12.9997C14 12.6041 13.8827 12.2174 13.6629 11.8885C13.4432 11.5596 13.1308 11.3033 12.7654 11.1519C12.3999 11.0005 11.9978 10.9609 11.6098 11.0381C11.2219 11.1153 10.8655 11.3058 10.5858 11.5855C10.3061 11.8652 10.1156 12.2215 10.0384 12.6095C9.96126 12.9975 10.0009 13.3996 10.1522 13.765C10.3036 14.1305 10.56 14.4429 10.8889 14.6626C11.2178 14.8824 11.6044 14.9997 12 14.9997C12.5304 14.9997 13.0391 14.789 13.4142 14.4139C13.7893 14.0388 14 13.5301 14 12.9997ZM21 20.9997C21 20.7345 20.8946 20.4801 20.7071 20.2926C20.5196 20.105 20.2652 19.9997 20 19.9997H19C18.7348 19.9997 18.4804 20.105 18.2929 20.2926C18.1054 20.4801 18 20.7345 18 20.9997C18 21.2649 18.1054 21.5193 18.2929 21.7068C18.4804 21.8943 18.7348 21.9997 19 21.9997H20C20.2652 21.9997 20.5196 21.8943 20.7071 21.7068C20.8946 21.5193 21 21.2649 21 20.9997ZM20 15.9997H19C18.7348 15.9997 18.4804 16.105 18.2929 16.2926C18.1054 16.4801 18 16.7345 18 16.9997C18 17.2649 18.1054 17.5193 18.2929 17.7068C18.4804 17.8943 18.7348 17.9997 19 17.9997H20C20.2652 17.9997 20.5196 17.8943 20.7071 17.7068C20.8946 17.5193 21 17.2649 21 16.9997C21 16.7345 20.8946 16.4801 20.7071 16.2926C20.5196 16.105 20.2652 15.9997 20 15.9997Z" fill="currentColor"/>
</g>
<defs>
<clipPath id="clip0_406_1930">
<rect width="24" height="24" fill="white"/>
</clipPath>
</defs>
</svg>
