<svg width="24" height="24" viewBox="0 0 24 24" fill="none" xmlns="http://www.w3.org/2000/svg">
<g clip-path="url(#clip0_403_3186)">
<path d="M20 10.9994H19V4.99939C19 3.93852 18.5786 2.92111 17.8284 2.17096C17.0783 1.42082 16.0609 0.99939 15 0.99939H4C2.93913 0.99939 1.92172 1.42082 1.17157 2.17096C0.421427 2.92111 0 3.93852 0 4.99939L0 15.9994C0.0021456 16.6303 0.203551 17.2444 0.575468 17.7541C0.947384 18.2638 1.4708 18.6429 2.071 18.8374C2.02573 19.0552 2.00195 19.2769 2 19.4994C2 20.4276 2.36875 21.3179 3.02513 21.9743C3.6815 22.6306 4.57174 22.9994 5.5 22.9994C6.42826 22.9994 7.3185 22.6306 7.97487 21.9743C8.63125 21.3179 9 20.4276 9 19.4994C8.99843 19.332 8.98473 19.1648 8.959 18.9994H15.041C15.0153 19.1648 15.0016 19.332 15 19.4994C15 20.4276 15.3687 21.3179 16.0251 21.9743C16.6815 22.6306 17.5717 22.9994 18.5 22.9994C19.4283 22.9994 20.3185 22.6306 20.9749 21.9743C21.6313 21.3179 22 20.4276 22 19.4994C21.998 19.2769 21.9743 19.0552 21.929 18.8374C22.5292 18.6429 23.0526 18.2638 23.4245 17.7541C23.7964 17.2444 23.9979 16.6303 24 15.9994V14.9994C24 13.9385 23.5786 12.9211 22.8284 12.171C22.0783 11.4208 21.0609 10.9994 20 10.9994ZM2 10.9994V6.99939H4V10.9994H2ZM6 6.99939H8V10.9994H6V6.99939ZM10 6.99939H13V16.9994H10V6.99939ZM15 6.99939H17V10.9994H15V6.99939ZM4 2.99939H15C15.5304 2.99939 16.0391 3.2101 16.4142 3.58518C16.7893 3.96025 17 4.46896 17 4.99939H2C2 4.46896 2.21071 3.96025 2.58579 3.58518C2.96086 3.2101 3.46957 2.99939 4 2.99939ZM2 12.9994H8V16.9994H3C2.73478 16.9994 2.48043 16.894 2.29289 16.7065C2.10536 16.519 2 16.2646 2 15.9994V12.9994ZM7 19.4994C7 19.8972 6.84196 20.2787 6.56066 20.56C6.27936 20.8414 5.89782 20.9994 5.5 20.9994C5.10218 20.9994 4.72064 20.8414 4.43934 20.56C4.15804 20.2787 4 19.8972 4 19.4994C4.00044 19.3285 4.03195 19.159 4.093 18.9994H6.907C6.96805 19.159 6.99956 19.3285 7 19.4994ZM18.5 20.9994C18.1022 20.9994 17.7206 20.8414 17.4393 20.56C17.158 20.2787 17 19.8972 17 19.4994C17.0004 19.3285 17.0319 19.159 17.093 18.9994H19.907C19.9681 19.159 19.9996 19.3285 20 19.4994C20 19.8972 19.842 20.2787 19.5607 20.56C19.2794 20.8414 18.8978 20.9994 18.5 20.9994ZM22 15.9994C22 16.2646 21.8946 16.519 21.7071 16.7065C21.5196 16.894 21.2652 16.9994 21 16.9994H15V12.9994H20C20.5304 12.9994 21.0391 13.2101 21.4142 13.5852C21.7893 13.9602 22 14.469 22 14.9994V15.9994Z" fill="currentColor"/>
</g>
<defs>
<clipPath id="clip0_403_3186">
<rect width="24" height="24" fill="white"/>
</clipPath>
</defs>
</svg>
