<svg width="24" height="24" viewBox="0 0 24 24" fill="none" xmlns="http://www.w3.org/2000/svg">
<g clip-path="url(#clip0_403_3108)">
<path d="M16.0002 6C16.2654 6 16.5197 6.10536 16.7073 6.29289C16.8948 6.48043 17.0002 6.73478 17.0002 7C17.0002 7.26522 16.8948 7.51957 16.7073 7.70711C16.5197 7.89464 16.2654 8 16.0002 8H8.00015C7.73494 8 7.48058 7.89464 7.29305 7.70711C7.10551 7.51957 7.00015 7.26522 7.00015 7C7.00015 6.73478 7.10551 6.48043 7.29305 6.29289C7.48058 6.10536 7.73494 6 8.00015 6H16.0002ZM23.7072 23.707C23.5196 23.8945 23.2653 23.9998 23.0002 23.9998C22.735 23.9998 22.4807 23.8945 22.2932 23.707L19.8862 21.3C19.1733 21.755 18.3458 21.9977 17.5002 22C16.6101 22 15.7401 21.7361 15.0001 21.2416C14.2601 20.7471 13.6833 20.0443 13.3427 19.2221C13.0021 18.3998 12.913 17.495 13.0866 16.6221C13.2603 15.7492 13.6888 14.9474 14.3182 14.318C14.9475 13.6887 15.7493 13.2601 16.6222 13.0865C17.4952 12.9128 18.4 13.0019 19.2222 13.3425C20.0445 13.6831 20.7473 14.2599 21.2418 14.9999C21.7362 15.74 22.0002 16.61 22.0002 17.5C21.9979 18.3456 21.7551 19.1732 21.3002 19.886L23.7072 22.293C23.8946 22.4805 23.9999 22.7348 23.9999 23C23.9999 23.2652 23.8946 23.5195 23.7072 23.707ZM17.5002 20C17.9946 20 18.478 19.8534 18.8891 19.5787C19.3002 19.304 19.6206 18.9135 19.8099 18.4567C19.9991 17.9999 20.0486 17.4972 19.9521 17.0123C19.8557 16.5273 19.6175 16.0819 19.2679 15.7322C18.9183 15.3826 18.4728 15.1445 17.9879 15.048C17.5029 14.9516 17.0003 15.0011 16.5434 15.1903C16.0866 15.3795 15.6962 15.7 15.4215 16.1111C15.1468 16.5222 15.0002 17.0055 15.0002 17.5C15.0002 18.163 15.2635 18.7989 15.7324 19.2678C16.2012 19.7366 16.8371 20 17.5002 20ZM13.0002 22H7.00015C6.2045 22 5.44144 21.6839 4.87883 21.1213C4.31622 20.5587 4.00015 19.7956 4.00015 19V5C4.00015 4.20435 4.31622 3.44129 4.87883 2.87868C5.44144 2.31607 6.2045 2 7.00015 2H19.0002C19.2654 2 19.5197 2.10536 19.7073 2.29289C19.8948 2.48043 20.0002 2.73478 20.0002 3V11C20.0002 11.2652 20.1055 11.5196 20.293 11.7071C20.4806 11.8946 20.7349 12 21.0002 12C21.2654 12 21.5197 11.8946 21.7073 11.7071C21.8948 11.5196 22.0002 11.2652 22.0002 11V3C22.0002 2.20435 21.6841 1.44129 21.1215 0.87868C20.5589 0.31607 19.7958 0 19.0002 0L7.00015 0C5.67456 0.00158786 4.40371 0.528882 3.46637 1.46622C2.52903 2.40356 2.00174 3.67441 2.00015 5V19C2.00174 20.3256 2.52903 21.5964 3.46637 22.5338C4.40371 23.4711 5.67456 23.9984 7.00015 24H13.0002C13.2654 24 13.5197 23.8946 13.7073 23.7071C13.8948 23.5196 14.0002 23.2652 14.0002 23C14.0002 22.7348 13.8948 22.4804 13.7073 22.2929C13.5197 22.1054 13.2654 22 13.0002 22Z" fill="currentColor"/>
</g>
<defs>
<clipPath id="clip0_403_3108">
<rect width="24" height="24" fill="white"/>
</clipPath>
</defs>
</svg>
