<svg width="24" height="24" viewBox="0 0 24 24" fill="none" xmlns="http://www.w3.org/2000/svg">
<g clip-path="url(#clip0_406_2171)">
<path d="M20.976 12H15.624C15.0132 12 14.4161 12.1809 13.908 12.52L11.949 13.826C11.7847 13.9356 11.5915 13.994 11.394 13.994H1C0.734784 13.994 0.48043 14.0994 0.292893 14.2869C0.105357 14.4744 0 14.7288 0 14.994L0 22.994C0 23.2592 0.105357 23.5136 0.292893 23.7011C0.48043 23.8886 0.734784 23.994 1 23.994H12.537C15.0324 23.9894 17.4639 23.205 19.4916 21.7505C21.5193 20.296 23.0417 18.2442 23.846 15.882C23.9877 15.433 24.0212 14.9568 23.9436 14.4924C23.8661 14.028 23.6797 13.5886 23.3998 13.21C23.1199 12.8314 22.7544 12.5244 22.3331 12.3141C21.9119 12.1038 21.4468 11.9962 20.976 12ZM4 20C3.80222 20 3.60888 19.9414 3.44443 19.8315C3.27998 19.7216 3.15181 19.5654 3.07612 19.3827C3.00043 19.2 2.98063 18.9989 3.01921 18.8049C3.0578 18.6109 3.15304 18.4327 3.29289 18.2929C3.43275 18.153 3.61093 18.0578 3.80491 18.0192C3.99889 17.9806 4.19996 18.0004 4.38268 18.0761C4.56541 18.1518 4.72159 18.28 4.83147 18.4444C4.94135 18.6089 5 18.8022 5 19C5 19.2652 4.89464 19.5196 4.70711 19.7071C4.51957 19.8946 4.26522 20 4 20ZM8 20C7.80222 20 7.60888 19.9414 7.44443 19.8315C7.27998 19.7216 7.15181 19.5654 7.07612 19.3827C7.00043 19.2 6.98063 18.9989 7.01921 18.8049C7.0578 18.6109 7.15304 18.4327 7.29289 18.2929C7.43275 18.153 7.61093 18.0578 7.80491 18.0192C7.99889 17.9806 8.19996 18.0004 8.38268 18.0761C8.56541 18.1518 8.72159 18.28 8.83147 18.4444C8.94135 18.6089 9 18.8022 9 19C9 19.2652 8.89464 19.5196 8.70711 19.7071C8.51957 19.8946 8.26522 20 8 20ZM12 20C11.8022 20 11.6089 19.9414 11.4444 19.8315C11.28 19.7216 11.1518 19.5654 11.0761 19.3827C11.0004 19.2 10.9806 18.9989 11.0192 18.8049C11.0578 18.6109 11.153 18.4327 11.2929 18.2929C11.4327 18.153 11.6109 18.0578 11.8049 18.0192C11.9989 17.9806 12.2 18.0004 12.3827 18.0761C12.5654 18.1518 12.7216 18.28 12.8315 18.4444C12.9414 18.6089 13 18.8022 13 19C13 19.2652 12.8946 19.5196 12.7071 19.7071C12.5196 19.8946 12.2652 20 12 20ZM1 12C0.658553 12.0032 0.320236 12.0655 0 12.184L0 9H10C10.2652 9 10.5196 8.89464 10.7071 8.70711C10.8946 8.51957 11 8.26522 11 8C11 7.73478 10.8946 7.48043 10.7071 7.29289C10.5196 7.10536 10.2652 7 10 7H0V4.861C0 4.59578 0.105357 4.34143 0.292893 4.15389C0.48043 3.96636 0.734784 3.861 1 3.861H3.392L3.071 2.643C2.98882 2.33136 2.97926 2.00501 3.04306 1.68909C3.10687 1.37317 3.24233 1.07611 3.43901 0.82079C3.6357 0.565467 3.88836 0.358692 4.17754 0.216391C4.46672 0.0740898 4.7847 5.90356e-05 5.107 0V0C5.57209 3.44589e-05 6.02411 0.153955 6.39257 0.437764C6.76104 0.721574 7.02524 1.11932 7.144 1.569L7.744 3.861H10C11.1591 3.86381 12.2818 4.26607 13.179 5C14.8721 6.46449 16.365 8.14561 17.619 10H15.645C14.6433 10.0036 13.6637 10.2952 12.823 10.84L11.092 12H1Z" fill="currentColor"/>
</g>
<defs>
<clipPath id="clip0_406_2171">
<rect width="24" height="24" fill="white"/>
</clipPath>
</defs>
</svg>
