<svg width="24" height="24" viewBox="0 0 24 24" fill="none" xmlns="http://www.w3.org/2000/svg">
<g clip-path="url(#clip0_403_2859)">
<path d="M6.99994 24.0006C8.1045 24.0006 8.99993 23.1052 8.99993 22.0006C8.99993 20.896 8.1045 20.0006 6.99994 20.0006C5.89537 20.0006 4.99994 20.896 4.99994 22.0006C4.99994 23.1052 5.89537 24.0006 6.99994 24.0006Z" fill="currentColor"/>
<path d="M17 24.0006C18.1046 24.0006 19 23.1052 19 22.0006C19 20.896 18.1046 20.0006 17 20.0006C15.8954 20.0006 15 20.896 15 22.0006C15 23.1052 15.8954 24.0006 17 24.0006Z" fill="currentColor"/>
<path d="M23 3H21.0001V1C21.0001 0.734784 20.8947 0.48043 20.7072 0.292893C20.5196 0.105357 20.2653 0 20.0001 0C19.7348 0 19.4805 0.105357 19.2929 0.292893C19.1054 0.48043 19.0001 0.734784 19.0001 1V3H17.0001C16.7348 3 16.4805 3.10536 16.293 3.29289C16.1054 3.48043 16.0001 3.73478 16.0001 4C16.0001 4.26522 16.1054 4.51957 16.293 4.70711C16.4805 4.89464 16.7348 5 17.0001 5H19.0001V7C19.0001 7.26522 19.1054 7.51957 19.2929 7.70711C19.4805 7.89464 19.7348 8 20.0001 8C20.2653 8 20.5196 7.89464 20.7072 7.70711C20.8947 7.51957 21.0001 7.26522 21.0001 7V5H23C23.2653 5 23.5196 4.89464 23.7072 4.70711C23.8947 4.51957 24 4.26522 24 4C24 3.73478 23.8947 3.48043 23.7072 3.29289C23.5196 3.10536 23.2653 3 23 3Z" fill="currentColor"/>
<path d="M21.771 9.726C21.6417 9.70181 21.5089 9.70352 21.3803 9.73103C21.2516 9.75854 21.1297 9.81132 21.0216 9.88629C20.9136 9.96126 20.8214 10.0569 20.7506 10.1678C20.6798 10.2786 20.6316 10.4024 20.609 10.532C20.4843 11.2242 20.1203 11.8505 19.5808 12.3016C19.0412 12.7527 18.3603 12.9999 17.657 13H5.418L4.478 5H13C13.2652 5 13.5196 4.89464 13.7071 4.70711C13.8946 4.51957 14 4.26522 14 4C14 3.73478 13.8946 3.48043 13.7071 3.29289C13.5196 3.10536 13.2652 3 13 3H4.242L4.2 2.648C4.11382 1.9186 3.76306 1.24615 3.21419 0.758104C2.66532 0.270054 1.95647 0.000312836 1.222 0L1 0C0.734784 0 0.48043 0.105357 0.292893 0.292893C0.105357 0.48043 0 0.734784 0 1C0 1.26522 0.105357 1.51957 0.292893 1.70711C0.48043 1.89464 0.734784 2 1 2H1.222C1.46693 2.00003 1.70334 2.08996 1.88637 2.25272C2.06941 2.41547 2.18634 2.63975 2.215 2.883L3.591 14.583C3.73385 15.7998 4.31848 16.9218 5.23391 17.736C6.14934 18.5502 7.33185 19 8.557 19H19C19.2652 19 19.5196 18.8946 19.7071 18.7071C19.8946 18.5196 20 18.2652 20 18C20 17.7348 19.8946 17.4804 19.7071 17.2929C19.5196 17.1054 19.2652 17 19 17H8.557C7.93652 17.0001 7.33127 16.8078 6.82461 16.4497C6.31796 16.0915 5.93483 15.585 5.728 15H17.657C18.8291 15.0001 19.9641 14.5884 20.8635 13.8368C21.763 13.0852 22.3698 12.0415 22.578 10.888C22.6014 10.7587 22.599 10.6261 22.5711 10.4977C22.5432 10.3693 22.4902 10.2477 22.4153 10.1398C22.3403 10.0319 22.2449 9.93978 22.1343 9.86878C22.0238 9.79778 21.9003 9.74926 21.771 9.726Z" fill="currentColor"/>
</g>
<defs>
<clipPath id="clip0_403_2859">
<rect width="24" height="24" fill="white"/>
</clipPath>
</defs>
</svg>
