<svg width="24" height="24" viewBox="0 0 24 24" fill="none" xmlns="http://www.w3.org/2000/svg">
<g clip-path="url(#clip0_406_1910)">
<path d="M6.99998 22H4.99997C3.34312 22 1.99997 20.6568 1.99997 19V5.00002C1.99997 3.34317 3.34312 2.00002 4.99997 2.00002H6.99998C7.55227 2.00002 7.99997 1.55231 7.99997 1.00003C7.99997 0.44775 7.55227 0 6.99998 0H4.99997C2.23997 0.00332812 0.00332812 2.23997 0 5.00002V19C0.00332812 21.76 2.23997 23.9967 5.00002 24H7.00003C7.55231 24 8.00002 23.5523 8.00002 23C8.00002 22.4477 7.55227 22 6.99998 22Z" fill="currentColor"/>
<path d="M23.0002 11.0005L7.22324 11.0325C7.31095 10.8696 7.42063 10.7195 7.54926 10.5865L11.4283 6.70745C11.8255 6.32378 11.8365 5.69069 11.4529 5.29347C11.0692 4.8962 10.4361 4.88519 10.0389 5.26886C10.0305 5.27692 10.0223 5.28512 10.0143 5.29347L6.13326 9.17247C4.57171 10.7345 4.57171 13.2665 6.13326 14.8285L10.0123 18.7075C10.3959 19.1047 11.029 19.1157 11.4262 18.732C11.8235 18.3483 11.8345 17.7152 11.4508 17.318C11.4427 17.3097 11.4346 17.3015 11.4262 17.2935L7.54724 13.4145C7.4353 13.2992 7.33762 13.171 7.25624 13.0325L23.0002 13.0005C23.5525 13.0005 24.0002 12.5528 24.0002 12.0005C24.0002 11.4482 23.5525 11.0005 23.0002 11.0005Z" fill="currentColor"/>
</g>
<defs>
<clipPath id="clip0_406_1910">
<rect width="24" height="24" fill="white"/>
</clipPath>
</defs>
</svg>
