<svg width="24" height="24" viewBox="0 0 24 24" fill="none" xmlns="http://www.w3.org/2000/svg">
<g clip-path="url(#clip0_406_2136)">
<path d="M21.835 2.16567C21.1488 1.47933 20.3342 0.934887 19.4376 0.563434C18.541 0.19198 17.58 0.000793457 16.6095 0.000793457C15.639 0.000793457 14.678 0.19198 13.7814 0.563434C12.8848 0.934887 12.0701 1.47933 11.384 2.16567L2.16496 11.3847C1.47569 12.0702 0.928456 12.885 0.554609 13.7824C0.180762 14.6798 -0.0123504 15.6422 -0.0136651 16.6143C-0.0149798 17.5865 0.175529 18.5493 0.546948 19.4477C0.918366 20.3461 1.46339 21.1624 2.15081 21.8498C2.83822 22.5372 3.65451 23.0823 4.55291 23.4537C5.45132 23.8251 6.41417 24.0156 7.38632 24.0143C8.35847 24.013 9.32081 23.8199 10.2182 23.446C11.1156 23.0722 11.9304 22.5249 12.616 21.8357L21.835 12.6167C22.5213 11.9305 23.0657 11.1159 23.4372 10.2193C23.8087 9.32267 23.9998 8.36167 23.9998 7.39117C23.9998 6.42067 23.8087 5.45967 23.4372 4.56307C23.0657 3.66647 22.5213 2.85183 21.835 2.16567ZM12.707 16.7077L9.70696 19.7077C9.51836 19.8898 9.26576 19.9906 9.00356 19.9883C8.74136 19.9861 8.49055 19.8809 8.30514 19.6955C8.11974 19.5101 8.01457 19.2593 8.01229 18.9971C8.01001 18.7349 8.1108 18.4823 8.29296 18.2937L9.08596 17.5007L6.49996 14.9147L5.70696 15.7077C5.51836 15.8898 5.26576 15.9906 5.00356 15.9883C4.74136 15.9861 4.49055 15.8809 4.30514 15.6955C4.11973 15.5101 4.01457 15.2593 4.01229 14.9971C4.01001 14.7349 4.1108 14.4823 4.29296 14.2937L7.29296 11.2937C7.48156 11.1115 7.73417 11.0107 7.99636 11.013C8.25856 11.0153 8.50937 11.1204 8.69478 11.3059C8.88019 11.4913 8.98536 11.7421 8.98764 12.0043C8.98991 12.2665 8.88912 12.5191 8.70696 12.7077L7.91396 13.5007L10.5 16.0867L11.293 15.2937C11.4816 15.1115 11.7342 15.0107 11.9964 15.013C12.2586 15.0153 12.5094 15.1204 12.6948 15.3059C12.8802 15.4913 12.9854 15.7421 12.9876 16.0043C12.9899 16.2665 12.8891 16.5191 12.707 16.7077ZM19.707 9.70767L16.707 12.7077C16.5184 12.8898 16.2658 12.9906 16.0036 12.9883C15.7414 12.9861 15.4906 12.8809 15.3051 12.6955C15.1197 12.5101 15.0146 12.2593 15.0123 11.9971C15.01 11.7349 15.1108 11.4823 15.293 11.2937L16.086 10.5007L13.5 7.91467L12.707 8.70767C12.5184 8.88983 12.2658 8.99062 12.0036 8.98834C11.7414 8.98606 11.4906 8.8809 11.3051 8.69549C11.1197 8.51008 11.0146 8.25927 11.0123 7.99707C11.01 7.73487 11.1108 7.48227 11.293 7.29367L14.293 4.29367C14.3852 4.19816 14.4956 4.12198 14.6176 4.06957C14.7396 4.01716 14.8708 3.98957 15.0036 3.98842C15.1363 3.98727 15.268 4.01257 15.3909 4.06285C15.5138 4.11313 15.6255 4.18738 15.7194 4.28127C15.8132 4.37517 15.8875 4.48682 15.9378 4.60972C15.9881 4.73261 16.0134 4.86429 16.0122 4.99707C16.0111 5.12985 15.9835 5.26107 15.9311 5.38307C15.8787 5.50508 15.8025 5.61542 15.707 5.70767L14.914 6.50067L17.5 9.08667L18.293 8.29367C18.4816 8.11151 18.7342 8.01072 18.9964 8.013C19.2586 8.01527 19.5094 8.12044 19.6948 8.30585C19.8802 8.49126 19.9854 8.74207 19.9876 9.00427C19.9899 9.26647 19.8891 9.51907 19.707 9.70767Z" fill="currentColor"/>
</g>
<defs>
<clipPath id="clip0_406_2136">
<rect width="24" height="24" fill="white"/>
</clipPath>
</defs>
</svg>
