<svg width="24" height="24" viewBox="0 0 24 24" fill="none" xmlns="http://www.w3.org/2000/svg">
<g clip-path="url(#clip0_403_2850)">
<path d="M12 24C9.62663 24 7.30655 23.2962 5.33316 21.9776C3.35977 20.6591 1.8217 18.7849 0.913451 16.5922C0.00519943 14.3995 -0.232441 11.9867 0.230582 9.65892C0.693605 7.33115 1.83649 5.19295 3.51472 3.51472C5.19295 1.83649 7.33115 0.693605 9.65892 0.230582C11.9867 -0.232441 14.3995 0.00519943 16.5922 0.913451C18.7849 1.8217 20.6591 3.35977 21.9776 5.33316C23.2962 7.30655 24 9.62663 24 12C23.9966 15.1815 22.7312 18.2318 20.4815 20.4815C18.2318 22.7312 15.1815 23.9966 12 24ZM12 2.00001C10.0222 2.00001 8.08879 2.5865 6.4443 3.68531C4.79981 4.78412 3.51809 6.34591 2.76121 8.17317C2.00433 10.0004 1.8063 12.0111 2.19215 13.9509C2.578 15.8907 3.53041 17.6725 4.92894 19.0711C6.32746 20.4696 8.10929 21.422 10.0491 21.8079C11.9889 22.1937 13.9996 21.9957 15.8268 21.2388C17.6541 20.4819 19.2159 19.2002 20.3147 17.5557C21.4135 15.9112 22 13.9778 22 12C21.9971 9.34873 20.9426 6.80689 19.0679 4.93215C17.1931 3.05742 14.6513 2.00292 12 2.00001ZM17.666 15.746C17.8641 15.5696 17.9841 15.3218 17.9994 15.057C18.0148 14.7922 17.9244 14.5321 17.748 14.334C17.5716 14.1359 17.3238 14.0159 17.059 14.0006C16.7942 13.9852 16.5341 14.0756 16.336 14.252C15.1135 15.2813 13.5945 15.8936 12 16C10.4064 15.8937 8.88823 15.2821 7.66601 14.254C7.46815 14.0774 7.20824 13.9866 6.94344 14.0016C6.67864 14.0166 6.43064 14.1362 6.25401 14.334C6.07737 14.5319 5.98657 14.7918 6.00157 15.0566C6.01657 15.3214 6.13615 15.5694 6.33401 15.746C7.92187 17.1025 9.91422 17.8951 12 18C14.0858 17.8951 16.0781 17.1025 17.666 15.746ZM14 10C14 11 14.895 11 16 11C17.105 11 18 11 18 10C18 9.46957 17.7893 8.96087 17.4142 8.58579C17.0391 8.21072 16.5304 8.00001 16 8.00001C15.4696 8.00001 14.9609 8.21072 14.5858 8.58579C14.2107 8.96087 14 9.46957 14 10ZM11 10C11 9.73479 10.8946 9.48044 10.7071 9.2929C10.5196 9.10536 10.2652 9.00001 10 9.00001H7.00001C6.73479 9.00001 6.48043 9.10536 6.2929 9.2929C6.10536 9.48044 6.00001 9.73479 6.00001 10C6.00001 10.2652 6.10536 10.5196 6.2929 10.7071C6.48043 10.8946 6.73479 11 7.00001 11H10C10.2652 11 10.5196 10.8946 10.7071 10.7071C10.8946 10.5196 11 10.2652 11 10Z" fill="currentColor"/>
</g>
<defs>
<clipPath id="clip0_403_2850">
<rect width="24" height="24" fill="white"/>
</clipPath>
</defs>
</svg>
