<svg width="24" height="24" viewBox="0 0 24 24" fill="none" xmlns="http://www.w3.org/2000/svg">
<g clip-path="url(#clip0_406_1880)">
<path d="M22.7611 13.9703L20.3161 14.6163C19.9579 14.7107 19.623 14.8779 19.3321 15.1073L16.7381 13.5993C17.0856 12.5609 17.0856 11.4377 16.7381 10.3993L19.3321 8.8903C19.623 9.11974 19.9579 9.28687 20.3161 9.3813C20.3161 9.3813 22.9331 10.0603 23.0161 10.0603C23.2555 10.0555 23.4851 9.9651 23.6635 9.80539C23.8418 9.64568 23.9569 9.42731 23.9879 9.18995C24.0188 8.95258 23.9637 8.71198 23.8323 8.51185C23.701 8.31172 23.5022 8.16534 23.2721 8.0993L20.8281 7.4523C20.6451 7.40371 20.4888 7.28451 20.3936 7.12085C20.2984 6.95718 20.2719 6.76242 20.3201 6.5793L20.9671 4.1353C21.0008 4.00831 21.009 3.87595 20.9915 3.74576C20.974 3.61557 20.9309 3.49011 20.8649 3.37655C20.7989 3.26298 20.7112 3.16353 20.6067 3.08388C20.5022 3.00422 20.3831 2.94592 20.2561 2.9123C20.1291 2.87868 19.9968 2.87041 19.8666 2.88794C19.7364 2.90548 19.6109 2.94849 19.4974 3.01451C19.3838 3.08053 19.2844 3.16828 19.2047 3.27273C19.1251 3.37719 19.0668 3.49631 19.0331 3.6233L18.3871 6.0673C18.2914 6.42588 18.2707 6.80034 18.3261 7.1673L15.7261 8.6773C15.0112 7.87135 14.0551 7.31788 13.0001 7.0993V4.0993C13.3442 3.96415 13.657 3.75995 13.9191 3.4993L15.7071 1.7113C15.8953 1.52379 16.0013 1.26921 16.0018 1.00357C16.0022 0.737924 15.8971 0.482973 15.7096 0.294801C15.5221 0.10663 15.2675 0.000653511 15.0019 0.000184668C14.7363 -0.000284175 14.4813 0.104793 14.2931 0.292301L12.5051 2.0803C12.3707 2.21331 12.1892 2.28791 12.0001 2.28791C11.811 2.28791 11.6296 2.21331 11.4951 2.0803L9.70713 0.292301C9.51853 0.110143 9.26593 0.00934895 9.00373 0.0116274C8.74154 0.0139058 8.49072 0.119075 8.30531 0.304483C8.11991 0.489891 8.01474 0.740703 8.01246 1.0029C8.01018 1.2651 8.11097 1.5177 8.29313 1.7063L10.0811 3.4993C10.3433 3.75995 10.656 3.96415 11.0001 4.0993V7.0993C9.94426 7.31599 8.98669 7.86809 8.27013 8.6733L5.67013 7.1633C5.72562 6.79634 5.70485 6.42188 5.60913 6.0633L4.96713 3.6193C4.93351 3.49231 4.87521 3.37319 4.79556 3.26873C4.7159 3.16428 4.61645 3.07653 4.50288 3.01051C4.38932 2.94449 4.26386 2.90148 4.13367 2.88394C4.00349 2.86641 3.87112 2.87468 3.74413 2.9083C3.61714 2.94192 3.49802 3.00022 3.39356 3.07988C3.28911 3.15953 3.20136 3.25898 3.13534 3.37255C3.06932 3.48611 3.02631 3.61157 3.00877 3.74176C2.99124 3.87195 2.99951 4.00431 3.03313 4.1313L3.68013 6.5753C3.72832 6.75843 3.70189 6.95318 3.60665 7.11685C3.51142 7.28051 3.35515 7.39971 3.17213 7.4483L0.728132 8.0993C0.494117 8.16192 0.29079 8.30736 0.155928 8.5086C0.0210663 8.70984 -0.0361612 8.95319 -0.00512151 9.19344C0.0259181 9.43369 0.143114 9.65451 0.324693 9.81487C0.506271 9.97522 0.739886 10.0642 0.982132 10.0653C1.06713 10.0653 3.68213 9.3863 3.68213 9.3863C4.04034 9.29187 4.37529 9.12474 4.66613 8.8953L7.26213 10.3993C6.91466 11.4377 6.91466 12.5609 7.26213 13.5993L4.66813 15.1073C4.37729 14.8779 4.04234 14.7107 3.68413 14.6163L1.23913 13.9703C0.990142 13.9219 0.732051 13.9699 0.51712 14.1046C0.302189 14.2393 0.146481 14.4506 0.0815266 14.6958C0.0165724 14.941 0.0472261 15.2017 0.16728 15.4252C0.287335 15.6486 0.487817 15.8181 0.728132 15.8993L3.17213 16.5463C3.35515 16.5949 3.51142 16.7141 3.60665 16.8778C3.70189 17.0414 3.72832 17.2362 3.68013 17.4193L3.03313 19.8633C2.99951 19.9903 2.99124 20.1227 3.00877 20.2528C3.02631 20.383 3.06932 20.5085 3.13534 20.6221C3.20136 20.7356 3.28911 20.8351 3.39356 20.9147C3.49802 20.9944 3.61714 21.0527 3.74413 21.0863C3.87112 21.1199 4.00349 21.1282 4.13367 21.1107C4.26386 21.0931 4.38932 21.0501 4.50288 20.9841C4.61645 20.9181 4.7159 20.8303 4.79556 20.7259C4.87521 20.6214 4.93351 20.5023 4.96713 20.3753L5.61313 17.9313C5.70885 17.5727 5.72962 17.1983 5.67413 16.8313L8.27413 15.3213C8.98906 16.1272 9.94519 16.6807 11.0001 16.8993V19.8993C10.656 20.0345 10.3433 20.2386 10.0811 20.4993L8.29313 22.2923C8.11097 22.4809 8.01018 22.7335 8.01246 22.9957C8.01474 23.2579 8.11991 23.5087 8.30531 23.6941C8.49072 23.8795 8.74154 23.9847 9.00373 23.987C9.26593 23.9893 9.51853 23.8885 9.70713 23.7063L11.5001 21.9183C11.6346 21.7853 11.816 21.7107 12.0051 21.7107C12.1942 21.7107 12.3757 21.7853 12.5101 21.9183L14.2981 23.7063C14.4867 23.8885 14.7393 23.9893 15.0015 23.987C15.2637 23.9847 15.5145 23.8795 15.7 23.6941C15.8854 23.5087 15.9905 23.2579 15.9928 22.9957C15.9951 22.7335 15.8943 22.4809 15.7121 22.2923L13.9241 20.5043C13.661 20.2413 13.3464 20.0353 13.0001 19.8993V16.8993C14.0559 16.6829 15.0134 16.1311 15.7301 15.3263L18.3301 16.8363C18.2747 17.2033 18.2954 17.5777 18.3911 17.9363L19.0371 20.3803C19.105 20.6368 19.272 20.8558 19.5014 20.9891C19.7307 21.1224 20.0037 21.1592 20.2601 21.0913C20.5166 21.0234 20.7356 20.8564 20.8689 20.6271C21.0023 20.3977 21.039 20.1248 20.9711 19.8683L20.3241 17.4243C20.2759 17.2412 20.3024 17.0464 20.3976 16.8828C20.4928 16.7191 20.6491 16.5999 20.8321 16.5513L23.2761 15.9043C23.4059 15.8734 23.5281 15.8168 23.6357 15.7379C23.7432 15.659 23.8339 15.5594 23.9024 15.445C23.9709 15.3305 24.0158 15.2035 24.0344 15.0715C24.0531 14.9394 24.0451 14.8049 24.0111 14.676C23.977 14.547 23.9174 14.4262 23.8359 14.3206C23.7545 14.215 23.6527 14.1268 23.5366 14.0611C23.4205 13.9955 23.2924 13.9537 23.1599 13.9383C23.0274 13.9228 22.8932 13.9341 22.7651 13.9713L22.7611 13.9703Z" fill="currentColor"/>
</g>
<defs>
<clipPath id="clip0_406_1880">
<rect width="24" height="24" fill="white"/>
</clipPath>
</defs>
</svg>
