<svg width="24" height="24" viewBox="0 0 24 24" fill="none" xmlns="http://www.w3.org/2000/svg">
<g clip-path="url(#clip0_403_2845)">
<path d="M19.367 14.727C20.1221 14.4311 20.7739 13.9204 21.2419 13.258C21.7099 12.5956 21.9734 11.8106 22 11C22 8.378 19.5 6.646 15.2 6.151C15.718 5.55434 16.0022 4.79015 16 4C16 1.57 13.645 0 10 0C6.355 0 4 1.57 4 4C4.00731 4.6337 4.18832 5.25325 4.52333 5.79121C4.85834 6.32916 5.33451 6.76491 5.9 7.051C3.624 8.052 3 9.606 3 11C2.99486 11.7509 3.20119 12.4881 3.59538 13.1272C3.98957 13.7663 4.5557 14.2816 5.229 14.614C1.793 15.38 0 16.857 0 19C0 22.271 4.149 24 12 24C19.963 24 24 22.318 24 19C24 16.943 22.445 15.516 19.367 14.727ZM10 2C11.991 2 14 2.619 14 4C14 5.381 11.991 6 10 6C8.009 6 6 5.381 6 4C6 2.619 8.009 2 10 2ZM12.5 8C15.96 8 20 8.786 20 11C20 13.214 15.96 14 12.5 14C10.245 14 5 13.708 5 11C5 8.292 10.245 8 12.5 8ZM12 22C5.925 22 2 20.822 2 19C2 17.178 5.925 16 12 16C18.262 16 22 17.122 22 19C22 20.878 18.262 22 12 22Z" fill="currentColor"/>
</g>
<defs>
<clipPath id="clip0_403_2845">
<rect width="24" height="24" fill="white"/>
</clipPath>
</defs>
</svg>
