<svg width="24" height="24" viewBox="0 0 24 24" fill="none" xmlns="http://www.w3.org/2000/svg">
<g clip-path="url(#clip0_403_2836)">
<path d="M23 22H3C2.73478 22 2.48043 21.8946 2.29289 21.7071C2.10536 21.5196 2 21.2652 2 21V1C2 0.734784 1.89464 0.48043 1.70711 0.292893C1.51957 0.105357 1.26522 0 1 0C0.734784 0 0.48043 0.105357 0.292893 0.292893C0.105357 0.48043 0 0.734784 0 1L0 21C0 21.7956 0.31607 22.5587 0.87868 23.1213C1.44129 23.6839 2.20435 24 3 24H23C23.2652 24 23.5196 23.8946 23.7071 23.7071C23.8946 23.5196 24 23.2652 24 23C24 22.7348 23.8946 22.4804 23.7071 22.2929C23.5196 22.1054 23.2652 22 23 22Z" fill="currentColor"/>
<path d="M15.0002 20.0006C15.2654 20.0006 15.5197 19.8953 15.7073 19.7077C15.8948 19.5202 16.0002 19.2658 16.0002 19.0006V12.0006C16.0002 11.7354 15.8948 11.481 15.7073 11.2935C15.5197 11.106 15.2654 11.0006 15.0002 11.0006C14.7349 11.0006 14.4806 11.106 14.293 11.2935C14.1055 11.481 14.0002 11.7354 14.0002 12.0006V19.0006C14.0002 19.2658 14.1055 19.5202 14.293 19.7077C14.4806 19.8953 14.7349 20.0006 15.0002 20.0006Z" fill="currentColor"/>
<path d="M7 20.0006C7.26521 20.0006 7.51957 19.8953 7.7071 19.7077C7.89464 19.5202 8 19.2658 8 19.0006V12.0006C8 11.7354 7.89464 11.481 7.7071 11.2935C7.51957 11.106 7.26521 11.0006 7 11.0006C6.73478 11.0006 6.48043 11.106 6.29289 11.2935C6.10536 11.481 6 11.7354 6 12.0006V19.0006C6 19.2658 6.10536 19.5202 6.29289 19.7077C6.48043 19.8953 6.73478 20.0006 7 20.0006Z" fill="currentColor"/>
<path d="M19 20C19.2652 20 19.5196 19.8946 19.7071 19.7071C19.8947 19.5196 20 19.2652 20 19V7C20 6.73478 19.8947 6.48043 19.7071 6.29289C19.5196 6.10536 19.2652 6 19 6C18.7348 6 18.4804 6.10536 18.2929 6.29289C18.1054 6.48043 18 6.73478 18 7V19C18 19.2652 18.1054 19.5196 18.2929 19.7071C18.4804 19.8946 18.7348 20 19 20Z" fill="currentColor"/>
<path d="M10.9999 20C11.2651 20 11.5194 19.8946 11.707 19.7071C11.8945 19.5196 11.9999 19.2652 11.9999 19V7C11.9999 6.73478 11.8945 6.48043 11.707 6.29289C11.5194 6.10536 11.2651 6 10.9999 6C10.7346 6 10.4803 6.10536 10.2927 6.29289C10.1052 6.48043 9.99985 6.73478 9.99985 7V19C9.99985 19.2652 10.1052 19.5196 10.2927 19.7071C10.4803 19.8946 10.7346 20 10.9999 20Z" fill="currentColor"/>
</g>
<defs>
<clipPath id="clip0_403_2836">
<rect width="24" height="24" fill="white"/>
</clipPath>
</defs>
</svg>
