<svg width="24" height="24" viewBox="0 0 24 24" fill="none" xmlns="http://www.w3.org/2000/svg">
<g clip-path="url(#clip0_403_2835)">
<path d="M24 9C24.0023 8.44948 23.853 7.90895 23.5686 7.4376C23.2842 6.96625 22.8755 6.58225 22.3874 6.32766C21.8993 6.07306 21.3505 5.95769 20.8012 5.99418C20.2519 6.03066 19.7232 6.21759 19.2731 6.5345C18.8229 6.85142 18.4686 7.28609 18.249 7.79091C18.0294 8.29574 17.953 8.85126 18.028 9.39664C18.1031 9.94202 18.3268 10.4562 18.6746 10.883C19.0224 11.3097 19.481 11.6325 20 11.816V16C20 17.5913 19.3679 19.1174 18.2426 20.2426C17.1174 21.3679 15.5913 22 14 22C12.4087 22 10.8826 21.3679 9.75736 20.2426C8.63214 19.1174 8 17.5913 8 16V15.92C9.66408 15.6786 11.1858 14.8467 12.2874 13.5762C13.3889 12.3058 13.9968 10.6815 14 9V5C13.9984 3.67441 13.4711 2.40356 12.5338 1.46622C11.5964 0.528882 10.3256 0.00158786 9 0C8.73478 0 8.48043 0.105357 8.29289 0.292893C8.10536 0.48043 8 0.734784 8 1C8 1.26522 8.10536 1.51957 8.29289 1.70711C8.48043 1.89464 8.73478 2 9 2C9.79565 2 10.5587 2.31607 11.1213 2.87868C11.6839 3.44129 12 4.20435 12 5V9C12 10.3261 11.4732 11.5979 10.5355 12.5355C9.59785 13.4732 8.32608 14 7 14C5.67392 14 4.40215 13.4732 3.46447 12.5355C2.52678 11.5979 2 10.3261 2 9V5C2 4.20435 2.31607 3.44129 2.87868 2.87868C3.44129 2.31607 4.20435 2 5 2C5.26522 2 5.51957 1.89464 5.70711 1.70711C5.89464 1.51957 6 1.26522 6 1C6 0.734784 5.89464 0.48043 5.70711 0.292893C5.51957 0.105357 5.26522 0 5 0C3.67441 0.00158786 2.40356 0.528882 1.46622 1.46622C0.528882 2.40356 0.00158786 3.67441 0 5L0 9C0.00321595 10.6815 0.611092 12.3058 1.71264 13.5762C2.81419 14.8467 4.33592 15.6786 6 15.92V16C6 18.1217 6.84285 20.1566 8.34315 21.6569C9.84344 23.1571 11.8783 24 14 24C16.1217 24 18.1566 23.1571 19.6569 21.6569C21.1571 20.1566 22 18.1217 22 16V11.816C22.5829 11.6099 23.0879 11.2288 23.4459 10.7247C23.8039 10.2206 23.9974 9.61826 24 9ZM21 10C20.8022 10 20.6089 9.94135 20.4444 9.83147C20.28 9.72159 20.1518 9.56541 20.0761 9.38268C20.0004 9.19996 19.9806 8.99889 20.0192 8.80491C20.0578 8.61093 20.153 8.43275 20.2929 8.29289C20.4327 8.15304 20.6109 8.0578 20.8049 8.01921C20.9989 7.98063 21.2 8.00043 21.3827 8.07612C21.5654 8.15181 21.7216 8.27998 21.8315 8.44443C21.9414 8.60888 22 8.80222 22 9C22 9.26522 21.8946 9.51957 21.7071 9.70711C21.5196 9.89464 21.2652 10 21 10Z" fill="currentColor"/>
</g>
<defs>
<clipPath id="clip0_403_2835">
<rect width="24" height="24" fill="white"/>
</clipPath>
</defs>
</svg>
