<svg width="24" height="24" viewBox="0 0 24 24" fill="none" xmlns="http://www.w3.org/2000/svg">
<g clip-path="url(#clip0_406_1860)">
<path d="M20 0.0102315C16.188 0.0102315 11.875 2.04823 8.46102 5.46123C5.02773 8.86506 2.26686 12.8856 0.323022 17.3122C0.0215098 18.0129 -0.0720599 18.7854 0.0534787 19.5378C0.179017 20.2901 0.518363 20.9905 1.03102 21.5552L15.293 7.29323C15.3853 7.19772 15.4956 7.12154 15.6176 7.06913C15.7396 7.01672 15.8708 6.98914 16.0036 6.98798C16.1364 6.98683 16.2681 7.01213 16.391 7.06241C16.5139 7.11269 16.6255 7.18694 16.7194 7.28084C16.8133 7.37473 16.8876 7.48638 16.9378 7.60928C16.9881 7.73217 17.0134 7.86385 17.0123 7.99663C17.0111 8.12941 16.9835 8.26063 16.9311 8.38264C16.8787 8.50464 16.8025 8.61499 16.707 8.70723L2.44902 22.9652C3.01045 23.4811 3.70947 23.823 4.46134 23.9496C5.21321 24.0761 5.98565 23.9819 6.68502 23.6782C11.1144 21.7373 15.1365 18.9757 18.539 15.5392C21.952 12.1262 23.99 7.81323 23.99 4.00023C24.0463 3.46244 23.9817 2.91888 23.8011 2.40923C23.6204 1.89957 23.3283 1.43668 22.9459 1.05433C22.5636 0.671981 22.1007 0.379829 21.591 0.199195C21.0814 0.0185602 20.5378 -0.045998 20 0.0102315Z" fill="currentColor"/>
</g>
<defs>
<clipPath id="clip0_406_1860">
<rect width="24" height="24" fill="white"/>
</clipPath>
</defs>
</svg>
