<svg width="24" height="24" viewBox="0 0 24 24" fill="none" xmlns="http://www.w3.org/2000/svg">
<g clip-path="url(#clip0_403_2827)">
<path d="M23.707 5.29341L18.707 0.293407C18.5184 0.111249 18.2658 0.0104547 18.0036 0.0127331C17.7414 0.0150115 17.4906 0.12018 17.3052 0.305589C17.1198 0.490997 17.0146 0.741809 17.0123 1.00401C17.0101 1.2662 17.1109 1.5188 17.293 1.70741L19.086 3.50041L17.6 4.98341C16.6396 4.27822 15.4589 3.93919 14.2707 4.02737C13.0825 4.11556 11.9648 4.62517 11.119 5.46441L5.05002 11.5364C4.3981 12.1848 3.88124 12.9561 3.52936 13.8056C3.17748 14.6551 2.99756 15.5659 3.00002 16.4854V19.5854L0.29302 22.2934C0.19751 22.3857 0.121328 22.496 0.0689187 22.618C0.0165097 22.74 -0.0110765 22.8712 -0.0122303 23.004C-0.0133841 23.1368 0.0119176 23.2685 0.0621985 23.3914C0.112479 23.5143 0.186732 23.6259 0.280625 23.7198C0.374518 23.8137 0.48617 23.8879 0.609066 23.9382C0.731962 23.9885 0.863642 24.0138 0.996421 24.0127C1.1292 24.0115 1.26042 23.9839 1.38242 23.9315C1.50443 23.8791 1.61477 23.8029 1.70702 23.7074L4.41402 21.0004H7.51402C8.4335 21.0029 9.34434 20.8229 10.1938 20.4711C11.0433 20.1192 11.8146 19.6023 12.463 18.9504L18.535 12.8784C19.3749 12.0337 19.8851 10.9165 19.9735 9.72851C20.0619 8.54056 19.7226 7.36016 19.017 6.40041L20.5 4.91441L22.293 6.70741C22.4816 6.88956 22.7342 6.99036 22.9964 6.98808C23.2586 6.9858 23.5094 6.88063 23.6948 6.69523C23.8802 6.50982 23.9854 6.25901 23.9877 5.99681C23.99 5.73461 23.8892 5.48201 23.707 5.29341ZM17.122 11.4644L11.05 17.5364C10.5868 18.002 10.0359 18.3712 9.42914 18.6224C8.82236 18.8737 8.17177 19.0022 7.51502 19.0004H5.00002V16.4854C5.00033 16.1578 5.03214 15.8309 5.09502 15.5094L6.29502 16.7094C6.38727 16.8049 6.49761 16.8811 6.61962 16.9335C6.74162 16.9859 6.87284 17.0135 7.00562 17.0147C7.1384 17.0158 7.27008 16.9905 7.39297 16.9402C7.51587 16.8899 7.62752 16.8157 7.72142 16.7218C7.81531 16.6279 7.88956 16.5163 7.93984 16.3934C7.99012 16.2705 8.01542 16.1388 8.01427 16.006C8.01312 15.8732 7.98553 15.742 7.93312 15.62C7.88071 15.498 7.80453 15.3877 7.70902 15.2954L5.96802 13.5544C6.11875 13.3416 6.28593 13.141 6.46802 12.9544L7.50002 11.9144L9.29302 13.7074C9.48162 13.8896 9.73422 13.9904 9.99642 13.9881C10.2586 13.9858 10.5094 13.8806 10.6948 13.6952C10.8802 13.5098 10.9854 13.259 10.9877 12.9968C10.99 12.7346 10.8892 12.482 10.707 12.2934L8.91402 10.5004L10.5 8.91441L12.293 10.7074C12.4816 10.8896 12.7342 10.9904 12.9964 10.9881C13.2586 10.9858 13.5094 10.8806 13.6948 10.6952C13.8802 10.5098 13.9854 10.259 13.9877 9.99681C13.99 9.73461 13.8892 9.48201 13.707 9.29341L11.914 7.50041L12.536 6.87841C13.1076 6.33323 13.8671 6.02907 14.657 6.02907C15.4469 6.02907 16.2065 6.33323 16.778 6.87841L17.122 7.22241C17.6844 7.78499 18.0004 8.54792 18.0004 9.34341C18.0004 10.1389 17.6844 10.9018 17.122 11.4644Z" fill="currentColor"/>
</g>
<defs>
<clipPath id="clip0_403_2827">
<rect width="24" height="24" fill="white"/>
</clipPath>
</defs>
</svg>
