<svg width="24" height="24" viewBox="0 0 24 24" fill="none" xmlns="http://www.w3.org/2000/svg">
<g clip-path="url(#clip0_403_2826)">
<path d="M17.0001 0H7.00012C5.67453 0.00158786 4.40368 0.528882 3.46634 1.46622C2.529 2.40356 2.00171 3.67441 2.00012 5V19C2.00171 20.3256 2.529 21.5964 3.46634 22.5338C4.40368 23.4711 5.67453 23.9984 7.00012 24H17.0001C18.3257 23.9984 19.5966 23.4711 20.5339 22.5338C21.4712 21.5964 21.9985 20.3256 22.0001 19V5C21.9985 3.67441 21.4712 2.40356 20.5339 1.46622C19.5966 0.528882 18.3257 0.00158786 17.0001 0V0ZM7.00012 2H17.0001C17.7958 2 18.5588 2.31607 19.1214 2.87868C19.6841 3.44129 20.0001 4.20435 20.0001 5V17H4.00012V5C4.00012 4.20435 4.31619 3.44129 4.8788 2.87868C5.44141 2.31607 6.20447 2 7.00012 2ZM17.0001 22H7.00012C6.20447 22 5.44141 21.6839 4.8788 21.1213C4.31619 20.5587 4.00012 19.7956 4.00012 19H11.0001V20C11.0001 20.2652 11.1055 20.5196 11.293 20.7071C11.4806 20.8946 11.7349 21 12.0001 21C12.2653 21 12.5197 20.8946 12.7072 20.7071C12.8948 20.5196 13.0001 20.2652 13.0001 20V19H20.0001C20.0001 19.7956 19.6841 20.5587 19.1214 21.1213C18.5588 21.6839 17.7958 22 17.0001 22Z" fill="currentColor"/>
</g>
<defs>
<clipPath id="clip0_403_2826">
<rect width="24" height="24" fill="white"/>
</clipPath>
</defs>
</svg>
