<svg width="24" height="24" viewBox="0 0 24 24" fill="none" xmlns="http://www.w3.org/2000/svg">
<g clip-path="url(#clip0_403_2824)">
<path d="M12 0C9.62663 0 7.30655 0.703788 5.33316 2.02236C3.35977 3.34094 1.8217 5.21509 0.913451 7.4078C0.00519943 9.60051 -0.232441 12.0133 0.230582 14.3411C0.693605 16.6689 1.83649 18.8071 3.51472 20.4853C5.19295 22.1635 7.33115 23.3064 9.65892 23.7694C11.9867 24.2324 14.3995 23.9948 16.5922 23.0866C18.7849 22.1783 20.6591 20.6402 21.9776 18.6668C23.2962 16.6935 24 14.3734 24 12C23.9966 8.81846 22.7312 5.76821 20.4815 3.51852C18.2318 1.26883 15.1815 0.00344108 12 0V0ZM13 21.949V20C13 19.7348 12.8946 19.4804 12.7071 19.2929C12.5196 19.1054 12.2652 19 12 19C11.7348 19 11.4804 19.1054 11.2929 19.2929C11.1054 19.4804 11 19.7348 11 20V21.949C8.70617 21.7154 6.56319 20.6976 4.93282 19.0672C3.30245 17.4368 2.28456 15.2938 2.05101 13H4.00001C4.26522 13 4.51958 12.8946 4.70711 12.7071C4.89465 12.5196 5.00001 12.2652 5.00001 12C5.00001 11.7348 4.89465 11.4804 4.70711 11.2929C4.51958 11.1054 4.26522 11 4.00001 11H2.05101C2.28456 8.70617 3.30245 6.56318 4.93282 4.93281C6.56319 3.30244 8.70617 2.28456 11 2.051V4C11 4.26522 11.1054 4.51957 11.2929 4.70711C11.4804 4.89464 11.7348 5 12 5C12.2652 5 12.5196 4.89464 12.7071 4.70711C12.8946 4.51957 13 4.26522 13 4V2.051C15.2938 2.28456 17.4368 3.30244 19.0672 4.93281C20.6976 6.56318 21.7154 8.70617 21.949 11H20C19.7348 11 19.4804 11.1054 19.2929 11.2929C19.1054 11.4804 19 11.7348 19 12C19 12.2652 19.1054 12.5196 19.2929 12.7071C19.4804 12.8946 19.7348 13 20 13H21.949C21.7154 15.2938 20.6976 17.4368 19.0672 19.0672C17.4368 20.6976 15.2938 21.7154 13 21.949ZM16 12C16 12.2652 15.8946 12.5196 15.7071 12.7071C15.5196 12.8946 15.2652 13 15 13H13V15C13 15.2652 12.8946 15.5196 12.7071 15.7071C12.5196 15.8946 12.2652 16 12 16C11.7348 16 11.4804 15.8946 11.2929 15.7071C11.1054 15.5196 11 15.2652 11 15V13H9.00001C8.73479 13 8.48044 12.8946 8.2929 12.7071C8.10536 12.5196 8.00001 12.2652 8.00001 12C8.00001 11.7348 8.10536 11.4804 8.2929 11.2929C8.48044 11.1054 8.73479 11 9.00001 11H11V9C11 8.73478 11.1054 8.48043 11.2929 8.29289C11.4804 8.10536 11.7348 8 12 8C12.2652 8 12.5196 8.10536 12.7071 8.29289C12.8946 8.48043 13 8.73478 13 9V11H15C15.2652 11 15.5196 11.1054 15.7071 11.2929C15.8946 11.4804 16 11.7348 16 12Z" fill="currentColor"/>
</g>
<defs>
<clipPath id="clip0_403_2824">
<rect width="24" height="24" fill="white"/>
</clipPath>
</defs>
</svg>
