<svg width="24" height="24" viewBox="0 0 24 24" fill="none" xmlns="http://www.w3.org/2000/svg">
<g clip-path="url(#clip0_406_1855)">
<path d="M15.57 2H8.42998C8.77957 1.39308 9.28265 0.888782 9.88874 0.537735C10.4948 0.186688 11.1826 0.00123863 11.883 0L12.117 0C12.8174 0.00123863 13.5051 0.186688 14.1112 0.537735C14.7173 0.888782 15.2204 1.39308 15.57 2ZM20.5 14H20V16C20 16.2652 19.8946 16.5196 19.7071 16.7071C19.5196 16.8946 19.2652 17 19 17C18.7348 17 18.4804 16.8946 18.2929 16.7071C18.1053 16.5196 18 16.2652 18 16V14H5.99998V16C5.99998 16.2652 5.89463 16.5196 5.70709 16.7071C5.51955 16.8946 5.2652 17 4.99998 17C4.73477 17 4.48041 16.8946 4.29288 16.7071C4.10534 16.5196 3.99998 16.2652 3.99998 16V14H3.49998C2.61604 13.9983 1.76433 14.3318 1.11666 14.9334C0.468987 15.5349 0.0735471 16.3597 0.010109 17.2414C-0.0533291 18.123 0.219955 18.996 0.774836 19.684C1.32972 20.3721 2.1249 20.8242 2.99998 20.949V22C2.99998 22.5304 3.2107 23.0391 3.58577 23.4142C3.96084 23.7893 4.46955 24 4.99998 24C5.53042 24 6.03912 23.7893 6.4142 23.4142C6.78927 23.0391 6.99998 22.5304 6.99998 22V21H17V22C17 22.5304 17.2107 23.0391 17.5858 23.4142C17.9608 23.7893 18.4695 24 19 24C19.5304 24 20.0391 23.7893 20.4142 23.4142C20.7893 23.0391 21 22.5304 21 22V20.951C21.8293 20.8402 22.5903 20.4325 23.1419 19.8034C23.6935 19.1744 23.9984 18.3667 24 17.53V17.5C24 16.5717 23.6312 15.6815 22.9749 15.0251C22.3185 14.3687 21.4282 14 20.5 14ZM1.62798 12.491C2.37671 12.1667 3.18404 11.9996 3.99998 12H20C20.8159 11.9996 21.6233 12.1667 22.372 12.491L20.828 7.519C20.5155 6.49744 19.8824 5.60362 19.0224 4.96985C18.1624 4.33607 17.1213 3.99601 16.053 4H7.94698C6.87883 3.99595 5.83774 4.33586 4.97778 4.96945C4.11781 5.60303 3.48465 6.49662 3.17198 7.518L1.62798 12.491Z" fill="currentColor"/>
</g>
<defs>
<clipPath id="clip0_406_1855">
<rect width="24" height="24" fill="white"/>
</clipPath>
</defs>
</svg>
