<svg width="24" height="24" viewBox="0 0 24 24" fill="none" xmlns="http://www.w3.org/2000/svg">
<g clip-path="url(#clip0_406_1847)">
<path d="M23.9512 12.3L23.2462 7.3C23.0729 6.10993 22.4784 5.02151 21.5708 4.23247C20.6633 3.44343 19.5028 3.00612 18.3002 3H8.00015V18.584L9.62615 21.884C9.94892 22.5363 10.4951 23.051 11.1654 23.3346C11.8356 23.6181 12.5854 23.6516 13.2783 23.429C13.9712 23.2064 14.5611 22.7425 14.9408 22.1216C15.3205 21.5008 15.4647 20.7642 15.3472 20.046L15.0112 18H19.0002C19.7159 18 20.4234 17.8464 21.0746 17.5494C21.7259 17.2525 22.3059 16.8192 22.7752 16.2788C23.2446 15.7384 23.5925 15.1036 23.7954 14.4171C23.9982 13.7307 24.0514 13.0087 23.9512 12.3Z" fill="currentColor"/>
<path d="M0 8V13C0.00158786 14.3256 0.528882 15.5964 1.46622 16.5338C2.40356 17.4711 3.67441 17.9984 5 18H6V3H5C3.67441 3.00159 2.40356 3.52888 1.46622 4.46622C0.528882 5.40356 0.00158786 6.67441 0 8H0Z" fill="currentColor"/>
</g>
<defs>
<clipPath id="clip0_406_1847">
<rect width="24" height="24" fill="white"/>
</clipPath>
</defs>
</svg>
