<svg width="24" height="24" viewBox="0 0 24 24" fill="none" xmlns="http://www.w3.org/2000/svg">
<g clip-path="url(#clip0_406_1845)">
<path d="M23.2741 6.74331L17.3281 0.800318C16.9073 0.365057 16.347 0.0916019 15.745 0.027801C15.143 -0.0359999 14.5377 0.113916 14.0351 0.451319C13.7388 0.662057 13.492 0.934901 13.3119 1.25082C13.1319 1.56675 13.0229 1.91814 12.9926 2.2805C12.9624 2.64286 13.0115 3.00747 13.1366 3.34889C13.2617 3.69031 13.4598 4.00032 13.7171 4.25731L14.3091 4.84831C14.4599 5.00007 14.5446 5.20535 14.5446 5.41931C14.5446 5.63328 14.4599 5.83855 14.3091 5.99031L12.2091 8.09031C12.0248 8.2738 11.7961 8.40643 11.5453 8.4753C11.2946 8.54417 11.0302 8.54693 10.7781 8.48331L9.95808 8.27331C9.01246 8.02647 8.03005 7.95228 7.05808 8.05431C6.41932 8.12074 5.81287 8.36841 5.31022 8.76812C4.80757 9.16783 4.42967 9.70292 4.22108 10.3103C3.99261 10.9381 3.94812 11.6182 4.09285 12.2704C4.23757 12.9227 4.5655 13.52 5.03808 13.9923L6.78408 15.8003L0.293081 22.2933C0.197571 22.3855 0.121389 22.4959 0.0689798 22.6179C0.0165708 22.7399 -0.0110155 22.8711 -0.0121693 23.0039C-0.0133231 23.1367 0.0119786 23.2683 0.0622595 23.3912C0.11254 23.5141 0.186794 23.6258 0.280686 23.7197C0.374579 23.8136 0.486231 23.8878 0.609127 23.9381C0.732023 23.9884 0.863703 24.0137 0.996482 24.0125C1.12926 24.0114 1.26048 23.9838 1.38249 23.9314C1.50449 23.879 1.61483 23.8028 1.70708 23.7073L8.17408 17.2403L9.42408 18.5343C10.2715 19.4333 11.4403 19.9604 12.6751 20.0003C13.0743 20.0008 13.4706 19.9331 13.8471 19.8003C14.4216 19.602 14.9263 19.2415 15.3001 18.7623C15.6738 18.2831 15.9007 17.7058 15.9531 17.1003C16.0543 16.1372 15.9818 15.1638 15.7391 14.2263L15.5271 13.2003C15.4676 12.9501 15.4732 12.6888 15.5432 12.4413C15.6132 12.1938 15.7454 11.9683 15.9271 11.7863L18.0161 9.70031C18.1786 9.55125 18.3887 9.46477 18.6091 9.45631C18.7058 9.45611 18.8016 9.4752 18.8909 9.51246C18.9802 9.54972 19.0612 9.6044 19.1291 9.67331L19.6351 10.1793C20.0536 10.6262 20.6178 10.9093 21.2262 10.9778C21.8346 11.0464 22.4476 10.8959 22.9551 10.5533C23.2515 10.3426 23.4984 10.0699 23.6785 9.75398C23.8586 9.4381 23.9677 9.08672 23.9981 8.72436C24.0284 8.36199 23.9794 7.99736 23.8543 7.6559C23.7293 7.31444 23.5313 7.00437 23.2741 6.74731V6.74331Z" fill="currentColor"/>
</g>
<defs>
<clipPath id="clip0_406_1845">
<rect width="24" height="24" fill="white"/>
</clipPath>
</defs>
</svg>
