<svg width="24" height="24" viewBox="0 0 24 24" fill="none" xmlns="http://www.w3.org/2000/svg">
<g clip-path="url(#clip0_406_1844)">
<path d="M6 24H8.13C8.57754 23.9957 9.01099 23.843 9.36231 23.5657C9.71362 23.2884 9.9629 22.9023 10.071 22.468C10.1868 22.0452 10.4383 21.6721 10.7868 21.4061C11.1353 21.1402 11.5616 20.9962 12 20.9962C12.4384 20.9962 12.8647 21.1402 13.2132 21.4061C13.5617 21.6721 13.8132 22.0452 13.929 22.468C14.0371 22.9023 14.2864 23.2884 14.6377 23.5657C14.989 23.843 15.4225 23.9957 15.87 24H18C18.7956 24 19.5587 23.6839 20.1213 23.1213C20.6839 22.5587 21 21.7956 21 21V17H17C16.7348 17 16.4804 16.8946 16.2929 16.7071C16.1054 16.5196 16 16.2652 16 16C16 15.7348 16.1054 15.4804 16.2929 15.2929C16.4804 15.1054 16.7348 15 17 15H21V5C20.9984 3.67441 20.4711 2.40356 19.5338 1.46622C18.5964 0.528882 17.3256 0.00158786 16 0L15.87 0C15.4225 0.00425181 14.989 0.157013 14.6377 0.434299C14.2864 0.711585 14.0371 1.09769 13.929 1.532C13.8132 1.95484 13.5617 2.32792 13.2132 2.59385C12.8647 2.85979 12.4384 3.00383 12 3.00383C11.5616 3.00383 11.1353 2.85979 10.7868 2.59385C10.4383 2.32792 10.1868 1.95484 10.071 1.532C9.9629 1.09769 9.71362 0.711585 9.36231 0.434299C9.01099 0.157013 8.57754 0.00425181 8.13 0L8 0C6.67441 0.00158786 5.40356 0.528882 4.46622 1.46622C3.52888 2.40356 3.00159 3.67441 3 5V15H7C7.26522 15 7.51957 15.1054 7.70711 15.2929C7.89464 15.4804 8 15.7348 8 16C8 16.2652 7.89464 16.5196 7.70711 16.7071C7.51957 16.8946 7.26522 17 7 17H3V21C3 21.7956 3.31607 22.5587 3.87868 23.1213C4.44129 23.6839 5.20435 24 6 24ZM11 15H13C13.2652 15 13.5196 15.1054 13.7071 15.2929C13.8946 15.4804 14 15.7348 14 16C14 16.2652 13.8946 16.5196 13.7071 16.7071C13.5196 16.8946 13.2652 17 13 17H11C10.7348 17 10.4804 16.8946 10.2929 16.7071C10.1054 16.5196 10 16.2652 10 16C10 15.7348 10.1054 15.4804 10.2929 15.2929C10.4804 15.1054 10.7348 15 11 15Z" fill="currentColor"/>
</g>
<defs>
<clipPath id="clip0_406_1844">
<rect width="24" height="24" fill="white"/>
</clipPath>
</defs>
</svg>
