<svg width="24" height="24" viewBox="0 0 24 24" fill="none" xmlns="http://www.w3.org/2000/svg">
<g clip-path="url(#clip0_403_2810)">
<path d="M12 0C9.62663 0 7.30655 0.703788 5.33316 2.02236C3.35977 3.34094 1.8217 5.21509 0.913451 7.4078C0.00519943 9.60051 -0.232441 12.0133 0.230582 14.3411C0.693605 16.6689 1.83649 18.8071 3.51472 20.4853C5.19295 22.1635 7.33115 23.3064 9.65892 23.7694C11.9867 24.2324 14.3995 23.9948 16.5922 23.0866C18.7849 22.1783 20.6591 20.6402 21.9776 18.6668C23.2962 16.6935 24 14.3734 24 12C23.9966 8.81846 22.7312 5.76821 20.4815 3.51852C18.2318 1.26883 15.1815 0.00344108 12 0V0ZM12 22C10.0222 22 8.08879 21.4135 6.4443 20.3147C4.79981 19.2159 3.51809 17.6541 2.76121 15.8268C2.00433 13.9996 1.8063 11.9889 2.19215 10.0491C2.578 8.10929 3.53041 6.32746 4.92894 4.92893C6.32746 3.53041 8.10929 2.578 10.0491 2.19215C11.9889 1.8063 13.9996 2.00433 15.8268 2.7612C17.6541 3.51808 19.2159 4.79981 20.3147 6.4443C21.4135 8.08879 22 10.0222 22 12C21.9971 14.6513 20.9426 17.1931 19.0679 19.0679C17.1931 20.9426 14.6513 21.9971 12 22ZM14 12C14.0016 12.3515 13.9105 12.6971 13.736 13.0022C13.5615 13.3072 13.3097 13.5609 13.0059 13.7377C12.7021 13.9144 12.3571 14.008 12.0057 14.009C11.6542 14.01 11.3087 13.9184 11.004 13.7434C10.6992 13.5683 10.4459 13.3161 10.2697 13.012C10.0934 12.7079 10.0004 12.3628 10 12.0113C9.99963 11.6599 10.0918 11.3145 10.2674 11.01C10.443 10.7056 10.6956 10.4527 11 10.277V7C11 6.73478 11.1054 6.48043 11.2929 6.29289C11.4804 6.10536 11.7348 6 12 6C12.2652 6 12.5196 6.10536 12.7071 6.29289C12.8946 6.48043 13 6.73478 13 7V10.277C13.3031 10.4513 13.5551 10.7023 13.7306 11.0047C13.9061 11.3071 13.999 11.6503 14 12Z" fill="currentColor"/>
</g>
<defs>
<clipPath id="clip0_403_2810">
<rect width="24" height="24" fill="white"/>
</clipPath>
</defs>
</svg>
