<svg width="24" height="24" viewBox="0 0 24 24" fill="none" xmlns="http://www.w3.org/2000/svg">
<g clip-path="url(#clip0_403_3090)">
<path d="M24 12C24 15.1826 22.7357 18.2348 20.4853 20.4853C18.2348 22.7357 15.1826 24 12 24C8.8174 24 5.76515 22.7357 3.51472 20.4853C1.26428 18.2348 0 15.1826 0 12C0 11.7348 0.105357 11.4804 0.292893 11.2929C0.48043 11.1054 0.734784 11 1 11C1.26522 11 1.51957 11.1054 1.70711 11.2929C1.89464 11.4804 2 11.7348 2 12C2 13.9778 2.58649 15.9112 3.6853 17.5557C4.78412 19.2002 6.3459 20.4819 8.17317 21.2388C10.0004 21.9957 12.0111 22.1937 13.9509 21.8079C15.8907 21.422 17.6725 20.4696 19.0711 19.0711C20.4696 17.6725 21.422 15.8907 21.8079 13.9509C22.1937 12.0111 21.9957 10.0004 21.2388 8.17317C20.4819 6.3459 19.2002 4.78412 17.5557 3.6853C15.9112 2.58649 13.9778 2 12 2C11.7348 2 11.4804 1.89464 11.2929 1.70711C11.1054 1.51957 11 1.26522 11 1C11 0.734784 11.1054 0.48043 11.2929 0.292893C11.4804 0.105357 11.7348 0 12 0C15.1815 0.00344108 18.2318 1.26883 20.4815 3.51852C22.7312 5.76821 23.9966 8.81846 24 12ZM10.277 11H8C7.73478 11 7.48043 11.1054 7.29289 11.2929C7.10536 11.4804 7 11.7348 7 12C7 12.2652 7.10536 12.5196 7.29289 12.7071C7.48043 12.8946 7.73478 13 8 13H10.277C10.4297 13.2652 10.6414 13.4917 10.8958 13.662C11.1501 13.8323 11.4402 13.9417 11.7436 13.9818C12.047 14.0219 12.3556 13.9917 12.6454 13.8934C12.9353 13.7951 13.1986 13.6314 13.415 13.415C13.6314 13.1986 13.7951 12.9353 13.8934 12.6454C13.9917 12.3556 14.0219 12.047 13.9818 11.7436C13.9417 11.4402 13.8323 11.1501 13.662 10.8958C13.4917 10.6414 13.2652 10.4297 13 10.277V7C13 6.73478 12.8946 6.48043 12.7071 6.29289C12.5196 6.10536 12.2652 6 12 6C11.7348 6 11.4804 6.10536 11.2929 6.29289C11.1054 6.48043 11 6.73478 11 7V10.277C10.7004 10.4513 10.4513 10.7004 10.277 11ZM1.827 8.784C2.02478 8.784 2.21812 8.72535 2.38257 8.61547C2.54702 8.50559 2.67519 8.34941 2.75088 8.16668C2.82657 7.98396 2.84637 7.78289 2.80779 7.58891C2.7692 7.39493 2.67396 7.21675 2.53411 7.07689C2.39425 6.93704 2.21607 6.8418 2.02209 6.80321C1.82811 6.76463 1.62704 6.78443 1.44432 6.86012C1.26159 6.93581 1.10541 7.06398 0.99553 7.22843C0.885649 7.39288 0.827 7.58622 0.827 7.784C0.827 8.04922 0.932357 8.30357 1.11989 8.49111C1.30743 8.67864 1.56178 8.784 1.827 8.784ZM4.221 5.207C4.41878 5.207 4.61212 5.14835 4.77657 5.03847C4.94102 4.92859 5.06919 4.77241 5.14488 4.58968C5.22057 4.40696 5.24037 4.20589 5.20179 4.01191C5.1632 3.81793 5.06796 3.63975 4.92811 3.49989C4.78825 3.36004 4.61007 3.2648 4.41609 3.22621C4.22211 3.18763 4.02104 3.20743 3.83832 3.28312C3.65559 3.35881 3.49941 3.48698 3.38953 3.65143C3.27965 3.81588 3.221 4.00922 3.221 4.207C3.221 4.47222 3.32636 4.72657 3.51389 4.91411C3.70143 5.10164 3.95578 5.207 4.221 5.207ZM7.779 2.841C7.97678 2.841 8.17012 2.78235 8.33457 2.67247C8.49902 2.56259 8.62719 2.40641 8.70288 2.22368C8.77857 2.04096 8.79837 1.83989 8.75979 1.64591C8.7212 1.45193 8.62596 1.27375 8.48611 1.13389C8.34625 0.994041 8.16807 0.8988 7.97409 0.860215C7.78011 0.821629 7.57904 0.841433 7.39632 0.91712C7.21359 0.992808 7.05741 1.12098 6.94753 1.28543C6.83765 1.44988 6.779 1.64322 6.779 1.841C6.779 2.10622 6.88436 2.36057 7.07189 2.54811C7.25943 2.73564 7.51378 2.841 7.779 2.841Z" fill="currentColor"/>
</g>
<defs>
<clipPath id="clip0_403_3090">
<rect width="24" height="24" fill="white"/>
</clipPath>
</defs>
</svg>
