<svg width="24" height="24" viewBox="0 0 24 24" fill="none" xmlns="http://www.w3.org/2000/svg">
<g clip-path="url(#clip0_403_2815)">
<path d="M14.0002 18.0002C13.6596 18.0002 13.3214 18.058 13.0002 18.1712V18.0002C13.0002 17.735 13.1055 17.4807 13.2931 17.2931C13.4806 17.1056 13.735 17.0002 14.0002 17.0002C14.1422 16.9993 14.2828 17.0291 14.4123 17.0876C14.5417 17.1462 14.657 17.232 14.7502 17.3392C14.8359 17.4414 14.9412 17.5253 15.0599 17.5862C15.1785 17.647 15.3082 17.6835 15.4411 17.6935C15.5741 17.7035 15.7077 17.6868 15.8341 17.6444C15.9606 17.6019 16.0772 17.5347 16.1773 17.4465C16.2773 17.3583 16.3587 17.251 16.4167 17.131C16.4746 17.0109 16.508 16.8804 16.5148 16.7472C16.5216 16.614 16.5017 16.4809 16.4562 16.3555C16.4108 16.2301 16.3407 16.1151 16.2502 16.0172C15.8472 15.5603 15.3146 15.2369 14.7233 15.09C14.1321 14.9431 13.5101 14.9798 12.9401 15.1951C12.3702 15.4103 11.8793 15.7941 11.5327 16.2952C11.1862 16.7963 11.0004 17.391 11.0002 18.0002V21.0002C11.0004 21.6516 11.2126 22.2851 11.6047 22.8052C11.9968 23.3253 12.5475 23.7037 13.1736 23.8831C13.7997 24.0626 14.4672 24.0334 15.0753 23.8C15.6834 23.5665 16.199 23.1416 16.5442 22.5892C16.8226 22.1409 16.9801 21.628 17.0013 21.1007C17.0225 20.5733 16.9067 20.0495 16.6652 19.5802C16.4119 19.095 16.0283 18.6901 15.5575 18.411C15.0867 18.1319 14.5474 17.9896 14.0002 18.0002ZM14.8492 21.5292C14.7571 21.677 14.628 21.7981 14.4747 21.8807C14.3215 21.9632 14.1493 22.0043 13.9753 21.9999C13.8012 21.9955 13.6314 21.9458 13.4825 21.8556C13.3336 21.7654 13.2108 21.6379 13.1263 21.4857C13.0418 21.3335 12.9985 21.1619 13.0006 20.9878C13.0028 20.8137 13.0504 20.6432 13.1386 20.4932C13.2269 20.3431 13.3528 20.2187 13.5039 20.1323C13.655 20.0458 13.8261 20.0003 14.0002 20.0002C14.1721 19.9908 14.3435 20.0282 14.4959 20.1083C14.6484 20.1884 14.7763 20.3083 14.8662 20.4552C14.9585 20.6198 15.0055 20.8059 15.0025 20.9945C14.9995 21.1832 14.9466 21.3677 14.8492 21.5292ZM21.0002 15.0002C20.2045 15.0002 19.4415 15.3163 18.8788 15.8789C18.3162 16.4415 18.0002 17.2046 18.0002 18.0002V21.0002C18.0002 21.7959 18.3162 22.5589 18.8788 23.1216C19.4415 23.6842 20.2045 24.0002 21.0002 24.0002C21.7958 24.0002 22.5589 23.6842 23.1215 23.1216C23.6841 22.5589 24.0002 21.7959 24.0002 21.0002V18.0002C24.0002 17.2046 23.6841 16.4415 23.1215 15.8789C22.5589 15.3163 21.7958 15.0002 21.0002 15.0002ZM22.0002 21.0002C22.0002 21.2654 21.8948 21.5198 21.7073 21.7073C21.5197 21.8949 21.2654 22.0002 21.0002 22.0002C20.735 22.0002 20.4806 21.8949 20.2931 21.7073C20.1055 21.5198 20.0002 21.2654 20.0002 21.0002V18.0002C20.0002 17.735 20.1055 17.4807 20.2931 17.2931C20.4806 17.1056 20.735 17.0002 21.0002 17.0002C21.2654 17.0002 21.5197 17.1056 21.7073 17.2931C21.8948 17.4807 22.0002 17.735 22.0002 18.0002V21.0002ZM12.0002 13.0002H8.00017C7.73495 13.0002 7.4806 12.8949 7.29306 12.7073C7.10553 12.5198 7.00017 12.2654 7.00017 12.0002C7.00017 11.735 7.10553 11.4807 7.29306 11.2931C7.4806 11.1056 7.73495 11.0002 8.00017 11.0002H11.0002V7.00023C11.0002 6.73502 11.1055 6.48066 11.2931 6.29313C11.4806 6.10559 11.735 6.00023 12.0002 6.00023C12.2654 6.00023 12.5197 6.10559 12.7073 6.29313C12.8948 6.48066 13.0002 6.73502 13.0002 7.00023V12.0002C13.0002 12.2654 12.8948 12.5198 12.7073 12.7073C12.5197 12.8949 12.2654 13.0002 12.0002 13.0002ZM24.0002 3.00023V6.00023C24.0002 6.79588 23.6841 7.55894 23.1215 8.12155C22.5589 8.68416 21.7958 9.00023 21.0002 9.00023H18.0002C17.735 9.00023 17.4806 8.89487 17.2931 8.70734C17.1055 8.5198 17.0002 8.26545 17.0002 8.00023C17.0002 7.73502 17.1055 7.48066 17.2931 7.29313C17.4806 7.10559 17.735 7.00023 18.0002 7.00023H20.6372C19.837 5.61936 18.7177 4.45027 17.3729 3.59083C16.0282 2.73138 14.4971 2.20659 12.9078 2.0604C11.3186 1.9142 9.71745 2.15085 8.23845 2.75054C6.75946 3.35022 5.44564 4.29549 4.40699 5.5072C3.36834 6.71892 2.63508 8.16183 2.2686 9.71513C1.90211 11.2684 1.91307 12.8869 2.30055 14.4351C2.68804 15.9833 3.44077 17.4162 4.49573 18.6137C5.55069 19.8112 6.87719 20.7386 8.36417 21.3182C8.61135 21.4148 8.81006 21.6055 8.91658 21.8486C9.0231 22.0916 9.02871 22.3671 8.93217 22.6142C8.83563 22.8614 8.64485 23.0601 8.40181 23.1666C8.15876 23.2732 7.88335 23.2788 7.63617 23.1822C5.87882 22.4968 4.30783 21.4066 3.05065 20.0004C1.79347 18.5941 0.885517 16.9112 0.400467 15.0883C-0.0845825 13.2655 -0.133069 11.3539 0.258942 9.50879C0.650953 7.66367 1.47242 5.93695 2.65669 4.46874C3.84096 3.00052 5.35467 1.83217 7.075 1.05848C8.79533 0.284784 10.6738 -0.072452 12.5581 0.0157521C14.4423 0.103956 16.2792 0.635116 17.9198 1.56613C19.5603 2.49715 20.9582 3.80181 22.0002 5.37423V3.00023C22.0002 2.73502 22.1055 2.48066 22.2931 2.29312C22.4806 2.10559 22.735 2.00023 23.0002 2.00023C23.2654 2.00023 23.5197 2.10559 23.7073 2.29312C23.8948 2.48066 24.0002 2.73502 24.0002 3.00023Z" fill="currentColor"/>
</g>
<defs>
<clipPath id="clip0_403_2815">
<rect width="24" height="24" fill="white"/>
</clipPath>
</defs>
</svg>
