<svg width="24" height="24" viewBox="0 0 24 24" fill="none" xmlns="http://www.w3.org/2000/svg">
<g clip-path="url(#clip0_406_1829)">
<path d="M17.9998 -0.000668965C16.6708 -0.000288025 15.3499 0.207201 14.0848 0.614331C13.4132 0.847231 12.7102 0.977037 11.9998 0.999331C11.2893 0.977037 10.5864 0.847231 9.91479 0.614331C8.64963 0.207329 7.3288 -0.000157791 5.99979 -0.000668965C5.20376 -0.0308466 4.41007 0.103705 3.66846 0.394554C2.92686 0.685403 2.25331 1.12628 1.69002 1.68957C1.12674 2.25285 0.685861 2.9264 0.395012 3.66801C0.104162 4.40961 -0.0303888 5.2033 -0.000211202 5.99933C-0.000211202 12.4423 3.35479 18.7853 5.76779 22.8843C6.02197 23.3131 6.40996 23.6466 6.87209 23.8334C7.33423 24.0202 7.84494 24.0501 8.32571 23.9185C8.80648 23.7868 9.2307 23.5009 9.53315 23.1046C9.83561 22.7084 9.99955 22.2238 9.99979 21.7253V15.1063C9.98899 14.6195 10.1498 14.1443 10.454 13.7641C10.7582 13.3838 11.1864 13.1227 11.6638 13.0263C11.9509 12.9774 12.2451 12.9918 12.5261 13.0684C12.807 13.145 13.0678 13.2821 13.2903 13.47C13.5128 13.6579 13.6915 13.8921 13.8141 14.1562C13.9366 14.4204 14 14.7081 13.9998 14.9993V21.7253C14 22.2238 14.164 22.7084 14.4664 23.1046C14.7689 23.5009 15.1931 23.7868 15.6739 23.9185C16.1546 24.0501 16.6654 24.0202 17.1275 23.8334C17.5896 23.6466 17.9776 23.3131 18.2318 22.8843C20.6458 18.7843 23.9998 12.4413 23.9998 5.99933C24.03 5.2033 23.8954 4.40961 23.6046 3.66801C23.3137 2.9264 22.8728 2.25285 22.3096 1.68957C21.7463 1.12628 21.0727 0.685403 20.3311 0.394554C19.5895 0.103705 18.7958 -0.0308466 17.9998 -0.000668965Z" fill="currentColor"/>
</g>
<defs>
<clipPath id="clip0_406_1829">
<rect width="24" height="24" fill="white"/>
</clipPath>
</defs>
</svg>
