<svg width="24" height="24" viewBox="0 0 24 24" fill="none" xmlns="http://www.w3.org/2000/svg">
<g clip-path="url(#clip0_406_1825)">
<path d="M19 24H18C17.7348 24 17.4804 23.8946 17.2929 23.7071C17.1054 23.5196 17 23.2652 17 23C17 22.7348 17.1054 22.4804 17.2929 22.2929C17.4804 22.1054 17.7348 22 18 22H19C19.7956 22 20.5587 21.6839 21.1213 21.1213C21.6839 20.5587 22 19.7956 22 19V18C22 17.7348 22.1054 17.4804 22.2929 17.2929C22.4804 17.1054 22.7348 17 23 17C23.2652 17 23.5196 17.1054 23.7071 17.2929C23.8946 17.4804 24 17.7348 24 18V19C23.9984 20.3256 23.4711 21.5964 22.5338 22.5338C21.5964 23.4711 20.3256 23.9984 19 24ZM24 6V5C23.9984 3.67441 23.4711 2.40356 22.5338 1.46622C21.5964 0.528882 20.3256 0.00158786 19 0L18 0C17.7348 0 17.4804 0.105357 17.2929 0.292893C17.1054 0.48043 17 0.734784 17 1C17 1.26522 17.1054 1.51957 17.2929 1.70711C17.4804 1.89464 17.7348 2 18 2H19C19.7956 2 20.5587 2.31607 21.1213 2.87868C21.6839 3.44129 22 4.20435 22 5V6C22 6.26522 22.1054 6.51957 22.2929 6.70711C22.4804 6.89464 22.7348 7 23 7C23.2652 7 23.5196 6.89464 23.7071 6.70711C23.8946 6.51957 24 6.26522 24 6ZM7 23C7 22.7348 6.89464 22.4804 6.70711 22.2929C6.51957 22.1054 6.26522 22 6 22H5C4.20435 22 3.44129 21.6839 2.87868 21.1213C2.31607 20.5587 2 19.7956 2 19V18C2 17.7348 1.89464 17.4804 1.70711 17.2929C1.51957 17.1054 1.26522 17 1 17C0.734784 17 0.48043 17.1054 0.292893 17.2929C0.105357 17.4804 0 17.7348 0 18L0 19C0.00158786 20.3256 0.528882 21.5964 1.46622 22.5338C2.40356 23.4711 3.67441 23.9984 5 24H6C6.26522 24 6.51957 23.8946 6.70711 23.7071C6.89464 23.5196 7 23.2652 7 23ZM2 6V5C2 4.20435 2.31607 3.44129 2.87868 2.87868C3.44129 2.31607 4.20435 2 5 2H6C6.26522 2 6.51957 1.89464 6.70711 1.70711C6.89464 1.51957 7 1.26522 7 1C7 0.734784 6.89464 0.48043 6.70711 0.292893C6.51957 0.105357 6.26522 0 6 0L5 0C3.67441 0.00158786 2.40356 0.528882 1.46622 1.46622C0.528882 2.40356 0.00158786 3.67441 0 5L0 6C0 6.26522 0.105357 6.51957 0.292893 6.70711C0.48043 6.89464 0.734784 7 1 7C1.26522 7 1.51957 6.89464 1.70711 6.70711C1.89464 6.51957 2 6.26522 2 6ZM16 12C16 11.2089 15.7654 10.4355 15.3259 9.77772C14.8864 9.11992 14.2616 8.60723 13.5307 8.30448C12.7998 8.00173 11.9956 7.92252 11.2196 8.07686C10.4437 8.2312 9.73098 8.61216 9.17157 9.17157C8.61216 9.73098 8.2312 10.4437 8.07686 11.2196C7.92252 11.9956 8.00173 12.7998 8.30448 13.5307C8.60723 14.2616 9.11992 14.8864 9.77772 15.3259C10.4355 15.7654 11.2089 16 12 16C13.0609 16 14.0783 15.5786 14.8284 14.8284C15.5786 14.0783 16 13.0609 16 12Z" fill="currentColor"/>
</g>
<defs>
<clipPath id="clip0_406_1825">
<rect width="24" height="24" fill="white"/>
</clipPath>
</defs>
</svg>
