<svg width="24" height="24" viewBox="0 0 24 24" fill="none" xmlns="http://www.w3.org/2000/svg">
<path d="M20.4402 16.8543L18.9592 14.6333C19.2017 14.4724 19.4102 14.2653 19.5726 14.0237C19.735 13.7822 19.8482 13.511 19.9057 13.2257C19.9632 12.9403 19.9638 12.6465 19.9076 12.3609C19.8514 12.0753 19.7395 11.8036 19.5782 11.5613L17.4872 8.42632C17.6703 8.2596 17.8244 8.06359 17.9432 7.84632C18.1332 7.49745 18.2257 7.1038 18.211 6.70679C18.1962 6.30978 18.0747 5.92409 17.8592 5.59032C17.8342 5.55253 17.8072 5.51614 17.7782 5.48132L13.6782 0.69933C13.4532 0.476454 13.186 0.300717 12.8923 0.182413C12.5985 0.0641096 12.2841 0.00561939 11.9675 0.010369C11.6508 0.0151187 11.3383 0.0830128 11.0482 0.210074C10.7582 0.337134 10.4964 0.520807 10.2782 0.75033L6.20617 5.47732C6.17658 5.51095 6.1495 5.54672 6.12517 5.58432C5.8377 6.027 5.718 6.55788 5.78769 7.08108C5.85738 7.60428 6.11186 8.08532 6.50517 8.43732L4.42217 11.5613C4.26086 11.8036 4.1489 12.0753 4.0927 12.3609C4.03651 12.6465 4.03717 12.9403 4.09467 13.2257C4.15216 13.511 4.26535 13.7822 4.42776 14.0237C4.59017 14.2653 4.79862 14.4724 5.04117 14.6333L3.56017 16.8543C3.22787 17.3526 3.03702 17.9317 3.00798 18.5299C2.97894 19.1281 3.1128 19.7229 3.39527 20.251C3.67774 20.7791 4.09825 21.2206 4.61194 21.5285C5.12564 21.8364 5.71327 21.9991 6.31217 21.9993H11.0002V22.9993C11.0002 23.2645 11.1055 23.5189 11.2931 23.7064C11.4806 23.8939 11.735 23.9993 12.0002 23.9993C12.2654 23.9993 12.5197 23.8939 12.7073 23.7064C12.8948 23.5189 13.0002 23.2645 13.0002 22.9993V21.9993H17.6872C18.2862 21.9993 18.8739 21.8367 19.3877 21.5289C19.9016 21.2211 20.3222 20.7796 20.6048 20.2515C20.8874 19.7233 21.0214 19.1284 20.9924 18.5301C20.9634 17.9318 20.7725 17.3526 20.4402 16.8543ZM18.8402 19.3083C18.7299 19.5182 18.564 19.6937 18.3606 19.8156C18.1572 19.9374 17.9243 20.001 17.6872 19.9993H6.31217C6.07535 19.9991 5.84303 19.9346 5.63996 19.8128C5.43689 19.691 5.27067 19.5163 5.15902 19.3075C5.04736 19.0986 4.99445 18.8634 5.00593 18.6269C5.0174 18.3904 5.09282 18.1614 5.22417 17.9643L7.50017 14.5543C7.60074 14.4036 7.65846 14.2283 7.66716 14.0473C7.67587 13.8663 7.63522 13.6864 7.54957 13.5267C7.46392 13.367 7.33649 13.2336 7.18089 13.1407C7.02529 13.0478 6.84738 12.9989 6.66617 12.9993H6.26117C6.22278 13.0006 6.18482 12.9909 6.15184 12.9712C6.11886 12.9515 6.09224 12.9227 6.07517 12.8883C6.05589 12.8549 6.04668 12.8167 6.04863 12.7782C6.05058 12.7397 6.06362 12.7026 6.08617 12.6713L8.83117 8.55432C8.93016 8.40278 8.98616 8.22722 8.9932 8.04635C9.00025 7.86549 8.95807 7.6861 8.87117 7.52732C8.78348 7.36742 8.65442 7.23404 8.49748 7.14115C8.34055 7.04826 8.16153 6.99927 7.97917 6.99932C7.94089 7.00073 7.90301 6.99111 7.87003 6.97161C7.83706 6.95211 7.81038 6.92355 7.79317 6.88932C7.77769 6.86253 7.76864 6.8325 7.76673 6.80162C7.76482 6.77073 7.7701 6.73982 7.78217 6.71132L11.7442 2.11133C11.771 2.07709 11.8043 2.04854 11.8423 2.02735C11.8802 2.00616 11.922 1.99275 11.9653 1.98791C12.0085 1.98307 12.0522 1.98689 12.0939 1.99915C12.1356 2.01142 12.1745 2.03187 12.2082 2.05933L16.2002 6.71232C16.2122 6.74082 16.2175 6.77173 16.2156 6.80262C16.2137 6.8335 16.2046 6.86353 16.1892 6.89032C16.1716 6.92484 16.1444 6.95352 16.1108 6.97286C16.0773 6.99221 16.0388 7.00141 16.0002 6.99932C15.8191 6.9993 15.6415 7.04842 15.4862 7.14145C15.3308 7.23448 15.2037 7.36793 15.1183 7.52756C15.0329 7.68719 14.9924 7.86701 15.0012 8.04784C15.01 8.22867 15.0677 8.40372 15.1682 8.55432L17.9132 12.6713C17.9357 12.7026 17.9488 12.7397 17.9507 12.7782C17.9527 12.8167 17.9434 12.8549 17.9242 12.8883C17.9071 12.9227 17.8805 12.9515 17.8475 12.9712C17.8145 12.9909 17.7766 13.0006 17.7382 12.9993H17.3332C17.1521 12.9993 16.9745 13.0484 16.8192 13.1414C16.6638 13.2345 16.5367 13.3679 16.4513 13.5275C16.3659 13.6872 16.3254 13.867 16.3342 14.0478C16.343 14.2287 16.4007 14.4037 16.5012 14.5543L18.7752 17.9643C18.9089 18.1605 18.9858 18.3899 18.9975 18.627C19.0091 18.8642 18.955 19.0999 18.8412 19.3083H18.8402Z" fill="currentColor"/>
<path d="M9.00012 17.9994C9.5524 17.9994 10.0001 17.5517 10.0001 16.9994C10.0001 16.4471 9.5524 15.9994 9.00012 15.9994C8.44784 15.9994 8.00012 16.4471 8.00012 16.9994C8.00012 17.5517 8.44784 17.9994 9.00012 17.9994Z" fill="currentColor"/>
<path d="M13.9999 17.9994C14.5522 17.9994 14.9999 17.5517 14.9999 16.9994C14.9999 16.4471 14.5522 15.9994 13.9999 15.9994C13.4476 15.9994 12.9999 16.4471 12.9999 16.9994C12.9999 17.5517 13.4476 17.9994 13.9999 17.9994Z" fill="currentColor"/>
<path d="M10.9998 14C11.5521 14 11.9998 13.5523 11.9998 13C11.9998 12.4477 11.5521 12 10.9998 12C10.4475 12 9.99982 12.4477 9.99982 13C9.99982 13.5523 10.4475 14 10.9998 14Z" fill="currentColor"/>
<path d="M13 11C13.5523 11 14 10.5523 14 10C14 9.44771 13.5523 9 13 9C12.4477 9 12 9.44771 12 10C12 10.5523 12.4477 11 13 11Z" fill="currentColor"/>
<path d="M10.9998 8C11.5521 8 11.9998 7.55228 11.9998 7C11.9998 6.44771 11.5521 6 10.9998 6C10.4475 6 9.99982 6.44771 9.99982 7C9.99982 7.55228 10.4475 8 10.9998 8Z" fill="currentColor"/>
</svg>
