<svg width="24" height="24" viewBox="0 0 24 24" fill="none" xmlns="http://www.w3.org/2000/svg">
<g clip-path="url(#clip0_403_2803)">
<path d="M19 9.026V4C19 2.93913 18.5786 1.92172 17.8284 1.17157C17.0783 0.421427 16.0609 0 15 0L9 0C7.93913 0 6.92172 0.421427 6.17157 1.17157C5.42143 1.92172 5 2.93913 5 4V9.026C4.38121 9.48786 3.87837 10.0874 3.53125 10.7771C3.18413 11.4668 3.00225 12.2279 3 13V15C3 17.3869 3.94821 19.6761 5.63604 21.364C7.32387 23.0518 9.61305 24 12 24C14.3869 24 16.6761 23.0518 18.364 21.364C20.0518 19.6761 21 17.3869 21 15V13C20.9978 12.2279 20.8159 11.4668 20.4688 10.7771C20.1216 10.0874 19.6188 9.48786 19 9.026ZM7 8V4C7 3.46957 7.21071 2.96086 7.58579 2.58579C7.96086 2.21071 8.46957 2 9 2H15C15.5304 2 16.0391 2.21071 16.4142 2.58579C16.7893 2.96086 17 3.46957 17 4V8H7ZM19 15C19 16.8565 18.2625 18.637 16.9497 19.9497C15.637 21.2625 13.8565 22 12 22C10.1435 22 8.36301 21.2625 7.05025 19.9497C5.7375 18.637 5 16.8565 5 15V13C5 12.2044 5.31607 11.4413 5.87868 10.8787C6.44129 10.3161 7.20435 10 8 10H16C16.7956 10 17.5587 10.3161 18.1213 10.8787C18.6839 11.4413 19 12.2044 19 13V15Z" fill="currentColor"/>
<path d="M10 5.99939C10.5523 5.99939 11 5.55167 11 4.99939C11 4.4471 10.5523 3.99939 10 3.99939C9.44771 3.99939 9 4.4471 9 4.99939C9 5.55167 9.44771 5.99939 10 5.99939Z" fill="currentColor"/>
<path d="M13.9999 5.99939C14.5521 5.99939 14.9999 5.55167 14.9999 4.99939C14.9999 4.4471 14.5521 3.99939 13.9999 3.99939C13.4476 3.99939 12.9998 4.4471 12.9998 4.99939C12.9998 5.55167 13.4476 5.99939 13.9999 5.99939Z" fill="currentColor"/>
</g>
<defs>
<clipPath id="clip0_403_2803">
<rect width="24" height="24" fill="white"/>
</clipPath>
</defs>
</svg>
