<svg width="24" height="24" viewBox="0 0 24 24" fill="none" xmlns="http://www.w3.org/2000/svg">
<g clip-path="url(#clip0_403_2866)">
<path d="M17 23.9999C15.6155 23.9999 14.2621 23.5894 13.111 22.8202C11.9599 22.0511 11.0626 20.9578 10.5328 19.6787C10.003 18.3996 9.8644 16.9922 10.1345 15.6343C10.4046 14.2764 11.0713 13.0292 12.0502 12.0502C13.0292 11.0712 14.2765 10.4045 15.6344 10.1344C16.9922 9.86435 18.3997 10.003 19.6788 10.5328C20.9579 11.0626 22.0511 11.9598 22.8203 13.111C23.5895 14.2621 24 15.6155 24 16.9999C23.9979 18.8558 23.2597 20.6351 21.9474 21.9474C20.6351 23.2596 18.8559 23.9978 17 23.9999ZM17 11.9999C16.0111 11.9999 15.0444 12.2932 14.2221 12.8426C13.3999 13.392 12.759 14.1729 12.3806 15.0865C12.0022 16.0002 11.9031 17.0055 12.0961 17.9754C12.289 18.9453 12.7652 19.8362 13.4645 20.5355C14.1637 21.2347 15.0546 21.7109 16.0245 21.9039C16.9944 22.0968 17.9998 21.9978 18.9134 21.6193C19.827 21.2409 20.6079 20.6 21.1573 19.7778C21.7067 18.9555 22 17.9888 22 16.9999C21.9984 15.6743 21.4711 14.4035 20.5338 13.4662C19.5964 12.5288 18.3256 12.0015 17 11.9999ZM18.707 18.7069C18.8945 18.5194 18.9998 18.2651 18.9998 17.9999C18.9998 17.7348 18.8945 17.4805 18.707 17.2929L18 16.5859V14.9999C18 14.7347 17.8946 14.4804 17.7071 14.2928C17.5196 14.1053 17.2652 13.9999 17 13.9999C16.7348 13.9999 16.4804 14.1053 16.2929 14.2928C16.1053 14.4804 16 14.7347 16 14.9999V16.9999C16 17.2651 16.1054 17.5195 16.293 17.7069L17.293 18.7069C17.4805 18.8944 17.7348 18.9997 18 18.9997C18.2652 18.9997 18.5195 18.8944 18.707 18.7069ZM1.99999 22.9999C2.00252 21.1625 2.61467 19.3779 3.74049 17.9258C4.86631 16.4737 6.44215 15.4362 8.22099 14.9759C8.34916 14.9469 8.47036 14.8929 8.57767 14.8171C8.68498 14.7412 8.77629 14.645 8.8464 14.5338C8.91651 14.4227 8.96404 14.2988 8.98627 14.1693C9.00851 14.0397 9.00501 13.9071 8.97599 13.7789C8.94697 13.6508 8.89299 13.5296 8.81713 13.4223C8.74126 13.315 8.64501 13.2236 8.53386 13.1535C8.42271 13.0834 8.29883 13.0359 8.16931 13.0137C8.03979 12.9914 7.90716 12.9949 7.77899 13.0239C5.55003 13.5709 3.57026 14.8526 2.15897 16.6625C0.747673 18.4724 -0.0128705 20.7049 -7.32293e-06 22.9999C-7.32293e-06 23.2652 0.10535 23.5195 0.292886 23.7071C0.480422 23.8946 0.734776 23.9999 0.999993 23.9999C1.26521 23.9999 1.51956 23.8946 1.7071 23.7071C1.89464 23.5195 1.99999 23.2652 1.99999 22.9999ZM8.47399 10.9999C7.3862 10.9999 6.32283 10.6774 5.41836 10.073C4.51389 9.46868 3.80894 8.60969 3.39266 7.6047C2.97637 6.59971 2.86745 5.49384 3.07967 4.42695C3.29189 3.36005 3.81572 2.38004 4.58491 1.61085C5.35409 0.841665 6.3341 0.317841 7.401 0.105622C8.46789 -0.106596 9.57376 0.00232205 10.5788 0.418604C11.5837 0.834886 12.4427 1.53984 13.0471 2.44431C13.6514 3.34878 13.974 4.41214 13.974 5.49994C13.9724 6.95815 13.3924 8.35617 12.3613 9.38728C11.3302 10.4184 9.9322 10.9984 8.47399 10.9999ZM8.47399 1.99994C7.78176 1.99994 7.10507 2.20521 6.5295 2.5898C5.95393 2.97438 5.50532 3.52101 5.24041 4.16055C4.97551 4.80009 4.9062 5.50382 5.04124 6.18276C5.17629 6.86169 5.50964 7.48533 5.99912 7.97482C6.4886 8.4643 7.11224 8.79764 7.79118 8.93269C8.47011 9.06774 9.17384 8.99843 9.81338 8.73352C10.4529 8.46861 10.9996 8.02001 11.3841 7.44444C11.7687 6.86887 11.974 6.19218 11.974 5.49994C11.974 4.57168 11.6052 3.68145 10.9489 3.02507C10.2925 2.36869 9.40225 1.99994 8.47399 1.99994Z" fill="currentColor"/>
</g>
<defs>
<clipPath id="clip0_403_2866">
<rect width="24" height="24" fill="white"/>
</clipPath>
</defs>
</svg>
