<svg width="24" height="24" viewBox="0 0 24 24" fill="none" xmlns="http://www.w3.org/2000/svg">
<g clip-path="url(#clip0_406_2238)">
<path d="M8.00003 2.99997C8.00003 2.40663 8.17598 1.82661 8.50562 1.33326C8.83527 0.839913 9.3038 0.455395 9.85198 0.228332C10.4002 0.00126934 11.0034 -0.0581407 11.5853 0.057615C12.1672 0.173371 12.7018 0.459093 13.1214 0.878651C13.5409 1.29821 13.8266 1.83276 13.9424 2.4147C14.0581 2.99664 13.9987 3.59984 13.7717 4.14802C13.5446 4.6962 13.1601 5.16474 12.6667 5.49438C12.1734 5.82402 11.5934 5.99997 11 5.99997C10.2044 5.99997 9.44132 5.6839 8.87871 5.12129C8.3161 4.55868 8.00003 3.79562 8.00003 2.99997ZM23 21H21.721L20.4 17.051C20.2011 16.4545 19.8199 15.9356 19.3101 15.5676C18.8003 15.1996 18.1878 15.001 17.559 15H14C13.4696 15 12.9609 14.7893 12.5858 14.4142C12.2107 14.0391 12 13.5304 12 13H18C18.2652 13 18.5196 12.8946 18.7071 12.7071C18.8947 12.5195 19 12.2652 19 12C19 11.7348 18.8947 11.4804 18.7071 11.2929C18.5196 11.1053 18.2652 11 18 11H12V7.99997C12 7.73476 11.8947 7.4804 11.7071 7.29287C11.5196 7.10533 11.2652 6.99997 11 6.99997C10.7348 6.99997 10.4805 7.10533 10.2929 7.29287C10.1054 7.4804 10 7.73476 10 7.99997V13C10 14.0608 10.4215 15.0783 11.1716 15.8284C11.9217 16.5785 12.9392 17 14 17H17.559C17.769 16.9999 17.9736 17.066 18.144 17.1887C18.3143 17.3115 18.4417 17.4848 18.508 17.684L20.052 22.316C20.1183 22.515 20.2455 22.6882 20.4157 22.8109C20.5858 22.9337 20.7902 22.9998 21 23H23C23.2652 23 23.5196 22.8946 23.7071 22.7071C23.8947 22.5195 24 22.2652 24 22C24 21.7348 23.8947 21.4804 23.7071 21.2929C23.5196 21.1053 23.2652 21 23 21ZM13.786 18.988C12.2319 18.9393 10.7581 18.2865 9.67762 17.1684C8.59719 16.0502 7.99536 14.5548 8.00003 13V9.07097C8.00005 8.92764 7.96926 8.78598 7.90974 8.65559C7.85022 8.5252 7.76336 8.40912 7.65506 8.31524C7.54676 8.22135 7.41954 8.15184 7.28202 8.11142C7.14451 8.071 6.99991 8.06062 6.85803 8.08097C4.87598 8.37904 3.07787 9.40981 1.81908 10.9696C0.560292 12.5293 -0.0675679 14.5045 0.0595947 16.5048C0.186757 18.5051 1.05969 20.3849 2.50586 21.7727C3.95202 23.1605 5.86619 23.9553 7.87003 24H8.00003C9.29227 24.0003 10.5653 23.6873 11.7101 23.0879C12.8549 22.4884 13.8373 21.6203 14.573 20.558C14.6755 20.4104 14.7364 20.238 14.7493 20.0588C14.7621 19.8797 14.7264 19.7003 14.646 19.5397C14.5656 19.379 14.4434 19.243 14.2922 19.146C14.1411 19.0489 13.9666 18.9943 13.787 18.988H13.786Z" fill="currentColor"/>
</g>
<defs>
<clipPath id="clip0_406_2238">
<rect width="24" height="24" fill="white"/>
</clipPath>
</defs>
</svg>
