<svg width="24" height="24" viewBox="0 0 24 24" fill="none" xmlns="http://www.w3.org/2000/svg">
<g clip-path="url(#clip0_403_2950)">
<path d="M23 20.9994H21.721L20.4 17.0504C20.2011 16.4539 19.8198 15.935 19.31 15.567C18.8002 15.199 18.1877 15.0004 17.559 14.9994H14C13.4695 14.9994 12.9608 14.7887 12.5858 14.4136C12.2107 14.0385 12 13.5298 12 12.9994H18C18.2652 12.9994 18.5195 12.894 18.7071 12.7065C18.8946 12.519 19 12.2646 19 11.9994C19 11.7342 18.8946 11.4798 18.7071 11.2923C18.5195 11.1047 18.2652 10.9994 18 10.9994H12V7.99939C11.994 7.95417 11.9849 7.90941 11.973 7.86539C12.9196 7.62798 13.7468 7.05267 14.2988 6.24777C14.8508 5.44288 15.0894 4.46396 14.9698 3.49534C14.8502 2.52672 14.3806 1.63525 13.6494 0.988805C12.9182 0.342356 11.9759 -0.0144653 11 -0.0144653C10.024 -0.0144653 9.08169 0.342356 8.35051 0.988805C7.61933 1.63525 7.14972 2.52672 7.03011 3.49534C6.91051 4.46396 7.14916 5.44288 7.70114 6.24777C8.25311 7.05267 9.08031 7.62798 10.027 7.86539C10.015 7.90941 10.006 7.95417 9.99996 7.99939V12.9994C10.0021 14.0435 10.4123 15.0453 11.143 15.791C11.8738 16.5367 12.8672 16.9672 13.911 16.9904C13.7282 18.0833 13.2463 19.1043 12.5188 19.9401C11.7913 20.7759 10.8465 21.3939 9.78922 21.7256C8.73195 22.0573 7.60346 22.0897 6.52888 21.8193C5.45429 21.5489 4.47558 20.9861 3.70125 20.1935C2.92691 19.4009 2.3872 18.4093 2.14195 17.3287C1.8967 16.2481 1.95549 15.1206 2.3118 14.0714C2.6681 13.0222 3.30801 12.0921 4.16058 11.3843C5.01315 10.6765 6.04508 10.2186 7.14196 10.0614C7.40466 10.0237 7.64164 9.88326 7.80076 9.67087C7.95989 9.45848 8.02813 9.19159 7.99046 8.92889C7.9528 8.66619 7.81233 8.42922 7.59994 8.27009C7.38756 8.11097 7.12066 8.04273 6.85796 8.08039C5.38193 8.29208 3.99444 8.9121 2.85206 9.87046C1.70968 10.8288 0.857889 12.0874 0.3928 13.5041C-0.0722886 14.9209 -0.13216 16.4394 0.219942 17.8884C0.572045 19.3374 1.32211 20.6591 2.38548 21.7044C3.44886 22.7498 4.78323 23.4771 6.23802 23.8043C7.6928 24.1316 9.21009 24.0457 10.6187 23.5564C12.0273 23.0672 13.2711 22.194 14.2097 21.0353C15.1484 19.8767 15.7446 18.4788 15.931 16.9994H17.559C17.7689 16.9993 17.9736 17.0654 18.1439 17.1881C18.3142 17.3109 18.4416 17.4842 18.508 17.6834L20.052 22.3154C20.1183 22.5144 20.2455 22.6876 20.4156 22.8103C20.5857 22.9331 20.7902 22.9992 21 22.9994H23C23.2652 22.9994 23.5195 22.894 23.7071 22.7065C23.8946 22.519 24 22.2646 24 21.9994C24 21.7342 23.8946 21.4798 23.7071 21.2923C23.5195 21.1047 23.2652 20.9994 23 20.9994ZM8.99996 3.99939C8.99996 3.60383 9.11726 3.21715 9.33703 2.88825C9.55679 2.55935 9.86915 2.30301 10.2346 2.15163C10.6001 2.00025 11.0022 1.96065 11.3901 2.03782C11.7781 2.11499 12.1345 2.30547 12.4142 2.58518C12.6939 2.86488 12.8844 3.22125 12.9615 3.60921C13.0387 3.99717 12.9991 4.3993 12.8477 4.76476C12.6963 5.13021 12.44 5.44257 12.1111 5.66233C11.7822 5.88209 11.3955 5.99939 11 5.99939C10.4695 5.99939 9.96082 5.78868 9.58575 5.4136C9.21068 5.03853 8.99996 4.52982 8.99996 3.99939Z" fill="currentColor"/>
</g>
<defs>
<clipPath id="clip0_403_2950">
<rect width="24" height="24" fill="white"/>
</clipPath>
</defs>
</svg>
