<svg width="24" height="24" viewBox="0 0 24 24" fill="none" xmlns="http://www.w3.org/2000/svg">
<g clip-path="url(#clip0_406_2231)">
<path d="M15.9999 22.9994C15.9999 22.8016 16.0586 22.6083 16.1685 22.4438C16.2784 22.2794 16.4345 22.1512 16.6173 22.0755C16.8 21.9998 17.001 21.98 17.195 22.0186C17.389 22.0572 17.5672 22.1524 17.707 22.2923C17.8469 22.4321 17.9421 22.6103 17.9807 22.8043C18.0193 22.9983 17.9995 23.1993 17.9238 23.3821C17.8481 23.5648 17.72 23.721 17.5555 23.8309C17.3911 23.9407 17.1977 23.9994 16.9999 23.9994C16.7347 23.9994 16.4804 23.894 16.2928 23.7065C16.1053 23.519 15.9999 23.2646 15.9999 22.9994ZM20.5349 20.8774C20.7224 20.6899 20.8277 20.4356 20.8277 20.1704C20.8277 19.9052 20.7224 19.6509 20.5349 19.4634C19.5973 18.526 18.3258 17.9995 16.9999 17.9995C15.6741 17.9995 14.4026 18.526 13.4649 19.4634C13.2828 19.652 13.182 19.9046 13.1843 20.1668C13.1865 20.429 13.2917 20.6798 13.4771 20.8652C13.6625 21.0506 13.9133 21.1558 14.1755 21.1581C14.4377 21.1603 14.6903 21.0595 14.8789 20.8774C15.4506 20.3324 16.2101 20.0284 16.9999 20.0284C17.7897 20.0284 18.5493 20.3324 19.1209 20.8774C19.3085 21.0649 19.5628 21.1702 19.8279 21.1702C20.0931 21.1702 20.3474 21.0649 20.5349 20.8774ZM23.3639 18.0494C23.5514 17.8619 23.6567 17.6076 23.6567 17.3424C23.6567 17.0772 23.5514 16.8229 23.3639 16.6354C21.6748 14.95 19.3861 14.0034 16.9999 14.0034C14.6138 14.0034 12.3251 14.95 10.6359 16.6354C10.4538 16.824 10.353 17.0766 10.3553 17.3388C10.3575 17.601 10.4627 17.8518 10.6481 18.0372C10.8335 18.2226 11.0843 18.3278 11.3465 18.3301C11.6087 18.3323 11.8613 18.2315 12.0499 18.0494C13.3641 16.7392 15.1442 16.0034 16.9999 16.0034C18.8557 16.0034 20.6357 16.7392 21.9499 18.0494C22.1375 18.2369 22.3918 18.3422 22.6569 18.3422C22.9221 18.3422 23.1764 18.2369 23.3639 18.0494ZM9.22194 19.4634C8.94331 19.1848 8.72228 18.8541 8.57149 18.4901C8.42069 18.126 8.34308 17.7359 8.34308 17.3419C8.34308 16.9479 8.42069 16.5577 8.57149 16.1937C8.72228 15.8297 8.94331 15.499 9.22194 15.2204C11.155 13.2928 13.735 12.1517 16.4616 12.0185C19.1883 11.8853 21.8672 12.7694 23.9789 14.4994C23.8845 12.8772 23.2948 11.3229 22.2896 10.0462C21.2843 8.76952 19.9117 7.83176 18.3569 7.35939C18.1854 7.30634 18.0297 7.21163 17.9037 7.08372C17.7777 6.95581 17.6854 6.79869 17.6349 6.62639C17.1058 4.92601 16.0244 3.45079 14.5621 2.43443C13.0998 1.41806 11.3402 0.918649 9.56205 1.01531C7.78386 1.11197 6.08876 1.79916 4.74525 2.96805C3.40175 4.13693 2.48666 5.72067 2.14494 7.46839C1.79339 9.23507 2.07669 11.0691 2.94494 12.6474C1.93339 13.1696 1.11085 13.9956 0.592855 15.0094C0.0748647 16.0231 -0.112549 17.1737 0.0569385 18.2994C0.31776 19.6071 1.01797 20.7863 2.04134 21.6412C3.0647 22.4962 4.34967 22.9754 5.68294 22.9994H12.7829C11.1159 21.3464 9.48694 19.7284 9.22194 19.4634Z" fill="currentColor"/>
</g>
<defs>
<clipPath id="clip0_406_2231">
<rect width="24" height="24" fill="white"/>
</clipPath>
</defs>
</svg>
