<svg width="24" height="24" viewBox="0 0 24 24" fill="none" xmlns="http://www.w3.org/2000/svg">
<g clip-path="url(#clip0_403_2947)">
<path d="M0 11.9993C0 11.7341 0.105357 11.4797 0.292893 11.2922C0.48043 11.1046 0.734784 10.9993 1 10.9993H7C7.26522 10.9993 7.51957 11.1046 7.70711 11.2922C7.89464 11.4797 8 11.7341 8 11.9993C8 12.2645 7.89464 12.5188 7.70711 12.7064C7.51957 12.8939 7.26522 12.9993 7 12.9993H1C0.734784 12.9993 0.48043 12.8939 0.292893 12.7064C0.105357 12.5188 0 12.2645 0 11.9993ZM20.886 11.1063C21.3845 10.4834 21.7263 9.75012 21.8829 8.96788C22.0395 8.18564 22.0063 7.37726 21.786 6.61052C21.5657 5.84378 21.1648 5.14102 20.6169 4.56119C20.069 3.98135 19.39 3.54133 18.637 3.27803C17.8839 3.01472 17.0787 2.9358 16.2889 3.04789C15.499 3.15998 14.7476 3.45981 14.0975 3.92223C13.4474 4.38466 12.9177 4.9962 12.5528 5.70559C12.1878 6.41497 11.9983 7.20152 12 7.99927C12 8.26449 12.1054 8.51884 12.2929 8.70638C12.4804 8.89392 12.7348 8.99927 13 8.99927C13.2652 8.99927 13.5196 8.89392 13.7071 8.70638C13.8946 8.51884 14 8.26449 14 7.99927C14 7.40593 14.1759 6.82591 14.5056 6.33256C14.8352 5.83921 15.3038 5.4547 15.8519 5.22763C16.4001 5.00057 17.0033 4.94116 17.5853 5.05692C18.1672 5.17267 18.7018 5.4584 19.1213 5.87795C19.5409 6.29751 19.8266 6.83206 19.9424 7.414C20.0581 7.99594 19.9987 8.59914 19.7716 9.14732C19.5446 9.6955 19.1601 10.164 18.6667 10.4937C18.1734 10.8233 17.5933 10.9993 17 10.9993H11C10.7348 10.9993 10.4804 11.1046 10.2929 11.2922C10.1054 11.4797 10 11.7341 10 11.9993C10 12.2645 10.1054 12.5188 10.2929 12.7064C10.4804 12.8939 10.7348 12.9993 11 12.9993H20C20.5304 12.9993 21.0391 13.21 21.4142 13.5851C21.7893 13.9601 22 14.4688 22 14.9993C21.991 17.3363 18.719 17.6473 17.943 15.6663C17.8547 15.4162 17.6706 15.2114 17.4313 15.097C17.192 14.9826 16.9171 14.968 16.667 15.0563C16.4169 15.1446 16.2121 15.3286 16.0977 15.5679C15.9833 15.8072 15.9687 16.0822 16.057 16.3323C17.615 20.4143 23.952 19.5783 24 14.9993C23.9983 14.0937 23.6893 13.2155 23.1236 12.5083C22.558 11.8012 21.7691 11.3069 20.886 11.1063ZM11 15.9993H1C0.734784 15.9993 0.48043 16.1046 0.292893 16.2922C0.105357 16.4797 0 16.7341 0 16.9993C0 17.2645 0.105357 17.5188 0.292893 17.7064C0.48043 17.8939 0.734784 17.9993 1 17.9993H11C11.5304 17.9993 12.0391 18.21 12.4142 18.5851C12.7893 18.9601 13 19.4688 13 19.9993C12.991 22.3363 9.719 22.6473 8.943 20.6663C8.89927 20.5424 8.83158 20.4284 8.74378 20.3308C8.65599 20.2331 8.54982 20.1537 8.43134 20.097C8.31285 20.0404 8.18436 20.0076 8.05322 20.0006C7.92207 19.9936 7.79084 20.0125 7.667 20.0563C7.54316 20.1 7.42915 20.1677 7.33148 20.2555C7.2338 20.3433 7.15438 20.4494 7.09773 20.5679C7.04109 20.6864 7.00834 20.8149 7.00135 20.9461C6.99436 21.0772 7.01327 21.2084 7.057 21.3323C8.615 25.4143 14.952 24.5783 15 19.9993C15 18.9384 14.5786 17.921 13.8284 17.1708C13.0783 16.4207 12.0609 15.9993 11 15.9993ZM1 7.99927H7C8.06087 7.99927 9.07828 7.57785 9.82843 6.8277C10.5786 6.07755 11 5.06014 11 3.99927C10.952 -0.581727 4.613 -1.41473 3.057 2.66627C2.96868 2.91637 2.98333 3.19131 3.09773 3.43061C3.21213 3.6699 3.4169 3.85396 3.667 3.94227C3.9171 4.03059 4.19204 4.01594 4.43133 3.90154C4.67063 3.78714 4.85468 3.58237 4.943 3.33227C5.72 1.35027 8.991 1.66227 9 3.99927C9 4.52971 8.78929 5.03841 8.41421 5.41349C8.03914 5.78856 7.53043 5.99927 7 5.99927H1C0.734784 5.99927 0.48043 6.10463 0.292893 6.29217C0.105357 6.4797 0 6.73406 0 6.99927C0 7.26449 0.105357 7.51884 0.292893 7.70638C0.48043 7.89392 0.734784 7.99927 1 7.99927Z" fill="currentColor"/>
</g>
<defs>
<clipPath id="clip0_403_2947">
<rect width="24" height="24" fill="white"/>
</clipPath>
</defs>
</svg>
