<svg width="24" height="24" viewBox="0 0 24 24" fill="none" xmlns="http://www.w3.org/2000/svg">
<g clip-path="url(#clip0_403_2792)">
<path d="M22.6099 0.208668C22.4 0.0475971 22.1347 -0.0236902 21.8723 0.0104234C21.6099 0.0445371 21.3717 0.18127 21.2099 0.390668L11.9999 12.3607L2.7919 0.390668C2.62757 0.18809 2.39059 0.05774 2.13151 0.0274245C1.87243 -0.00289107 1.61176 0.0692275 1.4051 0.228396C1.19844 0.387565 1.06216 0.621184 1.02532 0.879418C0.988477 1.13765 1.054 1.40006 1.2079 1.61067L10.7379 14.0007H5.9999C5.73469 14.0007 5.48033 14.106 5.2928 14.2936C5.10526 14.4811 4.9999 14.7355 4.9999 15.0007C4.9999 15.2659 5.10526 15.5202 5.2928 15.7078C5.48033 15.8953 5.73469 16.0007 5.9999 16.0007H10.9999V18.0007H5.9999C5.73469 18.0007 5.48033 18.106 5.2928 18.2936C5.10526 18.4811 4.9999 18.7355 4.9999 19.0007C4.9999 19.2659 5.10526 19.5202 5.2928 19.7078C5.48033 19.8953 5.73469 20.0007 5.9999 20.0007H10.9999V23.0007C10.9999 23.2659 11.1053 23.5202 11.2928 23.7078C11.4803 23.8953 11.7347 24.0007 11.9999 24.0007C12.2651 24.0007 12.5195 23.8953 12.707 23.7078C12.8945 23.5202 12.9999 23.2659 12.9999 23.0007V20.0007H17.9999C18.2651 20.0007 18.5195 19.8953 18.707 19.7078C18.8945 19.5202 18.9999 19.2659 18.9999 19.0007C18.9999 18.7355 18.8945 18.4811 18.707 18.2936C18.5195 18.106 18.2651 18.0007 17.9999 18.0007H12.9999V16.0007H17.9999C18.2651 16.0007 18.5195 15.8953 18.707 15.7078C18.8945 15.5202 18.9999 15.2659 18.9999 15.0007C18.9999 14.7355 18.8945 14.4811 18.707 14.2936C18.5195 14.106 18.2651 14.0007 17.9999 14.0007H13.2619L22.7919 1.61067C22.9536 1.40059 23.0253 1.13489 22.9911 0.871992C22.957 0.609091 22.8199 0.370501 22.6099 0.208668Z" fill="currentColor"/>
</g>
<defs>
<clipPath id="clip0_403_2792">
<rect width="24" height="24" fill="white"/>
</clipPath>
</defs>
</svg>
